<?xml version="1.0" standalone="no"?>
<!DOCTYPE svg PUBLIC "-//W3C//DTD SVG 1.1//EN" "http://www.w3.org/Graphics/SVG/1.1/DTD/svg11.dtd" >
<svg>
<metadata>
Created by FontForge 20110222 at Fri Jan 10 12:25:20 2014
 By Orthosie Webhosting
</metadata>
<defs>
<font id="LTCPabstOldstyle" horiz-adv-x="500" >
  <font-face 
    font-family="LTCPabstOldstyle"
    font-weight="400"
    font-stretch="normal"
    units-per-em="1000"
    panose-1="2 0 5 3 7 0 0 2 0 2"
    ascent="798"
    descent="-202"
    x-height="342"
    cap-height="729"
    bbox="-24 -211 1451 1002"
    underline-thickness="56"
    underline-position="-57"
    unicode-range="U+0020-FB02"
  />
<missing-glyph horiz-adv-x="280" 
 />
    <glyph glyph-name=".notdef" horiz-adv-x="280" 
 />
    <glyph glyph-name=".null" horiz-adv-x="0" 
 />
    <glyph glyph-name="uni000D" horiz-adv-x="222" 
 />
    <glyph glyph-name="space" unicode=" " horiz-adv-x="222" 
 />
    <glyph glyph-name="space" unicode="&#xa0;" horiz-adv-x="222" 
 />
    <glyph glyph-name="dollar" unicode="$" 
d="M454 558q0 -15 -5 -32l-3 -3q-10 -8 -24.5 -19t-25.5 -11q-9 0 -18.5 4.5t-17.5 11t-13 15.5t-5 18l3 27q0 17 -14 27.5t-28 15.5l-11 -4q1 -22 2.5 -44t1.5 -44l-6 -24v-53q0 -8 0.5 -16.5t1.5 -16.5q41 -11 75 -28.5t58 -43t37.5 -60t13.5 -79.5q0 -36 -15.5 -71.5
t-41.5 -64.5t-59.5 -48.5t-70.5 -23.5v-75q-5 -6 -11.5 -10t-14.5 -4q-16 0 -22 12l2 60q0 10 -8 15h-8q-7 -1 -13.5 -1.5t-13.5 -0.5q-26 0 -56 7t-55.5 21.5t-42 37t-16.5 54.5q0 28 14 48.5t45 20.5q19 0 31 -10.5t21 -25.5q4 -7 5.5 -15t2 -16t1.5 -16.5t5 -15.5
q11 -20 28 -31t40 -11q14 0 17 8.5t3 19.5v36.5t-1 36.5q-1 7 -2 13.5t-1 13.5q0 6 1.5 12t2.5 12q1 12 1 24v24v48q0 9 -4 12.5t-13 5.5q-11 8 -22.5 14t-24.5 11q-9 4 -18.5 5.5t-18.5 6.5q-42 20 -63.5 56t-21.5 83q0 30 9 59q4 13 12.5 23t16.5 21q26 37 61 61.5
t80 29.5l7 53q1 6 6.5 8.5t10.5 2.5q8 0 15 -1.5t15 -3.5l5 -62h7q26 0 39 -2.5t21.5 -7t15 -10.5t19.5 -13q7 -4 15 -5.5t13 -7.5q4 -5 9 -13t9 -17.5t7 -18.5t3 -15zM143 519q0 -6 5.5 -13t8.5 -12q9 -14 14 -19.5t10 -8.5t12 -6t19 -10q5 -3 11 -6.5t13 -3.5q5 0 6 5t1 9
l3 2v120q0 4 -0.5 10.5t-2 13.5t-4.5 12t-9 5q-18 0 -28 -13t-23 -22q-5 -4 -10.5 -6.5t-9.5 -8.5q0 -1 -2.5 -8.5t-5.5 -16t-5.5 -16zM289 187v-134q3 -7 10 -7q22 14 36 22.5t22.5 18t14 24t12.5 41.5q-2 14 -2.5 28t-5.5 27q-4 9 -11 16.5t-12 15.5q-8 14 -21.5 28
t-31.5 14q-8 0 -10 -6t-2 -12l6 -48z" />
    <glyph glyph-name="percent" unicode="%" horiz-adv-x="524" 
d="M241 661q4 -8 9.5 -14.5t11.5 -12.5l13 -45q-4 -14 -4.5 -23t-1 -17t-3.5 -17t-13 -21l-6 -3q-6 -10 -19.5 -23t-25.5 -13l-6 5q-3 -2 -5 -4l-4 -4t-8.5 -3t-14.5 -2t-15.5 -1h-10.5q-10 0 -14.5 6.5t-19.5 6.5q-10 4 -18 10.5t-16 12.5t-11 13t-5 13.5t-4 14t-7 15.5
q-1 8 -1 16.5v16.5q0 2 1 6.5t2 6.5l6 9q0 3 -0.5 6.5t-0.5 6.5q0 10 8 21t19 21t23.5 17.5t21.5 9.5q5 2 9.5 2.5t9.5 2.5q3 1 9.5 3.5t9.5 2.5q23 0 45 -9.5t45 -9.5q8 0 15 1t15 1q7 0 13 -1t12 -1q25 0 42.5 6t29.5 12.5t19.5 12.5t13.5 6q5 0 8.5 -2t7.5 -4
q8 -5 15 -7.5t12 -6.5t8 -10.5t3 -17.5q0 -13 -5 -22q-11 -20 -23.5 -39t-21.5 -40q-11 -26 -21 -53.5t-25 -51.5q-3 -5 -8 -10t-8 -11t-5.5 -11.5t-5.5 -10.5q-7 -12 -9 -25t-10 -24q-21 -31 -35 -64.5t-29 -67.5q-5 -11 -12.5 -19.5t-15.5 -17.5q-4 -5 -5.5 -10t-3.5 -10
q-5 -20 -13.5 -38t-16.5 -37q-5 -11 -11 -20t-11 -20l-5 -15t-7 -18t-8.5 -16.5t-10.5 -10.5q-3 -13 -9.5 -24.5t-22.5 -11.5q-10 0 -13.5 5t-11.5 6q-5 4 -12.5 7.5t-7.5 10.5q0 6 4 15t9.5 18.5t11.5 18t11 12.5q2 9 7 24t11 31.5t12.5 30.5t11.5 21q2 3 5 6t5 7
q7 11 11 23.5t9 24.5q13 29 31 56q3 5 8.5 17.5t11 26.5t10.5 27t7 20q13 11 21 26t19 27q8 22 15 43.5t20 41.5q7 10 13 19t11 20q3 8 5 16t6 16q5 9 9 18l8 18q2 4 4 7t2 7q0 6 -5 10t-10 5q-11 -2 -21.5 -5t-21.5 -3q-17 0 -36.5 2t-34.5 10zM347 232l5 1q5 0 9.5 -1.5
t9.5 -1.5q21 -1 32 -2.5t18.5 -5.5t16 -11t24.5 -19q8 -16 14 -35.5t6 -37.5q0 -8 -2.5 -19.5t-7 -23.5t-10 -22.5t-11.5 -16.5t-14.5 -12t-15.5 -11q-8 -5 -17 -6.5t-17 -6.5q-3 0 -6 0.5t-6 0.5q-9 0 -18 -1.5t-18 -1.5q-5 0 -15 5t-15 8q-35 18 -50 41.5t-14 62.5v7
q7 14 11 33.5t18 29.5q8 5 15 11t12 15q8 5 17 11t17 11zM92 586q0 -17 5 -25.5t11 -23.5q7 -16 15.5 -23t26.5 -7q29 0 46 22t17 49q0 12 -1 18.5t-3 12t-5.5 11t-7.5 15.5q-8 16 -13.5 22t-24.5 6q-10 0 -14 -2.5t-12 -5.5q-2 -1 -4.5 -1t-4.5 -1q-5 -2 -9.5 -10.5
t-8 -19.5t-7 -21.5t-6.5 -15.5zM303 123q0 -15 0.5 -24t3.5 -15.5t9 -13t16 -16.5l14.5 -14.5t20.5 -6.5q12 0 22.5 6.5t18 17t12 23t4.5 23.5q0 25 -2 38t-19 33q-8 10 -13.5 15t-19.5 5q-14 -6 -22.5 -8t-13.5 -5t-9.5 -10t-10.5 -22q-2 -6 -6.5 -13t-4.5 -13z" />
    <glyph glyph-name="ampersand" unicode="&#x26;" horiz-adv-x="722" 
d="M314 678q-5 0 -8.5 -1.5t-8.5 -1.5q-7 0 -13.5 1.5t-13.5 1.5q-16 0 -26 -10.5t-21 -18.5q-8 -5 -15.5 -8.5t-14.5 -9.5q-14 -14 -19 -34t-5 -39q0 -9 5 -17t13 -13.5t17.5 -9t17.5 -3.5q7 0 15.5 3.5t18 8t19.5 8t21 3.5q28 0 51 -11t23 -44q0 -16 -9 -29t-22.5 -22
t-30 -14t-30.5 -5q-16 0 -29.5 8.5t-27.5 8.5q-17 0 -24 -12t-16 -23q-23 -29 -34 -54t-11 -60q0 -11 4 -23.5t8 -23.5q8 -25 12 -40.5t10 -27t17.5 -23t34.5 -27.5l15 -10.5t9.5 -6t10 -5.5t16.5 -8q17 -8 33 -17.5t35 -9.5q11 0 22 3.5t22 4.5q15 1 24.5 2t17.5 3t16 7
t20 14q14 10 29 18t22 26q6 16 11.5 41.5t5.5 42.5q0 16 -11 34t-27.5 34t-35.5 26.5t-34 10.5h1q0 -1 -10 -3t-23.5 -5t-26.5 -6.5t-19 -6.5q-5 -4 -7.5 -8.5t-7.5 -8.5q-11 -8 -16.5 -11.5t-8 -8t-3 -11.5t-0.5 -21q0 -6 1 -15t4 -17.5t8.5 -14t13.5 -5.5q5 3 8 13t8.5 20
t15 18t27.5 8t30 -9t12 -29q0 -10 -4 -19l-8 -18q-6 -14 -11 -22.5t-12 -12.5t-16.5 -5t-24.5 -1h-19q-18 0 -31.5 10.5t-23.5 26t-15 33.5t-5 33q0 19 3.5 32.5t9.5 25.5t15 23t20 25q29 38 60 55t73 17q13 0 26 -2t26 -2q15 0 26.5 4.5t24.5 10.5q27 12 46.5 23t32 23.5
t18 29t5.5 40.5q0 29 -19 46.5t-47 17.5q-18 0 -28 -7.5t-10 -26.5v-8t3 -7l1 1q1 3 2.5 6.5t5.5 3.5q7 0 15 -3t15 -8.5t11.5 -12t4.5 -13.5q0 -11 -6 -17.5t-15 -10.5t-19 -5.5t-17 -1.5q-10 0 -19 7.5t-16 18t-11 22t-4 20.5q0 16 10 31t24.5 27t31.5 19t32 7
q14 0 30.5 -8.5t27.5 -16.5q14 -9 21.5 -16t11 -15t4.5 -18t4 -26q2 -13 7 -25.5t5 -26.5q0 -16 -6.5 -34.5t-14.5 -32.5q-8 -13 -21 -21t-21 -21q-4 -6 -6.5 -12.5t-6.5 -11.5t-9 -8t-9.5 -6t-8 -7.5t-3.5 -12.5q0 -6 2.5 -11.5t5.5 -10.5q3 -6 5 -17.5t3 -24.5t1.5 -25.5
t0.5 -19.5q0 -16 -10.5 -35t-21.5 -31q-10 -11 -16 -25t-16 -25q-5 -5 -23.5 -21t-45.5 -34.5t-60 -34.5t-67 -22q-38 -6 -77 -6q-14 0 -29 5t-28 10q-8 3 -14.5 9t-14.5 8q-17 5 -33 11.5t-33 15.5t-33.5 31.5t-29 49.5t-20 54.5t-7.5 46.5q0 14 4 37t10 47.5t13.5 46.5
t15.5 34q6 10 12.5 18.5t13.5 19.5q4 6 9 8.5t9.5 5t9 6t6.5 11.5q-8 14 -16 19.5t-15.5 12t-12 19t-4.5 42.5q0 17 8 38t18 35q8 11 18 17.5t18 16.5q6 7 10.5 15t12.5 13q7 5 14 7.5t14 6.5q26 15 44.5 24.5t50.5 9.5q12 0 26.5 -5t27 -14t21.5 -21t9 -25
q0 -12 -5.5 -26.5t-15 -26.5t-22 -20t-25.5 -8q-6 0 -13 3.5t-7 11.5q0 7 6 12.5t13.5 10.5t14 11.5t6.5 16.5q0 6 -6 17t-14 11zM258 478q0 -6 5.5 -10.5t13 -7.5t15.5 -4t13 -1q14 0 22 7t8 21q0 4 -4.5 8t-10.5 6.5t-12.5 4t-9.5 1.5t-9.5 -2.5t-13.5 -6.5t-12 -8.5
t-5 -7.5z" />
    <glyph glyph-name="quotesingle" unicode="'" horiz-adv-x="233" 
d="M183 604q0 -6 -3 -18t-7.5 -24t-11 -21t-13.5 -9q-8 0 -10.5 6t-2.5 13t2.5 13.5t2.5 13.5q0 5 -1.5 12t-4.5 13.5t-7.5 11t-11.5 4.5t-12.5 -2t-12.5 -2q-14 0 -27 15t-13 29q0 31 13 47.5t46 16.5q21 0 35.5 -12t23 -30t12 -39t3.5 -38z" />
    <glyph glyph-name="parenright" unicode=")" horiz-adv-x="246" 
d="M18 -150q-4 3 -4 9q0 14 0.5 21.5t1.5 12.5v8q0 1 4 3q2 1 4 1q8 0 11 -3.5t10 -3.5q12 0 19.5 8t13.5 20.5t10 30t7 34.5v54l5 92q-2 32 -3.5 60.5t-1.5 58.5q0 15 3.5 28t3.5 25q0 10 -2 17t-2 16q0 16 2 27.5t2 23.5v10q0 2 -1 6t-2.5 9t-2.5 9.5t-1 5.5q0 11 3.5 25
t3.5 26q-3 32 -7 63t-4 63v14q-8 27 -27 40t-46 13l-2 2v44q0 2 4 4q2 1 4 0q43 0 65 -21.5t36 -54.5q22 -33 35.5 -69t13.5 -53q4 0 9 -25t9 -62.5t7 -79t3 -72.5q-1 -31 -1.5 -58t-3 -51t-6.5 -49.5t-13 -54.5q0 -9 -9 -30.5t-19 -40.5q-4 -14 -11 -37t-15 -44.5
t-17 -38.5t-16 -23q-23 -20 -60 -17q-4 0 -10 4h-3z" />
    <glyph glyph-name="asterisk" unicode="*" horiz-adv-x="412" 
d="M327 646l8 7q3 -2 6.5 -9.5t7 -16.5t5.5 -18t2 -12q0 -6 -15.5 -9t-35.5 -5.5t-38 -6t-23 -10.5q4 -9 15 -22.5t23.5 -27t22 -25t10.5 -17.5q-1 -2 -5.5 -5.5t-10 -7.5t-10.5 -8t-8 -6l-8 -2l-5 3q-3 5 -11.5 20t-18 31t-18.5 28.5t-14 12.5q-9 -6 -18 -22t-18 -32.5
t-17.5 -29.5t-16.5 -13q-1 0 -2 0.5t-2 0.5l-36 26l-2 4q4 10 15.5 24t24 28t22.5 26t10 18q-27 2 -53 11t-52 16l-5 8v3q0 4 2.5 12t6.5 15.5t9 13t10 5.5q5 -2 20 -8.5t31 -13.5t29.5 -13t16.5 -6q3 3 3 7q0 26 -3.5 52t-3.5 52q0 8 5 8h48q7 0 7 -8q0 -28 -4 -56t-4 -56
q0 -4 6 -4z" />
    <glyph glyph-name="plus" unicode="+" horiz-adv-x="601" 
d="M514 343q8 -6 10 -16.5t2 -18.5t-3.5 -14t-10.5 -8h-174q0 -42 0.5 -72t0.5 -31q-2 -3 -2 -14q0 -4 0.5 -11.5t0.5 -16t0.5 -17t0.5 -13.5q0 -13 -3 -15.5t-13 -2.5q-6 0 -13 -0.5t-13 1.5t-10 7.5t-4 17.5q0 36 -0.5 59t-1 40t-1 32t-0.5 35h-114q-3 2 -14 2
q-8 0 -18 -1t-21 -1q-14 0 -25.5 4t-11.5 17q0 14 2.5 26t23.5 12q37 0 61 -0.5t42 -1t35 -1t40 -0.5v43q0 32 -0.5 43.5t-0.5 17.5q0 5 0.5 10t2.5 17l-4 54q6 8 18 12.5t20 4.5t14 -3.5t8 -10.5v-188h34q32 0 43.5 0.5t17.5 0.5q5 0 10 -0.5t17 -2.5z" />
    <glyph glyph-name="comma" unicode="," horiz-adv-x="278" 
d="M175 -85q-9 0 -11 7.5t-2 14.5q0 9 2.5 17t2.5 17q0 11 -6 21.5t-18 10.5q-5 0 -8 -2.5t-8 -2.5t-14.5 1t-14.5 3q-9 9 -16.5 22.5t-7.5 26.5q0 55 55 55q32 0 50 -22t23 -51q2 -9 0.5 -18t-1.5 -18q0 -6 1 -11.5t1 -11.5q0 -5 -2 -15t-6 -19.5t-9 -17t-11 -7.5z" />
    <glyph glyph-name="hyphen" unicode="-" horiz-adv-x="389" 
d="M273 115q-11 0 -21.5 4t-21.5 5q-17 1 -33 0t-32 -1q-21 0 -40.5 7.5t-36.5 7.5q-14 0 -24.5 -7t-24.5 -7q-8 0 -10 5t-2 11q0 8 2.5 13t6.5 8.5t8.5 7.5t7.5 10q6 10 7.5 24t14.5 19q6 2 10 2q7 0 13.5 -1.5t13.5 -1.5q6 0 12.5 0.5t12.5 0.5q12 0 23.5 -2t23.5 -2
t23.5 2t23.5 2q17 0 33 -3.5t33 -3.5q12 0 17 3.5t8.5 8t7.5 8.5t15 4q5 0 11.5 -2t6.5 -9q0 -2 -0.5 -3t-0.5 -3q-2 -9 -9.5 -14t-12.5 -13q-4 -6 -6 -12.5t-6 -12.5q-4 -7 -9.5 -12t-10.5 -11q-5 -7 -8 -15t-11 -13q-5 -4 -15 -4z" />
    <glyph glyph-name="period" unicode="." horiz-adv-x="278" 
d="M81 62q0 6 6 14t14.5 15t19 11.5t19.5 4.5q32 0 44.5 -18.5t12.5 -47.5q0 -8 -3 -11t-6 -10q-8 -17 -18 -21t-28 -4q-33 0 -47 17.5t-14 49.5z" />
    <glyph glyph-name="slash" unicode="/" horiz-adv-x="563" 
d="M458 722l62 -30l-416 -848l-62 30z" />
    <glyph glyph-name="zero" unicode="0" 
d="M474 359q0 -26 -1.5 -51.5t-3.5 -51.5q-2 -17 -8 -43t-15 -53t-20 -51t-21 -38q-8 -11 -15 -14.5t-16 -11.5q-8 -6 -13 -14t-13 -13q-5 -2 -9 -3.5t-9 -4.5q-2 -2 -3 -3.5t-3 -3.5q-5 -3 -10.5 -2.5t-10.5 -1.5q-10 -3 -15.5 -8t-16.5 -5q-16 0 -32 1t-32 3
q-45 6 -75.5 25t-50.5 46.5t-30.5 61.5t-15.5 71t-5.5 75.5t-0.5 74.5q0 18 5 45t13 55t18 53.5t21 40.5q5 6 9 11.5t9 11.5q5 8 9.5 15.5t10.5 14.5q5 6 12 11t13 10q5 5 8.5 9.5t8.5 9.5q20 20 46.5 27t54.5 7q22 0 38.5 -4t29.5 -12t25 -19.5t27 -27.5q16 -17 31 -39.5
t24 -44.5q6 -14 8.5 -29.5t5.5 -30.5q5 -25 11.5 -49t6.5 -50zM136 388q0 -18 2.5 -36t2.5 -36q0 -32 -0.5 -64.5t-0.5 -64.5q0 -22 3 -37.5t8.5 -28t14 -25.5t20.5 -30q14 -20 26.5 -30.5t38.5 -10.5q21 0 37.5 12.5t29 31t20.5 39.5t13 38q4 15 4.5 30.5t2.5 31.5
q2 12 4.5 23.5t2.5 24.5q0 45 -2.5 88t-6.5 88q-2 25 -3 45.5t-4.5 39.5t-11.5 37.5t-26 39.5q-12 14 -21 20.5t-29 6.5q-16 0 -36.5 -7t-31.5 -19q-2 -2 -8.5 -17t-14 -32.5t-13.5 -33t-7 -19.5q-3 -14 -3.5 -27t-2.5 -27q-2 -13 -5 -25t-3 -26z" />
    <glyph glyph-name="one" unicode="1" 
d="M313 626q0 -18 -7.5 -35t-7.5 -35q0 -69 1 -136.5t1 -136.5q0 -36 -2 -71.5t-2 -70.5q0 -7 0.5 -19t2.5 -24.5t5.5 -23.5t9.5 -15t13 -4.5t13 -3.5q5 -2 8.5 -6t8.5 -6q6 -3 16 -4t19.5 -2.5t16.5 -6.5t7 -16q0 -16 -17 -16q-49 0 -97.5 3t-97.5 3q-20 0 -41 -2.5
t-41 -4.5q-7 2 -16.5 5.5t-17.5 1.5q-3 4 -5.5 7.5t-4.5 7.5v2q0 12 18 16t39.5 8.5t39.5 13.5t18 31q0 5 -1 10t-1 10q0 16 3.5 31.5t3.5 31.5q0 17 -1 34.5t-4 34.5q-1 8 -2.5 15t-1.5 15l6 281q-5 5 -11 8.5t-12 7.5q-7 1 -19 2t-24 4t-21 8.5t-9 14.5q0 8 7.5 12.5
t17.5 6.5t20.5 2.5t15.5 2.5q7 2 12.5 4.5t12.5 4.5q9 2 19 3.5t19 4.5t17.5 8t18.5 7q5 5 13.5 12.5t16.5 7.5q5 0 9.5 -5.5t7.5 -12.5t5 -14.5t2 -11.5z" />
    <glyph glyph-name="two" unicode="2" 
d="M242 664q16 0 31 -2t31 -2q34 0 63 -16.5t50 -43t33 -59t12 -64.5q0 -20 -8.5 -34.5t-14.5 -32.5q-5 -12 -8 -25t-9 -24q-7 -12 -27 -38.5t-44 -55t-46.5 -53t-33.5 -33.5q-10 -8 -20 -15t-19 -15q-11 -11 -22 -21.5t-24 -19.5l-3 -14l66 -2t66 -1q15 0 23 1t14 4t13 7.5
t19 11.5q8 5 16 8t15 8q9 7 17 18t21 11q8 0 11.5 -5.5t3.5 -12.5q0 -1 -1 -4.5t-1 -4.5q-5 -13 -19 -33t-22 -34q-9 -17 -15.5 -37t-16.5 -37q-3 -5 -9 -5q-49 0 -97.5 5.5t-97.5 5.5q-6 0 -22.5 -1.5t-35 -3t-35 -3.5t-20.5 -3q-8 -2 -19.5 -6t-18.5 -4q-12 0 -12 13
q0 4 6 10.5t14.5 14t16 14.5t10.5 11q16 19 30.5 38.5t33.5 36.5q14 12 28.5 22.5t26.5 24.5q14 15 30.5 33t27.5 36q5 7 7.5 14.5t7.5 14.5q5 8 12 15t12 16q4 8 5.5 16t5.5 16q2 5 5.5 9.5t5.5 9.5q7 15 11 36t6.5 44.5t3 45.5t0.5 39q0 9 -4.5 17t-6.5 16q-3 10 -4 20
t-8 18q-3 4 -7 6.5t-8 5.5q-10 8 -18 13.5t-16 8.5t-18 4.5t-23 1.5q-8 0 -15 -3.5t-14 -6.5q-18 -8 -27.5 -15.5t-15 -16.5t-8.5 -21t-8 -30q-2 -8 -5.5 -16.5t-3.5 -16.5q0 -9 3 -22t7.5 -26t10.5 -24.5t12 -18.5q6 -6 17 -9.5t22.5 -7.5t20 -9t8.5 -15q0 -3 -5 -7.5
t-11 -9.5t-12 -8.5t-9 -3.5q-14 0 -26.5 2.5t-26.5 4.5q-21 3 -33.5 10.5t-21 19.5t-15 27.5t-15.5 32.5q-5 8 -9.5 16.5t-4.5 18.5q0 9 3.5 24.5t8 32t10 31.5t10.5 22q8 13 20.5 18.5t23.5 14.5q8 7 14.5 16t15.5 15q19 13 49 19t53 6z" />
    <glyph glyph-name="three" unicode="3" 
d="M367 395q19 -5 35.5 -18.5t28.5 -31.5t19 -38.5t7 -39.5q0 -35 -9.5 -68.5t-26.5 -63.5q-3 -6 -8.5 -10t-8.5 -10q-3 -5 -4 -10t-4 -10q-2 -3 -5 -5l-6 -4q-7 -6 -11 -14t-11 -13q-6 -5 -9 -7t-6.5 -4t-7.5 -5.5t-11 -9.5q-10 -9 -23.5 -12t-25.5 -9q-10 -5 -16 -9.5
t-12 -7.5t-13.5 -5t-19.5 -2q-7 0 -21.5 0.5t-30.5 1.5t-30 2.5t-18 4.5q-3 2 -5 4.5t-5 4.5q-7 4 -10 4.5t-5.5 0.5t-6 2.5t-11.5 11.5q-6 8 -14.5 12.5t-13.5 12.5t-7.5 16.5t-7.5 16.5t-8.5 13t-3.5 15q0 16 3.5 32.5t11 30.5t20.5 23t32 9q24 0 46.5 -14.5t22.5 -41.5
q0 -16 -8 -31t-23 -21q-5 -2 -9 -1t-9 1q-10 0 -10 -9q0 -16 8.5 -26.5t21 -16.5t27 -8.5t27.5 -2.5q34 0 63 16.5t50.5 42.5t33.5 58.5t12 64.5q0 12 -1.5 24.5t-2.5 24.5q-2 42 -17.5 63.5t-55.5 35.5q-8 3 -17 6t-18 3q-18 0 -35 -7.5t-35 -7.5q-8 0 -16 4.5t-8 13.5
q0 8 6 13q1 1 6.5 3t12 4t12 4t7.5 3q17 6 39 15.5t42 22.5t33.5 30t13.5 39t-5 32.5t-19 27.5q-5 6 -11 14t-14 10q-5 2 -11.5 2h-11.5q-35 0 -57.5 -6t-38.5 -18.5t-29.5 -33t-29.5 -49.5l-6 -3q-8 0 -14 6t-6 14q0 39 22 68.5t54.5 49.5t71 30t71.5 10q119 0 149 -114
l2 -8t1 -8q0 -5 -2.5 -9t-4.5 -9q-19 -39 -47 -61t-60 -48z" />
    <glyph glyph-name="four" unicode="4" 
d="M364 389q0 -25 3.5 -49t3.5 -49q0 -10 -1.5 -19.5t-1.5 -19.5q0 -7 3 -12t11 -5q15 0 33.5 14.5t30.5 23.5q2 0 2.5 0.5t2.5 0.5q5 0 9.5 -3.5t4.5 -8.5q0 -11 -4.5 -23t-9.5 -24.5t-9.5 -24.5t-4.5 -22q0 -5 -2 -15l-7 -3l7 -1l1 -1q0 -4 -2.5 -7.5t-4.5 -6.5
q-3 -1 -10 -1t-15 0.5t-15.5 1t-11.5 0.5q-5 0 -8 -8.5t-3 -13.5t1 -9t1 -9q0 -13 -1.5 -25.5t-1.5 -25.5q0 -8 3.5 -14t5.5 -14l-1 -6l-3 -4q-11 -1 -23 -2.5t-23 -4.5l-9 4l-73 -3q-4 0 -6 4t-2 7q0 2 1 4t1 4q9 14 16 30t7 33v12.5t-1 17.5t-2 16.5t-4 10.5l-222 1
q-5 0 -7 7t-2 11q0 28 13.5 53t26.5 48q8 13 14 26.5t14 26.5q14 20 29.5 38t29.5 38q8 11 12.5 22t12.5 22q14 19 29 36.5t29 36.5q18 25 35 50t34 51q4 5 6.5 11.5t7.5 11.5q7 8 16 15t12 18q6 3 15 3q19 0 19 -21q0 -64 -6 -127.5t-6 -127.5zM208 405q-4 -12 -9 -19.5
t-10.5 -14t-12 -12.5t-13.5 -15q-3 -5 -13.5 -21t-22 -34.5t-20.5 -34.5t-9 -19q8 -5 16 -5q15 0 29.5 2.5t29.5 2.5q17 0 35 -1t35 -1q16 0 16 17q0 10 -1.5 19.5t-1.5 19.5q0 19 3 37t3 37v45t-5 45q-9 0 -14.5 -6t-11 -13.5t-11 -16t-12.5 -12.5z" />
    <glyph glyph-name="five" unicode="5" 
d="M370 585q-10 -8 -19.5 -15.5t-20.5 -13.5q-8 -5 -17.5 -6t-19 -2.5t-18.5 -3.5t-16 -8q-24 -5 -47.5 -12.5t-48.5 -8.5q-13 -8 -26 -11l-5 -87q28 15 58 28.5t62 13.5q11 0 20.5 -2t20.5 -3q26 -3 43.5 -7t31 -12t25.5 -20.5t29 -32.5q20 -24 27.5 -43.5t7.5 -50.5
q0 -15 -2 -33.5t-6 -37.5t-9.5 -36.5t-12.5 -30.5q-9 -17 -23.5 -29t-27.5 -26q-13 -15 -23.5 -30.5t-27.5 -27.5q-12 -9 -27.5 -17.5t-32.5 -15t-34 -11t-32 -4.5q-29 0 -59.5 2.5t-55 13t-40 32.5t-15.5 60q0 20 13 38t34 18q24 0 45 -14.5t21 -40.5q0 -13 -8.5 -22
t-8.5 -15q0 -2 6 -7.5t14.5 -11t16 -10t10.5 -4.5q23 0 45 9.5t43 17.5q12 4 18 7.5t9.5 7.5t7 10t10.5 15q13 18 21 31t12.5 26.5t6 29.5t1.5 38q0 27 -6 58t-19.5 57.5t-36.5 43.5t-56 17q-14 0 -33.5 -7t-34.5 -11q-9 -12 -20.5 -21t-24.5 -17l-10 -20q-2 0 -7.5 1
t-5.5 4v271q0 10 7 16q23 -1 44 7t43 13q20 4 41 6t41.5 5.5t39.5 10t36 20.5q3 9 8 20t17 11q9 0 13.5 -6.5t7 -15.5t3 -18.5t0.5 -15.5q0 -13 -9 -32.5t-14 -31.5z" />
    <glyph glyph-name="six" unicode="6" 
d="M238 -14q-11 0 -32.5 5.5t-31.5 10.5q-11 5 -19 13t-17 16q-11 9 -23 16.5t-20 20.5q-5 8 -8.5 16.5t-7.5 16.5q-6 14 -14.5 27t-13.5 27q-11 29 -16 62.5t-5 63.5q0 45 11.5 87.5t31 81t46.5 73.5t58 67q13 13 29 26.5t34 24.5t37 18t38 7q11 0 28 -2t32.5 -7.5
t26.5 -15t11 -24.5q0 -16 -15 -16q-17 0 -32 8t-32 8q-21 0 -40.5 -8t-37 -21t-32 -28.5t-25.5 -31.5q-11 -17 -23 -32.5t-20 -34.5q-5 -12 -7.5 -24t-5.5 -25q-2 -9 -4.5 -17.5t-2.5 -17.5q0 -12 2 -23.5t2 -23.5q0 -3 -1 -6t-1 -6q0 -7 8 -7q1 0 10.5 5.5t21 12.5t22.5 13
t16 8q9 3 21 5.5t25.5 5t26 3.5t21.5 1q10 0 18 -2.5t17 -6.5q11 -5 23 -8t23 -9q40 -21 63 -56.5t23 -82.5q0 -43 -14.5 -83.5t-45.5 -71.5q-7 -7 -15.5 -10.5t-14.5 -11.5q-5 -6 -7.5 -8.5t-5 -3t-5.5 0t-10 -0.5q-10 -2 -17 -10t-19 -11q-19 -5 -42 -4.5t-43 0.5zM305 40
q42 0 62.5 26.5t20.5 64.5q0 32 -13 49.5t-30 40.5q-8 11 -14.5 21t-17.5 17q-20 11 -37.5 17.5t-40.5 6.5q-29 0 -50.5 -20.5t-21.5 -50.5q0 -46 25.5 -85.5t63.5 -62.5q11 -7 25.5 -15.5t27.5 -8.5z" />
    <glyph glyph-name="seven" unicode="7" 
d="M243 105q0 -18 13.5 -28t29.5 -18t29.5 -16t13.5 -20t-8 -17.5t-19 -5.5q-20 0 -39 4t-39 4q-18 0 -35.5 -4t-35.5 -4q-11 0 -17.5 7t-9.5 17t-3.5 21t-0.5 19q0 14 3 35t8.5 43t12 42t13.5 32q6 11 8 21.5t5 21.5q4 12 11.5 21t12.5 20q7 13 11.5 26.5t11.5 26.5
q8 14 18 24.5t18 24.5q12 21 23.5 41.5t27.5 39.5l16 16t15 16q2 3 6 11t8 17.5t7.5 18t5.5 12.5q-30 2 -59.5 5t-59.5 3q-8 0 -16 -1.5t-16 -2.5l-4 3l-2 -4q-29 -4 -55.5 -8.5t-49.5 -24.5q-6 -5 -11.5 -13t-12 -16t-14 -14t-15.5 -6q-15 0 -15 15q0 6 5.5 18t13 26t14 27
t9.5 20q3 8 5 20.5t5.5 24.5t10 20.5t18.5 8.5q37 0 73.5 -2.5t72.5 -2.5q51 0 102.5 3t102.5 6q5 -3 10 -8t5 -12q0 -8 -11.5 -18t-16.5 -16q-23 -26 -38.5 -56.5t-34.5 -59.5q-6 -9 -7 -14t-2.5 -8.5t-5.5 -9t-17 -15.5q-10 -8 -15.5 -18t-9 -20.5t-6.5 -22t-9 -21.5
q-5 -9 -10.5 -17t-9.5 -17q-4 -10 -5 -20t-4 -20q-4 -11 -10 -21t-10 -21q-12 -38 -14 -78.5t-2 -80.5z" />
    <glyph glyph-name="eight" unicode="8" 
d="M438 104q-3 -4 -9 -13.5l-12 -19t-11.5 -18t-8.5 -9.5q-2 -2 -4.5 -1.5t-4.5 -1.5q-5 -3 -7 -7t-6 -8q-7 -6 -17 -7t-18 -4q-11 -5 -18.5 -12.5t-19.5 -10.5q-18 -4 -37.5 -4.5t-37.5 -0.5q-6 0 -16.5 1.5t-22 3.5t-22 4t-15.5 4q-7 3 -11.5 8t-10.5 9q-7 4 -14 5t-14 6
t-11 12t-10 12q-26 25 -39 57.5t-13 68.5q0 13 4 23.5t10 21.5q12 23 22.5 40t23 30.5t28 25.5t37.5 26q-20 7 -35.5 17t-26.5 30q-8 15 -14.5 22.5t-11.5 15t-7.5 18t-2.5 30.5q0 29 3.5 48t19.5 43q8 13 15.5 26.5t21.5 21.5q7 4 14 6.5t14 6.5q16 8 26 14.5t19.5 11.5
t21.5 7.5t32 2.5q42 0 80.5 -6t68 -23t47 -48t17.5 -81q0 -22 -10 -40.5t-25 -34.5t-33 -29.5t-33 -25.5q0 -5 7.5 -9.5t16.5 -9t17.5 -8t12.5 -6.5q14 -11 26 -28.5t20.5 -37.5t13 -41t4.5 -38q0 -10 -1.5 -24.5t-5.5 -29t-10.5 -26.5t-16.5 -16zM124 179q0 -25 1.5 -35.5
t5 -17t10 -13.5t16.5 -25q2 -5 4.5 -9t4.5 -8q5 -8 15.5 -15t22.5 -12.5t24.5 -8.5t21.5 -3q16 0 40.5 7.5t37.5 16.5q7 5 11.5 12t11.5 12q5 4 9 6.5t8 6.5q10 11 14.5 33t4.5 36q0 26 -16 51t-36 41q-12 10 -25 16t-27 14q-8 4 -14.5 8.5t-14.5 7.5q-14 5 -22 7t-19 14
q-11 -4 -22.5 -13.5t-16.5 -11.5q-3 -1 -6 -1t-6 -2q-7 -4 -8.5 -11t-4.5 -13q-7 -15 -12 -24t-8 -18t-4 -20t-1 -28zM135 523q0 -14 6.5 -27.5t16.5 -25t22 -20.5t24 -15q16 -8 33.5 -12.5t34.5 -10.5q7 -2 18.5 -7.5t18.5 -5.5q8 0 11 3t4 7.5l2 9t5 6.5q2 1 3.5 1t3.5 2
t2 4t1 4q2 10 6.5 17t9 14.5t8 15.5t3.5 20q0 49 -28 82.5t-79 33.5q-12 0 -27.5 -0.5t-26.5 -4.5q-7 -2 -12 -6.5t-12 -7.5t-14.5 -5t-12.5 -8q-9 -11 -15 -30.5t-6 -33.5z" />
    <glyph glyph-name="nine" unicode="9" 
d="M184 -13q-12 0 -20.5 4t-19.5 8q-6 2 -12 2.5t-12 2.5q-20 7 -33 26.5t-13 39.5q0 24 13 40.5t39 16.5q19 0 35.5 -10t24.5 -27q3 -7 4 -13.5t3 -11.5t6.5 -8t16.5 -3q29 0 49 6.5t34 19.5t23 32.5t17 45.5q6 21 10.5 34.5t7 26t3.5 27t1 37.5q0 5 -2.5 11t-9.5 6
q-9 0 -22.5 -9.5t-21.5 -14.5q-6 -4 -16.5 -7.5t-21.5 -6t-22 -4t-18 -1.5t-13.5 1.5t-14.5 1.5q-5 0 -8.5 -2t-8.5 -2t-8.5 3.5t-8.5 5.5q-9 5 -20 4.5t-19 6.5q-3 2 -5.5 5t-5.5 6q-11 11 -23.5 20t-22.5 21q-15 19 -24 35t-13 33t-5 35.5t-1 41.5q0 35 11 60.5t34 52.5
q6 8 14 13t16 11q12 10 22.5 21t24.5 19q25 14 43.5 17t46.5 3q45 0 79.5 -11t63.5 -47q6 -8 10.5 -16.5t11.5 -16.5q9 -11 18 -18t15 -21q17 -42 24.5 -87t7.5 -90q0 -24 -3 -48l-6 -48q-2 -17 -9 -30.5t-13 -28.5q-11 -26 -18.5 -51.5t-27.5 -46.5q-11 -12 -23 -23
l-24 -22q-11 -10 -18.5 -16.5t-20.5 -12.5q-8 -4 -12.5 -10t-11.5 -11q-5 -3 -18.5 -7.5t-29.5 -9t-30 -8t-19 -3.5zM121 515q0 -12 2.5 -29t6 -34t8 -33t9.5 -28q5 -13 14.5 -22.5t19.5 -18.5q11 -10 15 -16.5t8.5 -10.5t12 -5.5t25.5 -1.5q8 0 16 -1.5t16 -1.5q14 0 28 12
t25 29t17.5 35t6.5 31q0 15 -1 26.5t-3.5 22t-6.5 21t-10 24.5q-5 11 -11 20t-11 20q-2 6 -4.5 12.5t-6.5 11.5q-4 6 -9.5 9.5t-10.5 8.5q-17 15 -30 24t-38 9q-9 0 -21 -5.5t-23.5 -13.5t-21 -17t-12.5 -17q-1 -2 -2.5 -10.5t-3 -19t-3 -19.5t-1.5 -12z" />
    <glyph glyph-name="colon" unicode=":" horiz-adv-x="389" 
d="M271 234q-11 0 -20 5.5t-15.5 14.5t-10 20t-3.5 21q0 22 17 34.5t37 12.5q21 0 39 -12.5t18 -35.5q0 -19 -8 -37t-31 -18q-6 0 -11.5 -2.5t-11.5 -2.5zM298 -10q-35 0 -54.5 13t-19.5 51q0 4 6 11.5t8 11.5q8 13 16.5 19.5t25.5 6.5q25 0 43 -20t18 -44q0 -5 -3.5 -9
t-5.5 -9q-4 -7 -6.5 -12.5t-5.5 -9.5t-8 -6.5t-14 -2.5z" />
    <glyph glyph-name="semicolon" unicode=";" horiz-adv-x="389" 
d="M270 228q-6 0 -11.5 3.5t-10.5 5.5q-12 5 -17.5 9t-7.5 8.5t-2.5 11t-3.5 18.5q-2 8 -2 13q0 17 15 31t32 14q29 0 48 -15.5t19 -45.5q0 -11 -2 -16.5t-6 -9.5t-10 -7t-13 -8q-9 -6 -12.5 -9t-15.5 -3zM341 -8q0 -5 -2 -10t-2 -10t0.5 -9t0.5 -9t-2 -14t-5.5 -17.5
t-8.5 -15t-11 -6.5t-12 5.5t-6 11.5q0 10 4 18.5t4 18.5q0 11 -6.5 23t-19.5 12q-8 0 -15 -3t-15 -3t-14.5 5.5t-11.5 13.5t-8 17t-3 16q0 29 18 41t44 12q17 0 30 -10t22 -24.5t14 -31.5t5 -31z" />
    <glyph glyph-name="less" unicode="&#x3c;" horiz-adv-x="244" 
d="M206 85q5 -8 5 -16q0 -12 -12 -12q-3 0 -6 3l-148 154q-10 10 -10 22q0 10 8 18l145 140q5 5 13 5t8 -8q0 -9 -5 -17l-87 -143z" />
    <glyph glyph-name="equal" unicode="=" horiz-adv-x="605" 
d="M513 262q8 -6 12.5 -18t4.5 -20t-3.5 -14t-10.5 -8h-66h-13.5t-32 -0.5t-45 -0.5h-51.5h-139h1q-3 2 -14 2q-4 0 -11.5 -0.5t-16 -0.5t-17 -0.5t-13.5 -0.5q-14 0 -16 4t-2 17q0 9 1 15t3 15q5 1 11 3t11 2h56.5t39 0.5t30.5 1t32 1t43 0.5h64q32 0 43.5 0.5t17.5 0.5
q5 0 10 -0.5t17 -2.5zM513 428q8 -6 10 -16.5t2 -18.5t-3.5 -14t-10.5 -8h-66h-13.5t-32 -0.5t-45 -0.5h-51.5h-139h1q-3 2 -14 2q-8 0 -18 -1t-21 -1q-14 0 -25.5 4t-11.5 17q0 9 2 18.5t4 18.5q5 1 10 1h10q51 0 78 -0.5t50 -1t53.5 -1t88.5 -0.5q32 0 43.5 0.5t17.5 0.5
q5 0 10 -0.5t17 -2.5z" />
    <glyph glyph-name="greater" unicode="&#x3e;" horiz-adv-x="244" 
d="M127 231q-6 9 -21 32t-30.5 49t-28 48.5t-12.5 30.5t8 8q4 0 16.5 -9.5t28 -24t33.5 -31.5t34 -33.5t28.5 -29l17.5 -17.5q8 -8 8 -18q0 -7 -2.5 -12t-7.5 -10q-4 -4 -17 -17.5t-29.5 -31t-34.5 -36.5t-34 -35t-27 -26.5t-12 -10.5q-11 0 -11 12q0 7 12.5 30.5t28.5 49.5
t31.5 49.5t20.5 32.5z" />
    <glyph glyph-name="question" unicode="?" horiz-adv-x="445" 
d="M395 596q0 -8 -2 -16t-2 -16q0 -6 1 -12t1 -12q0 -9 -4.5 -18t-10.5 -17.5t-12.5 -16.5t-10.5 -15q-5 -10 -9 -20.5t-11 -20.5q-6 -8 -14 -15t-14 -15q-7 -8 -12 -17.5t-13 -17.5q-6 -7 -14.5 -12t-13.5 -13q-7 -10 -8 -22t-6 -23q-4 -7 -9 -12.5t-8 -13.5q-3 -6 -4 -19
t-3.5 -26t-7.5 -23t-15 -10q-11 0 -14.5 10.5t-3.5 19.5q0 18 3.5 40.5t9.5 45t14 43.5t17 37q16 26 33.5 48.5t23.5 53.5q5 20 5.5 41t0.5 42q0 6 -5.5 13.5t-13.5 14t-16.5 11.5t-13.5 5q-3 0 -16.5 -3t-29 -6.5t-28.5 -7.5t-16 -5q-6 -3 -10 -9.5t-7.5 -13t-8.5 -11.5
t-13 -5q-7 0 -12.5 4t-5.5 12q0 5 3 9.5t5 9.5q2 7 2 14.5t5 14.5q3 5 7 7t8 5t6.5 7.5t6.5 7.5q8 7 16.5 10t16.5 9l10 10t10 9q17 12 34.5 14.5t37.5 2.5q12 0 19.5 -1t13.5 -3t12.5 -5.5t16.5 -8.5t24 -9t22 -11q13 -11 23 -31.5t10 -37.5zM253 76v-10.5t-0.5 -16
t-1.5 -15.5t-2 -9q-7 -12 -26 -21t-33 -9q-12 0 -20.5 5.5t-14.5 14.5t-9 20t-3 21q0 25 12 41t39 16q8 0 18 -2t19 -6.5t15.5 -11.5t6.5 -17z" />
    <glyph glyph-name="at" unicode="@" horiz-adv-x="754" 
d="M441 460q23 0 42.5 -4t36 -10t31 -13t29.5 -12q11 -6 22 -12.5t20 -17.5q7 -8 8.5 -15.5t6.5 -16.5q11 -19 21.5 -35t18.5 -31.5t13 -32.5t5 -38q0 -14 -1.5 -33.5t-4 -38.5t-6 -35.5t-8.5 -23.5q-4 -6 -5.5 -12t-3.5 -11q-11 -12 -18.5 -22t-14.5 -17.5t-15 -13.5
t-20 -11q-17 -8 -35.5 -12t-29.5 -4q-54 0 -74 3t-20 8q-8 3 -15.5 11.5t-12.5 25.5h-3q-7 0 -12 -6t-9 -6q-15 -8 -30.5 -16.5t-33.5 -8.5q-54 0 -78.5 27t-24.5 72v2q0 22 6 40.5t15.5 34.5t20.5 30.5t21 29.5q19 29 48 46.5t60 22.5h35q12 0 23.5 -2.5t21.5 -10.5
l4.5 -4.5t7.5 -8t8 -8t6 -4.5h2q7 0 12 3t10.5 7t12 7t15.5 3q5 0 9 -1.5t4 -8.5v-2q0 -2 -1 -5t-2 -5l-12 -21q-8 -18 -20 -42t-23 -51.5t-19.5 -56t-8.5 -54.5q0 -7 1 -13.5t6 -6.5h1l52 6q30 3 51 18t33.5 35.5t18 44t5.5 45.5q0 49 -18 93.5t-47 78t-64.5 53t-71.5 19.5
q-8 0 -23 -1t-23 -3q-7 1 -13 1h-12q-55 0 -98 -17.5t-72 -47.5t-44.5 -71t-15.5 -89l-5 -28q10 -48 25.5 -95.5t43.5 -85t71 -60.5t108 -23h15t15 1q4 -2 13 -2q31 0 67 5.5t67 27.5h3q17 0 21.5 -7t4.5 -14q0 -2 -0.5 -3.5t-0.5 -3.5q-1 -2 -1 -3q-41 -8 -84.5 -17.5
t-83.5 -9.5q-11 0 -21 1t-19 3q-24 -3 -47 -3q-51 0 -102 18.5t-91 50.5t-65 76t-25 94v7l2 52l7 49q0 25 6.5 43t16 33.5t21 32t22.5 37.5q6 12 15 20t20 16q15 12 26 20t23 13.5t26 7.5t34 2l27 7zM301 111q0 -1 0.5 -4.5t2.5 -5.5q-1 -3 -1 -8q0 -9 6 -16.5t14.5 -13
t17.5 -8.5t16 -3q28 0 45 18.5t22 43.5q1 14 7.5 22t9.5 21q3 15 7.5 29t9.5 28l1 2q0 3 -3 11t-8 17.5t-12 18t-15 11.5h-5h-15q-7 0 -9 2q-9 -2 -13 -5.5t-6 -7t-4.5 -7t-7.5 -6.5q-14 -11 -23 -25.5t-18 -28.5v1l-1.5 -6t-3 -13t-3 -13t-2.5 -6q-2 -12 -4 -23
q-2 -9 -3 -16.5t-2 -8.5z" />
    <glyph glyph-name="A" unicode="A" horiz-adv-x="667" 
d="M385 653q0 -12 4.5 -23t7.5 -22q3 -9 12 -29.5t19 -44t18.5 -45.5t10.5 -34l12 -49q6 -16 15.5 -30t14.5 -31q17 -58 32 -115.5t38 -114.5q7 -17 10.5 -27t7.5 -17t9 -11.5t16 -11.5q3 -2 8.5 -5t11 -7t10 -9t4.5 -10q0 -14 -14.5 -17t-24.5 -3q-55 0 -109 1l-108 2
q-5 5 -8.5 9.5t-3.5 11.5q0 5 3 8l68 24q10 4 15 12.5t5 18.5q0 20 -10 36t-17 33q-3 7 -5.5 17.5l-5 21t-5.5 20t-7 14.5l-14 22h-198q-14 0 -22.5 -13.5t-13.5 -32t-8 -37t-5 -28.5q-2 -8 -6.5 -20t-4.5 -18q0 -20 12.5 -29.5t27 -16t27 -14.5t12.5 -26q0 -11 -12 -11
l-18 -1l-71 3q-5 0 -12 -1.5t-13 -3.5q-6 3 -14.5 3.5t-16.5 0.5h-20q-5 0 -11 0.5t-11.5 2t-9.5 5t-4 10.5q0 9 13.5 17.5t22.5 16.5q19 16 28 29t13 25.5t6.5 28t8.5 36.5l17 44l6 35q3 17 13.5 31t16.5 30q8 21 14 43t14 44q8 25 19.5 48.5t19.5 49.5q5 18 8.5 36.5
t11.5 35.5q5 11 12 21t11 22q4 11 5.5 21.5t6.5 20.5q8 15 22 23.5t27 18.5q9 7 16 13.5t14.5 11.5t17 8.5t23.5 3.5q3 0 6.5 -1.5t3.5 -5.5q-8 -15 -16.5 -36.5t-8.5 -38.5zM220 310h137q3 0 8.5 0.5t11 2t10 4t4.5 5.5t-4.5 15t-10 26.5t-11 27t-8.5 16.5l-22 36
q-5 12 -7 27t-4 28.5t-7 23t-17 11.5l-6 1q-5 0 -10 -10.5t-9 -24.5t-7.5 -29t-6.5 -25q-20 -63 -42 -126z" />
    <glyph glyph-name="B" unicode="B" horiz-adv-x="667" 
d="M328 732q9 0 17.5 -2t16.5 -3l46 2q5 0 20.5 -3.5t33 -8.5t32.5 -9.5t20 -7.5q7 -4 18 -16t22.5 -27t20 -29.5t10.5 -21.5q1 -4 1 -12v-12l7 -53q0 -8 -4 -19t-10 -22t-12.5 -21.5t-11.5 -17.5q-4 -6 -12 -10.5l-16 -9t-14 -9t-6 -10.5q0 -9 10.5 -18t24 -16.5t27 -14
t19.5 -12.5q17 -15 25.5 -32t11.5 -35.5t3 -38.5t1 -41q0 -11 1 -20q0 -8 0.5 -15.5t0.5 -10.5q0 -10 -3 -16.5t-8 -11.5t-10.5 -10t-11.5 -11q-9 -11 -14 -23t-15 -22q-5 -5 -17.5 -12.5t-27 -15t-28 -13.5t-19.5 -7q-12 -3 -24 -3t-24 -2q-23 -3 -45 -6t-46 -3
q-16 0 -31 2t-29 2l-13 -1h-62l-48 4q-9 0 -17 -2t-16 -3q-10 -2 -19.5 -2h-19.5h-26q-5 0 -11.5 0.5t-12 2.5t-9.5 5.5t-4 10.5q0 9 8 13t19 6t21.5 3t15.5 4q15 9 31.5 25.5t16.5 35.5l-4 44l7 85l-8 63v148l6 111q0 6 -2 11.5t-3 11.5l-1 10l2 29q0 5 -0.5 10t-1.5 10
t-6.5 12t-12.5 13.5t-14.5 11t-13.5 4.5l-30 -4q-11 0 -20.5 8t-9.5 19q0 6 4.5 10.5t11 7.5t13 5t11.5 2l39 -5l62 4l67 -6zM239 608l-5 -61l11 -72q0 -11 -2.5 -18t-5.5 -13t-5.5 -12t-2.5 -14l13 -87l-5 -76l7 -56l-8 -64q0 -28 12 -46t31.5 -28t43 -14t46.5 -4
q18 0 32.5 11.5t29.5 19.5q14 8 31 15.5t27 18.5q9 10 14 25t8 32.5t3.5 34t0.5 29.5q0 8 -1.5 13t-4 9l-5 8t-5.5 10q-4 9 -4.5 19.5t-5.5 19.5q-7 15 -15 22.5t-17 11t-19.5 6.5t-22.5 9q-9 5 -13.5 8.5t-8.5 6t-10 4t-18 1.5q-11 0 -17.5 5.5t-16.5 5.5l-29 -6
q-9 0 -18 7.5t-9 16.5q0 7 4.5 13t11.5 6l18 -4q7 0 12.5 3t11.5 6t12.5 6t17.5 3l32 -3q10 0 22 5q19 9 30 21t16.5 26.5t6.5 31.5t1 36q0 15 -6 25.5t-14 21.5l-3 5q-22 32 -56.5 51t-72.5 19l-67 -5q-7 0 -13 -2t-6 -10z" />
    <glyph glyph-name="C" unicode="C" horiz-adv-x="667" 
d="M623 570q0 -10 -0.5 -20.5t-4 -19.5t-10.5 -15t-20 -6q-10 0 -13.5 9t-5 21.5t-2.5 25t-4 18.5q-7 14 -18 30t-22 27q-7 7 -20 14t-28 13t-29.5 9.5t-24.5 3.5q-24 0 -46 -3.5t-45 -14.5q-8 -4 -15 -9t-15 -8q-9 -4 -15.5 -6.5t-12 -5.5t-10.5 -8t-12 -13
q-10 -12 -14.5 -27.5t-15.5 -26.5q-12 -12 -17 -18t-7 -11.5t-4 -12.5t-8 -22q-6 -14 -13.5 -26.5t-7.5 -29.5l4 -35l-13 -61q0 -11 4 -18t6 -17q4 -14 3.5 -27.5t1.5 -27.5q1 -6 3.5 -17.5t6 -24t7 -23.5t6.5 -16q8 -15 22 -23t26 -19t21.5 -24t23.5 -21q13 -8 34.5 -15.5
t45.5 -13t47 -9t38 -3.5q7 0 13.5 4.5t12.5 7.5q21 10 36.5 16.5t27 15t20 22t17.5 38.5q3 8 4.5 20.5t4 24t8.5 20t18 8.5q10 0 14 -7t4 -16l-14 -133l7 -55q0 -9 -9 -14.5t-17 -5.5l-32 25q-10 0 -17.5 -6.5t-16.5 -9.5q-14 -5 -30.5 -4t-31.5 -1q-23 -2 -46 -7t-46 -5
q-10 0 -27.5 1t-36.5 3.5t-36 5t-26 5.5q-5 2 -16.5 7.5t-23.5 12.5t-22.5 13.5t-14.5 9.5q-8 6 -12.5 14t-10.5 16q-11 14 -25.5 23t-23.5 24q-5 8 -8 17.5t-7 17.5q-5 10 -11 18.5t-10 19.5q-9 26 -16.5 52.5t-7.5 54.5l-9 73q0 17 6 33t10 33q5 23 8 46t15 43q6 10 15 16
t16 15l27 46q25 31 51 46t58 30l9 4q14 7 27.5 15.5t27.5 13.5q29 11 56 14t58 3q4 0 19.5 -1.5t33 -3t32 -3.5t16.5 -3q10 -4 22 -11.5t23 -7.5q10 0 16 5t10.5 10.5t9 10.5t12.5 5q4 0 13.5 -5.5t9.5 -9.5q0 -3 -1 -4q-6 -8 -6 -16t-2 -18q-3 -24 -3 -48z" />
    <glyph glyph-name="D" unicode="D" horiz-adv-x="778" 
d="M365 710q21 0 39 1q15 1 29 1.5t19 0.5q25 0 46 -7.5t43 -18.5q14 -8 26 -18t26 -18t29.5 -14t27.5 -17q10 -9 15 -16.5t8 -15t5.5 -15.5t8.5 -19q4 -8 10 -15t12.5 -14t12 -14t8.5 -16q4 -11 4 -26q-1 -6 -1 -11v-16q0 -25 6.5 -48.5t6.5 -47.5q0 -21 -6.5 -41t-9.5 -41
q-3 -17 -3.5 -35t-7.5 -35q0 -1 -10.5 -16.5t-23.5 -34.5t-23.5 -34.5t-11.5 -16.5q-12 -12 -23 -17q-8 -4 -18 -4.5t-18 -5.5l-21 -23q-10 -6 -21 -7t-22 -4q-12 -4 -23 -10t-23 -9q-11 -3 -23 -3t-24 -2q-19 -3 -37.5 -7.5t-37.5 -4.5l-91 5l-92 -8l-71 11l-60 -7
q-8 0 -16.5 6t-8.5 15q0 3 2.5 6t4.5 5q10 12 23.5 14t27 2t25.5 3t18 16q1 3 3 13.5t4 22.5t3 23t1 15l-3 38l3 48l-5 63l7 73l-7 72l9 68l-11 76l4 42q0 7 -4.5 16t-11.5 17t-15.5 13.5t-15.5 5.5l-30 -3q-11 0 -18 8t-7 19t7.5 16.5t17.5 5.5l115 -13q17 0 32.5 2.5
t31.5 4.5q14 2 27 2h27zM239 383l-4 -69l7 -90q-2 -26 -3 -47q-1 -18 -1.5 -34t-0.5 -19q0 -18 8.5 -32.5t22 -24t30 -14.5t33.5 -5q5 0 17 0.5t16 2.5l36 -2q16 0 38.5 7.5t36.5 16.5l25 24l28 15q4 3 14 14.5t20.5 24.5t19 25.5t10.5 17.5q10 22 9 45.5t5 46.5
q4 16 9.5 31t5.5 32q0 19 -0.5 38t-2.5 38q-2 18 -8.5 34.5t-8.5 34.5q-1 5 -0.5 9.5t-1.5 9.5q-4 15 -17 22.5t-21 19.5q-9 13 -12.5 29.5t-17.5 25.5q-8 5 -16 6.5t-16 4.5q-15 6 -20 11t-9.5 8.5t-13.5 6t-31 2.5l-54 9q-11 0 -33 -1t-44.5 -5.5t-39.5 -12.5t-17 -23
l6 -53l-8 -104z" />
    <glyph glyph-name="E" unicode="E" horiz-adv-x="667" 
d="M359 719l115 -5l96 8q8 0 17.5 -4.5t9.5 -13.5q0 -7 -1 -13t-2 -13q-1 -8 -1.5 -28.5t-2 -42.5t-6.5 -39t-15 -17q-9 0 -14 7t-8 16t-5 18.5t-6 15.5q-5 6 -10.5 10.5t-9.5 10.5q-5 8 -8 14.5t-6.5 11.5t-9.5 7.5t-18 2.5l-47 -5q-32 1 -58 2q-23 1 -42.5 2t-23.5 1
q-16 0 -34 -7t-18 -26v-103q0 -7 -0.5 -16.5t-0.5 -20.5q0 -12 1 -23.5t4 -20.5t9 -15t16 -6l50 9l81 -4q9 0 17.5 2.5t16.5 6.5q18 8 23 17.5t6.5 20t3 20.5t10.5 19l4 4t5 2q5 0 14.5 -4.5t10.5 -10.5q-9 -8 -11.5 -31t-2.5 -45v-33v-18.5t0.5 -30.5t1.5 -29.5t2 -14.5v11
q0 -10 -6 -23t-18 -13q-9 0 -13.5 3.5t-6 9.5t-2.5 12.5t-3 12.5q-3 9 -5 11.5t-3.5 5t-2 6t-0.5 14.5q0 2 -1 3.5t-2 3.5q-1 1 -10 4.5t-20.5 7t-21.5 6.5t-12 3l-4 -1q-4 -4 -8 -7t-10 -3l-27 4h-26q-23 0 -33 2q-11 0 -16.5 -8.5t-8 -20.5t-3 -25.5t-0.5 -23.5v-8l7 -45
l-7 -65q0 -11 3 -21.5t5 -21.5v-25q0 -25 21 -43.5t45 -18.5h2l24 1q14 0 26 -4.5t25 -4.5q8 0 15 3.5t15 4.5l16 -1q5 0 7.5 2t6.5 5q6 5 15.5 5t17.5 4q7 3 12.5 9t10 13t8.5 14t9 13q8 8 17.5 14.5t16.5 15.5q6 7 10 19.5t9 24.5t12.5 21t20.5 9q9 0 14 -7.5t5 -15.5
q0 -15 -5 -28.5t-10.5 -27t-10.5 -27t-5 -28.5l3 -41q0 -9 -3 -19t-8.5 -19t-13.5 -15t-18 -6q-8 0 -15 6t-11 6q-3 0 -5 -1t-4 -1q-5 0 -8.5 1.5t-7.5 1.5l-39 -4l-183 7q-11 0 -19.5 -5t-18.5 -5q-13 0 -24.5 3.5t-23.5 3.5l-66 -7l-36 7l-20 -4l-6 1q-5 3 -14.5 8
t-9.5 11q0 5 5 8.5t8 5.5q12 9 27 11.5t29 6t23.5 12t9.5 29.5l-8 50l5 47l-12 76l7 83l-9 67l11 74l-11 104l5 38q0 16 -6.5 18.5t-17.5 7.5l-18 15q-7 4 -16 4l-16 -1q-8 0 -17 7t-9 16q0 17 12.5 23.5t26.5 6.5h4l200 -8z" />
    <glyph glyph-name="F" unicode="F" horiz-adv-x="611" 
d="M576 636l2 -33q0 -4 -3 -13.5t-7.5 -19t-9.5 -16.5t-10 -7q-3 0 -5 1t-4 3q-12 10 -15.5 17.5t-3.5 18.5v8v8t1 8q0 13 -8 24t-20 19t-25.5 12t-25.5 4l-85 -7l-55 4q-11 0 -22 -2t-21 -7.5t-16 -14t-6 -20.5l7 -51l-5 -48l8 -53l-3 -45l2 -5q7 -5 12.5 -6t13.5 -1
q7 0 13 -2t13 -3l9 -1l28 2l58 -4q19 0 38 8q18 8 24.5 15t9 14t3.5 15t9 18q4 5 9 11t12 6q11 0 14.5 -9t3.5 -18l-9 -100q0 -25 2.5 -49.5t4.5 -49.5q-4 -5 -7.5 -12.5t-11.5 -7.5q-9 0 -13.5 5t-6.5 11.5t-3 14.5t-2 14q-1 4 -7.5 13t-15 18.5t-16 17t-11.5 9.5
q-10 5 -25 5l-68 -6l-49 10q-19 0 -25.5 -16t-6.5 -32v-71l3 -50l-8 -54q0 -8 2.5 -15t3.5 -15l-1 -25q0 -16 12 -29.5t29 -13.5l35 4q9 0 17 -6.5t8 -15.5q0 -10 -8.5 -14t-16.5 -4h-166l-56 -9q-11 0 -23 8t-12 19q0 16 11.5 19.5t25.5 5.5t25.5 9.5t11.5 31.5l-7 49l6 69
l-6 150l6 103l-4 62l2 25q0 7 -2 13t-3 13q-2 16 -3 34t-5.5 33t-15.5 25t-34 10q-10 0 -24 7t-14 19q0 6 7.5 11.5t18 9t20.5 6t15 2.5l85 -12l162 11l111 -6q14 1 27 2q11 1 23.5 2t20.5 1t10 -1q18 0 34 -10.5t16 -30.5z" />
    <glyph glyph-name="G" unicode="G" horiz-adv-x="778" 
d="M484 733q8 0 15 2t15 2q12 0 24.5 -5t25 -11t26.5 -11t31 -5q7 3 9.5 8t4.5 10.5t6.5 9t15.5 3.5q7 0 13.5 -8.5t10.5 -20.5t6.5 -23.5t2.5 -17.5l-7 -63l7 -71q0 -11 -4.5 -22.5t-18.5 -11.5q-5 0 -9.5 4t-8.5 7q-15 12 -21 27t-10 30t-9.5 30t-19.5 27q-8 7 -20.5 17
t-26 19t-27.5 15.5t-25 6.5l-33 -2h-40q-12 0 -23.5 -2.5t-23.5 -4.5q-16 -2 -23.5 -3t-12.5 -3t-11 -6t-19 -12q-5 -4 -10.5 -7t-10.5 -8q-4 -5 -6.5 -10.5t-7.5 -9.5q-4 -4 -8.5 -6t-9.5 -5l-7 -10t-15.5 -22t-15.5 -22.5t-8 -11.5q-13 -25 -15 -51.5t-8 -52.5
q-3 -13 -9.5 -24t-6.5 -25q0 -8 1.5 -16t2.5 -16q-1 -10 -1 -19q0 -8 -0.5 -14.5t-0.5 -9.5q0 -11 2 -18.5t4.5 -14.5t5.5 -13.5t6 -16.5q5 -17 4.5 -35t7.5 -34q2 -5 11.5 -15.5t20.5 -22t21.5 -21.5t15.5 -13q10 -7 20.5 -11.5t21.5 -10.5q10 -6 18 -14t19 -13
q2 -1 18.5 -3.5t36 -5t36.5 -4.5t21 -2q17 0 31 5.5t28 15.5l3 2q22 15 32.5 26.5t10.5 39.5v35l3 33q0 22 -17.5 36.5t-38.5 14.5l-44 -6q-13 0 -24 8.5t-11 22.5q0 10 11.5 13.5t18.5 7.5q25 -1 46 -1q18 -1 34 -1h20l132 9q8 0 16 -8t8 -16q0 -6 -5.5 -13t-12.5 -15.5
t-13 -18.5t-7 -22l1 -26l-3 -42l6 -59q0 -9 -5.5 -16t-13.5 -11t-17.5 -4.5t-18.5 -3.5q-8 -3 -14 -7.5t-13 -7.5l-33 -14q-14 -6 -26 -15.5t-27 -13.5q-12 -3 -24 -3l-25 1l-62 -8q-3 0 -10.5 0.5t-16 1.5t-15.5 2t-9 2q-5 2 -8 6t-8 6t-9 1.5t-9 0.5q-13 2 -24.5 7.5
t-23.5 10.5q-17 6 -35 10t-34 14q-11 7 -20 15.5t-19 16.5q-16 12 -32.5 22.5t-28.5 27.5q-7 10 -11.5 20t-9.5 21q-6 13 -13 25t-11 26q-12 41 -14.5 83.5t-2.5 84.5q0 12 4 23t6 22q4 23 7 45.5t12 44.5q5 14 14.5 25t16.5 24l6 12q7 14 11.5 22t8.5 13.5t9 9.5t14 10l5 4
q4 4 9.5 7t10.5 8q16 12 31 23.5t32 22.5q8 5 14 12t15 10q8 3 16.5 3t16.5 2q11 2 20 5.5t20 5.5q4 1 11 1l35 -2l61 9q10 0 18.5 -5.5t19.5 -5.5z" />
    <glyph glyph-name="H" unicode="H" horiz-adv-x="834" 
d="M242 725l49 4q5 0 14.5 -1t19 -3t16.5 -6.5t7 -10.5q0 -9 -7 -14.5t-16.5 -8.5t-19.5 -4.5t-16 -1.5q-32 0 -41 -15.5t-9 -37.5v-40l-5 -77q0 -9 1 -21t5 -23t11 -18.5t19 -7.5l63 8l55 -3l125 7l47 -3q10 0 16.5 8.5t10 19.5t5 23t1.5 20v26.5t-1 40.5t-2 38.5t-3 22.5
q-8 21 -21.5 26t-26 7t-22 6t-9.5 22q0 11 6.5 14t15.5 3l95 -5l68 7l57 -4l49 5q12 0 12 -13q0 -10 -4 -15t-10 -7.5t-13 -4.5t-14 -5q-6 -3 -11.5 -7t-11.5 -6q-9 -4 -17.5 -5.5t-15 -4.5t-10 -8t-3.5 -17v-2l2 -47l-5 -114l5 -78l-5 -93l3 -74l5 -41l-5 -60
q0 -26 6.5 -45t29.5 -33q8 -5 16.5 -5.5t17 -0.5t16.5 -2t15 -9l6 -6t3 -8q0 -12 -7 -15.5t-17 -3.5l-25 1l-25 -3l-46 2l-35 6l-92 -5q-5 0 -15.5 0.5t-21.5 2t-19.5 5t-8.5 9.5q0 5 3.5 9t6.5 7q9 9 22 11.5t25.5 4.5t22.5 8t13 22q1 2 1 7l-2 19l10 45l-9 52l3 57l-3 75
l5 44q0 14 -13 19.5t-24 5.5h-100l-73 -7l-101 -4q-11 0 -27 -5.5t-20 -16.5q-1 -2 -1 -6l1 -13q0 -14 -3 -26.5t-3 -25.5l6 -91l-7 -76q0 -20 6 -36q10 -27 21 -36t22 -11t22.5 -3t23.5 -13l1 -1q5 -4 9 -8.5t4 -10.5q0 -8 -7 -11t-13 -3l-4 1q-20 5 -41 7t-43 2l-56 -5
l-30 1l-49 -8l-40 4l-20 -4q-9 0 -12 7t-3 15q0 15 11.5 19.5t25.5 4.5q8 0 14.5 -0.5t11.5 -0.5q16 0 24.5 6t12.5 15t5 21t1 24v11l4 33l-4 80l-2 125l6 124l-6 79l2 49q0 5 -2 13t-5.5 16.5t-7.5 15.5t-8 10q-8 5 -17 5.5t-17 4.5q-6 3 -11.5 7.5t-11.5 6.5q-9 4 -17.5 7
t-8.5 15q0 7 6.5 10.5t14.5 5t16.5 2t13.5 0.5l64 -3l58 6l46 -4v-1z" />
    <glyph glyph-name="I" unicode="I" horiz-adv-x="389" 
d="M313 687l-14 -15h-21q-17 0 -22 -6.5t-5 -23.5q0 -23 4.5 -49t4.5 -54l-10 -181l7 -22l-13 -162q0 -27 5.5 -53.5t9.5 -53.5q10 -6 19 -13.5t18 -15.5q7 -1 18.5 -1t21.5 -2t17.5 -7.5t7.5 -16.5t-9.5 -15t-18.5 -4h-65q-2 0 -8.5 2t-13 4.5t-12.5 4l-6 1.5l-181 -7
q-7 0 -13 6.5t-6 13.5q0 5 3 9t6 6l29 3q13 8 27.5 13t28.5 9q7 11 16.5 26t9.5 29l-7 87l7 100l-4 62l6 99l-6 80q0 47 3 95q-1 3 -3.5 8t-5.5 10.5t-6 10t-6 4.5l-76 14q-5 1 -7 5.5t-2 9.5q0 14 8.5 19t21.5 5l77 -6q12 0 23.5 3t24.5 3h4l77 -3l5.5 1.5t12.5 3.5t13 4
t7 2h1q6 0 15 -8.5t9 -13.5q0 -2 -1 -5t-2 -5z" />
    <glyph glyph-name="J" unicode="J" 
d="M405 673q-18 0 -30 -12.5t-12 -29.5l3 -30l-6 -63l9 -61l-7 -64l4 -51l-6 -44l7 -65q0 -35 -1.5 -76t-7.5 -82.5t-18 -79.5t-34 -66l-25 -25q-6 -7 -10.5 -14.5t-11.5 -13.5q-10 -8 -21.5 -12.5t-22.5 -10.5q-13 -8 -24 -18t-25 -15q-7 -2 -13.5 -3t-13.5 -4
q-6 -2 -9.5 -5t-6.5 -5t-7 -3.5t-12 -1.5q-20 0 -41 3q-11 10 -18.5 14.5t-12.5 10t-7.5 14t-2.5 25.5q0 38 22.5 52t57.5 14q11 0 16.5 -5t9 -11.5t8 -11.5t13.5 -5q6 0 11.5 1.5t11.5 3.5q33 8 47.5 19t20.5 26.5t6.5 36t4.5 47.5q2 13 5.5 24.5t3.5 24.5v4l-3 60l3 57
l-6 57v48l-4 44l7 46l-10 63l10 96q0 15 -3 31t-10.5 29.5t-19.5 22.5t-30 9l-30 -2q-5 0 -12.5 2.5t-14.5 6t-11.5 9t-4.5 11.5t6.5 10t14.5 5.5t16.5 2t13.5 0.5l96 -7l64 5h63l46 9q11 0 23 -5.5t15 -16.5l-1 -6q-5 -5 -14.5 -8.5t-20 -6t-21 -3.5t-17.5 -1z" />
    <glyph glyph-name="K" unicode="K" horiz-adv-x="778" 
d="M376 394q0 -6 6 -13t11 -11q24 -21 48 -41t44 -45q9 -11 17 -21.5t16 -21.5l62 -64q13 -16 27.5 -36.5t31 -40t34.5 -34.5t39 -21q5 -1 12 -2.5t13.5 -3.5t11 -6t4.5 -11q0 -11 -4 -17.5t-16 -6.5l-57 8l-78 -8q-17 0 -28 11t-20 23l-29 45q-16 21 -36 35.5t-39 32.5
q-12 11 -18.5 26.5t-17.5 27.5l-48 41q-8 11 -15.5 18.5t-18.5 15.5q-9 7 -11.5 16.5t-15.5 13.5q-11 -2 -12.5 -9t-8.5 -14q-8 -8 -15 -9t-11.5 -4t-7 -11.5t-2.5 -32.5l5 -41q0 -17 -5.5 -33t-5.5 -33q0 -11 3 -17.5t8 -11t11.5 -9t13.5 -10.5t11.5 -14.5t13.5 -12.5
q2 -1 7 -1l15 1q13 0 22 -9.5t9 -22.5q0 -6 -6.5 -10t-11.5 -4l-6 2q-8 3 -15.5 3.5t-15.5 0.5h-21l-37 5l-45 -7l-31 6l-21 -4l-24 3l-43 -5q-12 0 -14 10.5t-2 19.5q6 10 13.5 11.5t17.5 1.5h3q19 0 34 14t15 33l-3 28l4 57l-11 68l7 155l-8 90q0 18 6 34.5t6 33.5l-3 30
l3 27q0 7 -2.5 13t-5.5 11q-4 7 -12 18.5t-14 15.5q-7 5 -20.5 5.5t-27 1.5t-23.5 5t-10 15t7 18q1 1 10 3t19.5 3.5t20 2.5t12.5 1l90 -11l31 7l49 -3l38 9q10 0 23 -9t13 -20q0 -13 -12 -16t-25 -3h-15q-26 0 -37 -19.5t-11 -41.5v-36l9 -66l-6 -75l2 -27l-7 -50
q0 -6 1.5 -17t10.5 -11q10 0 18 8.5t13 16.5q23 32 45 63.5t51 57.5q6 6 12 11.5t11 12.5q11 14 17.5 29.5t17.5 28.5q5 6 11.5 11t11.5 12l8 15q4 7 10.5 13.5t13 13.5t11.5 14.5t5 15.5q0 12 -8.5 16t-18 5.5t-18 4t-8.5 12.5q0 15 9.5 20.5t21.5 5.5h4l81 -3l68 7
q8 0 19.5 -2.5t16.5 -10.5l1 -4q-3 -15 -11 -18t-19 -10q-6 -4 -11 -9t-12 -8q-9 -5 -19.5 -5t-18.5 -7q-7 -5 -9.5 -13t-7.5 -15q-8 -12 -20 -20t-22 -19q-23 -23 -39 -51t-36 -53q-5 -6 -17 -18.5t-24.5 -26.5t-22.5 -26.5t-10 -17.5z" />
    <glyph glyph-name="L" unicode="L" horiz-adv-x="611" 
d="M230 505l2 -46q0 -9 -2 -17.5t-2 -16.5q0 -15 4.5 -31t4.5 -38v-46.5t-2 -46.5q-1 -19 -3.5 -37.5t-2.5 -38.5q0 -17 3 -39t11 -42t21.5 -34.5t35.5 -15.5l21 1l55 -6q5 0 16 2.5t22.5 6t21.5 7.5t14 7q5 5 7 10.5t6 10.5q5 8 12.5 13t12.5 12q8 11 13.5 23.5t12.5 24.5
q5 9 12 17t12 18q4 8 6 16t8 14q3 3 7 6t9 3q11 0 14.5 -12t3.5 -20q0 -13 -6 -24t-9 -23q-4 -17 -4 -33.5t-7 -32.5q-5 -10 -8 -13t-3 -15l3 -32q0 -11 -5.5 -18.5t-14 -12.5t-18 -7.5t-18.5 -2.5l-37 3l-37 -6l-64 8h-174q-29 0 -57 -1.5t-56 -5.5l-7 -1q-6 0 -14.5 1
t-16 3.5t-12.5 7.5t-5 14q0 10 14.5 14t32.5 8.5t35 14t22 30.5q1 2 1 6l-2 19l6 55l-8 61l6 161l-4 67l2 51l-10 74l4 34q0 11 -8 24t-18 18q-5 2 -8.5 2.5t-7.5 0.5h-12q-14 0 -27 10.5t-13 24.5q0 8 14 12t20 6q17 -2 34.5 -4.5t34.5 -2.5l151 16q6 0 15 -1.5t17 -5
t13.5 -9t5.5 -13.5q0 -10 -6 -15t-14 -7.5t-18 -3t-17 -0.5h-7q-11 0 -23 -7.5t-12 -19.5q0 -16 4.5 -31t4.5 -32z" />
    <glyph glyph-name="M" unicode="M" horiz-adv-x="1000" 
d="M512 282q9 0 14 5.5t8 13t5.5 15.5t5.5 14q6 12 14.5 23t13.5 24l21 64q5 11 12.5 21.5t12.5 22.5l18 64q7 17 18.5 30.5t19.5 30.5q6 12 10 24.5t9 25t12 23.5t18 20q14 11 29 17t33 6l49 -3l65 7q6 0 15 -1.5t17.5 -4.5t15 -8.5t6.5 -12.5q0 -10 -5.5 -18t-16.5 -8
l-25 2q-9 0 -17.5 -5.5t-15.5 -13.5t-11.5 -17.5t-4.5 -17.5l3 -56l-5 -69l8 -79l-4 -65l11 -64l-8 -97l6 -91q0 -25 12.5 -35.5t27 -16t27 -10.5t12.5 -18q0 -8 -7 -12.5t-16 -7t-18.5 -3.5t-15.5 -1l-48 11l-96 -11h-27q-17 0 -32 2t-32 11q-2 8 -2 12q0 13 10.5 16
t21.5 3h17q14 0 20 1t9 3.5t5.5 6.5t9.5 10q8 6 9.5 7.5t1.5 12.5l-5 46l2 47l-7 66l6 64v110l-15 102l7 59q0 16 -14 16q-6 0 -10 -5t-8 -9q-8 -9 -11.5 -17.5t-5.5 -17t-4 -17.5t-7 -19q-3 -7 -7 -13t-8 -13q-8 -16 -12 -33.5t-13 -33.5q-4 -6 -8 -11.5t-7 -11.5
q-4 -8 -6 -15.5t-5 -15.5q-3 -7 -7.5 -13t-8.5 -13l-21 -49q-5 -8 -10.5 -15.5t-10.5 -16.5q-3 -7 -7 -18t-8 -22.5t-9 -21.5t-10 -15t-10.5 -9.5t-8.5 -11.5q-4 -10 -15.5 -22.5t-23.5 -12.5q-7 0 -12 5.5t-9 13.5t-7 16.5t-4 13.5q-10 32 -30 61q-8 12 -20 21.5t-20 22.5
l-15 31q-4 6 -9 11t-10 11q-19 23 -34.5 49t-29.5 52l-1 2q-2 5 -6 12t-8.5 13t-9.5 10.5t-11 4.5q-7 0 -9 -7t-2 -12l6 -57l-2 -58l2 -29q0 -10 -3 -18.5t-5 -17.5l-1 -13l2 -37l-6 -56q0 -12 1.5 -24t2.5 -24q1 -20 4 -29t17 -23q7 -7 21.5 -12t29.5 -10t26 -11.5
t11 -16.5q0 -8 -11 -13.5t-18 -5.5l-40 8l-47 -6l-38 9l-46 -10q-10 0 -19 1.5t-19 2.5q-14 1 -21.5 4.5t-7.5 19.5q0 10 9 14.5t21.5 6t24.5 3t18 6.5q16 12 19.5 21.5t3.5 23.5v19q0 14 3.5 27.5t4.5 27.5l-2 61l9 74q-2 11 -3 31t-1 43t0.5 46t1.5 43q1 23 2 44
q0 12 -7.5 33t-18.5 42.5t-23.5 39.5t-23.5 24q-7 4 -17 4l-17 -1q-10 0 -20.5 6.5t-10.5 17.5q0 14 10.5 23t24.5 9h2q8 -2 17 -3q7 -1 15 -1.5t15 -0.5q8 0 12 2q15 0 29 4.5t28 4.5q16 0 27 -7q6 -5 8.5 -12t6.5 -13q9 -15 22.5 -26.5t21.5 -27.5q5 -9 8 -19t8 -20
q13 -26 32.5 -46t35.5 -43q13 -20 21 -41t22 -40q5 -7 18.5 -23t28.5 -33t26.5 -31t13.5 -18q2 -6 2.5 -13t2 -13.5t5.5 -10.5t14 -4z" />
    <glyph glyph-name="N" unicode="N" horiz-adv-x="778" 
d="M675 567l-6 -113q0 -5 2 -8v-99l-9 -130q0 -5 2 -7v-62l-10 -101l4 -42l-2 -5q-4 -2 -15 -3.5t-16 -1.5q-6 0 -11 5t-9 12t-7.5 14t-6.5 11q-7 10 -16.5 17t-17.5 16q-10 12 -16 25.5t-14 26.5q-12 18 -28.5 33t-29.5 32l-81 110q-15 18 -32.5 33.5t-30.5 35.5l-19 35
q-9 16 -21 28.5t-25 24.5t-25.5 24.5t-20.5 28.5q-1 2 -4 7.5t-6.5 11t-6.5 10t-5 4.5q-9 0 -13 -14t-4 -21l6 -83l-8 -63v-117l-3 -46l5 -55v-44q0 -26 9.5 -34.5t23 -10.5t28 -3.5t23.5 -11.5q4 -5 7.5 -9.5t3.5 -10.5q0 -11 -9.5 -14.5t-17.5 -3.5l-85 11l-45 -12l-26 2
l-27 -1h-2q-11 0 -23.5 7t-12.5 17q0 5 3 8t6 5q10 12 24.5 13.5t28 3.5t22.5 8t9 27l-1 17l13 61q-6 10 -8 25t-2 31q0 20 2 36t4 19q-2 18 -2.5 41t-0.5 38v17l12 87q-1 3 -1 12.5v22.5v55q0 14 1 28q0 34 -17 51t-38 25t-38 12.5t-17 15.5q0 15 7.5 24.5t23.5 9.5l32 -2
q20 0 39 6.5t39 6.5q9 0 17.5 -7.5t17.5 -18t18 -22.5t18 -22q16 -17 27.5 -37.5t25.5 -38.5q7 -8 15 -14.5t16 -14.5q11 -11 19 -23.5t17 -24.5q18 -23 40 -42.5t39 -43.5q20 -29 38.5 -56.5t40.5 -54.5l41 -40l49 -68q6 0 8 11t2 23q0 8 -0.5 14t-0.5 8l4 83q0 2 0.5 7.5
t0.5 10.5q0 6 -1 7l-3 89l8 132q0 24 -7.5 47.5t-28.5 37.5q-7 5 -19.5 6t-24.5 3t-20.5 7t-8.5 18q0 12 9 18t20 6l82 -7l121 8h1q9 0 11.5 -8t2.5 -15q0 -11 -6 -16t-15.5 -8t-20 -5.5t-20 -9t-15.5 -18.5t-6 -34v-47z" />
    <glyph glyph-name="O" unicode="O" horiz-adv-x="778" 
d="M751 364q0 -14 -3.5 -28.5t-5.5 -28.5q-2 -23 -5 -45.5t-11 -44.5q-3 -8 -7.5 -15t-7.5 -15t-5.5 -16.5t-7.5 -16.5q-6 -10 -16.5 -15t-16.5 -14q-4 -5 -6 -11t-6 -11q-3 -4 -7 -6.5t-8 -5.5q-7 -5 -12 -12t-11 -13q-12 -11 -25 -17.5t-28 -14.5q-7 -3 -16.5 -13
t-12.5 -11q-7 -2 -11.5 -4t-11.5 -4q-11 -5 -23.5 -4.5t-23.5 -2.5q-10 -2 -18.5 -6t-18.5 -6q-13 -2 -26 -2.5t-26 -0.5q-4 0 -21 3t-36 6.5t-36 7t-21 5.5q-14 5 -25 15t-25 16q-8 3 -15 5t-15 6q-14 8 -25.5 19t-23.5 22q-32 28 -55 66t-34 80q-4 16 -5 32t-3 33
q-2 16 -4.5 31.5t-2.5 31.5q0 41 11 79.5t29.5 73.5t42.5 67.5t51 61.5q23 26 52 37t60 24q16 7 30.5 15t31.5 10q23 3 47.5 4t47.5 1q19 0 32.5 -2.5t24.5 -7t23 -9.5t29 -11q14 -5 27.5 -7.5t26.5 -8.5q22 -10 33.5 -22.5t26.5 -29.5q11 -13 23.5 -24t22.5 -25
q27 -39 35 -79.5t12 -86.5q1 -14 3 -27.5t2 -27.5zM153 338v-19q0 -17 -2 -23q0 -53 19.5 -99t53.5 -80.5t80.5 -54.5t99.5 -20q5 0 19.5 3.5t31 8t31 9t19.5 6.5q14 7 21 17.5t17 21.5q11 11 23 19t19 22q6 12 6.5 24.5t2.5 25.5q5 21 14.5 40.5t12.5 41.5q2 14 2 27.5
t1 27.5q1 35 2 63q1 24 2 45t1 25q0 12 -4.5 26t-11.5 28t-15 27t-15 22q-33 44 -72.5 73.5t-97.5 29.5h-8q-24 0 -48.5 -1.5t-47.5 -11.5q-16 -7 -28 -18t-25 -22q-11 -8 -21.5 -16t-18.5 -19l-23 -38q-4 -5 -8 -9t-7 -9q-8 -11 -13.5 -30t-9 -39.5t-5.5 -40.5t-2 -34z" />
    <glyph glyph-name="P" unicode="P" horiz-adv-x="667" 
d="M170 718q32 1 58 2q23 1 43 1.5t27 0.5q23 0 46.5 -2.5t46.5 -5.5q18 -3 35.5 -4t34.5 -3t33.5 -7.5t32.5 -17.5q13 -10 22 -23t20 -25q8 -11 18 -20t16 -21q5 -11 7 -22t7 -22q3 -8 8 -15t7 -16q3 -14 4 -29.5t1 -30.5q0 -5 -3.5 -20t-8 -32t-9 -31.5t-7.5 -18.5
q-8 -11 -19.5 -17.5t-20.5 -16.5q-5 -5 -9 -11.5t-9 -11.5q-17 -15 -38.5 -26.5t-41.5 -19.5q-3 -2 -8 -2h-10h-18l-55 -8q-3 0 -16 1.5t-28 3.5t-28 4t-16 3q-8 3 -16.5 8.5t-17.5 5.5q-7 0 -10 -12.5t-3 -22.5v-15.5t-1 -20.5v-122q0 -6 5 -11q13 -17 23.5 -19.5
t27.5 -2.5h6q12 0 21.5 -7t9.5 -20q0 -6 -5.5 -9t-13 -5t-14.5 -2.5t-11 -0.5l-119 10q-14 0 -27 -4.5t-27 -4.5q-5 0 -15 0.5t-21 2.5t-19 6t-8 10q0 19 13 22.5t27 3.5q18 0 25.5 7t19.5 18q2 17 4 35t2 35l-10 126l8 77l-6 113l8 130q0 28 -9 51t-37 35q-8 3 -15 3
l-15 -1q-9 0 -16 6t-7 15q0 12 8.5 18.5t19.5 6.5q2 0 6 0.5t9 0.5q11 0 24 -0.5t25 -1.5q14 -1 29 -1zM246 545l4 -53l-5 -95q0 -13 0.5 -20.5t3.5 -13.5t8.5 -11.5t15.5 -13.5t14 -13.5t8.5 -8.5t11 -4.5t21.5 -1.5l53 -3q16 0 22 8.5t18 15.5q7 4 13.5 6t12.5 7
q7 5 18.5 24t22.5 41.5t18.5 43.5t7.5 30q0 11 -4.5 20.5t-6.5 19.5q-4 16 -3.5 32.5t-10.5 30.5q-5 7 -15 17t-21.5 20t-23 17.5t-19.5 9.5l-25 3q-24 5 -45.5 8.5t-46.5 3.5q-17 0 -31.5 -13t-14.5 -31l4 -35z" />
    <glyph glyph-name="Q" unicode="Q" horiz-adv-x="790" 
d="M467 -25q32 -12 64 -24.5t62 -28.5q12 -6 24.5 -15.5t26 -19t26.5 -16t27 -6.5q9 0 17 2t16 2q14 0 19.5 -11.5t5.5 -22.5q0 -5 -0.5 -8.5t-3.5 -7.5q-2 -2 -15.5 -3.5t-30 -3t-31.5 -2t-19 -0.5q-9 0 -34 3.5t-53.5 8t-53 10t-31.5 8.5q-14 6 -24.5 16t-24.5 15
q-8 3 -16 4.5t-16 5.5q-15 8 -24.5 21.5t-21.5 24.5q-8 8 -17.5 13.5t-16.5 14.5q-3 4 -5.5 8t-6.5 8q-6 5 -13 7t-14.5 3l-15 2t-13.5 4q-8 5 -15 11.5t-15 11.5l-51 23q-9 5 -17 12.5t-16 14.5q-33 28 -55 58.5t-34.5 64t-18 71t-5.5 80.5q0 31 3 55t10 45.5t17.5 43.5
t25.5 49q20 35 46.5 67.5t59.5 55.5q12 8 25.5 13.5t27.5 11.5q15 7 29 15t30 13q18 5 37 5.5t37 5.5q9 2 17.5 4.5t18.5 2.5q38 0 73 -10.5t69 -27.5q94 -50 144 -121t50 -180q0 -59 -12 -122.5t-39 -116.5q-12 -23 -30.5 -36.5t-35.5 -32.5q-5 -5 -8.5 -9.5t-8.5 -9.5
q-8 -6 -16 -10.5t-16 -9.5l-33 -28q-18 -13 -36 -18t-40 -7zM146 372q0 -14 2 -28.5t3 -28.5q2 -38 6 -70t14 -60.5t28.5 -54.5t48.5 -52q12 -11 18.5 -17t13.5 -10t15.5 -6t25.5 -5q19 -3 37 -9t38 -6q5 0 18 2.5t27 6.5t27 8t18 6q14 6 23.5 16t20.5 19q17 14 32 25.5
t23 32.5q4 11 4 22.5t2 22.5q3 18 12 34t13 34q3 13 3.5 26t0.5 27v35l7 94q0 12 -8.5 37t-20 51.5t-24 49.5t-21.5 31q-6 5 -15.5 11.5t-20 12.5t-21 11t-17.5 8q-30 1 -60 6.5t-60 5.5q-27 0 -51.5 -11.5t-46 -29.5t-39 -40.5t-29.5 -43.5l-17 -25q-13 -24 -15.5 -41.5
t-5.5 -43.5q-2 -14 -5.5 -26.5t-3.5 -26.5z" />
    <glyph glyph-name="R" unicode="R" horiz-adv-x="722" 
d="M582 526q0 -19 -1.5 -40t-9.5 -39q-5 -11 -14 -20.5t-15 -20.5q-5 -8 -8 -17.5t-10 -17.5t-16.5 -11t-15.5 -11q-2 -3 -3.5 -6.5t-4.5 -5.5q-6 -5 -13.5 -5t-14.5 -4q-9 -5 -12.5 -12.5t-17.5 -7.5l-46 10l-4 -4q1 -8 8.5 -12t12.5 -9q5 -4 9 -8.5t9 -8.5q13 -10 28 -14
t28 -12q14 -8 22.5 -21t22.5 -22q7 -5 14.5 -7.5t12.5 -9.5l37 -55q9 -11 20 -19.5t19 -19.5q5 -7 9 -15t9.5 -15.5t12.5 -12.5t17 -5l19 3q8 0 14 -5.5t6 -13.5q0 -9 -9.5 -15t-22.5 -10t-25.5 -6t-19.5 -2q-8 0 -23 6t-31 14.5t-30 17.5t-21 14q-12 10 -19.5 23t-20.5 22
q-18 14 -37.5 22t-36.5 24q-12 11 -20.5 25.5t-19.5 26.5l-45 40q-5 5 -15 17t-21.5 24.5t-22 22t-17.5 9.5q-5 0 -11 -3t-6 -10q0 -9 5 -17.5t5 -19.5l-4 -19l3 -24l-6 -51q0 -1 -1.5 -9.5t-1.5 -13.5v-2q0 -1 1 -1l4 -43q0 -13 3.5 -19.5t20.5 -19.5q9 -7 26.5 -10
t34.5 -7t30 -10.5t13 -20.5q0 -8 -5.5 -12t-13.5 -4l-53 9h-85l-32 -4l-36 3q-9 0 -18 -2.5t-18 -3.5l-22 1l-14 -3q-5 0 -8 3t-10 3h-2l-4 2q-1 5 -4 10.5t-3 10.5q0 11 9 13t18 2h10q8 0 22 6t18 12q1 2 4 16t6 31t5.5 32t2.5 19v13q0 27 -2 60.5t-5 65t-5 55.5t-2 33
q0 15 1 41.5t2.5 53.5t2.5 48t1 24q0 34 -6 69q-4 22 -6.5 31t-6.5 12t-12 3.5t-23 6.5q-7 3 -15 5t-15 6t-11.5 10t-4.5 15q0 10 11 15t19 5l26 -3l53 3l50 -7l53 6l53 -2q15 0 27 1q11 0 20 0.5t11 0.5q15 0 25 -2.5t18.5 -6t17 -8.5t21.5 -10q11 -5 23 -8t23 -8
q27 -13 46.5 -27t33 -32t20 -41t6.5 -53zM222 561q0 -6 2 -11.5t3 -11.5l3 -64q1 -8 3 -16.5t2 -16.5l-2 -31q0 -7 3 -17.5t8 -14.5q3 -3 18.5 -6.5t33.5 -7.5t34.5 -6.5t21.5 -2.5q11 0 17 2t10 5.5t7.5 8.5t11.5 10q6 4 12.5 6.5t13 4.5t12 5.5t8.5 10.5q1 4 4 13t6 18.5
t5 18.5t2 13q0 11 -3.5 21t-5.5 21q-1 4 -1 11v8q0 3 0.5 7t0.5 6q0 19 -14.5 40.5t-35.5 40t-44 30.5t-41 12q-14 0 -30 -1t-30 -5.5t-23.5 -14.5t-9.5 -28l3 -31z" />
    <glyph glyph-name="S" unicode="S" horiz-adv-x="611" 
d="M541 615q0 -25 1.5 -50.5t6.5 -49.5v7q0 -5 -3.5 -13.5t-10.5 -8.5q-2 0 -8 2q-15 6 -21 12.5t-7.5 14t-2 17t-4.5 22.5q-4 12 -11.5 20.5t-17 15.5t-19.5 12.5t-19 13.5t-16 16.5t-18 13.5q-4 2 -15 5.5t-23.5 7.5t-23.5 6.5t-15 2.5q-26 0 -55 -8.5t-53.5 -25
t-40.5 -40t-16 -53.5q0 -19 11 -33t26.5 -24t34 -16.5t33.5 -9.5q52 -11 109.5 -27.5t104.5 -45t78 -72.5t31 -110q0 -23 -5.5 -52.5t-16.5 -49.5q-6 -11 -12.5 -17t-13 -11l-13 -10t-12.5 -13q-7 -9 -8.5 -11.5t-6.5 -4.5l-9 -4q-10 -5 -17 -14t-16 -16q-6 -4 -21.5 -10
t-33 -12t-33 -10t-22.5 -4l-57 6l-35 -2q-11 0 -20 3t-20 4q-29 3 -57 3q-12 0 -22.5 -4.5t-24.5 -17.5q-5 -5 -5.5 -9.5t-1 -8.5t-4.5 -6t-15 -2q-6 0 -10.5 7t-4.5 11l-2 27q0 14 4 27.5t4 27.5q0 27 -4.5 57.5t-12.5 56.5q-3 10 -8 26t-5 26q0 8 5 12.5t13 4.5
q11 0 22.5 -15t22.5 -34.5t21.5 -38t19.5 -26.5q11 -9 23 -14.5t24 -11.5q31 -16 56 -28.5t61 -12.5q19 0 33.5 1.5t27 5.5t25 11t27.5 19q17 13 34 32t17 42q0 14 -4.5 29t-9.5 29l-1 2q-8 21 -20 35t-29.5 23.5t-40.5 16.5t-52 15l-61 26q-13 3 -26 3.5t-26 4.5
q-17 5 -37.5 13.5t-34.5 19.5q-42 31 -55.5 68t-13.5 80q0 41 19.5 81t55.5 71q18 15 40.5 25t45.5 16.5t44 9t36 2.5h57q18 0 41 -6.5t43 -14.5q24 -9 47 -20q8 4 12 11.5l8 15t9 13t14 5.5q12 0 15.5 -6.5t3.5 -17.5z" />
    <glyph glyph-name="T" unicode="T" horiz-adv-x="667" 
d="M107 733q27 -1 50 -2q20 -1 37.5 -1.5t23.5 -0.5h72l106 -8q20 0 39.5 4.5t39.5 4.5l64 -4l91 12q8 0 12.5 -5t4.5 -13q0 -21 -5.5 -35.5t-13 -26.5t-15.5 -25t-12 -31q0 -4 -1 -6q-2 -9 -5 -20t-7.5 -20.5t-11.5 -16.5t-17 -7q-8 0 -14.5 11.5t-6.5 18.5l12 56
q0 18 -10.5 28t-25.5 15t-32.5 6.5t-30.5 1.5l-28 1q-17 0 -24.5 -7t-7.5 -36l5 -70l-9 -97l5 -71l-5 -85l6 -86l-5 -117q0 -1 3.5 -12.5t4.5 -13.5q9 -22 22 -26t35 -4q14 0 28.5 -9.5t14.5 -25.5q0 -3 -5 -6t-11 -5t-12 -3.5t-9 -1.5l-58 9l-48 -3l-48 6q-24 0 -47 -6
t-46 -6q-14 0 -28 7t-14 24q0 10 10 12t20 2h12q12 0 19.5 6.5t16.5 12.5l3 2q11 8 18.5 15t7.5 23l-3 48l4 35l-3 54l3 33l-8 46l6 61l-6 77l10 64l-8 52l4 47q0 18 -7.5 28t-19.5 15.5t-26.5 7t-27.5 1.5q-14 0 -19 -4.5t-16 -9.5q-10 -5 -20.5 -6t-19.5 -8
q-12 -9 -17.5 -20.5t-9.5 -23.5t-8.5 -24t-13.5 -21q-3 -3 -6.5 -5.5t-6.5 -6.5q-8 -10 -13.5 -13.5t-11.5 -3.5h-3q-3 0 -4.5 3.5t-3.5 7.5t-3 10q0 3 3.5 13.5t8 22.5t8.5 24t5 18q1 3 1 9q0 5 -1 8v35q0 29 17.5 45t45.5 16z" />
    <glyph glyph-name="U" unicode="U" horiz-adv-x="722" 
d="M630 717l50 3q9 0 16 -5.5t7 -15.5q0 -11 -10 -12.5t-18 -1.5h-3q-23 0 -39 -20.5t-16 -42.5l3 -33l-8 -34q2 -6 2.5 -30.5t0.5 -54.5v-60q0 -45 -1.5 -89.5t-1.5 -72.5v-12q0 -8 -1.5 -26t-4 -37.5t-6 -36t-7.5 -22.5l-14 -17l-10 -20q-6 -9 -15.5 -14.5t-17.5 -11.5
q-11 -8 -17.5 -19.5t-16.5 -20.5q-2 -2 -14.5 -6t-28 -8.5t-29.5 -8t-18 -3.5h-2q-5 -1 -8.5 -1h-8.5h-41l-34 -2q-26 0 -41.5 8t-37.5 20q-8 5 -16.5 7.5t-16.5 7.5q-6 4 -10.5 9t-9.5 10q-19 20 -29 35t-14.5 29.5t-7 32t-6.5 43.5q-3 19 -6.5 37t-3.5 37l10 110l-8 74
l4 62l-5 72l4 42q0 17 -15.5 33t-30.5 21q-6 2 -15.5 3.5t-18 4.5t-15 8t-6.5 14q0 7 8.5 12.5t14.5 5.5l102 -7l80 6l37 -4l31 3q5 0 16 -2t11 -10q0 -17 -7.5 -22.5t-23.5 -5.5q-22 0 -40 -16.5t-18 -39.5l4 -32q0 -9 -3.5 -17t-3.5 -16q0 -10 3.5 -22.5t3.5 -36.5l-3 -52
q-3 -18 -3 -43q0 -32 3 -68t3 -64q0 -27 -2 -37q0 -6 1.5 -23t3.5 -36t5 -34.5t5 -19.5q2 -5 6 -8t7 -7q9 -11 14.5 -24t18.5 -21q20 -13 43.5 -18t46.5 -5q25 0 47.5 8.5t44.5 19.5q11 5 14.5 15.5t9.5 19.5q8 11 18 20.5t15 23.5q14 36 16.5 65.5t2.5 67.5l8 126l-10 130
q0 18 1.5 36t6.5 36l1 4q0 18 -11.5 32t-25.5 24q-9 6 -18.5 7t-19 1t-18.5 2t-16 10q-4 5 -8 9.5t-4 11.5q0 8 6 10.5t12 2.5z" />
    <glyph glyph-name="V" unicode="V" horiz-adv-x="667" 
d="M346 -19q-5 3 -7.5 3.5t-4.5 1.5l-4 1q-2 0 -3 8v8q0 18 -6 26.5t-12 23.5l-10 31l-27 53q-14 36 -23.5 71.5t-28.5 70.5l-14 26t-12 27l-24 82q-10 28 -24.5 53t-25.5 53q-10 26 -17.5 52t-18.5 52q-6 13 -12 27t-18 23q-7 5 -13.5 6.5t-13.5 8.5q-2 2 -4.5 5t-2.5 6
q0 6 5.5 7t10.5 1q7 3 14 3l15 -1q6 0 10 3.5t12 3.5l33 -3l58 6l28 -3l22 1q4 0 10.5 -1.5t12.5 -4.5t10.5 -7t4.5 -9q0 -8 -11.5 -12t-25 -9t-24.5 -13.5t-11 -26.5q0 -7 2.5 -13t4.5 -12q6 -17 16 -31t18 -31q12 -26 18 -54.5t22 -52.5q5 -7 10.5 -12.5t8.5 -13.5
q4 -9 3.5 -19t1.5 -20q2 -11 8 -21.5t11 -21.5q7 -17 12.5 -35.5t12.5 -35.5t16.5 -32.5t25.5 -27.5q11 48 24.5 95.5t30.5 94.5q6 16 14 31t13 32q8 22 12.5 44.5t11.5 44.5q2 6 6.5 18.5t9.5 26t9 24.5t4 16q0 22 -11.5 30.5t-25 12.5t-24.5 8.5t-11 19.5q0 4 2 10
q8 8 15 8q4 0 8 -1t9 -1l27 3l53 -8l52 8q8 0 17 -6t9 -14q0 -6 -5 -10.5t-11.5 -9t-13 -8.5t-10.5 -7q-22 -19 -28 -46t-14 -53l-27 -92l-12 -29q-3 -10 -5 -20t-6 -19q-3 -8 -8.5 -14.5t-8.5 -14.5q-5 -14 -6 -27.5t-4 -27.5q-6 -27 -15.5 -52.5t-20 -50.5t-21 -50.5
t-17.5 -51.5q-3 -10 -7.5 -32t-12 -44.5t-17.5 -40t-24 -18.5z" />
    <glyph glyph-name="W" unicode="W" horiz-adv-x="1000" 
d="M84 722l41 5l52 -3h62q8 0 17 -3.5t9 -13.5q0 -11 -5 -15t-12.5 -5.5t-15.5 -1.5t-13 -4l-13 -14q-4 -3 -7 -5t-3 -8q0 -19 10.5 -42t20.5 -39q14 -21 16 -46t10 -48t17 -46t19 -46q5 -11 11 -20.5t10 -20.5l9 -53q3 -4 9 -16t11.5 -26t10 -27t4.5 -18v-3q1 -8 3.5 -18
t10.5 -10q7 0 13 10t11 23t8 25.5t4 18.5q3 14 8.5 25.5t12.5 22t13.5 21t11.5 23.5q5 15 8.5 30.5t9.5 30.5q5 11 14 19.5t9 22.5q0 15 -6 26t-12 24q-9 20 -14.5 41t-11.5 42q-4 12 -7 25t-7.5 25t-12 22t-19.5 18q-8 5 -19 6t-21 3t-16.5 8.5t-6.5 22.5q0 4 4 6.5t9 4
t10 2t8 0.5l46 -5l57 4l62 -3l71 4q8 0 15.5 -5.5t7.5 -13.5q0 -16 -9 -21t-20.5 -6t-22.5 -2t-16 -10l-5 -12q-3 -5 -7.5 -7.5t-4.5 -9.5q0 -4 2.5 -12.5t6.5 -17.5t8 -17.5t6 -12.5q5 -9 13 -16.5t13 -17.5q8 -16 6.5 -32.5t3.5 -33.5q4 -13 10 -24.5t12 -22.5
q14 -25 23 -51t22 -51q3 -6 8 -23.5t10.5 -36t11 -33t10.5 -14.5q8 0 15.5 19t13.5 43t11.5 47t8.5 31q6 14 14.5 26.5t14.5 26.5q14 29 19 60.5t16 61.5q8 20 18.5 38.5t17.5 38.5q3 7 3 16q0 21 -12 30.5t-26.5 15.5t-26.5 11.5t-12 17.5q0 7 10.5 12.5t16.5 5.5l35 -5
l78 6q4 0 14 -1t20.5 -3.5t18.5 -6t8 -8.5q0 -7 -4.5 -12t-11.5 -8.5t-14 -6.5t-11 -7q-7 -6 -11.5 -13t-9.5 -15q-17 -29 -24.5 -60.5t-18.5 -62.5q-8 -22 -19 -43t-17 -44l-15 -57q-6 -19 -16 -36t-17 -36q-11 -27 -16.5 -55t-14.5 -56q-5 -15 -11.5 -29.5t-10.5 -29.5
q-4 -14 -5 -29t-6 -29q-3 -9 -8 -17.5t-9 -17.5q-3 -9 -5.5 -19t-7 -18.5t-12 -14t-20.5 -5.5l-5 1l-3 2q-11 7 -11 19t-3 23q-6 20 -15.5 38t-16.5 38q-6 17 -10 35.5t-9 35.5l-38 93q-4 13 -6 26.5t-8 25.5q-2 6 -6 10.5t-7 10.5q-2 5 -6 16t-12 11q-7 0 -11.5 -6.5
t-8.5 -15t-6.5 -17.5t-4.5 -14q-10 -23 -23.5 -44t-17.5 -47q-1 -4 -1.5 -7.5t-4.5 -6.5q-2 -20 -5 -30.5t-7 -19t-9 -18t-11 -25.5q-5 -13 -7.5 -26t-7.5 -25q-6 -14 -15.5 -23t-15.5 -22q-2 -5 -4 -11.5t-4.5 -12.5t-6.5 -10t-11 -4q-17 0 -26.5 17t-15.5 39t-9.5 44
t-7.5 31q-5 13 -13.5 23.5t-13.5 23.5q-9 20 -12.5 40.5t-8.5 41.5q-3 12 -9 23.5t-12 22t-11.5 22t-8.5 23.5l-5 28q-4 20 -13 38.5t-15 38.5q-3 11 -5.5 22t-6.5 22l-31 71q-6 20 -8.5 39.5t-10.5 38.5q-2 5 -6.5 12t-9.5 14t-10.5 13t-9.5 9q-6 4 -11.5 6t-10 4.5t-7.5 7
t-3 13.5q0 10 10 12t18 2z" />
    <glyph glyph-name="X" unicode="X" horiz-adv-x="667" 
d="M386 409q0 -3 9.5 -19t21.5 -35t23 -36.5t15 -24.5q6 -11 10 -22.5t9 -22.5q11 -23 26 -43.5t27 -43.5q13 -24 22.5 -49.5t27.5 -46.5q5 -6 10.5 -11.5t12.5 -10.5q4 -3 12 -4.5t16 -4t14 -6.5t6 -10q0 -18 -12.5 -21t-26.5 -3h-4l-60 4l-81 -8q-8 0 -14.5 4t-14.5 4
l-22 -2q-19 0 -19 18q0 11 9 15.5t19.5 7.5t19.5 8.5t9 18.5q0 17 -5 30t-13.5 25t-18.5 23t-19 23q-24 32 -42 66.5t-34 70.5l-13 -8q-18 -29 -36.5 -58.5t-37.5 -58.5q-9 -13 -19 -24t-19 -22.5t-17 -24.5t-12 -29q-2 -6 -2 -10q0 -5 3 -9l6 -8q7 -8 18 -9l22 -2t19 -5.5
t8 -17.5q0 -8 -19 -12t-44.5 -5.5t-50.5 -2t-36 -0.5h-18q-15 0 -31.5 3.5t-16.5 18.5q0 10 5.5 15t13 7.5t16 4t14.5 4.5q8 5 12 13.5t9 16.5l54 57q11 16 18 34t19 33l20 22q11 14 19.5 29t18.5 30q9 14 19.5 27.5t18.5 27.5q5 10 5 20q0 13 -10 28.5t-16 26.5
q-8 14 -19 24.5t-19 24.5l-24 57q-7 13 -16.5 24t-17.5 23q-10 16 -16.5 33.5t-18.5 32.5q-7 9 -17.5 19.5t-20.5 16.5q-8 5 -16 6t-14.5 3.5t-10.5 8t-4 19.5q0 9 8 11.5t15 2.5l53 -5l78 4l58 -3l61 4q8 0 16 -4.5t8 -13.5l-5 -8l-1 -5l-38 -7q-8 -10 -20 -18.5t-12 -22.5
q0 -5 6 -20t15 -34.5t20 -41t21.5 -39.5t18.5 -29.5t12 -11.5q5 0 11 8l1 1l1 1q8 12 13.5 24.5t13.5 23.5q7 10 15 18t15 17q31 39 52 83q2 3 3.5 6t1.5 6q0 10 -10.5 15.5t-23.5 9.5t-23.5 9.5t-10.5 17.5q0 11 9.5 13.5t17.5 2.5l82 -7l72 8q8 0 21 -3t13 -14t-10 -17.5
t-23 -11t-26 -8t-20 -9.5q-6 -5 -9.5 -12.5t-8.5 -14.5q-10 -14 -22.5 -26t-20.5 -28l-16 -38q-6 -11 -20.5 -29.5t-30.5 -38.5t-28 -37.5t-12 -26.5z" />
    <glyph glyph-name="Y" unicode="Y" horiz-adv-x="667" 
d="M127 731l79 -4l50 3q8 0 19.5 -4t11.5 -15q0 -9 -8 -13t-18.5 -7t-20 -6.5t-13.5 -10.5t-5.5 -16.5t-5.5 -14.5q8 -17 17 -33.5t21 -31.5q14 -18 19.5 -40t13.5 -43q8 -19 20.5 -34t21.5 -32q4 -9 6 -18.5t4.5 -18.5t7 -17t14.5 -13l2 -1q5 1 7.5 4t5.5 6q16 16 25.5 31
t16.5 30.5t12.5 32t14.5 36.5q6 13 15 23t17 22q4 6 12 20.5t16 30t14.5 29.5t6.5 20q0 15 -12 22.5t-26 13t-26 11t-12 14.5q0 17 9 23t25 6q3 0 10 -0.5t15 -2t14.5 -3.5t7.5 -4l74 12q12 0 24.5 -5t20.5 -15l2 -7q0 -5 -4.5 -10t-10.5 -9.5t-12 -8t-10 -5.5
q-9 -5 -16.5 -13t-13.5 -16q-13 -17 -18 -37.5t-16 -38.5l-25 -36l-64 -127q-6 -10 -16 -27.5t-20.5 -37t-19.5 -37t-11 -26.5q-2 -5 -2 -9.5v-9.5l1 -29l-3 -73l-6 -61q0 -23 17 -35.5t37.5 -21t37.5 -16t17 -18.5q0 -8 -9 -10.5t-20 -2.5q-6 0 -11.5 0.5t-8.5 0.5l-118 11
l-122 -8q-6 0 -12.5 2.5t-6.5 10.5q0 15 7.5 20t19.5 7.5t26 7t26 18.5q5 6 7.5 9.5t2.5 11.5l-3 35l4 51l-6 66v30q-14 32 -27 63t-32 61q-21 35 -33 71t-29 72l-37 58q-6 13 -10 26t-12 25t-20 21t-23 16t-19 13.5t-8 14.5q0 11 8.5 14t19.5 3q7 0 13.5 -0.5t11.5 -0.5z
" />
    <glyph glyph-name="Z" unicode="Z" horiz-adv-x="611" 
d="M335 719l69 6l44 -5l26 2l25 -5l33 5q8 0 16 -6t8 -14l-1 -7q-3 -17 -15.5 -27.5t-21.5 -24.5l-42 -61q-11 -15 -19 -31.5t-19 -31.5q-5 -7 -10.5 -13t-10.5 -13q-7 -10 -12 -20.5t-11 -20.5q-11 -17 -25 -31.5t-25 -32.5q-6 -11 -10.5 -21.5t-10.5 -20.5l-27 -33
l-19 -33l-24 -27q-9 -12 -14.5 -26t-13.5 -28t-17.5 -25.5t-18.5 -23.5q-5 -7 -8.5 -13.5t-3.5 -14.5t11 -14t25.5 -10t29.5 -5.5t23 -1.5h3l76 3l56 -4q8 0 19 2.5t22.5 6t22 8t17.5 8.5q5 3 15.5 15t21.5 26t21 27.5t15 19.5q4 2 12 2q14 0 18 -11t4 -22q0 -14 -9 -25
t-17 -22q-16 -23 -25.5 -50.5t-21.5 -53.5q-5 -12 -10 -16t-14 -4q-2 0 -8.5 -2t-12.5 -2q-5 0 -8 3h-173l-38 4l-34 -5q-11 0 -16 6t-12 6q-9 0 -18 -2.5t-18 -4.5q-2 0 -4 -0.5t-4 -0.5l-8 1h-33l-52 -7q-10 0 -17 7t-7 17q0 8 9.5 22t22 29t24.5 28.5t18 21.5
q19 25 34 52t33 53q9 13 20 25t19 26q6 11 11 22.5t12 22.5q10 16 22.5 29t23.5 29q11 17 19 34t19 34q9 13 27.5 36t37.5 47.5t33.5 47t14.5 36.5q0 2 -3 5t-5 4l-3 3h-1l-116 -5q-7 0 -10 2h-100q-12 0 -18 -2t-9.5 -5.5t-6 -9.5t-8.5 -13q-7 -9 -15 -16.5t-14 -17.5
q-5 -8 -9 -22t-9 -27.5t-13 -23.5t-20 -10q-9 0 -12.5 7t-3.5 15q0 17 6 33t11 33q5 16 7 31t4.5 29t7 28.5t14.5 29.5l2 4q6 11 16 23t21 12l60 -6h49l41 5z" />
    <glyph glyph-name="backslash" unicode="\" horiz-adv-x="563" 
d="M503 -114q-4 -14 -12 -23t-20 -9q-8 0 -14 6l-31 63q-4 8 -9 10t-8 7t-7 16.5t-9 23.5t-9 23t-7 16l-101 195q-2 3 -4 10l-4 14t-4.5 12t-5.5 5h-1l-45 92q-7 12 -9.5 19t-4 12t-3 9.5t-4.5 10.5q-12 23 -22 41t-20.5 36t-22 39t-25.5 49q-10 20 -16.5 39t-12.5 19h-1
l-21 58q0 2 -0.5 2.5t-0.5 1.5q0 6 5 10.5t11.5 7.5t14.5 4.5t14 2.5l38 -61h1q2 0 5 -7.5t5.5 -17.5t5.5 -20t5 -15l54 -92l7 -29l27 -53q5 -9 9.5 -17.5t10.5 -16.5l-1 -1q0 -4 4.5 -13.5t10.5 -22.5q20 -40 32.5 -64.5t20.5 -38.5t12.5 -21t7.5 -12t6.5 -11t9.5 -17
l8 -23q2 -4 2 -7l56 -121q2 0 3.5 -3.5t2.5 -5.5l17 -36q4 -8 7.5 -13t4.5 -5z" />
    <glyph glyph-name="bracketright" unicode="]" horiz-adv-x="243" 
d="M31 -67q0 2 0.5 9t2 14.5t5 13.5t10.5 6h64q4 0 11 3.5t9 7.5l-1 14q0 29 3 59t3 67l-3 9v266q-2 11 -2 17.5v16.5q0 25 2 48.5t3 46.5l-5 129q-8 20 -27 20q-6 0 -10 -3h-53q-5 0 -7 6.5t-3.5 14.5t-1.5 15.5v9.5q0 9 4.5 18t15.5 9q9 0 35 -6.5t55.5 -16.5t55 -20.5
t31.5 -18.5q0 -11 0.5 -15.5t0.5 -12.5t-4 -11v-267q-2 -5 -2.5 -8.5t-0.5 -7.5l3 -51q0 -26 -2.5 -49t-2.5 -47l2 -37l-2 -26l5 -46q0 -11 -1.5 -21t-2.5 -20q0 -7 2 -17v-30q2 -9 3.5 -18t1.5 -19q0 -11 -4.5 -18t-11.5 -11.5t-15.5 -7.5t-16.5 -7l-12 -6q-12 -14 -37 -22
h-11q-14 -5 -29.5 -7.5t-33.5 -2.5q-6 0 -13.5 1.5t-12.5 11.5v17z" />
    <glyph glyph-name="asciicircum" unicode="^" horiz-adv-x="422" 
d="M65 529q-10 -5 -18 -5q-7 0 -7 7q0 2 4 7.5t8.5 11.5t9 11t5.5 7v1q3 5 8 8q0 1 1 1q3 2 4 4.5t4 3.5l8 8q6 14 10 16.5t12 8.5q2 2 4.5 3.5t5.5 2.5v1q1 0 5 2q15 17 23 26l10 12q4 4 12 16t21 14l6 1q15 0 24 -9q5 -8 13 -16t18 -17q5 -2 8 -5.5t6 -7.5q6 -6 13 -12
l14 -12q8 -4 13 -8.5t7 -8.5q18 -16 34.5 -31.5t28.5 -29.5l2 -7q0 -10 -11 -10q-10 0 -17 4q-13 8 -34.5 19t-44.5 22q-4 1 -10 5q-8 4 -11 6q-11 2 -22 6t-17 13q-1 0 -3 2q-6 0 -9 1l-59 -35q-5 -8 -13 -11t-19 -4z" />
    <glyph glyph-name="underscore" unicode="_" horiz-adv-x="630" 
d="M627 -4q8 -6 10.5 -18t2.5 -20t-3.5 -14t-10.5 -8h-70q-29 0 -72 -0.5t-91 -1l-96 -1t-85 -0.5l-12 0.5t-27 1.5t-29 1.5t-19 0.5h-16q-9 0 -20 -0.5t-25 -2.5l-61 3q-8 0 -10.5 8.5t-2.5 14.5q0 9 2 17t4 17q14 2 29 3t29 1q36 0 70.5 -3t60.5 -3h15.5t13.5 2
q6 -1 9.5 -1h5.5q4 0 4 1t6 2t22 2t52 1q26 0 64 -0.5t92 -2.5q1 1 10 1h11h-18h2.5h6t13.5 -0.5t25 -0.5q9 0 15.5 0.5t6.5 1.5z" />
    <glyph glyph-name="grave" unicode="`" horiz-adv-x="278" 
d="M78 608q11 0 18 -2.5t12.5 -7t10 -11t11.5 -14.5q1 -2 4.5 -6.5t4.5 -6.5l9 -11q11 -4 18.5 -16t14.5 -20l5 -5l45 -45q5 -5 8.5 -9.5t3.5 -11.5q0 -6 -4 -10.5t-10 -4.5q-2 0 -8.5 4t-16 9.5t-20.5 12t-20 11.5q-12 3 -28 8.5t-27 15.5q-15 5 -29.5 12t-26 16t-18.5 21
t-7 28q0 22 15 32.5t35 10.5z" />
    <glyph glyph-name="a" unicode="a" 
d="M380 169v-35q0 -7 1.5 -21t5 -27.5t10 -24t15.5 -10.5q6 0 10.5 3.5t9 7.5t9.5 7.5t12 3.5q9 0 16 -6t7 -15l-1 -5q-3 -3 -9 -8.5t-13 -11t-13 -10.5t-9 -6q-6 -2 -13 -2.5t-13 -4.5q-8 -5 -11 -10t-14 -5q-10 0 -23 2t-21 7q-5 3 -9 9t-7 12.5t-6 11t-7 4.5q-2 0 -9 -4
t-15.5 -9.5t-16 -10.5l-10.5 -7q-14 -10 -33 -10.5t-36 -2.5q-8 -1 -14.5 -3.5t-14.5 -2.5q-5 0 -8.5 2t-8.5 4l-27 4l-14 8q-29 15 -40 34.5t-11 52.5q0 29 21.5 45.5t51.5 25t63 11.5t56 4l10 1q28 1 35 12t7 37v7q0 14 -0.5 22t-3.5 13.5t-9 10.5t-17 13l-6 4
q-10 7 -12.5 9t-5.5 2h-3q-2 0 -5.5 -0.5t-8.5 -0.5l-19 2q-7 0 -12 -4l-10 -8q-15 -11 -19.5 -20.5t-8 -19t-10 -18t-25.5 -15.5l-7 -3.5t-7 -1.5q-14 0 -27.5 11t-13.5 25q0 18 5 27.5t13 15.5t19.5 10.5t23.5 10.5q14 7 20 13.5t12 11.5t15.5 7.5t30.5 2.5h42
q19 0 36.5 -2t33 -8t29.5 -17.5t27 -31.5q8 -14 13.5 -28.5t5.5 -30.5zM186 127q-8 0 -16.5 -3t-16.5 -8.5t-13 -12.5t-5 -16q0 -28 20.5 -38.5t44.5 -10.5q10 0 27.5 2.5t34 8t28.5 15t12 23.5q0 7 -1 16.5t-4.5 17.5t-9.5 13.5t-16 5.5q-16 0 -29.5 -8t-28.5 -8z" />
    <glyph glyph-name="b" unicode="b" horiz-adv-x="556" 
d="M203 628l4 -71l-9 -81l4 -61l-4 -52q0 -11 3 -19.5t16 -8.5q7 0 14.5 3.5t16 7t18.5 7t24 3.5l64 -7q29 0 57 -12t50.5 -32.5t36 -47t13.5 -56.5q0 -10 -2.5 -27.5t-6 -36.5t-9 -35.5t-11.5 -23.5q-8 -11 -19 -19t-21 -17q-7 -7 -11.5 -13.5t-14.5 -10.5
q-20 -8 -31.5 -13t-22 -9t-24 -5.5t-37.5 -1.5q-16 0 -35 1t-33 6q-6 2 -10.5 6t-10.5 6l-19 3q-10 2 -16.5 9.5t-16.5 10.5q-5 -2 -11 -7t-11.5 -10t-11 -9t-10.5 -4q-6 0 -11 5t-5 11q0 19 8.5 38t8.5 39l-4 63l7 125l-7 130q0 24 3.5 53t4.5 53q1 26 1.5 52.5t0.5 52.5
q0 23 -5 36t-33 13q-8 0 -21 7.5t-13 17.5q0 7 4.5 11t11.5 6t14 3t12 1l84 16q14 0 24 -9t10 -24zM202 253q0 -11 3.5 -21.5t5.5 -21.5l-5 -113q0 -6 5 -10t8 -9q4 -5 6.5 -9.5t7.5 -9.5q4 -4 14.5 -10.5t22 -12.5t22.5 -10t17 -4q11 0 21.5 5t20.5 10q32 15 50.5 46.5
t18.5 66.5v32q0 20 -3.5 33.5t-11 23.5t-19.5 18t-28 18q-10 6 -17 10.5t-13.5 7.5t-14.5 4.5t-20 1.5h-32q-23 0 -41 -10t-18 -36z" />
    <glyph glyph-name="c" unicode="c" horiz-adv-x="445" 
d="M345 204q-12 0 -23.5 7t-21.5 17.5t-16 23.5t-6 24q0 9 5.5 15.5t5.5 16.5q0 13 -12.5 15t-22.5 2q-12 0 -17.5 -1.5t-10 -4t-9 -5.5t-13.5 -6q-7 -2 -14 -3.5t-14 -4.5q-36 -15 -45.5 -45t-9.5 -65q0 -34 10 -62t43 -44q11 -5 21.5 -6t21.5 -4q12 -4 23 -11t25 -7
q3 0 16 4.5t28 10t27.5 11t15.5 7.5q6 5 11 12t13 7h3q13 0 13 -14q0 -13 -6 -21.5t-14.5 -15t-18 -12.5t-16.5 -13q-4 -4 -6.5 -8t-7.5 -7q-9 -6 -28 -11t-40 -8.5t-40.5 -6t-30.5 -2.5q-12 0 -22 5.5t-21 9.5t-22 6.5t-20 9.5q-19 13 -30.5 28t-17.5 31.5t-8 35t-2 40.5
q0 28 4.5 50t17.5 47q8 17 21 27.5t27 21.5q3 2 5.5 4t4.5 4q28 21 54 36t64 16h14q23 0 49 -5t48.5 -16.5t37 -30.5t14.5 -47q0 -9 -3 -18q-1 -3 -8.5 -9.5t-16.5 -13.5t-17.5 -12t-11.5 -5z" />
    <glyph glyph-name="d" unicode="d" horiz-adv-x="556" 
d="M455 553l6 -57l-5 -59l4 -60l-6 -63l2 -54l-2 -57l9 -75q0 -12 -1 -23.5t-2 -23.5q5 -7 8.5 -18.5t13.5 -11.5q5 0 10 3t11 3q5 0 6.5 -3.5t1.5 -7.5v-6q0 -4 1 -7t1 -6q0 -6 -8 -7t-12 -3q-8 -3 -18 -7.5t-21.5 -9.5t-22 -8.5t-17.5 -3.5q-2 0 -5.5 3t-11.5 3t-11 6
t-5.5 13t-6 13t-12.5 6q-12 -7 -14.5 -13t-5.5 -10t-12 -6t-34 -2l-55 -12q-9 0 -27.5 1.5t-38 4.5t-36.5 7t-24 10l-11 12l-28 18q-8 6 -15 19.5t-12.5 29.5t-9 31.5t-3.5 25.5q0 15 7.5 35t12.5 34q5 12 9 24t12 23q7 8 16 13.5t17 13.5q11 12 20.5 20.5t20 15t22.5 11
t29 8.5q14 3 28 7.5t29 4.5q14 0 27 -4t26 -8.5t26 -8t26 -3.5q5 0 8 3q1 8 1.5 15.5t0.5 15.5l-8 121l9 97q0 15 -6.5 30t-20.5 23q-7 4 -17 4l-17 -1q-6 0 -15 5t-9 13q0 19 15.5 23.5t30.5 4.5h3q11 0 23.5 6.5t25.5 14.5t25.5 14.5t24.5 6.5h3q6 0 9.5 -8t6 -18t3.5 -20
t1 -14zM130 205q0 -10 1 -19q0 -8 0.5 -15.5t0.5 -9.5q0 -29 14.5 -51t37 -37t49.5 -22.5t52 -7.5q12 0 18.5 2.5t11 7t8.5 10t12 11.5q6 5 12.5 8t10.5 10q5 9 6.5 20.5t1.5 23.5q0 14 -1 26.5t-1 23.5l5 65q0 9 -1 13q-1 9 -13 17.5t-27 15.5t-30 11.5t-23 4.5
q-11 0 -20 -4t-19 -6q-12 -3 -18 -3t-10 -1t-9.5 -4t-15.5 -11q-8 -6 -11.5 -9.5t-5.5 -6.5t-4.5 -7t-7.5 -11q-8 -12 -16 -19.5t-8 -23.5v-2z" />
    <glyph glyph-name="e" unicode="e" 
d="M454 268q0 -14 -5.5 -19.5t-13.5 -15.5q-5 -7 -8 -12.5t-6.5 -9.5t-9.5 -6t-16 -2l-78 5l-59 -8l-22 2l-41 -2l-54 4q-9 0 -11.5 -11.5t-2.5 -18.5q0 -33 20 -54t48.5 -32.5t61 -16t57.5 -4.5q7 0 18.5 3t23.5 7.5t23 9t17 8.5q8 6 15.5 20t18.5 14q8 0 13 -6.5t5 -14.5
q0 -4 -3 -11t-6.5 -14t-7.5 -13.5t-6 -10.5q-5 -1 -15 -10.5t-23.5 -20.5t-29.5 -20t-32 -9q-8 0 -12 -2.5t-11 -4.5q-8 -2 -17 -2.5t-18 -0.5h-17q-20 0 -32.5 3t-34.5 3q-14 0 -19 6.5t-16 9.5q-4 1 -8 1.5t-7 2.5q-2 2 -2.5 4t-2.5 4q-4 6 -9.5 9.5t-11.5 6.5t-12.5 6.5
t-10.5 8.5q-8 10 -14 25t-10 31.5t-6 33t-2 28.5q0 13 5 24.5t12.5 22.5t15.5 21t15 20q8 12 14.5 25.5t18.5 23.5q1 1 9 6.5t16.5 11.5t15.5 10.5l7 4.5q5 2 10 2t10 1l37 11q14 2 28.5 2.5t28.5 0.5q8 0 25.5 -3.5t36.5 -9t35.5 -11.5t22.5 -10t12.5 -10.5t12.5 -14.5
t10 -16.5t4 -15.5zM247 324q-17 0 -28 -2.5t-19.5 -8.5t-15.5 -15.5t-15 -22.5q-2 -4 -9.5 -15t-7.5 -14q0 -4 5 -6.5t11.5 -4t13 -2t9.5 -0.5l68 4l57 -2q14 0 27.5 3.5t13.5 22.5q0 15 -12.5 26.5t-30.5 20t-36.5 12.5t-30.5 4z" />
    <glyph glyph-name="f" unicode="f" horiz-adv-x="333" 
d="M198 580q0 -17 1 -31q1 -12 1.5 -22.5t0.5 -11.5v-143q0 -9 5 -17.5t15 -8.5l47 10q8 0 18.5 -5.5t10.5 -13.5q0 -10 -3 -25t-16 -15q-5 0 -9.5 1.5t-9.5 1.5l-12 -2l-29 7q-8 0 -13.5 -4.5t-5.5 -12.5q0 -9 3 -17.5t3 -18.5l-3 -39l2 -34l-4 -63q0 -16 3.5 -32t12.5 -30
q6 -4 18 -7.5t23.5 -7.5t20 -10t8.5 -16q0 -9 -7.5 -14t-15.5 -5l-44 10l-41 -5l-48 3l-55 -4q-8 0 -16 4.5t-8 13.5q0 11 9.5 16t21.5 8t22 6t11 10v3l-1 13v109l5 76q0 20 -11.5 36.5t-32.5 16.5h-2l-24 -1q-5 0 -15 2q-9 9 -9 21q0 10 8 19t18 9l41 -9q19 0 24 13.5
t5 29.5l-2 38q0 21 5 52t14.5 64t24 66t33.5 59t42 42t50 16q23 0 35 -13.5t12 -36.5q0 -26 -11.5 -41.5t-39.5 -15.5q-14 0 -21 5.5t-10.5 11.5t-6 11.5t-8.5 5.5q-8 0 -15 -9.5t-12.5 -22.5t-9 -26t-3.5 -20z" />
    <glyph glyph-name="g" unicode="g" 
d="M396 319q4 -9 10.5 -17.5t12.5 -17t10 -17.5t4 -20q0 -10 -3.5 -19t-5.5 -19q-3 -15 -5.5 -23t-6 -14t-9 -12t-15.5 -17q-8 -10 -12 -15.5t-18 -10.5q-12 -5 -24 -8.5t-23 -10.5q-16 -10 -34.5 -12.5t-36.5 -2.5l-22 4l-25 -2q-11 0 -19.5 5.5t-18.5 5.5q-2 -3 -5.5 -9
t-7 -13t-6.5 -12.5t-3 -7.5q0 -15 16 -22t28 -7q26 0 51.5 0.5t51.5 2.5q13 1 25.5 4t26.5 3q4 0 13 -3t19 -6.5t18.5 -7.5t11.5 -6t7.5 -11t9.5 -19.5t8.5 -20t3.5 -12.5q0 -20 -13 -32.5t-23 -26.5q-8 -11 -11.5 -16.5t-6.5 -9t-7 -5.5t-11 -6q-3 -2 -7 -4t-9 -5
q-8 -5 -14 -10.5t-14 -7.5q-20 -5 -41.5 -6t-42.5 -1l-32 -5q-9 0 -12 3.5t-11 5.5q-6 2 -10 2l-22 -2q-5 0 -15 5.5t-20.5 12.5t-19 14.5t-9.5 12.5q-2 5 -2 10v10q0 15 7.5 22t17 12t17 10.5t7.5 17.5v1q-5 10 -11 8t-13 3q-2 2 -3.5 5t-3.5 5q-4 5 -8.5 6t-7.5 6
q-1 1 -3 6t-3.5 10.5t-2.5 10.5t-1 7q0 5 2 8t4 7q6 17 10 25.5t9 14t13 10.5t23 15v6q-10 11 -19 16.5t-17 11.5t-15 14.5t-12 25.5q-3 10 -6.5 20.5t-3.5 21.5q0 23 11.5 41.5t25.5 35.5q9 10 15.5 16t13.5 9.5t15.5 6t20.5 7.5q17 6 28 9t21 4.5t20 2t25 0.5h14l59 7
l40 -11q11 0 23.5 12t25.5 16q5 2 9 4.5t4 8.5l-32 46q0 7 5 14.5t12.5 13.5t16 10t14.5 4q20 0 31 -13.5t11 -32.5q0 -18 -2.5 -27.5t-8 -15.5t-14.5 -11t-22 -14q-7 -5 -11 -11t-10 -11q-5 -5 -9 -6.5t-6 -9.5zM137 187q0 -28 13 -38.5t34 -20.5l7 -3q9 -5 16.5 -9
t18.5 -4l43 7q17 0 21.5 6.5t15.5 14.5q13 10 20.5 20t11 20.5t4 23t0.5 27.5v8q0 9 -0.5 14.5t-2 9.5t-5.5 7.5t-10 8.5l-4 3l-2 2q-5 3 -7 6t-15 14q-14 9 -28.5 11t-30.5 2q-11 0 -21 -1t-19 -6l-13 -11l-19 -8q-11 -7 -16.5 -18.5t-8 -25t-3 -28t-0.5 -26.5v-6zM247 -50
h-52q-9 -6 -18.5 -10t-18 -9.5t-14 -13.5t-5.5 -21q0 -9 8.5 -17t20.5 -14.5t24.5 -10t20.5 -3.5h49q22 0 37 2t25 8.5t16 19.5t12 35q2 5 4 10.5t2 10.5q0 11 -10.5 15.5t-19.5 4.5z" />
    <glyph glyph-name="h" unicode="h" horiz-adv-x="556" 
d="M448 170q-1 -18 -2 -34q-1 -14 -1 -26.5v-16.5q0 -36 9 -47t20.5 -14t20.5 -7t9 -25q-7 -3 -14.5 -4t-15.5 -1l-69 5l-75 -6q-10 0 -22 2t-12 16q0 12 9.5 15t20.5 7t20.5 12t9.5 30v3q0 3 -0.5 11.5t-0.5 17.5q-1 11 -1 23q0 23 1 41q1 16 1.5 30.5t0.5 17.5q0 13 -8 26
t-19.5 23t-24 16t-22.5 6q-18 0 -35 -5.5t-34 -8.5q-20 -3 -23.5 -11.5t-3.5 -27.5q-2 -33 -3 -59q-2 -23 -2.5 -42.5t-0.5 -23.5q0 -23 4 -38.5t15 -35.5q3 -5 10.5 -6t16 -2.5t15 -6.5t6.5 -18l-2 -6q-5 -4 -12.5 -5t-13.5 -1q-10 3 -21.5 4t-22.5 1q-9 0 -17 -0.5
t-14 -1.5q-7 -1 -13 -1l-36 4q-11 0 -22 -3.5t-23 -3.5q-9 0 -14.5 6t-5.5 15q0 14 9.5 18t21.5 5t21.5 3t9.5 11v-3q-1 3 -1.5 15t-0.5 15l4 49v349l7 128q0 23 -11.5 30.5t-26 10t-26 5t-11.5 14.5t8.5 18t20.5 9t25 4.5t22 4.5q16 5 31.5 16.5t33.5 11.5q10 0 18 -7.5
t8 -17.5l-10 -382q0 -9 10 -9q7 0 11.5 4.5t9.5 7.5q9 6 23 10.5t29 8t29.5 5t25.5 1.5q12 0 32.5 -7t31.5 -13q23 -11 35.5 -29t18.5 -39.5t7 -45t1 -45.5z" />
    <glyph glyph-name="i" unicode="i" horiz-adv-x="278" 
d="M175 583q-10 0 -21.5 2.5t-21.5 8.5t-16.5 14.5t-6.5 20.5q0 11 8 17t15 13q12 11 19 18t26 7q20 0 33 -15t13 -34q0 -7 -5 -16t-12.5 -17t-15.5 -13.5t-15 -5.5zM186 314v-51t-1 -51q-1 -11 -2.5 -23t-1.5 -23l6 -84q0 -27 10 -35t22.5 -9t22.5 -2.5t10 -15.5
q0 -6 -5.5 -10.5t-13 -7.5t-15.5 -4.5t-13 -1.5l-53 6l-59 -5q-4 0 -14 1.5t-20.5 4t-18.5 6t-8 8.5q0 9 7.5 12t17.5 5t19.5 4.5t13.5 9.5q2 4 4 12t3 17t1.5 17t0.5 13q0 26 -3.5 55.5t-3.5 57.5q0 9 2 17.5t2 16.5q0 18 -11 26t-23.5 12t-23.5 7.5t-11 12.5q0 5 1.5 9
t6.5 6q15 6 33 6.5t34 3.5q14 3 28.5 13t26.5 10q8 0 13.5 -4.5t9 -11.5t5 -15t1.5 -15z" />
    <glyph glyph-name="j" unicode="j" horiz-adv-x="270" 
d="M195 566q-23 0 -41 17t-18 40q0 49 50 49q7 0 17 -4t19 -10.5t15.5 -15t6.5 -16.5q0 -2 -1 -7.5l-2 -11t-2.5 -10.5t-2.5 -6q-2 -3 -5.5 -2.5t-5.5 -2.5q-2 -2 -1.5 -5.5t-1.5 -4.5l-27 -10v0zM214 174l-4 -52l3 -54q0 -8 -1 -17t-2 -17q-2 -20 -3 -41t-4.5 -42
t-10.5 -40.5t-22 -35.5l-16 -14q-11 -13 -21.5 -21t-21.5 -13t-24 -7t-30 -2q-19 0 -29 14.5t-10 31.5q0 16 11 25.5t26 9.5t22 -9.5t19 -14.5q30 0 30 29v2l-9 277l7 46q0 10 -2.5 14.5t-6.5 7t-9.5 4t-12.5 4.5q-9 4 -11.5 8t-14.5 4l-18 -2q-5 0 -6 5.5t-1 9.5l1 4
q4 8 14.5 11.5t23 5.5t24.5 3t20 5t15.5 10t14.5 11.5t15 9.5t18 4q9 0 17 -5.5t8 -15.5l-6 -65z" />
    <glyph glyph-name="k" unicode="k" horiz-adv-x="556" 
d="M211 600v-62q0 -6 -0.5 -16t-0.5 -20q-1 -11 -1 -25l4 -113l-3 -82l5 -75q0 -4 1.5 -7.5t6.5 -3.5q4 0 14.5 6.5t22 15t22 17t13.5 12.5q8 9 15 19.5t12 21.5q0 15 -9.5 19.5t-21 6t-21 4t-9.5 12.5t8 13q8 1 16 1h16l117 -6l57 4q7 0 15 -4t8 -12q0 -13 -8 -18
q-9 1 -17 1h-14.5t-12.5 1q-17 0 -38 -6.5t-32 -20.5q-5 -7 -9 -10l-8 -6t-7.5 -8t-7.5 -14q-2 -5 -4 -10.5t-7 -10.5q-4 -4 -9.5 -5t-5.5 -9q0 -5 5 -11t11.5 -11.5t13 -10.5t10.5 -8q14 -12 25 -26l22 -28t22.5 -27.5t26.5 -24.5q5 -4 10 -7.5t11 -6.5t16.5 -5t20 -5
t17 -8.5t7.5 -14.5q0 -19 -22 -19l-60 6l-51 -4q-4 0 -10 4q-17 10 -24 17.5t-10 13t-4.5 10.5t-8.5 11l-13.5 13.5t-12.5 14.5q-7 10 -16.5 16t-18.5 14q-5 4 -8.5 10l-7 12t-8.5 10t-12 4q-13 0 -20.5 -7t-11.5 -17t-5 -21.5t-1 -20.5q0 -27 12 -36.5t26 -12t26 -5
t12 -15.5q0 -8 -10.5 -13t-17.5 -5q-8 0 -16.5 2.5t-17.5 2.5l-22 -1q-5 0 -9.5 1.5t-9.5 1.5l-14 -3l-29 5l-41 -4q-9 0 -21.5 5.5t-12.5 16.5q0 8 9 10t20.5 6t20.5 13t9 32q0 14 -1 27t-2 27l-1 16l1 16v71q-3 24 -4 58.5t-1 72.5t1 76t1.5 69.5t1.5 53t1 26.5
q0 13 -3.5 30t-10.5 28q-4 5 -8.5 6.5t-9.5 1.5h-11q-7 0 -18.5 5.5t-11.5 14.5q0 11 11.5 13t20.5 2h3q11 0 24 5t26 11t24 11t17 5q16 0 29.5 -14.5t13.5 -30.5z" />
    <glyph glyph-name="l" unicode="l" horiz-adv-x="278" 
d="M188 280v-8t-2 -8v-179q0 -27 7 -35.5t16.5 -10t21 -2t20.5 -9.5q6 -6 6 -10q0 -10 -10 -16t-18 -6l-21 3l-41 -6l-29 6l-27 -3l-25 3l-26 -2q-8 0 -20.5 7.5t-12.5 17.5q0 11 7 14t16 3h15q14 0 23 8t9 22q0 79 -1.5 157t-6.5 156q-1 11 -1 21.5v21.5l5 84l-4 47l4 63
q0 12 -8 22.5t-21 10.5l-18 -3q-8 0 -17 6.5t-9 15.5q0 8 5 12t11 7q14 7 29 5.5t30 2.5q9 2 17 7t16.5 10t17 8.5t18.5 3.5q9 0 16.5 -5.5t7.5 -15.5l-9 -80q1 -19 3 -38q1 -17 2 -36.5t1 -37.5q0 -11 -0.5 -20t-1.5 -16z" />
    <glyph glyph-name="m" unicode="m" horiz-adv-x="834" 
d="M721 260q5 -13 5 -41q0 -18 -1 -39.5t-1 -45.5q0 -14 0.5 -27.5t2.5 -27.5l1 -5v-3q2 -15 6.5 -25t23.5 -10q2 0 7 -3t10.5 -7t9.5 -8t4 -6q0 -9 -7.5 -13t-15.5 -4l-54 6l-57 -3q-19 0 -40.5 1.5t-38.5 8.5l-2 5q0 9 11 11.5t24 5.5t24 11.5t11 30.5l-7 45l5 72
q0 12 -4.5 18t-6.5 17l-2 8q-2 10 -2 14q-4 16 -14 25.5t-23.5 13.5t-28.5 5t-29 1q-17 0 -38.5 -10t-30.5 -25q-5 -6 -5 -17l2 -23l-5 -46l-2 -52l5 -26q0 -6 -3.5 -11t-3.5 -13q0 -9 8.5 -16t19.5 -12l22 -10t17 -11l1 -5q0 -4 -11 -7t-25.5 -5t-28 -3t-17.5 -1l-53 6
l-48 -4q-7 0 -15.5 3t-8.5 12q3 11 12 13.5t18 3.5t16 3.5t7 14.5q0 17 -1 32.5t-4 31.5q-3 15 -3 31q0 11 1 22q0 8 0.5 16.5t0.5 11.5q0 16 -2 32t-8.5 29t-18.5 20.5t-32 7.5q-5 0 -8.5 -2t-8.5 -3q-8 -2 -20 -3t-24 -3.5t-22.5 -7t-15.5 -11.5q-3 -5 -3 -9l2 -15
q0 -5 -2 -8.5t-3 -8.5q-2 -7 -2.5 -15t-0.5 -16v-15l4 -65v-41q3 -6 5 -12t8 -10q8 -5 20 -8t12 -16q0 -3 -4.5 -5.5t-10.5 -4.5t-11.5 -3t-8.5 -1l-49 7l-74 -5q-7 0 -19.5 3t-12.5 13q0 12 9.5 13t20.5 3.5t20.5 11t9.5 34.5l-7 83q0 23 1.5 44.5t2.5 44.5q-5 9 -10.5 18
t-13.5 15q-6 4 -15 5.5t-17.5 4t-14.5 6.5t-6 14q0 9 12 14.5t20 5.5l33 -2q20 0 39 10t38 10q8 0 10.5 -8.5t4 -18t5 -18t12.5 -8.5q5 0 19 9t32.5 19.5t39 19.5t39.5 9q3 0 16.5 -3.5t29 -8t28 -8.5t14.5 -5q3 -3 7 -9t8.5 -11.5t9.5 -10t10 -4.5l6 1q8 6 16 12.5t16 13.5
q12 9 27.5 14.5t32.5 8.5t34 4t32 1q11 0 19 -5t18 -8q8 -2 16 -3t16 -6q1 -1 6 -7.5t10.5 -14t10 -14t4.5 -7.5q2 -8 2 -12z" />
    <glyph glyph-name="n" unicode="n" horiz-adv-x="556" 
d="M459 196l6 -100l-3 -33q0 -17 10 -23t22 -8.5t22 -5t10 -11.5q0 -14 -13 -18t-23 -4l-64 9q-24 0 -48 -2t-48 -3q-9 5 -11.5 5t-2.5 13q0 6 9 8t19.5 5t19.5 10t9 24l-7 59l8 32l-4 28l3 39q0 17 -12.5 28t-30 17t-36.5 8t-32 2q-10 0 -15.5 -2t-9.5 -6t-8 -8.5t-11 -8.5
q-6 -4 -12.5 -7t-6.5 -11q2 -6 2.5 -21t0.5 -33q0 -19 -0.5 -38t-1.5 -35q-1 -18 -1 -37q0 -21 9 -27t20.5 -7.5t20.5 -2.5t9 -11q0 -14 -10 -20.5t-23 -6.5q-14 0 -27 3.5t-27 3.5h-4q-18 -1 -34 -2q-14 -1 -26.5 -1.5t-17.5 -0.5q-22 0 -42 7l-6 9v1q0 10 2 8.5t4 5.5
q9 4 20.5 6.5t21.5 6.5t16.5 11.5t6.5 21.5l-5 38l6 58l-6 44l4 32q0 12 -8.5 24.5t-22.5 12.5l-19 -1q-7 0 -16 4.5t-9 12.5q0 10 7.5 14.5t15.5 6.5q11 2 23 2.5t23 4.5q14 5 25 13t24 13q20 0 27.5 -8t10.5 -17t5.5 -17t14.5 -8q8 0 14.5 4.5t12 10.5l11 12t12.5 9
q4 2 15.5 4t24.5 4t25 3.5t17 1.5q20 0 41 -9t38.5 -24t29 -34.5t11.5 -40.5z" />
    <glyph glyph-name="o" unicode="o" 
d="M269 -11q-20 0 -40.5 1t-40.5 4q-30 4 -57.5 17t-49 33.5t-34.5 47.5t-13 59q0 5 2.5 19t6.5 29.5t7.5 29t6.5 17.5q8 12 17.5 17.5t18.5 15.5q8 8 13 17t15 17q15 10 36.5 18.5t45 14.5t47 9.5t41.5 3.5q40 0 72.5 -13.5t55 -37.5t35 -57.5t12.5 -72.5q0 -21 -8.5 -42
t-22 -40.5t-30 -37t-31.5 -30.5q-7 -6 -21 -13t-29.5 -12.5t-30.5 -9.5t-24 -4zM362 200q0 24 -8.5 46.5t-24 40t-37 27.5t-46.5 10q-10 0 -18 -6t-17 -9q-8 -3 -16.5 -4t-15.5 -6t-10.5 -12.5t-8.5 -13.5t-10.5 -10.5t-8.5 -11.5q-2 -4 -3.5 -17.5t-3 -29t-2 -30
t-0.5 -20.5q0 -11 1 -23t6 -23q2 -6 6.5 -10.5t6.5 -9.5q6 -14 8.5 -21t16.5 -15q5 -4 11.5 -5.5t12.5 -4.5q13 -5 25 -13.5t26 -8.5q17 0 36.5 6.5t33.5 17.5q11 8 12 16.5t6 19.5q3 6 7 11.5t6 12.5q1 4 3 17.5t3 29t2 29.5t1 20z" />
    <glyph glyph-name="p" unicode="p" 
d="M262 -11q-1 0 -7 2t-13 5t-13 5.5t-7 3.5q-5 3 -8 10t-9 7t-8.5 -5t-2.5 -10l4 -50l-3 -47q0 -10 3 -20q10 -9 22 -13t23.5 -7.5t22 -9.5t18.5 -18q0 -9 -8 -12.5t-16 -3.5l-69 5l-85 -4l-48 5q-7 0 -11 6t-4 13q0 4 3 6.5t5 4.5q9 8 20.5 8t22 2t17.5 11.5t7 37.5l-5 68
l5 76l-6 76l6 91v9t-1 9q-1 4 -5 10t-9.5 11.5t-11.5 9.5t-10 4l-25 -2q-7 0 -13.5 5t-6.5 13q0 4 1.5 10.5t4.5 8.5q5 4 15.5 6t22.5 3.5t23 2.5t19 4q5 2 12.5 5.5t15 7.5t14.5 6.5t12 2.5t9.5 -5.5t4.5 -10.5l-4 -24q0 -7 8 -12q12 5 22 13.5t21 13.5q20 9 42 16.5
t44 7.5q29 0 49 -14.5t39 -34.5q5 -6 12.5 -12.5t11.5 -13.5q4 -8 7.5 -22t5.5 -30t3.5 -31t1.5 -24q0 -11 -1.5 -19t-4 -15t-6.5 -14t-8 -17q-11 -26 -19.5 -43t-31.5 -36q-14 -11 -21.5 -16.5t-14 -8t-16 -4t-25.5 -4.5q-11 -2 -21.5 -5.5t-21.5 -3.5zM200 135
q0 -8 -0.5 -16.5t-1.5 -16.5l-1 -1q2 -16 7.5 -23t16.5 -18q17 -18 35 -22.5t42 -4.5q14 0 16 5.5t10 11.5q18 14 26.5 24t8.5 35v-6q-3 26 -3.5 52t-0.5 52q0 10 -5.5 23t-14.5 25t-20 20.5t-21 8.5l-40 -6q-8 0 -11.5 -0.5t-5 -2t-3.5 -4t-8 -5.5l-7 -4q-14 -8 -19 -14.5
t-5 -28.5z" />
    <glyph glyph-name="q" unicode="q" 
d="M216 358q9 0 24 -2.5t31 -7t30 -9.5t21 -11q6 -5 10 -12t13 -7q7 0 13 6.5t12 14.5t12 14.5t15 6.5q6 0 11 -5t5 -11q0 -9 -4 -17t-6 -16q-2 -9 -2.5 -18.5t-0.5 -18.5v-29l-9 -87q3 -11 4 -33.5t1 -48.5q0 -17 -0.5 -33.5t-0.5 -29.5q-1 -15 -1 -29q0 -8 0.5 -21.5
t2 -27.5t3.5 -26.5t5 -18.5q4 -9 15.5 -13.5t23.5 -8t21.5 -8t9.5 -13.5q0 -13 -10.5 -16t-20.5 -3l-58 11l-39 -7l-44 3q-6 0 -12.5 -0.5t-12.5 -1.5q-10 3 -13.5 2t-6.5 12q3 10 13 16t21 10.5t19.5 10.5t8.5 17l-2 38v86q0 2 -0.5 5t-3.5 5q-6 -2 -6.5 -5.5t-5.5 -7.5
q-5 -5 -11.5 -5t-12.5 -2q-7 -2 -12.5 -6t-13.5 -6q-3 -1 -6.5 -1h-6.5l-26 1l-39 -6q-11 0 -20 5l-18 10q-8 4 -15.5 7.5t-15.5 8.5q-2 1 -8.5 8t-13.5 15t-13 15t-7 9q-3 8 -7.5 25.5t-8.5 37t-6.5 37.5t-2.5 27q0 20 11 36.5t19 34.5q20 42 61 68t87 26zM243 53l38 -3
q10 0 21.5 12t11.5 21v-3q-1 5 -1 9.5v9.5v9.5t1 9.5q-2 32 -3 58q-1 22 -1.5 41.5t-0.5 23.5q0 11 -9.5 23.5t-23 22.5t-28.5 16.5t-25 6.5q-20 0 -33 -2.5t-23.5 -8.5t-19 -16.5t-18.5 -27.5q-19 -32 -19 -67q0 -29 16 -52.5t34 -43.5q9 -11 18 -23t24 -16q4 -1 7 -1.5
t7 -0.5z" />
    <glyph glyph-name="r" unicode="r" horiz-adv-x="389" 
d="M361 282l2 -15q0 -4 -6.5 -9.5t-15.5 -10.5t-17.5 -8.5t-11.5 -3.5q-11 0 -18.5 5.5t-13.5 12.5t-12.5 12.5t-15.5 5.5q-6 0 -10.5 -6t-9.5 -10q-9 -6 -16.5 -8.5t-13 -6t-9 -10t-3.5 -21.5q0 -8 2 -16t2 -17l-5 -54q0 -8 1.5 -20.5t5 -25t9.5 -22t16 -12.5
q10 -2 20 -4.5t20 -5.5l5 -7.5t3 -8.5q0 -9 -9.5 -13.5t-17.5 -4.5l-60 6l-86 -6q-7 0 -16.5 0.5t-18.5 2.5t-15 7.5t-6 14.5q0 7 4.5 12t11.5 5l24 -4q4 0 9.5 3.5t10 9t8 11t3.5 9.5l-7 42l4 36l-4 74l5 33q0 11 -9.5 21t-18.5 15q-6 3 -12 3l-19 -2q-8 0 -15.5 6t-7.5 15
q0 14 11.5 17.5t25.5 3.5q6 0 11.5 -0.5t9.5 -0.5q12 0 22.5 4t19.5 8.5t17.5 8.5t15.5 4q12 0 21.5 -8.5t9.5 -20.5l-4 -26q0 -3 3 -12t7 -9q1 0 13.5 11.5t29 26t32.5 26t25 11.5t20.5 -4t22 -11t18 -16.5t7.5 -19.5z" />
    <glyph glyph-name="s" unicode="s" horiz-adv-x="445" 
d="M371 339v-33q0 -14 -1 -28t-3 -28q-5 -5 -12 -5q-5 0 -9 3q-6 4 -7.5 11t-5.5 12q-1 1 -7 5.5t-13 9.5t-13 9.5t-7 4.5q-4 1 -13 3t-19 3.5t-19.5 2.5t-14.5 1q-12 0 -26.5 -2.5t-26.5 -8.5t-20 -16.5t-8 -25.5q8 -17 29.5 -22.5t38.5 -5.5l53 3q12 0 21 -2t16.5 -6
t15 -9t17.5 -11l4 -3q15 -9 25 -15.5t16 -15t9 -20.5t3 -31q0 -10 -6.5 -23t-11.5 -22q-4 -9 -7.5 -18.5t-11.5 -16.5q-2 -2 -7.5 -6t-12 -9t-12 -9t-6.5 -4q-27 -9 -64 -12t-66 -3q-20 0 -37.5 8.5t-36.5 8.5q-6 0 -10.5 -4t-8 -9.5t-7.5 -9.5t-10 -4q-8 0 -10.5 6.5
t-2.5 13.5l-1 16q-1 10 -1 18t-2 18q-2 18 -6.5 36t-4.5 36q0 5 3 11.5t10 6.5q6 0 11.5 -8t11 -18.5t10.5 -21t10 -15.5q16 -16 26 -21t28 -11l7 -2q7 -2 13 -6.5t14 -6.5q5 -1 8.5 -1.5t8.5 -0.5l23 1l31 -2q10 0 21.5 8t21.5 20t17 24.5t7 21.5q0 4 -5.5 9t-12.5 10.5
t-14 9t-10 4.5t-8 1l-17 -1l-44 7l-14 -3l-31 6h-24q-7 0 -12 4t-11 6q-17 7 -27 13t-15.5 14.5t-7.5 21t-2 30.5t10 37.5t25 36t34 27t37 10.5l31 -3l42 4l52 -10q6 0 11 3t10 6.5t10.5 6.5t14.5 3q6 0 12 -1.5t6 -9.5z" />
    <glyph glyph-name="t" unicode="t" horiz-adv-x="333" 
d="M198 281q-3 -1 -5 -3q-5 -3 -5 -9v-1q2 -26 4 -52.5t3 -52.5l-2 -30q-1 -12 -1 -22.5v-12.5v-1q0 -18 17 -34t35 -16q9 0 14 5t9.5 10.5t9.5 10.5t13 5q6 0 10 -6t4 -11l-1 -8q-9 -14 -17 -21t-15.5 -12t-15.5 -9t-17 -11q-6 -6 -10 -8q-5 -2 -9 -2t-9 -1q-3 -1 -6 -2.5
t-7 -1.5q-10 0 -19.5 3.5t-20.5 3.5q-8 0 -17 14.5t-16 33t-11.5 36.5t-4.5 24l5 51l-7 73l5 40q0 14 -9.5 18t-22.5 4q-11 0 -21.5 -1.5t-17.5 -1.5t-11.5 8t-4.5 14t5 10t12 7t14 4.5t12 3.5q10 4 16.5 9.5t11 12.5l9 14t11.5 13q5 4 10 6t7 8q4 10 8.5 19.5t7.5 19.5
q1 5 2 13.5t3 16t6 13t12 5.5t14 -5.5t6 -13.5q0 -9 -4.5 -16.5t-4.5 -12.5q0 -11 5 -21.5t5 -22.5l-3 -38q0 -5 3 -10t9 -5l93 5q5 0 12 -2.5t7 -8.5q0 -3 -2 -8.5t-5 -12.5t-6 -13t-4 -9z" />
    <glyph glyph-name="u" unicode="u" horiz-adv-x="556" 
d="M179 282q-1 -29 -2 -53q-1 -21 -1 -40v-27q0 -18 1.5 -38.5t8 -37.5t20 -28.5t37.5 -11.5t38 3.5t36 11.5q15 6 25.5 11t16.5 12.5t8.5 19t2.5 28.5l-5 74l3 49q0 20 -8 31t-29 11l-33 -6q-10 0 -15.5 9t-5.5 18q0 10 11.5 13t19.5 3l32 -3l73 8q18 0 28.5 -18.5
t10.5 -33.5l-8 -47l5 -58l-6 -35l3 -29q0 -9 0.5 -20t3.5 -20.5t9.5 -16.5t18.5 -7q8 0 14 5t15 5q6 0 10.5 -5t6.5 -11l-1 -5q-6 -10 -14.5 -10.5t-17.5 -4.5q-11 -5 -19 -14t-20 -11q-8 -2 -22 -8t-20 -6q-21 0 -26 8.5t-6 19t-2 19t-13 8.5q-6 0 -10.5 -2.5t-9.5 -5.5
l-1 -1q-6 -4 -23.5 -12t-37 -16.5t-37 -14.5t-23.5 -6l-47 3q-17 0 -31 11.5t-24.5 28t-16 35t-5.5 32.5l3 40l-5 49l8 36q0 3 -2.5 13.5t-6.5 22t-7.5 21.5t-5.5 12q-3 3 -6.5 5t-7.5 4q-6 10 -13 10q-2 0 -5 -0.5t-7 -0.5q-7 0 -12.5 5t-5.5 12q0 9 7.5 13t15.5 4l80 -7
l23 5q20 0 24.5 -13t4.5 -28v-17z" />
    <glyph glyph-name="v" unicode="v" 
d="M81 342l59 4l45 -5l19 2q10 0 17.5 -7t7.5 -17q0 -6 -5 -10t-10 -4l-18 2q-5 0 -9 -4t-4 -9q0 -2 6 -18t14 -35t14.5 -36t8.5 -20q5 -8 11 -14t10 -14q5 -10 4.5 -19t7.5 -17q4 -4 7 -4q8 0 11 8t6 13q2 3 5 5.5t5 4.5t8.5 13t14 24t13.5 25t7 15q2 6 3.5 12.5t3.5 12.5
q3 8 8 12.5t5 14.5q0 9 -11.5 13.5t-25.5 8t-25.5 9.5t-11.5 19q0 8 5 11.5t13 3.5l75 -9l71 4q4 0 10 -0.5t12 -2t10.5 -4.5t4.5 -8q0 -15 -6.5 -20.5t-16.5 -7.5t-20.5 -3t-18.5 -7q-9 -8 -13.5 -17.5t-8.5 -20l-8 -21t-12 -18.5q-3 -3 -6.5 -5.5t-6.5 -6.5
q-3 -5 -4.5 -10.5t-3.5 -10.5q-4 -11 -12 -18.5t-14 -16.5q-9 -14 -15 -30.5t-17 -30.5q-4 -6 -8.5 -11t-9.5 -11q-3 -5 -8 -16.5t-10.5 -22.5t-12.5 -19.5t-14 -8.5q-9 0 -16.5 10.5t-13 25t-10 28.5t-8.5 21q-5 10 -12 18.5t-12 18.5q-10 20 -16.5 41.5t-14.5 42.5
q-5 14 -13.5 26.5t-14.5 26.5q-3 7 -6 18t-7.5 21t-11 17t-16.5 7q-4 0 -7.5 -1t-8.5 -1q-14 0 -19 8t-5 21q0 7 8 8.5t13 1.5z" />
    <glyph glyph-name="w" unicode="w" horiz-adv-x="722" 
d="M471 -9q-1 -1 -5 -1q-10 0 -14 4.5t-5.5 11t-2 14t-2.5 13.5q-4 11 -12 17.5t-13 16.5l-2 4q-5 10 -10.5 19.5t-9.5 20.5q-3 8 -4 16.5t-5 16.5t-10.5 17t-15.5 9q-8 0 -13.5 -5.5t-9.5 -13t-7 -16t-6 -13.5l-13 -16q-5 -7 -7.5 -14.5t-6.5 -15.5l-16 -25q-5 -9 -8 -18.5
t-10 -17.5q-4 -5 -7 -7.5t-6 -8.5l-2 -2q-3 -3 -3 -4q-1 -1 -8 -3q-3 -1 -6 -1q-2 0 -4 1l-4 2q-7 5 -7.5 12.5t-3.5 14.5q-5 11 -11 19.5t-11 18.5q-6 11 -10 22l-8 18t-6 14q-15 31 -35 59.5t-32 60.5q-6 17 -11 32.5t-22 26.5q-5 3 -12 4.5t-13.5 4t-11.5 6t-5 11.5
q0 16 10 20t23 4l49 -3l76 4q8 0 15 -6.5t8 -14.5v-1q0 -8 -6.5 -10t-14 -3t-13.5 -3t-6 -9q0 -3 8.5 -21.5t19 -41t20.5 -42.5t13 -25q5 -10 13.5 -17.5t12.5 -18.5q2 -5 2.5 -9.5t2.5 -9.5q4 -8 11 -8q4 2 9.5 10t10.5 18t10 19.5t8 14.5q4 6 10.5 11.5t12.5 11t10.5 11.5
t4.5 14v10q0 14 -10 22t-17 19q-8 12 -13.5 23t-19.5 17q-6 2 -9 2l-13 -1q-7 0 -12 4.5t-5 11.5q0 21 22 21l32 -6l45 10l56 -6l57 5q8 0 14 -6t6 -14q0 -10 -10.5 -12t-22.5 -3t-22.5 -5t-10.5 -19q0 -5 7 -15t16 -21.5t17.5 -22.5t11.5 -16q5 -8 7 -16t3.5 -17t3.5 -17.5
t7 -15.5q5 -6 11 -15t15 -9q10 0 14 13t8 21l57 105q2 5 4 9t2 9q0 12 -9 17t-20 8t-20 6.5t-9 13.5q0 13 10 19t21 6h3l65 -3l38 6q8 0 19 -6t11 -15q0 -13 -7 -15.5t-17 -4t-21.5 -7.5t-19.5 -25q-10 -24 -23 -45.5t-27 -43t-27 -43.5t-23 -45q-5 -11 -6.5 -22.5
t-11.5 -19.5q-9 -8 -14 -14.5t-8 -13l-6 -13t-9 -13.5q-4 -4 -4.5 -5t-2.5 -3l-1 -1z" />
    <glyph glyph-name="x" unicode="x" 
d="M162 336q11 0 21.5 2.5t21.5 2.5q8 0 12.5 -5.5t4.5 -12.5q0 -10 -2 -13t-6 -3q-2 0 -4 0.5t-4 0.5q-7 0 -9 -6q0 -7 7.5 -18.5t17.5 -23t20.5 -20t17.5 -8.5q14 0 18.5 12.5t10.5 21.5q5 6 14.5 12.5t9.5 14.5t-6.5 9.5t-14.5 1.5t-14.5 2.5t-6.5 11.5q0 8 6.5 12.5
t15.5 6.5t18.5 2.5t15.5 0.5l36 -3l58 4q6 0 14.5 -2t8.5 -10q0 -5 -3 -9.5t-7 -7.5q-8 -6 -18.5 -4.5t-19.5 -3.5q-6 -4 -9.5 -10t-10.5 -9q-5 -2 -9.5 -2.5t-9.5 -2.5q-6 -2 -18 -14.5t-24 -28t-21 -30t-9 -20.5t6 -11.5t14 -10.5l16 -10t12 -11l16 -28q8 -10 18 -16.5
t18 -15.5q6 -7 10 -14.5t9 -13.5t11 -11t17 -7q5 -1 13 -2.5t16 -4t13.5 -7t5.5 -11.5q0 -9 -6.5 -14t-14.5 -5q-11 0 -20 4t-19 4l-35 -6q-11 0 -22.5 3t-23.5 3l-34 -7q-10 0 -18 4t-19 4q-7 0 -10 5.5t-3 11.5q0 9 4.5 12t10.5 3l14 -1q5 0 9 4t4 9t-4.5 11t-10.5 11.5
l-12 11t-9 9.5q-5 6 -8 13.5t-10 12.5q-5 3 -9.5 5.5t-10.5 2.5q-10 0 -12.5 -5t-8.5 -10q-5 -4 -11 -5t-10 -6q-2 -3 -2.5 -6.5t-2.5 -6.5q-4 -10 -12.5 -17t-8.5 -19q0 -9 8.5 -11.5t19 -4t19.5 -4t9 -11.5q0 -6 -7.5 -9t-17 -4.5t-19 -2t-13.5 -0.5l-36 3l-39 -2
q-3 0 -11 1t-16.5 3t-15 4.5t-6.5 6.5q0 11 12 16q8 3 15.5 3.5t15.5 2.5q10 3 19 8l18 10q15 8 20.5 23.5t16.5 27.5q7 7 15 12t14 13q1 2 5 7.5t8 11.5t7.5 11t3.5 6q0 5 -5 10.5t-11 10t-12.5 9t-9.5 8.5q-17 22 -29.5 41t-36.5 36l-6 5q-15 10 -27.5 16t-30.5 6
q-8 0 -9.5 8.5t-1.5 13.5q0 3 1.5 6t5.5 3l22 -3l41 3z" />
    <glyph glyph-name="y" unicode="y" 
d="M486 320q-2 -14 -5.5 -18t-11.5 -4l-18 1q-4 0 -6.5 -1t-5.5 -3q-6 -4 -9.5 -12t-6.5 -17.5t-5.5 -19t-5.5 -16.5l-20 -29q-5 -11 -7 -23.5t-7 -24.5q-7 -20 -19 -36.5t-20 -35.5q-6 -14 -9 -29t-11 -29q-7 -11 -17 -18t-18 -18q-2 -4 -3.5 -6.5t-3.5 -4.5
q-5 -7 -10 -11.5t-14 -10.5q-8 -6 -12 -15.5t-12 -16.5q-6 -5 -13 -8t-14 -8q-8 -5 -12.5 -12t-12.5 -12q-10 -6 -28.5 -11t-29.5 -5h-3q-18 0 -33 3t-23 22q-2 6 -7 10.5t-5 11.5q0 9 7.5 18t17 16.5t19.5 12.5t16 5q10 0 18.5 -4.5t16.5 -9.5t15.5 -9.5t14.5 -4.5
q10 0 13.5 5.5t9.5 10.5q10 8 17.5 13t12.5 10t8 13.5t3 23.5q0 4 -6 16.5t-13.5 26t-15.5 26t-11 17.5q-8 13 -19 23.5t-20 23.5q-10 14 -17 31l-14 34t-15 32.5t-20 27.5q-3 3 -7 5t-7 4q-5 4 -9 9t-9 8q-4 2 -9.5 3.5t-10.5 3.5t-8.5 5.5t-3.5 9.5q0 9 7.5 13t15.5 4
l65 -5l96 6q8 0 16.5 -6t8.5 -15q0 -10 -8 -13.5t-17 -5t-17 -4.5t-8 -11q0 -3 3.5 -10t8 -15t9.5 -16.5t8 -14.5l2 -4l1 -1l34 -44l13 -27l18 -27q1 -3 3 -8t4.5 -10.5t5.5 -9.5t7 -4q8 0 16.5 17t15.5 38.5t12.5 42t8.5 28.5q1 3 3.5 10t5.5 14.5t5 13.5t2 8
q0 12 -14 19.5t-30.5 13t-30 10.5t-13.5 12q0 11 10 17.5t20 6.5l36 -5l30 1l40 -7l41 6q9 0 18 -4t12 -13z" />
    <glyph glyph-name="z" unicode="z" horiz-adv-x="445" 
d="M145 343l30 3l44 -3l44 3l37 -4l54 4q8 0 16.5 -4.5t8.5 -12.5q0 -6 -4 -14t-10 -16.5t-12 -16t-10 -11.5q-6 -7 -14 -11t-15 -10q-8 -6 -13 -14t-12 -15l-15 -15q-6 -6 -12.5 -12t-9.5 -9q-14 -14 -25 -30t-26 -29q-10 -8 -23 -18t-18 -21q0 -6 6 -8.5t11 -2.5l83 6
l28 -2q11 0 25 3t25 7q14 5 23 15.5t15 21.5t11 19.5t12 8.5q15 0 15 -15q0 -21 -13.5 -36t-24.5 -31q-10 -14 -14.5 -30.5t-19.5 -27.5q-8 -6 -17 -10t-19 -4l-42 10l-67 -4l-60 5h-29.5t-29.5 -2l-36 -13q-8 0 -13.5 7.5t-5.5 15.5t5 16q7 12 20.5 15.5t24.5 11.5
q14 10 26.5 21t24.5 22q11 10 18 21.5t17 21.5q11 11 24.5 19.5t24.5 20.5l25 34q2 3 7.5 6.5t11 7.5t9.5 8t4 7q0 8 -9.5 10.5t-20.5 2.5q-8 0 -15 -0.5t-11 -0.5l-78 7q-11 0 -18 -7.5t-13.5 -16.5t-13.5 -16.5t-16 -7.5h-3q-6 0 -10.5 4t-4.5 10q0 16 8 29.5t13 27.5
q3 9 3.5 18t7.5 17q8 10 20 12t24 2h17z" />
    <glyph glyph-name="braceleft" unicode="{" horiz-adv-x="200" 
d="M32 271q-8 0 -15 1t-7 5v6q0 3 9.5 7.5t21.5 14t23 25t14 40.5l-5 63q-2 12 -3.5 26t-3 27t-2 23t-0.5 12v6l3 9l-1 17q-2 7 -5.5 13t-3.5 14t1 12l-2 25q0 5 1.5 12t2.5 12v18q0 24 8 41t17 28l9 12q2 4 13 7q9 6 19.5 10t19.5 6t14.5 2.5l5.5 0.5q6 0 10 -7t4 -10
q0 -5 -8 -11l-9 -8q-5 -7 -16 -9t-17 -9q-8 -9 -10 -21.5t-2 -26.5v-45q-1 -3 -1 -7q5 -51 15.5 -112.5t10.5 -120.5q0 -21 -5.5 -37t-14.5 -28t-20 -20t-21 -14q0 -2 5 -5.5t9 -5.5q13 -5 21 -17.5t12.5 -29t5.5 -33.5t1 -31q0 -8 -1 -16.5t-3 -17.5q-3 -43 -8.5 -83.5
t-9.5 -75.5q1 -5 1 -8.5v-8.5v-45q0 -14 2 -26.5t9 -21.5q6 -7 17 -9.5t16 -9.5l9 -8q8 -6 8 -11q0 -1 -4 -9t-11 -8q-2 0 -4 0.5t-4 0.5q-1 0 -9.5 2.5t-19.5 6.5t-21 8.5t-13 9.5l-9 12q-10 13 -17.5 31t-6.5 42l1 14q-1 5 -2.5 12t-1.5 12l3 25q-1 4 -1 12t3.5 14t5.5 13
l2 17l-3 9v6q0 2 1 12t2.5 23t3.5 27t4 26l6 63q-3 32 -18.5 48t-30.5 25z" />
    <glyph glyph-name="bar" unicode="|" horiz-adv-x="168" 
d="M108 -194q-14 -17 -30 -17q-8 0 -14 3.5t-8 10.5v70q0 9 -3.5 13t-3.5 10t1 17.5t2 25t2 25.5t1 18q0 49 -2.5 92t-2.5 95v55q0 11 2 18t2 20q0 7 -3 7l-1 111q0 13 1 19.5t2 10t2 6.5t1 10q0 26 -1 47l-2 42t-2 44.5t-1 54.5q0 14 2 29t2 25q0 11 -4 11l7 61q1 8 7 10.5
t12 2.5q9 0 17 -2t17 -4l6 -72q2 0 2 -5t-1.5 -13t-3 -16.5t-3 -16.5t-1.5 -12l7 -107l-7 -29v-60q0 -10 0.5 -19.5t1.5 -19.5q-2 0 -3 -11.5t-1 -28.5q0 -44 0.5 -71.5t1 -44t1.5 -24.5t1.5 -14l1 -12t0.5 -19l-3 -25q0 -5 -2 -7v-156q1 -1 1 -3q0 -5 -1 -8v-39
q0 -9 0.5 -15.5t1.5 -6.5z" />
    <glyph glyph-name="braceright" unicode="}" horiz-adv-x="200" 
d="M168 271q-15 -9 -30.5 -25t-18.5 -48l6 -63q2 -12 4 -26t3.5 -27t2.5 -23t1 -12v-6l-3 -9l2 -17q2 -7 5.5 -13t3.5 -14t-1 -12l3 -25q0 -5 -1.5 -12t-2.5 -12l1 -14q1 -24 -6.5 -42t-17.5 -31l-9 -12q-3 -5 -13 -9.5t-21 -8.5t-19.5 -6.5t-9.5 -2.5q-2 0 -4 -0.5t-4 -0.5
q-7 0 -11 8t-4 9q0 5 8 11l9 8q5 7 16 9.5t17 9.5q7 9 9 21.5t2 26.5v45v8.5t1 8.5q-4 35 -9.5 75.5t-8.5 83.5q-2 9 -3 17.5t-1 16.5q0 14 1 31t5.5 33.5t12 29t21.5 17.5q4 2 9 5.5t5 5.5q-11 6 -21.5 14t-19.5 20t-14.5 28t-5.5 37q0 59 10.5 120.5t15.5 112.5q0 4 -1 7
v45q0 14 -2 26.5t-10 21.5q-6 7 -17 9t-16 9l-9 8q-8 6 -8 11q0 3 4 10t10 7l5.5 -0.5t14.5 -2.5t19.5 -6t19.5 -10q11 -3 13 -7l9 -12q9 -11 17 -28t8 -41v-18q1 -5 2.5 -12t1.5 -12l-2 -25q1 -4 1 -12t-3.5 -14t-5.5 -13l-1 -17l3 -9v-6q0 -2 -0.5 -12t-2 -23t-3 -27
t-3.5 -26l-5 -63q3 -25 14 -40.5t23 -25t21.5 -14t9.5 -7.5v-6q0 -4 -7 -5t-15 -1z" />
    <glyph glyph-name="asciitilde" unicode="~" horiz-adv-x="626" 
d="M476 260q22 0 37 17.5t19 37.5q2 12 4 21.5t19 9.5q14 0 18.5 -9t4.5 -21q0 -28 -8.5 -52.5t-24.5 -43t-39.5 -29.5t-52.5 -11q-43 0 -84.5 13t-79.5 29t-72 29t-61 13q-24 0 -35.5 -10t-16 -23.5t-6.5 -27.5t-8 -21h-19q-22 0 -22 22q0 27 9 52.5t25.5 45t40 31.5
t52.5 12q12 0 28.5 -2.5t34 -6.5t33.5 -9t27 -10l18 -10t20 -7q8 -2 15 -3t14 -4q9 -4 17 -9.5t17 -9.5q3 -1 14 -3.5t24 -4.5t24 -4t14 -2z" />
    <glyph glyph-name="Adieresis" unicode="&#xc4;" horiz-adv-x="667" 
d="M432 881q0 6 6 14t14.5 15t19 11.5t19.5 4.5q32 0 44.5 -18.5t12.5 -47.5q0 -8 -3 -11t-6 -10q-8 -17 -18 -21t-28 -4q-33 0 -47 17.5t-14 49.5zM171 885q0 6 5.5 14t14 15t18.5 11.5t19 4.5q32 0 45.5 -18.5t13.5 -47.5q0 -8 -3 -11t-6 -10q-8 -17 -18 -21t-28 -4
q-33 0 -47 17.5t-14 49.5zM385 653q0 -12 4.5 -23t7.5 -22q3 -9 12 -29.5t19 -44t18.5 -45.5t10.5 -34l12 -49q6 -16 15.5 -30t14.5 -31q17 -58 32 -115.5t38 -114.5q7 -17 10.5 -27t7.5 -17t9 -11.5t16 -11.5q3 -2 8.5 -5t11 -7t10 -9t4.5 -10q0 -14 -14.5 -17t-24.5 -3
q-55 0 -109 1l-108 2q-5 5 -8.5 9.5t-3.5 11.5q0 5 3 8l68 24q10 4 15 12.5t5 18.5q0 20 -10 36t-17 33q-3 7 -5.5 17.5l-5 21t-5.5 20t-7 14.5l-14 22h-198q-14 0 -22.5 -13.5t-13.5 -32t-8 -37t-5 -28.5q-2 -8 -6.5 -20t-4.5 -18q0 -20 12.5 -29.5t27 -16t27 -14.5
t12.5 -26q0 -11 -12 -11l-18 -1l-71 3q-5 0 -12 -1.5t-13 -3.5q-6 3 -14.5 3.5t-16.5 0.5h-20q-5 0 -11 0.5t-11.5 2t-9.5 5t-4 10.5q0 9 13.5 17.5t22.5 16.5q19 16 28 29t13 25.5t6.5 28t8.5 36.5l17 44l6 35q3 17 13.5 31t16.5 30q8 21 14 43t14 44q8 25 19.5 48.5
t19.5 49.5q5 18 8.5 36.5t11.5 35.5q5 11 12 21t11 22q4 11 5.5 21.5t6.5 20.5q8 15 22 23.5t27 18.5q9 7 16 13.5t14.5 11.5t17 8.5t23.5 3.5q3 0 6.5 -1.5t3.5 -5.5q-8 -15 -16.5 -36.5t-8.5 -38.5zM220 310h137q3 0 8.5 0.5t11 2t10 4t4.5 5.5t-4.5 15t-10 26.5t-11 27
t-8.5 16.5l-22 36q-5 12 -7 27t-4 28.5t-7 23t-17 11.5l-6 1q-5 0 -10 -10.5t-9 -24.5t-7.5 -29t-6.5 -25q-20 -63 -42 -126z" />
    <glyph glyph-name="Aring" unicode="&#xc5;" horiz-adv-x="667" 
d="M385 653q0 -12 4.5 -23t7.5 -22q3 -9 12 -29.5t19 -44t18.5 -45.5t10.5 -34l12 -49q6 -16 15.5 -30t14.5 -31q17 -58 32 -115.5t38 -114.5q7 -17 10.5 -27t7.5 -17t9 -11.5t16 -11.5q3 -2 8.5 -5t11 -7t10 -9t4.5 -10q0 -14 -14.5 -17t-24.5 -3q-55 0 -109 1l-108 2
q-5 5 -8.5 9.5t-3.5 11.5q0 5 3 8l68 24q10 4 15 12.5t5 18.5q0 20 -10 36t-17 33q-3 7 -5.5 17.5l-5 21t-5.5 20t-7 14.5l-14 22h-198q-14 0 -22.5 -13.5t-13.5 -32t-8 -37t-5 -28.5q-2 -8 -6.5 -20t-4.5 -18q0 -20 12.5 -29.5t27 -16t27 -14.5t12.5 -26q0 -11 -12 -11
l-18 -1l-71 3q-5 0 -12 -1.5t-13 -3.5q-6 3 -14.5 3.5t-16.5 0.5h-20q-5 0 -11 0.5t-11.5 2t-9.5 5t-4 10.5q0 9 13.5 17.5t22.5 16.5q19 16 28 29t13 25.5t6.5 28t8.5 36.5l17 44l6 35q3 17 13.5 31t16.5 30q8 21 14 43t14 44q8 25 19.5 48.5t19.5 49.5q5 18 8.5 36.5
t11.5 35.5q5 11 12 21t11 22q4 11 5.5 21.5t6.5 20.5q8 15 22 23.5t27 18.5q9 7 16 13.5t14.5 11.5t17 8.5t23.5 3.5q3 0 6.5 -1.5t3.5 -5.5q-8 -15 -16.5 -36.5t-8.5 -38.5zM220 310h137q3 0 8.5 0.5t11 2t10 4t4.5 5.5t-4.5 15t-10 26.5t-11 27t-8.5 16.5l-22 36
q-5 12 -7 27t-4 28.5t-7 23t-17 11.5l-6 1q-5 0 -10 -10.5t-9 -24.5t-7.5 -29t-6.5 -25q-20 -63 -42 -126zM463 899q0 -6 -1.5 -15t-4.5 -19t-6.5 -19.5t-7.5 -15.5q-2 -2 -4.5 -3.5t-4.5 -3.5q-20 -24 -44 -28t-42 -4q-25 0 -43.5 8t-31 22t-19 32.5t-6.5 39.5q0 24 9.5 44
t25 34.5t36 22.5t41.5 8q11 0 17.5 -5t16.5 -8q38 -13 53.5 -38.5t15.5 -51.5zM299 896q0 -24 13 -41.5t45 -17.5q5 0 13.5 3t17 9t15 15.5t6.5 22.5q0 7 -2 17.5t-7.5 20.5t-15 17t-24.5 7h-3q-5 0 -14.5 -1.5t-19 -7t-17 -16t-7.5 -28.5z" />
    <glyph glyph-name="Ccedilla" unicode="&#xc7;" horiz-adv-x="667" 
d="M635 717q-3 -43 -7.5 -85.5t-4.5 -85.5q0 -10 -2.5 -24.5t-16.5 -14.5q-6 0 -14 6q-20 79 -65 122t-129 43q-19 0 -38.5 -7.5t-38 -19t-36 -24t-32.5 -22.5q-6 -12 -11.5 -24.5t-13.5 -23.5q-5 -6 -10 -11t-9 -12q-12 -20 -19.5 -44t-18.5 -46q0 -20 0.5 -38.5
t-1.5 -38.5q-1 -12 -3.5 -23.5t-2.5 -23.5q0 -11 2 -20.5t4 -20.5q2 -15 4 -31.5t6 -32.5t11.5 -30.5t20.5 -25.5q8 -6 15 -12t14 -13q25 -23 36 -34t21 -17t25.5 -9.5t48.5 -10.5q20 -5 39 -9.5t39 -4.5q24 0 51.5 15t45.5 30q14 11 22.5 26.5t14.5 32t10.5 34t10.5 33.5
l4 4q2 0 3.5 0.5t3.5 0.5q3 0 5.5 -0.5t5.5 -1.5l4.5 -4.5t2.5 -5.5q-3 -35 -7.5 -70t-4.5 -70q0 -14 2 -29t4 -29l1 -2q0 -9 -6.5 -15.5t-15.5 -6.5q-10 0 -21.5 9t-19.5 14q-14 -5 -28 -11t-29 -9q-21 -5 -43 -6t-43 -5q-8 -2 -14 -7t-6 -13q0 -6 10.5 -10.5t22.5 -11.5
t22.5 -18t10.5 -30q0 -10 -2.5 -22t-10.5 -20q-11 -4 -21 -9t-19 -13h-13q-22 1 -43.5 -2t-44.5 -3q-7 0 -29 4t-46 10t-42.5 14.5t-18.5 17.5q0 7 6 15t13 8t22.5 -5.5t34 -12.5t37 -12.5t31.5 -5.5q16 0 30 10.5t14 27.5q0 9 -5.5 14t-13 7.5t-16 3.5t-14.5 2l3 11
q9 10 19.5 20t10.5 25v5l-89 11q-17 10 -34 19t-34 19q-9 5 -15.5 12t-14.5 14q-11 11 -23 21t-22 23q-8 11 -13.5 23.5t-13.5 23.5q-16 24 -28.5 54.5t-16.5 59.5q-2 11 -1.5 21t-0.5 21q-2 14 -5 27.5t-3 27.5q0 7 5 31.5t11 52.5t12.5 51t9.5 27q10 11 20.5 22t19.5 23
t13.5 20.5t8.5 15.5t11 14.5t21 18.5q20 16 36.5 23.5t38.5 18.5q13 6 25.5 13t25.5 14q7 4 31 8t51 7.5t52 5.5t35 2q15 0 29 -4t28 -8.5t28 -8.5t28 -4q7 0 13 4t11 8.5t10 8.5t12 4q5 0 10 -3t4 -8z" />
    <glyph glyph-name="Eacute" unicode="&#xc9;" horiz-adv-x="667" 
d="M229 800q-16 0 -16 15q0 11 9 20t17 16q23 19 45 38.5t42 40.5q19 20 41 38t51 18q25 0 41.5 -17.5t16.5 -41.5q0 -20 -9 -33t-23.5 -21.5t-31.5 -13.5t-32 -9q-23 -7 -45 -15t-45 -16q-15 -5 -30 -9t-29 -10h-2zM359 719q29 0 57.5 -2.5t57.5 -2.5q24 0 48 4t48 4
q8 0 17.5 -4.5t9.5 -13.5q0 -7 -1 -13t-2 -13q-1 -8 -1.5 -28.5t-2 -42.5t-6.5 -39t-15 -17q-9 0 -14 7t-8 16t-5 18.5t-6 15.5q-5 6 -10.5 10.5t-9.5 10.5q-5 8 -8 14.5t-6.5 11.5t-9.5 7.5t-18 2.5q-11 0 -23 -2.5t-24 -2.5q-31 0 -61.5 2.5t-62.5 2.5q-16 0 -34 -7
t-18 -26v-103q0 -10 -1 -27.5t1 -34t8.5 -28.5t20.5 -12q13 0 25 4.5t25 4.5q20 0 40.5 -2t40.5 -2q9 0 17.5 2.5t16.5 6.5q18 8 23 17.5t6.5 20t3 20.5t10.5 19l4 4t5 2q5 0 14.5 -4.5t10.5 -10.5q-7 -6 -10 -20t-4 -30.5t-0.5 -32.5t0.5 -26v-18.5t0.5 -30.5t1.5 -29.5
t2 -14.5v11q0 -10 -6 -23t-18 -13q-9 0 -13.5 3.5t-6 9.5t-2.5 12.5t-3 12.5q-3 9 -5 11.5t-3.5 5t-2 6t-0.5 14.5q0 2 -1 3.5t-2 3.5q-1 1 -10 4.5t-20.5 7t-21.5 6.5t-12 3q-1 0 -2 -0.5t-2 -0.5q-4 -4 -8 -7t-10 -3q-7 0 -13.5 2t-13.5 2q-15 0 -30 1t-29 1
q-12 0 -17.5 -10.5t-8 -24.5t-2.5 -28.5v-22.5q0 -11 3.5 -22.5t3.5 -22.5q0 -17 -3.5 -33t-3.5 -32q0 -11 3 -21.5t5 -21.5q1 -6 0.5 -12.5t-0.5 -12.5q0 -13 6 -24t16 -19.5t22 -13.5t24 -5q6 0 12 0.5t12 0.5q14 0 26 -4.5t25 -4.5q8 0 15 3.5t15 4.5q5 0 8.5 -0.5
t7.5 -0.5q5 0 7.5 2t6.5 5q6 5 15.5 5t17.5 4q7 3 12.5 9t10 13t8.5 14t9 13q8 8 17.5 14.5t16.5 15.5q6 7 10 19.5t9 24.5t12.5 21t20.5 9q9 0 14 -7.5t5 -15.5q0 -15 -5 -28.5t-10.5 -27t-10.5 -27t-5 -28.5q0 -11 1.5 -21t1.5 -20q0 -9 -3 -19t-8.5 -19t-13.5 -15t-18 -6
q-8 0 -15 6t-11 6q-3 0 -5 -1t-4 -1q-5 0 -8.5 1.5t-7.5 1.5q-10 0 -19.5 -2t-19.5 -2q-46 0 -91.5 3.5t-91.5 3.5q-11 0 -19.5 -5t-18.5 -5q-13 0 -24.5 3.5t-23.5 3.5q-17 0 -33 -3.5t-33 -3.5q-9 0 -18 3.5t-18 3.5q-5 0 -10 -2t-10 -2q-2 0 -3 0.5t-3 0.5q-5 3 -14.5 8
t-9.5 11q0 5 5 8.5t8 5.5q12 9 27 11.5t29 6t23.5 12t9.5 29.5q0 13 -4 25t-4 25q0 12 2.5 23.5t2.5 23.5q0 20 -6 38t-6 38q0 21 3.5 41.5t3.5 41.5q0 17 -4.5 33.5t-4.5 33.5q0 19 5.5 37t5.5 37q0 26 -5.5 52t-5.5 52q0 10 2.5 19t2.5 19q0 16 -6.5 18.5t-17.5 7.5
q-5 3 -9 7.5t-9 7.5q-8 5 -16 4t-16 -1t-17 7t-9 16q0 21 16.5 25.5t32.5 4.5q49 0 97 -4t97 -4q17 0 35 0.5t35 0.5z" />
    <glyph glyph-name="Ntilde" unicode="&#xd1;" horiz-adv-x="778" 
d="M554 885q22 0 37 17.5t19 37.5q2 14 4.5 22t19.5 8q14 0 18 -9t4 -20q0 -28 -8.5 -52.5t-24.5 -43t-39 -29.5t-52 -11q-43 0 -84 13t-79 28.5t-72 28.5t-63 13q-24 0 -35.5 -10.5t-16 -24t-6.5 -27t-7 -19.5q-5 -1 -10 -1h-10q-21 0 -21 23q0 27 9 52.5t25.5 45t40 31.5
t52.5 12q11 0 28 -2.5t35 -6.5t34 -9t26 -10l18 -10t19 -8q8 -2 15 -3t15 -4q9 -4 16.5 -9t16.5 -9q3 -1 14 -3.5t23.5 -4.5t24 -4t14.5 -2zM675 567q0 -30 -3 -60t-3 -61q0 -25 1 -49.5t1 -49.5q0 -32 -4 -63t-5 -63q-1 -19 0.5 -37t1.5 -36q0 -26 -5 -50.5t-5 -50.5
q0 -11 2 -21t2 -21l-2 -5q-4 -2 -15 -3.5t-16 -1.5q-6 0 -11 5t-9 12t-7.5 14t-6.5 11q-7 10 -16.5 17t-17.5 16q-10 12 -16 25.5t-14 26.5q-12 18 -28 33t-30 32q-22 26 -40.5 55t-40.5 55q-15 18 -32.5 33.5t-30.5 35.5q-5 8 -9.5 17.5t-9.5 17.5q-9 15 -21.5 28t-25 25
t-24.5 24.5t-21 28.5q-1 2 -4 7.5t-6.5 11t-6.5 10t-5 4.5q-9 0 -13 -14t-4 -21q0 -21 3 -41.5t3 -41.5q0 -13 -2 -24.5t-4 -23.5q-2 -11 -1 -22t1 -22q0 -10 -2 -19t-2 -19q0 -13 1 -25t1 -25q0 -11 -1.5 -23t-1.5 -23t2.5 -22t3.5 -22q1 -14 0 -27.5t-1 -27.5
q0 -26 9.5 -34.5t23 -10.5t28 -3.5t23.5 -11.5q4 -5 7.5 -9.5t3.5 -10.5q0 -11 -9.5 -14.5t-17.5 -3.5q-22 0 -42.5 5.5t-42.5 5.5q-12 0 -22.5 -6t-22.5 -6q-7 0 -13 1t-13 1q-14 1 -28.5 -1t-26.5 9l-6.5 6.5t-3.5 8.5t3 8t6 5q8 8 19.5 11t23 5t21.5 5t15 12t4.5 17.5
t-0.5 18.5q0 16 4.5 30.5t4.5 30.5q0 11 -2 22.5t-2 23.5q0 19 2 37t2 37q0 21 -1.5 42t-1.5 42q0 23 4.5 45t4.5 45q0 29 1.5 58.5t1.5 59.5q0 34 -17 51t-38 25t-38 12.5t-17 15.5q0 15 7.5 24.5t23.5 9.5q8 0 16 -1t16 -1q20 0 39 6.5t39 6.5q14 0 19 -6t12 -17
q8 -13 18.5 -24.5t21.5 -22.5q16 -17 27.5 -37.5t25.5 -38.5q7 -8 15 -14.5t16 -14.5q11 -11 19 -23.5t17 -24.5q18 -23 40 -42.5t39 -43.5q8 -11 14.5 -23.5t14.5 -23.5q7 -9 14.5 -17t14.5 -17q5 -8 10 -15t11 -15q9 -11 20.5 -20t20.5 -20q13 -17 24.5 -34t24.5 -34
q5 0 7 7.5t2.5 17.5t0 19t-0.5 12q0 23 2 45.5t2 45.5q0 26 -1.5 52.5t-1.5 53.5q0 33 4 66t4 66q0 24 -7.5 47.5t-28.5 37.5q-8 5 -16 6t-16 1t-16 2t-15 9q-3 3 -6.5 7t-3.5 9q0 12 9 18t20 6q21 0 41 -3.5t41 -3.5q30 0 60.5 4t60.5 4q10 0 12.5 -7.5t2.5 -15.5
q0 -17 -13.5 -21t-29 -8.5t-29 -16.5t-13.5 -45q0 -12 1 -23.5t1 -23.5z" />
    <glyph glyph-name="Odieresis" unicode="&#xd6;" horiz-adv-x="778" 
d="M751 364q0 -14 -3.5 -28.5t-5.5 -28.5q-2 -23 -5 -45.5t-11 -44.5q-3 -8 -7.5 -15t-7.5 -15t-5.5 -16.5t-7.5 -16.5q-6 -10 -16.5 -15t-16.5 -14q-4 -5 -6 -11t-6 -11q-3 -4 -7 -6.5t-8 -5.5q-7 -5 -12 -12t-11 -13q-12 -11 -25 -17.5t-28 -14.5q-7 -3 -16.5 -13
t-12.5 -11q-7 -2 -11.5 -4t-11.5 -4q-11 -5 -23.5 -4.5t-23.5 -2.5q-10 -2 -18.5 -6t-18.5 -6q-13 -2 -26 -2.5t-26 -0.5q-4 0 -21 3t-36 6.5t-36 7t-21 5.5q-14 5 -25 15t-25 16q-8 3 -15 5t-15 6q-14 8 -25.5 19t-23.5 22q-32 28 -55 66t-34 80q-4 16 -5 32t-3 33
q-2 16 -4.5 31.5t-2.5 31.5q0 41 11 79.5t29.5 73.5t42.5 67.5t51 61.5q23 26 52 37t60 24q16 7 30.5 15t31.5 10q23 3 47.5 4t47.5 1q19 0 32.5 -2.5t24.5 -7t23 -9.5t29 -11q14 -5 27.5 -7.5t26.5 -8.5q22 -10 33.5 -22.5t26.5 -29.5q11 -13 23.5 -24t22.5 -25
q27 -39 35 -79.5t12 -86.5q1 -14 3 -27.5t2 -27.5zM148 387q0 -12 2.5 -24.5t2.5 -24.5q0 -11 -1 -21t-1 -21q0 -53 19.5 -99t53.5 -80.5t80.5 -54.5t99.5 -20q5 0 19.5 3.5t31 8t31 9t19.5 6.5q14 7 21 17.5t17 21.5q11 11 23 19t19 22q6 12 6.5 24.5t2.5 25.5
q5 21 14.5 40.5t12.5 41.5q2 14 2.5 27.5t0.5 27.5q0 33 2.5 66t2.5 67q0 12 -4.5 26t-11.5 28t-15 27t-15 22q-33 44 -72.5 73.5t-97.5 29.5h-8q-24 0 -48.5 -1.5t-47.5 -11.5q-16 -7 -28 -18t-25 -22q-11 -8 -21.5 -16t-18.5 -19q-7 -9 -11.5 -19t-11.5 -19q-4 -5 -8 -9
t-7 -9q-8 -11 -13.5 -30t-9 -39.5t-5.5 -40.5t-2 -34zM478 874q0 6 6 14t14.5 15t19 11.5t19.5 4.5q32 0 44.5 -18.5t12.5 -47.5q0 -8 -3 -11t-6 -10q-8 -17 -18 -21t-28 -4q-33 0 -47 17.5t-14 49.5zM217 878q0 6 5.5 14t14 15t18.5 11.5t19 4.5q32 0 45.5 -18.5
t13.5 -47.5q0 -8 -3 -11t-6 -10q-8 -17 -18 -21t-28 -4q-33 0 -47 17.5t-14 49.5z" />
    <glyph glyph-name="Udieresis" unicode="&#xdc;" horiz-adv-x="722" 
d="M630 717q13 0 25 1.5t25 1.5q9 0 16 -5.5t7 -15.5q0 -12 -11.5 -13t-19.5 -1q-23 0 -39 -20.5t-16 -42.5q0 -8 1.5 -16.5t1.5 -16.5q0 -9 -3.5 -17t-3.5 -17t2 -17.5t2 -17.5q0 -23 -2 -45.5t-2 -45.5q0 -21 0.5 -42t0.5 -42q0 -15 -1.5 -30t-1.5 -30q0 -12 0.5 -24.5
t0.5 -24.5q0 -8 -1.5 -26t-4 -37.5t-6 -36t-7.5 -22.5q-3 -5 -7 -8.5t-7 -8.5t-5 -10t-5 -10q-6 -9 -15.5 -14.5t-17.5 -11.5q-11 -8 -17.5 -19.5t-16.5 -20.5q-2 -2 -14.5 -6t-28 -8.5t-29.5 -8t-18 -3.5q-15 -2 -30 -1.5t-30 0.5q-8 0 -17 -1t-17 -1q-26 0 -41.5 8
t-37.5 20q-8 5 -16.5 7.5t-16.5 7.5q-6 4 -10.5 9t-9.5 10q-19 20 -29 35t-14.5 29.5t-7 32t-6.5 43.5q-3 19 -6.5 37t-3.5 37q0 28 5 55t5 55q0 19 -4 37t-4 37q0 16 2 31t2 31q0 18 -2.5 36t-2.5 36q0 11 2 21t2 21q0 17 -15.5 33t-30.5 21q-6 2 -15.5 3.5t-18 4.5t-15 8
t-6.5 14q0 7 8.5 12.5t14.5 5.5q26 0 51 -3.5t51 -3.5q20 0 40 3t40 3q9 0 18.5 -2t18.5 -2q8 0 15.5 1.5t15.5 1.5q5 0 16 -2t11 -10q0 -17 -7.5 -22.5t-23.5 -5.5q-22 0 -40 -16.5t-18 -39.5q0 -8 2 -16t2 -16q0 -9 -3.5 -17t-3.5 -16q0 -13 3.5 -24.5t3.5 -23.5
q0 -23 -3 -45.5t-3 -45.5q0 -27 2.5 -54t3.5 -54q1 -19 -0.5 -38t-1.5 -38q0 -6 1.5 -23t3.5 -36t5 -34.5t5 -19.5q2 -5 6 -8t7 -7q9 -11 14.5 -24t18.5 -21q20 -13 43.5 -18t46.5 -5q25 0 47.5 8.5t44.5 19.5q11 5 14.5 15.5t9.5 19.5q8 11 18 20.5t15 23.5
q14 36 16.5 65.5t2.5 67.5q0 32 4 63t4 63q0 33 -5 65t-5 65q0 18 1.5 36t6.5 36q0 1 0.5 2t0.5 2q0 18 -11.5 32t-25.5 24q-9 6 -18.5 7t-19 1t-18.5 2t-16 10q-4 5 -8 9.5t-4 11.5q0 8 6 10.5t12 2.5q43 0 85.5 -1.5t85.5 -1.5zM444 871q0 6 6 14t14.5 15t19 11.5
t19.5 4.5q32 0 44.5 -18.5t12.5 -47.5q0 -8 -3 -11t-6 -10q-8 -17 -18 -21t-28 -4q-33 0 -47 17.5t-14 49.5zM183 875q0 6 5.5 14t14 15t18.5 11.5t19 4.5q32 0 45.5 -18.5t13.5 -47.5q0 -8 -3 -11t-6 -10q-8 -17 -18 -21t-28 -4q-33 0 -47 17.5t-14 49.5z" />
    <glyph glyph-name="aacute" unicode="&#xe1;" 
d="M386 258q0 -30 -3 -60.5t-3 -60.5q0 -8 0.5 -22.5t3.5 -28.5t9.5 -24.5t18.5 -10.5q2 0 3 0.5t3 0.5l22 17h7q8 -1 17 2q12 -5 12 -19q0 -2 -0.5 -2.5t-0.5 -2.5q-11 -10 -22 -18.5t-22 -17.5l-26 -7q-5 -6 -10.5 -10.5t-14.5 -4.5q-17 0 -27.5 3t-18 8.5t-15 13.5
t-18.5 19q-3 0 -9.5 -4t-13 -8.5t-13 -9.5t-9.5 -7q-8 -6 -22 -9t-29.5 -4.5t-30.5 -2t-25 -1.5q-5 4 -16.5 5.5t-18.5 2.5q-8 5 -16.5 8.5t-16.5 8.5q-8 4 -14 13.5t-10 21t-6 23t-2 20.5q0 31 23.5 48t56 25t67 10.5t55.5 3.5q28 1 35 11.5t7 37.5q0 26 -2 36t-7 15
t-14.5 9.5t-24.5 19.5h-5q-9 0 -18.5 1t-18.5 1q-14 0 -23.5 -11t-17 -24.5t-14.5 -26t-14 -16.5q-15 -8 -30 -12q-16 5 -28.5 10.5t-12.5 25.5q0 18 4.5 27.5t13 15t19.5 9.5t24 12q15 9 22 15.5t13 11t15 6.5t28 2h48.5t47 -4.5t41 -17t31.5 -37.5q2 -5 9 -18.5t7 -17.5z
M134 437q0 6 3 11t8 10q27 26 49.5 54.5t46.5 57.5q14 16 24.5 24.5t33.5 8.5q20 0 35 -11t15 -33q0 -21 -12 -36t-29.5 -26t-37 -19t-35.5 -14l-19 -9.5t-27 -14t-26 -13t-16 -5.5q-7 0 -10 4.5t-3 10.5zM197 126q-11 0 -22 -1t-20 -5t-14.5 -12t-5.5 -21q0 -28 20.5 -38.5
t44.5 -10.5q10 0 27.5 2.5t34 8t28.5 15t12 23.5q0 7 -1 16.5t-4.5 17.5t-9.5 13.5t-16 5.5q-12 0 -23.5 -4.5t-22.5 -9.5h-28z" />
    <glyph glyph-name="agrave" unicode="&#xe0;" 
d="M386 258q0 -30 -3 -60.5t-3 -60.5q0 -8 0.5 -22.5t3.5 -28.5t9.5 -24.5t18.5 -10.5q2 0 3 0.5t3 0.5l22 17h7q8 -1 17 2q12 -5 12 -19q0 -2 -0.5 -2.5t-0.5 -2.5q-11 -10 -22 -18.5t-22 -17.5l-26 -7q-5 -6 -10.5 -10.5t-14.5 -4.5q-17 0 -27.5 3t-18 8.5t-15 13.5
t-18.5 19q-3 0 -9.5 -4t-13 -8.5t-13 -9.5t-9.5 -7q-8 -6 -22 -9t-29.5 -4.5t-30.5 -2t-25 -1.5q-5 4 -16.5 5.5t-18.5 2.5q-8 5 -16.5 8.5t-16.5 8.5q-8 4 -14 13.5t-10 21t-6 23t-2 20.5q0 31 23.5 48t56 25t67 10.5t55.5 3.5q28 1 35 11.5t7 37.5q0 26 -2 36t-7 15
t-14.5 9.5t-24.5 19.5h-5q-9 0 -18.5 1t-18.5 1q-14 0 -23.5 -11t-17 -24.5t-14.5 -26t-14 -16.5q-15 -8 -30 -12q-16 5 -28.5 10.5t-12.5 25.5q0 18 4.5 27.5t13 15t19.5 9.5t24 12q15 9 22 15.5t13 11t15 6.5t28 2h48.5t47 -4.5t41 -17t31.5 -37.5q2 -5 9 -18.5t7 -17.5z
M173 590q23 0 33.5 -8.5t24.5 -24.5q24 -29 46.5 -57.5t48.5 -54.5q5 -5 8.5 -9.5t3.5 -11.5q0 -6 -4 -10.5t-10 -4.5q-2 0 -14 6l-27 13.5t-28.5 14t-18.5 8.5q-16 7 -35.5 14.5t-37 18.5t-29 26.5t-11.5 36.5q0 22 15 32.5t35 10.5zM197 126q-11 0 -22 -1t-20 -5
t-14.5 -12t-5.5 -21q0 -28 20.5 -38.5t44.5 -10.5q10 0 27.5 2.5t34 8t28.5 15t12 23.5q0 7 -1 16.5t-4.5 17.5t-9.5 13.5t-16 5.5q-12 0 -23.5 -4.5t-22.5 -9.5h-28z" />
    <glyph glyph-name="acircumflex" unicode="&#xe2;" 
d="M386 258q0 -30 -3 -60.5t-3 -60.5q0 -8 0.5 -22.5t3.5 -28.5t9.5 -24.5t18.5 -10.5q2 0 3 0.5t3 0.5l22 17h7q8 -1 17 2q12 -5 12 -19q0 -2 -0.5 -2.5t-0.5 -2.5q-11 -10 -22 -18.5t-22 -17.5l-26 -7q-5 -6 -10.5 -10.5t-14.5 -4.5q-17 0 -27.5 3t-18 8.5t-15 13.5
t-18.5 19q-3 0 -9.5 -4t-13 -8.5t-13 -9.5t-9.5 -7q-8 -6 -22 -9t-29.5 -4.5t-30.5 -2t-25 -1.5q-5 4 -16.5 5.5t-18.5 2.5q-8 5 -16.5 8.5t-16.5 8.5q-8 4 -14 13.5t-10 21t-6 23t-2 20.5q0 31 23.5 48t56 25t67 10.5t55.5 3.5q28 1 35 11.5t7 37.5q0 26 -2 36t-7 15
t-14.5 9.5t-24.5 19.5h-5q-9 0 -18.5 1t-18.5 1q-14 0 -23.5 -11t-17 -24.5t-14.5 -26t-14 -16.5q-15 -8 -30 -12q-16 5 -28.5 10.5t-12.5 25.5q0 18 4.5 27.5t13 15t19.5 9.5t24 12q15 9 22 15.5t13 11t15 6.5t28 2h48.5t47 -4.5t41 -17t31.5 -37.5q2 -5 9 -18.5t7 -17.5z
M233 469q-8 0 -14 -6l-11 -11t-13 -8t-14 -7q-16 -8 -29.5 -18.5t-27.5 -22.5q-5 -5 -10.5 -8.5t-12.5 -3.5q-8 0 -13.5 6.5t-5.5 14.5q0 3 9 15t22.5 28.5t30 36t31.5 36.5t27 29.5t16 16.5q6 2 10 2q8 0 16 -1.5t16 -2.5l6 -6t5 -7q5 -8 11.5 -13.5t12.5 -12.5
q20 -20 35.5 -43.5t33.5 -44.5q7 -8 15 -18t8 -21q0 -5 -3.5 -10t-9.5 -5t-25 13.5t-42 29t-44 29t-30 13.5zM197 126q-11 0 -22 -1t-20 -5t-14.5 -12t-5.5 -21q0 -28 20.5 -38.5t44.5 -10.5q10 0 27.5 2.5t34 8t28.5 15t12 23.5q0 7 -1 16.5t-4.5 17.5t-9.5 13.5t-16 5.5
q-12 0 -23.5 -4.5t-22.5 -9.5h-28z" />
    <glyph glyph-name="adieresis" unicode="&#xe4;" 
d="M386 258q0 -30 -3 -60.5t-3 -60.5q0 -8 0.5 -22.5t3.5 -28.5t9.5 -24.5t18.5 -10.5q2 0 3 0.5t3 0.5l22 17h7q8 -1 17 2q12 -5 12 -19q0 -2 -0.5 -2.5t-0.5 -2.5q-11 -10 -22 -18.5t-22 -17.5l-26 -7q-5 -6 -10.5 -10.5t-14.5 -4.5q-17 0 -27.5 3t-18 8.5t-15 13.5
t-18.5 19q-3 0 -9.5 -4t-13 -8.5t-13 -9.5t-9.5 -7q-8 -6 -22 -9t-29.5 -4.5t-30.5 -2t-25 -1.5q-5 4 -16.5 5.5t-18.5 2.5q-8 5 -16.5 8.5t-16.5 8.5q-8 4 -14 13.5t-10 21t-6 23t-2 20.5q0 31 23.5 48t56 25t67 10.5t55.5 3.5q28 1 35 11.5t7 37.5q0 26 -2 36t-7 15
t-14.5 9.5t-24.5 19.5h-5q-9 0 -18.5 1t-18.5 1q-14 0 -23.5 -11t-17 -24.5t-14.5 -26t-14 -16.5q-15 -8 -30 -12q-16 5 -28.5 10.5t-12.5 25.5q0 18 4.5 27.5t13 15t19.5 9.5t24 12q15 9 22 15.5t13 11t15 6.5t28 2h48.5t47 -4.5t41 -17t31.5 -37.5q2 -5 9 -18.5t7 -17.5z
M347 569q10 0 21 -5.5t19.5 -14t14 -19.5t5.5 -21q0 -25 -19.5 -41.5t-43.5 -16.5q-25 0 -38.5 14.5t-13.5 38.5q0 10 4.5 21.5t12 21t17.5 16t21 6.5zM125 565q21 0 35.5 -18t14.5 -38q0 -23 -17 -40.5t-40 -17.5t-38.5 16.5t-15.5 39.5q0 29 17 43.5t44 14.5zM197 126
q-11 0 -22 -1t-20 -5t-14.5 -12t-5.5 -21q0 -28 20.5 -38.5t44.5 -10.5q10 0 27.5 2.5t34 8t28.5 15t12 23.5q0 7 -1 16.5t-4.5 17.5t-9.5 13.5t-16 5.5q-12 0 -23.5 -4.5t-22.5 -9.5h-28z" />
    <glyph glyph-name="atilde" unicode="&#xe3;" 
d="M386 258q0 -30 -3 -60.5t-3 -60.5q0 -8 0.5 -22.5t3.5 -28.5t9.5 -24.5t18.5 -10.5q2 0 3 0.5t3 0.5l22 17h7q8 -1 17 2q12 -5 12 -19q0 -2 -0.5 -2.5t-0.5 -2.5q-11 -10 -22 -18.5t-22 -17.5l-26 -7q-5 -6 -10.5 -10.5t-14.5 -4.5q-17 0 -27.5 3t-18 8.5t-15 13.5
t-18.5 19q-3 0 -9.5 -4t-13 -8.5t-13 -9.5t-9.5 -7q-8 -6 -22 -9t-29.5 -4.5t-30.5 -2t-25 -1.5q-5 4 -16.5 5.5t-18.5 2.5q-8 5 -16.5 8.5t-16.5 8.5q-8 4 -14 13.5t-10 21t-6 23t-2 20.5q0 31 23.5 48t56 25t67 10.5t55.5 3.5q28 1 35 11.5t7 37.5q0 26 -2 36t-7 15
t-14.5 9.5t-24.5 19.5h-5q-9 0 -18.5 1t-18.5 1q-14 0 -23.5 -11t-17 -24.5t-14.5 -26t-14 -16.5q-15 -8 -30 -12q-16 5 -28.5 10.5t-12.5 25.5q0 18 4.5 27.5t13 15t19.5 9.5t24 12q15 9 22 15.5t13 11t15 6.5t28 2h48.5t47 -4.5t41 -17t31.5 -37.5q2 -5 9 -18.5t7 -17.5z
M319 502q25 0 35 11.5t14 25.5t7 25.5t15 11.5q13 0 17 -9.5t4 -20.5q0 -21 -6.5 -41.5t-18.5 -37t-30 -26.5t-41 -10q-27 0 -53.5 11t-50 24t-42.5 24t-31 11q-22 0 -30 -11t-11.5 -24t-7 -24t-15.5 -11q-20 0 -20 22q0 21 5.5 42.5t17 39.5t29 29.5t41.5 11.5
q28 0 54 -11.5t48.5 -25.5t40.5 -25.5t29 -11.5zM197 126q-11 0 -22 -1t-20 -5t-14.5 -12t-5.5 -21q0 -28 20.5 -38.5t44.5 -10.5q10 0 27.5 2.5t34 8t28.5 15t12 23.5q0 7 -1 16.5t-4.5 17.5t-9.5 13.5t-16 5.5q-12 0 -23.5 -4.5t-22.5 -9.5h-28z" />
    <glyph glyph-name="aring" unicode="&#xe5;" 
d="M386 258q0 -30 -3 -60.5t-3 -60.5q0 -8 0.5 -22.5t3.5 -28.5t9.5 -24.5t18.5 -10.5q2 0 3 0.5t3 0.5l22 17h7h5q4 0 12 2q12 -5 12 -19q0 -4 -5.5 -9.5t-12.5 -11t-15 -11t-12 -9.5l-26 -7q-5 -6 -10.5 -10.5t-14.5 -4.5q-17 0 -27.5 3t-18 8.5t-15 13.5t-18.5 19
q-3 0 -9.5 -4t-13 -8.5t-13 -9.5t-9.5 -7q-8 -6 -22 -9t-29.5 -4.5t-30.5 -2t-25 -1.5q-5 4 -16.5 5.5t-18.5 2.5q-8 5 -16.5 8.5t-16.5 8.5q-8 4 -14 13.5t-10 21t-6 23t-2 20.5q0 31 23.5 48t56 25t67 10.5t55.5 3.5q28 1 35 11.5t7 37.5q0 26 -2 36t-7 15t-14.5 9.5
t-24.5 19.5h-5q-9 0 -18.5 1t-18.5 1q-14 0 -23.5 -11t-17 -24.5t-14.5 -26t-14 -16.5q-15 -8 -30 -12q-16 5 -28.5 10.5t-12.5 25.5q0 18 4.5 27.5t13 15t19.5 9.5t24 12q18 11 25 18t15.5 10.5t24 5t51.5 1.5q19 0 38 -1.5t36 -7.5t31.5 -18t24.5 -32q2 -5 9 -18.5
t7 -17.5zM225 126q-11 0 -26 0.5t-29.5 -2t-24.5 -11t-10 -26.5q0 -28 20.5 -38.5t44.5 -10.5q10 0 27.5 2.5t34 8t28.5 15t12 23.5q0 7 -1 16.5t-4.5 17.5t-9.5 13.5t-16 5.5q-12 0 -23.5 -4.5t-22.5 -9.5zM347 547q0 -37 -13 -58.5t-31.5 -32.5t-38 -14t-32.5 -3
q-25 0 -43.5 8t-31 22t-19 32.5t-6.5 39.5q0 24 9.5 44t25 34.5t36 22.5t41.5 8q11 0 17.5 -5t16.5 -8q38 -13 53.5 -38.5t15.5 -51.5zM183 544q0 -24 13 -41.5t45 -17.5q5 0 13.5 3t17 9t15 15.5t6.5 22.5q0 7 -2 17.5t-7.5 20.5t-15 17t-24.5 7h-3q-5 0 -14.5 -1.5t-19 -7
t-17 -16t-7.5 -28.5z" />
    <glyph glyph-name="ccedilla" unicode="&#xe7;" horiz-adv-x="445" 
d="M190 -178q-37 0 -70 9t-65 26q-5 2 -9 5.5t-4 9.5q0 7 6 12t12 5q9 0 21.5 -4.5t26.5 -9.5t29 -9.5t29 -4.5t26.5 7t12.5 23q0 9 -4.5 14.5t-11.5 8.5t-14.5 4.5t-14.5 3.5l-2 4q1 5 7.5 10t14 10.5t13 12t5.5 14.5q0 11 -9 9.5t-15 -1.5q-32 0 -57 15.5t-42 39.5
t-26 53.5t-9 58.5t8 62t31 52q8 6 15.5 11.5t14.5 12.5q8 8 15.5 17t15.5 17q6 6 20.5 11.5t31 9t32.5 6t26 2.5q13 0 36 -2.5t46.5 -8.5t42 -16t23.5 -24q4 -12 7 -25.5t3 -26.5q0 -7 -1.5 -11.5t-6.5 -9.5q-3 -3 -11 -8.5t-16.5 -11t-16.5 -9.5t-12 -4q-9 0 -20.5 7
t-21.5 17.5t-17 22t-7 20.5q0 7 5.5 15.5t5.5 16.5q0 14 -11.5 16t-21.5 2q-14 0 -26 -5t-25 -9q-7 -2 -13.5 -3.5t-13.5 -3.5q-13 -4 -23 -17t-16.5 -29.5t-9.5 -34t-3 -29.5q0 -14 3.5 -31.5t11 -34t18.5 -28.5t27 -14q7 -1 13.5 -1t13.5 -2q13 -3 24.5 -9.5t24.5 -8.5
l1 1q6 0 21 4.5t31 10.5t29.5 12t17.5 11q3 3 5.5 6t6.5 5q4 -2 7.5 -4.5t8.5 -2.5q3 -5 3 -9q0 -13 -7 -19t-15 -14q-5 -5 -8.5 -10t-7.5 -10q-7 -8 -19.5 -15t-27.5 -12.5t-29.5 -9.5t-24.5 -5q-5 -8 -8 -16t-10 -15l24 -10t21.5 -12.5t15 -18t5.5 -26.5q0 -10 -5 -21.5
t-13 -19.5q-11 -4 -18.5 -9.5t-16.5 -13.5h-13q-11 0 -15.5 -0.5t-7.5 -1t-7.5 -1.5t-15.5 -1z" />
    <glyph glyph-name="eacute" unicode="&#xe9;" 
d="M454 268q0 -8 -1.5 -12.5t-4 -7.5t-6 -6t-7.5 -9q-5 -6 -7.5 -11.5t-5.5 -9.5t-8 -6.5t-14 -2.5q-27 0 -54 2t-54 2q-9 0 -18 -2.5t-18 -4.5q-4 1 -13 1h-19.5t-20.5 -0.5t-15 -0.5q-12 0 -23.5 2t-23.5 2q-9 0 -11.5 -11.5t-2.5 -18.5q0 -33 20 -54t48.5 -32.5t61 -16
t57.5 -4.5q23 0 42.5 10t39.5 18q2 3 6.5 8.5t9.5 11t10 10t8 4.5q8 0 13 -6.5t5 -14.5t-9 -25t-14 -24l-9 -3l-5 -9q-10 -6 -18 -14.5t-18 -14.5q-5 -3 -10.5 -5t-10.5 -5q-2 -2 -4 -3.5t-4 -3.5q-12 0 -22.5 -3.5t-21.5 -5.5q-17 -2 -34 -2.5t-34 -0.5q-15 0 -29 4.5
t-29 2.5q-9 6 -20.5 11.5t-22.5 7.5l-5 8l-44 31q-7 5 -13 20.5t-10 34.5t-6.5 36.5t-2.5 26.5q0 13 5 24.5t12 22.5t15.5 21t15.5 20q8 12 16.5 24.5t16.5 24.5q25 15 48 33q20 2 38 9t38 7q27 0 46 -1t35.5 -4.5t34 -10t42.5 -17.5q2 -1 7 -6.5t11 -12.5t10.5 -13.5
t6.5 -9.5q4 -7 4 -15zM169 439q0 7 3.5 11.5t8.5 9.5q27 26 49 54.5t46 57.5q14 16 25 24.5t33 8.5q20 0 35 -10.5t15 -33.5q0 -21 -12 -36t-29 -26t-37 -19l-35 -14q-5 -2 -18.5 -9t-28 -14.5t-27 -13t-14.5 -5.5q-14 0 -14 15zM247 324q-18 0 -29 -2.5t-18.5 -8t-14 -15
t-16.5 -23.5q-3 -4 -10 -14t-7 -15q0 -4 5 -6.5t11.5 -4t13 -2t9.5 -0.5q17 0 34 2t34 2q14 0 28.5 -1t28.5 -1t27.5 3.5t13.5 22.5q0 15 -12.5 26.5t-30.5 20t-36.5 12.5t-30.5 4z" />
    <glyph glyph-name="egrave" unicode="&#xe8;" 
d="M454 268q0 -8 -1.5 -12.5t-4 -7.5t-6 -6t-7.5 -9q-5 -6 -7.5 -11.5t-5.5 -9.5t-8 -6.5t-14 -2.5q-27 0 -54 2t-54 2q-9 0 -18 -2.5t-18 -4.5q-4 1 -13 1h-19.5t-20.5 -0.5t-15 -0.5q-12 0 -23.5 2t-23.5 2q-9 0 -11.5 -11.5t-2.5 -18.5q0 -33 20 -54t48.5 -32.5t61 -16
t57.5 -4.5q23 0 42.5 10t39.5 18q2 3 6.5 8.5t9.5 11t10 10t8 4.5q8 0 13 -6.5t5 -14.5t-9 -25t-14 -24l-9 -3l-5 -9q-10 -6 -18 -14.5t-18 -14.5q-5 -3 -10.5 -5t-10.5 -5q-2 -2 -4 -3.5t-4 -3.5q-12 0 -22.5 -3.5t-21.5 -5.5q-17 -2 -34 -2.5t-34 -0.5q-15 0 -29 4.5
t-29 2.5q-9 6 -20.5 11.5t-22.5 7.5l-5 8l-44 31q-7 5 -13 20.5t-10 34.5t-6.5 36.5t-2.5 26.5q0 13 5 24.5t12 22.5t15.5 21t15.5 20q8 12 16.5 24.5t16.5 24.5q25 15 48 33q20 2 38 9t38 7q27 0 46 -1t35.5 -4.5t34 -10t42.5 -17.5q2 -1 7 -6.5t11 -12.5t10.5 -13.5
t6.5 -9.5q4 -7 4 -15zM208 612q23 0 33.5 -9t24.5 -25q24 -29 46.5 -57.5t49.5 -54.5q5 -5 8 -9.5t3 -11.5q0 -6 -3 -10.5t-10 -4.5q-2 0 -14.5 6t-27.5 13.5t-28.5 14t-18.5 8.5q-16 7 -35.5 14.5t-37 18.5t-29 26.5t-11.5 36.5q0 22 15 33t35 11zM247 324q-18 0 -29 -2.5
t-18.5 -8t-14 -15t-16.5 -23.5q-3 -4 -10 -14t-7 -15q0 -4 5 -6.5t11.5 -4t13 -2t9.5 -0.5q17 0 34 2t34 2q14 0 28.5 -1t28.5 -1t27.5 3.5t13.5 22.5q0 15 -12.5 26.5t-30.5 20t-36.5 12.5t-30.5 4z" />
    <glyph glyph-name="ecircumflex" unicode="&#xea;" 
d="M454 268q0 -8 -1.5 -12.5t-4 -7.5t-6 -6t-7.5 -9q-5 -6 -7.5 -11.5t-5.5 -9.5t-8 -6.5t-14 -2.5q-27 0 -54 2t-54 2q-9 0 -18 -2.5t-18 -4.5q-4 1 -13 1h-19.5t-20.5 -0.5t-15 -0.5q-12 0 -23.5 2t-23.5 2q-9 0 -11.5 -11.5t-2.5 -18.5q0 -33 20 -54t48.5 -32.5t61 -16
t57.5 -4.5q23 0 42.5 10t39.5 18q2 3 6.5 8.5t9.5 11t10 10t8 4.5q8 0 13 -6.5t5 -14.5t-9 -25t-14 -24l-9 -3l-5 -9q-10 -6 -18 -14.5t-18 -14.5q-5 -3 -10.5 -5t-10.5 -5q-2 -2 -4 -3.5t-4 -3.5q-12 0 -22.5 -3.5t-21.5 -5.5q-17 -2 -34 -2.5t-34 -0.5q-15 0 -29 4.5
t-29 2.5q-9 6 -20.5 11.5t-22.5 7.5l-5 8l-44 31q-7 5 -13 20.5t-10 34.5t-6.5 36.5t-2.5 26.5q0 13 5 24.5t12 22.5t15.5 21t15.5 20q8 12 16.5 24.5t16.5 24.5q25 15 48 33q20 2 38 9t38 7q27 0 46 -1t35.5 -4.5t34 -10t42.5 -17.5q2 -1 7 -6.5t11 -12.5t10.5 -13.5
t6.5 -9.5q4 -7 4 -15zM252 494q-5 0 -15.5 -6.5t-24 -15.5t-28.5 -20.5t-28 -20.5t-23 -15.5t-14 -6.5q-8 0 -13.5 7.5t-5.5 14.5q5 6 15.5 20t24.5 31.5t29.5 36.5t29.5 35t24 27t14 12q3 1 10 1q8 0 15.5 -1t15.5 -2l28 -32t43 -52t39 -52t17 -31q0 -5 -3.5 -10t-9.5 -5
q-4 0 -23.5 13.5t-43 29t-45 29t-28.5 13.5zM247 324q-18 0 -29 -2.5t-18.5 -8t-14 -15t-16.5 -23.5q-3 -4 -10 -14t-7 -15q0 -4 5 -6.5t11.5 -4t13 -2t9.5 -0.5q17 0 34 2t34 2q14 0 28.5 -1t28.5 -1t27.5 3.5t13.5 22.5q0 15 -12.5 26.5t-30.5 20t-36.5 12.5t-30.5 4z" />
    <glyph glyph-name="edieresis" unicode="&#xeb;" 
d="M454 268q0 -8 -1.5 -12.5t-4 -7.5t-6 -6t-7.5 -9q-5 -6 -7.5 -11.5t-5.5 -9.5t-8 -6.5t-14 -2.5q-27 0 -54 2t-54 2q-9 0 -18 -2.5t-18 -4.5q-3 1 -19 1q-13 0 -27.5 -0.5t-21.5 -0.5q-12 0 -23.5 2t-23.5 2q-9 0 -11.5 -11.5t-2.5 -18.5q0 -33 20 -54t48.5 -32.5t61 -16
t57.5 -4.5q23 0 42.5 10t39.5 18q2 3 6.5 8.5t9.5 11t10 10t8 4.5q8 0 13 -6.5t5 -14.5t-9 -25t-14 -24l-9 -3l-5 -9q-17 -11 -30 -21t-31 -18.5t-44.5 -13.5t-71.5 -5q-14 0 -26 3.5t-26 3.5q-9 0 -23 8.5t-26 10.5l-5 8l-44 31q-7 5 -13 20.5t-10 34.5t-6.5 36.5
t-2.5 26.5q0 13 5 24.5t12 22.5t15.5 21t15.5 20q8 12 16.5 24.5t16.5 24.5q25 15 48 33q20 2 38 9t38 7q28 0 46.5 -1t35 -4.5t34 -10t42.5 -17.5q8 -3 15 -12t12.5 -19t8.5 -17.5t3 -8.5zM374 564q11 0 21.5 -5t19 -13t14 -19t5.5 -22q0 -25 -19.5 -41.5t-43.5 -16.5
q-25 0 -39 14t-14 39q0 10 5 21t12.5 20.5t17.5 16t21 6.5zM152 561q10 0 19 -5t16 -13t11 -18t4 -20q0 -23 -17 -40.5t-40 -17.5t-38.5 16.5t-15.5 39.5q0 28 17 43t44 15zM247 324q-18 0 -29 -2.5t-18.5 -8t-14 -15t-16.5 -23.5q-3 -4 -10 -14t-7 -15q0 -4 5 -6.5t11.5 -4
t13 -2t9.5 -0.5q17 0 34 2t34 2q14 0 28.5 -1t28.5 -1t27.5 3.5t13.5 22.5q0 15 -12.5 26.5t-30.5 20t-36.5 12.5t-30.5 4z" />
    <glyph glyph-name="iacute" unicode="&#xed;" horiz-adv-x="278" 
d="M181 166q0 -6 1 -25t3.5 -40t5.5 -38.5t7 -18.5q5 -2 14 -3t18 -3.5t15.5 -6.5t6.5 -11q0 -8 -7 -14t-15 -6h-162q-3 0 -9 1.5t-12 4t-10.5 5.5t-4.5 6q0 6 7.5 11t17.5 8.5t19.5 6t13.5 5.5q2 1 4 11t3.5 21.5t2 22t0.5 13.5q0 8 -2.5 16.5t-2.5 16.5q0 30 -1 61t-3 61
q-1 9 -11 14t-22 8.5t-21.5 7t-9.5 11.5q0 5 1.5 9t6.5 6q15 5 33 6t34 4q4 1 14.5 3.5t22 5.5t21 5.5t11.5 2.5q4 0 7 -5t4.5 -11t2.5 -12.5t1 -9.5v-38v-33t-1 -33q-1 -11 -2.5 -23t-1.5 -23zM21 428q0 7 3.5 11.5t8.5 9.5q27 26 49.5 54.5t46.5 57.5q14 16 24.5 25
t33.5 9q20 0 34.5 -11t14.5 -33q0 -21 -11.5 -36.5t-29 -26.5t-37 -18.5t-35.5 -14.5q-5 -2 -18.5 -9t-28.5 -14.5t-27 -13t-14 -5.5q-6 0 -10 4.5t-4 10.5z" />
    <glyph glyph-name="igrave" unicode="&#xec;" horiz-adv-x="278" 
d="M181 166q0 -6 1 -25t3.5 -40t5.5 -38.5t7 -18.5q5 -2 14 -3t18 -3.5t15.5 -6.5t6.5 -11q0 -8 -7 -14t-15 -6h-162q-3 0 -9 1.5t-12 4t-10.5 5.5t-4.5 6q0 6 7.5 11t17.5 8.5t19.5 6t13.5 5.5q2 1 4 11t3.5 21.5t2 22t0.5 13.5q0 8 -2.5 16.5t-2.5 16.5q0 30 -1 61t-3 61
q-1 9 -11 14t-22 8.5t-21.5 7t-9.5 11.5q0 5 1.5 9t6.5 6q15 5 33 6t34 4q4 1 14.5 3.5t22 5.5t21 5.5t11.5 2.5q4 0 7 -5t4.5 -11t2.5 -12.5t1 -9.5v-38v-33t-1 -33q-1 -11 -2.5 -23t-1.5 -23zM63 603q23 0 33.5 -8.5t24.5 -24.5q24 -29 46 -57.5t49 -54.5q5 -5 8.5 -10
t3.5 -12q0 -14 -14 -14q-3 0 -15 5.5t-26.5 13t-28 14.5t-18.5 9q-16 7 -35.5 15t-37 19t-29 26t-11.5 36q0 22 15 32.5t35 10.5z" />
    <glyph glyph-name="icircumflex" unicode="&#xee;" horiz-adv-x="278" 
d="M181 166q0 -6 1 -25t3.5 -40t5.5 -38.5t7 -18.5q5 -2 14 -3t18 -3.5t15.5 -6.5t6.5 -11q0 -8 -7 -14t-15 -6h-162q-3 0 -9 1.5t-12 4t-10.5 5.5t-4.5 6q0 6 7.5 11t17.5 8.5t19.5 6t13.5 5.5q2 1 4 11t3.5 21.5t2 22t0.5 13.5q0 8 -2.5 16.5t-2.5 16.5q0 30 -1 61t-3 61
q-1 9 -11 14t-22 8.5t-21.5 7t-9.5 11.5q0 5 1.5 9t6.5 6q15 5 33 6t34 4q4 1 14.5 3.5t22 5.5t21 5.5t11.5 2.5q4 0 7 -5t4.5 -11t2.5 -12.5t1 -9.5v-38v-33t-1 -33q-1 -11 -2.5 -23t-1.5 -23zM127 497q-3 0 -18 -12t-33 -27t-33.5 -27t-18.5 -12q-6 0 -10 7.5t-4 12.5
q0 4 13 23t29.5 42t32 44t20.5 27q4 5 7.5 9t11.5 4q6 0 12 -1l12 -2q4 -4 12.5 -15.5t19.5 -27.5t23 -33.5t21.5 -33t16 -27.5t6.5 -15q0 -5 -2.5 -9.5t-7.5 -4.5t-20 12t-32.5 27t-34 27t-23.5 12z" />
    <glyph glyph-name="idieresis" unicode="&#xef;" horiz-adv-x="278" 
d="M181 166q0 -6 1 -25t3.5 -40t5.5 -38.5t7 -18.5q5 -2 14 -3t18 -3.5t15.5 -6.5t6.5 -11q0 -8 -7 -14t-15 -6h-162q-3 0 -9 1.5t-12 4t-10.5 5.5t-4.5 6q0 6 7.5 11t17.5 8.5t19.5 6t13.5 5.5q2 1 4 11t3.5 21.5t2 22t0.5 13.5q0 8 -2.5 16.5t-2.5 16.5q0 30 -1 61t-3 61
q-1 9 -11 14t-22 8.5t-21.5 7t-9.5 11.5q0 5 1.5 9t6.5 6q15 5 33 6t34 4q4 1 14.5 3.5t22 5.5t21 5.5t11.5 2.5q4 0 7 -5t4.5 -11t2.5 -12.5t1 -9.5v-38v-33t-1 -33q-1 -11 -2.5 -23t-1.5 -23zM202 549q10 0 18.5 -6t14.5 -15t9.5 -19.5t3.5 -19.5q0 -20 -13 -38.5
t-35 -18.5t-30.5 17t-8.5 35q0 7 3 18.5t8 21.5t13 17.5t17 7.5zM53 548q9 0 16 -6t12 -14t7.5 -18t2.5 -17q0 -9 -3 -19t-8 -19t-13 -15t-18 -6q-21 0 -31.5 19t-10.5 37q0 23 10 40.5t36 17.5z" />
    <glyph glyph-name="ntilde" unicode="&#xf1;" horiz-adv-x="556" 
d="M463 256q0 -15 -2 -30t-2 -30q0 -38 3.5 -75t4.5 -75q4 -9 13.5 -12t19.5 -4.5t18 -4.5t8 -10t-4.5 -13.5t-12.5 -6.5q-21 0 -41.5 3.5t-41.5 3.5q-24 0 -48 -2.5t-48 -2.5q-12 0 -12.5 6.5t-0.5 15.5q5 6 14.5 7.5t18.5 3.5t16 8.5t7 23.5q0 15 -3.5 29.5t-3.5 29.5
q0 8 3 16t5 16q-2 8 -3 17t-1 17t1.5 16.5t1.5 16.5q0 21 -13.5 32t-32.5 16t-39.5 5.5t-34.5 0.5q-4 0 -13 -5.5t-18 -12.5t-16 -14t-7 -10l1 -164q0 -6 0.5 -15.5t7.5 -12.5q3 -2 11.5 -3.5t17 -3.5t15 -5.5t6.5 -7.5q0 -5 -4 -14t-10 -9q-49 0 -98 2.5t-99 3.5l-4 4l-2 5
v1q3 3 4 6.5t2 7.5q17 8 28.5 9.5t18.5 4.5t10 10.5t3 28.5q0 25 3 47.5t3 44.5q0 11 -3 20.5t-3 20.5q0 8 2 16t2 16q0 22 -11.5 28.5t-26 8.5t-26 3.5t-11.5 12.5q0 9 8.5 14.5t19.5 8t23 3.5t18 2q3 2 10 6t14.5 8.5t14.5 8t10 3.5q20 0 27 -8t10 -17t6 -17t15 -8
q14 10 22.5 17.5t16.5 12t18.5 7.5t28.5 6q13 2 25 4t25 2q15 0 35 -8.5t38 -22t30 -30.5t12 -34zM363 509q25 0 35 11.5t14 25t7 25t15 11.5q13 0 16.5 -9.5t3.5 -20.5q0 -21 -6 -41.5t-18 -37t-30 -26.5t-41 -10q-27 0 -53.5 11t-49.5 24t-42 24t-32 11q-22 0 -30 -11
t-11.5 -23.5t-7 -23.5t-15.5 -11q-20 0 -20 22q0 20 5.5 41.5t17 39.5t29 29.5t41.5 11.5q30 0 56 -11.5t47.5 -25t39 -25t29.5 -11.5z" />
    <glyph glyph-name="oacute" unicode="&#xf3;" 
d="M278 -11q-23 2 -45 2t-45 3q-32 4 -60 16.5t-49 32t-33 46.5t-12 62q0 8 2.5 20.5t6.5 26.5t7.5 27t6.5 21q37 29 64 67q24 10 43 18.5t38 14.5t40 9.5t49 3.5q40 0 72.5 -13.5t55 -37.5t35 -57.5t12.5 -72.5q0 -21 -8.5 -42t-22 -40.5t-30 -37t-31.5 -30.5
q-20 -17 -46 -24.5t-50 -14.5zM165 439q0 7 3.5 11.5t8.5 9.5q27 26 49.5 54.5t45.5 57.5q14 17 24.5 25t33.5 8q20 0 35 -10.5t15 -33.5q0 -21 -12 -36t-29 -26t-37 -19l-35 -14q-5 -2 -18.5 -9t-28 -14.5t-27 -13t-14.5 -5.5q-6 0 -10 4.5t-4 10.5zM361 217
q-11 25 -18 44.5t-18.5 33.5t-29.5 21.5t-49 7.5q-3 0 -12 -3.5t-19.5 -7.5t-20 -8.5t-15.5 -5.5q-12 -18 -20 -26t-13 -14.5t-7 -17t-3 -33.5q-1 -20 -1.5 -40t-0.5 -40q0 -11 6.5 -20.5t11.5 -19.5q8 -15 11 -21.5t6 -9t9.5 -5t22.5 -10.5q12 -6 24.5 -14t26.5 -8
q7 0 19.5 2.5t24.5 7t22 11t13 13.5q5 13 9.5 25.5t12.5 24.5q3 29 4.5 56.5t3.5 56.5z" />
    <glyph glyph-name="ograve" unicode="&#xf2;" 
d="M278 -11q-23 2 -45 2t-45 3q-32 4 -60 16.5t-49 32t-33 46.5t-12 62q0 8 2.5 20.5t6.5 26.5t7.5 27t6.5 21q37 29 64 67q24 10 43 18.5t38 14.5t40 9.5t49 3.5q40 0 72.5 -13.5t55 -37.5t35 -57.5t12.5 -72.5q0 -21 -8.5 -42t-22 -40.5t-30 -37t-31.5 -30.5
q-20 -17 -46 -24.5t-50 -14.5zM194 599q23 0 33.5 -8.5t24.5 -24.5q24 -29 46 -58t49 -55q5 -5 8.5 -9.5t3.5 -11.5q0 -6 -4 -10.5t-10 -4.5q-2 0 -14 6l-27 13.5t-28.5 14t-18.5 8.5q-16 6 -35.5 14t-37 19.5t-29 26.5t-11.5 36q0 23 15 33.5t35 10.5zM361 217
q-11 25 -18 44.5t-18.5 33.5t-29.5 21.5t-49 7.5q-3 0 -12 -3.5t-19.5 -7.5t-20 -8.5t-15.5 -5.5q-12 -18 -20 -26t-13 -14.5t-7 -17t-3 -33.5q-1 -20 -1.5 -40t-0.5 -40q0 -11 6.5 -20.5t11.5 -19.5q8 -15 11 -21.5t6 -9t9.5 -5t22.5 -10.5q12 -6 24.5 -14t26.5 -8
q7 0 19.5 2.5t24.5 7t22 11t13 13.5q5 13 9.5 25.5t12.5 24.5q3 29 4.5 56.5t3.5 56.5z" />
    <glyph glyph-name="ocircumflex" unicode="&#xf4;" 
d="M278 -11q-23 2 -45 2t-45 3q-32 4 -60 16.5t-49 32t-33 46.5t-12 62q0 8 2.5 20.5t6.5 26.5t7.5 27t6.5 21q37 29 64 67q24 10 43 18.5t38 14.5t40 9.5t49 3.5q40 0 72.5 -13.5t55 -37.5t35 -57.5t12.5 -72.5q0 -21 -8.5 -42t-22 -40.5t-30 -37t-31.5 -30.5
q-20 -17 -46 -24.5t-50 -14.5zM258 488q-8 0 -14 -6l-11 -11t-13 -8t-14 -7q-16 -8 -29.5 -19t-27.5 -22q-5 -5 -10.5 -8.5t-12.5 -3.5q-8 0 -13.5 7.5t-5.5 14.5q7 10 27.5 36.5t44.5 54.5t45 50t30 22q8 0 15.5 -1t15.5 -2q5 -5 16 -18t25 -29.5t29.5 -36t28 -36
t20.5 -29.5t8 -18t-3.5 -10t-9.5 -5t-25 13.5t-42 29t-44 29t-30 13.5zM361 217q-11 25 -18 44.5t-18.5 33.5t-29.5 21.5t-49 7.5q-3 0 -12 -3.5t-19.5 -7.5t-20 -8.5t-15.5 -5.5q-12 -18 -20 -26t-13 -14.5t-7 -17t-3 -33.5q-1 -20 -1.5 -40t-0.5 -40q0 -11 6.5 -20.5
t11.5 -19.5q8 -15 11 -21.5t6 -9t9.5 -5t22.5 -10.5q12 -6 24.5 -14t26.5 -8q7 0 19.5 2.5t24.5 7t22 11t13 13.5q5 13 9.5 25.5t12.5 24.5q3 29 4.5 56.5t3.5 56.5z" />
    <glyph glyph-name="odieresis" unicode="&#xf6;" 
d="M278 -11q-23 2 -45 2t-45 3q-32 4 -60 16.5t-49 32t-33 46.5t-12 62q0 8 2.5 20.5t6.5 26.5t7.5 27t6.5 21q37 29 64 67q24 10 43 18.5t38 14.5t40 9.5t49 3.5q40 0 72.5 -13.5t55 -37.5t35 -57.5t12.5 -72.5q0 -21 -8.5 -42t-22 -40.5t-30 -37t-31.5 -30.5
q-20 -17 -46 -24.5t-50 -14.5zM364 558q10 0 21 -5.5t19.5 -14t14 -19.5t5.5 -21q0 -25 -20 -41t-43 -16q-25 0 -39 14t-14 39q0 10 4.5 21.5t12.5 21t18 15.5t21 6zM136 555q23 0 39.5 -16.5t16.5 -39.5t-17 -40.5t-40 -17.5t-39 16.5t-16 39.5q0 24 16 41t40 17zM361 217
q-11 25 -18 44.5t-18.5 33.5t-29.5 21.5t-49 7.5q-3 0 -12 -3.5t-19.5 -7.5t-20 -8.5t-15.5 -5.5q-12 -18 -20 -26t-13 -14.5t-7 -17t-3 -33.5q-1 -20 -1.5 -40t-0.5 -40q0 -11 6.5 -20.5t11.5 -19.5q8 -15 11 -21.5t6 -9t9.5 -5t22.5 -10.5q12 -6 24.5 -14t26.5 -8
q7 0 19.5 2.5t24.5 7t22 11t13 13.5q5 13 9.5 25.5t12.5 24.5q3 29 4.5 56.5t3.5 56.5z" />
    <glyph glyph-name="otilde" unicode="&#xf5;" 
d="M278 -11q-23 2 -45 2t-45 3q-32 4 -60 16.5t-49 32t-33 46.5t-12 62q0 8 2.5 20.5t6.5 26.5t7.5 27t6.5 21q37 29 64 67q24 10 43 18.5t38 14.5t40 9.5t49 3.5q40 0 72.5 -13.5t55 -37.5t35 -57.5t12.5 -72.5q0 -21 -8.5 -42t-22 -40.5t-30 -37t-31.5 -30.5
q-20 -17 -46 -24.5t-50 -14.5zM340 502q25 0 34.5 11.5t14 25.5t7.5 25.5t15 11.5q13 0 17 -9.5t4 -20.5q0 -21 -6.5 -41.5t-18.5 -37t-30 -26.5t-41 -10q-27 0 -53.5 11t-50 24t-42.5 24t-31 11q-22 0 -30 -11t-11.5 -24t-7 -24t-15.5 -11q-20 0 -20 22q0 21 5.5 42.5
t17 39.5t29 29.5t41.5 11.5q28 0 54 -11.5t48.5 -25.5t40.5 -25.5t29 -11.5zM361 217q-11 25 -18 44.5t-18.5 33.5t-29.5 21.5t-49 7.5q-3 0 -12 -3.5t-19.5 -7.5t-20 -8.5t-15.5 -5.5q-12 -18 -20 -26t-13 -14.5t-7 -17t-3 -33.5q-1 -20 -1.5 -40t-0.5 -40q0 -11 6.5 -20.5
t11.5 -19.5q8 -15 11 -21.5t6 -9t9.5 -5t22.5 -10.5q12 -6 24.5 -14t26.5 -8q7 0 19.5 2.5t24.5 7t22 11t13 13.5q5 13 9.5 25.5t12.5 24.5q3 29 4.5 56.5t3.5 56.5z" />
    <glyph glyph-name="uacute" unicode="&#xfa;" horiz-adv-x="556" 
d="M179 105q6 -15 10 -26t10 -18.5t16 -11t28 -3.5q12 0 21 0.5t17 2.5t16.5 4.5t19.5 7.5q6 2 14 5.5t15.5 8t13.5 10.5t6 14q2 43 1.5 86t-0.5 86q0 13 -10 18.5t-23.5 7t-27 1t-21.5 -0.5q-4 3 -6 9.5t-2 11.5q0 11 11 13t19 2t16.5 -1t16.5 -1q19 0 36.5 4t36.5 4
q7 0 14.5 -5t12.5 -12.5t8.5 -15.5t3.5 -15q0 -9 -3.5 -19t-3.5 -19q0 -18 2.5 -35.5t4.5 -35.5l-8 -30t-4 -31q0 -8 2.5 -19t7 -22t11.5 -18.5t17 -7.5q5 0 12.5 4t12.5 6h4q6 0 11 -5t6 -11l-1 -5l-2 -3q-19 -5 -36.5 -15.5t-32.5 -21.5l-17 -2q-4 -2 -12.5 -7t-12.5 -5
q-6 0 -12 2.5t-12 4.5q-1 3 -4 11t-6 16.5t-6.5 15t-5.5 6.5q-5 0 -11 -3.5t-11 -6.5q-25 -18 -53.5 -26.5t-55.5 -21.5q-18 1 -36 1t-35 2q-9 1 -20 11.5t-20.5 25t-16 29t-6.5 23.5q0 16 0.5 31.5t0.5 31.5q0 11 -2.5 21.5t-2.5 21.5q0 8 3 18t5 18q-1 3 -4 14t-6.5 23
t-7 21.5t-4.5 10.5q-6 4 -11.5 7.5t-9.5 9.5q-11 1 -23.5 2t-12.5 16q0 9 7.5 13t15.5 4q20 0 40 -3.5t40 -3.5q7 0 13.5 2.5t13.5 2.5t11 -5l11 -6zM161 437q0 7 3.5 11.5t8.5 9.5q27 26 49 54.5t46 57.5q14 16 24.5 24.5t33.5 8.5q20 0 35 -10.5t15 -33.5q0 -21 -12 -36
t-29 -26t-37 -19l-35 -14q-5 -2 -18.5 -9t-28 -14.5t-26.5 -13t-15 -5.5q-14 0 -14 15z" />
    <glyph glyph-name="ugrave" unicode="&#xf9;" horiz-adv-x="556" 
d="M179 105q6 -15 10 -26t10 -18.5t16 -11t28 -3.5q12 0 21 0.5t17 2.5t16.5 4.5t19.5 7.5q6 2 14 5.5t15.5 8t13.5 10.5t6 14q2 43 1.5 86t-0.5 86q0 13 -10 18.5t-23.5 7t-27 1t-21.5 -0.5q-4 3 -6 9.5t-2 11.5q0 11 11 13t19 2t16.5 -1t16.5 -1q19 0 36.5 4t36.5 4
q7 0 14.5 -5t12.5 -12.5t8.5 -15.5t3.5 -15q0 -9 -3.5 -19t-3.5 -19q0 -18 2.5 -35.5t4.5 -35.5l-8 -30t-4 -31q0 -8 2.5 -19t7 -22t11.5 -18.5t17 -7.5q5 0 12.5 4t12.5 6h4q6 0 11 -5t6 -11l-1 -5l-2 -3q-19 -5 -36.5 -15.5t-32.5 -21.5l-17 -2q-4 -2 -12.5 -7t-12.5 -5
q-6 0 -12 2.5t-12 4.5q-1 3 -4 11t-6 16.5t-6.5 15t-5.5 6.5q-5 0 -11 -3.5t-11 -6.5q-25 -18 -53.5 -26.5t-55.5 -21.5q-18 1 -36 1t-35 2q-9 1 -20 11.5t-20.5 25t-16 29t-6.5 23.5q0 16 0.5 31.5t0.5 31.5q0 11 -2.5 21.5t-2.5 21.5q0 8 3 18t5 18q-1 3 -4 14t-6.5 23
t-7 21.5t-4.5 10.5q-6 4 -11.5 7.5t-9.5 9.5q-11 1 -23.5 2t-12.5 16q0 9 7.5 13t15.5 4q20 0 40 -3.5t40 -3.5q7 0 13.5 2.5t13.5 2.5t11 -5l11 -6zM188 586q23 0 33.5 -8t24.5 -25q23 -29 45.5 -57.5t49.5 -54.5q5 -5 8.5 -10t3.5 -12q0 -14 -14 -14q-3 0 -15 5.5
t-26.5 13t-28 14.5t-18.5 9q-16 7 -35.5 15t-37 19t-29 26t-11.5 36q0 22 15 32.5t35 10.5z" />
    <glyph glyph-name="ucircumflex" unicode="&#xfb;" horiz-adv-x="556" 
d="M179 105q6 -15 10 -26t10 -18.5t16 -11t28 -3.5q12 0 21 0.5t17 2.5t16.5 4.5t19.5 7.5q6 2 14 5.5t15.5 8t13.5 10.5t6 14q2 43 1.5 86t-0.5 86q0 13 -10 18.5t-23.5 7t-27 1t-21.5 -0.5q-4 3 -6 9.5t-2 11.5q0 11 11 13t19 2t16.5 -1t16.5 -1q19 0 36.5 4t36.5 4
q7 0 14.5 -5t12.5 -12.5t8.5 -15.5t3.5 -15q0 -9 -3.5 -19t-3.5 -19q0 -18 2.5 -35.5t4.5 -35.5l-8 -30t-4 -31q0 -8 2.5 -19t7 -22t11.5 -18.5t17 -7.5q5 0 12.5 4t12.5 6h4q6 0 11 -5t6 -11l-1 -5l-2 -3q-19 -5 -36.5 -15.5t-32.5 -21.5l-17 -2q-4 -2 -12.5 -7t-12.5 -5
q-6 0 -12 2.5t-12 4.5q-1 3 -4 11t-6 16.5t-6.5 15t-5.5 6.5q-5 0 -11 -3.5t-11 -6.5q-25 -18 -53.5 -26.5t-55.5 -21.5q-18 1 -36 1t-35 2q-9 1 -20 11.5t-20.5 25t-16 29t-6.5 23.5q0 16 0.5 31.5t0.5 31.5q0 11 -2.5 21.5t-2.5 21.5q0 8 3 18t5 18q-1 3 -4 14t-6.5 23
t-7 21.5t-4.5 10.5q-6 4 -11.5 7.5t-9.5 9.5q-11 1 -23.5 2t-12.5 16q0 9 7.5 13t15.5 4q20 0 40 -3.5t40 -3.5q7 0 13.5 2.5t13.5 2.5t11 -5l11 -6zM250 484q-8 0 -14 -6l-11 -11t-13 -8t-14 -7q-16 -8 -30 -18.5t-28 -22.5l-10 -8t-12 -4q-8 0 -14 6.5t-6 14.5q0 2 9 14
t23 29t30.5 36.5t32 36.5t27 29.5t15.5 16.5q6 2 10 2q8 0 16 -1t16 -3q5 -5 16.5 -18t25.5 -29.5t29 -35.5t27.5 -36t20.5 -30t8 -17q0 -5 -3.5 -10t-9.5 -5t-26 13.5t-42.5 29t-43 29t-29.5 13.5z" />
    <glyph glyph-name="udieresis" unicode="&#xfc;" horiz-adv-x="556" 
d="M179 105q6 -15 10 -26t10 -18.5t16 -11t28 -3.5q12 0 21 0.5t17 2.5t16.5 4.5t19.5 7.5q6 2 14 5.5t15.5 8t13.5 10.5t6 14q2 43 1.5 86t-0.5 86q0 13 -10 18.5t-23.5 7t-27 1t-21.5 -0.5q-4 3 -6 9.5t-2 11.5q0 11 11 13t19 2t16.5 -1t16.5 -1q19 0 36.5 4t36.5 4
q7 0 14.5 -5t12.5 -12.5t8.5 -15.5t3.5 -15q0 -9 -3.5 -19t-3.5 -19q0 -18 2.5 -35.5t4.5 -35.5l-8 -30t-4 -31q0 -8 2.5 -19t7 -22t11.5 -18.5t17 -7.5q5 0 12.5 4t12.5 6h4q6 0 11 -5t6 -11l-1 -5l-2 -3q-19 -5 -36.5 -15.5t-32.5 -21.5l-17 -2q-4 -2 -12.5 -7t-12.5 -5
q-6 0 -12 2.5t-12 4.5q-1 3 -4 11t-6 16.5t-6.5 15t-5.5 6.5q-5 0 -11 -3.5t-11 -6.5q-25 -18 -53.5 -26.5t-55.5 -21.5q-18 1 -36 1t-35 2q-9 1 -20 11.5t-20.5 25t-16 29t-6.5 23.5q0 16 0.5 31.5t0.5 31.5q0 11 -2.5 21.5t-2.5 21.5q0 8 3 18t5 18q-1 3 -4 14t-6.5 23
t-7 21.5t-4.5 10.5q-6 4 -11.5 7.5t-9.5 9.5q-11 1 -23.5 2t-12.5 16q0 9 7.5 13t15.5 4q20 0 40 -3.5t40 -3.5q7 0 13.5 2.5t13.5 2.5t11 -5l11 -6zM358 539q10 0 21 -5.5t19.5 -14t14 -19.5t5.5 -21q0 -25 -20 -41t-43 -16q-25 0 -39 14t-14 39q0 10 4.5 21.5t12.5 21
t18 15.5t21 6zM136 535q21 0 35.5 -18t14.5 -38q0 -23 -17 -40.5t-40 -17.5t-39 17t-16 40q0 28 18 42.5t44 14.5z" />
    <glyph glyph-name="dagger" unicode="&#x2020;" horiz-adv-x="489" 
d="M298 287q-12 -21 -17.5 -44t-8 -46.5t-4 -47.5t-6.5 -49q-2 -6 -2 -21v-35t0.5 -41t0.5 -40t0.5 -33.5t0.5 -19.5q0 -2 -6 -3.5t-13 -1.5t-12.5 1.5t-4.5 3.5v88q0 51 -3 90t-8 70.5t-11.5 58.5t-13.5 54l-5 21l24 38l2.5 9.5t6.5 21.5t7.5 22l3.5 10v57l-33 -2l-31 -10
q-3 -2 -5.5 -3.5t-7 -4t-13 -5.5t-22.5 -8h-28l-20 10q-8 5 -10.5 16t-3.5 11q0 2 0.5 5.5t0.5 8.5v10q0 8 5 20t11 17l22 6q15 -3 25 -7.5t18.5 -9t18 -8.5t23.5 -6l9 -5q6 0 18.5 -2.5t23.5 -4.5v17l-2 8q-1 5 -3 13q-6 26 -9 41t-6 25.5t-6.5 19t-8.5 20.5l-3 28l8 21
q6 9 15.5 12.5t10.5 3.5q3 0 8 -0.5t14 -0.5h10q8 0 16.5 -3t13.5 -8l11 -27q0 -13 -3.5 -21.5t-8 -15.5t-8 -13t-3.5 -14v-4q0 -5 -2 -6.5t-2 -5.5l-7 -37q-1 -5 -3 -11.5t-2 -11.5l-5 -26h41l32 11q7 5 10 6.5t13 1.5l24 13l28 2l20 -10q8 -5 10.5 -13t2.5 -10
q0 -1 -0.5 -8.5t-2.5 -18t-5.5 -20.5t-9.5 -15l-22 -6l-63 26q-5 0 -10.5 4t-21.5 4q-9 0 -17 0.5t-21 2.5h-7v-2q0 -11 1.5 -41t9.5 -58q-1 0 4 -8.5t11 -19t11.5 -20t5.5 -11.5l1 -1h-1q0 -2 -0.5 -2.5t-0.5 -1.5z" />
    <glyph glyph-name="degree" unicode="&#xb0;" horiz-adv-x="333" 
d="M264 627q0 -11 -3.5 -29t-11.5 -30q-2 -2 -4.5 -3.5t-4.5 -3.5q-20 -24 -42 -30.5t-40 -6.5q-25 0 -43.5 8t-31 22t-19 32.5t-6.5 39.5q0 24 10 43t26 32.5t37 21t42 7.5q11 0 16 -2.5t15 -5.5q19 -6 31 -17t18.5 -24t8.5 -27t2 -27zM93 629q0 -29 16.5 -50t54.5 -21
q6 0 16 3.5t20.5 11t18 18.5t7.5 27q0 9 -2.5 21.5t-9 24t-18 20t-29.5 8.5h-3q-6 0 -17.5 -2t-23.5 -8.5t-21 -19t-9 -33.5z" />
    <glyph glyph-name="cent" unicode="&#xa2;" horiz-adv-x="445" 
d="M111 301q24 19 40 30.5t31.5 18t33.5 8.5t46 2h10q4 10 4 11.5v3t1.5 6t7.5 19.5q5 14 12.5 26.5t6.5 19.5l20 41q4 6 8 6q5 0 9.5 -3.5t8.5 -7.5l-18 -53q0 -4 -7 -16l-16 -39l-5 -18q18 -4 35.5 -11.5t31.5 -19t22.5 -27t8.5 -36.5l-3 -18q-2 -3 -9 -9.5t-15.5 -13.5
t-17 -12t-12.5 -5q-12 0 -22 6t-17.5 15.5t-11.5 21t-4 22.5q0 9 5.5 15.5t5.5 16.5q0 2 -6.5 8t-8.5 8l-7 -18q0 -1 -1 -1l-86 -219l73 -23q4 0 17 4t27 9.5t26.5 11t16.5 8.5q6 5 11 12t13 7h3q13 0 13 -14q0 -13 -6 -21.5t-14.5 -15t-18 -12.5t-16.5 -13q-5 -5 -6 -9
t-8 -6q-32 -11 -69 -19.5t-70 -8.5q-7 0 -12.5 2.5t-12.5 3.5l-38 -81q0 -5 -5 -8l-2 -5q-9 -7 -16 -7q-9 0 -9 15l20 50q0 1 0.5 1t0.5 1q-1 0 -4 -7t-3 -6q1 3 5 11l8.5 17t8.5 17.5t6 13.5q-8 3 -16.5 5.5t-15.5 7.5q-9 7 -19.5 20t-19 28t-14 30t-5.5 27q0 30 1.5 54
t8 44.5t20.5 39t40 38.5zM121 190q0 -31 8 -57t34 -44q5 12 9.5 24.5t9.5 26.5l14 37q3 7 9 14t6 16q0 2 -1 2l32 78q5 11 8.5 20t6.5 17l-14 1q-11 1 -19.5 -7t-19.5 -10q-26 -6 -42 -16t-25 -24t-12.5 -33.5t-3.5 -44.5z" />
    <glyph glyph-name="sterling" unicode="&#xa3;" horiz-adv-x="570" 
d="M15 -18q0 10 4.5 16t10.5 10t13.5 7t13.5 8q8 4 11 16.5t8 20.5q12 23 23.5 50.5t20.5 56.5t14.5 58t5.5 55q0 5 -8 6t-13 1h-11q-10 0 -23.5 -0.5t-24.5 -2.5q-12 0 -24.5 7t-12.5 21q0 11 11 21t23 10q20 0 39 -2t48 -2q7 6 12 22t8.5 35t7 36.5t6.5 26.5q12 33 36 73
t55.5 75t69 59t75.5 24l24 -3q2 0 6.5 1.5t9.5 1.5q16 0 33 -7t30 -18.5t21.5 -26.5t8.5 -31q0 -29 -21 -40.5t-45 -11.5q-18 0 -26.5 14t-13.5 30.5t-9 30.5t-13 14q-32 0 -52.5 -17t-34 -43t-21 -56t-13.5 -55q-2 -5 -3.5 -7.5t-2.5 -7.5l1 -9q-7 -27 -12 -54t-5 -56l6 -3
h120q7 0 13 -7t6 -14q0 -29 -29 -35q-33 0 -59 2.5t-57 2.5q-12 0 -16 -8q-11 -27 -18.5 -55.5t-18.5 -53.5q-3 -7 -13 -19.5t-20.5 -27t-18.5 -27.5t-8 -20q12 0 26 4.5t28 9.5t28.5 9.5t27.5 4.5q33 0 61.5 -4t57.5 -12l36 -10t35 -5q14 0 25 7.5t19.5 16t15 16t11.5 7.5
q14 0 17.5 -8t3.5 -17q0 -38 -15 -61.5t-39 -37t-54 -18.5t-60 -5q-26 0 -53 3.5t-56 16.5q-8 4 -20 7.5t-25.5 6t-26 4t-21.5 1.5q-27 0 -58 -9.5t-57 -18.5q-8 -2 -14.5 -6.5t-17.5 -4.5q-6 0 -14.5 1.5t-8.5 9.5z" />
    <glyph glyph-name="section" unicode="&#xa7;" horiz-adv-x="322" 
d="M66 -16q1 0 1.5 8t3 17t8 17t15.5 8q12 -11 26 -24t29.5 -23.5t32 -17.5t33.5 -7q16 0 34 5t34 14t26.5 22t10.5 30q0 9 -2.5 18.5t-6.5 18.5v1q-10 27 -17 39.5t-21 24.5l-91 52q-8 2 -13 7.5t-14 7.5q-27 8 -44.5 20.5t-27 28.5t-13.5 33t-4 34q0 25 9.5 45.5t25 36.5
t35.5 27t41 17q-41 18 -54.5 48t-13.5 61t14.5 55.5t37 41.5t49.5 26t52 9h37q11 0 26 -4.5t28 -9.5q15 -6 30 -13h1q5 0 7 -2.5t4 -6t5 -6t10 -2.5l8 -30q0 -3 -7 -14.5t-19 -11.5q-9 0 -18.5 10t-29.5 27q-11 9 -29 21.5t-42 12.5q-17 0 -35.5 -5.5t-34.5 -16t-26 -26
t-10 -34.5q0 -12 5.5 -22.5t13.5 -18.5t17.5 -14.5t18.5 -10.5q15 -7 33 -17t37 -21t36.5 -21t30.5 -17q9 -5 22 -16t24.5 -27.5t20 -37.5t8.5 -45q0 -14 -4 -33t-11 -32q-7 -14 -16 -18.5t-17 -14.5q-4 -5 -4.5 -7t-4.5 -4l-6 -2q-4 -2 -11 -7.5t-16 -11.5q17 -17 32 -44
t15 -61q0 -14 -4 -33t-11 -32q-7 -14 -16 -18.5t-17 -14.5q-4 -5 -4.5 -7t-4.5 -4l-6 -2q-5 -2 -13.5 -9t-20.5 -14.5t-26.5 -13t-30.5 -5.5l-37 4l-24 -1q-10 0 -17 2.5t-12 6.5t-10 6.5t-11 2.5v10q-30 0 -45 13t-15 22zM227 421q-17 -1 -35 -7t-33 -16.5t-25 -25
t-10 -33.5q0 -32 17 -51.5t43.5 -34t57.5 -25.5t59 -24q24 8 43 24.5t19 39.5q0 8 4 16.5t4 16.5q0 4 -1 6l-7 9q-5 13 -10 21t-11 13.5t-12.5 9.5t-13.5 10z" />
    <glyph glyph-name="bullet" unicode="&#x2022;" horiz-adv-x="381" 
d="M77 181q0 20 7.5 39t21 34t32 24t39.5 9q23 0 44 -8t37.5 -22.5t26.5 -34.5t10 -44q0 -22 -8.5 -41.5t-23.5 -34.5t-34.5 -23.5t-41.5 -8.5q-23 0 -43 9t-35 24t-23.5 35t-8.5 43z" />
    <glyph glyph-name="paragraph" unicode="&#xb6;" horiz-adv-x="463" 
d="M263 628q0 -10 1 -34.5t1 -53.5q0 -23 -1 -32t-1 -13q0 -10 1 -25.5t1 -27.5q0 -11 -1.5 -14t-1.5 -9q0 -10 0.5 -22t0.5 -22q0 -11 -3 -14.5t-7 -3.5q-12 0 -21 1.5t-26 1.5q-16 0 -29 9.5t-28 15.5q-7 4 -14 5.5t-12 5.5q-21 15 -36 47t-15 67q0 6 1 22.5t2.5 34
t3.5 32.5t4 20q2 7 9 12t12 12t9 15.5t12 13.5q7 6 17 7t18 4q10 4 19 10.5t20 6.5q20 0 32 1t20 1l17 4q17 0 32.5 2.5t31.5 3.5h3q4 0 6 -0.5t7 -0.5h6q0 -1 1 -1q2 0 4.5 0.5t6.5 0.5h44q11 0 16.5 -9t8.5 -20l-1 -6q-5 -5 -14.5 -8.5t-20 -6t-21 -3.5t-17.5 -1h-2
q0 -2 2 -8.5t2 -17.5l3 -30l-6 -63l9 -61l-7 -64l4 -51l-6 -44l7 -65q0 -35 -1.5 -76t-7.5 -82.5t-18 -79.5t-34 -66l-25 -25q-6 -6 -15.5 -12t-21 -11t-22.5 -8.5t-18 -3.5q-8 0 -16.5 2.5t-17.5 2.5q-3 0 -6 -0.5t-5 -0.5q-4 0 -9.5 3.5t-12 7t-12 7t-9.5 3.5h-2
q2 18 10 28.5t8 12.5q7 0 11 -2t9.5 -4t14 -4t26.5 -2q8 0 20 7t17 7q6 0 16.5 9.5t20.5 23.5t17 29.5t7 28.5l19 113l3 57q1 14 -3.5 28.5t-3.5 28.5l1 48l-4 44l7 46v227q0 12 -8 16t-20 4q-5 0 -9.5 -0.5t-9.5 -1.5v-30v0z" />
    <glyph glyph-name="germandbls" unicode="&#xdf;" horiz-adv-x="601" 
d="M356 50q7 -6 11 -9.5t7.5 -6t8.5 -3t15 -0.5q14 0 23.5 8.5t15 21t7.5 26.5t2 25q0 24 -8.5 38.5t-19.5 24t-22.5 18t-18.5 20.5q-4 6 -7 12t-9 11q-13 9 -19.5 13t-10.5 8t-6.5 11.5t-7.5 23.5q-2 5 -4 10.5t-2 11.5q0 8 4.5 15t4.5 18q8 23 22.5 43.5t22.5 44.5
q2 5 3 10t4 8l7 7q2 14 6 28.5t4 28.5q0 29 -10.5 56.5t-28.5 49.5t-41.5 35t-48.5 13q-29 0 -45.5 -26t-24.5 -60.5t-10 -67.5t-2 -47q0 -37 4 -72.5t4 -73.5q0 -13 -3.5 -25t-3.5 -24q0 -10 2.5 -18.5t2.5 -18.5q0 -16 -3.5 -30.5t-3.5 -30.5q0 -8 2 -15.5t2 -15.5
q0 -9 -0.5 -18t-0.5 -18q0 -34 13 -48t28 -20.5t28 -11t13 -18.5q0 -9 -4.5 -12t-12.5 -3q-12 0 -24.5 2.5t-24.5 2.5q-10 0 -19 -1.5t-19 -1.5q-8 0 -16.5 1t-17.5 1q-20 0 -39.5 -1t-39.5 -1q-8 0 -14.5 3.5t-6.5 13.5q0 13 14 18t24 8q23 8 28 15.5t5 25.5q0 10 -2 20
t-2 20q0 23 3 46t3 46q0 7 -1 13.5t-1 14.5q0 11 1.5 22.5t1.5 22.5q0 5 -1 11t-8 6q-6 0 -11.5 -1.5t-11.5 -1.5q-11 0 -23 4.5t-12 18.5v7t1 10t2.5 9t3.5 4q3 0 5.5 -1t5.5 -1q8 0 15 1t14 1l2 -1q12 0 14.5 13t2.5 22q0 10 -1 19.5t-1 19.5q0 33 4.5 69.5t15 71.5
t27.5 66t43 52q10 8 24 16.5t30 16t33.5 12.5t33.5 5q15 0 25.5 -1t19 -4t17 -8t21.5 -13l11.5 -9t25 -23.5t24.5 -33.5t11 -38q0 -6 -4 -16l2 -15q-5 -9 -4.5 -19t-3.5 -19q-8 -20 -16 -44q-5 -16 -14.5 -32.5t-18.5 -33.5t-15.5 -33.5t-6.5 -31.5q0 -19 12 -34.5t25 -29.5
l16.5 -6t8.5 -5t6 -8t10 -14q12 -17 28 -28t30.5 -23t24 -28t9.5 -43q0 -4 -1.5 -7.5t-1.5 -7.5q0 -7 1.5 -13.5t1.5 -13.5q0 -8 -3 -18.5t-7 -21t-9 -19t-8 -12.5t-11.5 -10t-19 -11.5t-20.5 -9.5t-16 -4q-5 0 -21 -6t-27 -6t-21.5 5t-21.5 7q-33 7 -52 25t-19 54
q0 14 10 25.5t25 11.5q14 0 25 -9t11 -23q0 -8 -3 -15l-6 -14v-1z" />
    <glyph glyph-name="registered" unicode="&#xae;" horiz-adv-x="536" 
d="M358 576q0 -6 -0.5 -12.5t-2.5 -12.5l-5 -4q-2 -3 -4 -8.5t-8 -11.5l-6 -3q-1 0 -8 -8.5t-21 -8.5q-4 0 -6.5 1.5t-4.5 1.5t-3 -1h4q0 -3 1.5 -4t3.5 -3h-2q5 -2 6 -3l2 -2h-1q0 -3 6.5 -5.5t16 -7t19.5 -13t18 -24.5l6 -6q4 -3 5.5 -9.5t4.5 -6.5q1 0 2.5 0.5t4.5 0.5
q11 0 11 -6t-12 -8.5t-17 -2.5q-9 0 -22 8t-18 11l-2 4q-3 6 -7 8t-10 6h1q-11 5 -19 14.5t-17 17.5l-6 6h2q-8 4 -14 13.5t-8 9.5q-1 0 -1 -1v-3q0 -6 2 -7.5t2 -4.5q0 -1 -1.5 -2t-1.5 -4q0 -5 1.5 -5t1.5 -2q0 -5 -1.5 -9t-1.5 -9v-18q0 -11 6.5 -15t14.5 -5.5t14.5 -2.5
t6.5 -7q0 -2 -4 -3.5t-8 -1.5q-6 0 -9 1.5t-8 1.5h-31q-2 0 -3 -0.5t-3 -0.5h-16q-2 0 -3 -0.5t-3 -0.5l-11 -1q-4 0 -5.5 1t-8.5 1q0 1 0.5 1.5t0.5 1.5t-1.5 2t-1.5 2q0 5 10.5 5t15.5 5h-1l2 12q2 6 3 12t1 8q0 20 -2 39t-2 39q0 11 1 23t1 23q0 22 -5 30t-11 10t-11 2.5
t-5 8.5q0 2 4.5 4t9.5 2q8 0 9 -1h-3q1 -1 3 -1q3 0 7.5 1t8.5 1q6 0 10 -1.5t6 -1.5q6 0 21 1t22 1h9q4 0 10 -2t12 -5t11 -5t8 -2h2h-1q18 -8 27.5 -19t9.5 -29zM246 578v-18q2 -6 2 -11q0 -2 -0.5 -3t-0.5 -2v-4q0 -18 33 -18q0 1 10.5 5t15.5 12h-1q1 2 2.5 10t1.5 10
q0 5 -1 8t-1 5v10q0 6 -4 13t-10 12.5t-12.5 9.5t-10.5 4q-8 0 -17 -2t-9 -16q0 -1 1 -3t1 -4v-18zM486 520q0 -12 -2 -29t-6 -34t-10 -33.5t-14 -28.5q-4 -5 -10 -8t-9 -8q-20 -25 -42.5 -40.5t-45 -23.5t-44.5 -11t-41 -3q-52 0 -91.5 17.5t-66.5 47t-40.5 68.5t-13.5 83
q0 24 6.5 47.5t18 45t26 40t30.5 33.5q15 13 34.5 23.5t41.5 17t44 10t42 3.5q12 0 20 -1.5t14.5 -3.5t13.5 -5.5t17 -6.5q40 -14 65.5 -36.5t39 -49.5t18.5 -56.5t5 -57.5zM89 531q0 -7 2.5 -11t2.5 -10q0 -7 -0.5 -13.5t-0.5 -12.5q0 -30 14.5 -56.5t40 -46t59 -31
t72.5 -11.5q16 0 44 9.5t56 29.5t48.5 51t20.5 74q0 20 -1 36.5t-4 35.5q-3 18 -17 40t-35.5 41t-48.5 32t-56 13h-6q-30 0 -57 -6t-56 -27q-7 -5 -20.5 -17t-26 -29.5t-22 -40.5t-9.5 -50z" />
    <glyph glyph-name="copyright" unicode="&#xa9;" horiz-adv-x="833" 
d="M562 528q0 -7 1 -19t0 -23.5t-5.5 -20t-14.5 -8.5q-6 0 -8 5.5t-3 12.5t-1.5 14t-2.5 10q-11 24 -33 40t-48 16q-11 0 -25 -3t-28.5 -8t-26.5 -12t-19 -16q-5 -7 -8 -15.5t-9 -15.5q-6 -6 -9 -10t-4.5 -7.5t-3 -8t-4.5 -11.5q-3 -8 -7.5 -15.5t-4.5 -16.5q0 -5 1 -10
t1 -10q0 -10 -3.5 -18t-3.5 -18q0 -5 2 -10t3 -10q6 -20 6 -40t11 -38q5 -8 12.5 -13t14.5 -11t12.5 -13.5t13.5 -12.5q7 -5 20 -9.5t26.5 -7.5t26.5 -5t22 -2q5 0 8 2.5t7 4.5q12 6 21 9.5t15.5 8.5t11.5 13t10 22q1 4 2 11.5t3 14t5.5 11.5t10.5 5q10 0 10 -13
q0 -20 -4 -38.5t-4 -38.5q0 -8 2 -15.5t2 -15.5q0 -6 -5 -9t-10 -3q-8 0 -9.5 7.5t-8.5 7.5q-6 0 -10.5 -4t-9.5 -6q-2 -1 -15 -2.5t-28 -3t-29 -2.5t-17 -1q-6 0 -16 0.5t-20.5 1.5t-20 2.5t-15.5 3.5q-20 7 -32.5 17t-25.5 25q-7 8 -15 13.5t-13 13.5q-13 20 -24 50.5
t-11 53.5q0 11 -2.5 21t-2.5 21q0 10 3.5 19t5.5 19q3 13 4.5 26.5t8.5 24.5q4 6 9 9.5t9 8.5q5 6 8 13t8 14q14 17 31 27t37 19q16 7 26 12t20 8t21.5 4.5t29.5 1.5q3 0 11.5 -0.5t18.5 -1.5t18 -2t10 -2q7 -3 13 -7t13 -4q11 0 15.5 9t12.5 9q2 0 7.5 -3t5.5 -6v-2
q-2 -3 -3.5 -9t-2.5 -12.5t-1 -13v-9.5zM783 371q0 -21 -3.5 -49t-10 -57t-16.5 -56.5t-23 -47.5q-7 -9 -17 -13.5t-15 -13.5q-34 -42 -72 -68t-76 -40t-74.5 -18.5t-68.5 -4.5q-88 0 -154.5 29t-111.5 78.5t-68 115.5t-23 140q0 41 11 80.5t30 75.5t43.5 67.5t51.5 55.5
q25 23 58 40t70 28.5t74.5 17t70.5 5.5q20 0 33.5 -2.5t24.5 -6t22.5 -9t28.5 -11.5q68 -23 110 -60.5t65.5 -83.5t31.5 -96t8 -96zM116 390q0 -12 4 -18.5t4 -17.5t-1 -22t-1 -22q0 -51 24.5 -95.5t67 -77t99.5 -51.5t122 -19q18 0 46 7t59.5 21.5t63.5 36.5t57.5 52.5
t41.5 70t16 87.5q0 33 -1.5 61.5t-6.5 60.5q-5 31 -28.5 67.5t-60 68.5t-82 53.5t-93.5 21.5h-10q-50 0 -95.5 -10t-94.5 -45q-12 -9 -34.5 -29t-44 -49.5t-37.5 -67.5t-15 -84z" />
    <glyph glyph-name="trademark" unicode="&#x2122;" horiz-adv-x="610" 
d="M53 684q11 0 21 -1t19 -1l26 1q11 0 20 -1t17 -1l29 2h13l10 -1q5 0 14.5 2.5t19.5 2.5q9 0 13 -4q7 4 16 4h6.5t5.5 -1q8 -2 10 -2q4 0 8 2t12 2q13 0 24.5 -13.5t25.5 -34.5q3 -5 9.5 -14.5t13 -19.5t11 -18t3.5 -8l-1 1h-1q11 -12 23 -25.5t12 -19.5v-2q3 6 7.5 16.5
t9 23.5t9 26.5t8.5 24.5q1 4 6 14.5t12.5 21.5t18.5 19.5t25 8.5l18 -1l23 2q7 0 18.5 -2t11.5 -7t-5.5 -5.5t-12 -2t-12 -5.5t-5.5 -15q0 -8 1 -12t1 -8q0 -7 -1.5 -12.5t-1.5 -13.5l3 -27q0 -6 -1 -11.5t-1 -13.5q0 -5 2 -11t2 -12q0 -8 -1 -17t-1 -18q0 -28 4.5 -39
t10.5 -14t10.5 -2.5t4.5 -5.5q0 -5 -12 -7t-19 -2q-5 0 -10 2t-7 2q-7 0 -15 -2t-19 -2h-9q-8 0 -16 1t-18 7q0 5 3 6.5t16 1.5h8q5 0 7.5 5.5t2.5 10.5l-4 56l3 23v22t-1 23.5t-2 20.5t-3 12v-1q-5 -14 -14 -35.5t-23 -48.5l-11 -16q-2 -5 -7.5 -12.5t-11.5 -14
t-11.5 -11.5t-8.5 -5t-12 11.5t-19.5 26.5t-20 30t-14.5 23l-12 18q2 -4 2 -7v-3q0 -5 -1 -13t-1 -11l2 -8q0 -2 -1.5 -3.5t-1.5 -14.5v-13l-2 -21q0 -21 6.5 -29.5t14 -12t14 -4.5t6.5 -6q0 -4 -8 -7t-13 -3q-6 0 -11 2t-5 3q-2 0 -3.5 -0.5t-3.5 -0.5h-7q-9 0 -12 1h2
l-5 1q-1 -1 -4 -2q-6 -2 -12 -2q-12 0 -23 2t-11 8q0 5 6 5t12.5 2.5t12.5 9.5t6 27v4l-1 29l2 25l-1 10l3 73q0 13 -4.5 22t-10.5 14.5t-12.5 8.5t-10.5 5q-2 0 -4 1q-2 -8 -7.5 -18.5t-12 -20.5t-12 -16.5t-8.5 -6.5q-9 0 -13 4.5t-4 7.5q0 2 3 10v10q0 13 -9.5 15.5
t-17.5 2.5h-7q-2 0 -3 -2t-1 -13l1 -24l-3 -36q0 -8 1 -13.5t1 -11.5q0 -8 -1 -13t-1 -11q0 -8 1.5 -15.5t1.5 -14.5q0 -11 -1.5 -21.5t-1.5 -20.5q0 -14 6.5 -18.5t14 -5.5t14 -2t6.5 -8q0 -1 -3.5 -2t-7.5 -2l-8 -2t-5 -1q-5 0 -13.5 2t-8.5 3q-2 0 -6 -1t-11 -1
q-8 0 -10 1h1q-6 2 -7 2q-5 0 -14 -3t-21 -3q-8 0 -16.5 3.5t-8.5 9.5q0 2 6 2t13.5 1.5t14 6.5t6.5 16q0 2 -1 9t-1 8v3.5t2 9.5l-2 18q0 2 1 6t1 6q0 8 -2 11.5t-2 5.5q0 4 1 6t1 9l-2 27q0 2 2 7.5t2 15.5q0 8 -1 10l-3 9v3t2 6h-1q0 2 0.5 4t0.5 4q0 14 -6 16.5t-13 2.5
q-3 0 -9.5 -5.5t-16 -14t-20.5 -17.5t-22 -15q0 3 -2.5 4.5t-2.5 3.5q0 3 5 13.5t5 21.5l-1 6v4q0 11 9 17t24 6z" />
    <glyph glyph-name="acute" unicode="&#xb4;" 
d="M157 433q0 7 3.5 12.5t8.5 10.5q29 29 54 60t51 63q15 18 27 27.5t37 9.5q23 0 39 -12t16 -36t-13 -40.5t-31.5 -29t-40 -21t-39.5 -15.5q-5 -2 -20 -9.5t-31.5 -15.5t-30 -14.5t-15.5 -6.5q-8 0 -11.5 5t-3.5 12z" />
    <glyph glyph-name="dieresis" unicode="&#xa8;" 
d="M323 511q0 6 6 14t14.5 15t19 11.5t19.5 4.5q32 0 44.5 -18.5t12.5 -47.5q0 -8 -3 -11t-6 -10q-8 -17 -18 -21t-28 -4q-33 0 -47 17.5t-14 49.5zM62 515q0 6 5.5 14t14 15t18.5 11.5t19 4.5q32 0 45.5 -18.5t13.5 -47.5q0 -8 -3 -11t-6 -10q-8 -17 -18 -21t-28 -4
q-33 0 -47 17.5t-14 49.5z" />
    <glyph glyph-name="AE" unicode="&#xc6;" horiz-adv-x="1000" 
d="M748 717q9 0 18 -2.5t18 -2.5q27 0 53.5 3.5t52.5 3.5q12 0 25.5 -4t13.5 -20q0 -17 -2 -33t-2 -33q0 -6 -0.5 -19.5t-2.5 -27t-7 -23.5t-15 -10q-11 0 -14 9t-5 17q-3 13 -11.5 28.5t-19.5 28.5t-25 21.5t-29 8.5q-14 0 -27.5 -1t-27.5 -1q-7 0 -13.5 1.5t-13.5 1.5
q-14 0 -27 -2.5t-27 -2.5q-9 0 -17.5 2.5t-17.5 2.5q-8 0 -16 -6t-8 -15v-161q0 -5 0.5 -12.5t2.5 -15t6 -13t11 -5.5q13 0 25 2t25 2q19 0 37.5 -3t37.5 -3q22 0 34.5 7.5t19.5 19.5t11.5 27.5t10.5 32.5q5 5 11 5q11 0 14 -10.5t3 -18.5q0 -17 -5 -33.5t-6 -33.5
q-1 -14 -3 -31t-2 -29q0 -15 3.5 -29t3.5 -29q0 -8 -6 -20t-16 -12q-3 0 -8.5 2t-6.5 5l-27 83h-9l-33 13q-11 -1 -21.5 -2.5t-21.5 -1.5q-9 0 -17.5 2t-16.5 4q-13 -5 -26 -6t-27 -1q-1 -3 -2 -9.5t-2 -13.5t-3 -13t-4 -7l-2 -12t-1 -13q0 -19 6 -37.5t6 -38.5
q0 -23 -3.5 -46.5t-5.5 -46.5q3 -10 5.5 -20t6 -19t9 -16.5t15.5 -13.5l15 -7.5t14 -5.5q7 -1 13 -0.5t13 -0.5q16 -2 31 -5.5t31 -3.5q8 0 18 3t18 5q21 5 30.5 8t14.5 7.5t10 12.5t19 23q10 11 20.5 20t20.5 20q6 6 10.5 18.5t9.5 25.5t11 22.5t14 9.5q11 0 16 -7t5 -17
q0 -13 -4 -25t-9 -23.5t-9 -23.5t-5 -24l-6 -84q-1 -11 -9 -20.5t-20 -9.5q-14 0 -25 7t-25 7q-9 0 -18.5 -2t-18.5 -2q-4 0 -14 3t-15 5l-9 -7q-10 2 -18.5 1.5t-19.5 -0.5q-14 0 -26.5 1t-26.5 1q-12 0 -23.5 -1.5t-23.5 -1.5q-42 -1 -84.5 -1.5t-84.5 -0.5q-15 0 -30 2
t-30 5l-5 21h4l3 7q7 2 20 5.5t27 8t25.5 9.5t14.5 11q-1 17 -1.5 33.5t-0.5 33.5q0 22 2 43t2 43q0 15 -14.5 21.5t-26.5 6.5q-10 0 -14 -3q-22 2 -43 4.5t-43 2.5q-11 0 -20 -3.5t-19 -6.5l-62 6q-9 1 -15.5 -5.5t-10.5 -14.5q-12 -23 -22.5 -47.5t-24.5 -47.5
q-5 -9 -12.5 -16.5t-7.5 -18.5q0 -21 11.5 -32t26 -18t26 -13t11.5 -17q0 -9 -8 -13q-5 -2 -24.5 -3t-42.5 -1.5t-44 -0.5h-28q-12 0 -25 -1t-23 1t-16.5 9t-6.5 24l1 2q10 6 23 11.5t25.5 12.5t22.5 15.5t15 19.5q6 14 10.5 28t12.5 27q2 4 5 6.5t5 6.5q17 26 31 54.5
t29 55.5q35 63 68 124.5t65 125.5q5 9 15.5 27.5t21.5 38t19.5 37.5t8.5 27q-6 9 -22.5 15t-33 11t-29.5 10.5t-13 15.5q0 8 5 12.5t12.5 7t15 3t13.5 0.5q42 0 84 -5t85 -5q23 0 46.5 3t47.5 3t48 -3t48 -4q10 -1 19.5 0t19.5 1h1zM307 367l-3 -18q-5 -8 -9 -14.5t-8 -14.5
l4 -8q17 0 33 -2t33 -5q2 0 8 2t7 2l110 -3q7 0 10.5 5t3.5 11q0 16 -4 31.5t-4 32.5q0 14 0.5 27.5t3.5 27.5q2 8 4 16.5t2 16.5q0 26 -4 52.5t-4 52.5q0 15 3 30.5t3 30.5q0 6 -1.5 15.5t-10.5 9.5q-10 0 -15 -7.5t-8 -15.5q-8 -20 -19 -37t-21 -36q-5 -11 -9 -22t-10 -22
q-9 -17 -20 -31.5t-19 -31.5q-7 -13 -11 -27t-11 -27q-5 -11 -13 -20t-14 -20z" />
    <glyph glyph-name="Oslash" unicode="&#xd8;" horiz-adv-x="778" 
d="M156 -103q-13 -8 -22 -8q-15 0 -15 16q0 5 1 8q9 21 17 37t16.5 30l17 28t19.5 31q-11 5 -22.5 13.5t-21.5 17.5t-19 17.5t-16 14.5q-8 6 -19 23.5t-22 37.5t-19 39t-9 29l-8 65q-2 16 -4 31.5t-3 31.5q0 40 11 78.5t29 74.5t42.5 68.5t51.5 60.5q12 12 32.5 25
t44.5 24.5t49.5 21t47.5 15.5q7 2 21.5 3t31 1.5t31.5 0.5h24q28 0 53.5 -12.5t51.5 -21.5q10 15 18.5 28t8.5 18q0 2 -1 2l37 57q5 8 13 8t14 -6.5t12 -12.5l-35 -75l1 -1q0 -4 -7.5 -13t-13.5 -18q21 -8 31 -20t27 -31l46 -49q14 -15 24 -44t16 -61t9 -63.5t3 -52.5
q0 -9 -3 -30t-6.5 -44t-8 -43.5t-7.5 -29.5q-6 -17 -14 -31.5t-14 -31.5l-33 -29l-12 -22q-11 -8 -20 -17.5t-18 -19.5q-11 -12 -25 -18.5t-28 -13.5q-11 -5 -15.5 -12t-13.5 -12h-6q-14 -11 -31 -11t-33 -4q-10 -2 -18.5 -6t-18.5 -6q-13 -2 -26 -2.5t-26 -0.5
q-28 0 -57 8.5t-57 13.5l-33 21l-4 -7q0 -7 -6 -13zM629 469q0 9 -8 29t-19.5 42.5t-24.5 43.5t-22 31l-32 -66l-21 -27l-32 -60q-6 -11 -8.5 -15t-6 -9.5t-10 -16.5t-20.5 -35l-39 -71.5t-23 -44.5l-12 -25.5t-6.5 -14.5t-5.5 -12.5t-10 -18.5l-16 -23q-2 -4 -5 -7l-50 -89
q29 -23 70 -30.5t76 -7.5q25 0 51 10t50 17q39 41 80 80q2 21 8.5 41.5t13.5 40.5t12.5 40t5.5 40q0 7 -0.5 13t-0.5 12q0 33 2.5 66t2.5 67zM151 296q0 -23 6 -48.5t16.5 -51t24.5 -48t30 -39.5q18 32 33 63.5t35 67.5l30 54q5 8 16 20t11 23l-1 1l59 111q7 13 11 18.5
t7 8.5t5 6t6 10q12 21 21.5 39.5t18 36t17.5 35.5t21 40q-16 11 -29.5 17.5t-27 9.5t-29 4t-36.5 1h-21t-24 -1.5t-23.5 -4t-18.5 -7.5q-72 -48 -104.5 -91t-38.5 -71l-12 -56t-6 -57q0 -14 2.5 -27.5t2.5 -27.5q0 -9 -1 -18t-1 -18z" />
    <glyph glyph-name="infinity" unicode="&#x221e;" horiz-adv-x="194" 
d="M288 119q-42 5 -82.5 4t-82.5 4q-11 2 -20 6.5t-19 4.5t-20.5 -7t-24.5 -7q-7 0 -10 4.5t-2 10.5v4q29 36 47 79q16 -1 31 -0.5t31 0.5q12 0 23.5 -2t23.5 -2q11 0 20.5 2t20.5 2q18 0 36 -3.5t36 -3.5q15 0 20.5 6t14.5 16q8 2 13 2t11.5 -2t6.5 -9q0 -11 -8.5 -18
t-14.5 -15q-4 -6 -6 -12.5t-6 -12.5q-8 -14 -19.5 -25.5t-19.5 -25.5z" />
    <glyph glyph-name="yen" unicode="&#xa5;" horiz-adv-x="667" 
d="M219 378q-14 26 -26.5 51.5t-22.5 53.5q-5 14 -9 27.5t-12 25.5q-23 36 -34.5 58.5t-18 36t-10 21t-9.5 13.5t-18.5 13.5t-35.5 21.5q0 2 -1.5 5.5t-1.5 4.5q0 11 7.5 14t17.5 3q7 0 13 -0.5t11 -0.5q9 0 18 2t19 2q28 0 55.5 -1.5t55.5 -1.5q10 0 19.5 1.5t19.5 1.5
q9 0 20 -3.5t11 -15.5q0 -8 -11.5 -13t-25 -10.5t-24.5 -13.5t-11 -21q0 -17 14.5 -37.5t24.5 -37.5q11 -20 16 -42t17 -41q18 -29 36 -57.5t31 -60.5l25 -2q15 20 29.5 41.5t22.5 45.5q2 8 6 20.5t8 18.5q6 10 19.5 30.5t27 42.5t24 42t10.5 30q0 13 -12 21.5t-26 14.5
t-26 11.5t-12 13.5q0 10 4 18h30q39 0 78 1t77 1q6 0 9.5 -6.5t3.5 -9.5q0 -8 -8.5 -14.5t-20 -13.5t-22.5 -15t-16 -19q-20 -43 -43.5 -84t-43.5 -85q-12 -27 -26.5 -52.5t-30.5 -50.5h102q14 0 14 -16q0 -17 -7 -21.5t-18 -4.5q-7 0 -14 0.5t-15 0.5h-82q-6 -13 -12 -25.5
t-13 -25.5q18 0 29.5 0.5t22 0.5t22 0.5t29.5 0.5q14 0 16 -8.5t2 -19.5q0 -9 -9 -12t-20 -3q-8 0 -14.5 0.5t-10.5 0.5h-70q0 -3 0.5 -5.5t0.5 -5.5q0 -24 -1 -48.5t-3 -48.5q-1 -9 -3 -18t-2 -19q0 -21 17 -33.5t37.5 -21.5t37.5 -17t17 -19q0 -8 -15 -10t-29 -2
q-32 0 -61.5 5.5t-61.5 5.5q-31 0 -61 -4t-61 -4q-6 0 -12.5 2.5t-6.5 10.5q0 11 5 17l52 17q8 6 19.5 16t11.5 21q0 10 -1 19t-1 19q0 14 2.5 27.5t2.5 27.5q0 16 -3.5 31t-3.5 30v7h-24h-16.5t-16.5 0.5t-24 0.5q-9 0 -14.5 0.5t-8 2.5t-3 7t-0.5 15q0 8 2 11.5t10 3.5h28
t20.5 -0.5t20.5 -0.5h28q-2 17 -9 27t-16 23q-25 0 -49.5 -0.5t-48.5 -0.5q-16 0 -21 6t-5 22q0 10 4 13t10 3q3 0 6 -0.5t7 -0.5q17 0 34.5 0.5t34.5 0.5z" />
    <glyph glyph-name="integral" unicode="&#x222b;" horiz-adv-x="450" 
d="M400 205v-57h-351v57h351z" />
    <glyph glyph-name="ae" unicode="&#xe6;" horiz-adv-x="722" 
d="M551 362q11 0 30.5 -9t38.5 -22t33 -28t14 -27q0 -5 -3.5 -13.5t-8 -18t-9.5 -18t-7 -13.5l-38 -15q-20 1 -41 1t-41 2v5l-7 3l6 -9q-17 -3 -34.5 -7t-34.5 -4q-18 0 -35.5 3t-35.5 5q-8 -3 -10.5 -9.5t-2.5 -14.5q0 -9 8 -24.5t13 -23.5q10 -8 19.5 -15.5t18.5 -16.5
q18 -7 32 -10.5t27.5 -5.5t28 -3t32.5 -2q8 5 18 7.5t19.5 5t18.5 6t14 11.5q5 6 12.5 19t15.5 13t13.5 -6.5t5.5 -14.5q0 -13 -8.5 -28t-13.5 -27q-12 -7 -23 -17.5t-20 -21.5q-12 -2 -22 -7t-20 -12q-20 -2 -40.5 -3.5t-40.5 -1.5q-13 0 -25.5 0.5t-25.5 0.5
q-12 8 -26.5 14.5t-29.5 8.5l-5 5l2 12l-12 -7l-29 22q-2 0 -2.5 0.5t-2.5 0.5q-8 0 -17.5 -5t-19.5 -12t-19.5 -14t-16.5 -11q-6 -3 -18 -6.5t-26 -7t-27 -5.5t-19 -2q-15 0 -27 8.5t-26 10.5l-11 9l-13 4q-6 2 -11 12.5t-9.5 23.5t-7 25.5t-2.5 18.5t3.5 15.5t9 19.5
t12 17t12.5 9q17 5 32.5 10t31.5 14q12 0 23.5 3t23.5 5q26 4 42 3.5t24.5 3.5t11.5 17t3 43q0 28 -22 41t-47 13q-18 0 -29 -7t-17.5 -17.5t-11.5 -24t-12 -26.5q-7 -2 -17.5 -7.5t-14.5 -5.5q-5 0 -9 2l-8 4l-13.5 6t-6.5 5t-2 8v14q0 12 1.5 19t5 12t10 9t15.5 11l5 8
l21 4q10 8 23 19.5t26 11.5q19 0 34.5 -0.5t29.5 -2t29 -3.5t34 -6q10 -7 19 -13t20 -11l17 -22q18 20 41 32t49 18t52.5 8t52.5 2zM475 237l76 3q9 0 15.5 11.5t6.5 19.5q0 14 -12.5 21t-22.5 12q-14 8 -30 18t-33 10q-15 0 -31 -8t-28.5 -20t-21 -27.5t-8.5 -30.5
q0 -5 3 -9t8 -4zM171 47q14 0 29 0.5t29 1.5q6 5 15 8.5t16.5 8t13 10.5t5.5 16q0 8 -3 15l-6 14l2 24l-7 8q-14 -2 -27.5 -5t-27.5 -5q-10 -2 -19.5 -1.5t-19.5 -0.5q-17 -2 -27.5 -18.5t-10.5 -31.5q0 -6 3.5 -14t8.5 -14.5t12 -11t14 -4.5z" />
    <glyph glyph-name="oslash" unicode="&#xf8;" 
d="M350 448q7 5 9 5q11 0 17 -9.5t6 -14.5l-25 -62q0 -1 -2.5 -6t-5.5 -14q60 -17 88.5 -62t28.5 -107q0 -32 -12.5 -58.5t-31.5 -47.5t-42 -36.5t-44.5 -26t-38 -15.5t-22.5 -5q-17 0 -34 1.5t-34 2.5q-1 -2 -1 -4q0 -1 -1 -1v1q1 1 -3.5 -11.5t-11.5 -28t-13.5 -28.5
t-9.5 -13q-5 0 -12 3.5t-7 5.5q0 -1 2.5 8t6.5 21.5t8.5 26.5t8.5 24q-32 10 -58 22.5t-44 30t-28 42t-10 59.5q0 23 8 48t15 47q37 29 64 67q20 8 40.5 19t40.5 16q7 1 20 3t28 3.5t30 2.5t27 1q5 0 7 -1l6 15q2 5 5 9.5t8 14.5zM152 88q6 -11 8.5 -17.5t5.5 -11t9 -7.5
t18 -6q11 29 22 57.5t23.5 60.5t26.5 68t31 80q-11 4 -24.5 8t-24.5 4q-4 0 -13 -3.5t-19 -7.5t-20 -8.5t-16 -5.5q-10 -15 -17 -23t-12 -14.5t-8.5 -14t-5 -21.5t-2 -37.5t-0.5 -60.5q0 -11 6.5 -20.5t11.5 -19.5zM361 217q0 7 -4 16.5t-9 20t-11 21t-10 18.5
q-12 -29 -26.5 -65t-28.5 -72t-27.5 -69t-22.5 -57q7 -4 14.5 -7t15.5 -3q7 0 19 2.5t24.5 7t22.5 11t13 13.5q5 13 9.5 25.5t12.5 24.5q3 28 5.5 56.5t2.5 56.5z" />
    <glyph glyph-name="questiondown" unicode="&#xbf;" horiz-adv-x="445" 
d="M77 -156q-14 15 -26 32.5t-12 39.5q0 8 1.5 16.5t2.5 16.5q1 6 0 12t-1 12q0 20 14.5 35.5t23.5 31.5q6 10 9.5 20.5t9.5 20.5q6 8 13.5 15t14.5 15q13 16 24.5 32t28.5 28q3 17 11.5 37.5t20.5 33.5q1 6 2.5 19t4.5 26t8 23t14 10q12 0 15.5 -11t3.5 -20
q0 -52 -15.5 -94.5t-34 -75.5t-35 -57.5t-17.5 -40.5q-2 -20 -3.5 -41t-1.5 -41q0 -6 5.5 -13.5t13.5 -14.5t16 -11.5t14 -4.5q4 0 16.5 2.5t26.5 6.5t27 7t19 5l32 38q2 0 3.5 0.5t3.5 0.5q7 0 13 -3.5t6 -11.5q0 -2 -2 -8.5t-5 -14t-5.5 -14.5t-3.5 -11q-17 -11 -28 -28
q-25 -10 -35 -19.5t-18.5 -17t-23 -12.5t-47.5 -5q-17 0 -29.5 3.5t-24 8.5t-23.5 11t-27 11zM182 478q0 7 7.5 14.5t17.5 13t20.5 9t16.5 3.5q11 0 20 -5.5t15 -14.5t9.5 -20t3.5 -21q0 -26 -12.5 -42t-39.5 -16q-6 0 -15.5 2t-19 6t-16.5 10t-7 13v48z" />
    <glyph glyph-name="exclamdown" unicode="&#xa1;" horiz-adv-x="389" 
d="M84 -49q0 50 9 99.5t15 99.5q1 11 4.5 39.5t9.5 58t15.5 52.5t22.5 23q5 0 8.5 -3t3.5 -8q0 -26 -3.5 -51.5t-3.5 -50.5q0 -10 1.5 -19.5t2.5 -19.5q1 -11 0.5 -21t-0.5 -21q0 -30 7.5 -58.5t16 -57.5t16 -59.5t7.5 -63.5q0 -12 -2.5 -27t-8.5 -28.5t-16 -22.5t-25 -9
q-9 0 -17.5 5t-15.5 10q-11 9 -17 17.5t-9 17.5t-4.5 19.5t-4.5 23.5q-3 14 -7.5 27.5t-4.5 27.5zM208 449q0 -12 -6.5 -22t-16 -17t-21.5 -11t-23 -4q-24 0 -38 17.5t-14 40.5q0 26 20 42.5t44 16.5q26 0 40.5 -19.5t14.5 -43.5z" />
    <glyph glyph-name="florin" unicode="&#x192;" horiz-adv-x="695" 
d="M322 427q7 51 18.5 105.5t36 98.5t65 72.5t105.5 28.5q17 0 36 -4.5t35.5 -14t27 -24.5t10.5 -35q0 -23 -16 -40.5t-40 -17.5q-22 0 -38.5 14.5t-16.5 37.5q0 16 11 30q-15 8 -34 8q-27 0 -44.5 -17t-28.5 -41.5t-16.5 -51.5t-8.5 -48l-16 -101h94l-9 -45h-91l-34 -239
l-7 -53q-6 -44 -20.5 -89.5t-40.5 -83t-64 -61.5t-90 -24q-18 0 -38 4t-37 13t-28.5 23.5t-11.5 36.5t15.5 35.5t36.5 13.5q20 0 35.5 -14t15.5 -35q0 -16 -10 -29q9 -5 21 -5q27 0 48.5 20t36.5 48t24 58.5t12 52.5q2 14 3.5 27.5t3.5 27.5l40 273h-90l5 46z" />
    <glyph glyph-name="guillemotleft" unicode="&#xab;" horiz-adv-x="383" 
d="M345 85q5 -8 5 -16q0 -12 -12 -12q-3 0 -6 3l-148 154q-10 10 -10 22q0 10 8 18l145 140q5 5 13 5t8 -8q0 -9 -5 -17l-87 -143zM206 85q5 -8 5 -16q0 -12 -12 -12q-3 0 -6 3l-148 154q-10 10 -10 22q0 10 8 18l145 140q5 5 13 5t8 -8q0 -9 -5 -17l-87 -143z" />
    <glyph glyph-name="guillemotright" unicode="&#xbb;" horiz-adv-x="383" 
d="M127 231q-6 9 -21 32t-30.5 49t-28 48.5t-12.5 30.5t8 8q4 0 16.5 -9.5t28 -24t33.5 -31.5t34 -33.5t28.5 -29l17.5 -17.5q8 -8 8 -18q0 -7 -2.5 -12t-7.5 -10q-4 -4 -17 -17.5t-29.5 -31t-34.5 -36.5t-34 -35t-27 -26.5t-12 -10.5q-11 0 -11 12q0 7 12.5 30.5t28.5 49.5
t31.5 49.5t20.5 32.5zM179 374q-5 8 -5 17q0 8 8 8t13 -5l145 -140q8 -8 8 -18q0 -12 -10 -22l-148 -154q-3 -3 -6 -3q-11 0 -11 12q0 9 4 16l89 146z" />
    <glyph glyph-name="ellipsis" unicode="&#x2026;" horiz-adv-x="833" 
d="M196 35q-8 -13 -13 -21t-11 -12t-15 -5.5t-25 -1.5q-28 0 -39.5 21.5t-11.5 45.5q0 7 5 11.5t10 9.5q6 7 10 11.5t8 7.5t10 4t16 1q18 0 29 -5.5t16.5 -15t7.5 -23t3 -28.5zM751 35q-8 -14 -13 -22t-11.5 -12t-16.5 -5t-26 -1q-13 0 -22 6.5t-14.5 16.5t-8 21.5
t-2.5 22.5q0 3 2 9q8 7 13 13.5t10.5 11.5t13 8t19.5 3q18 0 29 -5.5t16.5 -15t7.5 -23t3 -28.5zM474 35q-9 -14 -14 -21.5t-11 -12t-15.5 -5.5t-27.5 -1q-13 0 -22 6.5t-14.5 16.5t-8 21.5t-2.5 22.5q0 8 5 12t10 9q6 7 10 11.5t8 7.5t9.5 4t15.5 1q20 0 30.5 -5t16 -14.5
t7 -23t3.5 -29.5z" />
    <glyph glyph-name="Agrave" unicode="&#xc0;" horiz-adv-x="667" 
d="M189 921q0 24 16.5 41.5t41.5 17.5q29 0 51 -18t41 -38q20 -22 42.5 -41t45.5 -38q8 -7 16.5 -16t8.5 -20q0 -6 -4.5 -10.5t-10.5 -4.5q-5 3 -11 4t-12 3q-21 6 -41.5 13t-40.5 15q-18 6 -42.5 12t-47 15.5t-38 24.5t-15.5 40zM385 653q0 -12 4.5 -23t7.5 -22
q3 -9 12 -29.5t19 -44t18.5 -45.5t10.5 -34l12 -49q6 -16 15.5 -30t14.5 -31q17 -58 32 -115.5t38 -114.5q7 -17 10.5 -27t7.5 -17t9 -11.5t16 -11.5q3 -2 8.5 -5t11 -7t10 -9t4.5 -10q0 -14 -14.5 -17t-24.5 -3q-55 0 -109 1l-108 2q-5 5 -8.5 9.5t-3.5 11.5q0 5 3 8l68 24
q10 4 15 12.5t5 18.5q0 20 -10 36t-17 33q-3 7 -5.5 17.5l-5 21t-5.5 20t-7 14.5l-14 22h-198q-14 0 -22.5 -13.5t-13.5 -32t-8 -37t-5 -28.5q-2 -8 -6.5 -20t-4.5 -18q0 -20 12.5 -29.5t27 -16t27 -14.5t12.5 -26q0 -11 -12 -11l-18 -1l-71 3q-5 0 -12 -1.5t-13 -3.5
q-6 3 -14.5 3.5t-16.5 0.5h-20q-5 0 -11 0.5t-11.5 2t-9.5 5t-4 10.5q0 9 13.5 17.5t22.5 16.5q19 16 28 29t13 25.5t6.5 28t8.5 36.5l17 44l6 35q3 17 13.5 31t16.5 30q8 21 14 43t14 44q8 25 19.5 48.5t19.5 49.5q5 18 8.5 36.5t11.5 35.5q5 11 12 21t11 22q4 11 5.5 21.5
t6.5 20.5q8 15 22 23.5t27 18.5q9 7 16 13.5t14.5 11.5t17 8.5t23.5 3.5q3 0 6.5 -1.5t3.5 -5.5q-8 -15 -16.5 -36.5t-8.5 -38.5zM220 310h137q3 0 8.5 0.5t11 2t10 4t4.5 5.5t-4.5 15t-10 26.5t-11 27t-8.5 16.5l-22 36q-5 12 -7 27t-4 28.5t-7 23t-17 11.5l-6 1
q-5 0 -10 -10.5t-9 -24.5t-7.5 -29t-6.5 -25q-20 -63 -42 -126z" />
    <glyph glyph-name="Atilde" unicode="&#xc3;" horiz-adv-x="667" 
d="M408 877q25 0 34.5 11.5t14 25.5t7.5 25.5t15 11.5q13 0 16.5 -10t3.5 -20q0 -21 -6 -41.5t-18 -37t-30 -26.5t-41 -10q-27 0 -54 11t-50 24t-42 24t-31 11q-22 0 -30 -11t-11.5 -24t-7 -24t-15.5 -11q-20 0 -20 22q0 21 5.5 42.5t17 39.5t29 29.5t41.5 11.5
q28 0 54 -11.5t48.5 -25.5t40.5 -25.5t29 -11.5zM385 653q0 -12 4.5 -23t7.5 -22q3 -9 12 -29.5t19 -44t18.5 -45.5t10.5 -34l12 -49q6 -16 15.5 -30t14.5 -31q17 -58 32 -115.5t38 -114.5q7 -17 10.5 -27t7.5 -17t9 -11.5t16 -11.5q3 -2 8.5 -5t11 -7t10 -9t4.5 -10
q0 -14 -14.5 -17t-24.5 -3q-55 0 -109 1l-108 2q-5 5 -8.5 9.5t-3.5 11.5q0 5 3 8l68 24q10 4 15 12.5t5 18.5q0 20 -10 36t-17 33q-3 7 -5.5 17.5l-5 21t-5.5 20t-7 14.5l-14 22h-198q-14 0 -22.5 -13.5t-13.5 -32t-8 -37t-5 -28.5q-2 -8 -6.5 -20t-4.5 -18
q0 -20 12.5 -29.5t27 -16t27 -14.5t12.5 -26q0 -11 -12 -11l-18 -1l-71 3q-5 0 -12 -1.5t-13 -3.5q-6 3 -14.5 3.5t-16.5 0.5h-20q-5 0 -11 0.5t-11.5 2t-9.5 5t-4 10.5q0 9 13.5 17.5t22.5 16.5q19 16 28 29t13 25.5t6.5 28t8.5 36.5l17 44l6 35q3 17 13.5 31t16.5 30
q8 21 14 43t14 44q8 25 19.5 48.5t19.5 49.5q5 18 8.5 36.5t11.5 35.5q5 11 12 21t11 22q4 11 5.5 21.5t6.5 20.5q8 15 22 23.5t27 18.5q9 7 16 13.5t14.5 11.5t17 8.5t23.5 3.5q3 0 6.5 -1.5t3.5 -5.5q-8 -15 -16.5 -36.5t-8.5 -38.5zM220 310h137q3 0 8.5 0.5t11 2t10 4
t4.5 5.5t-4.5 15t-10 26.5t-11 27t-8.5 16.5l-22 36q-5 12 -7 27t-4 28.5t-7 23t-17 11.5l-6 1q-5 0 -10 -10.5t-9 -24.5t-7.5 -29t-6.5 -25q-20 -63 -42 -126z" />
    <glyph glyph-name="Otilde" unicode="&#xd5;" horiz-adv-x="778" 
d="M751 364q0 -9 -3 -30t-6.5 -44t-8 -43.5t-7.5 -29.5q-6 -17 -14 -31.5t-14 -31.5l-33 -29l-12 -22q-11 -8 -20 -17.5t-18 -19.5q-11 -12 -25 -18t-28 -14q-10 -5 -15.5 -12t-13.5 -12h-6q-14 -11 -31 -11t-33 -4q-10 -2 -18.5 -6t-18.5 -6q-13 -2 -26 -2.5t-26 -0.5
q-28 0 -57 8.5t-57 13.5q-12 8 -24.5 16.5t-25.5 14.5q-8 4 -15 5.5t-15 5.5q-20 10 -37.5 28t-31.5 30q-8 6 -19 23.5t-22 37.5t-19 39t-9 29l-8 65q-2 16 -4 31.5t-3 31.5q0 40 11 78.5t29 74.5t42.5 68.5t51.5 60.5q12 12 32.5 25t44.5 24.5t49.5 21t47.5 15.5
q3 1 18.5 1.5t33.5 1.5t34.5 1.5t21.5 0.5q26 0 49.5 -11t46.5 -19q14 -5 27.5 -8t26.5 -8q19 -8 32.5 -23t27.5 -29l46 -49q14 -15 22.5 -35.5t13.5 -43t7 -45t4 -42.5q2 -14 3.5 -27.5t1.5 -27.5zM569 889q23 0 33.5 13.5t16.5 29.5t11 29.5t18 13.5q14 0 18.5 -9t4.5 -21
q0 -28 -8.5 -52.5t-24.5 -43t-39.5 -29.5t-52.5 -11q-42 0 -84 13t-80 29t-72 29t-61 13q-24 0 -35.5 -10t-16 -23.5t-6.5 -27.5t-8 -21h-19q-22 0 -22 22q0 27 9 52.5t25.5 45t40 31.5t52.5 12q27 0 62.5 -8t60.5 -20l18 -10t20 -7q18 -4 33.5 -10.5l31 -13t33.5 -11.5
t41 -5zM148 387q0 -14 2.5 -28t2.5 -28q0 -9 -1 -17.5t-1 -17.5q0 -55 19 -101.5t52.5 -80.5t80 -53t101.5 -19q26 0 51.5 10t49.5 17q39 41 80 80q2 21 8.5 41.5t13.5 40.5t12.5 40t5.5 40q0 7 -0.5 13t-0.5 12q0 33 2.5 66t2.5 67q0 12 -5 25.5t-12 27t-15 26.5t-14 24
q-17 31 -36 51t-41.5 31.5t-50 16t-61.5 4.5q-18 0 -44 -1.5t-41 -11.5l-21 -15t-29 -21.5t-27.5 -22.5t-15.5 -16q-6 -9 -11.5 -19t-11.5 -19q-6 -8 -10 -12.5t-7 -9t-5.5 -10.5t-4.5 -17q-5 -27 -11.5 -56t-6.5 -57z" />
    <glyph glyph-name="OE" unicode="&#x152;" horiz-adv-x="1000" 
d="M566 727q16 0 31 -2t31 -3q23 -1 46.5 0t46.5 1q20 0 40 -2.5t40 -2.5q26 0 52 4t52 4q7 0 17 -5.5t10 -13.5q0 -14 -2.5 -28.5t-3.5 -28.5q0 -6 -0.5 -21.5t-2 -31.5t-6 -28.5t-13.5 -12.5q-5 0 -13 4q-11 37 -31 65q-14 19 -20 26.5t-13 10t-17.5 1.5t-32.5 1
q-6 1 -11.5 2t-11.5 1t-12 -2t-12 -2q-7 0 -13 1t-13 1q-17 0 -34.5 -1.5t-34.5 -0.5l-10 -4t-10 -3l-5 -8l-1 -11l-2 -4q2 -15 2 -30v-30q0 -4 1 -24t3 -43q2 -27 4 -61q2 -4 5.5 -4.5t6.5 -0.5q7 0 10 2h5h5l1 -5l1 6l12 -2q24 5 51 2t52 -3q11 0 20 8t17 15q1 5 3.5 16
t6.5 22.5t8.5 20t10.5 8.5q8 0 15 -8t7 -16q0 -26 -5.5 -52.5t-5.5 -52.5q0 -17 3 -34t3 -34q0 -13 -1.5 -19t-5 -9t-9 -6.5t-12.5 -12.5l-9 2q-5 6 -5.5 13.5t-1.5 15.5q-9 11 -14 26.5t-7 29.5q-10 2 -20 5l-20 6q-9 -1 -17.5 -2t-17.5 -1q-20 0 -39.5 2.5t-39.5 2.5
q-7 0 -10.5 -5t-4.5 -12t-1 -14.5t-1 -11.5q-2 -8 -5 -15t-3 -15q0 -20 5 -38.5t5 -38.5q0 -14 -3.5 -27.5t-6.5 -27.5q2 -12 3.5 -28t5 -31.5t10 -28.5t19.5 -19q4 -2 8 -4.5t7 -5.5l1 -7q8 1 15 2t15 1q14 0 28.5 -3t28.5 -5q18 10 41 14.5t43 7.5q9 10 21.5 22.5
l25.5 25.5t24 25.5t16 23.5q2 4 5.5 14t7.5 20.5t9 18t11 7.5q14 0 18.5 -9.5t4.5 -20.5q0 -23 -11 -42t-16 -41q-5 -23 -4.5 -47t-2.5 -48q-2 -11 -11 -20t-20 -9q-8 0 -14.5 3.5t-13.5 7.5q-6 0 -12 0.5t-12 0.5q-14 0 -28 -3t-28 -3q-23 0 -46.5 3t-46.5 3q-29 0 -57 -2
t-57 -2q-7 0 -13.5 2.5t-13.5 2.5q-12 0 -24 -3.5t-24 -3.5q-20 0 -40 3t-40 3t-40 -1.5t-40 -1.5q-22 0 -39 7t-37 10q-14 2 -27.5 3t-26.5 8l-10 12l-18 9l-6 7q-15 4 -25 15t-24 16l-71 97q-8 10 -15 33t-12.5 49.5t-8.5 50.5t-3 38q0 18 3.5 47.5t10.5 60.5t16.5 58
t20.5 41q17 20 34 44t37 42q13 12 33 25.5t42 24.5t44.5 18t41.5 7q33 0 65.5 -2t65.5 -2q29 0 58 2.5t58 2.5h1zM304 671q-17 -11 -34 -20.5t-30 -26.5q-4 -5 -6.5 -10.5t-6.5 -10.5q-8 -11 -17.5 -20t-18.5 -20q-6 -7 -9.5 -21.5t-6.5 -31t-5 -32t-4 -25.5
q-4 -18 -7.5 -36t-3.5 -37q0 -13 3 -25.5t4 -25.5q0 -5 -1 -9t-1 -9q0 -14 3 -26.5t5 -25.5q6 -33 13.5 -55.5t18.5 -41.5t26.5 -37t38.5 -42q17 -7 28 -11.5t21 -7.5t22 -4t32 -1q16 0 26 3.5t24 12.5q24 16 34.5 25t15 18.5t6 23t9.5 38.5q4 15 8 24.5t7 19t5 20.5t2 28
q0 38 -3 75t-3 75q0 23 1.5 46t2.5 46q-17 37 -20 78q-11 21 -27 43q-11 5 -20 12.5t-20 12.5q-5 3 -20.5 5t-33.5 3.5t-34.5 2t-23.5 0.5z" />
    <glyph glyph-name="oe" unicode="&#x153;" horiz-adv-x="778" 
d="M424 291q8 12 19 18.5t23 14.5q16 10 24 15.5t15.5 8.5t17.5 3.5t30 0.5q25 0 51 -1t50.5 -7.5t45 -20t34.5 -38.5q4 -7 4 -15t-6.5 -17t-10.5 -16q-5 -8 -7 -14t-5 -10t-8.5 -6t-16.5 -2q-17 0 -34.5 1t-34.5 1q-19 0 -37.5 -4.5t-37.5 -4.5q-25 0 -49.5 3t-49.5 5l5 -6
l-6 -8q0 -3 -0.5 -5.5t-0.5 -5.5q0 -10 0.5 -19.5t1.5 -19.5q1 -13 15 -26.5t32.5 -24.5t38 -18t31.5 -7h14q24 0 35.5 1t20.5 3.5t19 7t30 11.5q2 3 7.5 9.5t12 13.5t12 12.5t7.5 5.5q6 0 10.5 -5t4.5 -11q0 -13 -7 -29q-8 -20 -15.5 -28.5t-16 -14.5t-17.5 -12.5
t-20 -21.5q-8 0 -14 -5.5t-14 -7.5q-3 -1 -22.5 -2t-42.5 -1.5t-42 -1t-20 -0.5q-15 8 -29.5 13.5t-29 11.5t-28 14t-26.5 20l-38 -36q-16 -1 -36 -7.5t-32 -17.5q-29 2 -59.5 1.5t-59.5 8.5q-12 4 -22.5 10.5t-23.5 8.5q-26 26 -48 57.5t-22 70.5q0 6 2 21.5t5.5 32t7.5 31
t8 18.5q9 10 19.5 18.5t19.5 18.5q11 11 19.5 21t18.5 18t21.5 13.5t28.5 7.5q14 2 27 3t25 9h10q28 2 54.5 -6t54.5 -13zM180 291q-11 -16 -18.5 -25t-13 -17t-8 -19.5t-2.5 -32.5q0 -10 3 -33t9 -47t13.5 -44t16.5 -24q5 -3 11 -5t11 -5q12 -7 21.5 -14t24.5 -7q3 0 11 3
t17 7.5t17.5 8t13.5 5.5q4 7 10 18.5t11.5 23.5t9.5 23.5t4 19.5q0 28 0.5 62t-7 63t-27.5 49t-60 20q-20 0 -35.5 -11.5t-32.5 -18.5zM485 301q-6 -14 -12.5 -26.5t-13.5 -25.5q0 -6 5 -7.5t10 -1.5q6 0 12 1t12 1q27 0 53.5 -2t53.5 -2q13 0 19.5 0.5t9.5 4t3 10.5v19
q0 8 -7.5 15t-17.5 13t-20.5 11t-16.5 9h-11q-20 2 -40 -4.5t-39 -14.5z" />
    <glyph glyph-name="endash" unicode="&#x2013;" horiz-adv-x="1000" 
d="M676 202q17 -14 17 -30q0 -8 -3.5 -14t-10.5 -8h-70h-23t-29.5 -0.5t-30.5 -0.5h-26q-21 0 -51.5 -0.5t-62.5 -1.5t-61.5 -1.5t-48.5 -1t-24 0t12 2.5q-20 0 -33.5 1t-23.5 1.5t-18 1t-17 0.5h-23t-32 -3l-61 7q-8 1 -10.5 7t-2.5 12q0 9 2 17t4 17q14 2 29 3t29 1
q36 0 70.5 -3t60.5 -3h15.5t13.5 2q33 -2 48 -3t20 -1t4 0.5t-0.5 0.5t6.5 0.5t24.5 0.5t54 -1t94.5 -3q1 1 3 1q5 0 8 -1h39q9 0 15.5 0.5t6.5 1.5z" />
    <glyph glyph-name="emdash" unicode="&#x2014;" horiz-adv-x="901" 
d="M838 205q17 -14 17 -30q0 -8 -3.5 -14t-10.5 -8h-70h-23t-29.5 -0.5t-30.5 -0.5h-26q-49 0 -92 -2.5t-95 -2.5h-55q-19 0 -26.5 0.5t-12 0.5t-8.5 0.5t-15.5 0.5t-33 -0.5t-60.5 -1.5q-20 0 -33.5 1t-23.5 1.5t-18 1t-17 0.5h-23t-32 -3l-61 7q-8 1 -10.5 7t-2.5 12
q0 9 2 17t4 17q14 2 29 3t29 1q36 0 70.5 -3t60.5 -3h15.5t13.5 2q0 -2 11.5 -3t28.5 -1q44 0 71.5 0.5t44 1t24.5 1.5t14 1.5l12 1t19 0.5l25 -3q5 0 7 -2h156q1 1 3 1q5 0 8 -1h39q9 0 15.5 0.5t6.5 1.5z" />
    <glyph glyph-name="quotedblleft" unicode="&#x201c;" horiz-adv-x="555" 
d="M122 719q0 -1 -4 -11.5t-5 -12.5q3 -21 4 -31.5t6 -14.5t15 -3.5t31 1.5q35 -11 35 -47q0 -12 -1 -19t-4 -12t-8.5 -9t-15.5 -10q-8 -5 -13.5 -8.5t-15.5 -3.5q-21 0 -35 11t-22.5 28t-11.5 36.5t-3 36.5q0 8 1 22.5t4.5 28.5t10.5 24.5t18 10.5q6 0 10 -6t4 -11z
M400 722q-2 -7 -5 -13.5t-5 -13.5l4.5 -31.5t6 -14.5t15 -3.5l31.5 1.5q17 -8 25.5 -17.5t8.5 -29.5q0 -12 -1 -19t-4 -12t-8.5 -9t-15.5 -10q-8 -5 -13.5 -8.5t-14.5 -3.5q-21 0 -35.5 11t-22.5 28t-11.5 36.5t-3.5 36.5q0 8 1 22.5t5 28.5t10.5 24.5t17.5 10.5q5 0 9.5 -5
t5.5 -9z" />
    <glyph glyph-name="quotedblright" unicode="&#x201d;" horiz-adv-x="555" 
d="M205 604q0 -6 -2.5 -18t-7 -24t-11 -21t-14.5 -9t-10.5 6t-2.5 13t1.5 13.5t3.5 13.5q-3 19 -6.5 27.5t-9.5 10.5t-16 1t-27 0q-11 5 -21 17.5t-10 24.5q0 31 13 47.5t46 16.5q22 0 36 -12t22.5 -30t12 -39t3.5 -38zM483 604q0 -6 -3 -18t-8 -24t-11.5 -21t-12.5 -9
q-9 0 -11 7t-2 14t1.5 13t3.5 12q-5 19 -7.5 27t-8 10.5t-15.5 1.5t-29 0q-11 5 -20.5 17.5t-9.5 24.5q0 31 13 47.5t46 16.5q21 0 35 -12.5t23 -30.5t12.5 -38.5t3.5 -37.5z" />
    <glyph glyph-name="quoteleft" unicode="&#x2018;" horiz-adv-x="278" 
d="M122 719q0 -1 -4 -11.5t-5 -12.5q3 -21 4 -31.5t6 -14.5t15 -3.5t31 1.5q35 -11 35 -47q0 -12 -1 -19t-4 -12t-8.5 -9t-15.5 -10q-8 -5 -13.5 -8.5t-15.5 -3.5q-21 0 -35 11t-22.5 28t-11.5 36.5t-3 36.5q0 8 1 22.5t4.5 28.5t10.5 24.5t18 10.5q6 0 10 -6t4 -11z" />
    <glyph glyph-name="quoteright" unicode="&#x2019;" horiz-adv-x="278" 
d="M205 604q0 -6 -2.5 -18t-7 -24t-11 -21t-14.5 -9t-10.5 6t-2.5 13t1.5 13.5t3.5 13.5q-3 19 -6.5 27.5t-9.5 10.5t-16 1t-27 0q-11 5 -21 17.5t-10 24.5q0 31 13 47.5t46 16.5q22 0 36 -12t22.5 -30t12 -39t3.5 -38z" />
    <glyph glyph-name="divide" unicode="&#xf7;" horiz-adv-x="600" 
d="M246 522q0 6 6 14t14.5 15t19 11.5t19.5 4.5q32 0 44.5 -18.5t12.5 -47.5q0 -8 -3 -11t-6 -10q-8 -17 -18 -21t-28 -4q-33 0 -47 17.5t-14 49.5zM251 120q0 6 5.5 14t14 15t18.5 11.5t19 4.5q32 0 45.5 -18.5t13.5 -47.5q0 -8 -3 -11t-6 -10q-8 -17 -18 -21t-28 -4
q-33 0 -47 17.5t-14 49.5zM513 343q8 -6 10 -16.5t2 -18.5t-3.5 -14t-10.5 -8h-66h-13.5t-32 -0.5t-45 -0.5h-51.5h-139h1q-3 2 -14 2q-8 0 -18 -1t-21 -1q-14 0 -25.5 4t-11.5 17q0 14 2.5 26t23.5 12q51 0 78 -0.5t50 -1t53.5 -1t88.5 -0.5q32 0 43.5 0.5t17.5 0.5
q5 0 10 -0.5t17 -2.5z" />
    <glyph glyph-name="ydieresis" unicode="&#xff;" 
d="M375 338q12 0 23 -3.5t23 -3.5q14 0 26.5 1t25.5 1q6 0 8.5 -4t4.5 -9q-1 -5 -2.5 -9.5t-4.5 -8.5l-40 -7q-5 -1 -8.5 -9.5t-6.5 -19.5t-6 -21.5t-6 -14.5q-5 -8 -10.5 -14.5t-9.5 -14.5q-5 -11 -7 -24t-7 -24q-14 -33 -32.5 -64t-26.5 -66q-14 -12 -28 -27.5t-22 -32.5
l-16 -9l-24 -32q-15 -7 -28 -17.5t-24 -22.5q-21 -8 -38.5 -11.5t-40.5 -3.5h-9q-6 4 -12.5 7t-12.5 6q-2 9 -9 17t-7 16q0 9 2 13.5t5.5 7.5t8.5 5.5t11 6.5q7 5 16 12t17 7q9 0 18 -4.5t17.5 -9.5t16 -9.5t13.5 -4.5q3 0 9 2q9 12 19 18t18 13t13 16t5 27q0 4 -6 16.5
t-14 26.5t-15.5 26t-10.5 17q-9 13 -20 23.5t-19 23.5q-19 30 -34 61.5t-32 63.5q-9 5 -17 11.5t-15 14.5q-8 3 -20 7t-12 15q0 8 6 12.5t13 4.5q16 0 32 -2.5t32 -2.5q26 0 51 3t51 3q8 0 16 -6.5t8 -14.5q0 -10 -8 -13.5t-17 -5.5t-17 -4.5t-8 -10.5q0 -1 4.5 -10
t10 -19.5t10.5 -20t7 -11.5q8 -12 17 -22.5t17 -21.5q6 -8 12 -20.5l12 -25t12.5 -23.5t13.5 -17h1q7 0 11 9l42 117q1 3 3.5 10t5.5 14.5t5 13.5t2 8q0 12 -14 20t-30.5 14t-30 11t-13.5 10q0 11 10 17.5t20 6.5q9 0 18 -2t18 -3q8 -1 15 0t15 1zM312 490q0 6 6 14t14.5 15
t19 11.5t19.5 4.5q32 0 44.5 -18.5t12.5 -47.5q0 -8 -3 -11t-6 -10q-8 -17 -18 -21t-28 -4q-33 0 -47 17.5t-14 49.5zM94 486q0 6 5.5 14t14 15t18.5 11.5t19 4.5q32 0 45.5 -18.5t13.5 -47.5q0 -8 -3 -11t-6 -10q-8 -17 -18 -21t-28 -4q-33 0 -47 17.5t-14 49.5z" />
    <glyph glyph-name="Ydieresis" unicode="&#x178;" horiz-adv-x="667" 
d="M106 730q28 0 55.5 -1.5t55.5 -1.5q10 0 19.5 1.5t19.5 1.5q9 0 20 -3.5t11 -15.5q0 -8 -11.5 -13t-25 -10.5t-24.5 -13.5t-11 -21q0 -7 4.5 -17t11 -21t13 -21t10.5 -16q11 -20 16 -42t17 -41q20 -32 40 -64.5t34 -68.5l2 -1q5 0 15.5 13.5t21 31t19.5 34t12 22.5
q5 9 7 19.5t7 19.5q7 12 15.5 22.5t16.5 22.5q3 6 11.5 20.5t16.5 30.5t14.5 30t6.5 19q0 13 -12 21.5t-26 14.5t-26 11.5t-12 13.5q0 10 4 18h30q39 0 78 1t77 1q3 0 6 -3.5t5 -5.5q0 -1 1 -3.5t1 -3.5q0 -8 -8.5 -14.5t-20 -13.5t-22.5 -15t-16 -19q-14 -29 -27 -57
t-32 -55q-9 -14 -15.5 -28t-12.5 -29q-11 -27 -27 -52t-30 -51q-12 -23 -24.5 -47t-21.5 -48q-4 -9 -2.5 -23.5t1.5 -24.5q0 -24 -1 -48.5t-3 -48.5q-1 -9 -3 -18t-2 -19q0 -21 17 -33.5t37.5 -21.5t37.5 -17t17 -19q0 -6 -8 -8.5t-18.5 -3t-20.5 -0.5h-14q-27 0 -53 5.5
t-53 5.5q-31 0 -61 -4t-61 -4q-6 0 -12.5 2.5t-6.5 10.5q0 11 5 17l52 17q8 6 19.5 16t11.5 21q0 10 -1 19t-1 19q0 14 2.5 27.5t2.5 27.5q0 16 -3.5 31.5t-3.5 31.5q0 11 1 22t1 22q0 8 -7.5 23t-18 31.5t-20.5 31.5t-15 23q-21 34 -31.5 72t-30.5 71q-17 27 -31.5 53.5
t-27.5 55.5q-10 22 -29 33l-38 22q0 2 -1.5 5.5t-1.5 4.5q0 9 5.5 12.5t13.5 4.5t16 0t14 -1q9 0 18 2t19 2zM422 871q0 6 6 14t14.5 15t19 11.5t19.5 4.5q32 0 44.5 -18.5t12.5 -47.5q0 -8 -3 -11t-6 -10q-8 -17 -18 -21t-28 -4q-33 0 -47 17.5t-14 49.5zM161 875
q0 6 5.5 14t14 15t18.5 11.5t19 4.5q32 0 45.5 -18.5t13.5 -47.5q0 -8 -3 -11t-6 -10q-8 -17 -18 -21t-28 -4q-33 0 -47 17.5t-14 49.5z" />
    <glyph glyph-name="currency" unicode="&#xa4;" horiz-adv-x="626" 
d="M140 465l48 -47q32 20 58.5 29.5t64.5 9.5q20 0 36 -2.5t30 -7.5t28 -12.5t31 -18.5l47 47l36 -36l-44 -44q10 -16 17.5 -29.5t12.5 -28t7.5 -30t2.5 -34.5q0 -41 -10.5 -68.5t-32.5 -61.5l46 -44l-35 -35l-45 45q-17 -13 -31 -21.5t-29 -14t-31.5 -7.5t-37.5 -2
t-37.5 2.5t-31 7.5t-28.5 14t-31 21l-44 -43l-33 34l42 44q-19 32 -29 57.5t-10 63.5q0 40 11.5 68t33.5 61l-48 49zM449 259q0 30 -12.5 54.5t-32.5 42t-47 27t-55 9.5q-27 0 -50.5 -11.5t-41 -31t-27 -44.5t-9.5 -51q0 -27 10 -52t28 -43.5t42 -29.5t52 -11q29 0 55 11
t45.5 30t31 44.5t11.5 55.5z" />
    <glyph glyph-name="uniFB01" unicode="&#xfb01;" horiz-adv-x="556" 
d="M347 636q-1 8 -1 17t-2.5 16t-8 11.5t-17.5 4.5q-7 0 -14 -8.5t-12 -12.5q-11 -7 -22.5 -11.5t-22.5 -10.5q-3 -2 -9 -12.5t-11.5 -23t-10.5 -24.5t-7 -17v-23q0 -15 -4 -25t-6 -24q-2 -11 -2 -22.5v-22.5v-30q0 -15 0.5 -30.5t2.5 -29.5l2 -2q12 -3 23 -3h47l105 -8h20
q23 0 30 8.5t12 8.5q18 0 23 -20t5 -43q0 -13 -0.5 -23.5t-0.5 -17.5v-23q0 -12 -3 -22.5t-3 -19.5l7 -103q1 -23 2 -35.5t5.5 -18.5t15.5 -7t34 -2h2q6 -4 6 -13q0 -5 -3 -10t-8 -5q-1 0 -4 -1.5t-5 -1.5q-4 -2 -7 -2q-6 -2 -6 2l-112 4q-8 0 -16.5 -1.5t-16.5 -2.5
q-7 4 -19 4h-6q-8 7 -8 21q0 10 9.5 11t21 2.5t21 9t9.5 30.5l-7 97l4 93q0 8 -1 11.5t-9 7.5l-3 8q-17 4 -35 7.5t-35 3.5l-34 -2q-14 0 -28.5 2t-28.5 4l-11 -9q5 -59 4.5 -116.5t1.5 -116.5q0 -5 9.5 -10.5t22 -10.5t24 -9.5t16.5 -6.5l3 -7q0 -6 -3.5 -12t-9.5 -8
q-5 1 -11 2t-11 1l-14 -3l-30 3q-9 0 -18 -2.5t-18 -4.5q-11 2 -22 4.5t-22 2.5l-44 -3q-9 0 -18.5 3.5t-9.5 14.5q0 4 4 10l54 22l6 11l-2 36t-1 35l5 151q0 15 -13 23l-54 -3q-11 6 -17 12t-6 19q0 4 1.5 13t6.5 9l78 3l1.5 8.5t3 21t3 26t2.5 23.5q2 28 8 58t16 59
t25.5 54.5t37.5 43.5l33 28q7 6 11 9.5t7.5 5.5t9 3.5t14.5 2.5l16 15l14 2q4 2 7 4t7 4h10l38 4q35 0 53.5 -16t18.5 -52q0 -21 -9 -30l-22 -22l-8 -2q-9 1 -18.5 1.5t-18.5 3.5q-5 6 -9 11.5t-9 10.5h-1z" />
    <glyph glyph-name="uniFB02" unicode="&#xfb02;" horiz-adv-x="611" 
d="M502 717q-2 -16 -2 -32v-33v-44l-4 -26l7 -57l-5 -63l7 -70v-151q0 -7 -1.5 -13.5t-2.5 -13.5q-2 -20 -2 -40.5v-40.5v-53q0 -19 11 -26.5t24.5 -11.5t25 -8t11.5 -16t-9 -20h-161q-1 0 -10 0.5t-19.5 2.5t-19 6.5t-8.5 12.5q0 16 10.5 19.5t22.5 5t22.5 5t10.5 20.5
l-7 64l4 44l-4 60l4 47q0 11 -8.5 14.5t-19.5 3.5q-8 0 -16 -1t-13 -1l-49 4l-32 -5q-17 0 -35 1.5t-37 3.5v-75l4 -27l-2 -31l4 -43l-6 -48q0 -14 12.5 -22.5t27.5 -14.5l27.5 -11t12.5 -12q0 -14 -9.5 -17.5t-20.5 -3.5l-37 3l-39 -4l-84 4q-7 0 -14 -0.5t-14 -1.5
q-6 3 -8 9.5t-2 12.5l3 7l53 19q7 2 9 9t2 13l-8 92l8 107q0 5 -1 18t-7 14l-73 8q-12 12 -12 31q0 5 3 10.5t8 6.5h75q3 0 4.5 7.5t1.5 9.5q2 35 2.5 57t3 40t7 36.5t15.5 46.5q13 35 38 66t53.5 54.5t56.5 37t48 13.5l1 -1h51q23 0 45 2t43 8l23 -18v0zM217 581
q-5 -35 -11.5 -70.5t-6.5 -71.5l5 -62q-5 -8 -5 -16q0 -4 8 -5t17 -1h21h14.5t17 -0.5t16 -2t10.5 -3.5q12 2 24.5 3t24.5 1q7 0 13.5 -0.5t13.5 -1.5h11l9 8q1 27 1.5 54t2.5 53q1 8 3 16.5t2 16.5l-4 83v11t1 12l-27 27q-1 8 -1 18t-2 18.5t-8 14t-18 5.5
q-19 0 -36.5 -12.5t-37.5 -17.5q-11 -3 -19 -12t-14.5 -20.5t-12 -23.5t-12.5 -21z" />
    <glyph glyph-name="quotedblbase" unicode="&#x201e;" horiz-adv-x="555" 
d="M203 -30q-2 -5 -4 -14t-5 -18t-7.5 -16t-11.5 -7q-9 0 -11 7.5t-2 14.5q0 10 1.5 20t3.5 20q-2 7 -7 17t-13 10q-5 0 -10 -2l-10 -4q-4 1 -15.5 1.5t-13.5 2.5q-4 3 -8.5 9t-8 13.5t-5.5 14.5t-2 12q0 55 55 55q33 0 48 -13t19.5 -33t4 -44t2.5 -46zM481 -30
q-4 -14 -8 -30t-16 -25h-4q-8 0 -10.5 8t-2.5 14q0 10 1.5 20t3.5 20q-2 5 -7 15.5t-12 10.5q-5 0 -11 -1.5t-10 -3.5l-27 3q-4 1 -8.5 7.5t-8.5 14.5t-6.5 16t-2.5 12q0 55 54 55q34 0 48.5 -13t19.5 -33t4.5 -44t2.5 -46z" />
    <glyph glyph-name="Acircumflex" unicode="&#xc2;" horiz-adv-x="667" 
d="M333 880q-8 -4 -32 -16.5t-50.5 -26t-48.5 -24t-26 -10.5q-8 0 -15 6t-7 14q0 3 10.5 15t26.5 28.5t35 35t36 34t29 26t15 11.5q5 2 10.5 2h10.5q10 0 20 -0.5t20 -0.5q7 -6 31 -29.5t50 -50.5t46.5 -50t20.5 -27q0 -10 -6.5 -14.5t-15.5 -4.5q-10 0 -18.5 5t-16.5 10
q-29 20 -61 36.5t-64 30.5zM385 653q0 -12 4.5 -23t7.5 -22q3 -9 12 -29.5t19 -44t18.5 -45.5t10.5 -34l12 -49q6 -16 15.5 -30t14.5 -31q17 -58 32 -115.5t38 -114.5q7 -17 10.5 -27t7.5 -17t9 -11.5t16 -11.5q3 -2 8.5 -5t11 -7t10 -9t4.5 -10q0 -14 -14.5 -17t-24.5 -3
q-55 0 -109 1l-108 2q-5 5 -8.5 9.5t-3.5 11.5q0 5 3 8l68 24q10 4 15 12.5t5 18.5q0 20 -10 36t-17 33q-3 7 -5.5 17.5l-5 21t-5.5 20t-7 14.5l-14 22h-198q-14 0 -22.5 -13.5t-13.5 -32t-8 -37t-5 -28.5q-2 -8 -6.5 -20t-4.5 -18q0 -20 12.5 -29.5t27 -16t27 -14.5
t12.5 -26q0 -11 -12 -11l-18 -1l-71 3q-5 0 -12 -1.5t-13 -3.5q-6 3 -14.5 3.5t-16.5 0.5h-20q-5 0 -11 0.5t-11.5 2t-9.5 5t-4 10.5q0 9 13.5 17.5t22.5 16.5q19 16 28 29t13 25.5t6.5 28t8.5 36.5l17 44l6 35q3 17 13.5 31t16.5 30q8 21 14 43t14 44q8 25 19.5 48.5
t19.5 49.5q5 18 8.5 36.5t11.5 35.5q5 11 12 21t11 22q4 11 5.5 21.5t6.5 20.5q8 15 22 23.5t27 18.5q9 7 16 13.5t14.5 11.5t17 8.5t23.5 3.5q3 0 6.5 -1.5t3.5 -5.5q-8 -15 -16.5 -36.5t-8.5 -38.5zM220 310h137q3 0 8.5 0.5t11 2t10 4t4.5 5.5t-4.5 15t-10 26.5t-11 27
t-8.5 16.5l-22 36q-5 12 -7 27t-4 28.5t-7 23t-17 11.5l-6 1q-5 0 -10 -10.5t-9 -24.5t-7.5 -29t-6.5 -25q-20 -63 -42 -126z" />
    <glyph glyph-name="Ecircumflex" unicode="&#xca;" horiz-adv-x="667" 
d="M361 719q29 0 56.5 -2.5t56.5 -2.5q24 0 48 4t48 4q8 0 17.5 -3.5t9.5 -14.5q0 -7 -1 -13t-2 -13q-1 -8 -1.5 -28.5t-2 -42.5t-6.5 -39t-15 -17q-8 0 -13 7t-9 16.5t-6.5 19t-4.5 14.5q-14 11 -19.5 21.5t-10 18t-13.5 12t-30 4.5q-18 0 -36.5 -1t-36.5 -1
q-23 0 -46.5 1.5t-46.5 1.5q-18 0 -32 -5.5t-14 -27.5v-101q0 -5 0.5 -20t2 -31t3 -29t4.5 -16q17 0 34.5 0.5t34.5 0.5q20 0 40.5 -2t40.5 -2q31 0 45 14.5t20 31.5t9 31.5t12 14.5q7 0 15.5 -4.5t8.5 -12.5l-1 -1q-3 -17 -7 -33t-4 -33q0 -31 1.5 -61.5t1.5 -61.5
q0 -11 -6 -23t-18 -12q-9 0 -16 7q-2 14 -7.5 27.5t-13.5 24.5l-2 23q-9 2 -17 6.5t-16 7.5t-17 3.5t-18 2.5l-6 -6q-26 0 -53 0.5t-53 0.5q-8 0 -12 -10.5t-5.5 -24t-2 -27t-0.5 -18.5q0 -10 3 -19t3 -19q0 -25 -2 -49.5t-2 -49.5q0 -1 2.5 -9.5t3.5 -11.5q2 -10 1.5 -20
t0.5 -20q0 -4 5 -11t11 -13.5t12.5 -11.5t10.5 -5q26 -2 50 -5.5t50 -8.5q14 5 28.5 7.5t29.5 2.5l4 4l33 9q16 22 34 42.5t40 36.5q4 8 8.5 20.5t11 24.5t14.5 20.5t18 8.5q9 0 14 -7.5t5 -15.5q0 -12 -4 -24t-9 -24.5t-10 -24.5t-7 -24q-5 -21 -4 -42t-1 -42
q-2 -12 -13 -21t-23 -9q-7 0 -15 5t-14 7q-1 0 -3 -1t-3 -1q-5 0 -9.5 1.5t-9.5 1.5q-9 0 -18 -2t-18 -2q-46 0 -91.5 3.5t-91.5 3.5q-8 0 -14 -3t-13 -6q-15 2 -29.5 4t-29.5 2q-21 0 -41.5 -2.5t-41.5 -2.5q-1 0 -9 2t-10 3l-26 -3q-5 3 -14.5 8t-9.5 11q0 10 15.5 15.5
t34.5 10.5t34.5 12t15.5 21q0 16 -3 32t-3 32q0 14 2.5 28t2.5 28q0 17 -6 33.5t-6 33.5q0 20 3.5 38t3.5 38t-4.5 40.5t-4.5 40.5q0 11 4.5 21t4.5 21q0 35 -4.5 68t-4.5 68q0 11 1.5 20.5t1.5 20.5q0 8 -8 11t-14 5l-18 15q-7 1 -17 2t-19 3.5t-15.5 7t-6.5 13.5
q0 10 5.5 16t14 9t18 4t17.5 1q48 0 94 -3t94 -5q18 -1 36 0t36 1zM331 872q-9 -5 -32.5 -17.5t-49.5 -25.5t-48 -23.5t-28 -10.5q-8 0 -14.5 6t-6.5 14q0 2 10 14t25.5 28t34.5 34.5t35.5 34t29.5 26.5t17 12q10 3 22 3q9 0 18.5 -0.5t19.5 -1.5q4 -3 17 -15.5t29.5 -29
t34.5 -35.5t33 -35.5t25 -28t10 -13.5q0 -10 -7 -14.5t-16 -4.5t-18 5.5t-16 10.5q-29 20 -61 36.5t-64 30.5z" />
    <glyph glyph-name="Aacute" unicode="&#xc1;" horiz-adv-x="667" 
d="M228 794q-7 0 -11 4.5t-4 10.5q0 11 8.5 20t16.5 16q23 19 45.5 38t42.5 41q19 20 40.5 38t50.5 18q25 0 42 -17t17 -42t-16 -40t-38.5 -24.5t-47 -15.5t-42.5 -12q-20 -8 -40.5 -15t-40.5 -13q-6 -2 -12 -3t-11 -4zM385 653q0 -12 4.5 -23t7.5 -22q3 -9 12 -29.5t19 -44
t18.5 -45.5t10.5 -34l12 -49q6 -16 15.5 -30t14.5 -31q17 -58 32 -115.5t38 -114.5q7 -17 10.5 -27t7.5 -17t9 -11.5t16 -11.5q3 -2 8.5 -5t11 -7t10 -9t4.5 -10q0 -14 -14.5 -17t-24.5 -3q-55 0 -109 1l-108 2q-5 5 -8.5 9.5t-3.5 11.5q0 5 3 8l68 24q10 4 15 12.5t5 18.5
q0 20 -10 36t-17 33q-3 7 -5.5 17.5l-5 21t-5.5 20t-7 14.5l-14 22h-198q-14 0 -22.5 -13.5t-13.5 -32t-8 -37t-5 -28.5q-2 -8 -6.5 -20t-4.5 -18q0 -20 12.5 -29.5t27 -16t27 -14.5t12.5 -26q0 -11 -12 -11l-18 -1l-71 3q-5 0 -12 -1.5t-13 -3.5q-6 3 -14.5 3.5t-16.5 0.5
h-20q-5 0 -11 0.5t-11.5 2t-9.5 5t-4 10.5q0 9 13.5 17.5t22.5 16.5q19 16 28 29t13 25.5t6.5 28t8.5 36.5l17 44l6 35q3 17 13.5 31t16.5 30q8 21 14 43t14 44q8 25 19.5 48.5t19.5 49.5q5 18 8.5 36.5t11.5 35.5q5 11 12 21t11 22q4 11 5.5 21.5t6.5 20.5q8 15 22 23.5
t27 18.5q9 7 16 13.5t14.5 11.5t17 8.5t23.5 3.5q3 0 6.5 -1.5t3.5 -5.5q-8 -15 -16.5 -36.5t-8.5 -38.5zM220 310h137q3 0 8.5 0.5t11 2t10 4t4.5 5.5t-4.5 15t-10 26.5t-11 27t-8.5 16.5l-22 36q-5 12 -7 27t-4 28.5t-7 23t-17 11.5l-6 1q-5 0 -10 -10.5t-9 -24.5
t-7.5 -29t-6.5 -25q-20 -63 -42 -126z" />
    <glyph glyph-name="Edieresis" unicode="&#xcb;" horiz-adv-x="667" 
d="M361 719q29 0 56.5 -2.5t56.5 -2.5q24 0 48 4t48 4q8 0 17.5 -3.5t9.5 -14.5q0 -7 -1 -13t-2 -13q-1 -8 -1.5 -28.5t-2 -42.5t-6.5 -39t-15 -17q-8 0 -13 7t-9 16.5t-6.5 19t-4.5 14.5q-14 11 -19.5 21.5t-10 18t-13.5 12t-30 4.5q-18 0 -36.5 -1t-36.5 -1
q-23 0 -46.5 1.5t-46.5 1.5q-18 0 -32 -5.5t-14 -27.5v-101q0 -5 0.5 -20t2 -31t3 -29t4.5 -16q17 0 34.5 0.5t34.5 0.5q20 0 40.5 -2t40.5 -2q31 0 45 14.5t20 31.5t9 31.5t12 14.5q7 0 15.5 -4.5t8.5 -12.5l-1 -1q-3 -17 -7 -33t-4 -33q0 -31 1.5 -61.5t1.5 -61.5
q0 -11 -6 -23t-18 -12q-9 0 -16 7q-2 14 -7.5 27.5t-13.5 24.5l-2 23q-9 2 -17 6.5t-16 7.5t-17 3.5t-18 2.5l-6 -6q-26 0 -53 0.5t-53 0.5q-8 0 -12 -10.5t-5.5 -24t-2 -27t-0.5 -18.5q0 -10 3 -19t3 -19q0 -25 -2 -49.5t-2 -49.5q0 -1 2.5 -9.5t3.5 -11.5q2 -10 1.5 -20
t0.5 -20q0 -4 5 -11t11 -13.5t12.5 -11.5t10.5 -5q26 -2 50 -5.5t50 -8.5q14 5 28.5 7.5t29.5 2.5l4 4l33 9q16 22 34 42.5t40 36.5q4 8 8.5 20.5t11 24.5t14.5 20.5t18 8.5q9 0 14 -7.5t5 -15.5q0 -12 -4 -24t-9 -24.5t-10 -24.5t-7 -24q-5 -21 -4 -42t-1 -42
q-2 -12 -13 -21t-23 -9q-7 0 -15 5t-14 7q-1 0 -3 -1t-3 -1q-5 0 -9.5 1.5t-9.5 1.5q-9 0 -18 -2t-18 -2q-46 0 -91.5 3.5t-91.5 3.5q-8 0 -14 -3t-13 -6q-15 2 -29.5 4t-29.5 2q-21 0 -41.5 -2.5t-41.5 -2.5q-1 0 -9 2t-10 3l-26 -3q-5 3 -14.5 8t-9.5 11q0 10 15.5 15.5
t34.5 10.5t34.5 12t15.5 21q0 16 -3 32t-3 32q0 14 2.5 28t2.5 28q0 17 -6 33.5t-6 33.5q0 20 3.5 38t3.5 38t-4.5 40.5t-4.5 40.5q0 11 4.5 21t4.5 21q0 35 -4.5 68t-4.5 68q0 11 1.5 20.5t1.5 20.5q0 8 -8 11t-14 5l-18 15q-7 1 -17 2t-19 3.5t-15.5 7t-6.5 13.5
q0 10 5.5 16t14 9t18 4t17.5 1q48 0 94 -3t94 -5q18 -1 36 0t36 1zM460 932q11 0 23 -6.5t22.5 -17t17 -22.5t6.5 -23q0 -25 -19.5 -42.5t-43.5 -17.5q-26 0 -46 19t-20 45q0 12 5 23.5t13 20.5t19 15t23 6zM130 867q0 13 6 24.5t16 20.5t22.5 14t25.5 5q26 0 43 -17.5
t17 -43.5q0 -27 -20 -47t-47 -20q-24 0 -43.5 20t-19.5 44z" />
    <glyph glyph-name="Egrave" unicode="&#xc8;" horiz-adv-x="667" 
d="M361 719q29 0 56.5 -2.5t56.5 -2.5q24 0 48 4t48 4q8 0 17.5 -3.5t9.5 -14.5q0 -7 -1 -13t-2 -13q-1 -8 -1.5 -28.5t-2 -42.5t-6.5 -39t-15 -17q-8 0 -13 7t-9 16.5t-6.5 19t-4.5 14.5q-14 11 -19.5 21.5t-10 18t-13.5 12t-30 4.5q-18 0 -36.5 -1t-36.5 -1
q-23 0 -46.5 1.5t-46.5 1.5q-18 0 -32 -5.5t-14 -27.5v-101q0 -5 0.5 -20t2 -31t3 -29t4.5 -16q17 0 34.5 0.5t34.5 0.5q20 0 40.5 -2t40.5 -2q31 0 45 14.5t20 31.5t9 31.5t12 14.5q7 0 15.5 -4.5t8.5 -12.5l-1 -1q-3 -17 -7 -33t-4 -33q0 -31 1.5 -61.5t1.5 -61.5
q0 -11 -6 -23t-18 -12q-9 0 -16 7q-2 14 -7.5 27.5t-13.5 24.5l-2 23q-9 2 -17 6.5t-16 7.5t-17 3.5t-18 2.5l-6 -6q-26 0 -53 0.5t-53 0.5q-8 0 -12 -10.5t-5.5 -24t-2 -27t-0.5 -18.5q0 -10 3 -19t3 -19q0 -25 -2 -49.5t-2 -49.5q0 -1 2.5 -9.5t3.5 -11.5q2 -10 1.5 -20
t0.5 -20q0 -4 5 -11t11 -13.5t12.5 -11.5t10.5 -5q26 -2 50 -5.5t50 -8.5q14 5 28.5 7.5t29.5 2.5l4 4l33 9q16 22 34 42.5t40 36.5q4 8 8.5 20.5t11 24.5t14.5 20.5t18 8.5q9 0 14 -7.5t5 -15.5q0 -12 -4 -24t-9 -24.5t-10 -24.5t-7 -24q-5 -21 -4 -42t-1 -42
q-2 -12 -13 -21t-23 -9q-7 0 -15 5t-14 7q-1 0 -3 -1t-3 -1q-5 0 -9.5 1.5t-9.5 1.5q-9 0 -18 -2t-18 -2q-46 0 -91.5 3.5t-91.5 3.5q-8 0 -14 -3t-13 -6q-15 2 -29.5 4t-29.5 2q-21 0 -41.5 -2.5t-41.5 -2.5q-1 0 -9 2t-10 3l-26 -3q-5 3 -14.5 8t-9.5 11q0 10 15.5 15.5
t34.5 10.5t34.5 12t15.5 21q0 16 -3 32t-3 32q0 14 2.5 28t2.5 28q0 17 -6 33.5t-6 33.5q0 20 3.5 38t3.5 38t-4.5 40.5t-4.5 40.5q0 11 4.5 21t4.5 21q0 35 -4.5 68t-4.5 68q0 11 1.5 20.5t1.5 20.5q0 8 -8 11t-14 5l-18 15q-7 1 -17 2t-19 3.5t-15.5 7t-6.5 13.5
q0 10 5.5 16t14 9t18 4t17.5 1q48 0 94 -3t94 -5q18 -1 36 0t36 1zM199 924q0 24 16.5 41.5t40.5 17.5q29 0 51.5 -18t41.5 -38q20 -21 42 -40.5t45 -38.5q8 -7 17 -16t9 -20q0 -8 -5.5 -11.5t-12.5 -3.5q-14 6 -29 10t-30 9q-23 8 -45 16t-45 15q-15 4 -32 9t-31.5 13.5
t-23.5 21.5t-9 33z" />
    <glyph glyph-name="Iacute" unicode="&#xcd;" horiz-adv-x="389" 
d="M313 687l-14 -15h-16q-13 0 -23 -3t-10 -19q0 -14 4 -28.5t4 -28.5q0 -59 -3 -117.5t-5 -117.5q0 -1 3 -10.5t4 -11.5l-12 -185q-1 -9 1 -19.5t4.5 -22t5 -22.5t3.5 -20q10 -6 19 -13.5t18 -15.5q7 -1 18.5 -1t21.5 -2t17.5 -7t7.5 -17q0 -11 -9.5 -15t-18.5 -4
q-17 0 -32.5 0.5t-32.5 -0.5q-2 0 -8.5 2t-13 4.5t-12.5 4l-6 1.5q-45 0 -90.5 -3.5t-90.5 -3.5q-7 0 -13 6.5t-6 13.5q0 5 3 8.5t6 6.5l29 3q13 8 27.5 13t28.5 9q7 11 16.5 26t9.5 29q0 22 -3.5 43.5t-3.5 43.5q0 25 3.5 50t3.5 50q0 16 -2 31t-2 31q0 25 3 49.5t3 49.5
q0 20 -3 40t-3 40q0 24 1 47.5t2 47.5q-1 3 -3.5 8t-5.5 10.5t-6 10t-6 4.5l-76 14q-5 1 -7 5.5t-2 9.5q0 14 8.5 19t21.5 5q20 0 38.5 -3t38.5 -3q13 0 25.5 3t26.5 3q20 0 38.5 -1.5t38.5 -1.5q8 0 20 5.5t20 5.5q5 0 14 -8.5t9 -13.5q0 -2 -1 -5t-2 -5zM92 795
q-16 0 -16 15q0 11 8.5 20t16.5 16q23 19 45.5 38t42.5 41q19 20 40.5 38t50.5 18q25 0 42 -17t17 -42q0 -20 -9.5 -33t-23.5 -21.5t-31.5 -13.5t-32.5 -9q-8 -2 -30.5 -9t-47.5 -15.5t-46 -15.5t-26 -10z" />
    <glyph glyph-name="Icircumflex" unicode="&#xce;" horiz-adv-x="389" 
d="M313 687l-14 -15h-16q-13 0 -23 -3t-10 -19q0 -14 4 -28.5t4 -28.5q0 -59 -3 -117.5t-5 -117.5q0 -1 3 -10.5t4 -11.5l-12 -185q-1 -9 1 -19.5t4.5 -22t5 -22.5t3.5 -20q10 -6 19 -13.5t18 -15.5q7 -1 18.5 -1t21.5 -2t17.5 -7t7.5 -17q0 -11 -9.5 -15t-18.5 -4
q-17 0 -32.5 0.5t-32.5 -0.5q-2 0 -8.5 2t-13 4.5t-12.5 4l-6 1.5q-45 0 -90.5 -3.5t-90.5 -3.5q-7 0 -13 6.5t-6 13.5q0 5 3 8.5t6 6.5l29 3q13 8 27.5 13t28.5 9q7 11 16.5 26t9.5 29q0 22 -3.5 43.5t-3.5 43.5q0 25 3.5 50t3.5 50q0 16 -2 31t-2 31q0 25 3 49.5t3 49.5
q0 20 -3 40t-3 40q0 24 1 47.5t2 47.5q-1 3 -3.5 8t-5.5 10.5t-6 10t-6 4.5l-76 14q-5 1 -7 5.5t-2 9.5q0 14 8.5 19t21.5 5q20 0 38.5 -3t38.5 -3q13 0 25.5 3t26.5 3q20 0 38.5 -1.5t38.5 -1.5q8 0 20 5.5t20 5.5q5 0 14 -8.5t9 -13.5q0 -2 -1 -5t-2 -5zM201 865
q-6 -4 -26.5 -17t-43.5 -26.5t-42 -24t-22 -10.5q-7 0 -13 7t-6 13q0 3 9 15t22.5 28t29.5 34.5t30.5 34.5t25.5 26.5t14 11.5q5 2 9 2h9q8 0 16.5 -0.5t16.5 -0.5q4 -4 15.5 -16t25.5 -29t29.5 -35.5t28 -34.5t21 -28t8.5 -15q0 -9 -6 -13.5t-14 -4.5t-15.5 5.5t-13.5 10.5
q-25 20 -52 36t-56 31z" />
    <glyph glyph-name="Idieresis" unicode="&#xcf;" horiz-adv-x="389" 
d="M313 687l-14 -15h-16q-13 0 -23 -3t-10 -19q0 -14 4 -28.5t4 -28.5q0 -59 -3 -117.5t-5 -117.5q0 -1 3 -10.5t4 -11.5l-12 -185q-1 -9 1 -19.5t4.5 -22t5 -22.5t3.5 -20q10 -6 19 -13.5t18 -15.5q7 -1 18.5 -1t21.5 -2t17.5 -7t7.5 -17q0 -11 -9.5 -15t-18.5 -4
q-17 0 -32.5 0.5t-32.5 -0.5q-2 0 -8.5 2t-13 4.5t-12.5 4l-6 1.5q-45 0 -90.5 -3.5t-90.5 -3.5q-7 0 -13 6.5t-6 13.5q0 5 3 8.5t6 6.5l29 3q13 8 27.5 13t28.5 9q7 11 16.5 26t9.5 29q0 22 -3.5 43.5t-3.5 43.5q0 25 3.5 50t3.5 50q0 16 -2 31t-2 31q0 25 3 49.5t3 49.5
q0 20 -3 40t-3 40q0 24 1 47.5t2 47.5q-1 3 -3.5 8t-5.5 10.5t-6 10t-6 4.5l-76 14q-5 1 -7 5.5t-2 9.5q0 14 8.5 19t21.5 5q20 0 38.5 -3t38.5 -3q13 0 25.5 3t26.5 3q20 0 38.5 -1.5t38.5 -1.5q8 0 20 5.5t20 5.5q5 0 14 -8.5t9 -13.5q0 -2 -1 -5t-2 -5zM313 942
q11 0 23 -6.5t22 -16.5t16.5 -22.5t6.5 -23.5q0 -24 -19 -42.5t-43 -18.5q-25 0 -46 19.5t-21 45.5q0 11 5.5 22.5t14 21t19.5 15.5t22 6zM21 877q0 13 6 24.5t16 20.5t22.5 14t25.5 5q26 0 43 -18t17 -44t-20.5 -46.5t-46.5 -20.5q-25 0 -44 20.5t-19 44.5z" />
    <glyph glyph-name="Igrave" unicode="&#xcc;" horiz-adv-x="389" 
d="M313 687l-14 -15h-16q-13 0 -23 -3t-10 -19q0 -14 4 -28.5t4 -28.5q0 -59 -3 -117.5t-5 -117.5q0 -1 3 -10.5t4 -11.5l-12 -185q-1 -9 1 -19.5t4.5 -22t5 -22.5t3.5 -20q10 -6 19 -13.5t18 -15.5q7 -1 18.5 -1t21.5 -2t17.5 -7t7.5 -17q0 -11 -9.5 -15t-18.5 -4
q-17 0 -32.5 0.5t-32.5 -0.5q-2 0 -8.5 2t-13 4.5t-12.5 4l-6 1.5q-45 0 -90.5 -3.5t-90.5 -3.5q-7 0 -13 6.5t-6 13.5q0 5 3 8.5t6 6.5l29 3q13 8 27.5 13t28.5 9q7 11 16.5 26t9.5 29q0 22 -3.5 43.5t-3.5 43.5q0 25 3.5 50t3.5 50q0 16 -2 31t-2 31q0 25 3 49.5t3 49.5
q0 20 -3 40t-3 40q0 24 1 47.5t2 47.5q-1 3 -3.5 8t-5.5 10.5t-6 10t-6 4.5l-76 14q-5 1 -7 5.5t-2 9.5q0 14 8.5 19t21.5 5q20 0 38.5 -3t38.5 -3q13 0 25.5 3t26.5 3q20 0 38.5 -1.5t38.5 -1.5q8 0 20 5.5t20 5.5q5 0 14 -8.5t9 -13.5q0 -2 -1 -5t-2 -5zM73 934
q0 24 16.5 41.5t40.5 17.5q30 0 52 -18.5t41 -38.5q20 -22 42.5 -40.5t45.5 -37.5q8 -7 16.5 -15.5t8.5 -20.5q0 -7 -5 -11t-12 -4t-27 6.5t-43.5 15.5t-46 17t-32.5 11q-15 4 -32.5 9t-31.5 13.5t-23.5 21.5t-9.5 33z" />
    <glyph glyph-name="Oacute" unicode="&#xd3;" horiz-adv-x="778" 
d="M751 364q0 -9 -3 -30t-6.5 -44t-8 -43.5t-7.5 -29.5q-6 -17 -14 -31.5t-14 -31.5l-33 -29l-12 -22q-11 -8 -20 -17.5t-18 -19.5q-11 -12 -25 -18.5t-28 -13.5q-10 -5 -15.5 -12t-13.5 -12h-6q-14 -11 -31 -11t-33 -4q-10 -2 -18.5 -6t-18.5 -6q-13 -2 -26 -2.5t-26 -0.5
q-28 0 -57 8.5t-57 13.5q-12 8 -24.5 16.5t-25.5 14.5q-8 4 -15 5.5t-15 5.5q-14 7 -26 18.5t-23 22.5q-5 5 -10 8.5t-10 8.5q-8 6 -19 23.5t-22 37.5t-19 39t-9 29l-8 65q-2 16 -4.5 31.5t-2.5 31.5q0 41 11 79.5t29.5 73.5t42.5 67.5t51 61.5q7 7 14 13t15 11
q34 17 71 34.5t74 27.5q3 1 18.5 1.5t33.5 1.5t34.5 1.5t21.5 0.5q26 0 49.5 -11t46.5 -19q14 -5 27.5 -8t26.5 -8q19 -8 32.5 -23t27.5 -29l46 -49q14 -15 22.5 -35.5t13.5 -43t7 -45t4 -42.5q2 -14 3.5 -27.5t1.5 -27.5zM272 800q-16 0 -16 15q0 11 9 20t17 16
q23 19 45 38.5t42 40.5q19 20 41 38t51 18q25 0 41.5 -17.5t16.5 -41.5q0 -20 -9 -33t-23.5 -21.5t-31.5 -13.5t-32 -9q-10 -3 -33 -11t-47.5 -16.5t-45 -15.5t-25.5 -7zM148 387q0 -14 2.5 -28t2.5 -28q0 -9 -1 -17.5t-1 -17.5q0 -55 19 -101.5t52.5 -80.5t80 -53
t101.5 -19q26 0 51.5 10t49.5 17q39 41 80 80q3 35 14.5 67t21.5 65q4 14 3.5 27.5t-0.5 27.5q0 33 2.5 66t2.5 67q0 12 -5 25.5t-12 27t-15 26.5t-14 24q-17 31 -36 51t-41.5 31.5t-50 16t-61.5 4.5q-18 0 -44 -1.5t-41 -11.5l-21 -15t-29 -21.5t-27.5 -22.5t-15.5 -16
q-6 -9 -11.5 -19t-11.5 -19q-6 -8 -10 -12.5t-7 -9t-5.5 -10.5t-4.5 -17q-5 -27 -11.5 -56t-6.5 -57z" />
    <glyph glyph-name="Ocircumflex" unicode="&#xd4;" horiz-adv-x="778" 
d="M751 364q0 -9 -3 -30t-6.5 -44t-8 -43.5t-7.5 -29.5q-6 -17 -14 -31.5t-14 -31.5l-33 -29l-12 -22q-11 -8 -20 -17.5t-18 -19.5q-11 -12 -25 -18.5t-28 -13.5q-10 -5 -15.5 -12t-13.5 -12h-6q-14 -11 -31 -11t-33 -4q-10 -2 -18.5 -6t-18.5 -6q-13 -2 -26 -2.5t-26 -0.5
q-28 0 -57 8.5t-57 13.5q-12 8 -24.5 16.5t-25.5 14.5q-8 4 -15 5.5t-15 5.5q-14 7 -26 18.5t-23 22.5q-5 5 -10 8.5t-10 8.5q-8 6 -19 23.5t-22 37.5t-19 39t-9 29l-8 65q-2 16 -4.5 31.5t-2.5 31.5q0 41 11 79.5t29.5 73.5t42.5 67.5t51 61.5q7 7 14 13t15 11
q34 17 71 34.5t74 27.5q3 1 18.5 1.5t33.5 1.5t34.5 1.5t21.5 0.5q26 0 49.5 -11t46.5 -19q14 -5 27.5 -8t26.5 -8q19 -8 32.5 -23t27.5 -29l46 -49q14 -15 22.5 -35.5t13.5 -43t7 -45t4 -42.5q2 -14 3.5 -27.5t1.5 -27.5zM402 859q-8 -5 -32 -17.5t-50 -25.5t-48 -23.5
t-27 -10.5q-8 0 -15 6t-7 14q0 3 10.5 15t26.5 28.5t35 35t36 34.5t29 26t15 11q5 2 10.5 2h11.5q10 0 19.5 -0.5t19.5 -1.5q5 -4 17.5 -16t29 -28.5t34.5 -35t33 -34.5t24.5 -28t9.5 -15q0 -10 -7 -14t-15 -4q-10 0 -18.5 5t-16.5 10q-30 20 -61.5 36.5t-63.5 30.5z
M148 387q0 -14 2.5 -28t2.5 -28q0 -9 -1 -17.5t-1 -17.5q0 -55 19 -101.5t52.5 -80.5t80 -53t101.5 -19q26 0 51.5 10t49.5 17q39 41 80 80q3 35 14.5 67t21.5 65q4 14 3.5 27.5t-0.5 27.5q0 33 2.5 66t2.5 67q0 12 -5 25.5t-12 27t-15 26.5t-14 24q-17 31 -36 51
t-41.5 31.5t-50 16t-61.5 4.5q-18 0 -44 -1.5t-41 -11.5l-21 -15t-29 -21.5t-27.5 -22.5t-15.5 -16q-6 -9 -11.5 -19t-11.5 -19q-6 -8 -10 -12.5t-7 -9t-5.5 -10.5t-4.5 -17q-5 -27 -11.5 -56t-6.5 -57z" />
    <glyph glyph-name="uniF8FF" unicode="&#xf8ff;" 
d="M500 42v-42h-500v42h500z" />
    <glyph glyph-name="Ograve" unicode="&#xd2;" horiz-adv-x="778" 
d="M751 364q0 -9 -3 -30t-6.5 -44t-8 -43.5t-7.5 -29.5q-6 -17 -14 -31.5t-14 -31.5l-33 -29l-12 -22q-11 -8 -20 -17.5t-18 -19.5q-11 -12 -25 -18.5t-28 -13.5q-10 -5 -15.5 -12t-13.5 -12h-6q-14 -11 -31 -11t-33 -4q-10 -2 -18.5 -6t-18.5 -6q-13 -2 -26 -2.5t-26 -0.5
q-28 0 -57 8.5t-57 13.5q-12 8 -24.5 16.5t-25.5 14.5q-8 4 -15 5.5t-15 5.5q-14 7 -26 18.5t-23 22.5q-5 5 -10 8.5t-10 8.5q-8 6 -19 23.5t-22 37.5t-19 39t-9 29l-8 65q-2 16 -4.5 31.5t-2.5 31.5q0 41 11 79.5t29.5 73.5t42.5 67.5t51 61.5q7 7 14 13t15 11
q34 17 71 34.5t74 27.5q3 1 18.5 1.5t33.5 1.5t34.5 1.5t21.5 0.5q26 0 49.5 -11t46.5 -19q14 -5 27.5 -8t26.5 -8q19 -8 32.5 -23t27.5 -29l46 -49q14 -15 22.5 -35.5t13.5 -43t7 -45t4 -42.5q2 -14 3.5 -27.5t1.5 -27.5zM260 924q0 24 16.5 41.5t40.5 17.5q29 0 51.5 -18
t41.5 -38q20 -21 42 -40.5t45 -38.5q8 -7 17 -16t9 -20q0 -8 -5.5 -11.5t-12.5 -3.5q-26 10 -51 18t-51 17q-18 6 -42.5 12t-47 15.5t-38 24.5t-15.5 40zM148 387q0 -14 2.5 -28t2.5 -28q0 -9 -1 -17.5t-1 -17.5q0 -55 19 -101.5t52.5 -80.5t80 -53t101.5 -19q26 0 51.5 10
t49.5 17q39 41 80 80q3 35 14.5 67t21.5 65q4 14 3.5 27.5t-0.5 27.5q0 33 2.5 66t2.5 67q0 12 -5 25.5t-12 27t-15 26.5t-14 24q-17 31 -36 51t-41.5 31.5t-50 16t-61.5 4.5q-18 0 -44 -1.5t-41 -11.5l-21 -15t-29 -21.5t-27.5 -22.5t-15.5 -16q-6 -9 -11.5 -19t-11.5 -19
q-6 -8 -10 -12.5t-7 -9t-5.5 -10.5t-4.5 -17q-5 -27 -11.5 -56t-6.5 -57z" />
    <glyph glyph-name="Uacute" unicode="&#xda;" horiz-adv-x="722" 
d="M630 717q13 0 25 1.5t25 1.5q10 0 16.5 -5t6.5 -16l-3 -7q-12 -3 -22 -5t-19 -5t-16.5 -9t-15.5 -17q-3 -4 -5.5 -8.5t-2.5 -9.5q0 -10 0.5 -19.5t0.5 -19.5q0 -12 -2 -21t-5 -20q1 -8 2.5 -17t1.5 -17q0 -76 -2.5 -151t-2.5 -151q0 -26 -5.5 -54.5t-13.5 -53.5
q-8 -8 -13 -17.5t-11 -19.5q-3 -5 -15.5 -13.5t-17.5 -12.5q-4 -3 -9 -9.5t-9.5 -12.5t-8.5 -11.5t-7 -6.5q-7 -4 -19 -8t-25 -7.5t-25.5 -6.5t-20.5 -4q-20 -3 -41.5 -3h-41.5q-21 0 -31.5 1t-18 4t-16 8.5t-24.5 14.5q-8 5 -16.5 8t-16.5 7q-6 3 -10.5 8.5t-9.5 10.5
q-20 21 -29.5 35.5t-14 29t-7 32t-6.5 43.5q-2 13 -5.5 25.5t-3.5 26.5q0 37 4.5 73.5t4.5 73.5q0 15 -4 29.5t-4 29.5q0 16 2 31t2 31q0 35 -3.5 68.5t-4.5 68.5q-9 9 -18 17.5t-21 13.5q-6 2 -15.5 3.5t-18 4.5t-15 8t-6.5 14q0 7 8.5 12.5t14.5 5.5q26 0 51 -3.5t51 -3.5
q17 0 34.5 3.5t34.5 3.5q23 0 46 -3t47 -1l13 -7q-2 -15 -5 -21t-9 -8.5t-16.5 -3.5t-25.5 -6q-9 -3 -14 -6t-7.5 -7t-4 -9t-5.5 -14v-58q0 -5 -2.5 -8.5t-2.5 -8.5q0 -13 3.5 -25t3.5 -25q0 -23 -3 -44.5t-3 -44.5q0 -28 2.5 -55t3.5 -55q1 -20 0 -40.5t-1 -40.5
q0 -29 5 -54.5t9 -53.5q14 -14 24.5 -29t21.5 -31q17 -7 26.5 -11.5t18 -7t19 -3.5t30.5 -1q23 0 34 2.5t17.5 7t13.5 9t23 9.5q14 20 28 39.5t29 39.5q6 24 10 37t6 24t2.5 25t0.5 40q0 34 4 67t4 66t-5 65t-5 65q0 20 4.5 38t4.5 38q0 21 -9 33.5t-22.5 19t-29 10t-29 7
t-22.5 9.5t-9 18q0 9 5 11t13 2q43 0 85.5 -1.5t85.5 -1.5zM246 803q-15 0 -15 15q0 11 8.5 20t16.5 16q23 19 45.5 38t42.5 40q19 20 40.5 38t50.5 18q25 0 41.5 -16.5t16.5 -41.5q0 -20 -9 -33t-23.5 -21.5t-31.5 -13.5t-32 -9q-12 -3 -34 -11.5t-45 -17t-43 -15t-29 -6.5
z" />
    <glyph glyph-name="Ucircumflex" unicode="&#xdb;" horiz-adv-x="722" 
d="M630 717q13 0 25 1.5t25 1.5q10 0 16.5 -5t6.5 -16l-3 -7q-12 -3 -22 -5t-19 -5t-16.5 -9t-15.5 -17q-3 -4 -5.5 -8.5t-2.5 -9.5q0 -10 0.5 -19.5t0.5 -19.5q0 -12 -2 -21t-5 -20q1 -8 2.5 -17t1.5 -17q0 -76 -2.5 -151t-2.5 -151q0 -26 -5.5 -54.5t-13.5 -53.5
q-8 -8 -13 -17.5t-11 -19.5q-3 -5 -15.5 -13.5t-17.5 -12.5q-4 -3 -9 -9.5t-9.5 -12.5t-8.5 -11.5t-7 -6.5q-7 -4 -19 -8t-25 -7.5t-25.5 -6.5t-20.5 -4q-20 -3 -41.5 -3h-41.5q-21 0 -31.5 1t-18 4t-16 8.5t-24.5 14.5q-8 5 -16.5 8t-16.5 7q-6 3 -10.5 8.5t-9.5 10.5
q-20 21 -29.5 35.5t-14 29t-7 32t-6.5 43.5q-2 13 -5.5 25.5t-3.5 26.5q0 37 4.5 73.5t4.5 73.5q0 15 -4 29.5t-4 29.5q0 16 2 31t2 31q0 35 -3.5 68.5t-4.5 68.5q-9 9 -18 17.5t-21 13.5q-6 2 -15.5 3.5t-18 4.5t-15 8t-6.5 14q0 7 8.5 12.5t14.5 5.5q26 0 51 -3.5t51 -3.5
q17 0 34.5 3.5t34.5 3.5q23 0 46 -3t47 -1l13 -7q-2 -15 -5 -21t-9 -8.5t-16.5 -3.5t-25.5 -6q-9 -3 -14 -6t-7.5 -7t-4 -9t-5.5 -14v-58q0 -5 -2.5 -8.5t-2.5 -8.5q0 -13 3.5 -25t3.5 -25q0 -23 -3 -44.5t-3 -44.5q0 -28 2.5 -55t3.5 -55q1 -20 0 -40.5t-1 -40.5
q0 -29 5 -54.5t9 -53.5q14 -14 24.5 -29t21.5 -31q17 -7 26.5 -11.5t18 -7t19 -3.5t30.5 -1q23 0 34 2.5t17.5 7t13.5 9t23 9.5q14 20 28 39.5t29 39.5q6 24 10 37t6 24t2.5 25t0.5 40q0 34 4 67t4 66t-5 65t-5 65q0 20 4.5 38t4.5 38q0 21 -9 33.5t-22.5 19t-29 10t-29 7
t-22.5 9.5t-9 18q0 9 5 11t13 2q43 0 85.5 -1.5t85.5 -1.5zM387 858q-9 -5 -32.5 -17.5t-49.5 -25.5t-48 -23.5t-28 -10.5q-8 0 -14.5 6t-6.5 14q0 3 10.5 15t26.5 28.5t35 35t36 34t29 26t15 11.5q5 2 10.5 2h10.5q10 0 19.5 -0.5t19.5 -1.5q18 -12 34.5 -27.5t32 -33
t30.5 -35.5t30 -33q6 -6 13.5 -12t7.5 -16t-7 -14t-15 -4q-9 0 -17.5 5t-16.5 10q-29 20 -61 36t-64 31z" />
    <glyph glyph-name="Ugrave" unicode="&#xd9;" horiz-adv-x="722" 
d="M630 717q13 0 25 1.5t25 1.5q10 0 16.5 -5t6.5 -16l-3 -7q-12 -3 -22 -5t-19 -5t-16.5 -9t-15.5 -17q-3 -4 -5.5 -8.5t-2.5 -9.5q0 -10 0.5 -19.5t0.5 -19.5q0 -12 -2 -21t-5 -20q1 -8 2.5 -17t1.5 -17q0 -76 -2.5 -151t-2.5 -151q0 -26 -5.5 -54.5t-13.5 -53.5
q-8 -8 -13 -17.5t-11 -19.5q-3 -5 -15.5 -13.5t-17.5 -12.5q-4 -3 -9 -9.5t-9.5 -12.5t-8.5 -11.5t-7 -6.5q-7 -4 -19 -8t-25 -7.5t-25.5 -6.5t-20.5 -4q-20 -3 -41.5 -3h-41.5q-21 0 -31.5 1t-18 4t-16 8.5t-24.5 14.5q-8 5 -16.5 8t-16.5 7q-6 3 -10.5 8.5t-9.5 10.5
q-20 21 -29.5 35.5t-14 29t-7 32t-6.5 43.5q-2 13 -5.5 25.5t-3.5 26.5q0 37 4.5 73.5t4.5 73.5q0 15 -4 29.5t-4 29.5q0 16 2 31t2 31q0 35 -3.5 68.5t-4.5 68.5q-9 9 -18 17.5t-21 13.5q-6 2 -15.5 3.5t-18 4.5t-15 8t-6.5 14q0 7 8.5 12.5t14.5 5.5q26 0 51 -3.5t51 -3.5
q17 0 34.5 3.5t34.5 3.5q23 0 46 -3t47 -1l13 -7q-2 -15 -5 -21t-9 -8.5t-16.5 -3.5t-25.5 -6q-9 -3 -14 -6t-7.5 -7t-4 -9t-5.5 -14v-58q0 -5 -2.5 -8.5t-2.5 -8.5q0 -13 3.5 -25t3.5 -25q0 -23 -3 -44.5t-3 -44.5q0 -28 2.5 -55t3.5 -55q1 -20 0 -40.5t-1 -40.5
q0 -29 5 -54.5t9 -53.5q14 -14 24.5 -29t21.5 -31q17 -7 26.5 -11.5t18 -7t19 -3.5t30.5 -1q23 0 34 2.5t17.5 7t13.5 9t23 9.5q14 20 28 39.5t29 39.5q6 24 10 37t6 24t2.5 25t0.5 40q0 34 4 67t4 66t-5 65t-5 65q0 20 4.5 38t4.5 38q0 21 -9 33.5t-22.5 19t-29 10t-29 7
t-22.5 9.5t-9 18q0 9 5 11t13 2q43 0 85.5 -1.5t85.5 -1.5zM234 921q0 24 16.5 41.5t40.5 17.5q29 0 51.5 -18t41.5 -38q20 -21 42 -40.5t45 -38.5q8 -7 17 -16t9 -20q0 -7 -5 -11t-11 -4q-5 3 -11 4t-11 3q-21 6 -41.5 13t-40.5 15q-18 6 -42.5 12t-47 15.5t-38 24.5
t-15.5 40z" />
    <glyph glyph-name="dotlessi" unicode="&#x131;" horiz-adv-x="278" 
d="M181 166q0 -6 1 -25t3.5 -40t5.5 -38.5t7 -18.5q5 -2 14 -3t18 -3.5t15.5 -6.5t6.5 -11q0 -8 -7 -14t-15 -6h-162q-3 0 -9 1.5t-12 4t-10.5 5.5t-4.5 6q0 6 7.5 11t17.5 8.5t19.5 6t13.5 5.5q2 1 4 11t3.5 21.5t2 22t0.5 13.5q0 8 -2.5 16.5t-2.5 16.5q0 30 -1 61t-3 61
q-1 9 -11 14t-22 8.5t-21.5 7t-9.5 11.5q0 5 1.5 9t6.5 6q15 5 33 6t34 4q4 1 14.5 3.5t22 5.5t21 5.5t11.5 2.5q4 0 7 -5t4.5 -11t2.5 -12.5t1 -9.5v-38v-33t-1 -33q-1 -11 -2.5 -23t-1.5 -23z" />
    <glyph glyph-name="circumflex" unicode="&#x2c6;" 
d="M259 487q-6 0 -27.5 -14.5t-46.5 -32.5t-46 -32.5t-26 -14.5q-8 0 -14.5 8t-6.5 16q0 2 10 15.5t26 32.5t34.5 41.5t35 41.5t29 32t16.5 15q6 2 11 2t17 -1t17 -3t7.5 -6.5t4.5 -8.5q5 -8 12.5 -14.5t14.5 -13.5q22 -23 39 -48.5t37 -48.5q8 -9 16.5 -20t8.5 -23
q0 -6 -3.5 -11.5t-10.5 -5.5q-5 0 -26.5 14.5t-47.5 32.5t-49.5 32.5t-31.5 14.5z" />
    <glyph glyph-name="tilde" unicode="&#x2dc;" 
d="M321 503q2 0 3.5 -0.5t3.5 -0.5q27 0 37.5 12.5t15 28t8.5 28t17 12.5q14 0 18 -11t4 -22q0 -23 -6.5 -45.5t-20 -40.5t-33 -29t-45.5 -11q-29 0 -58 12t-55 26.5t-47 26.5t-34 12q-24 0 -33 -12t-13 -26.5t-8 -26.5t-17 -12q-12 0 -16.5 6.5t-4.5 17.5q0 22 6 46
t18.5 43.5t31.5 32.5t45 13q19 0 34.5 -3.5t29.5 -10t27.5 -15t29.5 -17.5q15 -9 30.5 -17.5t31.5 -16.5z" />
    <glyph glyph-name="macron" unicode="&#xaf;" horiz-adv-x="482" 
d="M113 454q-11 0 -22 1.5t-22 2.5l3 69q14 0 29 1t29 1q11 0 22.5 -2t22.5 -2q17 0 33.5 2t33.5 2q16 0 31.5 -1.5t31.5 -1.5q11 0 21 1t21 1q13 0 25 -1t25 -2q-2 -17 -2.5 -33.5t1.5 -33.5q-15 -4 -35 -4q-14 0 -28 1t-28 1q-11 0 -21.5 -1.5t-21.5 -1.5q-8 0 -15 2
t-15 2q-10 0 -19.5 -2t-19.5 -2q-12 0 -24 3t-24 3q-8 0 -15.5 -2.5t-15.5 -2.5h-1z" />
    <glyph glyph-name="breve" unicode="&#x2d8;" horiz-adv-x="634" 
d="M317 554q-32 0 -57 13.5t-46 34.5t-37.5 46.5t-29.5 49.5h43q10 -14 22.5 -29.5t27.5 -28.5t32.5 -21.5t36.5 -8.5q18 0 35.5 9t32.5 22t28 28.5t24 28.5h44q-11 -21 -26.5 -46.5t-35 -47t-43 -36t-51.5 -14.5z" />
    <glyph glyph-name="dotaccent" unicode="&#x2d9;" horiz-adv-x="353" 
d="M204 608v-75l-69 -29v75z" />
    <glyph glyph-name="ring" unicode="&#x2da;" horiz-adv-x="536" 
d="M354 563q0 -6 -1.5 -15t-4.5 -19t-6.5 -19.5t-7.5 -15.5q-2 -2 -4.5 -3.5t-4.5 -3.5q-20 -24 -44 -28t-42 -4q-25 0 -43.5 8t-31 22t-19 32.5t-6.5 39.5q0 24 9.5 44t25 34.5t36 22.5t41.5 8q11 0 17.5 -5t16.5 -8q38 -13 53.5 -38.5t15.5 -51.5zM190 560q0 -24 13 -41.5
t45 -17.5q5 0 13.5 3t17 9t15 15.5t6.5 22.5q0 7 -2 17.5t-7.5 20.5t-15 17t-24.5 7h-3q-5 0 -14.5 -1.5t-19 -7t-17 -16t-7.5 -28.5z" />
    <glyph glyph-name="cedilla" unicode="&#xb8;" horiz-adv-x="477" 
d="M206 -15l38 1l-5 -24q15 -2 31 -6t28.5 -11.5t21 -19.5t8.5 -30q0 -20 -9.5 -33.5t-23.5 -21.5t-32 -11.5t-34 -3.5q-35 0 -68 8.5t-65 24.5l13 30q23 -8 46 -15.5t47 -7.5q16 0 32 7.5t16 26.5q0 10 -6 16t-14.5 9t-18.5 4t-17 2z" />
    <glyph glyph-name="hungarumlaut" unicode="&#x2dd;" horiz-adv-x="597" 
d="M281 632l166 -170l-39 -3l-245 172z" />
    <glyph glyph-name="ogonek" unicode="&#x2db;" horiz-adv-x="472" 
d="M183 -82q0 29 21 48.5t44 33.5h45q-9 -6 -20 -13.5t-20.5 -17t-15.5 -20.5t-6 -23q0 -10 10.5 -13.5t18.5 -3.5q14 0 28 3.5t28 8.5q-7 -10 -15.5 -20.5t-18 -19.5t-21.5 -15t-25 -6q-23 0 -38 18t-15 40z" />
    <glyph glyph-name="caron" unicode="&#x2c7;" horiz-adv-x="741" 
d="M459 541q6 0 10.5 4.5t9.5 8.5q4 4 10 6.5t11 5.5q13 7 23.5 18.5t21.5 21.5q4 4 8.5 7t10.5 3t10.5 -5.5t4.5 -11.5q0 -3 -15 -22t-34 -41.5t-37 -42.5t-23 -24q-2 0 -4 -0.5t-4 -0.5q-7 0 -13 1t-13 2q-6 6 -8 10q-5 6 -10 11l-10 10q-15 17 -28 35.5t-27 35.5
q-5 6 -11.5 14t-6.5 17q0 4 2.5 8t7.5 4q4 0 20 -11.5t34.5 -26t35.5 -26t24 -11.5z" />
    <glyph glyph-name="numbersign" unicode="#" horiz-adv-x="582" 
d="M509 479q8 -6 10 -16.5t2 -18.5t-3.5 -14t-10.5 -8h-84q-5 -32 -10.5 -64t-10.5 -64h7q5 0 10 -0.5t17 -2.5l41 4q8 -6 12.5 -18t4.5 -20t-3.5 -14t-10.5 -8h-87q-5 -28 -8.5 -51t-6.5 -40q-4 -20 -6 -37v1q-3 -2 -4.5 -16t-3.5 -29.5t-5 -28.5t-9 -13q-7 0 -15 0.5
t-14.5 4t-10.5 10t-4 18.5q7 41 14 86.5t15 94.5q-32 0 -62 -0.5t-58 -0.5q-5 -27 -9 -49.5t-6 -39.5q-4 -19 -5 -35v1q-5 -5 -5.5 -18.5t-2 -28.5t-7 -26.5t-20.5 -11.5q-7 1 -21 5.5t-14 10.5q0 5 2 15q12 79 29 177h-9q-3 2 -14 2q-4 0 -11.5 -0.5t-16 -0.5t-17 -0.5
t-13.5 -0.5q-15 0 -16.5 5.5t-1.5 24.5q0 11 4 18.5t22 7.5h83l12 66t12 65h-16q-3 2 -14 2q-8 0 -18 -1t-21 -1q-14 0 -25.5 4t-11.5 17q0 14 2.5 26t23.5 12h52t37 -1q8 52 11.5 75t5 33t3 14.5l6.5 19.5l4 54q5 5 11 6t12 1q9 0 21 -3t12 -15l-10 -65q-1 -1 -6.5 -35
t-14.5 -86q20 -1 47 -1h72q9 48 12 69t4.5 30.5t2.5 15t5 22.5l5 54q6 5 16 8t18 3q9 0 17 -4.5t9 -13.5l-11 -65q0 -1 -5.5 -34t-13.5 -84h9q5 0 3.5 -0.5t10.5 -2.5zM224 292q20 0 47 0.5t73 0.5q5 32 10 64.5t10 64.5q-30 0 -60 -0.5t-59 -0.5q-5 -32 -10.5 -64.5
t-10.5 -64.5z" />
    </font>
</defs>
</svg>
