<?xml  version="1.0" encoding="UTF-8"?>
<!DOCTYPE svg PUBLIC "-//W3C//DTD SVG 1.0//EN" "http://www.w3.org/TR/2001/REC-SVG-20010904/DTD/svg10.dtd" >
<svg xmlns="http://www.w3.org/2000/svg" >
<metadata>
<version>1.0</version>
<id><![CDATA[Legacy Sans ITC W01 Md]]></id>
<vendor>Monotype Imaging Inc.</vendor>
<credits>
<name>Fonts.com WebFonts</name>
<URL>http://webfonts.fonts.com</URL>
<role>Home of the Web fonts</role>
</credits>
<license>
<URL>http://webfonts.fonts.com/Legal</URL>
</license>
<copyright><![CDATA[Digitized data (C) 1994, 2005 International Typeface Corporation. All rights reserved.]]></copyright>
<trademark><![CDATA[ITC Legacy(R) is a trademark of International Typeface Corporation registered in the U.S. Patent & Trademark Office and may be registered in certain jurisdictions.]]></trademark>
<licensee>
<name></name>
</licensee>
</metadata>
<defs >
<font horiz-adv-x="524" id="03fb135f-137f-459d-80b9-959cecb7b450">
<font-face font-family="" panose-1="2 0 5 0 4 0 0 2 0 3" ascent="879" descent="-271" units-per-em="1000" alphabetic="0">
</font-face>
<missing-glyph horiz-adv-x="0" />

<glyph unicode="&#xA;" />
<glyph unicode="&#xD;" horiz-adv-x="0" />
<glyph unicode=" " horiz-adv-x="241" />
<glyph unicode="!" horiz-adv-x="359" d="M235 644V524L198 163H160L123 524V644H235ZM180 114Q206 114 224 95T242 50Q242 24 224 6T179 -12Q153 -12 135 6T116 50Q116 77 134 95T180 114Z"  />
<glyph unicode="&quot;" horiz-adv-x="545" d="M152 564V634H236V564L218 343H170L152 564ZM308 564V634H392V564L374 343H326L308 564Z"  />
<glyph unicode="#" horiz-adv-x="582" d="M391 451L437 632H486L440 451H576L560 390H424L390 258H526L511 196H374L324 0H276L326 196H191L141 0H92L142 196H6L22 258H158L192 390H56L71 451H207L254 632H302L256 451H391ZM207 258H341L375 390H241L207 258Z"  />
<glyph unicode="$" horiz-adv-x="544" d="M302 695V622Q327 622 360 618T424 607Q436 604 438 602T442 592L444 531Q444 523 439 522L428 518Q427 517 422 517Q420 517 418 518T410 524Q357 558 302 560V360Q399 321 440 279T482 176Q482 107 435 63T302 7V-97H251V5Q210 5 169 10T94 25Q81 29 78 31T74 40L71 101Q71 107 71 109T77 113L89 117L96 118Q98 118 101 117T112 110Q147 89 183 78T251 67V283Q201 304 168 323T114 362T86 405T77 459Q77 526 122 568T251 622V695H302ZM252 561Q212 558 191 537T169 479Q169 414 252 379V561ZM301 69Q342 75 364 98T387 159Q387 195 368 218T301 263V69Z"  />
<glyph unicode="%" horiz-adv-x="718" d="M177 646Q246 646 286 601T326 481Q326 400 284 353T169 306Q100 306 60 351T19 473Q19 553 61 599T177 646ZM173 596Q139 596 119 563T98 473Q98 418 117 387T171 356Q206 356 226 388T247 478Q247 533 227 564T173 596ZM606 634L170 -11H107L542 634H606ZM550 328Q619 328 659 283T699 163Q699 82 657 35T542 -12Q473 -12 433 33T392 155Q392 236 434 282T550 328ZM546 278Q512 278 492 245T471 155Q471 100 490 69T544 38Q579 38 599 70T620 161Q620 215 600 246T546 278Z"  />
<glyph unicode="&amp;" horiz-adv-x="637" d="M614 357Q595 300 566 247T502 151Q523 120 540 100T575 68T610 49T651 42L646 0Q634 -2 625 -2T601 -3Q572 -3 552 0T515 12T480 38T441 82Q391 34 342 12T236 -11Q192 -11 156 2T93 38T52 94T37 165Q37 222 71 264T179 340Q144 367 128 397T112 465Q112 498 125 525T161 573T216 604T286 615Q355 615 396 580T438 487Q438 390 319 347Q361 318 396 285T464 205Q483 232 500 272T529 357H614ZM272 378Q352 408 352 481Q352 517 332 538T278 560Q243 560 223 539T202 481Q202 449 218 425T272 378ZM228 305Q137 263 137 184Q137 133 171 102T261 71Q302 71 335 86T404 134Q383 164 366 186T330 228T286 265T228 305Z"  />
<glyph unicode="&apos;" horiz-adv-x="359" d="M138 564V634H222V564L204 343H156L138 564Z"  />
<glyph unicode="(" horiz-adv-x="378" d="M306 645Q226 544 189 438T151 208Q151 -28 306 -220L264 -258Q165 -164 114 -45T62 212Q62 348 114 469T264 684L306 645Z"  />
<glyph unicode=")" horiz-adv-x="378" d="M72 -220Q152 -119 189 -13T227 217Q227 337 189 442T72 646L114 684Q213 590 264 471T316 214Q316 78 265 -43T114 -258L72 -220Z"  />
<glyph unicode="*" horiz-adv-x="545" d="M130 502L241 486L173 575L153 609L208 642L228 609L272 505L315 609L335 642L390 609L370 575L302 486L413 502H452V439H413L302 455L370 366L390 332L335 299L315 333L272 436L228 333L208 299L153 332L173 366L241 455L130 439H91V502H130Z"  />
<glyph unicode="+" horiz-adv-x="544" d="M240 513Q240 524 242 526T256 529H288Q300 529 302 527T304 511V349H468Q479 349 481 347T484 333V301Q484 290 482 288T466 285H304V121Q304 110 302 108T288 105H256Q246 105 243 108T240 121V285H76Q65 285 63 287T60 301V333Q60 344 62 346T76 349H240V513Z"  />
<glyph unicode="&#x2c;" horiz-adv-x="278" d="M52 -138Q144 -74 144 -19Q144 -1 120 8Q97 16 88 27T79 57Q79 80 95 95T136 110Q171 110 195 82T219 12Q219 -72 127 -149Q112 -161 100 -169T84 -178Q82 -178 82 -178T78 -173L52 -144V-138Z"  />
<glyph unicode="-" horiz-adv-x="322" d="M283 278L267 199H39L56 278H283Z"  />
<glyph unicode="." horiz-adv-x="278" d="M139 114Q165 114 183 95T201 50Q201 24 183 6T138 -12Q112 -12 94 6T75 50Q75 77 93 95T139 114Z"  />
<glyph unicode="/" horiz-adv-x="422" d="M365 637L63 -179H3L305 637H365Z"  />
<glyph unicode="0" horiz-adv-x="544" d="M280 646Q383 646 438 564T493 324Q493 159 436 74T268 -12Q162 -12 107 70T52 310Q52 476 110 561T280 646ZM273 587Q217 587 186 524Q169 491 162 440T155 306Q155 264 157 232T163 175T173 131T189 96Q219 47 271 47Q333 47 361 112T390 321Q390 461 362 524T273 587Z"  />
<glyph unicode="1" horiz-adv-x="544" d="M348 639V0H252V535L115 470H97V531L308 639H348Z"  />
<glyph unicode="2" horiz-adv-x="544" d="M462 0H60V48Q90 78 121 110T182 172T235 231T277 280Q321 335 340 376T359 462Q359 517 333 547T258 577Q204 577 166 549T116 474Q114 465 113 464T106 462H98Q93 462 92 463T88 472L78 512Q76 518 76 520T76 524Q76 532 85 546T108 576Q176 647 283 647Q366 647 412 603T459 479Q459 429 440 385T377 290Q359 269 344 253T307 215T253 163T168 86H485L462 0Z"  />
<glyph unicode="3" horiz-adv-x="544" d="M154 341Q186 355 206 364T239 380T261 392T280 406Q326 440 326 498Q326 539 304 562T242 585Q197 585 163 563T114 504Q112 501 111 500T105 499H97Q91 499 90 500T87 507L75 548L74 557Q74 567 105 592Q140 621 177 634T263 647Q339 647 382 613T425 516Q425 471 401 439T317 372Q344 369 362 363T399 346Q432 324 450 288T469 208Q469 158 446 112T383 36Q353 13 311 1T221 -12Q110 -12 56 56Q48 66 45 72T42 90Q42 100 43 103T50 109L80 126Q90 131 96 131H108Q115 131 117 124Q152 45 234 45Q263 45 287 56T329 86T357 133T367 193Q367 249 336 282T253 316Q234 316 217 312T167 297L154 341Z"  />
<glyph unicode="4" horiz-adv-x="544" d="M518 160H424V0H333V160H26V227L354 634H424V232H518V160ZM333 524L103 232H333V524Z"  />
<glyph unicode="5" horiz-adv-x="544" d="M479 634L462 548H223L188 428Q264 416 310 401T389 359Q470 296 470 199Q470 154 453 116T404 49T331 4T241 -12Q187 -12 146 4T79 53Q69 65 67 72T64 94Q64 106 65 109T72 116L100 136Q110 142 117 142H130Q135 142 136 141T140 132Q152 93 185 70T265 47Q315 47 347 83T380 175Q380 218 359 251T298 304Q282 311 267 317T233 327T187 336T123 346L108 368L186 634H479Z"  />
<glyph unicode="6" horiz-adv-x="544" d="M470 590H459Q408 590 358 573T270 524Q230 492 207 453T172 356Q214 382 247 393T318 404Q358 404 391 391T447 352T483 291T496 211Q496 161 480 120T435 50T365 4T275 -12Q226 -12 186 6T118 58T75 139T59 246Q59 306 75 362T120 466T190 552T281 613Q320 631 357 639T443 647Q454 647 459 639L478 605L470 590ZM161 253Q161 153 192 100T283 47Q334 47 363 86T393 192Q393 260 364 296T280 333Q249 333 222 322T162 284L161 253Z"  />
<glyph unicode="7" horiz-adv-x="544" d="M495 634V584L174 -23L87 -1V6L399 544H63V634H495Z"  />
<glyph unicode="8" horiz-adv-x="544" d="M336 348Q381 327 404 313T445 283Q493 237 493 168Q493 128 476 95T429 38T355 1T260 -12Q163 -12 107 31T51 150Q51 207 85 248T194 322Q133 354 107 390T80 477Q80 555 136 601T289 647Q374 647 420 610T467 504Q467 453 436 416T336 348ZM289 370Q336 395 356 423T377 494Q377 540 351 566T278 592Q227 592 199 566T170 494Q170 440 219 407Q223 404 228 401T240 395T259 385T289 370ZM241 298Q189 272 167 242T145 165Q145 108 177 78T270 47Q330 47 364 76T399 156Q399 178 393 194T370 226T322 258T241 298Z"  />
<glyph unicode="9" horiz-adv-x="544" d="M77 47Q84 46 89 46T97 46Q147 46 193 62T279 111Q300 128 316 146T344 186T364 232T379 290Q340 263 305 251T231 238Q192 238 159 252T102 291T65 350T52 427Q52 475 68 515T115 585T186 631T277 647Q379 647 433 581T488 389Q488 270 436 177T286 32Q204 -12 111 -12Q99 -12 96 -11T88 -2L67 34L77 47ZM386 359Q387 370 387 375T387 388Q387 485 356 536T266 588Q214 588 185 550T155 446Q155 382 184 346T267 309Q330 309 386 359Z"  />
<glyph unicode=":" horiz-adv-x="278" d="M139 114Q165 114 183 95T201 50Q201 24 183 6T138 -12Q112 -12 94 6T75 50Q75 77 93 95T139 114ZM139 431Q165 431 183 412T201 367Q201 341 183 323T138 305Q112 305 94 323T75 368Q75 394 93 412T139 431Z"  />
<glyph unicode=";" horiz-adv-x="278" d="M141 431Q167 431 185 412T203 367Q203 341 185 323T140 305Q114 305 96 323T77 367Q77 394 95 412T141 431ZM52 -138Q97 -106 120 -76T144 -20Q144 -1 120 8Q97 16 88 27T79 57Q79 80 95 95T136 110Q171 110 195 82T219 12Q219 -73 126 -150Q112 -162 100 -170T84 -178Q82 -178 82 -178T78 -173L52 -144V-138Z"  />
<glyph unicode="&lt;" horiz-adv-x="544" d="M478 476L152 321L478 166V85L66 284V359L478 558V476Z"  />
<glyph unicode="=" horiz-adv-x="544" d="M468 406Q479 406 481 404T484 390V361Q484 350 482 348T466 345H76Q65 345 63 347T60 361V390Q60 401 62 403T76 406H468ZM468 287Q479 287 481 285T484 271V242Q484 231 481 229T466 226H76Q65 226 63 228T60 242V270Q60 281 63 284T76 287H468Z"  />
<glyph unicode="&gt;" horiz-adv-x="544" d="M66 167L392 321L66 476V558L478 359V283L66 85V167Z"  />
<glyph unicode="?" horiz-adv-x="430" d="M66 591Q63 600 63 604Q63 618 73 624Q91 634 117 640T170 646Q212 646 249 630T315 585T361 520T378 443Q378 415 368 390T341 347Q327 333 309 321T250 288Q222 273 207 264T185 242T177 211T174 157H120L119 181Q117 207 116 228T115 263Q115 281 117 292T130 315T159 339T210 371Q238 387 256 399T283 422T296 444T300 469Q300 511 270 537T193 564Q150 564 107 540H84L66 591ZM149 112Q174 112 192 94T210 49Q210 24 192 6T148 -12Q122 -12 104 6T86 49Q86 76 104 94T149 112Z"  />
<glyph unicode="@" horiz-adv-x="793" d="M518 243Q515 223 515 217T514 204Q514 186 532 186Q558 186 583 203T627 248T658 314T670 390Q670 436 654 473T609 538T538 579T445 594Q379 594 322 569T221 501T154 400T129 275Q129 219 148 175T202 99T287 50T400 33Q442 33 484 41T559 63Q565 65 566 65Q570 65 574 55T579 37Q579 31 574 28T542 15Q506 1 467 -5T381 -11Q304 -11 242 9T136 66T69 156T45 274Q45 352 76 419T163 537T292 616T450 645Q515 645 569 627T663 575T725 497T747 396Q747 317 704 254T586 161Q537 142 497 142Q441 142 441 187Q441 201 444 220T453 270Q362 142 294 142Q259 142 239 169T219 244Q219 298 248 350T331 440Q365 464 400 477T483 498L484 505Q485 511 494 511H551Q557 511 557 506L556 500L518 243ZM468 394Q470 412 470 415T471 424Q471 439 450 439Q422 439 395 423T347 381T312 322T298 256Q298 213 323 213Q346 213 381 245T460 337L468 394Z"  />
<glyph unicode="A" horiz-adv-x="633" d="M379 634L631 0H518L445 199H181L100 0H3L301 634H379ZM320 533L207 259H422L320 533Z"  />
<glyph unicode="B" horiz-adv-x="607" d="M91 634Q118 634 135 634T165 635T186 636T208 636Q239 637 261 637T295 638Q359 638 397 630T461 602Q517 562 517 494Q517 446 492 414T413 360Q446 354 465 347T502 326Q532 303 549 269T566 194Q566 142 540 100T467 33Q433 16 386 8T271 0H91V634ZM262 370Q310 370 333 375T375 395Q408 423 408 476Q408 532 378 555T276 579Q270 579 266 579T253 579T231 578T191 576V370H262ZM285 61Q370 61 413 92T456 187Q456 223 441 250T396 291Q357 311 262 311H191V62L285 61Z"  />
<glyph unicode="C" horiz-adv-x="644" d="M616 554Q615 549 615 547T610 543L602 540Q600 538 596 538Q594 538 592 539T579 545Q543 562 495 572T401 583Q356 583 316 570T244 532Q157 463 157 322Q157 262 175 212T226 125T304 69T405 49Q508 49 590 96Q592 97 594 97Q596 97 600 95L607 90Q611 87 611 84V78L602 28Q601 20 599 18T586 13Q548 2 496 -5T394 -12Q328 -12 277 1T184 42Q118 84 82 154T45 305Q45 391 84 463T196 583Q245 615 304 630T438 646Q462 646 489 644T540 639T585 631T615 621Q623 617 623 609V605L616 554Z"  />
<glyph unicode="D" horiz-adv-x="737" d="M91 634Q142 636 179 637T245 639T296 640T337 641Q386 641 424 638T493 626T548 604T595 572Q643 531 667 470T692 334Q692 243 656 172T551 57Q503 26 442 13T286 0H91V634ZM306 62Q380 62 429 76T510 122Q544 155 562 208T580 326Q580 402 556 457T484 544Q453 564 417 572T319 580Q301 580 270 579T194 576V62H306Z"  />
<glyph unicode="E" horiz-adv-x="552" d="M520 634V570H194V368H484V303H194V68H527V0H91V634H520Z"  />
<glyph unicode="F" horiz-adv-x="504" d="M526 634V567H194V360H474V293H194V0H91V634H526Z"  />
<glyph unicode="G" horiz-adv-x="711" d="M648 315V18Q584 4 520 -4T402 -12Q262 -12 178 42Q115 82 80 151T45 302Q45 379 73 442T153 551T277 621T436 646Q457 646 483 644T535 639T582 631T612 623Q617 620 619 617T622 608L625 553V548L623 546L621 544L609 536Q606 534 605 534Q603 534 600 535T586 543Q553 561 507 572T417 583Q357 583 309 565T228 512T176 428T157 317Q157 255 175 206T228 123T312 70T424 51Q454 51 481 54T545 67V315H648Z"  />
<glyph unicode="H" horiz-adv-x="741" d="M546 368V634H649V0H546V300H194V0H91V634H194V368H546Z"  />
<glyph unicode="I" horiz-adv-x="285" d="M194 634V0H91V634H194Z"  />
<glyph unicode="J" horiz-adv-x="285" d="M194 634V97Q194 55 192 26T185 -26T169 -66T144 -103Q110 -145 67 -167T-25 -189Q-49 -189 -71 -183T-105 -165Q-107 -162 -108 -158T-109 -143Q-109 -134 -108 -131T-103 -123L-73 -93Q-67 -88 -62 -88H-55Q-50 -88 -48 -89T-37 -95Q-17 -106 14 -106Q69 -106 84 -53Q88 -37 89 -10T91 75V634H194Z"  />
<glyph unicode="K" horiz-adv-x="607" d="M194 634V0H91V634H194ZM620 634L312 357L630 0H493L200 339L498 634H620Z"  />
<glyph unicode="L" horiz-adv-x="489" d="M194 634V68H503V0H91V634H194Z"  />
<glyph unicode="M" horiz-adv-x="889" d="M208 634L444 144L694 634H790L809 0H708L697 500L446 10L405 4L165 504L157 0H73L111 634H208Z"  />
<glyph unicode="N" horiz-adv-x="737" d="M158 634L580 154L568 634H650L649 5L596 -11L151 493L163 0H81L83 634H158Z"  />
<glyph unicode="O" horiz-adv-x="785" d="M408 649Q481 649 542 625T647 558T716 456T741 325Q741 251 715 189T641 81T528 11T384 -15Q321 -15 266 3T166 56Q109 101 77 169T45 312Q45 385 72 446T148 553T263 623T408 649ZM387 583Q337 583 295 564T222 512T174 431T157 328Q157 269 176 219T228 131T305 72T402 51Q451 51 492 70T564 123T612 204T629 306Q629 371 606 428T541 525Q480 583 387 583Z"  />
<glyph unicode="P" horiz-adv-x="559" d="M91 634Q187 636 233 637T287 638Q353 638 394 630T465 602Q502 579 522 539T543 448Q543 394 518 350T445 278Q411 258 369 250T259 242Q250 242 244 242T230 242T215 242T194 243V0H91V634ZM194 308Q214 306 227 306T258 305Q351 305 392 337T433 443Q433 486 417 516T369 561Q353 568 330 571T271 575Q257 575 234 575T194 573V308Z"  />
<glyph unicode="Q" horiz-adv-x="785" d="M721 -154Q706 -158 694 -159T664 -161Q590 -161 515 -122T367 -8Q298 -7 239 18T137 86T70 187T45 313Q45 384 72 445T148 550T262 620T404 646Q478 646 540 623T646 557T716 455T741 325Q741 267 724 216T675 123T598 51T496 4Q604 -104 716 -107L721 -154ZM387 583Q337 583 295 564T222 512T174 431T157 328Q157 269 176 219T228 131T305 72T402 51Q451 51 492 70T564 123T612 204T629 306Q629 371 606 428T541 525Q480 583 387 583Z"  />
<glyph unicode="R" horiz-adv-x="626" d="M91 634L202 637Q233 638 254 638T295 638Q329 638 355 636T403 631T441 621T472 606Q507 584 525 548T544 466Q544 344 403 292Q418 262 437 231T476 170T515 118T549 80Q585 46 637 41L640 37L630 4Q627 -8 590 -8Q569 -8 545 -3T500 13Q478 23 457 41T413 89T362 164T300 272Q281 270 269 269T237 268Q226 268 217 268T194 269V0H91V634ZM194 329Q215 327 229 327T260 327Q351 327 392 357T434 457Q434 537 374 563Q357 570 334 573T275 576Q258 576 239 576T194 574V329Z"  />
<glyph unicode="S" horiz-adv-x="507" d="M440 557L441 551Q441 550 437 546L420 539Q416 537 415 537Q413 537 401 545Q390 553 375 560T341 572T304 580T269 583Q212 583 179 558T146 487Q146 447 177 422Q185 416 193 411T213 400T242 386T288 366Q318 353 338 343T374 324T400 307T423 288Q444 267 456 239T468 179Q468 137 450 102T400 42T322 2T222 -12Q204 -12 180 -10T131 -5T85 3T52 12Q38 17 37 27L29 88Q28 91 28 95Q28 97 32 101L47 109Q52 111 53 111Q55 111 56 110T65 104Q80 94 101 85T145 70T192 59T236 55Q296 55 333 83T370 157Q370 195 345 220Q331 233 309 245T239 278Q208 291 186 301T148 320T120 337T97 356Q74 376 62 405T50 466Q50 507 67 540T115 596T191 633T289 646Q305 646 325 645T363 640T398 634T422 627Q431 623 432 613L440 557Z"  />
<glyph unicode="T" horiz-adv-x="570" d="M597 634V567H337V0H234V567H-26V634H597Z"  />
<glyph unicode="U" horiz-adv-x="700" d="M185 634V294Q185 245 186 214T190 164T199 132T215 109Q234 88 270 76T354 64Q411 64 454 84T517 140Q523 151 527 165T534 200T538 247T539 312V634H621L618 313Q618 255 614 214T601 142T578 91T541 51Q464 -12 327 -12Q176 -12 119 69Q107 86 100 103T89 144T84 204T82 291V634H185Z"  />
<glyph unicode="V" horiz-adv-x="585" d="M110 634L300 122L515 634H611L315 0H248L-4 634H110Z"  />
<glyph unicode="W" horiz-adv-x="948" d="M105 634L277 127L457 634H516L686 126L871 634H965L700 0H634L475 472L299 0H230L-3 634H105Z"  />
<glyph unicode="X" horiz-adv-x="567" d="M139 634L299 392L466 634H573L339 337L578 0H456L278 270L91 0H-18L238 325L20 634H139Z"  />
<glyph unicode="Y" horiz-adv-x="500" d="M92 634L263 344L438 634H545L296 279V0H193V275L-29 634H92Z"  />
<glyph unicode="Z" horiz-adv-x="563" d="M552 634V592L150 68H553L542 0H10V43L416 567H43V634H552Z"  />
<glyph unicode="[" horiz-adv-x="378" d="M309 679V629H186V-203H309V-253H99V679H309Z"  />
<glyph unicode="\" horiz-adv-x="422" d="M419 -179H359L57 637H117L419 -179Z"  />
<glyph unicode="]" horiz-adv-x="378" d="M68 -253V-203H191V629H68V679H278V-253H68Z"  />
<glyph unicode="^" horiz-adv-x="544" d="M49 334L210 637H333L494 334H395L271 562L148 334H49Z"  />
<glyph unicode="_" horiz-adv-x="476" d="M476 -97V-162H0V-97H476Z"  />
<glyph unicode="`" horiz-adv-x="500" d="M300 473L262 466L100 602V620L175 644L181 642L300 473Z"  />
<glyph unicode="a" horiz-adv-x="497" d="M75 370Q77 381 81 384Q96 395 116 404T160 419T210 429T261 433Q361 433 392 378Q400 363 404 340T407 282L404 112Q404 100 404 93T404 82T404 77T406 72Q410 60 427 60Q453 60 490 77L494 74V35Q494 27 484 21Q473 15 459 9T430 -1T401 -7T377 -10Q336 -10 323 28Q270 8 231 -1T159 -10Q108 -10 79 21T50 109Q50 153 66 176T125 212Q162 223 207 231T315 248Q315 273 315 287T314 310T312 323T309 332Q295 367 231 367Q187 367 159 355T106 313L78 320L75 370ZM314 198Q276 192 247 187T188 173Q159 165 150 155T141 120Q141 88 156 74T207 59Q218 59 228 60T251 63T278 69T314 79V198Z"  />
<glyph unicode="b" horiz-adv-x="555" d="M167 691V394Q218 415 254 424T329 433Q414 433 463 381T513 239Q513 182 493 136T434 58T341 8T221 -10Q185 -10 147 -5T83 9Q76 11 75 13T73 20V691H167ZM167 73Q212 58 267 58Q339 58 376 97T413 214Q413 285 380 323T286 361Q227 361 167 335V73Z"  />
<glyph unicode="c" horiz-adv-x="437" d="M365 332Q339 350 318 357T268 364Q206 364 173 328T140 222Q140 148 176 105T273 61Q341 61 405 101L413 97V60Q413 52 403 43Q387 31 366 21T322 4T276 -8T232 -12Q190 -12 155 2T95 43T56 106T42 188Q42 240 62 285T117 363T199 414T303 433Q337 433 367 424T415 400Q419 397 419 394T420 380Q420 371 419 369T414 361L383 332H365Z"  />
<glyph unicode="d" horiz-adv-x="555" d="M482 691V0H388V42Q308 -9 231 -9Q188 -9 153 5T94 45T56 107T42 188Q42 240 62 284T117 361T201 411T307 430Q327 430 344 428T388 421V691H482ZM388 331Q364 345 339 351T281 358Q212 358 176 321T140 214Q140 144 177 103T276 61Q329 61 388 95V331Z"  />
<glyph unicode="e" horiz-adv-x="452" d="M143 196Q147 130 178 95T267 60Q302 60 332 69T398 98H406L419 60V58V56Q419 53 416 50T402 40Q364 15 320 2T234 -12Q144 -12 93 44T42 201Q42 253 57 296T99 369T164 416T248 433Q332 433 375 381T419 226L143 196ZM315 271Q310 378 236 378Q194 378 169 344T142 249L315 271Z"  />
<glyph unicode="f" horiz-adv-x="304" d="M325 422V361H183V0H88V361H22V404L88 421V443Q88 477 91 503T101 550T121 589T152 624Q185 656 228 674T314 693Q333 693 352 689T387 678T411 663T421 645Q421 635 417 630L387 589H369Q334 620 282 620Q227 620 202 585Q191 570 187 543T183 462V422H325Z"  />
<glyph unicode="g" horiz-adv-x="496" d="M485 361H387Q407 339 416 316T425 262Q425 215 402 179T333 122Q322 116 314 113T297 106T273 99T236 88L190 75Q175 70 175 59Q175 52 180 47T198 38T237 30T303 21Q337 17 360 14T399 6T426 -4T447 -16Q488 -45 488 -94Q488 -130 465 -161T401 -217T307 -254T192 -268Q110 -268 63 -241T15 -165Q15 -145 24 -128T52 -95T103 -64T180 -33Q132 -24 112 -8T92 37Q92 54 98 64T122 83Q128 86 139 90T184 107Q153 113 136 121T102 143Q52 187 52 259Q52 297 66 329T105 384T164 420T239 433Q260 433 278 431T321 420L485 421V361ZM255 144Q333 166 333 249Q333 308 306 344T235 380Q193 380 169 352T144 274Q144 216 172 182T255 144ZM237 -46Q108 -95 108 -149Q108 -176 142 -193T231 -211Q267 -211 299 -203T355 -182T393 -152T408 -114Q408 -77 357 -65Q331 -59 300 -54T237 -46Z"  />
<glyph unicode="h" horiz-adv-x="537" d="M167 691V377Q218 406 257 419T336 433Q415 433 448 377Q453 367 456 357T462 331T465 294T466 242V0H371V244Q371 282 369 298T361 326Q343 356 298 356Q272 356 237 344T167 312V0H73V691H167Z"  />
<glyph unicode="i" horiz-adv-x="241" d="M168 422V0H73V422H168ZM121 682Q144 682 160 666T176 626Q176 603 160 587T120 571Q97 571 81 587T65 626Q65 650 81 666T121 682Z"  />
<glyph unicode="j" horiz-adv-x="241" d="M170 422V-28Q170 -64 168 -89T161 -134T147 -170T125 -203Q98 -235 62 -253T-14 -271Q-45 -271 -64 -262T-83 -239Q-83 -230 -83 -228T-78 -220L-45 -186H-30Q-16 -193 -6 -195T18 -198Q58 -198 70 -162Q71 -157 72 -152T74 -138T75 -116T75 -79V422H170ZM123 682Q146 682 162 666T178 626Q178 603 162 587T122 571Q99 571 83 587T67 626Q67 649 83 665T123 682Z"  />
<glyph unicode="k" horiz-adv-x="485" d="M167 691V0H73V691H167ZM490 422L275 247L499 0H371L173 228L371 422H490Z"  />
<glyph unicode="l" horiz-adv-x="241" d="M168 691V0H73V691H168Z"  />
<glyph unicode="m" horiz-adv-x="815" d="M167 422V365Q221 403 258 418T336 433Q413 433 441 366Q493 402 531 417T610 433Q652 433 684 416T730 368Q734 360 737 351T741 329T743 299T744 258V0H649V246Q649 265 649 278T647 299T645 314T640 325Q624 356 580 356Q529 356 456 308V0H361V241Q361 263 361 277T360 300T357 315T352 326Q345 340 331 348T298 356Q270 356 240 343T168 298V0H73V422H167Z"  />
<glyph unicode="n" horiz-adv-x="537" d="M167 422V363Q195 383 218 396T262 418T301 429T342 433Q420 433 451 376Q456 367 459 358T463 336T465 305T466 256V0H371V239Q371 261 371 275T369 298T366 314T361 326Q345 356 307 356Q245 356 168 298V0H73V422H167Z"  />
<glyph unicode="o" horiz-adv-x="555" d="M291 433Q340 433 381 418T451 374T496 306T513 219Q513 168 495 126T444 53T366 5T268 -13Q218 -13 177 3T105 48T59 117T42 205Q42 256 60 298T111 370T189 416T291 433ZM273 373Q215 373 180 334T144 231Q144 192 155 159T184 101T228 62T284 48Q312 48 335 59T375 90T401 137T411 198Q411 237 401 269T373 324T329 360T273 373Z"  />
<glyph unicode="p" horiz-adv-x="555" d="M167 -251Q167 -259 159 -259H81Q73 -259 73 -251V414Q73 422 81 422H158Q170 422 167 415V414V386Q216 412 252 422T330 433Q371 433 405 419T463 380T500 318T513 238Q513 186 493 142T438 64T356 12T254 -7Q234 -7 215 -5T167 5V-251ZM167 88Q196 74 219 69T271 63Q340 63 377 102T415 214Q415 281 380 321T284 362Q225 362 167 329V88Z"  />
<glyph unicode="q" horiz-adv-x="555" d="M388 26Q340 6 304 -2T231 -11Q143 -11 93 40T42 181Q42 237 62 283T120 363T211 414T328 433Q345 433 365 432T406 427T444 421T473 413Q479 411 480 410T482 403V-251Q482 -259 474 -259H396Q388 -259 388 -251V26ZM388 350Q344 365 295 365Q222 365 183 325T144 209Q144 137 179 99T280 60Q336 60 388 83V350Z"  />
<glyph unicode="r" horiz-adv-x="351" d="M168 422L166 311Q179 332 188 346T204 369T217 385T229 398Q267 433 311 433Q326 433 344 428T370 415Q375 411 375 400Q375 394 375 391T372 382L349 330H334Q324 338 315 341T291 344Q274 344 261 339T234 321T205 285T168 227V0H73V422H168Z"  />
<glyph unicode="s" horiz-adv-x="404" d="M321 339Q292 357 268 365T214 373Q179 373 159 359T138 322Q138 310 141 302T155 287T185 271T236 252Q257 245 272 239T298 228T319 217T336 204Q372 174 372 125Q372 63 321 26T183 -11Q168 -11 151 -10T116 -6T82 0T56 8Q51 10 51 11T48 19L38 82L62 93Q93 71 125 61T195 51Q235 51 257 66T279 108Q279 120 275 128T262 144T235 159T191 176Q167 183 152 188T127 198T109 207T93 217Q48 248 48 303Q48 362 97 397T228 432Q241 432 256 431T285 428T311 424T329 419Q335 417 336 408L344 350L321 339Z"  />
<glyph unicode="t" horiz-adv-x="341" d="M343 422V363H175V161Q175 126 178 109T191 78Q199 68 212 62T241 56Q261 56 283 62T336 82L341 80L347 45Q348 43 348 41Q348 38 344 35T326 25Q257 -12 196 -12Q156 -12 129 6T92 56Q87 73 85 93T83 150L84 362H29V386L153 513H178L175 422H343Z"  />
<glyph unicode="u" horiz-adv-x="537" d="M464 0H371V56Q326 21 286 5T204 -11Q161 -11 130 7T84 60Q80 70 77 81T73 107T71 145T70 201V422H165V202Q165 174 165 157T167 128T170 109T176 95Q184 81 199 73T235 65Q263 65 298 79T369 120V422H464V0Z"  />
<glyph unicode="v" horiz-adv-x="422" d="M104 422L221 103L354 422H440L237 0H169L-2 422H104Z"  />
<glyph unicode="w" horiz-adv-x="692" d="M106 422L211 99L335 422H392L495 101L622 422H706L510 0H441L346 283L230 0H161L5 422H106Z"  />
<glyph unicode="x" horiz-adv-x="418" d="M122 422L225 275L332 422H430L262 222L424 0H313L204 161L89 0H-12L165 215L11 422H122Z"  />
<glyph unicode="y" horiz-adv-x="422" d="M115 422L217 100L356 422H445L101 -264L17 -240L161 -4L6 422H115Z"  />
<glyph unicode="z" horiz-adv-x="404" d="M399 422V382L136 63H399L385 0H9V43L273 362H36V422H399Z"  />
<glyph unicode="{" horiz-adv-x="378" d="M322 631Q293 630 275 625T245 609T230 579T225 533Q225 527 225 507T226 460V386Q226 342 222 312T206 263T174 232T124 213Q155 205 174 194T205 163T221 114T226 40V-35Q225 -61 225 -81T225 -107Q225 -135 229 -153T245 -183T274 -199T322 -205V-254Q298 -254 281 -253T251 -250T226 -245T204 -236Q185 -227 173 -215T153 -185T142 -142T138 -81Q138 -68 138 -54T139 -24L140 67Q140 101 134 124T115 161T78 181T21 189V237Q54 238 70 241T100 254Q122 268 131 292T140 360L139 450Q138 467 138 481T138 507Q138 538 140 560T148 600T162 629T184 650Q205 666 234 673T308 680H322V631Z"  />
<glyph unicode="|" horiz-adv-x="476" d="M285 634V-159H191V634H285Z"  />
<glyph unicode="}" horiz-adv-x="378" d="M56 -205Q86 -204 105 -199T135 -183T150 -154T154 -108L153 -35Q152 -15 152 4T152 40Q152 84 156 114T172 163T203 194T254 213Q223 220 204 231T173 262T157 312T152 386Q152 403 152 422T153 461L154 534Q154 561 150 579T134 609T103 625T56 631V680H70Q173 680 211 635Q228 615 234 587T241 507Q241 496 241 482T240 450Q239 420 239 394T238 357Q238 311 250 285T291 247Q302 242 316 240T357 237V189Q323 188 300 182T264 161T244 125T238 68Q238 57 238 31T240 -24Q241 -41 241 -55T241 -82Q241 -151 227 -185T175 -236Q164 -241 153 -244T128 -250T97 -253T56 -254V-205Z"  />
<glyph unicode="~" horiz-adv-x="544" d="M42 278Q50 294 55 304T64 322T71 334T79 345Q117 398 178 398Q197 398 221 391T282 369Q303 360 316 355T338 347T355 343T370 342Q395 342 411 354T447 399L502 368Q484 331 471 313T439 280Q402 252 358 252Q349 252 339 254T313 260T276 273T222 296Q208 301 195 304T171 308Q148 308 132 294T95 243L42 278Z"  />
<glyph unicode="&#xA0;" horiz-adv-x="241" />
<glyph unicode="&#xA1;" horiz-adv-x="359" d="M123 -223V-103L160 258H198L235 -103V-223H123ZM180 435Q206 435 224 417T242 373Q242 346 224 328T179 309Q153 309 135 327T116 372Q116 398 134 416T180 435Z"  />
<glyph unicode="&#xA2;" horiz-adv-x="544" d="M334 609V540Q374 540 399 535T445 516Q457 508 459 504T462 485Q462 476 461 473T455 466L423 440H403Q392 452 377 458T334 470V201Q363 203 390 214T438 245L449 242L463 203Q464 201 464 198Q464 194 460 190T444 178Q421 162 395 152T334 134V35H286V130Q251 132 227 140T180 166Q148 192 130 231T112 318Q112 358 124 393T160 457T215 506T286 534V609H334ZM286 468Q202 450 202 343Q202 235 286 206V468Z"  />
<glyph unicode="&#xA3;" horiz-adv-x="544" d="M391 264H270Q275 247 276 235T278 209Q278 140 215 81Q229 86 243 87T273 89Q287 89 305 87T352 80Q386 74 401 72T431 70Q460 70 479 78T516 104L531 97V55Q531 47 529 43T518 32Q469 -11 396 -11Q373 -11 348 -8T277 4Q250 9 237 11T212 13Q192 13 179 9T143 -7Q137 -9 137 -9Q132 -9 126 0L112 22Q107 32 107 33Q107 36 110 39T122 48Q153 71 169 100T186 162Q186 183 182 206T168 264H76V324H153Q145 359 141 383T137 429Q137 538 223 598Q255 621 293 633T370 645Q445 645 489 603Q503 589 511 573T519 542Q519 524 507 520L449 497L431 504Q422 575 343 575Q291 575 262 545T233 460Q233 448 234 435T238 407T245 371T257 324H391V264Z"  />
<glyph unicode="&#xA4;" horiz-adv-x="544" d="M93 106Q87 100 86 99T82 98Q77 98 74 103L50 127Q45 132 45 134Q45 138 52 145L122 215Q86 267 86 325Q86 383 122 435L52 505Q45 512 45 516Q45 520 49 524L73 548Q77 552 81 552Q85 552 91 545L163 474Q214 510 272 510Q302 510 329 501T382 475L452 545Q458 551 459 552T463 553Q466 553 471 548L495 524Q500 519 500 516Q500 514 499 512T493 505L422 435Q441 408 450 382T459 325Q459 263 422 215L492 145Q498 139 499 138T500 134Q500 131 495 126L471 102Q465 98 463 98Q459 98 452 105L382 176Q355 158 329 150T272 141Q243 141 217 149T163 176L93 106ZM271 434Q250 434 231 426T197 402T175 368T166 326Q166 303 174 283T197 249T231 226T273 217Q295 217 314 225T348 249T370 283T379 326Q379 348 371 368T348 402T313 425T271 434Z"  />
<glyph unicode="&#xA5;" horiz-adv-x="544" d="M135 634L294 339L460 634H562L387 370H517V325H358L327 279V250H517V205H327V0H227V205H54V250H227V275L198 325H54V370H172L19 634H135Z"  />
<glyph unicode="&#xA6;" horiz-adv-x="476" d="M285 634V312H191V634H285ZM285 146V-159H191V146H285Z"  />
<glyph unicode="&#xA7;" horiz-adv-x="544" d="M380 529Q363 554 343 565T290 576Q244 576 217 552T190 486Q190 468 194 454T213 426T254 395T322 354Q362 331 390 310T436 269T462 227T470 182Q470 107 385 43Q411 19 423 -6T435 -63Q435 -95 420 -128T376 -190Q343 -224 300 -242T207 -260Q169 -260 135 -249T81 -219Q76 -214 75 -211T73 -201Q73 -190 74 -187T78 -178L111 -132H128Q147 -158 175 -171T239 -185Q287 -185 317 -160T347 -92Q347 -61 329 -40Q323 -32 316 -26T298 -11T268 8T219 36Q181 58 154 78T110 118T85 159T77 203Q77 241 96 274T155 341Q102 391 102 454Q102 493 119 528T166 591T235 633T319 649Q359 649 392 637T442 602Q447 596 447 582Q447 573 446 570T441 563L402 529H380ZM199 316Q161 279 161 239Q161 221 166 207T185 177T226 145T294 102Q308 93 318 87T342 72Q382 106 382 148Q382 189 343 224Q337 229 331 233T314 245T287 262T245 287Q227 298 219 303T199 316Z"  />
<glyph unicode="&#xA8;" horiz-adv-x="500" d="M153 597Q173 597 186 583T200 549Q200 529 186 516T152 502Q133 502 119 515T105 549Q105 569 119 583T153 597ZM346 597Q366 597 379 583T393 549Q393 529 380 516T346 502Q326 502 312 515T298 549Q298 569 312 583T346 597Z"  />
<glyph unicode="&#xA9;" horiz-adv-x="766" d="M389 645Q456 645 516 619T622 548T694 444T721 317Q721 249 695 190T622 86T515 15T383 -11Q312 -11 251 15T144 85T72 190T45 319Q45 387 72 446T145 550T254 619T389 645ZM379 591Q323 591 273 570T186 511T127 423T105 316Q105 258 127 208T186 120T274 60T383 38Q441 38 492 60T580 119T639 208T661 318Q661 375 639 425T579 512T490 570T379 591ZM528 452Q527 445 527 444T524 441L520 438L516 437Q514 437 513 437T507 440Q490 447 462 451T413 456Q355 456 323 421T291 321Q291 257 324 219T414 180Q437 180 463 184T506 197Q511 199 512 199T515 200L519 199L522 196Q526 193 526 191V190Q526 189 526 187T525 183L520 152Q518 145 511 144Q494 138 463 134T405 130Q331 130 285 160Q248 184 227 224T206 310Q206 359 228 400T292 468Q320 487 353 495T429 504Q449 504 468 503T501 498T524 492T532 484L531 481L528 452Z"  />
<glyph unicode="&#xAA;" horiz-adv-x="322" d="M44 475V478Q44 484 56 490T86 503T125 512T167 516Q218 516 241 497T265 435V423L263 323Q263 304 264 301T274 298Q283 298 291 300T314 308L321 304V278Q321 271 312 266Q297 258 277 253T242 248Q213 248 204 269Q174 258 148 253T103 248Q68 248 49 267T29 322Q29 342 35 355T60 378T111 394T197 407Q197 422 197 430T196 442T195 448T193 452Q185 470 148 470Q121 470 104 463T71 438L47 443L44 475ZM196 369Q179 367 160 364T123 355Q107 351 102 346T97 329Q97 298 133 298Q160 298 196 308V369Z"  />
<glyph unicode="&#xAB;" horiz-adv-x="485" d="M406 56L226 237L406 420L441 399L332 237L441 76L406 56ZM224 56L44 237L224 420L259 399L150 237L259 76L224 56Z"  />
<glyph unicode="&#xAC;" horiz-adv-x="544" d="M468 406Q479 406 481 404T484 390V222Q484 211 482 209T468 206H439Q428 206 426 208T423 224V345H76Q65 345 63 347T60 361V389Q60 400 63 403T76 406H468Z"  />
<glyph unicode="&#xAD;" horiz-adv-x="322" d="M283 278L267 199H39L56 278H283Z"  />
<glyph unicode="&#xAE;" horiz-adv-x="766" d="M389 645Q456 645 516 619T622 548T694 444T721 317Q721 249 695 190T622 86T515 15T383 -11Q312 -11 251 15T144 85T72 190T45 319Q45 387 72 446T145 550T254 619T389 645ZM379 591Q323 591 273 570T186 511T127 423T105 316Q105 258 127 208T186 120T274 60T383 38Q441 38 492 60T580 119T639 208T661 318Q661 375 639 425T579 512T490 570T379 591ZM244 501Q255 501 261 501T274 502T288 502T311 502Q328 503 341 503T363 503Q407 503 429 500T468 485Q488 472 499 451T511 404Q511 334 429 305Q450 267 467 241T501 197T533 172T565 163L559 142Q558 139 549 137T526 135Q465 135 428 178Q420 186 414 194T401 213T383 242T356 289Q349 288 344 288T331 288H320V140H244V501ZM320 332Q328 331 333 331T347 331Q391 331 411 347T432 400Q432 432 415 445T355 459Q346 459 337 459T320 458V332Z"  />
<glyph unicode="&#xAF;" horiz-adv-x="500" d="M381 588V519H119V588H381Z"  />
<glyph unicode="&#xB0;" horiz-adv-x="544" d="M274 646Q305 646 333 634T382 600T415 550T428 489Q428 457 416 429T382 380T333 347T272 334Q240 334 212 346T162 379T129 428T116 488Q116 521 128 550T161 600T212 634T274 646ZM271 585Q252 585 235 578T206 557T186 527T178 489Q178 469 185 452T205 423T235 403T272 395Q291 395 308 402T338 423T358 453T366 489Q366 530 339 557T271 585Z"  />
<glyph unicode="&#xB1;" horiz-adv-x="544" d="M240 513Q240 524 242 526T256 529H288Q300 529 302 527T304 511V349H468Q479 349 481 347T484 333V301Q484 290 482 288T466 285H304V121Q304 110 302 108T288 105H256Q246 105 243 108T240 121V285H76Q65 285 63 287T60 301V333Q60 344 62 346T76 349H240V513ZM468 64Q479 64 481 62T484 48V16Q484 5 481 3T466 0H76Q65 0 63 2T60 16V48Q60 59 62 61T76 64H468Z"  />
<glyph unicode="&#xB2;" horiz-adv-x="341" d="M295 373H31V407Q50 425 70 444T108 481T142 516T169 545Q197 577 208 600T219 649Q219 710 162 710Q95 710 73 648Q72 643 65 643H59Q54 643 53 644T49 652L43 677Q41 682 41 683T41 686Q41 691 47 700T63 719Q108 762 177 762Q233 762 264 735T296 659Q296 602 243 545Q231 533 222 523T199 501T167 473T119 433H312L295 373Z"  />
<glyph unicode="&#xB3;" horiz-adv-x="341" d="M89 581Q124 594 145 604T179 624T195 644T200 669Q200 715 151 715Q125 715 103 703T73 670Q71 667 70 666T64 665H58Q50 665 48 673L41 698Q39 703 39 706Q39 709 45 715T61 729Q84 746 109 754T165 762Q216 762 244 741T273 681Q273 655 259 636T213 599Q255 591 278 565T301 500Q301 471 289 447T255 405T204 377T138 367Q65 367 29 408Q22 416 21 419T19 432Q19 443 26 447L46 456Q51 459 52 459T58 460H65Q71 460 75 453Q95 410 146 410Q181 410 203 433T226 491Q226 522 208 540T158 558Q146 558 136 556T100 547L89 581Z"  />
<glyph unicode="&#xB4;" horiz-adv-x="500" d="M324 644L399 620V602L237 466L199 473L318 642L324 644Z"  />
<glyph unicode="&#xB5;" horiz-adv-x="535" d="M462 0H373V57Q330 21 295 5T224 -11Q203 -11 188 -7T157 9Q158 -17 158 -38T159 -92V-259H70V422H161V202Q161 174 161 156T163 127T167 108T173 95Q181 81 197 73T234 65Q263 65 298 79T372 121V422H462V0Z"  />
<glyph unicode="&#xB6;" horiz-adv-x="652" d="M533 686V576H542Q598 577 627 587T669 620H683L698 584Q700 578 700 574Q700 566 688 559T656 547Q644 545 637 544T618 543T587 542T533 540V-22Q533 -59 531 -85T522 -131T506 -163T481 -189Q463 -203 439 -212T396 -221Q388 -221 385 -218T379 -202L372 -167L381 -153Q489 -141 489 -21V45Q456 43 435 42T389 41Q324 41 280 48T198 72Q122 106 81 169T40 317Q40 382 64 435T134 522Q175 552 226 565T353 578Q365 578 380 578T415 577Q432 577 443 577T461 576T475 576T489 576V686H533ZM413 540Q392 540 383 538T368 528Q365 524 364 521T362 512T361 492T360 456V169Q360 137 361 119T367 91T381 80T408 78H489V540H413Z"  />
<glyph unicode="&#xB7;" horiz-adv-x="278" d="M139 303Q165 303 183 284T201 239Q201 213 183 195T138 177Q112 177 94 195T75 240Q75 266 93 284T139 303Z"  />
<glyph unicode="&#xB8;" horiz-adv-x="500" d="M302 0L267 -57V-66Q296 -83 307 -96T319 -128Q319 -146 309 -164T283 -196T246 -219T205 -228Q194 -228 183 -225T162 -217T147 -207T141 -195Q141 -190 144 -185L167 -162H180Q200 -185 223 -185Q238 -185 248 -177T258 -156Q258 -144 245 -133T197 -103V-81L256 0H302Z"  />
<glyph unicode="&#xB9;" horiz-adv-x="341" d="M226 757V374H153V684L70 648H54V692L192 757H226Z"  />
<glyph unicode="&#xBA;" horiz-adv-x="359" d="M188 516Q219 516 245 507T290 480T319 439T330 386Q330 356 319 330T286 286T236 257T173 246Q109 246 69 282T29 378Q29 440 73 478T188 516ZM176 472Q144 472 124 451T104 394Q104 350 127 321T184 291Q216 291 235 314T255 375Q255 418 233 445T176 472Z"  />
<glyph unicode="&#xBB;" horiz-adv-x="485" d="M79 420L259 239L79 56L44 77L153 239L44 400L79 420ZM260 420L441 239L260 56L226 77L334 239L226 400L260 420Z"  />
<glyph unicode="&#xBC;" horiz-adv-x="780" d="M232 637V254H159V564L76 528H60V572L198 637H232ZM609 634L174 -10H111L545 634H609ZM719 94H661V0H592V94H402V137L608 381H661V145H719V94ZM592 299L466 145H592V299Z"  />
<glyph unicode="&#xBD;" horiz-adv-x="780" d="M226 637V254H153V564L70 528H54V572L192 637H226ZM608 634L174 -10H110L545 634H608ZM709 0H445V34Q503 88 539 124T597 188T626 235T634 275Q634 336 576 336Q528 336 503 306Q498 299 496 295T487 275Q486 270 478 270H473Q468 270 467 271T463 279L457 304Q455 310 455 313Q455 318 461 327T477 345Q523 388 592 388Q647 388 678 361T710 285Q710 256 698 229T657 171Q646 160 637 151T615 130T583 102T533 60H726L709 0Z"  />
<glyph unicode="&#xBE;" horiz-adv-x="780" d="M105 461Q140 474 161 484T195 504T211 524T216 549Q216 595 167 595Q141 595 119 583T89 550Q87 547 86 546T80 545H74Q66 545 64 553L57 578Q55 583 55 586Q55 589 61 595T77 609Q100 626 125 634T181 642Q232 642 260 621T289 561Q289 535 275 516T229 479Q271 471 294 445T317 380Q317 351 305 327T271 285T220 257T154 247Q81 247 45 288Q38 296 37 299T35 312Q35 323 42 327L62 336Q67 339 68 339T74 340H81Q87 340 91 333Q111 290 162 290Q197 290 219 313T242 371Q242 402 224 420T174 438Q162 438 152 436T116 427L105 461ZM654 634L219 -10H156L590 634H654ZM745 94H687V0H618V94H428V137L634 381H687V145H745V94ZM618 299L492 145H618V299Z"  />
<glyph unicode="&#xBF;" horiz-adv-x="430" d="M364 -170Q366 -176 366 -178T367 -183Q367 -197 357 -203Q340 -212 313 -218T260 -225Q218 -225 181 -209T115 -164T69 -100T52 -22Q52 6 62 31T89 74Q96 81 103 87T121 99T145 114T180 133Q207 148 222 157T244 179T253 211T256 264H309L311 240Q313 214 314 192T315 158Q315 121 294 101Q288 95 284 92T273 83T254 71T220 50Q191 33 174 21T147 -1T134 -23T130 -48Q130 -90 160 -116T236 -143Q277 -143 322 -119H345L364 -170ZM283 433Q308 433 326 415T344 372Q344 346 326 328T282 309Q256 309 238 327T220 372Q220 398 238 415T283 433Z"  />
<glyph unicode="&#xC0;" horiz-adv-x="633" d="M379 634L631 0H518L445 199H181L100 0H3L301 634H379ZM320 533L207 259H422L320 533ZM358 691L320 684L158 820V838L233 862L239 860L358 691Z"  />
<glyph unicode="&#xC1;" horiz-adv-x="633" d="M379 634L631 0H518L445 199H181L100 0H3L301 634H379ZM320 533L207 259H422L320 533ZM391 862L466 838V820L304 684L266 691L385 860L391 862Z"  />
<glyph unicode="&#xC2;" horiz-adv-x="633" d="M379 634L631 0H518L445 199H181L100 0H3L301 634H379ZM320 533L207 259H422L320 533ZM330 855L444 694L413 677L306 772L198 677L168 694L282 855H330Z"  />
<glyph unicode="&#xC3;" horiz-adv-x="633" d="M379 634L631 0H518L445 199H181L100 0H3L301 634H379ZM320 533L207 259H422L320 533ZM467 831L492 810Q473 759 446 732T386 705Q369 705 355 711T314 735Q293 749 283 753T262 758Q245 758 232 745T203 702H198L172 722Q196 778 221 803T278 829Q285 829 290 828T303 824T320 815T349 797Q386 775 400 775Q436 775 462 831H467Z"  />
<glyph unicode="&#xC4;" horiz-adv-x="633" d="M379 634L631 0H518L445 199H181L100 0H3L301 634H379ZM320 533L207 259H422L320 533ZM225 797Q245 797 258 783T272 749Q272 729 258 716T224 702Q205 702 191 715T177 749Q177 769 191 783T225 797ZM418 797Q438 797 451 783T465 749Q465 729 452 716T418 702Q398 702 384 715T370 749Q370 769 384 783T418 797Z"  />
<glyph unicode="&#xC5;" horiz-adv-x="633" d="M379 634L631 0H518L445 199H181L100 0H3L301 634H379ZM320 533L207 259H422L320 533ZM340 879Q385 879 415 850T446 779Q446 758 438 741T415 710T381 689T338 681Q315 681 296 688T262 709T240 740T231 779Q231 800 239 818T262 849T297 871T340 879ZM339 835Q316 835 302 819T288 779Q288 754 302 738T340 722Q362 722 375 737T389 777Q389 803 376 819T339 835Z"  />
<glyph unicode="&#xC6;" horiz-adv-x="903" d="M872 634V570H545V368H836V303H545V68H878V0H447V235H221L67 0H-37L405 634H872ZM447 572H440L260 295H447V572Z"  />
<glyph unicode="&#xC7;" horiz-adv-x="644" d="M390 -58V-68Q420 -86 431 -99T443 -132Q443 -151 433 -169T406 -202T368 -226T325 -235Q314 -235 303 -232T282 -224T266 -213T260 -201Q260 -195 264 -191L287 -167H301Q321 -191 344 -191Q360 -191 370 -183T380 -160Q380 -148 367 -137T318 -107V-84L371 -11Q320 -8 286 -1T219 22Q179 41 147 70T92 136T57 216T45 305Q45 391 84 464T196 583Q245 615 304 630T438 646Q462 646 489 644T540 639T585 631T615 621Q623 617 623 609V605L617 554Q616 549 615 547T610 543L602 540Q600 538 597 538Q595 538 593 539T579 545Q543 562 496 572T401 583Q309 583 244 532Q157 463 157 322Q157 262 175 212T226 126T304 70T405 50Q456 50 504 62T591 97Q592 98 594 98Q596 98 600 95L607 90Q611 88 611 87T612 84Q612 83 611 78L603 28Q601 20 599 18T582 12Q545 1 505 -4T420 -11L390 -58Z"  />
<glyph unicode="&#xC8;" horiz-adv-x="552" d="M520 634V570H194V368H484V303H194V68H527V0H91V634H520ZM344 691L306 684L144 820V838L219 862L225 860L344 691Z"  />
<glyph unicode="&#xC9;" horiz-adv-x="552" d="M520 634V570H194V368H484V303H194V68H527V0H91V634H520ZM347 862L422 838V820L260 684L222 691L341 860L347 862Z"  />
<glyph unicode="&#xCA;" horiz-adv-x="552" d="M520 634V570H194V368H484V303H194V68H527V0H91V634H520ZM297 855L411 694L380 677L273 772L165 677L135 694L249 855H297Z"  />
<glyph unicode="&#xCB;" horiz-adv-x="552" d="M520 634V570H194V368H484V303H194V68H527V0H91V634H520ZM198 797Q218 797 231 783T245 749Q245 729 231 716T197 702Q178 702 164 715T150 749Q150 769 164 783T198 797ZM391 797Q411 797 424 783T438 749Q438 729 425 716T391 702Q371 702 357 715T343 749Q343 769 357 783T391 797Z"  />
<glyph unicode="&#xCC;" horiz-adv-x="285" d="M194 634V0H91V634H194ZM170 691L132 684L-30 820V838L45 862L51 860L170 691Z"  />
<glyph unicode="&#xCD;" horiz-adv-x="285" d="M194 634V0H91V634H194ZM205 862L280 838V820L118 684L80 691L199 860L205 862Z"  />
<glyph unicode="&#xCE;" horiz-adv-x="285" d="M194 634V0H91V634H194ZM160 855L274 694L243 677L136 772L28 677L-2 694L112 855H160Z"  />
<glyph unicode="&#xCF;" horiz-adv-x="285" d="M194 634V0H91V634H194ZM60 797Q80 797 93 783T107 749Q107 729 93 716T59 702Q40 702 26 715T12 749Q12 769 26 783T60 797ZM253 797Q273 797 286 783T300 749Q300 729 287 716T253 702Q233 702 219 715T205 749Q205 769 219 783T253 797Z"  />
<glyph unicode="&#xD0;" horiz-adv-x="737" d="M5 301V362H91V634Q142 636 179 637T245 639T296 640T337 641Q386 641 424 638T493 626T548 604T595 572Q643 531 667 470T692 334Q692 243 656 172T551 57Q503 26 442 13T286 0H91V301H5ZM194 62H307Q450 62 510 122Q544 155 562 208T580 327Q580 402 556 457T484 544Q453 564 417 572T319 580Q300 580 269 579T194 576V362H388V301H194V62Z"  />
<glyph unicode="&#xD1;" horiz-adv-x="737" d="M158 634L580 154L568 634H650L649 5L596 -11L151 493L163 0H81L83 634H158ZM508 831L533 810Q514 759 487 732T427 705Q410 705 396 711T355 735Q334 749 324 753T303 758Q286 758 273 745T244 702H239L213 722Q237 778 262 803T319 829Q326 829 331 828T344 824T361 815T390 797Q427 775 441 775Q477 775 503 831H508Z"  />
<glyph unicode="&#xD2;" horiz-adv-x="785" d="M408 649Q481 649 542 625T647 558T716 456T741 325Q741 251 715 189T641 81T528 11T384 -15Q321 -15 266 3T166 56Q109 101 77 169T45 312Q45 385 72 446T148 553T263 623T408 649ZM387 583Q337 583 295 564T222 512T174 431T157 328Q157 269 176 219T228 131T305 72T402 51Q451 51 492 70T564 123T612 204T629 306Q629 371 606 428T541 525Q480 583 387 583ZM419 691L381 684L219 820V838L294 862L300 860L419 691Z"  />
<glyph unicode="&#xD3;" horiz-adv-x="785" d="M408 649Q481 649 542 625T647 558T716 456T741 325Q741 251 715 189T641 81T528 11T384 -15Q321 -15 266 3T166 56Q109 101 77 169T45 312Q45 385 72 446T148 553T263 623T408 649ZM387 583Q337 583 295 564T222 512T174 431T157 328Q157 269 176 219T228 131T305 72T402 51Q451 51 492 70T564 123T612 204T629 306Q629 371 606 428T541 525Q480 583 387 583ZM454 862L529 838V820L367 684L329 691L448 860L454 862Z"  />
<glyph unicode="&#xD4;" horiz-adv-x="785" d="M408 649Q481 649 542 625T647 558T716 456T741 325Q741 251 715 189T641 81T528 11T384 -15Q321 -15 266 3T166 56Q109 101 77 169T45 312Q45 385 72 446T148 553T263 623T408 649ZM387 583Q337 583 295 564T222 512T174 431T157 328Q157 269 176 219T228 131T305 72T402 51Q451 51 492 70T564 123T612 204T629 306Q629 371 606 428T541 525Q480 583 387 583ZM391 855L505 694L474 677L367 772L259 677L229 694L343 855H391Z"  />
<glyph unicode="&#xD5;" horiz-adv-x="785" d="M408 649Q481 649 542 625T647 558T716 456T741 325Q741 251 715 189T641 81T528 11T384 -15Q321 -15 266 3T166 56Q109 101 77 169T45 312Q45 385 72 446T148 553T263 623T408 649ZM387 583Q337 583 295 564T222 512T174 431T157 328Q157 269 176 219T228 131T305 72T402 51Q451 51 492 70T564 123T612 204T629 306Q629 371 606 428T541 525Q480 583 387 583ZM522 831L547 810Q528 759 501 732T441 705Q424 705 410 711T369 735Q348 749 338 753T317 758Q300 758 287 745T258 702H253L227 722Q251 778 276 803T333 829Q340 829 345 828T358 824T375 815T404 797Q441 775 455 775Q491 775 517 831H522Z"  />
<glyph unicode="&#xD6;" horiz-adv-x="785" d="M408 649Q481 649 542 625T647 558T716 456T741 325Q741 251 715 189T641 81T528 11T384 -15Q321 -15 266 3T166 56Q109 101 77 169T45 312Q45 385 72 446T148 553T263 623T408 649ZM387 583Q337 583 295 564T222 512T174 431T157 328Q157 269 176 219T228 131T305 72T402 51Q451 51 492 70T564 123T612 204T629 306Q629 371 606 428T541 525Q480 583 387 583ZM284 797Q304 797 317 783T331 749Q331 729 317 716T283 702Q264 702 250 715T236 749Q236 769 250 783T284 797ZM477 797Q497 797 510 783T524 749Q524 729 511 716T477 702Q457 702 443 715T429 749Q429 769 443 783T477 797Z"  />
<glyph unicode="&#xD7;" horiz-adv-x="544" d="M95 448Q88 455 88 459Q88 463 96 471L118 493Q127 502 130 502Q132 502 133 501T143 492L272 363L403 494Q410 501 414 501Q418 501 425 494L448 471Q456 463 456 459Q456 457 455 455T447 447L317 317L448 186Q456 179 456 176Q456 172 448 164L425 141Q417 133 413 133Q411 133 410 134T403 141L272 272L141 141Q136 136 134 135T130 133Q126 133 118 141L96 164Q88 170 88 176Q88 179 95 186L226 317L95 448Z"  />
<glyph unicode="&#xD8;" horiz-adv-x="785" d="M631 680H691L619 583Q679 536 710 470T741 325Q741 251 715 189T641 81T528 11T384 -15Q292 -15 211 27L154 -52H95L171 52Q111 100 78 167T45 313Q45 385 72 446T148 553T261 623T403 649Q504 649 579 608L631 680ZM522 541Q496 561 461 572T388 583Q337 583 295 564T222 512T174 431T157 328Q157 212 232 125L522 541ZM268 94Q334 52 402 52Q451 52 492 71T564 124T612 205T629 307Q629 421 558 509L268 94Z"  />
<glyph unicode="&#xD9;" horiz-adv-x="700" d="M185 634V294Q185 245 186 214T190 164T199 132T215 109Q234 88 270 76T354 64Q411 64 454 84T517 140Q523 151 527 165T534 200T538 247T539 312V634H621L618 313Q618 255 614 214T601 142T578 91T541 51Q464 -12 327 -12Q176 -12 119 69Q107 86 100 103T89 144T84 204T82 291V634H185ZM382 691L344 684L182 820V838L257 862L263 860L382 691Z"  />
<glyph unicode="&#xDA;" horiz-adv-x="700" d="M185 634V294Q185 245 186 214T190 164T199 132T215 109Q234 88 270 76T354 64Q411 64 454 84T517 140Q523 151 527 165T534 200T538 247T539 312V634H621L618 313Q618 255 614 214T601 142T578 91T541 51Q464 -12 327 -12Q176 -12 119 69Q107 86 100 103T89 144T84 204T82 291V634H185ZM410 862L485 838V820L323 684L285 691L404 860L410 862Z"  />
<glyph unicode="&#xDB;" horiz-adv-x="700" d="M185 634V294Q185 245 186 214T190 164T199 132T215 109Q234 88 270 76T354 64Q411 64 454 84T517 140Q523 151 527 165T534 200T538 247T539 312V634H621L618 313Q618 255 614 214T601 142T578 91T541 51Q464 -12 327 -12Q176 -12 119 69Q107 86 100 103T89 144T84 204T82 291V634H185ZM354 855L468 694L437 677L330 772L222 677L192 694L306 855H354Z"  />
<glyph unicode="&#xDC;" horiz-adv-x="700" d="M185 634V294Q185 245 186 214T190 164T199 132T215 109Q234 88 270 76T354 64Q411 64 454 84T517 140Q523 151 527 165T534 200T538 247T539 312V634H621L618 313Q618 255 614 214T601 142T578 91T541 51Q464 -12 327 -12Q176 -12 119 69Q107 86 100 103T89 144T84 204T82 291V634H185ZM247 797Q267 797 280 783T294 749Q294 729 280 716T246 702Q227 702 213 715T199 749Q199 769 213 783T247 797ZM440 797Q460 797 473 783T487 749Q487 729 474 716T440 702Q420 702 406 715T392 749Q392 769 406 783T440 797Z"  />
<glyph unicode="&#xDD;" horiz-adv-x="500" d="M92 634L263 344L438 634H545L296 279V0H193V275L-29 634H92ZM318 862L393 838V820L231 684L193 691L312 860L318 862Z"  />
<glyph unicode="&#xDE;" horiz-adv-x="559" d="M194 634V533Q214 534 227 535T251 536T271 537T291 537Q353 537 394 529T465 501Q502 478 522 438T543 347Q543 293 518 249T445 177Q411 157 369 149T257 141Q240 141 227 141T194 142V0H91V634H194ZM194 207Q214 205 227 205T259 204Q351 204 392 236T433 342Q433 385 417 415T369 460Q353 467 329 470T269 474Q254 474 232 474T194 472V207Z"  />
<glyph unicode="&#xDF;" horiz-adv-x="563" d="M69 431Q69 473 71 503T81 555T99 595T128 629Q197 693 315 693Q394 693 436 661T478 565Q478 542 473 524T456 491T425 460T375 427Q338 407 325 391T311 352Q311 324 334 303Q339 299 344 296T357 289T377 278T408 263Q442 247 465 232T503 202T523 168T530 129Q530 97 517 72T479 27T420 -2T343 -12Q329 -12 312 -11T279 -6T250 0T231 7Q225 10 224 17L216 77L238 89Q291 48 352 48Q388 48 409 65T430 113Q430 125 427 134T415 153T391 170T353 190Q314 208 289 223T248 255T228 289T222 330Q222 349 226 364T241 394T271 423T320 458Q358 482 371 502T385 554Q385 629 293 629Q250 629 221 615T179 572Q174 561 171 551T167 527T165 490T164 433V0H69V431Z"  />
<glyph unicode="&#xE0;" horiz-adv-x="497" d="M75 370Q77 381 81 384Q96 395 116 404T160 419T210 429T261 433Q361 433 392 378Q400 363 404 340T407 282L404 112Q404 100 404 93T404 82T404 77T406 72Q410 60 427 60Q453 60 490 77L494 74V35Q494 27 484 21Q473 15 459 9T430 -1T401 -7T377 -10Q336 -10 323 28Q270 8 231 -1T159 -10Q108 -10 79 21T50 109Q50 153 66 176T125 212Q162 223 207 231T315 248Q315 273 315 287T314 310T312 323T309 332Q295 367 231 367Q187 367 159 355T106 313L78 320L75 370ZM314 198Q276 192 247 187T188 173Q159 165 150 155T141 120Q141 88 156 74T207 59Q218 59 228 60T251 63T278 69T314 79V198ZM322 473L284 466L122 602V620L197 644L203 642L322 473Z"  />
<glyph unicode="&#xE1;" horiz-adv-x="497" d="M75 370Q77 381 81 384Q96 395 116 404T160 419T210 429T261 433Q361 433 392 378Q400 363 404 340T407 282L404 112Q404 100 404 93T404 82T404 77T406 72Q410 60 427 60Q453 60 490 77L494 74V35Q494 27 484 21Q473 15 459 9T430 -1T401 -7T377 -10Q336 -10 323 28Q270 8 231 -1T159 -10Q108 -10 79 21T50 109Q50 153 66 176T125 212Q162 223 207 231T315 248Q315 273 315 287T314 310T312 323T309 332Q295 367 231 367Q187 367 159 355T106 313L78 320L75 370ZM314 198Q276 192 247 187T188 173Q159 165 150 155T141 120Q141 88 156 74T207 59Q218 59 228 60T251 63T278 69T314 79V198ZM315 644L390 620V602L228 466L190 473L309 642L315 644Z"  />
<glyph unicode="&#xE2;" horiz-adv-x="497" d="M75 370Q77 381 81 384Q96 395 116 404T160 419T210 429T261 433Q361 433 392 378Q400 363 404 340T407 282L404 112Q404 100 404 93T404 82T404 77T406 72Q410 60 427 60Q453 60 490 77L494 74V35Q494 27 484 21Q473 15 459 9T430 -1T401 -7T377 -10Q336 -10 323 28Q270 8 231 -1T159 -10Q108 -10 79 21T50 109Q50 153 66 176T125 212Q162 223 207 231T315 248Q315 273 315 287T314 310T312 323T309 332Q295 367 231 367Q187 367 159 355T106 313L78 320L75 370ZM314 198Q276 192 247 187T188 173Q159 165 150 155T141 120Q141 88 156 74T207 59Q218 59 228 60T251 63T278 69T314 79V198ZM274 642L388 481L357 464L250 559L142 464L112 481L226 642H274Z"  />
<glyph unicode="&#xE3;" horiz-adv-x="497" d="M75 370Q77 381 81 384Q96 395 116 404T160 419T210 429T261 433Q361 433 392 378Q400 363 404 340T407 282L404 112Q404 100 404 93T404 82T404 77T406 72Q410 60 427 60Q453 60 490 77L494 74V35Q494 27 484 21Q473 15 459 9T430 -1T401 -7T377 -10Q336 -10 323 28Q270 8 231 -1T159 -10Q108 -10 79 21T50 109Q50 153 66 176T125 212Q162 223 207 231T315 248Q315 273 315 287T314 310T312 323T309 332Q295 367 231 367Q187 367 159 355T106 313L78 320L75 370ZM314 198Q276 192 247 187T188 173Q159 165 150 155T141 120Q141 88 156 74T207 59Q218 59 228 60T251 63T278 69T314 79V198ZM385 626L410 605Q391 554 364 527T304 500Q287 500 273 506T232 530Q211 544 201 548T180 553Q163 553 150 540T121 497H116L90 517Q114 573 139 598T196 624Q203 624 208 623T221 619T238 610T267 592Q304 570 318 570Q354 570 380 626H385Z"  />
<glyph unicode="&#xE4;" horiz-adv-x="497" d="M75 370Q77 381 81 384Q96 395 116 404T160 419T210 429T261 433Q361 433 392 378Q400 363 404 340T407 282L404 112Q404 100 404 93T404 82T404 77T406 72Q410 60 427 60Q453 60 490 77L494 74V35Q494 27 484 21Q473 15 459 9T430 -1T401 -7T377 -10Q336 -10 323 28Q270 8 231 -1T159 -10Q108 -10 79 21T50 109Q50 153 66 176T125 212Q162 223 207 231T315 248Q315 273 315 287T314 310T312 323T309 332Q295 367 231 367Q187 367 159 355T106 313L78 320L75 370ZM314 198Q276 192 247 187T188 173Q159 165 150 155T141 120Q141 88 156 74T207 59Q218 59 228 60T251 63T278 69T314 79V198ZM153 597Q173 597 186 583T200 549Q200 529 186 516T152 502Q133 502 119 515T105 549Q105 569 119 583T153 597ZM346 597Q366 597 379 583T393 549Q393 529 380 516T346 502Q326 502 312 515T298 549Q298 569 312 583T346 597Z"  />
<glyph unicode="&#xE5;" horiz-adv-x="497" d="M75 370Q77 381 81 384Q96 395 116 404T160 419T210 429T261 433Q361 433 392 378Q400 363 404 340T407 282L404 112Q404 100 404 93T404 82T404 77T406 72Q410 60 427 60Q453 60 490 77L494 74V35Q494 27 484 21Q473 15 459 9T430 -1T401 -7T377 -10Q336 -10 323 28Q270 8 231 -1T159 -10Q108 -10 79 21T50 109Q50 153 66 176T125 212Q162 223 207 231T315 248Q315 273 315 287T314 310T312 323T309 332Q295 367 231 367Q187 367 159 355T106 313L78 320L75 370ZM314 198Q276 192 247 187T188 173Q159 165 150 155T141 120Q141 88 156 74T207 59Q218 59 228 60T251 63T278 69T314 79V198ZM252 671Q297 671 327 642T358 571Q358 550 350 533T327 502T293 481T250 473Q227 473 208 480T174 501T152 532T143 571Q143 592 151 610T174 641T209 663T252 671ZM251 627Q228 627 214 611T200 571Q200 546 214 530T252 514Q274 514 287 529T301 569Q301 595 288 611T251 627Z"  />
<glyph unicode="&#xE6;" horiz-adv-x="701" d="M394 202Q398 125 426 91T514 57Q549 57 579 66T648 98H655L668 59Q669 58 669 56Q669 52 664 48T642 34Q599 10 559 -1T473 -13Q428 -13 396 1T339 45Q309 29 285 19T240 2T200 -8T161 -11Q105 -11 76 18T46 105Q46 150 66 175T134 217Q145 220 158 223T189 231T235 241T302 254Q302 275 302 287T301 305T300 316T298 326Q289 369 228 369Q150 369 96 313L75 320L68 375L67 382Q67 386 72 389T94 400Q127 415 168 423T249 432Q294 432 320 422T365 388Q394 411 425 422T497 433Q666 433 666 233L394 202ZM562 278Q559 326 539 352T482 378Q397 378 394 256L562 278ZM301 200Q225 188 187 172Q163 162 154 150T145 115Q145 56 201 56Q227 56 256 66T314 94Q310 107 308 118T305 140T302 166T301 200Z"  />
<glyph unicode="&#xE7;" horiz-adv-x="437" d="M365 332Q339 350 318 357T267 364Q206 364 173 327T140 221Q140 149 176 105T273 61Q341 61 405 101L413 97V61Q413 55 411 52T403 43Q382 28 351 15T284 -6L253 -56V-66Q282 -83 293 -96T305 -128Q305 -146 295 -164T269 -196T233 -219T192 -228Q181 -228 170 -225T149 -217T134 -206T128 -194Q128 -190 131 -185L154 -162H167Q187 -185 209 -185Q224 -185 234 -177T244 -156Q244 -144 231 -133T184 -103V-81L233 -12Q191 -12 156 2T95 43T56 106T42 188Q42 240 62 285T117 363T199 414T303 433Q336 433 367 424T415 400Q419 397 419 394T420 380Q420 371 419 369T414 361L383 332H365Z"  />
<glyph unicode="&#xE8;" horiz-adv-x="452" d="M143 196Q147 130 178 95T267 60Q302 60 332 69T398 98H406L419 60V58V56Q419 53 416 50T402 40Q364 15 320 2T234 -12Q144 -12 93 44T42 201Q42 253 57 296T99 369T164 416T248 433Q332 433 375 381T419 226L143 196ZM315 271Q310 378 236 378Q194 378 169 344T142 249L315 271ZM300 473L262 466L100 602V620L175 644L181 642L300 473Z"  />
<glyph unicode="&#xE9;" horiz-adv-x="452" d="M143 196Q147 130 178 95T267 60Q302 60 332 69T398 98H406L419 60V58V56Q419 53 416 50T402 40Q364 15 320 2T234 -12Q144 -12 93 44T42 201Q42 253 57 296T99 369T164 416T248 433Q332 433 375 381T419 226L143 196ZM315 271Q310 378 236 378Q194 378 169 344T142 249L315 271ZM301 644L376 620V602L214 466L176 473L295 642L301 644Z"  />
<glyph unicode="&#xEA;" horiz-adv-x="452" d="M143 196Q147 130 178 95T267 60Q302 60 332 69T398 98H406L419 60V58V56Q419 53 416 50T402 40Q364 15 320 2T234 -12Q144 -12 93 44T42 201Q42 253 57 296T99 369T164 416T248 433Q332 433 375 381T419 226L143 196ZM315 271Q310 378 236 378Q194 378 169 344T142 249L315 271ZM265 642L379 481L348 464L241 559L133 464L103 481L217 642H265Z"  />
<glyph unicode="&#xEB;" horiz-adv-x="452" d="M143 196Q147 130 178 95T267 60Q302 60 332 69T398 98H406L419 60V58V56Q419 53 416 50T402 40Q364 15 320 2T234 -12Q144 -12 93 44T42 201Q42 253 57 296T99 369T164 416T248 433Q332 433 375 381T419 226L143 196ZM315 271Q310 378 236 378Q194 378 169 344T142 249L315 271ZM152 597Q172 597 185 583T199 549Q199 529 185 516T151 502Q132 502 118 515T104 549Q104 569 118 583T152 597ZM345 597Q365 597 378 583T392 549Q392 529 379 516T345 502Q325 502 311 515T297 549Q297 569 311 583T345 597Z"  />
<glyph unicode="&#xEC;" horiz-adv-x="241" d="M168 422V0H73V422H168ZM167 473L129 466L-33 602V620L42 644L48 642L167 473Z"  />
<glyph unicode="&#xED;" horiz-adv-x="241" d="M168 422V0H73V422H168ZM200 644L275 620V602L113 466L75 473L194 642L200 644Z"  />
<glyph unicode="&#xEE;" horiz-adv-x="241" d="M168 422V0H73V422H168ZM163 642L277 481L246 464L139 559L31 464L1 481L115 642H163Z"  />
<glyph unicode="&#xEF;" horiz-adv-x="241" d="M168 422V0H73V422H168ZM50 597Q70 597 83 583T97 549Q97 529 83 516T49 502Q30 502 16 515T2 549Q2 569 16 583T50 597ZM243 597Q263 597 276 583T290 549Q290 529 277 516T243 502Q223 502 209 515T195 549Q195 569 209 583T243 597Z"  />
<glyph unicode="&#xF0;" horiz-adv-x="555" d="M299 691L344 616L425 660L450 615L369 572Q410 501 437 448T482 352T506 276T513 210Q513 163 494 122T442 51T365 4T268 -13Q218 -13 177 3T105 48T59 117T42 206Q42 255 60 296T110 368T185 416T280 433Q306 433 327 428T368 412Q363 424 355 440T339 473T321 506T305 535L225 493L200 538L281 580Q267 608 258 623T238 658L299 691ZM272 373Q215 373 180 334T144 231Q144 192 155 159T184 101T228 62T284 48Q312 48 335 59T374 90T400 137T410 198Q410 236 400 268T372 323T328 360T272 373Z"  />
<glyph unicode="&#xF1;" horiz-adv-x="537" d="M167 422V363Q195 383 218 396T262 418T301 429T342 433Q420 433 451 376Q456 367 459 358T463 336T465 305T466 256V0H371V239Q371 261 371 275T369 298T366 314T361 326Q345 356 307 356Q245 356 168 298V0H73V422H167ZM415 622L440 601Q421 550 394 523T334 496Q317 496 303 502T262 526Q241 540 231 544T210 549Q193 549 180 536T151 493H146L120 513Q144 569 169 594T226 620Q233 620 238 619T251 615T268 606T297 588Q334 566 348 566Q384 566 410 622H415Z"  />
<glyph unicode="&#xF2;" horiz-adv-x="555" d="M291 433Q340 433 381 418T451 374T496 306T513 219Q513 168 495 126T444 53T366 5T268 -13Q218 -13 177 3T105 48T59 117T42 205Q42 256 60 298T111 370T189 416T291 433ZM273 373Q215 373 180 334T144 231Q144 192 155 159T184 101T228 62T284 48Q312 48 335 59T375 90T401 137T411 198Q411 237 401 269T373 324T329 360T273 373ZM328 473L290 466L128 602V620L203 644L209 642L328 473Z"  />
<glyph unicode="&#xF3;" horiz-adv-x="555" d="M291 433Q340 433 381 418T451 374T496 306T513 219Q513 168 495 126T444 53T366 5T268 -13Q218 -13 177 3T105 48T59 117T42 205Q42 256 60 298T111 370T189 416T291 433ZM273 373Q215 373 180 334T144 231Q144 192 155 159T184 101T228 62T284 48Q312 48 335 59T375 90T401 137T411 198Q411 237 401 269T373 324T329 360T273 373ZM352 644L427 620V602L265 466L227 473L346 642L352 644Z"  />
<glyph unicode="&#xF4;" horiz-adv-x="555" d="M291 433Q340 433 381 418T451 374T496 306T513 219Q513 168 495 126T444 53T366 5T268 -13Q218 -13 177 3T105 48T59 117T42 205Q42 256 60 298T111 370T189 416T291 433ZM273 373Q215 373 180 334T144 231Q144 192 155 159T184 101T228 62T284 48Q312 48 335 59T375 90T401 137T411 198Q411 237 401 269T373 324T329 360T273 373ZM301 642L415 481L384 464L277 559L169 464L139 481L253 642H301Z"  />
<glyph unicode="&#xF5;" horiz-adv-x="555" d="M291 433Q340 433 381 418T451 374T496 306T513 219Q513 168 495 126T444 53T366 5T268 -13Q218 -13 177 3T105 48T59 117T42 205Q42 256 60 298T111 370T189 416T291 433ZM273 373Q215 373 180 334T144 231Q144 192 155 159T184 101T228 62T284 48Q312 48 335 59T375 90T401 137T411 198Q411 237 401 269T373 324T329 360T273 373ZM418 626L443 605Q424 554 397 527T337 500Q320 500 306 506T265 530Q244 544 234 548T213 553Q196 553 183 540T154 497H149L123 517Q147 573 172 598T229 624Q236 624 241 623T254 619T271 610T300 592Q337 570 351 570Q387 570 413 626H418Z"  />
<glyph unicode="&#xF6;" horiz-adv-x="555" d="M291 433Q340 433 381 418T451 374T496 306T513 219Q513 168 495 126T444 53T366 5T268 -13Q218 -13 177 3T105 48T59 117T42 205Q42 256 60 298T111 370T189 416T291 433ZM273 373Q215 373 180 334T144 231Q144 192 155 159T184 101T228 62T284 48Q312 48 335 59T375 90T401 137T411 198Q411 237 401 269T373 324T329 360T273 373ZM180 597Q200 597 213 583T227 549Q227 529 213 516T179 502Q160 502 146 515T132 549Q132 569 146 583T180 597ZM373 597Q393 597 406 583T420 549Q420 529 407 516T373 502Q353 502 339 515T325 549Q325 569 339 583T373 597Z"  />
<glyph unicode="&#xF7;" horiz-adv-x="544" d="M272 526Q295 526 311 509T328 469Q328 446 311 429T271 412Q248 412 231 428T214 468Q214 493 230 509T272 526ZM272 225Q295 225 311 208T328 167Q328 144 311 128T271 111Q248 111 231 127T214 167Q214 192 230 208T272 225ZM468 349Q479 349 481 347T484 333V301Q484 290 482 288T466 285H76Q65 285 63 287T60 301V333Q60 344 62 346T76 349H468Z"  />
<glyph unicode="&#xF8;" horiz-adv-x="555" d="M435 458H485L434 388Q472 359 492 315T513 218Q513 168 495 126T444 52T366 4T268 -13Q237 -13 212 -8T159 10L118 -46H70L125 31Q42 94 42 207Q42 257 60 298T110 370T188 416T288 433Q320 433 347 428T400 409L435 458ZM350 348Q318 375 273 375Q214 375 178 336T142 232Q142 196 152 165T183 102L350 348ZM210 72Q228 58 245 52T284 46Q312 46 336 57T377 88T403 137T413 198Q413 264 377 317L210 72Z"  />
<glyph unicode="&#xF9;" horiz-adv-x="537" d="M464 0H371V56Q326 21 286 5T204 -11Q161 -11 130 7T84 60Q80 70 77 81T73 107T71 145T70 201V422H165V202Q165 174 165 157T167 128T170 109T176 95Q184 81 199 73T235 65Q263 65 298 79T369 120V422H464V0ZM318 473L280 466L118 602V620L193 644L199 642L318 473Z"  />
<glyph unicode="&#xFA;" horiz-adv-x="537" d="M464 0H371V56Q326 21 286 5T204 -11Q161 -11 130 7T84 60Q80 70 77 81T73 107T71 145T70 201V422H165V202Q165 174 165 157T167 128T170 109T176 95Q184 81 199 73T235 65Q263 65 298 79T369 120V422H464V0ZM342 644L417 620V602L255 466L217 473L336 642L342 644Z"  />
<glyph unicode="&#xFB;" horiz-adv-x="537" d="M464 0H371V56Q326 21 286 5T204 -11Q161 -11 130 7T84 60Q80 70 77 81T73 107T71 145T70 201V422H165V202Q165 174 165 157T167 128T170 109T176 95Q184 81 199 73T235 65Q263 65 298 79T369 120V422H464V0ZM292 642L406 481L375 464L268 559L160 464L130 481L244 642H292Z"  />
<glyph unicode="&#xFC;" horiz-adv-x="537" d="M464 0H371V56Q326 21 286 5T204 -11Q161 -11 130 7T84 60Q80 70 77 81T73 107T71 145T70 201V422H165V202Q165 174 165 157T167 128T170 109T176 95Q184 81 199 73T235 65Q263 65 298 79T369 120V422H464V0ZM171 597Q191 597 204 583T218 549Q218 529 204 516T170 502Q151 502 137 515T123 549Q123 569 137 583T171 597ZM364 597Q384 597 397 583T411 549Q411 529 398 516T364 502Q344 502 330 515T316 549Q316 569 330 583T364 597Z"  />
<glyph unicode="&#xFD;" horiz-adv-x="422" d="M115 422L217 100L356 422H445L101 -264L17 -240L161 -4L6 422H115ZM293 644L368 620V602L206 466L168 473L287 642L293 644Z"  />
<glyph unicode="&#xFE;" horiz-adv-x="555" d="M168 -251Q168 -256 167 -257T159 -259H81Q73 -259 73 -251V683Q73 691 81 691H158Q165 691 166 690T167 683V386Q194 400 215 409T255 423T291 431T330 433Q371 433 405 419T463 380T500 318T513 238Q513 186 493 142T438 64T356 12T254 -7Q234 -7 215 -5T168 5V-251ZM167 88Q196 74 219 69T271 63Q340 63 377 102T415 214Q415 281 380 321T284 362Q255 362 227 354T167 329V88Z"  />
<glyph unicode="&#xFF;" horiz-adv-x="422" d="M115 422L217 100L356 422H445L101 -264L17 -240L161 -4L6 422H115ZM132 597Q152 597 165 583T179 549Q179 529 165 516T131 502Q112 502 98 515T84 549Q84 569 98 583T132 597ZM325 597Q345 597 358 583T372 549Q372 529 359 516T325 502Q305 502 291 515T277 549Q277 569 291 583T325 597Z"  />
<glyph unicode="&#x131;" horiz-adv-x="241" d="M168 422V0H73V422H168Z"  />
<glyph unicode="&#x152;" horiz-adv-x="989" d="M958 634V570H633V368H921V303H633V68H964V0H539V22Q498 5 458 -3T374 -11Q303 -11 243 13T139 82T71 187T46 320Q46 392 72 452T144 556T255 624T396 649Q435 649 468 643T539 622V634H958ZM536 547Q501 567 467 576T395 586Q343 586 300 568T225 516T176 436T158 335Q158 274 176 223T227 134T303 75T400 54Q437 54 469 63T536 94V547Z"  />
<glyph unicode="&#x153;" horiz-adv-x="811" d="M505 197Q509 128 541 92T633 56Q665 56 692 64T754 95H763L776 58V55Q776 51 773 48T761 38Q682 -12 605 -12Q551 -12 514 8T450 71Q427 48 406 32T362 7T315 -7T261 -12Q213 -12 173 4T104 48T59 117T42 204Q42 254 60 296T110 368T188 416T287 433Q344 433 384 416T459 358Q519 433 609 433Q660 433 698 411T757 346Q768 323 773 296T778 229L505 197ZM675 273Q673 323 652 350T596 378Q555 378 531 344T504 250L675 273ZM276 373Q216 373 180 334T144 231Q144 193 155 160T185 102T229 63T285 49Q343 49 378 92T414 205Q414 242 404 273T376 326T333 361T276 373Z"  />
<glyph unicode="&#x160;" horiz-adv-x="507" d="M440 557L441 551Q441 550 437 546L420 539Q416 537 415 537Q413 537 401 545Q390 553 375 560T341 572T304 580T269 583Q212 583 179 558T146 487Q146 447 177 422Q185 416 193 411T213 400T242 386T288 366Q318 353 338 343T374 324T400 307T423 288Q444 267 456 239T468 179Q468 137 450 102T400 42T322 2T222 -12Q204 -12 180 -10T131 -5T85 3T52 12Q38 17 37 27L29 88Q28 91 28 95Q28 97 32 101L47 109Q52 111 53 111Q55 111 56 110T65 104Q80 94 101 85T145 70T192 59T236 55Q296 55 333 83T370 157Q370 195 345 220Q331 233 309 245T239 278Q208 291 186 301T148 320T120 337T97 356Q74 376 62 405T50 466Q50 507 67 540T115 596T191 633T289 646Q305 646 325 645T363 640T398 634T422 627Q431 623 432 613L440 557ZM210 688L96 849L126 867L234 772L341 867L372 849L258 688H210Z"  />
<glyph unicode="&#x161;" horiz-adv-x="404" d="M321 339Q292 357 268 365T214 373Q179 373 159 359T138 322Q138 310 141 302T155 287T185 271T236 252Q257 245 272 239T298 228T319 217T336 204Q372 174 372 125Q372 63 321 26T183 -11Q168 -11 151 -10T116 -6T82 0T56 8Q51 10 51 11T48 19L38 82L62 93Q93 71 125 61T195 51Q235 51 257 66T279 108Q279 120 275 128T262 144T235 159T191 176Q167 183 152 188T127 198T109 207T93 217Q48 248 48 303Q48 362 97 397T228 432Q241 432 256 431T285 428T311 424T329 419Q335 417 336 408L344 350L321 339ZM181 473L67 634L97 652L205 557L312 652L343 634L229 473H181Z"  />
<glyph unicode="&#x178;" horiz-adv-x="500" d="M92 634L263 344L438 634H545L296 279V0H193V275L-29 634H92ZM153 797Q173 797 186 783T200 749Q200 729 186 716T152 702Q133 702 119 715T105 749Q105 769 119 783T153 797ZM346 797Q366 797 379 783T393 749Q393 729 380 716T346 702Q326 702 312 715T298 749Q298 769 312 783T346 797Z"  />
<glyph unicode="&#x17D;" horiz-adv-x="563" d="M552 634V592L150 68H553L542 0H10V43L416 567H43V634H552ZM234 688L120 849L150 867L258 772L365 867L396 849L282 688H234Z"  />
<glyph unicode="&#x17E;" horiz-adv-x="404" d="M399 422V382L136 63H399L385 0H9V43L273 362H36V422H399ZM194 473L80 634L110 652L218 557L325 652L356 634L242 473H194Z"  />
<glyph unicode="&#x192;" horiz-adv-x="544" d="M406 346L393 287H291L260 142Q247 80 238 42T221 -20T204 -59T182 -93Q156 -128 118 -149T40 -170Q10 -170 -14 -158T-39 -130V-126Q-39 -120 -33 -114L0 -75H20Q36 -89 46 -94T67 -99Q96 -99 115 -56Q119 -47 122 -38T128 -14T137 22T150 80L195 287H111L124 346H207L215 379Q224 421 231 449T248 499T268 535T294 567Q329 604 373 625T460 646Q483 646 503 640T539 625T564 602T573 574Q573 554 559 549L510 530L489 534Q476 574 428 574Q381 574 356 534Q347 519 339 492T320 417L304 346H406Z"  />
<glyph unicode="&#x2C6;" horiz-adv-x="500" d="M274 642L388 481L357 464L250 559L142 464L112 481L226 642H274Z"  />
<glyph unicode="&#x2C7;" horiz-adv-x="500" d="M226 473L112 634L142 652L250 557L357 652L388 634L274 473H226Z"  />
<glyph unicode="&#x2DA;" horiz-adv-x="500" d="M252 671Q297 671 327 642T358 571Q358 550 350 533T327 502T293 481T250 473Q227 473 208 480T174 501T152 532T143 571Q143 592 151 610T174 641T209 663T252 671ZM251 627Q228 627 214 611T200 571Q200 546 214 530T252 514Q274 514 287 529T301 569Q301 595 288 611T251 627Z"  />
<glyph unicode="&#x2DC;" horiz-adv-x="500" d="M385 622L410 601Q391 550 364 523T304 496Q287 496 273 502T232 526Q211 540 201 544T180 549Q163 549 150 536T121 493H116L90 513Q114 569 139 594T196 620Q203 620 208 619T221 615T238 606T267 588Q304 566 318 566Q354 566 380 622H385Z"  />
<glyph unicode="&#x2013;" horiz-adv-x="467" d="M430 264V207H37V264H430Z"  />
<glyph unicode="&#x2014;" horiz-adv-x="737" d="M702 264V207H36V264H702Z"  />
<glyph unicode="&#x2018;" horiz-adv-x="267" d="M214 631Q125 565 125 512Q125 492 148 483Q171 475 180 465T189 437Q189 415 173 401T133 386Q98 386 76 412T53 481Q53 519 72 557T130 630Q136 636 144 642T161 654T176 664T184 668Q186 668 189 665L214 636V631Z"  />
<glyph unicode="&#x2019;" horiz-adv-x="267" d="M53 417Q142 481 142 536Q142 556 119 565Q96 573 87 583T78 611Q78 634 94 648T134 662Q169 662 191 636T214 567Q214 529 195 491T137 418Q130 412 122 406T105 393T91 384T83 380Q81 380 78 383L53 411V417Z"  />
<glyph unicode="&#x201A;" horiz-adv-x="267" d="M53 -135Q142 -70 142 -16Q142 4 119 13Q96 21 87 31T78 59Q78 81 94 95T134 110Q169 110 191 84T214 15Q214 -63 137 -134Q130 -140 122 -146T105 -159T91 -168T83 -172Q81 -172 78 -169L53 -141V-135Z"  />
<glyph unicode="&#x201C;" horiz-adv-x="467" d="M414 631Q325 565 325 511Q325 492 348 483Q371 475 380 465T389 437Q389 415 373 401T333 386Q298 386 276 412T253 481Q253 519 272 557T330 630Q336 636 344 642T361 654T376 664T384 668Q386 668 389 665L414 636V631ZM214 631Q125 565 125 512Q125 493 150 483Q172 475 180 465T189 436Q189 415 173 401T133 386Q98 386 76 412T53 481Q53 519 72 557T130 630Q136 636 144 642T161 654T176 664T184 668Q186 668 189 665L214 636V631Z"  />
<glyph unicode="&#x201D;" horiz-adv-x="467" d="M53 417Q142 481 142 536Q142 556 119 565Q96 573 87 583T78 612Q78 634 94 648T134 662Q169 662 191 636T214 567Q214 529 195 491T137 418Q130 412 122 406T105 393T91 384T83 380Q81 380 78 383L53 411V417ZM253 417Q342 481 342 536Q342 555 319 565Q296 574 287 584T278 612Q278 633 294 647T334 662Q369 662 391 636T414 567Q414 529 395 491T337 418Q330 412 322 406T305 393T291 384T283 380Q281 380 278 383L253 411V417Z"  />
<glyph unicode="&#x201E;" horiz-adv-x="467" d="M53 -135Q142 -70 142 -16Q142 4 119 13Q96 21 87 31T78 59Q78 81 94 95T134 110Q169 110 191 84T214 15Q214 -63 137 -134Q130 -140 122 -146T105 -159T91 -168T83 -172Q81 -172 78 -169L53 -141V-135ZM253 -135Q342 -69 342 -16Q342 3 317 13Q295 21 287 31T278 59Q278 81 294 95T334 110Q369 110 391 84T414 15Q414 -63 337 -134Q331 -140 323 -146T306 -159T291 -168T283 -172Q281 -172 278 -169L253 -141V-135Z"  />
<glyph unicode="&#x2020;" horiz-adv-x="544" d="M315 634V568L303 391L431 400H488V323H431L304 335L313 173L303 -253H241L230 173L240 335L113 323H56V400H113L240 391L229 568V634H315Z"  />
<glyph unicode="&#x2021;" horiz-adv-x="544" d="M315 634V568L303 401L439 412H488V335H439L303 345L314 218L303 69L439 80H488V3H439L303 13L315 -165V-247H230V-165L242 13L106 3H57V80H106L242 69L230 218L242 345L106 335H57V412H106L242 401L229 568V634H315Z"  />
<glyph unicode="&#x2022;" horiz-adv-x="634" d="M320 455Q347 455 370 445T411 416T439 374T450 323Q450 296 440 272T411 230T369 202T318 191Q291 191 267 201T225 230T197 272T186 323Q186 351 196 375T225 417T267 445T320 455Z"  />
<glyph unicode="&#x2026;" horiz-adv-x="833" d="M139 114Q165 114 183 95T201 50Q201 24 183 6T138 -12Q112 -12 94 6T75 50Q75 77 93 95T139 114ZM417 114Q443 114 461 96T479 51Q479 25 461 7T416 -12Q390 -12 372 6T353 50Q353 77 371 95T417 114ZM695 114Q721 114 739 95T757 50Q757 24 739 6T694 -12Q668 -12 650 6T631 50Q631 77 649 95T695 114Z"  />
<glyph unicode="&#x2030;" horiz-adv-x="1074" d="M177 646Q246 646 286 601T326 481Q326 400 284 353T169 306Q100 306 60 351T19 473Q19 553 61 599T177 646ZM173 596Q139 596 119 563T98 473Q98 418 117 387T171 356Q206 356 226 388T247 478Q247 533 227 564T173 596ZM606 634L170 -11H107L542 634H606ZM550 328Q619 328 659 283T699 163Q699 82 657 35T542 -12Q473 -12 433 33T392 155Q392 236 434 282T550 328ZM546 278Q512 278 492 245T471 155Q471 100 490 69T544 38Q579 38 599 70T620 161Q620 215 600 246T546 278ZM906 328Q975 328 1015 283T1055 163Q1055 82 1013 35T898 -12Q828 -12 788 33T747 155Q747 236 789 282T906 328ZM902 278Q867 278 847 245T826 155Q826 100 845 69T900 38Q935 38 955 70T976 161Q976 215 956 246T902 278Z"  />
<glyph unicode="&#x2039;" horiz-adv-x="304" d="M224 56L44 237L224 420L259 399L150 237L259 76L224 56Z"  />
<glyph unicode="&#x203A;" horiz-adv-x="304" d="M79 420L259 239L79 56L44 77L153 239L44 400L79 420Z"  />
<glyph unicode="&#x20AC;" horiz-adv-x="544" d="M473 557Q472 549 468 546L462 543Q460 541 457 541Q455 541 454 542T443 548Q429 557 417 564T392 576T367 583T338 586Q265 586 234 523Q224 503 218 478T207 417H394L385 372H204Q203 357 203 341T203 307V297H371L362 252H204Q205 217 211 182T231 117T270 69T336 50Q368 50 394 62T452 97Q454 98 455 98Q456 98 460 96L466 91Q469 88 469 85V79L462 31Q460 23 459 21T449 16Q419 5 385 -2T327 -9Q217 -9 164 57T101 252H39L48 297H99V311Q99 327 99 342T101 372H42L51 417H106Q124 529 183 586T349 644Q360 644 378 642T414 637T448 629T472 619Q478 615 478 607V603L473 557Z"  />
<glyph unicode="&#x2122;" horiz-adv-x="741" d="M285 634V588H163V317H94V588H-27V634H285ZM393 634L496 415L609 634H684L694 317H627L622 567L496 322L476 319L356 569L352 317H298L317 634H393Z"  />

</font>
</defs>
</svg>
