<?xml  version="1.0" encoding="UTF-8"?>
<!DOCTYPE svg PUBLIC "-//W3C//DTD SVG 1.0//EN" "http://www.w3.org/TR/2001/REC-SVG-20010904/DTD/svg10.dtd" >
<svg xmlns="http://www.w3.org/2000/svg" >
<metadata>
<version>1.0</version>
<id><![CDATA[Legacy Sans ITC W01 Bd]]></id>
<vendor>Monotype Imaging Inc.</vendor>
<credits>
<name>Fonts.com WebFonts</name>
<URL>http://webfonts.fonts.com</URL>
<role>Home of the Web fonts</role>
</credits>
<license>
<URL>http://webfonts.fonts.com/Legal</URL>
</license>
<copyright><![CDATA[Digitized data (C) 1994, 2005 International Typeface Corporation. All rights reserved.]]></copyright>
<trademark><![CDATA[ITC Legacy(R) is a trademark of International Typeface Corporation registered in the U.S. Patent & Trademark Office and may be registered in certain jurisdictions.]]></trademark>
<licensee>
<name></name>
</licensee>
</metadata>
<defs >
<font horiz-adv-x="537" id="62fff974-bd9d-4f29-84ee-9494b6d592c6">
<font-face font-family="" panose-1="2 0 8 3 6 0 0 2 0 4" ascent="886" descent="-272" units-per-em="1000" alphabetic="0">
</font-face>
<missing-glyph horiz-adv-x="0" />

<glyph unicode="&#xA;" />
<glyph unicode="&#xD;" horiz-adv-x="0" />
<glyph unicode=" " horiz-adv-x="193" />
<glyph unicode="!" horiz-adv-x="370" d="M258 643V515L210 174H160L112 515V643H258ZM186 146Q218 146 241 123T264 66Q264 34 241 11T185 -12Q153 -12 130 11T106 66Q106 100 129 123T186 146Z"  />
<glyph unicode="&quot;" horiz-adv-x="556" d="M143 545V634H247V545L223 324H167L143 545ZM309 545V634H413V545L389 324H334L309 545Z"  />
<glyph unicode="#" horiz-adv-x="593" d="M394 458L442 634H501L453 458H592L572 383H433L401 265H539L519 190H381L329 0H270L322 190H199L147 0H88L140 190H1L21 265H160L192 383H54L74 458H212L260 634H319L271 458H394ZM219 265H342L374 383H251L219 265Z"  />
<glyph unicode="$" horiz-adv-x="555" d="M313 692V623Q339 623 374 619T442 607Q460 603 464 600T469 586L470 521Q470 510 463 508L445 502L438 501Q436 501 434 502T423 509Q363 546 313 546V363Q365 340 400 320T457 277T488 231T498 178Q498 107 450 61T313 1V-99H248V-2Q217 -3 177 2T98 18Q71 25 66 28T60 40L57 109V117Q57 121 58 122T65 126L84 133Q89 135 90 135T93 135Q95 135 98 133T111 125Q145 103 181 90T248 77V273Q217 288 197 298T162 316T138 330T119 345Q65 390 65 454Q65 491 81 524T127 579Q168 610 248 623V692H313ZM250 550Q183 544 183 483Q183 454 199 433T250 391V550ZM311 78Q378 92 378 159Q378 188 364 206T311 245V78Z"  />
<glyph unicode="%" horiz-adv-x="796" d="M201 646Q277 646 321 602T365 480Q365 398 319 352T190 305Q113 305 69 348T24 468Q24 553 70 599T201 646ZM195 584Q164 584 146 554T128 471Q128 422 145 395T192 367Q224 367 242 396T261 477Q261 529 244 556T195 584ZM654 634L218 -12H139L574 634H654ZM608 329Q683 329 727 285T771 163Q771 81 725 35T596 -12Q519 -12 475 31T431 151Q431 236 477 282T608 329ZM602 267Q571 267 553 237T535 154Q535 105 552 78T599 50Q631 50 649 79T667 160Q667 211 651 239T602 267Z"  />
<glyph unicode="&amp;" horiz-adv-x="648" d="M617 366Q607 312 581 258T513 156Q531 130 547 112T580 83T614 67T653 60H659L649 0Q632 -2 620 -3T588 -4Q561 -4 541 -1T502 11T467 33T429 70Q338 -10 226 -10Q135 -10 83 36T30 162Q30 276 164 333Q127 359 111 388T94 457Q94 493 107 522T146 573T208 605T289 617Q367 617 410 584T453 487Q453 439 426 406T341 348Q375 330 405 300T464 228Q481 253 495 290T516 366H617ZM282 385Q313 399 326 419T339 477Q339 544 277 544Q248 544 232 527T215 478Q215 448 229 428T282 385ZM231 291Q162 255 162 187Q162 144 189 119T264 94Q328 94 380 137Q345 197 310 232T231 291Z"  />
<glyph unicode="&apos;" horiz-adv-x="370" d="M133 545V634H237V545L213 324H157L133 545Z"  />
<glyph unicode="(" horiz-adv-x="389" d="M328 628Q253 536 218 436T182 217Q182 99 217 -1T328 -194L263 -257Q165 -164 113 -42T61 217Q61 354 113 476T263 692L328 628Z"  />
<glyph unicode=")" horiz-adv-x="389" d="M61 -194Q136 -102 171 -2T207 217Q207 336 172 436T61 628L126 692Q224 598 276 476T328 217Q328 80 276 -41T126 -257L61 -194Z"  />
<glyph unicode="*" horiz-adv-x="555" d="M144 509L247 486L177 565L153 606L220 645L244 605L278 505L311 605L335 645L402 606L378 565L308 486L411 509H458V432H411L308 454L378 376L402 335L335 296L311 336L278 436L244 336L220 296L153 335L177 376L247 454L144 432H97V509H144Z"  />
<glyph unicode="+" horiz-adv-x="555" d="M237 521Q237 535 240 537T258 540H298Q314 540 316 537T319 515V358H481Q495 358 497 355T500 337V297Q500 282 497 279T475 276H319V114Q319 101 316 98T298 95H258Q244 95 241 98T237 114V276H74Q61 276 58 279T55 297V337Q55 351 58 354T74 358H237V521Z"  />
<glyph unicode="&#x2c;" horiz-adv-x="278" d="M32 -125Q75 -96 100 -66T125 -12Q125 3 103 13Q77 26 69 37T60 71Q60 100 81 119T135 139Q177 139 203 109T229 30Q229 -55 142 -130Q133 -138 123 -146T102 -160T85 -171T76 -176Q74 -176 73 -175T67 -169L32 -129V-125Z"  />
<glyph unicode="-" horiz-adv-x="333" d="M298 290L275 188H35L58 290H298Z"  />
<glyph unicode="." horiz-adv-x="278" d="M140 146Q172 146 195 123T218 66Q218 34 195 11T139 -12Q107 -12 84 11T60 66Q60 100 83 123T140 146Z"  />
<glyph unicode="/" horiz-adv-x="445" d="M387 634L84 -180H3L305 634H387Z"  />
<glyph unicode="0" horiz-adv-x="555" d="M288 646Q344 646 388 623T463 553Q489 515 500 462T512 330Q512 228 493 161T432 51Q372 -12 271 -12Q158 -12 101 67T43 301Q43 646 288 646ZM279 573Q249 573 228 553T195 496Q190 479 187 459T182 413T179 355T178 281Q178 210 183 171T203 106Q229 61 274 61Q301 61 320 76T352 122T371 203T377 323Q377 410 371 456T350 529Q325 573 279 573Z"  />
<glyph unicode="1" horiz-adv-x="555" d="M365 641V0H236V509L100 447H78V522L318 641H365Z"  />
<glyph unicode="2" horiz-adv-x="555" d="M482 0H51V54Q130 131 184 189T277 297Q313 343 328 378T344 452Q344 555 253 555Q199 555 165 527T116 445Q115 439 107 439H95Q87 439 85 440T81 450L70 497Q68 505 68 507T67 511Q67 519 78 536T105 571Q138 606 186 626T288 646Q376 646 426 601T476 474Q476 426 457 385T394 295Q376 275 362 261T327 227T277 181T196 108H505L482 0Z"  />
<glyph unicode="3" horiz-adv-x="555" d="M148 343Q180 357 202 366T239 383T264 397T283 412Q316 440 316 490Q316 565 241 565Q196 565 164 546T117 493Q115 490 114 489T107 488H96Q88 488 87 489T84 497L73 545Q71 551 71 556Q71 561 78 568T103 590Q139 619 180 632T276 646Q354 646 399 611T444 516Q444 473 419 441T337 375Q405 369 444 325T484 212Q484 162 461 115T399 39Q367 14 321 1T222 -12Q105 -12 54 51Q43 64 41 71T38 95Q38 108 39 112T45 119L84 141Q92 146 96 147T107 148H123Q131 148 132 146T137 133Q148 99 176 80T242 61Q292 61 321 95T351 187Q351 304 244 304Q224 304 208 301T164 288L148 343Z"  />
<glyph unicode="4" horiz-adv-x="555" d="M535 149H432V0H313V149H21V222L347 634H432V243H535V149ZM313 488L121 243H313V488Z"  />
<glyph unicode="5" horiz-adv-x="555" d="M491 634L472 526H224L199 431Q337 414 411 355T486 202Q486 156 468 117T417 50T341 5T245 -12Q131 -12 78 50Q73 56 71 59T67 67T66 76T65 89Q65 108 66 112T76 123L108 145Q114 150 117 151T127 152H147Q153 152 155 151T159 141Q169 105 198 83T266 61Q288 61 307 69T339 92T361 127T369 172Q369 246 294 281Q279 288 265 293T233 303T190 312T127 322L101 354L174 634H491Z"  />
<glyph unicode="6" horiz-adv-x="555" d="M479 573H466Q413 573 362 555T273 503Q239 474 220 441T191 362Q229 385 263 395T336 406Q378 406 411 393T468 354T505 293T518 214Q518 162 501 121T453 50T376 4T275 -12Q168 -12 109 56T49 250Q49 337 78 409T161 534T288 616T450 646Q461 646 466 638L490 590L479 573ZM181 276Q180 268 180 262T180 252Q180 209 189 167T215 102Q242 61 289 61Q332 61 357 97T383 195Q383 252 357 285T284 318Q232 318 181 276Z"  />
<glyph unicode="7" horiz-adv-x="555" d="M497 634V574L186 -26L70 -3L371 518H59V634H497Z"  />
<glyph unicode="8" horiz-adv-x="555" d="M366 349Q406 329 427 316T464 289Q488 266 500 236T513 171Q513 129 496 96T446 38T369 1T268 -12Q162 -12 103 31T43 153Q43 209 76 248T181 316Q123 345 97 380T71 467Q71 502 84 534T123 591Q153 620 195 633T300 646Q388 646 437 608T486 499Q486 448 458 413T366 349ZM306 377Q338 395 351 419T365 483Q365 576 280 576Q238 576 215 553T192 488Q192 470 197 456T216 429T251 404T306 377ZM238 286Q202 270 186 244T169 174Q169 119 197 90T278 61Q329 61 358 87T387 158Q387 178 382 192T361 219T316 248T238 286Z"  />
<glyph unicode="9" horiz-adv-x="555" d="M80 60Q200 60 273 116T365 279Q328 256 294 246T221 236Q180 236 147 250T89 289T52 349T38 426Q38 475 55 515T105 585T183 631T282 647Q393 647 450 582T507 387Q507 253 446 158T270 17Q235 3 191 -5T108 -13Q98 -13 95 -12T90 -5L67 42L80 60ZM373 365Q375 375 375 381T376 397Q376 481 349 527T271 574Q225 574 199 541T173 451Q173 394 200 359T272 323Q324 323 373 365Z"  />
<glyph unicode=":" horiz-adv-x="278" d="M140 432Q172 432 195 409T218 352Q218 320 195 297T139 274Q107 274 84 297T60 352Q60 386 83 409T140 432ZM140 146Q172 146 195 123T218 66Q218 34 195 11T139 -12Q107 -12 84 11T60 66Q60 100 83 123T140 146Z"  />
<glyph unicode=";" horiz-adv-x="278" d="M145 432Q177 432 200 409T223 352Q223 320 200 297T144 274Q112 274 89 297T65 352Q65 386 88 409T145 432ZM32 -125Q75 -96 100 -66T125 -12Q125 3 103 13Q77 26 69 37T60 71Q60 100 81 119T135 139Q177 139 203 109T229 30Q229 -55 139 -133Q131 -140 121 -147T101 -161T85 -172T76 -176Q74 -176 73 -175T67 -169L32 -129V-125Z"  />
<glyph unicode="&lt;" horiz-adv-x="555" d="M484 484L168 323L484 162V66L72 274V373L484 581V484Z"  />
<glyph unicode="=" horiz-adv-x="555" d="M481 418Q495 418 497 415T500 397V360Q500 345 497 342T475 339H74Q61 339 58 342T55 360V397Q55 411 58 414T74 418H481ZM481 295Q495 295 497 292T500 274V237Q500 222 497 219T475 216H74Q61 216 58 219T55 237V273Q55 287 59 291T74 295H481Z"  />
<glyph unicode="&gt;" horiz-adv-x="555" d="M72 162L388 323L72 484V580L484 372V273L72 65V162Z"  />
<glyph unicode="?" horiz-adv-x="407" d="M40 574Q37 583 37 597Q37 606 38 609T43 616Q59 630 91 638T157 646Q262 646 325 566Q346 540 358 507T370 443Q370 374 310 326Q306 323 294 316T267 299T236 280T208 264Q193 256 185 250T173 236T168 214T166 178H95L93 209Q90 255 90 284Q90 299 93 310T106 332T134 356T185 389Q210 405 226 417T251 439T263 459T266 483Q266 512 247 528T192 545Q166 545 144 539T95 516H61L40 574ZM133 146Q165 146 188 123T211 66Q211 34 188 11T132 -12Q100 -12 77 11T53 66Q53 100 76 123T133 146Z"  />
<glyph unicode="@" horiz-adv-x="815" d="M546 234Q545 225 545 219T544 208Q544 194 559 194Q570 194 586 203T616 226Q642 252 658 296T675 386Q675 430 659 466T614 529T544 569T454 584Q390 584 333 560T234 495T166 399T141 282Q141 226 159 182T213 108T299 61T413 44Q436 44 454 45T491 49T527 57T569 70Q575 72 578 72Q585 72 590 61T596 38Q596 33 592 31T574 22Q532 5 488 -3T392 -11Q311 -11 245 9T133 67T61 159T36 279Q36 355 69 422T159 538T294 616T460 645Q522 645 575 631T669 590Q694 574 714 552T748 503T770 448T778 390Q778 351 766 315T731 249T676 195T604 158Q579 149 551 144T499 139Q440 139 440 188Q440 216 450 259Q408 202 366 171T289 139Q252 139 230 167T207 242Q207 290 228 333T287 410T375 467T485 495L486 499Q487 507 500 507H577Q587 507 586 501Q585 498 585 494L546 234ZM465 385Q467 404 467 407T468 414Q468 423 452 423Q426 423 402 409T359 373T329 321T318 260Q318 246 321 238T332 230Q341 230 354 238T384 260T420 293T458 337L465 385Z"  />
<glyph unicode="A" horiz-adv-x="667" d="M406 634L667 0H514L444 189H198L122 0H0L303 634H406ZM326 504L229 264H415L326 504Z"  />
<glyph unicode="B" horiz-adv-x="630" d="M78 634L223 637Q256 638 280 638T316 639Q376 639 414 633T482 610Q514 592 532 564T550 500Q550 414 443 367Q514 351 552 307T590 195Q590 150 572 114T519 53T435 14T325 0H78V634ZM262 378Q287 378 304 379T335 382T357 389T374 400Q404 424 404 475Q404 525 378 545T287 566Q282 566 274 566T254 565Q247 565 243 565T235 565T227 565T215 564V378H262ZM215 77Q218 77 230 77T256 76T283 76T300 76Q375 76 409 103T444 188Q444 257 395 286Q377 296 346 300T263 305H215V77Z"  />
<glyph unicode="C" horiz-adv-x="648" d="M620 538Q619 533 618 532T611 527L602 522Q599 520 595 520Q593 520 591 521T574 529Q556 537 534 544T487 556T437 564T390 567Q287 567 233 507T179 331Q179 271 195 223T240 139T311 85T404 66Q455 66 499 78T590 118Q594 120 595 120Q598 120 602 118L612 112Q617 110 618 109T619 105Q619 104 619 103T617 97L608 33Q606 25 604 22T591 16Q572 10 548 5T496 -4T442 -10T391 -12Q260 -12 173 42Q107 84 70 153T33 307Q33 384 61 446T140 553T263 622T426 646Q451 646 480 644T536 638T585 629T618 619Q628 615 627 600L620 538Z"  />
<glyph unicode="D" horiz-adv-x="759" d="M78 634Q203 638 270 639T349 641Q439 641 501 628T609 584Q726 508 726 340Q726 235 682 158T557 42Q510 20 445 10T282 0H78V634ZM325 78Q455 78 510 124Q546 155 563 203T580 323Q580 400 562 446T502 522Q470 544 433 553T335 562L217 561V78H325Z"  />
<glyph unicode="E" horiz-adv-x="574" d="M539 634V555H217V373H505V294H217V84H550V0H78V634H539Z"  />
<glyph unicode="F" d="M550 634V550H217V365H497V281H217V0H78V634H550Z"  />
<glyph unicode="G" horiz-adv-x="722" d="M660 315V23Q590 6 526 -3T399 -12Q252 -12 162 48Q100 90 67 157T33 306Q33 382 62 444T144 552T270 622T432 647Q453 647 480 645T534 638T583 629T616 620Q623 617 624 614T626 600L630 536V532Q630 528 624 525L606 515Q600 513 600 513Q598 513 595 515T580 524Q549 544 504 556T414 568Q359 568 316 551T242 503T195 426T179 323Q179 200 242 133T420 66Q444 66 466 69T521 80V315H660Z"  />
<glyph unicode="H" horiz-adv-x="741" d="M523 378V634H662V0H523V297H217V0H78V634H217V378H523Z"  />
<glyph unicode="I" horiz-adv-x="296" d="M217 634V0H78V634H217Z"  />
<glyph unicode="J" horiz-adv-x="296" d="M218 634V101Q218 60 215 31T205 -22T186 -64T155 -104Q117 -146 69 -167T-30 -188Q-53 -188 -79 -182T-116 -169Q-120 -166 -121 -161T-122 -141Q-122 -124 -121 -118T-114 -107L-78 -70Q-73 -65 -71 -64T-64 -62H-53Q-48 -62 -46 -63T-32 -70Q-12 -80 16 -80Q61 -80 72 -47Q76 -37 77 -19T79 43V634H218Z"  />
<glyph unicode="K" horiz-adv-x="629" d="M217 634V0H78V634H217ZM649 634L369 364L654 0H474L225 338L498 634H649Z"  />
<glyph unicode="L" horiz-adv-x="500" d="M217 634V84H511V0H78V634H217Z"  />
<glyph unicode="M" horiz-adv-x="889" d="M218 634L438 178L671 634H798L821 0H687L672 447L443 14L380 4L159 466L152 0H50L93 634H218Z"  />
<glyph unicode="N" horiz-adv-x="759" d="M180 634L586 189L578 634H678L677 7L595 -14L168 453L176 0H76L80 634H180Z"  />
<glyph unicode="O" horiz-adv-x="796" d="M413 646Q492 646 557 623T668 557T739 454T764 321Q764 246 737 185T659 79T540 11T385 -13Q310 -13 249 7T141 67Q90 111 62 175T33 312Q33 469 155 562Q212 606 274 626T413 646ZM387 567Q341 567 303 550T237 500T194 424T179 325Q179 269 196 222T244 140T316 86T408 66Q444 66 478 78T540 113Q618 179 618 303Q618 361 601 410T554 493T481 547T387 567Z"  />
<glyph unicode="P" horiz-adv-x="592" d="M78 634Q91 634 112 634T158 635T209 636T256 637T293 638T313 639Q381 639 425 630T501 599Q539 573 560 533T581 441Q581 387 556 344T483 273Q448 253 401 244T286 234Q269 234 257 234T217 236V0H78V634ZM217 316Q234 314 246 314T279 313Q325 313 350 319T396 340Q435 371 435 433Q435 477 418 506T368 548Q338 560 279 560Q261 560 242 560T217 559V316Z"  />
<glyph unicode="Q" horiz-adv-x="796" d="M735 -157Q717 -161 703 -162T669 -164Q488 -164 357 -12Q249 -4 177 41Q109 83 71 154T33 313Q33 466 155 562Q261 646 408 646Q489 646 554 623T666 558T738 455T764 321Q764 204 701 122T517 5Q567 -43 622 -69T732 -98L735 -157ZM387 567Q341 567 303 550T237 500T194 424T179 325Q179 269 196 222T244 140T316 86T408 66Q444 66 478 78T540 113Q618 179 618 303Q618 361 601 410T554 493T481 547T387 567Z"  />
<glyph unicode="R" horiz-adv-x="648" d="M78 634Q138 635 182 636T257 638Q292 639 316 639Q355 639 384 638T436 632T476 622T510 605Q589 556 589 463Q589 337 440 293Q471 228 499 182T553 108T604 66T658 53H668L671 48L661 8Q656 -12 583 -12Q526 -12 482 12T399 91Q388 106 378 122T356 160T331 207T301 268Q287 267 276 267T250 266Q242 266 235 266T217 267V0H78V634ZM217 339Q257 337 270 337T290 337Q369 337 406 365T443 455Q443 529 382 552Q367 558 347 560T289 563Q279 563 272 563T258 563T242 563T217 562V339Z"  />
<glyph unicode="S" horiz-adv-x="519" d="M460 550L461 541Q461 537 454 534L431 522Q426 520 426 520T423 519Q421 519 419 520T404 530Q379 547 343 557T275 567Q224 567 196 546T167 487Q167 450 194 431Q201 426 209 421T230 410T259 395T302 376Q336 360 357 350T393 332T417 316T438 298Q461 277 473 248T486 186Q486 144 467 108T414 45T334 3T233 -12Q213 -12 188 -10T138 -5T89 3T52 13Q43 16 41 18T37 30L29 99Q28 101 28 104T28 108Q28 112 34 116L58 129Q62 132 65 132Q68 132 71 129Q110 102 156 87T245 71Q298 71 329 94T360 158Q360 174 356 186T338 209T300 233T236 262Q204 276 181 287T141 308T111 327T87 347Q65 368 53 398T41 461Q41 503 59 537T111 595T192 632T296 646Q314 646 336 644T379 639T417 633T443 625Q448 623 449 620T453 609L460 550Z"  />
<glyph unicode="T" horiz-adv-x="593" d="M615 634V550H366V0H227V550H-22V634H615Z"  />
<glyph unicode="U" horiz-adv-x="722" d="M218 634V256Q218 232 218 218T219 194T221 178T224 165Q236 125 273 104T371 83Q422 83 462 98T523 143Q532 154 537 165T545 194T549 236T550 301V634H652L644 304Q642 245 638 205T623 135T595 86T553 46Q512 16 460 2T337 -12Q200 -12 134 51Q117 67 107 83T90 122T82 175T79 250V634H218Z"  />
<glyph unicode="V" horiz-adv-x="630" d="M154 634L334 147L534 634H658L357 0H258L0 634H154Z"  />
<glyph unicode="W" horiz-adv-x="981" d="M141 634L300 159L471 634H545L704 159L877 634H1000L726 0H627L483 414L329 0H230L-9 634H141Z"  />
<glyph unicode="X" horiz-adv-x="611" d="M183 634L327 410L484 634H620L380 337L621 0H452L297 247L126 0H-10L245 321L24 634H183Z"  />
<glyph unicode="Y" horiz-adv-x="556" d="M141 634L300 364L455 634H589L343 280V0H204V276L-25 634H141Z"  />
<glyph unicode="Z" horiz-adv-x="574" d="M567 634V580L190 84H569L554 0H8V56L385 550H31V634H567Z"  />
<glyph unicode="[" horiz-adv-x="389" d="M336 685V610H217V-175H336V-250H100V685H336Z"  />
<glyph unicode="\" horiz-adv-x="444" d="M441 -180H359L57 634H138L441 -180Z"  />
<glyph unicode="]" horiz-adv-x="389" d="M52 -250V-175H171V610H52V685H288V-250H52Z"  />
<glyph unicode="^" horiz-adv-x="555" d="M44 318L196 638H359L511 318H382L277 539L173 318H44Z"  />
<glyph unicode="_" horiz-adv-x="476" d="M476 -44V-155H0V-44H476Z"  />
<glyph unicode="`" horiz-adv-x="500" d="M325 474L269 465L97 598V625L199 654L325 474Z"  />
<glyph unicode="a" horiz-adv-x="500" d="M57 365Q58 375 59 377T65 382Q81 393 104 402T152 418T205 429T259 433Q356 433 395 386Q408 370 413 349T419 294V267L416 116Q415 93 419 86T438 79Q452 79 466 82T502 93L506 90V42Q506 34 504 31T492 22Q466 8 432 -1T371 -10Q346 -10 331 -1T304 30Q273 18 250 11T209 -1T174 -8T141 -10Q90 -10 61 22T31 112Q31 146 40 168T78 206T157 232T293 253Q293 274 293 287T292 307T290 319T286 327Q274 350 224 350Q182 350 152 337T95 296L60 305L57 365ZM293 189Q282 187 267 185T238 181T212 176T193 172Q168 167 161 158T153 126Q153 100 164 90T205 79Q215 79 222 79T238 81T258 85T287 92L293 94V189Z"  />
<glyph unicode="b" horiz-adv-x="555" d="M183 690V395Q236 415 273 424T349 433Q389 433 421 419T477 379T513 317T526 236Q526 174 501 124T429 40Q393 14 340 1T220 -12Q202 -12 180 -11T136 -7T95 -2T66 4Q59 6 58 8T56 16V690H183ZM183 84Q226 71 273 71Q394 71 394 214Q394 342 286 342Q234 342 183 321V84Z"  />
<glyph unicode="c" horiz-adv-x="426" d="M355 312Q328 329 306 335T252 342Q201 342 179 316T156 232Q156 83 276 83Q337 83 399 116L408 111V66Q408 58 406 54T393 43Q358 19 310 4T217 -12Q175 -12 141 2T82 41T44 103T30 184Q30 238 49 284T104 363T188 414T295 433Q331 433 364 425T413 402Q417 398 418 395T419 379Q419 369 418 365T412 355L376 312H355Z"  />
<glyph unicode="d" horiz-adv-x="555" d="M499 690V0H372L374 40Q302 -10 220 -10Q177 -10 142 4T82 43T43 103T29 181Q29 233 50 278T107 356T192 408T297 427Q315 427 330 426T372 419V690H499ZM372 316Q348 327 326 331T275 336Q216 336 189 308T161 220Q161 153 192 115T277 77Q322 77 372 104V316Z"  />
<glyph unicode="e" horiz-adv-x="463" d="M162 182Q169 128 194 104T271 79Q347 79 414 120L421 118L438 68Q439 67 439 64Q439 60 436 57T423 48Q381 20 328 4T225 -12Q132 -12 81 42T30 196Q30 250 48 296T100 376Q158 433 254 433Q373 433 418 336Q429 310 434 279T441 201L162 182ZM301 261Q300 292 298 306T288 332Q271 363 237 363Q204 363 184 334T161 250L301 261Z"  />
<glyph unicode="f" horiz-adv-x="315" d="M341 422V343H198V0H70V343H2V398L70 418V436Q70 473 73 501T86 551T109 591T146 628Q181 657 223 674T304 691Q324 691 344 687T380 675T406 659T416 641Q416 636 415 633T409 623L378 575H352Q332 590 312 596T267 603Q229 603 212 576Q207 570 205 563T201 546T199 520T198 481V422H341Z"  />
<glyph unicode="g" horiz-adv-x="518" d="M518 346H424Q439 326 445 306T452 259Q452 213 429 178T362 123Q350 117 342 114T324 107T300 100T260 90Q250 87 238 84T211 77Q194 73 194 62Q194 54 200 50T224 42Q228 41 231 40T243 38T268 35T316 30Q353 26 376 23T415 16T442 7T464 -6Q509 -37 509 -89Q509 -126 484 -158T416 -215T316 -254T195 -269Q107 -269 55 -241T3 -163Q3 -124 41 -96T168 -42Q123 -33 105 -16T86 33Q86 51 93 62T121 82Q127 85 137 89T178 104Q109 120 77 156T44 255Q44 294 59 327T102 383T168 420T253 433Q264 433 273 433T293 431T317 426T351 419L518 421V346ZM257 149Q295 160 312 184T330 253Q330 306 309 335T249 365Q211 365 189 338T166 266Q166 217 189 187T257 149ZM246 -60Q186 -75 155 -95T124 -139Q124 -166 156 -182T241 -199Q275 -199 305 -193T359 -175T396 -150T410 -120Q410 -84 348 -72Q336 -70 322 -68T293 -64T267 -61T246 -60Z"  />
<glyph unicode="h" d="M183 690V386Q278 433 351 433Q421 433 457 385Q465 374 470 364T477 339T481 305T482 256V0H354V256Q354 300 341 317T296 334Q275 334 248 326T183 300V0H56V690H183Z"  />
<glyph unicode="i" horiz-adv-x="241" d="M185 422V0H56V422H185ZM122 697Q151 697 172 676T193 624Q193 595 172 574T121 553Q92 553 71 574T49 624Q49 655 70 676T122 697Z"  />
<glyph unicode="j" horiz-adv-x="241" d="M184 422V-33Q184 -98 169 -139T116 -215Q86 -242 48 -257T-29 -272Q-49 -272 -71 -268T-102 -256Q-108 -252 -108 -238Q-108 -222 -107 -219T-99 -208L-57 -166H-39Q-26 -172 -16 -174T9 -177Q46 -177 52 -151Q53 -148 53 -146T54 -136T55 -115T55 -76V422H184ZM121 697Q150 697 171 676T192 624Q192 595 171 574T120 553Q91 553 70 574T48 624Q48 655 69 676T121 697Z"  />
<glyph unicode="k" horiz-adv-x="518" d="M183 690V0H56V690H183ZM522 422L322 255L532 0H363L188 228L374 422H522Z"  />
<glyph unicode="l" horiz-adv-x="241" d="M185 690V0H56V690H185Z"  />
<glyph unicode="m" horiz-adv-x="815" d="M185 422L183 376Q265 433 341 433Q418 433 449 369Q499 403 538 418T619 433Q664 433 696 417T745 368Q749 358 752 349T757 326T759 295T760 250V0H631V250Q631 281 629 293T622 313Q616 323 605 328T579 334Q559 334 532 324T473 296V0H344V260Q344 284 342 295T335 314Q320 334 288 334Q248 334 185 292V0H56V422H185Z"  />
<glyph unicode="n" d="M185 422L183 371Q278 433 354 433Q392 433 421 418T466 373Q471 363 474 355T479 334T481 304T482 259V0H354V230Q354 265 353 281T347 307Q335 334 298 334Q272 334 245 324T185 290V0H56V422H185Z"  />
<glyph unicode="o" horiz-adv-x="555" d="M299 433Q350 433 391 417T463 372T509 302T526 212Q526 162 508 121T456 50T376 4T272 -13Q216 -13 172 2T96 47T47 117T30 209Q30 260 49 301T103 372T188 417T299 433ZM271 357Q223 357 195 324T167 231Q167 156 200 110T288 63Q335 63 361 96T388 189Q388 226 380 257T356 310T319 345T271 357Z"  />
<glyph unicode="p" horiz-adv-x="555" d="M183 -250Q183 -258 175 -258H64Q56 -258 56 -250V414Q56 422 64 422H175Q183 422 183 417V414L181 384Q211 399 232 409T272 424T307 431T346 433Q421 433 466 391Q494 365 510 326T526 242Q526 191 506 146T449 68T365 16T261 -4Q245 -4 229 -3T183 4V-250ZM183 110Q215 94 236 89T283 83Q394 83 394 211Q394 274 367 308T289 342Q261 342 236 335T183 313V110Z"  />
<glyph unicode="q" horiz-adv-x="555" d="M372 27Q321 8 282 -1T209 -10Q124 -10 77 40T29 180Q29 238 49 285T106 365T197 415T317 433Q337 433 362 432T411 427T457 420T490 412Q499 409 499 402V-250Q499 -258 491 -258H380Q372 -258 372 -250V27ZM372 337Q332 350 291 350Q227 350 197 317T166 215Q166 81 277 81Q301 81 326 86T372 101V337Z"  />
<glyph unicode="r" horiz-adv-x="370" d="M185 422L181 319Q218 381 251 407T326 433Q341 433 359 428T386 417Q392 412 392 401Q392 386 388 378L360 306H342Q331 314 323 317T301 321Q268 321 241 296T185 214V0H56V422H185Z"  />
<glyph unicode="s" horiz-adv-x="426" d="M336 323Q306 341 279 349T220 357Q158 357 158 318Q158 309 160 303T171 291T198 280T247 264Q289 251 318 238T365 210T390 177T398 135Q398 102 384 76T343 30T279 1T196 -10Q181 -10 160 -8T117 -3T76 3T47 11Q40 13 39 24L29 95L62 110Q121 66 206 66Q238 66 256 78T275 110Q275 120 273 126T261 138T235 149T189 164Q164 171 148 176T120 185T101 195T83 206Q40 237 40 292Q40 356 93 393T238 430Q253 430 270 429T303 426T332 422T353 417Q358 415 359 413T361 402L368 338L336 323Z"  />
<glyph unicode="t" horiz-adv-x="352" d="M360 422V350H195V169Q195 115 208 93T252 70Q295 70 346 91L354 88L365 43V39Q365 35 361 33T342 24Q258 -13 186 -13Q154 -13 129 0T91 36Q82 52 78 74T74 132V142L77 347H17V380L163 527H197L195 422H360Z"  />
<glyph unicode="u" d="M481 0H357L359 44Q321 18 278 4T194 -10Q152 -10 121 5T74 48Q68 58 65 69T59 96T56 133T55 184V422H184V185Q184 150 186 136T194 110Q208 85 243 85Q266 85 295 95T353 123V422H481V0Z"  />
<glyph unicode="v" horiz-adv-x="444" d="M138 422L241 143L352 422H464L257 0H170L-8 422H138Z"  />
<glyph unicode="w" horiz-adv-x="704" d="M135 422L226 129L330 422H414L501 129L610 422H719L522 0H425L347 241L253 0H156L-2 422H135Z"  />
<glyph unicode="x" horiz-adv-x="463" d="M156 422L249 295L342 422H473L300 225L471 0H322L222 144L119 0H-13L169 214L9 422H156Z"  />
<glyph unicode="y" horiz-adv-x="444" d="M145 422L234 136L357 422H469L116 -269L5 -245L160 -5L-2 422H145Z"  />
<glyph unicode="z" horiz-adv-x="426" d="M416 422V367L173 75H419L403 0H6V54L250 347H32V422H416Z"  />
<glyph unicode="{" horiz-adv-x="389" d="M349 612Q323 612 307 611T280 607T264 597T255 580Q253 571 252 560T251 526V369Q252 335 248 310T235 267T209 237T169 217Q211 202 229 177T250 103Q250 98 250 94T251 75T251 30T251 -54V-111Q251 -131 254 -144T267 -165T291 -176T330 -179Q333 -179 338 -179T349 -178V-252Q337 -253 331 -253T313 -253Q198 -253 160 -206Q151 -196 146 -185T138 -157T134 -114T133 -47Q133 8 133 38T133 83T133 104T131 117Q126 149 106 163T37 181L21 182V252L37 253Q91 255 112 275T133 348V494Q133 534 135 560T141 604T154 633T177 655Q199 672 232 679T317 686H349V612Z"  />
<glyph unicode="|" horiz-adv-x="476" d="M300 634V-159H176V634H300Z"  />
<glyph unicode="}" horiz-adv-x="389" d="M40 -178Q46 -179 51 -179T59 -179Q103 -179 119 -168T137 -124Q137 -120 137 -113T138 -87T138 -33T138 63Q137 97 141 122T154 166T180 196T220 217Q175 232 157 263T138 351V544Q138 566 135 579T121 600T91 609T40 612V686H72Q118 686 151 680T205 660T238 624T254 570Q255 563 255 556T256 529T256 470T256 358Q256 329 260 309T275 277T305 260T352 253L368 252V182L352 181Q298 179 277 158T256 85V-60Q256 -100 254 -126T248 -171T234 -200T212 -222Q171 -253 75 -253Q65 -253 59 -253T40 -252V-178Z"  />
<glyph unicode="~" horiz-adv-x="555" d="M46 267Q48 272 49 275T53 283Q62 304 69 318T84 343T98 361T116 377Q147 400 190 400Q207 400 229 395T289 376Q310 368 322 364T343 358T358 355T371 354Q394 354 408 364T439 401L509 361Q498 338 489 322T472 295T455 275T435 259Q399 234 358 234Q350 234 343 235T325 239T299 247T260 260Q222 273 208 277T184 281Q158 281 139 264Q134 258 130 252T114 223L46 267Z"  />
<glyph unicode="&#xA0;" horiz-adv-x="193" />
<glyph unicode="&#xA1;" horiz-adv-x="370" d="M112 -222V-94L160 246H210L258 -94V-222H112ZM186 432Q218 432 241 409T264 354Q264 320 241 297T185 274Q152 274 129 297T106 353Q106 386 129 409T186 432Z"  />
<glyph unicode="&#xA2;" horiz-adv-x="555" d="M346 606V544Q409 543 450 516Q460 509 462 504T465 484Q465 472 464 468T457 458L421 424H393Q374 452 346 455V230Q390 233 426 277H439L474 220Q475 219 475 217T476 213Q476 206 451 189Q423 169 399 158T346 140V48H283V134Q244 136 220 145T172 175Q109 230 109 331Q109 416 154 470T283 540V606H346ZM283 455Q248 447 234 425T219 356Q219 303 233 275T283 234V455Z"  />
<glyph unicode="&#xA3;" horiz-adv-x="555" d="M409 258H288Q290 248 291 238T292 219Q292 187 279 161T233 106Q246 108 257 109T281 111Q293 111 314 109T365 103Q384 100 397 98T418 96T433 95T447 94Q495 94 521 119L543 109V53Q543 44 542 41T532 31Q478 -12 400 -12Q389 -12 381 -12T360 -10T329 -5T279 4Q249 9 236 10T210 12Q190 12 172 7T139 -6Q128 -13 126 -14T122 -15Q118 -15 113 -6L94 26Q89 36 89 36Q89 39 92 42T105 52Q172 100 172 158Q172 176 168 199T154 258H57V333H133Q125 371 122 389T119 428Q119 537 213 600Q283 647 379 647Q449 647 490 619T532 543Q532 512 516 505L446 479L418 491Q418 525 397 544T337 564Q293 564 269 540T245 471Q245 449 252 412T271 333H409V258Z"  />
<glyph unicode="&#xA4;" horiz-adv-x="556" d="M99 94Q93 89 92 88T88 86Q82 86 78 92L46 124Q40 128 40 133Q40 137 48 145L120 217Q102 247 95 271T87 324Q87 353 95 378T120 431L48 504Q40 510 40 515Q40 518 46 524L77 556Q83 562 87 562Q91 562 97 556L171 482Q199 499 224 507T278 515Q307 515 332 507T385 482L457 554Q462 559 464 560T468 562Q472 562 478 556L510 524Q516 518 516 515Q516 512 509 505L436 431Q453 404 460 379T468 324Q468 296 461 271T436 217L508 145Q516 137 516 133Q516 130 510 124L478 92Q472 86 469 86Q467 86 465 87T457 94L385 166Q331 134 278 134Q223 134 171 166L99 94ZM276 422Q256 422 239 415T209 394T188 363T180 325Q180 284 208 256T278 227Q298 227 315 234T346 255T367 287T375 325Q375 366 347 394T276 422Z"  />
<glyph unicode="&#xA5;" horiz-adv-x="555" d="M161 634L304 361L447 634H577L411 378H535V322H375L348 280V249H535V193H348V0H212V193H42V249H212V276L185 322H42V378H152L0 634H161Z"  />
<glyph unicode="&#xA6;" horiz-adv-x="476" d="M300 634V304H176V634H300ZM300 146V-159H176V146H300Z"  />
<glyph unicode="&#xA7;" horiz-adv-x="555" d="M383 507Q356 559 289 559Q251 559 229 541T206 491Q206 476 210 464T228 439T266 409T328 369Q375 340 406 317T456 273T483 230T491 183Q491 142 471 107T408 36Q455 -11 455 -69Q455 -108 435 -143T381 -205T303 -248T209 -264Q168 -264 130 -253T71 -222Q66 -217 65 -213T63 -198Q63 -182 63 -179T69 -168L109 -113H134Q153 -142 184 -157T252 -173Q291 -173 314 -155T338 -105Q338 -92 334 -81T317 -57T283 -29T228 7Q180 36 149 59T100 102T74 143T67 189Q67 230 86 264T146 331Q89 382 89 447Q89 487 108 523T161 587T238 630T332 646Q374 646 408 635T459 603Q463 598 464 593T465 576Q465 558 464 554T456 544L414 507H383ZM201 297Q177 270 177 238Q177 224 181 212T195 188T224 163T270 131L356 76Q380 101 380 132Q380 146 376 158T361 183T333 209T288 240Q275 248 266 254T247 266T228 279T201 297Z"  />
<glyph unicode="&#xA8;" horiz-adv-x="500" d="M151 609Q175 609 192 592T209 550Q209 525 192 508T150 491Q126 491 109 508T91 549Q91 575 108 592T151 609ZM350 609Q374 609 391 592T408 550Q408 525 391 508T349 491Q325 491 308 508T290 549Q290 575 307 592T350 609Z"  />
<glyph unicode="&#xA9;" horiz-adv-x="766" d="M389 645Q456 645 516 619T622 548T694 444T721 317Q721 249 695 190T622 86T515 15T383 -11Q312 -11 251 15T144 85T72 190T45 319Q45 387 72 446T145 550T254 619T389 645ZM379 579Q325 579 278 558T195 502T139 418T118 316Q118 261 138 213T195 128T279 71T383 50Q438 50 486 71T571 128T627 213T648 318Q648 373 627 420T570 503T484 558T379 579ZM541 442Q540 436 539 434T536 430L531 427L526 426Q526 426 524 427Q500 438 470 444T411 450Q362 450 336 418T309 326Q309 261 339 224T421 186Q444 186 472 192T515 209Q524 214 527 214Q529 214 531 213L536 210Q540 207 540 204V202V198L534 157Q532 149 525 147Q516 144 502 141T472 136T441 133T412 131Q366 131 329 144T265 180T225 237T210 311Q210 355 225 390T270 451T340 489T431 503Q460 503 481 501T534 490Q545 488 545 480V477L541 442Z"  />
<glyph unicode="&#xAA;" horiz-adv-x="333" d="M35 472V476Q35 482 48 489T81 502T124 512T170 516Q227 516 253 496T279 432V414L277 326Q277 313 278 311T288 308Q297 308 306 310T330 317L336 312V282Q336 276 335 274T325 267Q308 259 285 254T245 248Q213 248 198 270L167 260Q150 255 130 252T94 248Q59 248 39 268T19 323Q19 344 25 358T49 381T101 397T189 410Q189 430 188 436T185 447Q179 459 150 459Q121 459 102 452T66 427L38 434L35 472ZM185 364L166 361Q146 358 134 356T116 351T108 344T106 333Q106 318 112 313T136 308Q157 308 189 316V364H185Z"  />
<glyph unicode="&#xAB;" horiz-adv-x="519" d="M425 55L246 238L425 420L477 391L375 238L477 84L425 55ZM222 55L42 238L222 420L273 391L172 238L273 84L222 55Z"  />
<glyph unicode="&#xAC;" horiz-adv-x="555" d="M481 418Q495 418 497 415T500 397V215Q500 201 497 199T479 196H442Q427 196 424 199T421 221V339H74Q61 339 58 342T55 360V396Q55 410 59 414T74 418H481Z"  />
<glyph unicode="&#xAD;" horiz-adv-x="333" d="M298 290L275 188H35L58 290H298Z"  />
<glyph unicode="&#xAE;" horiz-adv-x="766" d="M389 645Q456 645 516 619T622 548T694 444T721 317Q721 249 695 190T622 86T515 15T383 -11Q312 -11 251 15T144 85T72 190T45 319Q45 387 72 446T145 550T254 619T389 645ZM379 579Q325 579 278 558T195 502T139 418T118 316Q118 261 138 213T195 128T279 71T383 50Q438 50 486 71T571 128T627 213T648 318Q648 373 627 420T570 503T484 558T379 579ZM230 506Q295 507 327 507T362 508Q409 508 433 504T476 489Q522 461 522 410Q522 338 436 310Q470 241 498 211T559 181H563L565 178L559 152Q557 141 509 141Q485 141 465 148T427 173T390 220T349 294H332H318V148H230V506ZM318 342Q332 341 338 341T350 341Q430 341 430 405Q430 443 398 455Q390 458 379 459T344 460H321H318V342Z"  />
<glyph unicode="&#xAF;" horiz-adv-x="500" d="M384 592V498H116V592H384Z"  />
<glyph unicode="&#xB0;" horiz-adv-x="555" d="M279 646Q312 646 341 633T393 598T427 546T440 482Q440 449 427 420T392 369T341 334T277 321Q244 321 215 334T163 368T128 419T115 482Q115 516 127 546T162 598T214 633T279 646ZM276 569Q259 569 244 562T217 544T200 517T193 483Q193 465 199 450T217 423T244 405T277 398Q295 398 310 404T337 422T355 449T362 482Q362 519 338 544T276 569Z"  />
<glyph unicode="&#xB1;" horiz-adv-x="555" d="M237 521Q237 535 240 537T258 540H298Q314 540 316 537T319 515V358H481Q495 358 497 355T500 337V297Q500 282 497 279T475 276H319V114Q319 101 316 98T298 95H258Q244 95 241 98T237 114V276H74Q61 276 58 279T55 297V337Q55 351 58 354T74 358H237V521ZM481 66Q495 66 497 63T500 45V5Q500 -10 497 -13T475 -16H74Q61 -16 58 -13T55 5V45Q55 59 58 62T74 66H481Z"  />
<glyph unicode="&#xB2;" horiz-adv-x="360" d="M314 374H27V411Q81 459 116 494T174 556T205 603T214 642Q214 693 162 693Q119 693 95 666Q88 659 86 655T77 633Q75 627 67 627H59Q53 627 52 628T48 637L39 668Q39 670 39 671T38 680Q39 685 47 696T64 716Q114 761 185 761Q245 761 278 733T312 656Q312 627 300 602T258 548Q247 537 240 530T222 514T193 489T141 447H332L314 374Z"  />
<glyph unicode="&#xB3;" horiz-adv-x="360" d="M88 582Q113 592 128 598T152 608T166 616T177 623Q197 638 197 666Q197 702 153 702Q95 702 76 663Q73 658 66 658H59Q52 658 50 659T47 667L40 697Q38 702 38 702T38 705Q38 711 60 728Q85 745 112 753T176 761Q230 761 260 740T291 681Q291 657 277 639T229 601Q317 579 317 503Q317 473 301 444T259 398Q214 367 140 367Q101 367 74 376T28 405Q20 413 19 418T17 435Q17 445 18 448T23 454L49 467Q58 472 66 472H76Q82 472 83 472T87 466Q102 422 154 422Q184 422 202 440T220 488Q220 550 154 550Q142 550 131 549T100 542L88 582Z"  />
<glyph unicode="&#xB4;" horiz-adv-x="500" d="M404 625V598L232 465L176 474L302 654L404 625Z"  />
<glyph unicode="&#xB5;" d="M481 0H361L363 47Q341 31 324 20T291 3T260 -7T229 -10Q212 -10 198 -6T170 8Q174 -16 175 -35T176 -85V-258H55V422H182V185Q182 150 184 136T192 110Q208 85 243 85Q267 85 297 95T357 125V422H481V0Z"  />
<glyph unicode="&#xB6;" horiz-adv-x="685" d="M553 686V576Q610 577 639 587T678 620H695L709 584Q712 576 712 569Q712 548 664 541Q635 536 553 535V-26Q553 -88 541 -124T501 -184Q481 -201 454 -210T401 -220Q390 -220 387 -216T380 -195L373 -160L384 -145Q401 -142 412 -140T431 -134T445 -128T458 -119Q477 -104 488 -78T499 -23V41Q477 40 463 40T438 39T420 38T403 38Q338 38 294 45T212 69Q134 102 92 166T50 316Q50 379 73 431T140 518Q180 550 232 564T358 579Q368 579 384 579T420 579T460 578T499 576V686H553ZM423 535Q406 535 398 532T386 521Q384 518 383 515T382 506T381 486T380 450V170Q380 146 380 133T381 113T382 103T385 97Q392 81 423 81H499V535H423Z"  />
<glyph unicode="&#xB7;" horiz-adv-x="278" d="M140 320Q172 320 195 297T218 240Q218 208 195 185T139 162Q107 162 84 185T60 240Q60 274 83 297T140 320Z"  />
<glyph unicode="&#xB8;" horiz-adv-x="500" d="M304 0L277 -46V-55Q328 -76 328 -117Q328 -137 317 -156T288 -191T246 -215T197 -225Q183 -225 170 -222T147 -213T131 -200T124 -186Q124 -182 128 -178L161 -149H173Q194 -173 219 -173Q230 -173 237 -167T245 -150Q245 -137 233 -128T184 -98V-74L240 0H304Z"  />
<glyph unicode="&#xB9;" horiz-adv-x="360" d="M248 759V374H154V668L70 633H51V686L210 759H248Z"  />
<glyph unicode="&#xBA;" horiz-adv-x="370" d="M198 516Q229 516 255 506T300 479T329 437T340 382Q340 352 329 327T296 284T246 256T181 246Q111 246 71 282T30 380Q30 442 75 479T198 516ZM181 464Q155 464 141 446T127 394Q127 351 145 325T192 299Q216 299 229 317T243 369Q243 412 226 438T181 464Z"  />
<glyph unicode="&#xBB;" horiz-adv-x="519" d="M94 420L273 238L94 55L42 84L144 238L42 391L94 420ZM297 420L477 238L297 55L246 84L347 238L246 391L297 420Z"  />
<glyph unicode="&#xBC;" horiz-adv-x="815" d="M249 639V254H155V548L71 513H52V566L211 639H249ZM631 634L196 -12H117L552 634H631ZM758 87H692V0H605V87H415V135L628 381H692V150H758V87ZM605 280L494 150H605V280Z"  />
<glyph unicode="&#xBD;" horiz-adv-x="815" d="M231 639V254H137V548L53 513H34V566L193 639H231ZM619 634L183 -12H104L539 634H619ZM738 0H451V37Q508 89 544 125T601 187T630 232T638 269Q638 320 586 320Q520 320 501 260Q499 254 491 254H483Q476 254 475 255T472 263L463 295L462 305Q462 310 469 321T488 343Q511 364 542 376T609 388Q669 388 702 360T736 283Q736 254 724 229T682 175Q656 149 565 73H756L738 0Z"  />
<glyph unicode="&#xBE;" horiz-adv-x="815" d="M104 462Q129 472 144 478T168 488T182 496T193 503Q213 518 213 546Q213 582 169 582Q111 582 92 543Q89 538 82 538H75Q68 538 66 539T63 547L56 577Q54 582 54 582T54 585Q54 591 76 608Q101 625 128 633T192 641Q246 641 276 620T307 561Q307 537 293 519T245 481Q333 459 333 383Q333 353 317 324T275 278Q230 247 156 247Q117 247 90 256T44 285Q36 293 35 298T33 315Q33 325 34 328T39 334L65 347Q74 352 82 352H92Q98 352 99 352T103 346Q118 302 170 302Q200 302 218 320T236 368Q236 430 170 430Q158 430 147 429T116 422L104 462ZM683 634L247 -12H169L603 634H683ZM788 87H722V0H635V87H444V135L658 381H722V150H788V87ZM635 280L523 150H635V280Z"  />
<glyph unicode="&#xBF;" horiz-adv-x="407" d="M367 -154Q370 -162 370 -177Q370 -186 369 -189T364 -196Q348 -209 316 -217T250 -226Q145 -226 82 -146Q61 -119 49 -86T37 -23Q37 48 97 94Q101 97 113 105T140 122T171 140T199 156Q214 164 222 170T234 184T240 206T242 242H312L314 211Q316 187 317 168T318 136Q318 121 315 110T302 88T273 64T223 31Q197 15 181 4T156 -18T144 -39T141 -63Q141 -92 160 -108T215 -124Q264 -124 312 -95H347L367 -154ZM276 432Q308 432 331 409T354 354Q354 320 331 297T275 274Q242 274 219 297T196 353Q196 386 219 409T276 432Z"  />
<glyph unicode="&#xC0;" horiz-adv-x="667" d="M406 634L667 0H514L444 189H198L122 0H0L303 634H406ZM326 504L229 264H415L326 504ZM391 692L335 683L163 816V843L265 872L391 692Z"  />
<glyph unicode="&#xC1;" horiz-adv-x="667" d="M406 634L667 0H514L444 189H198L122 0H0L303 634H406ZM326 504L229 264H415L326 504ZM487 843V816L315 683L259 692L385 872L487 843Z"  />
<glyph unicode="&#xC2;" horiz-adv-x="667" d="M406 634L667 0H514L444 189H198L122 0H0L303 634H406ZM326 504L229 264H415L326 504ZM349 861L460 691L417 672L314 759L211 672L168 691L279 861H349Z"  />
<glyph unicode="&#xC3;" horiz-adv-x="667" d="M406 634L667 0H514L444 189H198L122 0H0L303 634H406ZM326 504L229 264H415L326 504ZM467 835L504 809Q490 752 461 721T392 690Q375 690 362 695T319 720Q299 733 290 737T271 741Q254 741 244 729T225 690H220L181 717Q201 778 228 806T294 835Q303 835 309 834T323 830T342 820T372 802Q389 791 398 788T415 784Q432 784 441 795T462 835H467Z"  />
<glyph unicode="&#xC4;" horiz-adv-x="667" d="M406 634L667 0H514L444 189H198L122 0H0L303 634H406ZM326 504L229 264H415L326 504ZM247 818Q271 818 288 801T305 759Q305 734 288 717T246 700Q222 700 205 717T187 758Q187 784 204 801T247 818ZM446 818Q470 818 487 801T504 759Q504 734 487 717T445 700Q421 700 404 717T386 758Q386 784 403 801T446 818Z"  />
<glyph unicode="&#xC5;" horiz-adv-x="667" d="M406 634L667 0H514L444 189H198L122 0H0L303 634H406ZM326 504L229 264H415L326 504ZM356 886Q380 886 401 877T439 853T464 818T474 775Q474 752 465 733T439 699T401 676T354 667Q329 667 308 675T270 698T245 732T235 775Q235 799 244 819T270 854T308 877T356 886ZM354 836Q332 836 318 819T304 775Q304 749 319 732T357 715Q378 715 391 732T405 775Q405 802 391 819T354 836Z"  />
<glyph unicode="&#xC6;" horiz-adv-x="926" d="M891 634V555H569V373H857V294H569V84H902V0H439V219H214L72 0H-59L386 634H891ZM439 555H432L265 294H439V555Z"  />
<glyph unicode="&#xC7;" horiz-adv-x="648" d="M401 -48V-57Q453 -79 453 -120Q453 -141 442 -161T412 -197T369 -222T319 -232Q292 -232 269 -220T245 -192Q245 -187 248 -184L282 -154H295Q316 -178 341 -178Q352 -178 359 -172T367 -155Q367 -141 355 -131T306 -102V-77L355 -11Q308 -8 275 0T209 22Q126 60 80 135T33 307Q33 384 61 446T140 553T263 622T425 646Q450 646 479 644T535 638T584 629T617 619Q627 615 626 600L619 538Q618 533 617 532T611 528L601 522Q597 520 594 520Q592 520 590 521T573 529Q555 537 533 544T487 556T437 564T390 567Q287 567 233 507T179 331Q179 271 195 223T240 139T311 85T404 66Q455 66 499 78T589 118Q593 120 595 120Q596 120 601 117L611 112Q616 109 617 108T618 104Q618 103 618 102T617 96L607 33Q605 24 602 21T586 14Q548 3 508 -3T423 -12L401 -48Z"  />
<glyph unicode="&#xC8;" horiz-adv-x="574" d="M539 634V555H217V373H505V294H217V84H550V0H78V634H539ZM372 692L316 683L144 816V843L246 872L372 692Z"  />
<glyph unicode="&#xC9;" horiz-adv-x="574" d="M539 634V555H217V373H505V294H217V84H550V0H78V634H539ZM440 843V816L268 683L212 692L338 872L440 843Z"  />
<glyph unicode="&#xCA;" horiz-adv-x="574" d="M539 634V555H217V373H505V294H217V84H550V0H78V634H539ZM304 861L415 691L372 672L269 759L166 672L123 691L234 861H304Z"  />
<glyph unicode="&#xCB;" horiz-adv-x="574" d="M539 634V555H217V373H505V294H217V84H550V0H78V634H539ZM211 818Q235 818 252 801T269 759Q269 734 252 717T210 700Q186 700 169 717T151 758Q151 784 168 801T211 818ZM410 818Q434 818 451 801T468 759Q468 734 451 717T409 700Q385 700 368 717T350 758Q350 784 367 801T410 818Z"  />
<glyph unicode="&#xCC;" horiz-adv-x="296" d="M217 634V0H78V634H217ZM196 692L140 683L-32 816V843L70 872L196 692Z"  />
<glyph unicode="&#xCD;" horiz-adv-x="296" d="M217 634V0H78V634H217ZM302 843V816L130 683L74 692L200 872L302 843Z"  />
<glyph unicode="&#xCE;" horiz-adv-x="296" d="M217 634V0H78V634H217ZM173 861L284 691L241 672L138 759L35 672L-8 691L103 861H173Z"  />
<glyph unicode="&#xCF;" horiz-adv-x="296" d="M217 634V0H78V634H217ZM68 818Q92 818 109 801T126 759Q126 734 109 717T67 700Q43 700 26 717T8 758Q8 784 25 801T68 818ZM267 818Q291 818 308 801T325 759Q325 734 308 717T266 700Q242 700 225 717T207 758Q207 784 224 801T267 818Z"  />
<glyph unicode="&#xD0;" horiz-adv-x="759" d="M-1 305V378H78V634Q203 638 270 639T349 641Q440 641 501 628T609 584Q726 507 726 339Q726 234 682 158T557 42Q510 20 446 10T283 0H78V305H-1ZM217 78H326Q392 78 437 89T510 124Q546 155 563 203T580 323Q580 400 562 446T502 522Q470 544 433 553T335 562Q308 562 274 562T217 561V378H418V305H217V78Z"  />
<glyph unicode="&#xD1;" horiz-adv-x="759" d="M180 634L586 189L578 634H678L677 7L595 -14L168 453L176 0H76L80 634H180ZM505 835L542 809Q528 752 499 721T430 690Q413 690 400 695T357 720Q337 733 328 737T309 741Q292 741 282 729T263 690H258L219 717Q239 778 266 806T332 835Q341 835 347 834T361 830T380 820T410 802Q427 791 436 788T453 784Q470 784 479 795T500 835H505Z"  />
<glyph unicode="&#xD2;" horiz-adv-x="796" d="M413 646Q492 646 557 623T668 557T739 454T764 321Q764 246 737 185T659 79T540 11T385 -13Q310 -13 249 7T141 67Q90 111 62 175T33 312Q33 469 155 562Q212 606 274 626T413 646ZM387 567Q341 567 303 550T237 500T194 424T179 325Q179 269 196 222T244 140T316 86T408 66Q444 66 478 78T540 113Q618 179 618 303Q618 361 601 410T554 493T481 547T387 567ZM445 692L389 683L217 816V843L319 872L445 692Z"  />
<glyph unicode="&#xD3;" horiz-adv-x="796" d="M413 646Q492 646 557 623T668 557T739 454T764 321Q764 246 737 185T659 79T540 11T385 -13Q310 -13 249 7T141 67Q90 111 62 175T33 312Q33 469 155 562Q212 606 274 626T413 646ZM387 567Q341 567 303 550T237 500T194 424T179 325Q179 269 196 222T244 140T316 86T408 66Q444 66 478 78T540 113Q618 179 618 303Q618 361 601 410T554 493T481 547T387 567ZM551 843V816L379 683L323 692L449 872L551 843Z"  />
<glyph unicode="&#xD4;" horiz-adv-x="796" d="M413 646Q492 646 557 623T668 557T739 454T764 321Q764 246 737 185T659 79T540 11T385 -13Q310 -13 249 7T141 67Q90 111 62 175T33 312Q33 469 155 562Q212 606 274 626T413 646ZM387 567Q341 567 303 550T237 500T194 424T179 325Q179 269 196 222T244 140T316 86T408 66Q444 66 478 78T540 113Q618 179 618 303Q618 361 601 410T554 493T481 547T387 567ZM399 861L510 691L467 672L364 759L261 672L218 691L329 861H399Z"  />
<glyph unicode="&#xD5;" horiz-adv-x="796" d="M413 646Q492 646 557 623T668 557T739 454T764 321Q764 246 737 185T659 79T540 11T385 -13Q310 -13 249 7T141 67Q90 111 62 175T33 312Q33 469 155 562Q212 606 274 626T413 646ZM387 567Q341 567 303 550T237 500T194 424T179 325Q179 269 196 222T244 140T316 86T408 66Q444 66 478 78T540 113Q618 179 618 303Q618 361 601 410T554 493T481 547T387 567ZM515 835L552 809Q538 752 509 721T440 690Q423 690 410 695T367 720Q347 733 338 737T319 741Q302 741 292 729T273 690H268L229 717Q249 778 276 806T342 835Q351 835 357 834T371 830T390 820T420 802Q437 791 446 788T463 784Q480 784 489 795T510 835H515Z"  />
<glyph unicode="&#xD6;" horiz-adv-x="796" d="M413 646Q492 646 557 623T668 557T739 454T764 321Q764 246 737 185T659 79T540 11T385 -13Q310 -13 249 7T141 67Q90 111 62 175T33 312Q33 469 155 562Q212 606 274 626T413 646ZM387 567Q341 567 303 550T237 500T194 424T179 325Q179 269 196 222T244 140T316 86T408 66Q444 66 478 78T540 113Q618 179 618 303Q618 361 601 410T554 493T481 547T387 567ZM295 818Q319 818 336 801T353 759Q353 734 336 717T294 700Q270 700 253 717T235 758Q235 784 252 801T295 818ZM494 818Q518 818 535 801T552 759Q552 734 535 717T493 700Q469 700 452 717T434 758Q434 784 451 801T494 818Z"  />
<glyph unicode="&#xD7;" horiz-adv-x="555" d="M97 440Q88 450 88 453Q88 457 99 468L127 497Q138 508 142 508Q144 508 147 506T160 494L278 375L401 498Q408 505 410 506T414 508Q419 508 429 497L458 468Q468 458 468 453Q468 451 466 448T455 436L336 317L459 195Q468 184 468 182Q468 176 458 166L429 138Q420 127 413 127Q411 127 409 128T401 137L278 259L156 137Q150 130 148 129T143 127Q138 127 127 138L98 166Q91 173 90 175T88 181Q88 185 97 195L220 317L97 440Z"  />
<glyph unicode="&#xD8;" horiz-adv-x="796" d="M637 678H713L640 581Q764 486 764 321Q764 247 737 186T660 80T540 12T386 -13Q292 -13 214 21L159 -52H83L161 51Q98 99 66 165T33 313Q33 467 155 563Q262 647 407 647Q503 647 586 611L637 678ZM516 528Q458 568 388 568Q341 568 303 551T237 501T194 425T179 326Q179 222 239 144L516 528ZM284 104Q342 66 409 66Q444 66 478 78T540 113Q618 179 618 303Q618 411 561 486L284 104Z"  />
<glyph unicode="&#xD9;" horiz-adv-x="722" d="M218 634V256Q218 232 218 218T219 194T221 178T224 165Q236 125 273 104T371 83Q422 83 462 98T523 143Q532 154 537 165T545 194T549 236T550 301V634H652L644 304Q642 245 638 205T623 135T595 86T553 46Q512 16 460 2T337 -12Q200 -12 134 51Q117 67 107 83T90 122T82 175T79 250V634H218ZM423 692L367 683L195 816V843L297 872L423 692Z"  />
<glyph unicode="&#xDA;" horiz-adv-x="722" d="M218 634V256Q218 232 218 218T219 194T221 178T224 165Q236 125 273 104T371 83Q422 83 462 98T523 143Q532 154 537 165T545 194T549 236T550 301V634H652L644 304Q642 245 638 205T623 135T595 86T553 46Q512 16 460 2T337 -12Q200 -12 134 51Q117 67 107 83T90 122T82 175T79 250V634H218ZM518 843V816L346 683L290 692L416 872L518 843Z"  />
<glyph unicode="&#xDB;" horiz-adv-x="722" d="M218 634V256Q218 232 218 218T219 194T221 178T224 165Q236 125 273 104T371 83Q422 83 462 98T523 143Q532 154 537 165T545 194T549 236T550 301V634H652L644 304Q642 245 638 205T623 135T595 86T553 46Q512 16 460 2T337 -12Q200 -12 134 51Q117 67 107 83T90 122T82 175T79 250V634H218ZM377 861L488 691L445 672L342 759L239 672L196 691L307 861H377Z"  />
<glyph unicode="&#xDC;" horiz-adv-x="722" d="M218 634V256Q218 232 218 218T219 194T221 178T224 165Q236 125 273 104T371 83Q422 83 462 98T523 143Q532 154 537 165T545 194T549 236T550 301V634H652L644 304Q642 245 638 205T623 135T595 86T553 46Q512 16 460 2T337 -12Q200 -12 134 51Q117 67 107 83T90 122T82 175T79 250V634H218ZM273 818Q297 818 314 801T331 759Q331 734 314 717T272 700Q248 700 231 717T213 758Q213 784 230 801T273 818ZM472 818Q496 818 513 801T530 759Q530 734 513 717T471 700Q447 700 430 717T412 758Q412 784 429 801T472 818Z"  />
<glyph unicode="&#xDD;" horiz-adv-x="556" d="M141 634L300 364L455 634H589L343 280V0H204V276L-25 634H141ZM432 843V816L260 683L204 692L330 872L432 843Z"  />
<glyph unicode="&#xDE;" horiz-adv-x="592" d="M217 634V533Q246 536 267 537T316 538Q382 538 425 529T501 498Q539 472 560 432T581 340Q581 286 556 243T483 172Q448 152 401 143T288 133Q280 133 274 133T260 133T242 133T217 135V0H78V634H217ZM217 215Q235 213 248 213T282 212Q326 212 351 218T396 239Q435 270 435 332Q435 376 418 405T368 447Q351 454 329 456T270 459Q264 459 260 459T250 459T238 459T217 458V215Z"  />
<glyph unicode="&#xDF;" horiz-adv-x="574" d="M47 455Q47 494 50 522T60 571T80 607T112 637Q147 663 200 677T317 691Q406 691 455 658T505 563Q505 541 500 523T481 490T448 459T398 429Q375 417 361 408T338 391T327 375T324 357Q324 346 327 338T340 322T369 303T420 278Q458 260 484 244T525 212T547 177T554 135Q554 68 500 28T353 -12Q337 -12 318 -11T281 -6T248 1T224 9Q216 12 215 23L207 85L241 108Q266 87 296 76T355 64Q385 64 403 78T422 117Q422 126 419 133T408 147T385 162T346 182Q305 201 279 217T237 250T216 285T210 329Q210 368 231 397T308 463Q327 476 339 486T359 507T370 529T373 555Q373 615 286 615Q213 615 190 569Q182 553 179 531T176 461V0H47V455Z"  />
<glyph unicode="&#xE0;" horiz-adv-x="500" d="M57 365Q58 375 59 377T65 382Q81 393 104 402T152 418T205 429T259 433Q356 433 395 386Q408 370 413 349T419 294V267L416 116Q415 93 419 86T438 79Q452 79 466 82T502 93L506 90V42Q506 34 504 31T492 22Q466 8 432 -1T371 -10Q346 -10 331 -1T304 30Q273 18 250 11T209 -1T174 -8T141 -10Q90 -10 61 22T31 112Q31 146 40 168T78 206T157 232T293 253Q293 274 293 287T292 307T290 319T286 327Q274 350 224 350Q182 350 152 337T95 296L60 305L57 365ZM293 189Q282 187 267 185T238 181T212 176T193 172Q168 167 161 158T153 126Q153 100 164 90T205 79Q215 79 222 79T238 81T258 85T287 92L293 94V189ZM336 474L280 465L108 598V625L210 654L336 474Z"  />
<glyph unicode="&#xE1;" horiz-adv-x="500" d="M57 365Q58 375 59 377T65 382Q81 393 104 402T152 418T205 429T259 433Q356 433 395 386Q408 370 413 349T419 294V267L416 116Q415 93 419 86T438 79Q452 79 466 82T502 93L506 90V42Q506 34 504 31T492 22Q466 8 432 -1T371 -10Q346 -10 331 -1T304 30Q273 18 250 11T209 -1T174 -8T141 -10Q90 -10 61 22T31 112Q31 146 40 168T78 206T157 232T293 253Q293 274 293 287T292 307T290 319T286 327Q274 350 224 350Q182 350 152 337T95 296L60 305L57 365ZM293 189Q282 187 267 185T238 181T212 176T193 172Q168 167 161 158T153 126Q153 100 164 90T205 79Q215 79 222 79T238 81T258 85T287 92L293 94V189ZM404 625V598L232 465L176 474L302 654L404 625Z"  />
<glyph unicode="&#xE2;" horiz-adv-x="500" d="M57 365Q58 375 59 377T65 382Q81 393 104 402T152 418T205 429T259 433Q356 433 395 386Q408 370 413 349T419 294V267L416 116Q415 93 419 86T438 79Q452 79 466 82T502 93L506 90V42Q506 34 504 31T492 22Q466 8 432 -1T371 -10Q346 -10 331 -1T304 30Q273 18 250 11T209 -1T174 -8T141 -10Q90 -10 61 22T31 112Q31 146 40 168T78 206T157 232T293 253Q293 274 293 287T292 307T290 319T286 327Q274 350 224 350Q182 350 152 337T95 296L60 305L57 365ZM293 189Q282 187 267 185T238 181T212 176T193 172Q168 167 161 158T153 126Q153 100 164 90T205 79Q215 79 222 79T238 81T258 85T287 92L293 94V189ZM285 644L396 474L353 455L250 542L147 455L104 474L215 644H285Z"  />
<glyph unicode="&#xE3;" horiz-adv-x="500" d="M57 365Q58 375 59 377T65 382Q81 393 104 402T152 418T205 429T259 433Q356 433 395 386Q408 370 413 349T419 294V267L416 116Q415 93 419 86T438 79Q452 79 466 82T502 93L506 90V42Q506 34 504 31T492 22Q466 8 432 -1T371 -10Q346 -10 331 -1T304 30Q273 18 250 11T209 -1T174 -8T141 -10Q90 -10 61 22T31 112Q31 146 40 168T78 206T157 232T293 253Q293 274 293 287T292 307T290 319T286 327Q274 350 224 350Q182 350 152 337T95 296L60 305L57 365ZM293 189Q282 187 267 185T238 181T212 176T193 172Q168 167 161 158T153 126Q153 100 164 90T205 79Q215 79 222 79T238 81T258 85T287 92L293 94V189ZM375 637L412 611Q398 554 369 523T300 492Q283 492 270 497T227 522Q207 535 198 539T179 543Q162 543 152 531T133 492H128L89 519Q109 580 136 608T202 637Q211 637 217 636T231 632T250 622T280 604Q297 593 306 590T323 586Q340 586 349 597T370 637H375Z"  />
<glyph unicode="&#xE4;" horiz-adv-x="500" d="M57 365Q58 375 59 377T65 382Q81 393 104 402T152 418T205 429T259 433Q356 433 395 386Q408 370 413 349T419 294V267L416 116Q415 93 419 86T438 79Q452 79 466 82T502 93L506 90V42Q506 34 504 31T492 22Q466 8 432 -1T371 -10Q346 -10 331 -1T304 30Q273 18 250 11T209 -1T174 -8T141 -10Q90 -10 61 22T31 112Q31 146 40 168T78 206T157 232T293 253Q293 274 293 287T292 307T290 319T286 327Q274 350 224 350Q182 350 152 337T95 296L60 305L57 365ZM293 189Q282 187 267 185T238 181T212 176T193 172Q168 167 161 158T153 126Q153 100 164 90T205 79Q215 79 222 79T238 81T258 85T287 92L293 94V189ZM152 609Q176 609 193 592T210 550Q210 525 193 508T151 491Q127 491 110 508T92 549Q92 575 109 592T152 609ZM351 609Q375 609 392 592T409 550Q409 525 392 508T350 491Q326 491 309 508T291 549Q291 575 308 592T351 609Z"  />
<glyph unicode="&#xE5;" horiz-adv-x="500" d="M57 365Q58 375 59 377T65 382Q81 393 104 402T152 418T205 429T259 433Q356 433 395 386Q408 370 413 349T419 294V267L416 116Q415 93 419 86T438 79Q452 79 466 82T502 93L506 90V42Q506 34 504 31T492 22Q466 8 432 -1T371 -10Q346 -10 331 -1T304 30Q273 18 250 11T209 -1T174 -8T141 -10Q90 -10 61 22T31 112Q31 146 40 168T78 206T157 232T293 253Q293 274 293 287T292 307T290 319T286 327Q274 350 224 350Q182 350 152 337T95 296L60 305L57 365ZM293 189Q282 187 267 185T238 181T212 176T193 172Q168 167 161 158T153 126Q153 100 164 90T205 79Q215 79 222 79T238 81T258 85T287 92L293 94V189ZM252 692Q276 692 297 683T335 659T360 624T370 581Q370 558 361 539T335 505T297 482T250 473Q225 473 204 481T166 504T141 538T131 581Q131 605 140 625T166 660T204 683T252 692ZM250 642Q228 642 214 625T200 581Q200 555 215 538T253 521Q274 521 287 538T301 581Q301 608 287 625T250 642Z"  />
<glyph unicode="&#xE6;" horiz-adv-x="722" d="M417 194Q421 130 447 102T529 73Q602 73 675 114L682 113L700 65Q701 62 701 59Q701 55 693 50T662 33Q572 -15 478 -15Q389 -15 342 29Q287 7 245 -2T163 -12Q31 -12 31 108Q31 156 55 181T136 221Q158 227 202 234T297 250Q297 266 297 276T296 292T294 303T292 314Q281 355 226 355Q187 355 152 340T91 298L62 307L54 370L52 380Q52 384 58 388T82 401Q117 416 161 424T251 433Q294 433 321 425T377 397Q413 417 443 425T512 433Q601 433 650 384T699 244Q699 240 699 233T698 217L417 194ZM560 276Q557 363 492 363Q422 363 417 262L560 276ZM296 181Q266 179 240 175T199 165Q179 158 171 148T163 117Q163 71 208 71Q258 71 307 93Q301 113 299 132T296 181Z"  />
<glyph unicode="&#xE7;" horiz-adv-x="426" d="M355 312Q328 329 306 335T252 342Q201 342 179 316T156 232Q156 83 275 83Q337 83 399 116L408 111V67Q408 58 406 54T393 43Q372 28 342 15T283 -4L258 -46V-55Q309 -76 309 -117Q309 -137 298 -156T269 -191T227 -215T178 -225Q151 -225 129 -213T106 -186Q106 -181 110 -178L143 -149H155Q176 -173 200 -173Q211 -173 218 -167T226 -150Q226 -137 215 -127T166 -98V-74L212 -12Q127 -10 79 43T30 184Q30 238 49 284T104 363T187 414T294 433Q331 433 364 425T413 402Q417 398 418 395T419 379Q419 369 418 365T412 355L376 312H355Z"  />
<glyph unicode="&#xE8;" horiz-adv-x="463" d="M162 182Q169 128 194 104T271 79Q347 79 414 120L421 118L438 68Q439 67 439 64Q439 60 436 57T423 48Q381 20 328 4T225 -12Q132 -12 81 42T30 196Q30 250 48 296T100 376Q158 433 254 433Q373 433 418 336Q429 310 434 279T441 201L162 182ZM301 261Q300 292 298 306T288 332Q271 363 237 363Q204 363 184 334T161 250L301 261ZM324 474L268 465L96 598V625L198 654L324 474Z"  />
<glyph unicode="&#xE9;" horiz-adv-x="463" d="M162 182Q169 128 194 104T271 79Q347 79 414 120L421 118L438 68Q439 67 439 64Q439 60 436 57T423 48Q381 20 328 4T225 -12Q132 -12 81 42T30 196Q30 250 48 296T100 376Q158 433 254 433Q373 433 418 336Q429 310 434 279T441 201L162 182ZM301 261Q300 292 298 306T288 332Q271 363 237 363Q204 363 184 334T161 250L301 261ZM386 625V598L214 465L158 474L284 654L386 625Z"  />
<glyph unicode="&#xEA;" horiz-adv-x="463" d="M162 182Q169 128 194 104T271 79Q347 79 414 120L421 118L438 68Q439 67 439 64Q439 60 436 57T423 48Q381 20 328 4T225 -12Q132 -12 81 42T30 196Q30 250 48 296T100 376Q158 433 254 433Q373 433 418 336Q429 310 434 279T441 201L162 182ZM301 261Q300 292 298 306T288 332Q271 363 237 363Q204 363 184 334T161 250L301 261ZM278 644L389 474L346 455L243 542L140 455L97 474L208 644H278Z"  />
<glyph unicode="&#xEB;" horiz-adv-x="463" d="M162 182Q169 128 194 104T271 79Q347 79 414 120L421 118L438 68Q439 67 439 64Q439 60 436 57T423 48Q381 20 328 4T225 -12Q132 -12 81 42T30 196Q30 250 48 296T100 376Q158 433 254 433Q373 433 418 336Q429 310 434 279T441 201L162 182ZM301 261Q300 292 298 306T288 332Q271 363 237 363Q204 363 184 334T161 250L301 261ZM148 609Q172 609 189 592T206 550Q206 525 189 508T147 491Q123 491 106 508T88 549Q88 575 105 592T148 609ZM347 609Q371 609 388 592T405 550Q405 525 388 508T346 491Q322 491 305 508T287 549Q287 575 304 592T347 609Z"  />
<glyph unicode="&#xEC;" horiz-adv-x="241" d="M185 422V0H56V422H185ZM193 472L137 463L-35 596V623L67 652L193 472Z"  />
<glyph unicode="&#xED;" horiz-adv-x="241" d="M185 422V0H56V422H185ZM285 623V596L113 463L57 472L183 652L285 623Z"  />
<glyph unicode="&#xEE;" horiz-adv-x="241" d="M185 422V0H56V422H185ZM173 644L284 474L241 455L138 542L35 455L-8 474L103 644H173Z"  />
<glyph unicode="&#xEF;" horiz-adv-x="241" d="M185 422V0H56V422H185ZM45 609Q69 609 86 592T103 550Q103 525 86 508T44 491Q20 491 3 508T-15 549Q-15 575 2 592T45 609ZM244 609Q268 609 285 592T302 550Q302 525 285 508T243 491Q219 491 202 508T184 549Q184 575 201 592T244 609Z"  />
<glyph unicode="&#xF0;" horiz-adv-x="555" d="M309 690Q321 672 329 659T351 621L434 666L463 616L383 573Q421 511 448 459T492 363T518 280T526 205Q526 158 507 118T454 49T374 4T272 -13Q216 -13 172 2T96 47T47 117T30 210Q30 260 49 301T103 371T187 417T297 433Q312 433 325 432T356 427Q347 447 332 476T305 526L226 485L198 535L276 576Q262 602 254 617T235 650L309 690ZM271 357Q223 357 195 324T167 231Q167 156 200 110T288 63Q335 63 361 96T388 189Q388 226 380 257T356 310T319 345T271 357Z"  />
<glyph unicode="&#xF1;" d="M185 422L183 371Q278 433 354 433Q392 433 421 418T466 373Q471 363 474 355T479 334T481 304T482 259V0H354V230Q354 265 353 281T347 307Q335 334 298 334Q272 334 245 324T185 290V0H56V422H185ZM404 637L441 611Q427 554 398 523T329 492Q312 492 299 497T256 522Q236 535 227 539T208 543Q191 543 181 531T162 492H157L118 519Q138 580 165 608T231 637Q240 637 246 636T260 632T279 622T309 604Q326 593 335 590T352 586Q369 586 378 597T399 637H404Z"  />
<glyph unicode="&#xF2;" horiz-adv-x="555" d="M299 433Q350 433 391 417T463 372T509 302T526 212Q526 162 508 121T456 50T376 4T272 -13Q216 -13 172 2T96 47T47 117T30 209Q30 260 49 301T103 372T188 417T299 433ZM271 357Q223 357 195 324T167 231Q167 156 200 110T288 63Q335 63 361 96T388 189Q388 226 380 257T356 310T319 345T271 357ZM353 474L297 465L125 598V625L227 654L353 474Z"  />
<glyph unicode="&#xF3;" horiz-adv-x="555" d="M299 433Q350 433 391 417T463 372T509 302T526 212Q526 162 508 121T456 50T376 4T272 -13Q216 -13 172 2T96 47T47 117T30 209Q30 260 49 301T103 372T188 417T299 433ZM271 357Q223 357 195 324T167 231Q167 156 200 110T288 63Q335 63 361 96T388 189Q388 226 380 257T356 310T319 345T271 357ZM431 625V598L259 465L203 474L329 654L431 625Z"  />
<glyph unicode="&#xF4;" horiz-adv-x="555" d="M299 433Q350 433 391 417T463 372T509 302T526 212Q526 162 508 121T456 50T376 4T272 -13Q216 -13 172 2T96 47T47 117T30 209Q30 260 49 301T103 372T188 417T299 433ZM271 357Q223 357 195 324T167 231Q167 156 200 110T288 63Q335 63 361 96T388 189Q388 226 380 257T356 310T319 345T271 357ZM313 644L424 474L381 455L278 542L175 455L132 474L243 644H313Z"  />
<glyph unicode="&#xF5;" horiz-adv-x="555" d="M299 433Q350 433 391 417T463 372T509 302T526 212Q526 162 508 121T456 50T376 4T272 -13Q216 -13 172 2T96 47T47 117T30 209Q30 260 49 301T103 372T188 417T299 433ZM271 357Q223 357 195 324T167 231Q167 156 200 110T288 63Q335 63 361 96T388 189Q388 226 380 257T356 310T319 345T271 357ZM408 637L445 611Q431 554 402 523T333 492Q316 492 303 497T260 522Q240 535 231 539T212 543Q195 543 185 531T166 492H161L122 519Q142 580 169 608T235 637Q244 637 250 636T264 632T283 622T313 604Q330 593 339 590T356 586Q373 586 382 597T403 637H408Z"  />
<glyph unicode="&#xF6;" horiz-adv-x="555" d="M299 433Q350 433 391 417T463 372T509 302T526 212Q526 162 508 121T456 50T376 4T272 -13Q216 -13 172 2T96 47T47 117T30 209Q30 260 49 301T103 372T188 417T299 433ZM271 357Q223 357 195 324T167 231Q167 156 200 110T288 63Q335 63 361 96T388 189Q388 226 380 257T356 310T319 345T271 357ZM179 609Q203 609 220 592T237 550Q237 525 220 508T178 491Q154 491 137 508T119 549Q119 575 136 592T179 609ZM378 609Q402 609 419 592T436 550Q436 525 419 508T377 491Q353 491 336 508T318 549Q318 575 335 592T378 609Z"  />
<glyph unicode="&#xF7;" horiz-adv-x="555" d="M278 535Q307 535 326 515T346 466Q346 438 326 418T277 398Q249 398 229 418T209 466Q209 495 229 515T278 535ZM278 236Q307 236 326 216T346 167Q346 139 326 119T277 99Q249 99 229 119T209 167Q209 196 229 216T278 236ZM481 358Q495 358 497 355T500 337V297Q500 282 497 279T475 276H74Q61 276 58 279T55 297V337Q55 351 58 354T74 358H481Z"  />
<glyph unicode="&#xF8;" horiz-adv-x="555" d="M434 461H497L443 388Q526 325 526 212Q526 162 508 121T456 50T376 4T273 -13Q211 -13 160 7L120 -47L59 -45L115 31Q30 92 30 210Q30 260 49 301T103 371T186 417T295 433Q354 433 399 414L434 461ZM337 338Q310 361 273 361Q221 361 192 327T162 233Q162 201 168 176T189 121L337 338ZM222 82Q252 59 289 59Q337 59 365 94T394 190Q394 219 388 244T368 296L222 82Z"  />
<glyph unicode="&#xF9;" d="M481 0H357L359 44Q321 18 278 4T194 -10Q152 -10 121 5T74 48Q68 58 65 69T59 96T56 133T55 184V422H184V185Q184 150 186 136T194 110Q208 85 243 85Q266 85 295 95T353 123V422H481V0ZM343 474L287 465L115 598V625L217 654L343 474Z"  />
<glyph unicode="&#xFA;" d="M481 0H357L359 44Q321 18 278 4T194 -10Q152 -10 121 5T74 48Q68 58 65 69T59 96T56 133T55 184V422H184V185Q184 150 186 136T194 110Q208 85 243 85Q266 85 295 95T353 123V422H481V0ZM422 625V598L250 465L194 474L320 654L422 625Z"  />
<glyph unicode="&#xFB;" d="M481 0H357L359 44Q321 18 278 4T194 -10Q152 -10 121 5T74 48Q68 58 65 69T59 96T56 133T55 184V422H184V185Q184 150 186 136T194 110Q208 85 243 85Q266 85 295 95T353 123V422H481V0ZM303 644L414 474L371 455L268 542L165 455L122 474L233 644H303Z"  />
<glyph unicode="&#xFC;" d="M481 0H357L359 44Q321 18 278 4T194 -10Q152 -10 121 5T74 48Q68 58 65 69T59 96T56 133T55 184V422H184V185Q184 150 186 136T194 110Q208 85 243 85Q266 85 295 95T353 123V422H481V0ZM170 609Q194 609 211 592T228 550Q228 525 211 508T169 491Q145 491 128 508T110 549Q110 575 127 592T170 609ZM369 609Q393 609 410 592T427 550Q427 525 410 508T368 491Q344 491 327 508T309 549Q309 575 326 592T369 609Z"  />
<glyph unicode="&#xFD;" horiz-adv-x="444" d="M145 422L234 136L357 422H469L116 -269L5 -245L160 -5L-2 422H145ZM393 625V598L221 465L165 474L291 654L393 625Z"  />
<glyph unicode="&#xFE;" horiz-adv-x="555" d="M185 -250Q185 -258 175 -258H64Q56 -258 56 -250V682Q56 690 64 690H175Q183 690 183 682V384L199 392Q223 404 241 412T276 424T309 431T346 433Q421 433 466 391Q494 365 510 326T526 242Q526 191 505 146T448 68T364 16T260 -4Q243 -4 227 -3T185 4V-250ZM183 110Q199 102 212 97T236 89T259 85T283 83Q394 83 394 211Q394 274 367 308T289 342Q262 342 237 335T183 313V110Z"  />
<glyph unicode="&#xFF;" horiz-adv-x="444" d="M145 422L234 136L357 422H469L116 -269L5 -245L160 -5L-2 422H145ZM141 609Q165 609 182 592T199 550Q199 525 182 508T140 491Q116 491 99 508T81 549Q81 575 98 592T141 609ZM340 609Q364 609 381 592T398 550Q398 525 381 508T339 491Q315 491 298 508T280 549Q280 575 297 592T340 609Z"  />
<glyph unicode="&#x131;" horiz-adv-x="241" d="M185 422V0H56V422H185Z"  />
<glyph unicode="&#x152;" horiz-adv-x="1000" d="M965 634V555H649V373H932V294H649V84H977V0H527V13Q459 -12 376 -12Q228 -12 139 68Q88 115 61 179T34 319Q34 404 68 470T169 580Q268 646 401 646Q438 646 466 641T527 624V634H965ZM519 542Q486 556 459 561T403 567Q353 567 312 550T242 500T196 423T180 324Q180 268 196 221T242 139T313 85T402 66Q434 66 462 74T519 102V542Z"  />
<glyph unicode="&#x153;" horiz-adv-x="833" d="M531 185Q538 71 652 71Q685 71 715 81T778 113L786 111L803 61Q804 60 804 57Q804 53 800 50T785 39Q702 -12 617 -12Q562 -12 524 4T459 58Q415 21 368 5T259 -12Q208 -12 166 3T93 47T47 114T30 202Q30 253 49 295T104 368T189 416T299 433Q353 433 393 419T469 375Q530 433 622 433Q679 433 721 412T786 350Q798 328 805 296T812 226Q812 224 812 220T811 211L531 185ZM672 267Q672 312 655 337T606 363Q572 363 552 335T530 253L672 267ZM287 357Q231 357 199 322T167 226Q167 191 177 161T204 110T245 76T297 64Q351 64 381 101T411 204Q411 276 379 316T287 357Z"  />
<glyph unicode="&#x160;" horiz-adv-x="519" d="M460 550L461 541Q461 537 454 534L431 522Q426 520 426 520T423 519Q421 519 419 520T404 530Q379 547 343 557T275 567Q224 567 196 546T167 487Q167 450 194 431Q201 426 209 421T230 410T259 395T302 376Q336 360 357 350T393 332T417 316T438 298Q461 277 473 248T486 186Q486 144 467 108T414 45T334 3T233 -12Q213 -12 188 -10T138 -5T89 3T52 13Q43 16 41 18T37 30L29 99Q28 101 28 104T28 108Q28 112 34 116L58 129Q62 132 65 132Q68 132 71 129Q110 102 156 87T245 71Q298 71 329 94T360 158Q360 174 356 186T338 209T300 233T236 262Q204 276 181 287T141 308T111 327T87 347Q65 368 53 398T41 461Q41 503 59 537T111 595T192 632T296 646Q314 646 336 644T379 639T417 633T443 625Q448 623 449 620T453 609L460 550ZM209 683L98 853L141 872L244 784L347 872L390 853L279 683H209Z"  />
<glyph unicode="&#x161;" horiz-adv-x="426" d="M336 323Q306 341 279 349T220 357Q158 357 158 318Q158 309 160 303T171 291T198 280T247 264Q289 251 318 238T365 210T390 177T398 135Q398 102 384 76T343 30T279 1T196 -10Q181 -10 160 -8T117 -3T76 3T47 11Q40 13 39 24L29 95L62 110Q121 66 206 66Q238 66 256 78T275 110Q275 120 273 126T261 138T235 149T189 164Q164 171 148 176T120 185T101 195T83 206Q40 237 40 292Q40 356 93 393T238 430Q253 430 270 429T303 426T332 422T353 417Q358 415 359 413T361 402L368 338L336 323ZM184 472L73 642L116 661L219 573L322 661L365 642L254 472H184Z"  />
<glyph unicode="&#x178;" horiz-adv-x="556" d="M141 634L300 364L455 634H589L343 280V0H204V276L-25 634H141ZM190 818Q214 818 231 801T248 759Q248 734 231 717T189 700Q165 700 148 717T130 758Q130 784 147 801T190 818ZM389 818Q413 818 430 801T447 759Q447 734 430 717T388 700Q364 700 347 717T329 758Q329 784 346 801T389 818Z"  />
<glyph unicode="&#x17D;" horiz-adv-x="574" d="M567 634V580L190 84H569L554 0H8V56L385 550H31V634H567ZM231 683L120 853L163 872L266 784L369 872L412 853L301 683H231Z"  />
<glyph unicode="&#x17E;" horiz-adv-x="426" d="M416 422V367L173 75H419L403 0H6V54L250 347H32V422H416ZM190 472L79 642L122 661L225 573L328 661L371 642L260 472H190Z"  />
<glyph unicode="&#x192;" horiz-adv-x="555" d="M427 344L410 269H304L286 186Q269 109 259 64T240 -7T223 -49T201 -84Q171 -127 124 -152T27 -178Q-10 -178 -36 -167T-62 -139V-131Q-62 -126 -61 -123T-55 -114L-13 -67H16Q38 -81 45 -84T62 -88Q72 -88 80 -83T95 -60T109 -11T128 74L171 269H89L103 333L187 344L194 377Q203 419 211 447T230 497T255 535T290 569Q335 607 381 626T472 646Q496 646 517 641T555 626T582 604T592 578Q592 570 587 553Q585 545 582 542T571 534L524 511H487Q472 549 422 549Q376 549 361 511Q357 502 351 476T336 413L320 344H427Z"  />
<glyph unicode="&#x2C6;" horiz-adv-x="500" d="M285 644L396 474L353 455L250 542L147 455L104 474L215 644H285Z"  />
<glyph unicode="&#x2C7;" horiz-adv-x="500" d="M215 472L104 642L147 661L250 573L353 661L396 642L285 472H215Z"  />
<glyph unicode="&#x2DA;" horiz-adv-x="500" d="M252 692Q276 692 297 683T335 659T360 624T370 581Q370 558 361 539T335 505T297 482T250 473Q225 473 204 481T166 504T141 538T131 581Q131 605 140 625T166 660T204 683T252 692ZM250 642Q228 642 214 625T200 581Q200 555 215 538T253 521Q274 521 287 538T301 581Q301 608 287 625T250 642Z"  />
<glyph unicode="&#x2DC;" horiz-adv-x="500" d="M374 626L411 600Q397 543 368 512T299 481Q282 481 269 486T226 511Q206 524 197 528T178 532Q161 532 151 520T132 481H127L88 508Q108 569 135 597T201 626Q210 626 216 625T230 621T249 611T279 593Q296 582 305 579T322 575Q339 575 348 586T369 626H374Z"  />
<glyph unicode="&#x2013;" horiz-adv-x="500" d="M463 268V199H37V268H463Z"  />
<glyph unicode="&#x2014;" horiz-adv-x="759" d="M728 268V199H32V268H728Z"  />
<glyph unicode="&#x2018;" horiz-adv-x="278" d="M237 608Q195 579 170 548T144 495Q144 480 167 469Q193 457 201 446T209 414Q209 386 188 368T135 349Q93 349 68 377T42 454Q42 495 61 533T119 607Q128 614 139 623T162 640T182 653T194 658Q196 658 196 658T200 653L237 612V608Z"  />
<glyph unicode="&#x2019;" horiz-adv-x="278" d="M42 399Q84 427 109 458T135 512Q135 526 113 538Q87 550 79 560T70 593Q70 622 91 640T144 658Q186 658 211 630T237 554Q237 471 160 400Q151 392 140 384T117 367T97 354T85 349Q82 349 79 353L42 395V399Z"  />
<glyph unicode="&#x201A;" horiz-adv-x="278" d="M42 -118Q85 -89 110 -58T135 -4Q135 11 113 21Q87 33 79 44T70 76Q70 105 91 123T144 141Q186 141 211 113T237 37Q237 -46 160 -117Q151 -125 140 -133T117 -150T97 -163T85 -168Q83 -168 79 -163L42 -121V-118Z"  />
<glyph unicode="&#x201C;" horiz-adv-x="500" d="M459 608Q416 578 391 548T366 495Q366 481 388 469Q414 457 422 446T431 414Q431 386 410 368T357 349Q315 349 290 377T264 453Q264 495 283 533T341 607Q350 615 361 624T384 640T404 653T416 658Q418 658 418 658T422 653L459 612V608ZM237 608Q195 579 170 548T144 495Q144 480 167 469Q193 457 201 446T209 414Q209 386 188 368T135 349Q93 349 68 377T42 454Q42 495 61 533T119 607Q128 614 139 623T162 640T182 653T194 658Q196 658 196 658T200 653L237 612V608Z"  />
<glyph unicode="&#x201D;" horiz-adv-x="500" d="M42 399Q84 427 109 458T135 512Q135 526 113 538Q87 550 79 560T70 593Q70 622 91 640T144 658Q186 658 211 630T237 554Q237 471 160 400Q151 392 140 384T117 367T97 354T85 349Q82 349 79 353L42 395V399ZM264 399Q306 428 331 458T357 512Q357 522 351 527T320 544Q292 558 292 593Q292 621 313 639T366 658Q408 658 433 630T459 553Q459 471 382 400Q373 392 362 383T339 367T319 354T307 349Q304 349 301 353L264 395V399Z"  />
<glyph unicode="&#x201E;" horiz-adv-x="500" d="M42 -118Q85 -89 110 -58T135 -4Q135 11 113 21Q87 33 79 44T70 76Q70 105 91 123T144 141Q186 141 211 113T237 37Q237 -46 160 -117Q151 -125 140 -133T117 -150T97 -163T85 -168Q83 -168 79 -163L42 -121V-118ZM264 -118Q307 -88 332 -58T357 -5Q357 11 335 21Q309 33 301 44T292 76Q292 105 313 123T366 141Q408 141 433 113T459 37Q459 -46 382 -117Q373 -125 362 -133T339 -150T319 -163T307 -168Q305 -168 305 -168T301 -163L264 -121V-118Z"  />
<glyph unicode="&#x2020;" horiz-adv-x="556" d="M332 634V561L322 400L439 408H508V314H439L322 325L331 169L321 -269H236L226 169L235 325L117 314H48V408H117L235 400L225 561V634H332Z"  />
<glyph unicode="&#x2021;" horiz-adv-x="556" d="M332 634V561L320 420L445 427H508V333H445L319 340L329 229L319 90L445 97H508V3H445L320 10L330 -154V-268H226V-154L236 10L111 3H48V97H111L236 90L227 229L236 340L111 333H48V427H111L236 420L225 561V634H332Z"  />
<glyph unicode="&#x2022;" horiz-adv-x="634" d="M320 455Q347 455 370 445T411 416T439 374T450 323Q450 296 440 272T411 230T369 202T318 191Q291 191 267 201T225 230T197 272T186 323Q186 351 196 375T225 417T267 445T320 455Z"  />
<glyph unicode="&#x2026;" horiz-adv-x="833" d="M140 146Q172 146 195 123T218 66Q218 34 195 11T139 -12Q107 -12 84 11T60 66Q60 100 83 123T140 146ZM418 146Q450 146 473 123T496 66Q496 34 473 11T417 -12Q385 -12 362 11T338 66Q338 100 361 123T418 146ZM696 146Q728 146 751 123T774 66Q774 34 751 11T695 -12Q663 -12 640 11T616 66Q616 100 639 123T696 146Z"  />
<glyph unicode="&#x2030;" horiz-adv-x="1185" d="M201 646Q277 646 321 602T365 480Q365 398 319 352T190 305Q113 305 69 348T24 468Q24 553 70 599T201 646ZM195 584Q164 584 146 554T128 471Q128 422 145 395T192 367Q224 367 242 396T261 477Q261 529 244 556T195 584ZM654 634L218 -12H139L574 634H654ZM608 329Q683 329 727 285T771 163Q771 81 725 35T596 -12Q519 -12 475 31T431 151Q431 236 477 282T608 329ZM602 267Q571 267 553 237T535 154Q535 105 552 78T599 50Q631 50 649 79T667 160Q667 211 651 239T602 267ZM997 329Q1072 329 1116 285T1160 163Q1160 81 1114 35T985 -12Q907 -12 863 31T819 151Q819 236 865 282T997 329ZM990 267Q959 267 941 237T923 154Q923 104 940 77T987 50Q1019 50 1037 79T1056 160Q1056 211 1039 239T990 267Z"  />
<glyph unicode="&#x2039;" horiz-adv-x="315" d="M222 55L42 238L222 420L273 391L172 238L273 84L222 55Z"  />
<glyph unicode="&#x203A;" horiz-adv-x="315" d="M94 420L273 238L94 55L42 84L144 238L42 391L94 420Z"  />
<glyph unicode="&#x20AC;" horiz-adv-x="555" d="M505 100Q505 98 504 96T503 92L496 33Q495 24 493 22T482 16Q454 2 414 -5T342 -12Q281 -12 237 6T164 56T118 135T96 239H28L39 295H94V304Q93 320 93 336T96 368H33L44 424H103Q123 536 188 591T369 646Q379 646 397 644T434 639T469 630T494 619Q501 613 501 604Q501 589 500 574T496 544Q495 539 495 538T489 534Q487 532 483 529T476 526Q471 526 467 529T459 535Q433 552 406 562T348 573Q318 573 298 559T264 523T243 475T233 424H414L403 368H229Q228 358 228 349T228 329V295H389L378 239H229Q229 209 234 177T254 120T291 78T353 61Q392 61 421 75T482 113L486 115Q489 114 497 110T505 100Z"  />
<glyph unicode="&#x2122;" horiz-adv-x="741" d="M287 634V580H171V317H85V580H-31V634H287ZM405 634L501 433L605 634H696L708 317H625L617 541L503 324L471 319L361 550L357 317H295L316 634H405Z"  />

</font>
</defs>
</svg>
