<?xml version="1.0" standalone="no"?>
<!DOCTYPE svg PUBLIC "-//W3C//DTD SVG 1.1//EN" "http://www.w3.org/Graphics/SVG/1.1/DTD/svg11.dtd" >
<svg>
<metadata>
Created by FontForge 20110222 at Tue Nov 12 09:05:28 2013
 By Orthosie Webhosting
* SnatchSoft INC. 2000 *Free for all free men,*
</metadata>
<defs>
<font id="Jefferson" horiz-adv-x="1000" >
  <font-face 
    font-family="Jefferson"
    font-weight="400"
    font-stretch="normal"
    units-per-em="1000"
    panose-1="0 0 0 0 0 0 0 0 0 0"
    ascent="800"
    descent="-200"
    x-height="93"
    cap-height="766"
    bbox="-790 -656 1890 815"
    underline-thickness="20"
    underline-position="-123"
    unicode-range="U+0020-007D"
  />
<missing-glyph horiz-adv-x="800" 
d="M50 0v800h700v-800h-700zM700 50v700h-600v-700h600z" />
    <glyph glyph-name=".notdef" horiz-adv-x="800" 
d="M50 0v800h700v-800h-700zM700 50v700h-600v-700h600z" />
    <glyph glyph-name=".null" horiz-adv-x="0" 
 />
    <glyph glyph-name="nonmarkingreturn" horiz-adv-x="500" 
 />
    <glyph glyph-name="space" unicode=" " horiz-adv-x="500" 
 />
    <glyph glyph-name="quotedbl" unicode="&#x22;" horiz-adv-x="231" 
d="M210 756q0 -21 -15 -30t-15 -27q0 -25 -3 -34q-6 -17 -22 -17q-10 0 -14.5 5.5t-4.5 13.5q7 12 12.5 23t5.5 26q0 8 -3 15t-3 9q0 10 7 13t7 8q0 3 -4 6t-4 6q0 7 7 9t16 2q14 0 23.5 -7.5t9.5 -20.5zM102 665q0 -21 -12 -21t-22 25t-21 72q-1 5 -6 16.5t-5 19.5
q0 10 8.5 14.5t18.5 4.5q13 0 26 -6.5t13 -18.5q0 -7 -8 -19t-8 -21q0 -5 4 -11q12 -17 12 -55z" />
    <glyph glyph-name="quotesingle" unicode="'" horiz-adv-x="168" 
d="M140 686q0 -27 -6 -45l-12 -36q-3 -17 -5 -27t-12 -10q-4 0 -8.5 6.5t-4.5 11.5q4 11 6 28t2 41q0 34 -14 52t-14 24q0 9 8 14t16 5q30 0 39 -19q5 -11 5 -45z" />
    <glyph glyph-name="parenleft" unicode="(" horiz-adv-x="182" 
d="M247 -191h-19q-12 5 -50 56t-48 73q-19 41 -29 74t-19 68q-11 35 -27 91q-7 25 -12.5 44t-8 51t-4 48t-8 27t-6.5 23q0 19 17 101t35 114.5t27 47.5q21 34 44 61q27 30 55 61q29 29 39 29q13 0 13 -13q0 -15 -20 -32q-50 -42 -52.5 -50t-22.5 -41q-16 -26 -31 -52
q-37 -61 -47.5 -94t-10.5 -89l2 -77q1 -6 8 -21q3 -6 5 -14.5t3 -20t1 -23.5q-2 -25 -2 -36q0 -8 2 -17.5t7.5 -20.5t11.5 -21q0 -6 -5 -10t-5 -6q0 -5 10 -11l12 -6q1 -9 2.5 -24t9.5 -38t16 -43.5t13 -42.5q10 -42 38 -91.5t56 -74.5z" />
    <glyph glyph-name="parenright" unicode=")" horiz-adv-x="175" 
d="M145 223q-6 -45 -11 -72q-15 -84 -35 -142q-6 -17 -12.5 -25.5t-12.5 -16.5q-11 -36 -21 -72q-13 -37 -46 -57q-10 -8 -14 -12q-15 -12 -19 -12q-5 0 -11.5 7.5t-6.5 12.5q0 4 27 29t31 35q1 9 2 17q20 35 26 46t9.5 46.5t24.5 95.5t21 75v64q0 27 9.5 49.5t9.5 68.5
q0 8 -3 29q-10 67 -20 135q-1 8 -6 21t-11 29q-2 10 -17.5 42.5t-32.5 65.5q-21 39 -45 64q-19 19 -39 38q3 5 5 7q6 7 9 7t8.5 -4t9.5 -8q78 -67 88 -90q18 -50 39 -104q15 -38 27 -91q17 -74 17 -132v-146z" />
    <glyph glyph-name="plus" unicode="+" horiz-adv-x="259" 
d="M244 305q-11 -6 -40 -16t-41 -7q-7 -47 -10.5 -73.5t-12.5 -26.5q-6 0 -13 17t-7 40q0 14 5 34q-10 5 -26 5q-5 0 -15 -3t-24 -3q-36 0 -36 23q0 20 22 20q15 -2 17 -2h56q7 10 7 25q0 11 -2.5 29.5t-2.5 19.5q0 17 13 17q16 0 23 -13.5t7 -34.5q0 -19 -5 -37q7 -3 16 -4
t10 -1q18 1 27 1q18 0 32 -10z" />
    <glyph glyph-name="comma" unicode="," horiz-adv-x="160" 
d="M60 -125q0 -23 8.5 -29.5t6.5 -10.5q-4 -21 -6 -33q-5 -24 -14 -27t-11.5 -13.5t-3.5 -21.5q0 -25 15 -25q6 0 22 26q6 10 18 34q1 2 11 32t15.5 41t5.5 44q0 20 -7 23q-16 6 -23 8q-14 5 -17 2q-6 -5 -12 -11q-8 -13 -8 -39z" />
    <glyph glyph-name="hyphen" unicode="-" horiz-adv-x="161" 
d="M198 295q0 -12 -13 -16.5t-30 -4.5h-9q-14 0 -23 4t-19 4l-94 -10q-36 0 -36 23q0 10 4 15.5t17 5.5q6 0 9.5 -0.5t6.5 -2.5l6 3q9 4 17 4t13.5 -2.5t11.5 -4.5q2 0 20.5 2t28.5 2q19 -2 30 -2q13 1 22 1q19 0 28.5 -4t9.5 -17z" />
    <glyph glyph-name="period" unicode="." horiz-adv-x="190" 
d="M75 -95q11 7 26 7q34 0 44 -27q3 -9 3 -16q0 -23 -23 -39q-16 -11 -33 -11q-16 0 -28 11q-4 3 -8 11.5t-4 19.5q0 30 23 44z" />
    <glyph glyph-name="semicolon" unicode=";" horiz-adv-x="224" 
d="M150 531q0 -16 -5 -30.5t-18 -14.5q-8 0 -20.5 16t-12.5 31q7 10 11 15q13 16 18 16q11 0 19 -9t8 -24zM166 38q0 -19 -13.5 -44.5t-24.5 -34.5h-6l-2 6q0 11 5 25.5t11 31.5q0 22 -16 33t-16 24q0 8 9.5 24.5t21.5 16.5q17 0 24 -27t7 -55z" />
    <glyph glyph-name="A" unicode="A" horiz-adv-x="1460" 
d="M1654 626q0 -19 -211 -223q-106 -95 -166 -150q-66 -60 -85 -82q21 -17 29 -22q13 -9 27 -9q8 0 68.5 13t94.5 24q-14 -13 -45 -20t-61 -24q13 -4 21 -6.5t29 -5.5q-34 -5 -51 -6t-37 -1q-14 0 -26 1t-17 0l18 -13q-27 -16 -47 -21t-39 -5q-40 0 -59 -9q-39 -19 -105 -90
q-9 -10 -130 -114q-14 -14 -27 -28q4 2 5 4t2 2q-13 -1 -25 -3q-65 -16 -66 -16q-16 0 -22.5 7t-6.5 17q0 19 64 73q60 49 121 97q65 54 65 71q0 19 -56.5 42t-111.5 23q-49 0 -82 -29q-56 -49 -132.5 -83.5t-139.5 -74.5q-20 -13 -46 -32q4 -3 5 -5q5 -6 7 -14
q-69 -16 -112 -49q-26 -20 -129 -20q-77 0 -111 19q-18 10 -11 20q-3 9 -27 41q-10 13 -10 24q0 16 22 43.5t40 34.5q14 -19 14 -28q0 -2 -4 -13t-4 -24q0 -32 41 -58q13 -8 41 -20q71 0 161 42q66 32 133 63q16 6 38 24l62 52q17 10 43 21q56 22 63.5 28.5t21.5 32t35 36.5
q11 6 82 32q23 8 68 25q25 31 60 54t72 27l5 25q0 32 -44 56q-37 20 -90 20q-139 0 -178 -35q-35 -36 -69 -72q5 -13 12 -41.5t19 -58.5h-18q-19 22 -32 31.5t-13 13.5q1 15 1 33q0 57 68 108q86 65 231 65q36 0 84 -19q47 -22 95 -43q29 0 145 76q104 70 208 141
q115 77 138 77q14 0 47 -21q40 -25 40 -51zM1595 620q-6 12 -13.5 17.5t-7.5 9.5h-19q-26 -28 -73 -46q-82 -31 -107 -44q-80 -42 -170 -123q-19 -17 -37 -23q-5 -1 -13 -2q-15 -10 -23 -43.5t-27 -44.5h-20q-33 0 -58 -6q-43 -10 -79 -38q-1 -1 -4 -13.5t-8 -17.5
q-16 -3 -30 -7q-28 -8 -28 -23q0 -23 14 -36q24 -22 87 -22q78 0 100 37q13 21 13 89h38q1 -2 3.5 -6t8.5 -26l43 -7q9 16 117 115q66 61 192 171q50 44 101 89z" />
    <glyph glyph-name="B" unicode="B" horiz-adv-x="1430" 
d="M1034 563q0 -24 -42 -66q-69 -69 -82.5 -87t-67.5 -61q-62 -50 -86 -56q-102 -46 -185 -74.5t-143 -28.5q-12 -1 -14 -1t-5 2q-9 5 -17 11l-6 12q58 16 111.5 31t94 34t122.5 69q99 60 166 126q38 42 76 85q28 31 57 31q10 0 15.5 -8.5t5.5 -18.5zM1430 561
q0 -75 -53 -139q-14 -17 -99 -94q-54 -49 -54 -84q19 -22 33.5 -53.5t14.5 -79.5q0 -88 -118 -200q-110 -104 -167 -104h-122q-17 0 -39 20t-22 35q4 11 8 19q13 23 41 48q2 -4 15 -57q5 -22 40 -22q58 0 169 98q121 107 121 191q0 50 -10.5 66.5t-28.5 16.5q-15 -2 -21 -2
q-46 0 -68 -17q-29 -22 -47 -25q-185 -30 -239 -64q-48 -49 -95 -88q-81 -67 -141 -108q-89 -61 -163 -91q-92 -37 -180 -37q-73 0 -130 40q-17 12 -79 74q-6 6 -6 10t21 17q12 8 15.5 16t3.5 14t-2.5 17.5t-2.5 16.5q0 8 2.5 13.5t19 18.5t17.5 17q21 59 61 81q31 17 90 17
q33 0 59 -16.5t26 -47.5q0 -56 -97 -112t-97 -89q0 -16 9.5 -21.5t32.5 -5.5q49 0 63 10q24 17 37 20.5t52.5 6.5t54.5 11q38 21 128 88q73 55 154 118q38 30 77 61q57 33 180 140q167 144 204 174q111 89 162 99q8 -11 12 -24l-267 -225q12 -22 22.5 -28.5t27.5 -6.5h25
q50 0 101 39q47 35 97 106q5 6 38 38q46 44 46 123q0 41 -13.5 53.5t-39.5 12.5q-22 -1 -33 -1q-16 0 -28 4q-10 10 -16 13q-10 6 -57 6q-42 0 -72 -7q-73 -17 -93 -17q-10 2 -19 2q-35 3 -65 3q-3 11 -6 13q10 6 103 30t115 24q98 0 185 -41q107 -51 107 -134zM793 645
q-21 -34 -98 -68q-147 -65 -156 -70q-101 -52 -165 -123q-26 -28 -39 -48.5t-13 -38.5q0 -23 21 -53v-18h-18q-21 21 -38.5 35.5t-17.5 19.5q1 9 1 19q0 23 69 99t101 94q15 3 33.5 6t21.5 6q69 54 160.5 100.5t118.5 46.5q7 0 11 -2t8 -5zM1011 232v18q-7 3 -14.5 0
t-12.5 0l-24 -4q-2 -8 -9 -10t-7 -7q5 -9 6 -15l30 8q19 8 24 9t7 1zM184 71q-4 9 -5 15h-36q-24 -16 -43 -42q-15 -22 -30 -43v-18q9 -3 14.5 -7t6.5 -4q31 13 46 23q47 32 47 76z" />
    <glyph glyph-name="C" unicode="C" 
d="M1154 643q0 -83 -130 -161q-93 -56 -246 -105q-73 -21 -148 -42.5t-131 -25t-235 -148.5q-54 -43 -94 -88.5t-40 -65.5q7 -11 12 -16q17 -17 33 -17q12 0 75.5 46.5t125.5 92.5q74 55 100 66q58 25 141 72q98 55 161 55q51 0 74.5 -17t23.5 -61q0 -15 -24.5 -46
t-66.5 -70q-19 -18 -121 -82q-118 -75 -156 -82t-72 -19q-62 -22 -71 -23.5t-24.5 -2.5t-26.5 -1q-21 0 -50 3t-35 3t-14 -2q-29 -25 -44 -38q-47 -41 -65 -59h-24q-3 23 -3 32q0 10 4.5 17t4.5 21q0 12 -58 73q-28 30 -28 55q0 40 57 97q6 6 115 101q68 59 84 95
q-69 3 -102 4q-104 4 -104 38l6 37h78q21 -17 80.5 -30t119.5 -13q18 0 93 49.5t149 99.5q87 58 116 70q1 0 91.5 46t152.5 72q94 39 134 39q49 0 68 -23q14 -17 14 -46zM1076 616q0 12 -9.5 18t-21.5 6q-74 0 -202 -64q-135 -78 -270 -155v-24q16 -5 27 -5h24q55 0 156 36
q33 12 90 36q84 46 142 88q64 46 64 64zM796 213q0 6 -4 15t-19 30q-53 -21 -106 -41q-114 -48 -204 -103q-124 -76 -175 -153q4 0 11.5 -2t18.5 -5q50 23 93 30q35 4 54.5 6t34.5 18t24 19q3 1 24.5 0t24.5 0q3 2 16 21q7 11 14 16q64 34 96 54q97 61 97 95z" />
    <glyph glyph-name="D" unicode="D" horiz-adv-x="1230" 
d="M1236 544l-5 -11q-32 15 -124 66q-74 42 -134 60q-88 27 -195 27q-104 0 -187 -12t-171 -46q-13 -5 -30 -5q-6 0 -17 1t-15 1q-9 0 -12 -2q-36 -22 -56 -34q-63 -39 -92 -61q-47 -36 -83 -87q-49 -69 -49 -97q0 -26 22 -45q60 -53 63 -61h-48q-40 22 -70.5 54.5
t-30.5 51.5q0 24 28 75q43 79 122 141q109 86 273 131q11 3 30 5t52 2h33q29 0 38 4q37 19 46.5 23t30.5 4t43 -0.5t45 -0.5h36.5t32.5 1q45 0 100 -18q64 -23 129 -46q46 -15 93 -29q92 -39 102 -92zM1431 454q-7 -1 -12.5 -1h-7.5q-17 0 -24 2t-12 5q-34 0 -43 -55
t-33 -114q-4 -10 -20 -36q-43 -69 -106 -127q-110 -102 -190 -153q-69 -42 -137 -85h-52q-2 6 -6 11q8 9 86 48q91 46 157 94q100 74 168 169q22 28 45 57q24 36 24 80q0 28 -3.5 37.5t-15.5 9.5q-28 0 -88 -45q-1 -1 -128 -105q-89 -73 -160 -118l-190 -143
q-15 -12 -98 -67q-39 -26 -39 -48q0 -12 11 -32q-9 -5 -124.5 -18.5t-123.5 -13.5h-163q-12 19 -12 30q0 44 47 82q52 42 122 42q41 0 76 -8l58 -18q12 0 83 39q83 46 165 99q106 69 188 135q16 13 75 56q129 94 214 144q47 26 94 53q3 2 12 52h26q13 -16 23 -21.5t21 -5.5
q4 0 18.5 3.5t23.5 3.5q12 0 23.5 -4.5t27.5 -17.5v-16zM878 431q0 -60 -90 -117q-73 -46 -183 -79q-93 -28 -143 -28h-222q-26 0 -38 6.5t-25 24.5q192 0 252 3t91 13q80 25 161 51q139 57 139 126q0 19 -31 42q-26 19 -62 19q-17 0 -93 -22q-86 -27 -172 -53
q-46 -10 -114 -38q-84 -35 -108 -62h-15q-6 10 -11 21q0 31 72 63q90 32 181 64q26 19 118 36t155 17q54 0 96 -27t42 -60zM746 -125l-10 -18q-3 -3 -9 -3h-15q-9 0 -17.5 2t-16.5 3q6 13 13 25q5 6 20 6q12 0 21 -5q9 -7 14 -10zM662 -146l-2 -12q-5 -14 -30 -14
q-9 0 -26 5q8 7 17.5 12t19.5 9h21zM346 -93q0 3 -2.5 4.5t-3.5 5.5h-79q-30 -22 -51 -40q-3 -3 -8 -7q0 -8 8 -22t20 -14q18 0 67 29.5t49 43.5z" />
    <glyph glyph-name="E" unicode="E" 
d="M1186 645q0 -41 -16 -58q-5 -6 -31 -17q-4 10 -5 19t-1 21v18q0 29 -10 39q-15 15 -63 15q-49 0 -109.5 -25.5t-121.5 -75.5l-66 -46q-29 -25 -29 -43q0 -27 66 -33t66 -38q0 -21 -40 -55q-44 -38 -81 -38q-18 0 -76 21q-30 11 -58 11q-43 0 -95 -22q-83 -35 -187 -125
q-73 -62 -149 -154q-62 -75 -62 -107q0 -12 12.5 -31t24.5 -19t51 36q113 105 234 175l124 72q97 49 165 49q79 0 79 -66q0 -25 -22 -60q-30 -47 -90 -98q-76 -64 -188 -123q-83 -43 -198 -64q-84 -15 -165 -15q-24 0 -33 11q-13 16 -25 31l-64 52q-25 30 -25 64
q0 63 65 127q43 42 151 114q76 50 106 69q55 34 95 52q49 21 95.5 27t93.5 63q136 163 162 179q121 73 183 98q73 29 128 29q23 0 61 -20q48 -26 48 -59zM777 402q-6 5 -11 11q-6 5 -13 5q-9 0 -24 -11q18 -6 30 -6q10 1 18 1zM729 171q-3 -3 -6 -4.5t-4 -1.5q0 27 -24 27
q-55 0 -156 -59l-94 -62q-68 -35 -134 -103q-55 -57 -66 -87q17 -7 28.5 -9t23.5 -2q9 0 14.5 1t9.5 1q56 0 148 49q30 16 81 50q83 53 135 109q43 47 43 68z" />
    <glyph glyph-name="F" unicode="F" horiz-adv-x="1410" 
d="M1650 617q0 -15 -13 -20.5t-36 -5.5q-15 0 -31.5 2t-32.5 5q-19 -8 -49 -14.5t-72 -6.5h-90q-85 0 -175 -81l-82 -76q-34 -21 -76 -50q-48 -34 -117 -93q-5 -5 -31 -17q-18 -9 -23 -25q10 -5 14 -5q5 2 10 2q34 6 99 6q9 3 18 4q62 13 148 24l106 6q41 0 41 -33
q0 -19 -21.5 -45t-52.5 -46q-15 -10 -37.5 -52t-34.5 -42q-6 2 -8 3q-8 4 -8 9q0 25 56 88q28 31 56 63q0 16 -9.5 22.5t-23.5 6.5q-13 0 -89 -18q-181 -43 -202 -46q-127 -19 -163 -35q-62 -27 -117 -80q-88 -86 -115.5 -95.5t-35.5 -13.5q-19 -10 -46 -27q-18 -11 -30 -15
q-32 -11 -48 -22.5t-30 -22.5q-75 -16 -115 -24q-124 -25 -146 -25q-8 3 -14 5q-12 5 -25 13v70q0 17 23 42q32 34 95 68q2 1 11.5 13t10.5 12q8 5 17 5h17l44 34q2 1 22.5 5.5t28.5 8.5q34 18 82 34t218 67q2 1 76 17.5t78 18.5l123 104q3 0 29 15q45 25 94 61
q72 51 165 131v11q-26 0 -135 -14t-134 -14q-7 0 -18 4.5t-17 4.5q-54 0 -114.5 -42t-60.5 -84q0 -5 -19 -16.5t-29 -11.5q-2 0 -14 -17t-29 -17q-10 0 -18.5 8.5t-8.5 14.5l29 44q3 3 14 3.5t18.5 5t22.5 24.5t24 27.5t9 16.5q0 11 1 13.5t34 35.5l34 34q4 1 10 -3.5
t9 -4.5h168q49 7 99 15q92 13 223 28t188 15h89q25 6 39 8q48 9 71 9q11 0 21.5 -7t10.5 -20zM668 174v8l-16 3q-9 -7 -89 -33l-80 -26l-72 -28q-22 -8 -40 -8q-20 0 -65 -15t-77 -33q-5 -3 -19.5 -17t-22.5 -19l-54 -20q-6 -12 -10 -17q-12 -17 -23 -17q-8 0 -19.5 -24.5
t-11.5 -31.5q-15 0 -15 -16q0 -6 3.5 -11.5t5.5 -14.5h62q61 21 123 42q9 5 86 52q65 40 80.5 44.5t70.5 44.5q48 35 57 44q19 18 48 34q19 9 39 19q3 2 8 17t31 23z" />
    <glyph glyph-name="G" unicode="G" horiz-adv-x="685" 
d="M982 488q0 -25 -23 -46q-14 -12 -27 -24q-38 -38 -63 -50q-22 -5 -43 -9q-94 -55 -180 -76q-63 -12 -126 -23q-67 -15 -129 -58q-7 -5 -37 -43t-30 -45q0 -9 25 -25q17 -11 31 -11q16 0 29 6t29 6q59 0 155.5 49t165.5 114h24q1 -5 3 -9q0 -17 -53 -43.5t-60 -37.5
q-16 -26 -41 -45q-37 -27 -73 -53q-21 -22 -122 -109q-51 -43 -101 -87q-65 -54 -97 -78q-93 -69 -177 -109q-118 -56 -215 -56h-30.5t-27.5 -1q-35 0 -35 25q0 9 55 67q63 66 105.5 88.5t85.5 43.5q75 37 104 48q9 3 33 16t50 27q82 27 165 53q99 35 141 64q-3 5 -5 10
q-6 7 -18 7q-19 0 -48 -10t-53 -10q-34 0 -63.5 18t-29.5 44q0 27 23 54t23 40q0 6 -2.5 13.5t-7.5 14.5q9 7 19 9.5t26 2.5h22q13 0 16 3l219 157q5 4 70 37q73 38 137 65q85 36 115 36q20 0 33 -18t13 -42zM954 497q0 11 -3.5 17t-14.5 6q-31 0 -71 -11q-18 -5 -59 -20
q-14 -5 -44 -26t-38 -25q-59 -25 -140 -88q-26 -20 -68 -57q8 -3 15.5 -5t17.5 -2q31 0 116.5 27t105.5 42q24 8 49 16.5t49 23.5q5 3 20 21l15 18q14 7 28 15q22 17 22 48zM344 -41q-13 5 -20 5q-13 0 -76 -28.5t-123 -57.5q-70 -33 -83 -36q-64 -15 -150.5 -84.5
t-96.5 -108.5q10 -3 19 -7q37 0 113 46q91 56 166 95q57 30 124 76q82 56 127 100z" />
    <glyph glyph-name="H" unicode="H" horiz-adv-x="1495" 
d="M1101 590q-67 0 -105 -6q-25 -7 -50 -13q-42 0 -70.5 5.5t-57.5 12.5q-20 0 -54 -32l-141 -141h-19q-1 2 -7.5 6.5t-6.5 13.5q0 14 21 30q74 56 102 92q34 43 50.5 92.5t26.5 49.5q16 0 72 -62q26 -29 58 -29q50 0 92.5 -3.5t88.5 -15.5zM1772 594q0 -28 -43 -73
q-54 -56 -143 -109q-107 -64 -266 -125h-52q105 38 196 80q100 46 159 107q22 17 42 35q41 36 41 46t-15.5 22.5t-25.5 12.5q-55 -22 -86 -36q-94 -43 -136 -80q-56 -49 -120 -75q-93 -38 -93 -53q6 -12 9 -20q12 -28 16 -46q-85 0 -142 -29q-39 -20 -116 -87
q-51 -43 -111 -104q-102 -103 -102 -141q0 -18 14.5 -31.5t27.5 -13.5q10 0 102 63.5t160 116.5q84 66 151 106q53 31 107 62h38q-30 -28 -92 -63q-60 -30 -120 -59q-84 -68 -127 -105l-48 -44q-26 -9 -38 -17q-39 -25 -39 -60q0 -25 26 -30q11 -2 29 -2q11 0 66 21
q129 49 195 101q57 43 115 87q103 85 103 120q0 20 -10.5 36t-26.5 28q2 1 19 10t25 9q21 0 40 -18t19 -42q0 -9 -47 -65q-60 -72 -121 -125q-85 -74 -168 -111q-51 -23 -138 -55q-62 -23 -96 -43h-100q-50 12 -84 52t-34 82q0 31 63 98q68 72 137 144q0 13 -13.5 32
t-24.5 19q-7 -5 -11 -7q-16 -9 -24 -11t-35 -4t-53 -4q-14 -7 -81 -61q-85 -70 -170 -139q-17 -12 -43 -17.5t-28 -7.5q-106 -73 -168 -96q-81 -8 -142 -27h-19q20 22 56 33q100 29 131 51l56 44l110 86q70 55 73 57q-14 26 -18 28q-9 5 -29 5q-19 0 -39 -12
q-55 -34 -56 -34q-5 -1 -19.5 0t-20.5 1q-25 0 -49.5 -6t-59.5 -27q-89 -52 -145 -101.5t-56 -79.5q0 -17 16 -33q5 -5 17 -12q-11 -7 -16 -9.5t-16 -2.5q-27 0 -43 14t-16 37q0 38 28 69t96 73q130 80 248 113q41 11 180 32q98 15 165 48q23 12 105 76q73 59 147 118
q80 63 103 77q50 30 67 53q12 16 12 36v11q0 15 8 23q13 13 49 26q42 4 68 7q48 6 125 57h20v-26q-64 -20 -124 -63q-87 -62 -173 -124q-5 -3 -62 -52q-69 -60 -111 -103q-59 -60 -59 -80q0 -13 19 -20.5t38 -7.5q47 0 124 43q47 27 140 91.5t130 83.5l116 78q88 41 166 70
q85 32 106 46h38l5 -20t2 -13v-15z" />
    <glyph glyph-name="I" unicode="I" horiz-adv-x="690" 
d="M962 726q-6 -24 -47 -65q-70 -69 -105 -111q-70 -83 -73 -85q-13 -13 -35 -39q-32 -38 -34 -48q-13 -20 -22 -34q-54 -79 -103 -134q-4 -4 -44 -57q-48 -64 -71 -97q-20 -22 -33 -35q-41 -42 -79 -69l-52 -50q-14 -11 -61 -28q-59 -21 -103 -21q-10 0 -24 2
q-55 12 -55 54q0 5 2 21q9 38 95 123q61 60 128 95l16 -4l1 -10q-2 -14 -29.5 -57t-44.5 -59l-18 4l1 12q10 9 24.5 31t22.5 40q-15 -10 -33 -24q-22 -18 -58 -51q-5 -3 -41 -48t-37 -49q-4 -8 8 -28q7 -12 16.5 -14t17.5 -2q59 0 149 72q82 75 87 79q24 19 102 103
q86 93 109 129q13 21 88 115q82 103 96 113q7 4 26 30.5t40 54.5q6 5 18.5 13t20 18.5t22 22.5t28.5 23l57 61q2 6 -6 8q-6 2 -27.5 -10t-26.5 -15q-13 -8 -20 -8.5t-12 -5.5l-30 -27q-31 -29 -33 -33q-8 -9 -13 -15q-16 -20 -23 -38l-9 32q6 13 12 22q18 26 55 65l31 15.5
t67 36.5q3 2 21.5 6.5t31.5 9.5q4 -11 7 -21.5t2 -18.5z" />
    <glyph glyph-name="J" unicode="J" horiz-adv-x="1211" 
d="M1728 487q-5 -6 -42 -23t-75 -34q-6 -5 -7 -15.5t-45 -30.5q-6 -2 -66 -46q-68 -49 -96 -74q-8 -7 -54 -43q-96 -75 -108 -81q-27 -14 -56.5 -42t-57.5 -55q-14 -12 -23 -20q-19 -17 -19 -21q0 -13 11 -16t31 -3q30 0 49 6t27 6q9 0 33 12q31 15 57 36v-23
q-35 -35 -71 -43q-22 -2 -43 -5q-64 -16 -122 -23q-24 -3 -50 -22q-46 -34 -125 -106q-30 -28 -131 -122q-63 -61 -117 -100q-76 -45 -103 -65q-89 -61 -173.5 -94t-150.5 -33q-72 0 -114 16q-59 23 -59 73q0 40 27 74l46.5 46.5t63.5 51.5t58 39l34 18q46 24 100 48
q76 34 158 66l58 33q1 1 78 20.5t152 43.5q23 7 102.5 18.5t173.5 105.5q22 22 65 57q47 38 59 50q33 22 61 42q57 41 57 56q0 8 -12 17q-26 20 -26 44q0 32 36 58q39 21 43.5 24t11.5 17t107 53q14 5 36 6.5t26 2.5q8 5 13 8t13 9l146 5q8 -4 13 -5v-17zM1609 460
q0 15 -20 15q-8 0 -70 -16q-20 -5 -61 -16q-8 -13 -15 -17q-66 -29 -100 -62q-11 -11 -22 -28q0 -11 14 -23.5t20 -12.5q23 0 63 27q33 23 67 47q4 2 13 3t13 3l35 40q20 9 34 16q29 14 29 24zM899 -84l-1 7l-43 5q-12 0 -95 -24t-109 -36q-62 -29 -139 -52q-53 -16 -69 -30
q-38 -16 -88.5 -38.5t-119.5 -64.5q-176 -109 -176 -156q0 -26 24 -50t58 -24q20 0 38 8q6 2 14 9q17 3 29 3q3 0 11.5 -1t9.5 0q72 18 188 90q59 40 119 79q4 2 16 4t20 9q32 30 86 70q43 32 57.5 48.5t32.5 27.5t39 22q17 14 57 53z" />
    <glyph glyph-name="K" unicode="K" horiz-adv-x="1495" 
d="M1125 605q-162 -34 -179 -34q-52 0 -83 11q-14 5 -28 11q-6 0 -53 -53q-43 -48 -109 -114h-19q-1 2 -7.5 6.5t-6.5 13.5q0 14 21 30q74 56 102 92q34 43 50.5 92.5t26.5 49.5q24 0 34 -50.5t46 -50.5q22 0 66 2.5t56 2.5q16 0 35 -0.5t48 -8.5zM975 -158h22.5t34.5 -1
q106 0 187 9q121 13 161 45l86 60q34 35 34 75q0 34 -18 41q-15 4 -30 9q2 1 19 10t25 9q21 0 40 -18t19 -42q0 -51 -50 -110t-140 -99q-49 -22 -106.5 -30t-132.5 -8q-42 0 -108 1.5t-68 1.5h-100q-50 12 -84 52t-34 82q0 31 63 98q68 72 137 144q0 8 -24 8q-11 0 -25 -1.5
t-29 -2.5q-4 21 -6 30q-9 29 -22 26q-5 -1 -30 -18q-8 -5 -25 -17q-14 -7 -81 -61q-85 -70 -170 -139q-17 -12 -43 -17.5t-28 -7.5q-153 -105 -212 -115t-77 -16l-65 10q21 23 95.5 37.5t116.5 44.5q73 33 110 56q113 69 129 131q-7 11 -13 11q-3 0 -16 -2.5t-22 -2.5
q-27 0 -48.5 -6.5t-42.5 -12.5q-52 -13 -134 -45q-69 -27 -112 -52.5t-61 -40.5q-43 -37 -43 -75q0 -17 16 -33q5 -5 17 -12q-11 -7 -16 -9.5t-16 -2.5q-27 0 -43 14t-16 37q0 38 28 69t96 73q130 80 248 113q41 11 180 32q98 15 165 48q23 12 105 76q73 59 147 118
q80 63 103 77q50 30 67 53q12 16 12 36v11q0 15 8 23q13 13 49 26q42 4 68 7q48 6 125 57h20v-26q-64 -20 -124 -63q-87 -62 -173 -124q-5 -3 -62 -52q-69 -60 -111 -103q-59 -60 -59 -80q0 -13 19 -20.5t38 -7.5q66 0 152 48.5t168 96.5q13 7 141 100q54 39 79 51
q49 23 181 81q28 12 61 35h38l5 -20t2 -13v-15q0 -41 -40 -75q-4 -3 -102 -79l-80 -20q7 7 11 7q4 -5 10 -5q8 0 25 13q21 16 64 60q16 16 23 24q23 26 23 36t-14 15t-27 5q-45 -16 -71 -28q-78 -36 -121 -73q-71 -62 -132 -110q-21 -16 -41 -34l-330 -140q7 0 14 -0.5
t7 -7.5q0 -9 -15 -25.5t-31 -31.5q-58 -49 -113 -117q-48 -59 -48 -89q0 -18 14.5 -31.5t27.5 -13.5q5 -19 50 -27q30 -5 77 -5h22z" />
    <glyph glyph-name="L" unicode="L" 
d="M1784 671q0 -10 -18 -47.5t-24 -44.5q-10 -11 -122 -85.5t-131 -79.5q-142 -56 -227 -88q-94 -36 -115 -36q-103 0 -176.5 -29.5t-177.5 -117.5q-37 -32 -73 -64q-28 -20 -157 -90q-29 -14 -58 -29q-25 -18 -25 -38q0 -64 86 -95q26 -9 80 -20l-101 -17q-59 12 -139 87
q-31 29 -81 29h-18t-27 -3.5t-56 -27.5q-31 -21 -83 -21q-59 0 -104 44q-41 40 -41 86q0 33 48.5 72.5t81.5 39.5q68 0 146 -41t111 -41q39 0 125 39q113 51 226 143q-24 15 -62 19.5t-95 4.5h-58q-139 0 -183 33.5t-44 101.5q0 44 14.5 74.5t50.5 49.5q5 -7 11 -15.5
t6 -22.5q0 -13 -12 -32t-12 -33q0 -55 56 -82q66 -32 259 -32q77 12 116 18q117 19 124 22q38 30 76 61q97 77 155 120q93 68 129 84l194 89q96 59 98 60q33 10 108 10h27q40 0 60 -8q32 -13 32 -47zM1718 659q0 14 -17 20.5t-39 6.5q-47 0 -139 -40q-82 -36 -146 -79
q-103 -66 -167 -109q-122 -82 -122 -96q0 -3 3 -9t3 -10h41q20 21 52.5 25.5t65.5 9.5q26 7 50 23q13 9 27 19q138 41 186 59q77 29 161 129q1 1 26 19q15 11 15 32zM262 -37q-17 43 -49 63q-25 16 -54 16q-31 0 -61 -25.5t-30 -47.5q0 -7 27.5 -26t48.5 -19q26 0 52 8
q43 13 60 16z" />
    <glyph glyph-name="M" unicode="M" horiz-adv-x="1525" 
d="M1890 546q0 -25 -86 -103q-56 -51 -68 -65.5t-71.5 -77t-64.5 -66.5q-12 -10 -23 -20q-40 -35 -74 -67q-67 -63 -130 -126q-35 -34 -69 -68q-28 -33 -28 -48q0 -9 11 -17t25 -8q60 27 105 47q52 23 73 23q13 11 19 15q9 3 19 5q0 -13 -8 -25.5t-24 -12.5
q-46 -48 -114 -84q-76 -40 -148 -40q-34 0 -57 27t-23 64q0 40 108 144q69 66 208 180q125 102 130 108v20q-6 7 -11 7q-25 0 -104 -64.5t-158 -131.5q-103 -86 -160 -122l-86 -58q-104 -68 -184 -109q-115 -59 -170 -59q-27 0 -46 21t-19 38q0 24 67 83.5t137 119.5
q93 80 133 132q-9 9 -12 13q-7 7 -14 7q-14 0 -69 -39q-94 -67 -137 -95q-106 -70 -201 -118q-68 -35 -132 -62q-82 -35 -159 -60.5t-120 -25.5q-61 0 -107 35t-46 81q0 45 35.5 80.5t69.5 35.5q25 0 41 -11.5t16 -33.5q0 -37 -25 -63q-13 -14 -13 -21q0 -15 19.5 -27
t41.5 -12q48 0 192 60t286 136q154 82 237 146q215 165 373 265q91 58 189 107q80 40 123 74h51v-58q-41 -41 -176 -146q-193 -150 -266 -211q-168 -140 -294 -270v-26q18 -5 22 -5q34 0 151 83q75 53 205 159q56 46 113 93q121 93 195 134q54 23 108 47l62 62q44 28 96 28
q12 -1 18 -2q18 -5 18 -22z" />
    <glyph glyph-name="N" unicode="N" horiz-adv-x="940" 
d="M1148 351q0 -31 -107 -124q-92 -80 -141 -109q-67 -39 -114 -75q-79 -61 -122 -125q15 -16 23 -20t25 -4h18q22 0 113.5 39.5t105.5 51.5v-13l-18 -54q-1 -1 -25.5 0t-26.5 1q-14 0 -15 -1q-20 -26 -41 -39q-64 -39 -175 -39q-30 0 -60 9q-46 14 -46 42t56 78
q67 60 199 137q32 19 66 53q60 60 104 98l45 36q46 39 46 49q0 11 -8.5 17.5t-18.5 6.5q-17 0 -180 -81t-272 -143q-24 -13 -60 -41q-5 -3 -125 -99q-67 -53 -245 -193l-68 -28q-29 3 -50 26q-16 17 -16 28t119 93q99 69 130 87q72 42 144 85q43 26 110 85q14 13 113 84
q61 44 87 61q7 5 65 68q32 35 75 72q34 28 75 85q33 45 33 70q0 22 -4.5 27.5t-25.5 5.5q-29 -11 -58 -21q-58 -21 -128 -48q-84 -32 -129 -53q-89 -40 -200 -122q-85 -62 -85 -93q6 -11 10 -16q14 -17 29 -17q64 0 142 43q82 57 165 114q1 -1 9.5 -7t8.5 -10q0 -53 -76 -90
q-6 -3 -106 -38q-32 -29 -77.5 -50.5t-86.5 -21.5q-44 0 -70 17.5t-26 51.5q0 64 136 164q107 79 197 118q151 64 176 74q151 59 202 59q38 0 51 -39q8 -25 8 -78q0 -23 -30 -64q-34 -46 -68 -91q0 -18 33 -18q20 0 49.5 13.5t60.5 28.5q22 0 28 -30t12 -37q11 -11 23 -22
t12 -24z" />
    <glyph glyph-name="O" unicode="O" horiz-adv-x="1190" 
d="M1174 345q0 -3 -20 -3t-88 -42q-24 -15 -56 -39q-39 -29 -56 -46q-13 -13 -109.5 -81t-116.5 -80q-104 -64 -164 -99q-111 -64 -197 -104q-107 -49 -157 -49l-147 6q-8 0 -29 24q-26 29 -26 57q0 52 25 97q21 37 64 79q16 16 87 74q45 37 139 95q88 54 130 74
q87 40 130 66q45 36 77 57q16 11 65 29q61 23 66 25q60 34 100 54q77 39 117 39q60 0 84 -38q18 -28 18 -77q0 -14 -1.5 -27t-2.5 -26q0 -40 38 -40q12 0 29 3zM1000 399q0 22 -24 47q-27 28 -61 28q-27 0 -44 -12q-68 -47 -93 -62q-55 -34 -128 -84q-63 -44 -80 -58
q-55 -51 -79 -73q-44 -40 -90 -65q-37 -21 -92 -68q-67 -58 -67 -80q0 -16 13.5 -34t34.5 -18q94 0 226 72q80 44 171 112q110 78 220 157q93 83 93 138z" />
    <glyph glyph-name="P" unicode="P" horiz-adv-x="1290" 
d="M1722 572q0 -25 -26 -74q-34 -63 -85 -114q-67 -66 -158.5 -105t-198.5 -46t-166 -59q-123 -108 -200 -165q-125 -91 -238 -139q-137 -58 -272 -58q-56 0 -112.5 9.5t-109.5 32.5q-3 1 -12 -8q-14 -13 -34 -22q4 12 9 24q12 23 11 24q-59 32 -92 75q-36 47 -36 105
q0 85 65 138q46 37 123 57l74 16q7 5 16 21q30 57 45 79l256 251q3 2 60.5 15t67.5 13q15 10 56 23q49 16 121 27q2 -4 4 -5q6 -5 13 -5q25 6 95 16q101 14 184 22q15 2 33.5 2h28.5q22 0 44 -0.5t44 -0.5q51 0 74.5 6t23.5 28q0 13 -10 30l80 30l50 -25q2 -2 6 -24.5
t5 -23.5q8 6 17 13q7 9 7 45l37 3q0 -12 2 -19.5t9 -19.5q-46 -43 -81 -85q-11 -13 -25 -32q-10 -6 -21 -6q-18 4 -25 4q-4 0 -9 -3l-6 -15q-8 -17 -17 -24q-25 -21 -47 -35q-29 -19 -53 -27q-29 -36 -59.5 -62.5t-57.5 -26.5q-7 0 -11.5 7.5t-4.5 13.5q0 10 74 63
q118 85 159 117q-5 9 -9 18q-4 5 -10 5q-21 0 -152 -87.5t-140 -113.5q-2 -5 4 -25q1 -6 6 -20q0 -40 -58 -49q-87 -14 -102 -23q-27 -17 -54 -33q-59 -35 -119 -67q-128 -68 -192 -90q-77 -26 -171 -26l-176 29q1 -12 1.5 -21t0.5 -14q0 -82 -42 -157q-47 -66 -54 -77
l-29 11q35 64 59.5 118t24.5 92q0 20 -4.5 34t-16.5 29q-12 19 -16 26q-7 12 -25 12q-37 0 -77 -50t-40 -105q0 -105 83 -150q61 -33 170 -33q139 0 270 54q98 40 195 111q58 45 117 90q55 33 111 67q81 65 179 123.5t166 81.5l173 89q79 54 100 113q8 21 17 21q13 0 48 -24
t35 -40zM1539 436l-23 5q-5 -16 -85 -51q-53 -23 -104 -71q7 -3 11 -6q59 16 111 49q63 40 90 74zM1216 658q-15 15 -31 21.5t-36 6.5l-250 -22q-23 -14 -56 -24q-64 -21 -134 -48q-96 -38 -213 -127q-148 -112 -148 -190q0 -52 38 -77q27 -18 58 -18q115 0 296 83
q158 73 225 134q13 12 79 100q33 44 66 89q16 6 40 20q30 18 66 52z" />
    <glyph glyph-name="Q" unicode="Q" horiz-adv-x="1145" 
d="M1120 447q0 -83 -121 -197q-84 -79 -236.5 -180t-153.5 -102q23 -34 126 -61q88 -23 147 -23q24 0 54 1.5t54 1.5q21 0 67 8q16 2 45 9q0 -24 -73.5 -38t-165.5 -14q-91 0 -216 39q-41 13 -107 39q-67 -49 -155 -85q-97 -40 -180 -40h-95q-31 0 -63 19q-37 22 -37 52
q0 58 30 112q36 64 143 153q45 37 139 95q88 54 130 74q58 26 117 53q11 5 96 62q15 10 62 32q60 29 63 30q61 34 101 54q78 39 117 39q55 0 86 -43q26 -37 26 -90zM998 399q0 22 -23 46q-26 27 -60 27q-27 0 -44 -12q-67 -47 -92 -62q-55 -34 -128 -84q-63 -44 -80 -58
q-55 -51 -79 -73q-44 -40 -90 -65q-36 -20 -91 -67q-67 -57 -67 -79q0 -15 13 -32.5t33 -17.5q40 0 84 12q42 15 85 30q-23 12 -30 17q-21 14 -39 33v15q39 16 83.5 30t47.5 16q3 5 6.5 11t12.5 12q0 -12 -0.5 -22.5t-0.5 -18.5q0 -16 3.5 -21.5t24.5 -17.5q19 19 83 61
q152 101 156 104q117 98 118 99q74 66 74 117z" />
    <glyph glyph-name="R" unicode="R" horiz-adv-x="1375" 
d="M1722 572q0 -25 -26 -74q-34 -63 -85 -114q-67 -66 -156 -104q-66 -28 -131 -38l-144 -12q-9 -2 -46 -103q-43 -116 -43 -189q0 -44 17 -69t57 -25q17 0 40 6q-33 -15 -46 -20q-43 -16 -75 -16q-20 0 -33 4.5t-26 16.5q0 98 21 197q27 127 42 142q-123 -108 -200 -165
q-125 -91 -238 -139q-137 -58 -272 -58q-56 0 -112.5 9.5t-109.5 32.5q-3 1 -12 -6t-24 -13q-3 1 4.5 18.5t5.5 18.5q-59 32 -92 75q-36 47 -36 105q0 85 65 138q46 37 123 57l74 16q7 5 32 63q16 37 34 64l225 195q12 6 70 29q71 28 84 28q15 10 56 23q49 16 121 27
q2 -4 4 -5q6 -5 13 -5q25 6 95 16q101 14 184 22q15 2 33.5 2h28.5q22 0 44 -0.5t44 -0.5q51 0 74.5 6t23.5 28q0 13 -10 30l80 30l50 -25q2 -2 6 -24.5t5 -23.5q8 6 17 13q7 9 7 45l37 3q0 -12 2 -19.5t9 -19.5q-46 -43 -81 -85q-11 -13 -25 -32q-10 -6 -21 -6q-18 4 -25 4
q-4 0 -9 -3l-6 -15q-8 -17 -17 -24q-25 -21 -47 -35q-29 -19 -53 -27q-29 -36 -59.5 -62.5t-57.5 -26.5q-7 0 -11.5 7.5t-4.5 13.5q0 10 74 63q118 85 159 117q-5 9 -9 18q-4 5 -10 5q-21 0 -152 -87.5t-140 -113.5q-2 -5 4 -25q1 -6 6 -20q0 -40 -58 -49q-87 -14 -102 -23
q-27 -17 -54 -33q-59 -35 -119 -67q-128 -68 -192 -90q-77 -26 -171 -26l-176 29q1 -12 1.5 -21t0.5 -14q0 -82 -42 -157q-47 -66 -54 -77l-29 11q35 64 59.5 118t24.5 92q0 20 -4.5 34t-16.5 29q-14 15 -17.5 17t-23.5 2q-38 0 -77.5 -41.5t-39.5 -94.5q0 -105 83 -150
q61 -33 170 -33q139 0 270 54q98 40 195 111q58 45 117 90q55 33 111 67q81 65 179 123.5t166 81.5l173 89q79 54 100 113q8 21 17 21q13 0 48 -24t35 -40zM1539 436l-23 5q-5 -16 -85 -51q-53 -23 -104 -71q7 -3 11 -6q59 16 111 49q63 40 90 74zM1216 658q-15 15 -31 21.5
t-36 6.5l-250 -22q-23 -14 -56 -24q-64 -21 -134 -48q-96 -38 -213 -127q-148 -112 -148 -190q0 -52 38 -77q27 -18 58 -18q115 0 296 83q158 73 225 134q13 12 79 100q33 44 66 89q16 6 40 20q30 18 66 52z" />
    <glyph glyph-name="S" unicode="S" horiz-adv-x="1210" 
d="M1654 668q0 -39 -24 -73q-30 -42 -102 -84q-133 -76 -246 -116q-77 -23 -151.5 -45t-126.5 -62q13 -13 63.5 -13t50.5 -33q0 -29 -83.5 -32.5t-98.5 -8.5q-42 -15 -83 -63q-58 -68 -76 -83q-47 -48 -75 -72q-86 -74 -139 -82l-91 -5q-8 -2 -29.5 -12t-37.5 -10
q-19 0 -86 20q-22 6 -64 20q-17 0 -62 -29l-118 -80h-77v23q13 17 136 90q42 25 42 55q-23 28 -40 60q-20 38 -20 80q0 90 78 155q67 56 177 56q6 -7 38.5 -12.5t88.5 -5.5q43 0 125 2t94 2q173 0 261 47q37 20 141.5 120t239.5 166q14 7 73 41q80 46 146 46
q39 0 57.5 -15.5t18.5 -46.5zM1568 639q-4 4 -4 8h-36q-101 -44 -185 -91q-65 -36 -120 -75q-42 -30 -55 -43q16 -4 20 -4q24 0 108 36q75 32 95 45q37 24 114 70q63 38 63 54zM794 229q-4 4 -4 8h-13q-14 -6 -31.5 -8t-40.5 -2q-21 0 -44 1t-45 2q-39 0 -66 -8t-42 -30
q-5 -8 -8 -22t-6 -19q-24 -36 -68 -73q-80 -67 -87 -91q17 -7 28 -10.5t17 -3.5q12 1 23 1q82 0 158 48q28 19 57 38q43 25 111 97q61 65 61 72zM408 201q-4 9 -5 14q-14 0 -19 1t-9 4q-100 0 -141 -31q-36 -27 -36 -80q0 -30 12 -50.5t33 -20.5q22 0 53 30q23 22 39 46
q10 15 44 54q10 12 29 33z" />
    <glyph glyph-name="T" unicode="T" horiz-adv-x="1175" 
d="M1554 687q-8 -10 -9.5 -20t-1.5 -19q1 -18 1 -27q0 -22 -8 -35q-11 -17 -42 -29q-16 -6 -69 -10t-71 -30q-8 5 -15 11q-7 4 -15 4h-115q-12 0 -98 -70q-79 -64 -137 -120l-221 -210q-86 -86 -149 -133q-83 -62 -201 -117q-64 -31 -111 -52.5t-54 -23.5l-123 -31
q-14 -2 -19 -2q-39 0 -67 31q-21 23 -21 37t37 56q45 52 98 85q29 22 40 29q41 27 62 27q12 0 17.5 -4t5.5 -21q0 -29 -88 -79t-88 -75q0 -2 3 -7t3 -11h45q61 17 163 82q80 51 232.5 162t304.5 222q47 51 109 108q72 67 127 107v15q-23 7 -48.5 11t-60.5 4q-78 0 -134 -53
q-84 -80 -168 -147q-18 -15 -129 -67q-123 -58 -156 -58q-4 0 -20.5 5.5t-17.5 5.5q-20 -8 -38 -14t-29 -6q-68 0 -97 26q-23 21 -23 59q0 75 115 153q27 18 150 81q57 31 151.5 53t190.5 22q126 0 142 86q7 40 36 40q16 0 22 -7.5t6 -21.5q0 -9 -4 -31t-4 -32
q0 -12 4.5 -19.5t31 -11t47.5 -5.5q70 -8 75 -8q40 0 196 75q73 35 142 35q42 0 62 -7q6 -2 33 -18zM1484 632q-4 3 -9 9.5t-9 6.5q-41 0 -75 -12t-57 -39q13 -5 19.5 -7t27.5 -2q25 0 47 7q35 11 56 37zM748 537h-20q-5 -3 -18 -3q-41 0 -64 -4q-59 -10 -163 -48
q-28 -11 -114 -64q-74 -46 -86 -56q-8 -7 -9.5 -14.5t-1.5 -19.5q0 -17 10.5 -26.5t22.5 -9.5l93 35q9 3 17 3q9 0 17 -4q2 -1 6 -4q6 1 112 60.5t113 64.5q11 8 49 50q12 13 36 40z" />
    <glyph glyph-name="U" unicode="U" horiz-adv-x="1095" 
d="M1236 483q0 -18 -27 -48q-32 -35 -106 -92q-93 -84 -155 -139q-68 -59 -85 -67q-35 -16 -116 -91q-97 -90 -97 -135q0 -11 13.5 -19t32.5 -8q25 0 118 63q31 21 89 63q4 2 27 3.5t27 3.5l80 68q68 43 173 85v-67q-144 -75 -158 -93q-17 -23 -29 -33q-3 -2 -53 -18
q-42 -13 -100 -36q-29 -22 -58 -41q-58 -39 -82 -39q-1 0 -10.5 3.5t-26.5 3.5q-21 0 -44.5 -8.5t-48.5 -17.5q-38 0 -72 43t-45 43q-64 -29 -97 -43q-100 -43 -113 -43l-43 6v33q13 8 49 16q85 19 151 51q6 3 17 17.5t23 29.5q40 19 107 46q18 7 120 114q57 46 115 92
q145 116 219 174q121 95 132 100h67q2 -11 4 -12.5t2 -7.5zM970 643q0 -35 -46 -84q-38 -40 -143 -125q-205 -166 -249.5 -203t-185.5 -136q-93 -65 -128 -114q-48 -67 -48 -164q-6 -1 -7 -4t-9 -3q-22 0 -58 30q-40 33 -40 64q0 15 79 90q74 68 149 136q80 74 80 84
q0 8 -15 19t-26 11q-28 -13 -54.5 -23.5t-54.5 -10.5q-41 0 -69.5 30.5t-28.5 73.5q0 16 16 67q22 70 65 162q23 -17 31 -42t22 -25q6 0 81 66q43 38 92 61q11 5 89 39q42 18 85 41h33q-9 -19 -45 -51q-12 -10 -35 -29q-10 -5 -23.5 -9.5t-24.5 -4.5q-10 0 -19 1t-13 0
q-13 -5 -74 -61t-79 -66q-50 -28 -84 -58q-57 -50 -57 -94q0 -18 18 -42.5t39 -24.5q17 0 83 35l68 38q12 4 22.5 5.5t13.5 1.5h15q17 0 28 6q20 16 51 38q39 27 76 48q43 45 85 78q47 37 75 42q55 10 98 39q48 33 48 68q0 31 -24 43t-70 12q-22 0 -79 -4t-73 -4
q43 20 97.5 30t98.5 10q62 0 96 -29q28 -24 28 -58z" />
    <glyph glyph-name="V" unicode="V" 
d="M1062 344q1 -12 1 -18q0 -26 -55 -75q-69 -62 -322 -255q-134 -102 -212 -137q-104 -47 -240 -47q-4 0 -17.5 -1t-21.5 -1q-62 0 -99 18q-56 27 -56 95q0 52 124 155l240 192q17 14 94 76q150 119 158 124q34 20 65 44q53 41 53 63t-18 35.5t-37 13.5q-81 0 -182 -51
q-66 -33 -174 -109q-116 -81 -151 -100h-67v37q133 106 207 154q105 68 200 100q105 35 229 35q55 0 96 -29q37 -26 37 -56q0 -41 -90 -122q-54 -49 -175 -140q-105 -79 -119 -97q-24 -30 -125 -104q-117 -86 -163 -126q-82 -72 -82 -114q12 -19 19 -28q22 -28 40 -28
q21 0 32 10q6 6 13 12q31 2 47 2q48 3 58.5 6t77.5 46q81 52 217 146q34 24 104 83q77 66 103 95q49 56 59 141q6 51 70 51q32 0 47 -28t15 -68z" />
    <glyph glyph-name="W" unicode="W" horiz-adv-x="980" 
d="M1166 364q0 -16 -15.5 -29t-43.5 -13q-6 -3 -16 -5.5t-30 -2.5q-13 0 -31 4.5t-21 7.5q-5 -5 -20 -13q-10 -5 -13 -5q-1 -7 -2 -10q-5 -10 -18 -10q-10 0 -10 -16l-52 -60l-40 -31q-4 -13 -9 -17q-16 -7 -23 -11q-24 -12 -27 -17q-12 -15 -20 -26q-17 -22 -20 -24
q-26 -20 -58 -46q-26 -22 -38.5 -29.5t-37.5 -29.5q-8 -7 -23 -21q0 -2 -9 -5.5t-16.5 -10t-10.5 -15t-7 -10.5q-7 0 -13 -1q-19 -16 -30 -23q-35 -23 -59 -23q-13 6 -19 6q-10 0 -10 14q0 9 36 49l36 39q7 4 12 4q11 12 22 23t16 11t22 19q11 12 23 25q6 1 13.5 5.5t16 14
t8.5 19.5q0 7 -1 10q-1 0 -2 1q5 9 8 16q8 16 8 22q0 1 6 9t6 18l-2 11l-16 2q-6 0 -16 -4t-16 -4q-5 -7 -8 -10q-9 -10 -16 -10q-2 0 -5 -5.5t-3 -8.5l-6 2q-20 0 -50 -22t-42 -22q-11 -8 -17 -12q-19 -13 -37 -23q-3 -1 -26 -20q-16 -13 -28 -13q-2 0 -4.5 -4.5t-3.5 -9.5
l-7 6q-19 -15 -39 -29q-35 -25 -45 -25q-7 -4 -17 -4q-4 0 -23 -13q-6 -4 -19 -13q-2 0 -3 -3t1 -12q-34 -25 -50 -37q-51 -39 -52 -44q-6 1 -21 -4.5t-32 -5.5q-18 0 -23.5 4.5t-5.5 20.5q0 26 26 45q14 10 14 19q0 5 14 13t20 8q4 0 8.5 10t6.5 12q14 12 34 22
q29 14 36 19t9 13t8 8q3 0 8 6t14 6q4 0 47.5 36.5t52.5 36.5l-4 7q10 12 15 17q18 18 32 21h7l-4 6q0 5 31 40t31 38t5 4t6 2l16 24t17 12q5 9 7 13q8 13 13 13q7 0 30 21q12 11 20 11q9 0 40 29t25 39q21 5 35 18l22 26q9 0 30 25q12 14 12 21q0 12 -9 15t-9 -3
q-8 0 -15 1q-22 5 -30 5q-25 0 -54 15t-38 15q-8 0 -19 -16t-24 -16q-7 -6 -12 -6q-3 0 -7.5 -12t-4.5 -17l-5 5q-10 -11 -14 -15q-8 -9 -11 -9t-11 -9t-15 -9q-6 -13 -10 -19q-13 -20 -22 -20l-5 -7l-7 -2l-24 -12l-6 6q-6 0 -6 13t-4 21q14 9 27 18q27 19 27 24q8 9 12 14
q11 12 24 23q8 7 10.5 14t5.5 14q6 6 17 13q15 10 22 9l1 22q0 20 -9 27t-9 27l9 52q10 8 18 14q17 13 23 13q7 -2 17.5 -4t22.5 -2l6 -12q4 0 6 -2q14 -12 14 -64q0 -19 8 -33.5t22 -14.5q13 -4 22 -4q7 0 15 -8h62q13 0 29 9q9 5 18 11q2 1 7.5 1h8.5q26 0 32 3
q35 18 72 31q5 1 12 5q5 0 8 7l5 -5q8 7 19 14q2 1 6 4q10 5 19 8.5t16 3.5l42 -13v-7l-15 -15q-16 -15 -20 -15q-13 -16 -21 -24q-25 -24 -47 -24q-8 -7 -16 -13q-33 -14 -51 -33q-14 -18 -27 -35q-34 -21 -50 -32q-50 -34 -50 -43q0 -4 -12 -4q-1 0 -34 -34t-42 -34l-2 -8
l-10 -7q-7 -13 -14.5 -21.5t-15.5 -17.5l-5 2q-10 -16 -13.5 -24t-10.5 -25l7 3l7 -10q32 17 60 34q57 34 57 42q0 6 26 18q4 2 14 6q9 6 18.5 12.5t9.5 11.5l12 2l53 38l24 16q23 16 23 20q4 4 4 8q20 13 32 19q38 19 66 19q9 0 12.5 -5.5t3.5 -14.5q-4 -9 -4 -16
q-18 -20 -28 -29q-33 -30 -55 -26l-7 -26q-5 0 -24.5 -15.5t-19.5 -19.5t-21 -30q-17 -21 -39 -45v-15q9 0 49.5 22t47.5 31q13 16 26 23t14 14t16 21t20 11q2 4 9.5 12.5t7.5 17.5q13 21 21 31q24 31 38 31t26 -13q6 -7 9 -7q3 -6 5 -9q6 -9 11 -9q1 -5 3 -7q12 -17 39 -17
q3 0 10 3t14 3q4 0 11 -17zM565 228v5v-5zM553 618v15q0 8 -3 18l-9 3z" />
    <glyph glyph-name="X" unicode="X" horiz-adv-x="1545" 
d="M1638 629q-52 -28 -103 -55q-93 -51 -156 -93q-91 -60 -148 -117q-65 -64 -129 -127q-90 -90 -141 -151q-67 -79 -67 -107q0 -5 2 -9q6 -13 6 -14q12 -3 25 -6q15 10 30 19q59 36 116 65q94 48 242 116q-18 -12 -99 -72q-26 -19 -134 -100q-71 -53 -83 -60
q-48 -27 -81 -37q-25 -4 -49 -9q-36 -24 -76 -41t-66 -17q-27 0 -46 21t-19 38q0 16 30.5 50.5t86.5 84.5q48 44 75.5 77t33.5 33l40 84q-278 -180 -425 -258q-98 -52 -142.5 -58.5t-59.5 -13.5q-26 -15 -51 -30q-31 -14 -95 -14q-61 0 -107 35t-46 81q0 45 35.5 80.5
t69.5 35.5q25 0 41 -11.5t16 -33.5q0 -37 -25 -63q-13 -14 -13 -21q0 -15 19.5 -27t41.5 -12q29 0 115 30.5t195 81.5q119 56 211 114q84 51 169 102q100 65 145 120q60 75 60 169q0 73 -30 123q-37 61 -105 61q9 4 18.5 8.5t19.5 4.5q67 0 120 -64t53 -138q0 -33 -11 -56
l7 -33q43 33 150 97q55 33 176 103q91 52 107 65h51v-51z" />
    <glyph glyph-name="Y" unicode="Y" horiz-adv-x="1180" 
d="M1342 688q0 -13 -56 -68t-82 -69q-10 -5 -75 -55.5t-82 -67.5q10 -15 18.5 -18t36.5 -3h60q8 -8 8 -10q0 -11 -45.5 -12t-66.5 -4q-23 -8 -38 -13q-43 -16 -80 -36q-64 -55 -97 -83q-99 -86 -109 -100q-3 -4 -48 -41q-29 -24 -59 -55q-5 -6 -50.5 -43t-48.5 -38
q-74 -46 -132 -77q-64 -35 -95 -38l-114 -5q-49 0 -82 9q-57 15 -57 52q0 14 10 44.5t19 48.5q3 5 16.5 12.5t28.5 15.5q35 28 42 31.5t13 7.5t8 11t8.5 8.5t21 5.5t29.5 17q11 9 128 68q28 14 57 23q21 5 42 11q5 4 12.5 12t18 11t27.5 15q11 8 15 9q45 13 101 26
q35 8 38.5 10.5t6 10t3.5 8.5q8 5 33 5q13 0 16 2q39 17 63 24q33 10 62 18q51 15 95 49q47 42 70 61q-10 8 -14 8q-11 0 -16 -8q-1 -2 -2 -8q-30 -2 -68 -3t-79 -1q-18 0 -26.5 10.5t-8.5 26.5q0 14 14 32q10 13 26 27q25 21 51 42q39 35 39 54q0 7 -15.5 10.5t-25.5 3.5
q-39 0 -107 -25q-74 -29 -147 -57q-13 0 -13 12q0 4 23 18t57 27t45 17.5t37 11.5q47 15 94 31q41 11 71 11q36 0 56.5 -12t20.5 -39q0 -20 -49 -56t-49 -47q0 -7 15 -15.5t52 -8.5q52 0 108 24q23 10 67 36q62 48 97.5 75t44.5 27q12 0 12 -14zM762 285q0 11 -21 11
q-13 0 -90.5 -27.5t-80.5 -30.5q-37 -30 -96.5 -46.5t-72.5 -24.5q-67 -41 -102 -60q-43 -23 -58 -31q-79 -45 -87 -52.5t-35 -56.5q-6 -8 -11 -17q0 -14 18 -27t33 -13q21 0 98.5 29.5t85.5 34.5q18 11 30 22q19 17 28 20q20 7 145 102q54 41 79 44q2 20 69.5 67.5
t67.5 55.5z" />
    <glyph glyph-name="Z" unicode="Z" horiz-adv-x="1190" 
d="M1170 397q0 -11 -45.5 -12t-66.5 -4q-23 -8 -38 -13q-43 -16 -80 -36q-64 -55 -97 -83q-99 -86 -109 -100q-3 -4 -48 -41q-29 -24 -59 -55q-5 -6 -50.5 -43t-48.5 -38q-74 -46 -132 -77q-64 -35 -95 -38l-114 -5q-49 0 -82 9q-57 15 -57 52q0 14 10 44.5t19 48.5
q3 5 16.5 12.5t28.5 15.5q35 28 42 31.5t13 7.5t8 11t8.5 8.5t21 5.5t29.5 17q11 9 128 68q28 14 57 23q21 5 42 11q5 4 12.5 12t18 11t27.5 15q11 8 15 9q45 13 101 26q35 8 38.5 10.5t6 10t3.5 8.5q8 5 33 5q13 0 16 2q39 17 63 24q33 10 62 18q51 15 95 49q47 42 70 61
q-10 8 -14 8q-11 0 -16 -8q-1 -2 -2 -8q-6 -1 -25.5 -2.5t-61.5 -1.5q-18 0 -26.5 10.5t-8.5 26.5q0 12 12 20.5t24 16.5q26 23 53 53q41 46 41 65q0 7 -15.5 10.5t-25.5 3.5q-39 0 -107 -25q-74 -29 -147 -57q-13 0 -13 12q0 4 23 18t57 27t45 17.5t37 11.5q47 15 94 31
q41 11 71 11q36 0 56.5 -12t20.5 -39q0 -20 -49 -56t-49 -47q0 -7 9.5 -13.5t23.5 -6.5q49 0 49 -44q0 -29 -15 -48q-19 -17 -26 -24q10 -15 18.5 -18t36.5 -3h60q8 -8 8 -10zM762 285q0 11 -21 11q-13 0 -90.5 -27.5t-80.5 -30.5q-37 -30 -96.5 -46.5t-72.5 -24.5
q-67 -41 -102 -60q-43 -23 -58 -31q-79 -45 -87 -52.5t-35 -56.5q-6 -8 -11 -17q0 -14 18 -27t33 -13q21 0 98.5 29.5t85.5 34.5q18 11 30 22q19 17 28 20q20 7 145 102q54 41 79 44q2 20 69.5 67.5t67.5 55.5z" />
    <glyph glyph-name="grave" unicode="`" horiz-adv-x="196" 
d="M91 742h18q13 0 21.5 -7.5t23.5 -34.5q5 -9 5 -16q0 -6 -7 -18q-12 -20 -17.5 -33.5t-5.5 -27.5q0 -18 22 -80l-4 -14q-17 6 -40 41.5t-29 63t-10.5 50t-4.5 39.5t6.5 27t21.5 10z" />
    <glyph glyph-name="a" unicode="a" horiz-adv-x="570" 
d="M636 123q0 -4 -12.5 -18t-26 -23.5t-36.5 -33.5q-26 -28 -38 -36q-25 -14 -37 -22q-38 -27 -38 -49q0 -11 4.5 -19t13.5 -8q18 6 38 11t31 5q15 0 21 -2.5t6 -13.5q0 -9 -26 -16.5t-56 -24.5q-10 -6 -34 -9.5t-54 -3.5q-27 0 -56 28q-14 14 -26 14q-74 -37 -134 -66.5
t-110 -29.5q-22 0 -44.5 17.5t-22.5 30.5v49q16 20 34 38q30 29 75 69q10 9 57.5 38t64.5 37q33 15 88 31l70 20q10 3 17 11t9 9l66 4q17 0 36 -15t39 -15q16 0 26 15t18 15q9 0 23 -13t14 -24zM476 88q0 10 -7 17t-15 7q-37 0 -108 -37q-41 -22 -82 -43l-68 -54
q-18 -13 -28.5 -25.5t-13.5 -16.5t-11 -6t-11 -5l-15 -41q8 -3 17 -6q49 0 122 43q24 14 64 44q5 3 10.5 10t10.5 10q24 8 48 15q27 16 65 57q8 7 16 15q6 8 6 16z" />
    <glyph glyph-name="b" unicode="b" horiz-adv-x="855" 
d="M1026 578q0 -8 -20 -37q-27 -39 -59 -55q-24 -13 -37 -29.5t-63 -59.5l-99 -54q-16 -18 -42 -41t-71 -53q-82 -53 -140.5 -96t-78 -66t-48.5 -38q-59 -31 -62 -35q-26 -31 -57 -51q-37 -24 -37 -41t9 -19.5t19 -2.5q35 0 61 14l30 20q14 6 23.5 8t12.5 2q11 0 15 2
q16 8 72 44q9 1 20 5.5t23 16.5q30 27 64 51q39 27 45.5 56t33.5 54t52 25q27 0 36 -13t9 -37q0 -11 -2 -28t-2 -20q3 -17 12.5 -23t22.5 -6q12 1 15 1q38 0 57 -4q25 -12 30.5 -13t13.5 -1q14 1 21 1q19 0 19 -12q0 -16 -41 -22.5t-111 -6.5q-22 0 -34 5.5t-20 9.5
q-6 0 -12.5 -3t-9.5 -2q-13 11 -22 17.5t-18 6.5q-18 0 -51 -23q-10 -7 -29 -23q-14 -3 -24.5 -4.5t-13.5 -3.5q-33 -32 -61.5 -51t-50.5 -19l-68 -21q-3 -2 -9 -12t-11.5 -12.5t-44.5 -7.5t-43 -7t-14 -10t-14.5 -10.5t-27.5 -5.5q-58 -8 -118 -8q-14 0 -16 24t-3 47
q-7 46 -29 46q-9 0 -27 -8v54q21 10 26.5 15.5t12.5 11.5q6 3 26 7q47 9 53 11.5t10 7.5t8 9q12 5 30.5 8t23.5 5q22 15 33 22q35 23 39 24h12q8 0 14 1.5t18.5 8t16.5 20.5q0 2 1 6q10 6 18 10q22 12 68 34q5 2 19 17t30 32q7 2 15 5q15 6 30 19t26 17.5t15 7.5l72 73
q5 4 39 15q5 1 15 5q14 15 32 32q23 22 38 33q7 5 27 13.5t32 18.5l37.5 37.5t18.5 16.5q9 5 22 9t17.5 8.5t6 9.5t3.5 9l72 44q18 0 33 -9.5t15 -28.5z" />
    <glyph glyph-name="c" unicode="c" horiz-adv-x="510" 
d="M564 -20q-14 -27 -75 -63q-51 -30 -129 -61q-7 -3 -11 -7q-8 -8 -12 -10q-18 -9 -84 -21t-99 -12q-49 0 -88.5 15t-39.5 39q0 55 87 121q20 15 100 69q108 72 117 77q60 33 115 33q23 -2 34 -4q35 -7 35 -24q0 -22 -16 -37q-5 -4 -31 -21h-19q0 18 -10.5 27t-21.5 9
q-10 0 -49 -20q-56 -28 -109 -74q-83 -71 -109 -101q-17 -20 -17 -37t35 -28q5 -1 16 -4q32 0 53 8l52 2q24 12 45 21q26 12 39 15t65 30q37 19 73 34q21 9 35 25q4 5 9 5q1 0 10 -6z" />
    <glyph glyph-name="d" unicode="d" horiz-adv-x="555" 
d="M996 528q0 -2 -99 -115q-121 -137 -187 -211q-102 -114 -110 -119q-16 -11 -39 -35q-26 -28 -38 -36q-25 -14 -37 -22q-38 -27 -38 -49q0 -11 4.5 -19t13.5 -8q2 0 45 10.5t59 10.5q6 0 8.5 -6.5t2.5 -16.5q-1 -20 -1 -27q0 -5 -5 -4q-28 8 -39 8q-13 0 -26.5 -3.5
t-29.5 -12.5q-10 -6 -34 -9.5t-54 -3.5q-26 0 -33 15t-19 15q-15 0 -114 -42t-160 -42q-22 0 -44.5 17.5t-22.5 30.5v49q16 20 34 38q30 29 75 69q10 9 57.5 38t64.5 37q33 15 88 31l70 20q10 3 17 11t9 9l66 4q17 0 36 -15t39 -15q12 0 100 106q142 171 170 202
q98 111 130 117q11 2 26 -7t15 -20zM476 88q0 10 -7 17t-15 7q-37 0 -108 -37q-41 -22 -82 -43l-68 -54q-18 -13 -28.5 -25.5t-13.5 -16.5t-11 -6t-11 -5l-15 -41q8 -3 17 -6q49 0 122 43q24 14 64 44q5 3 10.5 10t10.5 10q24 8 48 15q27 16 65 57q8 7 16 15q6 8 6 16z" />
    <glyph glyph-name="e" unicode="e" horiz-adv-x="406" 
d="M454 -20q-14 -27 -75 -63q-51 -30 -129 -61q-7 -3 -11 -7q-8 -8 -12 -10q-18 -9 -84 -21t-99 -12q-49 0 -88.5 15t-39.5 39q0 55 87 121q20 15 100 69q108 72 117 77q60 33 115 33q23 -2 34 -4q35 -7 35 -24q0 -36 -78 -88q-69 -46 -114 -56q-15 -3 -26 -3h-14
q-13 0 -20 -3l-47 -24q-14 -6 -45 -33q-38 -32 -38 -47q0 -17 35 -28q5 -1 16 -4q32 0 53 8l52 2q24 12 45 21q26 12 39 15t65 30q37 19 73 34q21 9 35 25q4 5 9 5q1 0 10 -6zM306 85q0 4 -7.5 9.5t-14.5 5.5q-10 0 -60.5 -31.5t-58.5 -43.5q4 -3 6.5 -4t3.5 -1q37 0 84 27
t47 38z" />
    <glyph glyph-name="f" unicode="f" horiz-adv-x="371" 
d="M635 329q0 -31 -63 -73q-28 -18 -54.5 -36.5t-64.5 -43.5q-49 -32 -77 -46q-26 -19 -56.5 -35t-81.5 -34q-43 -12 -64 -22q-59 -27 -59 -60q0 -6 21.5 -8t23.5 -6q-10 -10 -82 -32q-63 -19 -90 -72q-4 -8 -68.5 -62t-81.5 -74q-43 -50 -76 -74l-70 -44q-11 -12 -27 -21
l-32 -18l-33 -33q-20 -11 -58 -11q-18 0 -26.5 3t-8.5 9q0 24 0.5 31t3.5 13t42 41q47 42 85 65q8 -6 14.5 -12t6.5 -11q0 -7 -46 -35t-46 -43q0 -8 5.5 -15.5t13.5 -7.5q12 0 51 25.5t58 44.5q3 3 37 24.5t35 22.5q28 25 43 38t35 33q25 24 67 63q9 8 9 16q0 7 -8 11t-13 4
q-6 0 -24 -17q-6 -5 -19.5 -19t-38.5 -24q-35 -15 -44 -20q-38 -38 -63 -61t-44 -26q-1 12 -3 14t-15 9q90 64 164 113q32 21 45 32q6 5 16 20q4 6 7 8.5t36.5 22.5t38.5 24q34 31 76 59q21 14 21 30q0 12 -15 12h-11q-11 0 -22.5 2.5t-23.5 10.5q3 9 9.5 12.5t15.5 3.5h10
q12 0 32 -3t33 -3l64 6l92 72q93 72 108 78q33 14 96 61q121 91 163 91h18q13 -3 13 -23zM329 82h-5h5zM585 304q0 10 -13 10t-29 -9q-24 -14 -92 -62q-5 -4 -23.5 -8t-20 -8t-3.5 -9t-3 -7q-15 -12 -26 -21q-23 -19 -28 -31l10 -3q13 0 66 32q17 10 51 32q57 29 84 50.5
t27 33.5z" />
    <glyph glyph-name="g" unicode="g" horiz-adv-x="450" 
d="M584 199q0 -8 -81 -76t-81 -84q0 -14 18 -14q8 0 16 3l2 -34q-24 0 -35 -9t-43 -9q-19 0 -23 8t-15 8q-10 0 -40 -24q-83 -68 -84 -68q-9 -5 -114 -99q-23 -20 -77 -65q-40 -33 -108 -89q-27 -22 -55 -45q-33 -19 -70 -48q-42 -34 -85 -69q-2 -1 -16 -4t-18 -5
q-61 -39 -89 -53l-32 -10q-15 -8 -43 -28q-18 -13 -29.5 -17t-47.5 -7t-74 -3h-12q-23 0 -42 2.5t-33 11.5q-23 15 -36 26q-27 23 -27 40q0 14 9 29q11 14 13 18q13 23 26 45q26 31 85 55q3 1 17 16q36 38 41 42q24 22 77 36q17 4 49 10q10 3 17 10q6 9 12 17q5 3 19.5 4.5
t21.5 2.5t22.5 13t33.5 19q64 28 100 42q114 46 162 54q13 3 23.5 10t17.5 12q10 4 19 5t22 1h18q17 0 29 4q31 11 76.5 20.5t45.5 25.5q0 10 -11.5 13.5t-32.5 3.5q-9 0 -23 -1t-16 -1q-38 0 -59.5 16.5t-21.5 45.5q0 42 70 86l122 72q17 12 29 17l24 10l32 29l36 2
q26 7 48 23q10 7 67 7q15 0 34 -12q42 -26 67 -26q4 0 12 3t16 3q10 0 17.5 -6.5t7.5 -14.5zM446 181q0 12 -6 15.5t-22 3.5q-41 0 -77 -11q-50 -15 -87 -52q-29 -11 -58.5 -30.5t-62.5 -61.5q-1 -1 -12 -7.5t-11 -16.5t8.5 -15.5t20.5 -5.5q54 0 92 21.5t74 43.5
q61 28 98 61q23 20 43 55zM-36 -195q-8 4 -19 8q-2 0 -6 1q-23 0 -38 -9.5t-22 -13.5q-24 -4 -41 -8t-24 -10.5t-23.5 -11t-45.5 -19.5l-138 -48q-4 -1 -17 -13t-17 -14q-7 -1 -16 -2t-18 -5q-15 -12 -37.5 -24.5t-61.5 -28.5q-50 -21 -95 -64t-45 -68q0 -15 12 -26t28 -11
l69 9q6 1 22 15q9 7 13 9.5t16.5 4t47.5 29.5q6 -1 16 1.5t23 10.5q60 39 119 78q43 34 79.5 61t70.5 43q9 5 15 12q2 2 4 7q6 2 13.5 3t27.5 12q11 7 34 32q7 8 20 23q9 3 13 5q14 6 21 12z" />
    <glyph glyph-name="h" unicode="h" horiz-adv-x="785" 
d="M927 91q-5 -4 -37 -34q-19 -18 -43.5 -27t-43.5 -20t-24 -22l-7 3q34 44 49 56q22 6 56 26q11 7 14.5 18.5t16.5 11.5q6 0 10 -1.5t9 -3.5v-7zM1032 568q0 -4 -18 -21q-45 -44 -47.5 -47.5t-2.5 -9t-2 -8t-8 -2.5q-9 1 -13 1q-1 0 -60 -49t-75 -49l-12 3v7q18 13 22 22.5
t6 10.5q33 21 58 31q18 5 37 11q3 2 8 13t9 15q15 15 26 28q22 26 22 36q0 6 -7.5 13.5t-14.5 7.5q-5 0 -12.5 -8.5t-13.5 -14.5q-4 -2 -35.5 -9t-54.5 -28q-28 -26 -56 -51q-14 -11 -31 -17q-33 -11 -56 -31q-18 -15 -37 -44q-42 -31 -66 -51t-24 -38q0 -6 6 -12t14 -6
q17 0 17 12q0 17 2 19t25.5 5t28.5 6q10 6 37 26t48 32h20l2 -5q0 -11 -52 -33.5t-54 -27t-2.5 -9.5t-1.5 -10q-6 -3 -14 -6q-16 -7 -38 -22q-1 -1 -15 -3t-20.5 -4.5t-12.5 -15.5q-2 -5 -15.5 -8.5t-21.5 -6.5q-32 -10 -54 -22.5t-36 -19.5q-8 -4 -15 -7l-44 -45
q0 -11 38 -15.5t51 -2.5q7 4 15 9q26 -8 38 -14q38 -18 38 -39q0 -7 -13 -24q-9 -11 -19.5 -20t-15 -16.5t-9.5 -13.5t-11 -8.5t-14 -2.5q-11 0 -12 -1q-14 -15 -21 -23q-24 -25 -38 -33t-32 -27q-21 -23 -21 -37q0 -11 16 -11q9 0 16.5 2.5t14.5 6.5q8 2 42 5.5t65 9.5
t34 14.5t21.5 12.5t36 12.5t66.5 40.5q7 5 40.5 17t42.5 25l12 -2q-33 -47 -63 -61q-16 -4 -32 -9q-12 -7 -23 -19q-3 -4 -9 -11q-7 -5 -32.5 -7t-39 -14.5t-41.5 -18.5q-14 -2 -27 -5l-15 -12q-16 -12 -28.5 -13.5t-40 -4t-69.5 -7.5q-33 0 -63 9q-44 13 -44 38
q0 10 7 20.5t35 34.5q40 35 68 52q17 9 35 18q7 6 11 15q1 3 4 5q17 2 29 6q23 9 23 40q0 24 -26 24q-8 0 -16.5 -5.5t-14.5 -9.5q-15 -1 -41 -5.5t-59 -24.5q-30 -14 -58 -27q-56 -27 -64 -37t-23 -11.5t-20 -4.5q-13 -13 -33 -28q-24 -19 -47 -32q-54 -31 -78 -62
q-12 -15 -38 -15q-17 0 -27.5 4.5t-10.5 16.5q0 17 56 48q27 15 45 40q6 9 14.5 10.5t45 26t38.5 28.5q3 12 7 23q7 2 10 3q10 5 10 17t-10 16.5t-14 4.5q-25 -12 -40 -17q-46 -17 -78 -17q-5 0 -11 7q-2 2 -5 8q0 5 42.5 21t100.5 27q42 21 72 35q34 17 61.5 20t40.5 11
q38 26 94 61q6 4 15 16q17 23 47 37q5 2 11 9.5t7 7.5q10 7 26.5 8t23.5 7q12 11 23 26.5t22 31.5q3 4 67 43q27 16 28 24q19 17 30 25q36 27 62 35q22 16 45 33q58 40 105 63q70 34 118 34q7 0 14 -3q21 -9 21 -32z" />
    <glyph glyph-name="i" unicode="i" horiz-adv-x="546" 
d="M910 618q0 -18 -9 -32q-12 -18 -31 -18q-20 0 -35 12q-19 15 -19 40q10 21 16 31q20 31 40 31q16 0 27 -18t11 -46zM564 129q0 -10 -40 -46q-26 -23 -42 -42q-15 -5 -32.5 -12.5t-39.5 -24.5q-26 -15 -36 -22q-16 -11 -38 -49q-6 -11 -30 -17q-44 -12 -44 -36
q0 -9 10 -10.5t18 -1.5h15q26 0 57.5 12t182.5 80q2 1 12 -5q4 -4 8 -9q-153 -102 -196 -122q-34 -16 -83 -16q-73 0 -101 10l-36 24q-27 -14 -41 -21q-45 -21 -62 -21l-28 14l-2 40q87 23 93 26q56 26 153 113q30 19 47 30q47 31 84 58q11 16 21 25q31 28 76 38q7 5 22 18
q9 8 17 8q5 0 20 -20q5 -6 15 -21z" />
    <glyph glyph-name="j" unicode="j" horiz-adv-x="495" 
d="M913 550q0 -9 -11.5 -19.5t-18.5 -10.5q-10 0 -22 4.5t-19 9.5q7 13 14 19q11 9 29 9q14 0 21 -3t7 -9zM835 446q0 -27 -41 -58q-46 -35 -92 -69q-48 -42 -70 -55q-68 -41 -75 -46q-38 -29 -76 -57q-109 -82 -135 -101q-76 -56 -91 -66t-50.5 -42.5t-72.5 -66.5l-82 -48
q-60 -41 -145 -108q-72 -58 -139 -89.5t-121 -31.5q-25 0 -44.5 15.5t-19.5 36.5q0 20 26 48q38 41 108 68q28 11 98 46q29 14 59 24q65 20 111 43q81 40 202 114v14q-12 3 -16 3q-11 0 -84 -21t-74 -21q-13 0 -23 3.5t-16 12.5q8 9 64 23.5t71 14.5q18 0 56 10
q61 16 124 48q87 44 177 117q56 46 105 82q34 24 69 49q40 40 103 86q55 40 77 40h12q5 -2 5 -18zM-71 -182q0 10 -10 10q-11 0 -78 -27q-53 -21 -70 -30q-73 -31 -107 -55q-27 -19 -27 -35q0 -14 6.5 -19.5t30.5 -5.5q18 0 56 17q51 23 80 42q119 88 119 103z" />
    <glyph glyph-name="k" unicode="k" horiz-adv-x="679" 
d="M858 58q0 -21 -42 -46q-52 -30 -104 -61l-8 2q36 47 40 50q18 7 53 25q15 8 30 31q5 7 13 7zM974 589q-5 -12 -7 -18q-9 -20 -16.5 -26t-25 -11t-23.5 -8q-20 -11 -36 -26t-42 -24q-47 -28 -71 -44q-74 -49 -91 -71q-6 -8 -42 -31q-17 -11 -26 -22q-13 -16 -18 -33.5
t-15 -27.5t-18 -15q-17 -11 -19 -14q-12 -18 -39 -33q-31 -14 -61 -27q-10 -14 -20 -27q-10 -4 -19 -7q-7 -5 -7 -13q0 -5 7 -10t14 -5q33 0 68 9t82 26q33 12 41 16l32 16q16 4 44 4h21.5t11.5 1q19 8 30.5 11.5t17.5 8.5q1 1 4.5 7.5t7.5 7.5q6 1 17 -1t18 -1t26.5 13
t38.5 12q25 0 25 -31q0 -24 -68 -41t-134 -33q-34 -11 -77.5 -17.5t-45.5 -7.5q-31 -14 -52 -22t-33 -8l-2 -5q0 -6 10 -19t10 -16q-6 -11 -9 -16q-11 -17 -22.5 -26t-21.5 -22l-10 -14q-9 -7 -19 -7h-13q-5 -9 -16 -21q-15 -16 -38 -32t-32 -24q-27 -25 -27 -43
q0 -13 16 -13q13 7 34 10.5t68.5 10t58 10t13.5 12t17.5 10.5t33.5 10q29 13 62 35q21 14 58 28q27 10 34 22l13 -3q-33 -40 -46 -49q-41 -25 -82 -51q-6 -5 -31.5 -6t-39.5 -14.5t-41 -18.5t-28 -6q-10 -8 -17 -13q-15 -11 -18 -12q-5 3 -10.5 4t-12.5 1q-3 0 -18.5 -2.5
t-29.5 -8t-47 -5.5q-46 0 -76.5 13t-30.5 34t18 37q21 14 25 17q24 22 49 44q10 4 46 24q10 5 15.5 13.5t6.5 8.5l36 10q16 12 16 35q0 11 -11 23.5t-26 12.5q-46 0 -112 -46q-89 -62 -104 -68.5t-134 -98.5q-48 -37 -63 -37l-32 4l-5 10q56 45 64 51q32 24 61 39
q37 22 78 58q36 31 36 45q0 4 -15 17.5t-23 13.5q-25 -12 -40 -17q-46 -17 -78 -17q-5 0 -11 7q-2 2 -5 8q0 6 35 18t93 27q14 3 48 20q68 33 72 33q65 6 122 48q34 29 68 59q3 2 29 18q12 7 18.5 14.5t17 11t18.5 6.5l65 63q9 10 65 51q61 45 76 58.5t74 51.5q31 20 55 41
q63 54 92 72q18 11 31 11t28 -11q11 -8 11 -16z" />
    <glyph glyph-name="l" unicode="l" horiz-adv-x="476" 
d="M1146 632q0 -12 -20 -40t-76 -97q-15 -19 -48 -45t-83 -58q-13 -9 -25 -23q-2 -2 -5 -7q-53 -30 -75.5 -45t-41.5 -28q-13 -3 -24 -4.5t-20.5 -8t-11 -14.5t-3.5 -9q-8 -7 -26.5 -9.5t-42.5 -15.5q-98 -33 -161.5 -57.5t-119.5 -67.5q-26 -22 -78 -61q-40 -31 -85 -62
q-28 -32 -41 -49q-41 -53 -41 -71q0 -9 9.5 -14.5t22.5 -5.5q75 0 202 67q55 29 147 89q7 5 13 -3.5t6 -16.5q-29 -35 -47 -53q-55 -56 -91 -67q-51 -26 -110.5 -44t-110.5 -18q-16 0 -24 1l-92 8q-20 2 -28.5 10.5t-8.5 22.5q0 40 47 105t102 104q3 2 16.5 6t23.5 10.5
t20 18.5q14 17 15 18q85 67 120 90q26 18 91 54q13 15 31.5 32t46.5 35q28 22 45 36q54 42 92.5 68.5t112.5 74.5q20 13 33.5 27.5t42.5 31.5l66 34q4 6 8 11q12 14 36 34q12 10 34 14q23 2 47 5q11 11 24.5 17t32.5 6t36 -9.5t17 -26.5zM1050 562q-5 12 -7 17q-8 17 -13 17
q-4 0 -35 -21q-10 -7 -31 -21q-47 -27 -83 -55t-70 -54q-29 -15 -44 -24q-47 -27 -62 -40q-11 -10 -63 -52q-32 -26 -32 -31q0 -6 18 -9q3 0 10 -1q19 0 40 12t47 34q41 18 74 35.5t53 39.5q7 8 17 10l20 4q6 3 31 32.5t46 39.5q31 15 61 43q9 9 23 24z" />
    <glyph glyph-name="m" unicode="m" horiz-adv-x="945" 
d="M998 -84q0 -9 -43.5 -35.5t-85.5 -41.5q-11 -4 -22 -5t-28 -1q-10 0 -19.5 0.5t-18.5 0.5q-20 0 -30.5 -3.5t-10.5 -14.5q0 -10 -52 -10q-18 0 -47 17t-29 35q0 8 11 23q15 21 51 50q9 8 11 16.5t4 10.5q23 12 42 23q39 23 39 36t-13.5 18t-26.5 5q-17 0 -38 -12
q-15 -9 -29 -18q-19 -7 -45 -17q-34 -14 -54 -21.5t-29.5 -15.5t-18.5 -17q-15 -2 -27.5 -3.5t-17.5 -9.5q-13 -22 -37 -35q-13 -7 -58 -23q-23 -8 -30.5 -22t-51.5 -14q-19 0 -25 2t-6 8q1 7 1 13q0 21 22.5 26t35.5 20.5t50 25.5q20 5 25 10q10 9 36 37q17 18 26 25t16 16
l6 9q15 3 31 6q14 7 14 23q0 6 -14 15q-18 12 -38 12q-41 -18 -66 -28q-141 -61 -169 -76q-17 -9 -26 -18q-6 -8 -11 -16q-5 -4 -11.5 -5t-15.5 -1h-9t-4 1q-6 -2 -13 -13.5t-18.5 -17t-39.5 -26.5q-53 -40 -62 -40t-18 13.5t-9 19.5q12 19 20 29q25 32 48 48q6 4 18.5 6
t15.5 4t10.5 15t21.5 17q6 2 17 -2t15 -1q17 18 25 27q25 30 25 41q0 18 -10 22.5t-30 4.5q-21 0 -46 -13q-26 -16 -33 -20t-33 -6t-33 -6q-7 -10 -17 -16.5t-24 -6.5q-12 0 -12 11q0 4 9.5 17.5t16 16.5t22.5 3q1 0 12 -1t12 0q6 11 20 19.5t48 14.5q29 15 48 22
q59 23 106 23q46 0 66 -16l34 -38q45 0 120 24q38 12 62 12q31 0 64 -30t45 -30q65 0 83 18q11 11 29.5 13.5t49.5 3.5t34 1q14 -3 20 -5q21 -7 21 -17q0 -37 -21 -54q-16 -11 -31 -21q-45 -55 -79.5 -83.5t-34.5 -37.5q0 -25 26 -31q13 -3 29 -3q7 0 43 19q22 11 43 17
t48.5 27t34.5 21q16 0 27 -3t11 -13z" />
    <glyph glyph-name="n" unicode="n" horiz-adv-x="777" 
d="M975 105q-4 -7 -9 -12l-9 3v12zM929 70q-7 -15 -28 -26q-62 -32 -66.5 -36.5t-5.5 -12.5t-6 -13q-25 -22 -61 -44.5t-65 -30.5q-6 -2 -26 -11q-52 -24 -57 -26q-19 -7 -31 -9t-23 -2q-8 0 -17 1t-12 -1q-11 -12 -21 -25q-19 -10 -60 -10q-44 0 -78 20t-34 58q0 16 26 45
q62 70 69 78q2 2 25.5 13.5t23.5 31.5q0 10 -16 14t-59 4q-49 0 -53.5 -11.5t-11.5 -15.5t-54 -8q-16 -1 -47 -3l-60 -40q-47 -40 -93 -76q-93 -72 -124 -72q-22 0 -22 17q0 26 33 52q44 34 57 56q2 4 75 50q37 24 51 31q28 15 48 30q34 26 34 47q0 15 -14.5 23.5
t-39.5 14.5q6 2 32 16q17 9 32 9l94 -14q9 -18 16 -30q14 -24 47 -24q30 0 124 16l92 16q27 0 34 -10.5t7 -37.5q0 -25 -9 -37q-15 -13 -24 -22q-21 -20 -34 -33q-18 -18 -26 -22l-43 -8q-6 -3 -45 -44.5t-39 -45.5q0 -16 22 -22t57 -6q32 0 211 83q16 8 23 17q3 5 6 9
q6 4 16 5t22 1t18.5 1.5t9.5 6.5q25 22 38 33q41 34 52 34q6 -3 10 -4z" />
    <glyph glyph-name="o" unicode="o" horiz-adv-x="686" 
d="M811 184q-21 -9 -39 -13.5t-31 -4.5q-28 4 -33 4q-59 0 -89 -29q-89 -85 -126 -112q-11 -15 -17 -23q-18 -24 -25 -28q-27 -16 -55 -30q-49 -23 -60 -30q-20 -12 -36 -17q-18 -4 -35 -9q-5 -2 -14 -13.5t-21.5 -14.5t-29.5 -3q-9 0 -18 0.5t-18 0.5q-56 0 -57 21t-37 21
q-26 -10 -45.5 -15.5t-25.5 -2.5q-5 4 -7 6q-8 8 -8 14q0 7 7 16q2 3 8 7q17 8 58 22q69 23 85 41q11 12 65 48.5t67 40.5t34 20.5t43 33.5q6 5 58 19q33 9 67 24q24 14 36 20q37 20 41 20q17 -8 36 -15.5t36 -10.5q7 -1 44.5 2.5t80.5 7.5q13 0 29.5 -4.5t31.5 -13.5z
M518 132l-2 9h-14q-8 -7 -30 -12q-46 -11 -50 -14q-5 -7 -7 -10q-10 -12 -16 -16q-13 -3 -26 -5v-6.5t-11 -11.5q-53 -38 -97 -80q-14 -13 -33 -34q2 -4 4 -9q12 -2 25 -5q18 0 30 7q11 11 22 21h13q10 0 18 1.5t21 7.5q3 1 7 10q9 19 37.5 26t68.5 52t40 69z" />
    <glyph glyph-name="p" unicode="p" horiz-adv-x="602" 
d="M682 426q0 -21 -77 -80q-48 -37 -77 -72q-5 -2 -9 -4q-17 -9 -17 -25q0 -13 9 -18t24 -5q10 0 20 1t19 2q24 0 32 -9t8 -30t-21 -40q-12 -8 -13 -9q-21 -21 -42.5 -41.5t-72.5 -61.5q-19 -15 -26 -24.5t-7 -22.5q0 -22 24 -22q36 0 52 24q9 -4 20 -4q27 0 54 10.5
t66 38.5v-15q-10 -21 -23 -41q-16 -26 -22 -29q-5 -2 -15 1.5t-20 1.5q-37 -7 -66 -16q-60 -19 -71 -19q-39 0 -69 17q-34 20 -34 53q0 32 21 54l56 38q18 23 48 35q21 7 42 15q7 4 9 12v12q0 13 -7 16.5t-20 3.5q-35 0 -43.5 -10.5t-15.5 -18.5q-35 -5 -81 -27.5t-90 -64.5
q-83 -60 -142.5 -106.5t-74.5 -68.5q-4 -6 -45.5 -37t-67.5 -48q-20 -13 -73 -65q-24 -23 -29 -26q-39 -20 -93 -69q-97 -87 -117 -87q-24 0 -41.5 10t-17.5 30q0 34 54 78q34 25 45 33q9 12 17 23h10.5t19.5 7q6 3 14 12q12 14 21 21q13 6 20 10q45 25 60 40q53 35 91 62
t49 43q4 7 18.5 13t31.5 12q4 2 45 40q45 41 48 43q14 6 27 23q6 9 13 19q15 2 20 5t75 59q53 42 100 66q6 8 16.5 18.5t31.5 25t33 27.5q22 23 24 24q6 -1 12 -1q13 0 30 14.5t33 34.5l88 65q19 21 34 33t26 12t20 -6t9 -15z" />
    <glyph glyph-name="q" unicode="q" horiz-adv-x="504" 
d="M594 80q-19 -30 -48.5 -54.5t-70.5 -40.5q-13 -5 -28 -31q-7 -13 -14 -27q-4 -5 -23 -13t-28.5 -13.5t-23.5 -11.5q-7 -2 -13 -4q-6 -5 -6 -10q0 -13 -1 -14q-15 -19 -75 -71q-24 -21 -79 -66q-83 -68 -115 -91q-48 -30 -100 -65l-56 -46q-33 -23 -57.5 -28.5t-52 -22
t-56.5 -33.5h-108l-3 14q0 26 41 69q45 47 153 127q43 32 148 123q45 39 64 51q9 6 16 12q31 27 55 58q10 13 19 18.5t15 8.5q5 6 5 18v11q0 10 5 18l69 36q49 12 67 24l50 40q13 7 37 25q62 47 62 68q0 12 -7.5 18.5t-18.5 6.5q-50 0 -87 -14q-29 -11 -62 -36
q-71 -40 -90 -54q-26 -19 -76 -122h-7q-10 11 -30 22q-12 7 -12 17q18 50 48 76q49 43 135 66q14 4 17 11t5 13q6 5 22 6t18 2.5t5 7.5t7 9q15 10 28.5 15.5t31.5 5.5h15q7 0 10 1l50 16q16 0 40 -10.5t32 -10.5q4 0 7 1q17 5 21 5q16 0 16 -17q0 -28 -110 -89
q-50 -28 -77 -57q-11 -12 -20 -16t-56.5 -39.5t-51.5 -41.5q-27 -38 -59 -57q-27 -16 -34 -31q-10 -20 -39 -44q-32 -22 -63 -44q-9 -13 -43 -45q-42 -40 -62 -45q-23 -15 -37 -25q-40 -29 -68 -58q-40 -41 -75 -68q-17 -13 -17 -22q0 -8 10 -16t22 -8q9 0 96 66
q54 41 115 70q25 12 49 32t41 43q33 26 50 39q52 40 61 42t15 11q11 17 22 25.5t31 17.5t39 17q4 3 39 39.5t46 43.5q32 21 49 37q21 20 42 41q3 3 69 51q11 8 32 23q5 0 11 -3t7 -3z" />
    <glyph glyph-name="r" unicode="r" horiz-adv-x="637" 
d="M610 81l-2 -19h-11q-23 0 -57 5.5t-71 12.5q-19 0 -34 6t-21 6q-8 0 -57 -48q-77 -75 -108 -102q-20 -15 -33 -25q-25 -19 -46 -40q-28 -22 -42 -32q-44 -33 -50 -33q-8 0 -25 19q-11 12 -11 21q0 6 53 40q36 23 73 51.5t72 67.5q30 33 30 47q0 17 -15.5 22.5t-42.5 5.5
q-33 0 -68 -31q-20 -21 -27 -28t-32.5 -17.5t-50.5 -20.5q-3 -3 -5 -6q-11 -12 -30 -21v21q30 14 86 51q106 70 134 70q9 0 57 -6q15 -2 46 -6q50 0 80 30t53 30q16 0 30.5 -25.5t28.5 -25.5q25 0 45.5 4.5t22.5 4.5q15 0 21.5 -7.5t6.5 -21.5z" />
    <glyph glyph-name="s" unicode="s" horiz-adv-x="364" 
d="M424 173q-12 -18 -18 -26q-20 -27 -28.5 -29t-21.5 -32q-7 -17 -17 -26t-23.5 -55t-39.5 -74q-44 -50 -117.5 -85.5t-135.5 -35.5q-43 0 -67 16q-17 11 -32 40h-6q-12 -12 -33 -12q-8 1 -14.5 1.5t-21.5 4.5v10q33 6 50 17q18 14 35 27q9 3 18 3q20 0 28 3t11.5 8t6.5 9
q11 3 18 6q45 17 89 48q23 11 51 26.5t71.5 44.5t72.5 51q33 25 50 25q5 0 30 24t34 24q10 0 10 -13zM248 18q0 5 -3 10q-6 10 -15 10q-5 0 -41.5 -32.5t-37.5 -38.5q-7 0 -26 -10t-46 -28q-8 -5 -17 -6t-16 -15q-1 -3 -11.5 -18.5t-10.5 -20.5q0 -12 34 -21q5 -1 16 -4
q34 0 60.5 18.5t26.5 29.5q14 0 31 14t24 31l8 36l8 10q16 20 16 35z" />
    <glyph glyph-name="t" unicode="t" horiz-adv-x="385" 
d="M954 324l-3 -10q-85 -11 -169 -22q-147 -21 -199 -37l-108 -70q-26 -17 -39 -25q-42 -27 -51 -29.5t-28 -20.5q-48 -46 -54 -49q-15 -7 -29 -14q-25 -13 -33 -20q-18 -16 -30 -22l-24 -8q-15 -19 -33 -36q-21 -21 -39 -31l-56 -32q-9 -8 -9 -39q0 -22 9 -31t23 -9
q10 0 20.5 3.5t11.5 3.5l73 -15q-11 -8 -16 -8h-191q-15 15 -20.5 26t-5.5 22l34 81l38 22q24 15 60 47t50 39l92 56q5 4 8.5 12.5t7.5 12.5q8 7 21 7q8 0 9 1t9 11.5t31 23.5q10 5 21 10q17 11 17 25q0 7 -8.5 15.5t-13.5 8.5h-83q-22 1 -44.5 3t-33.5 8v8q50 11 76 16
q80 16 98 16q4 0 11.5 -3.5t13.5 -1.5q4 3 6 4q17 11 29 13t22.5 2.5t17.5 1.5q14 -1 20 -1t10 1q46 20 69 31q71 33 80.5 42t61.5 49q62 48 74 48q11 0 21 -13l3 -6q0 -4 -35 -45q-17 -20 -17 -37q0 -19 7 -26t22 -7q13 0 27 2q34 5 36 5q26 0 59.5 1.5t37.5 1.5
q17 0 26 -3t9 -9z" />
    <glyph glyph-name="u" unicode="u" horiz-adv-x="665" 
d="M802 8q0 -7 -64 -45q-36 -21 -46 -21q-22 -16 -35 -24q-41 -27 -68 -39q-9 -4 -22 -6.5t-18 -4.5q-47 -23 -63 -28.5t-48 -5.5h-30q-57 0 -77 26q-11 14 -51 14q-6 0 -54.5 -22t-98.5 -46q-10 -2 -36 -2h-48q-50 0 -90.5 10t-40.5 28q0 25 66 74q102 75 114 86
q18 20 36 41q25 21 61 35q13 5 64 58q21 22 32 22q9 0 22 -5l3 -5q-60 -60 -79 -76.5t-56 -39.5q-9 -5 -49 -54q-46 -56 -46 -74q0 -11 10 -25.5t23 -14.5q31 0 114 33q71 28 134 62q16 9 66.5 58.5t105.5 73.5q11 4 20.5 17.5t21.5 13.5q7 -2 14 -3.5t7 -4.5
q-4 -16 -12 -29q-13 -22 -38 -48q-8 -9 -25.5 -19t-36.5 -21q-8 -6 -16.5 -21.5t-15.5 -32.5q-2 -3 -17 -11t-15 -26q0 -21 23 -28q14 -4 25 -4q24 7 39 12q43 15 77 36q93 57 111 67q58 33 89 33q18 0 18 -14z" />
    <glyph glyph-name="v" unicode="v" horiz-adv-x="490" 
d="M590 31q-5 -6 -15 -11t-25 -5q-6 0 -10.5 0.5t-7.5 1.5q-12 -10 -27.5 -20t-28.5 -13q-8 -2 -25 1.5t-27 3.5q-22 0 -49 -18q-31 -23 -61 -47q-15 -6 -24 -14t-18 -17q-4 -2 -11 -2.5t-13.5 -2t-19 -12.5t-15 -12.5t-62 -15t-66.5 -13.5q-19 0 -27.5 12.5t-8.5 32.5
q0 15 2 25t7 24v10l-6 4q-11 0 -28 -18q-41 -43 -57 -48q-5 8 -5 11q0 20 3 25q24 18 36 26q38 27 45 28.5t18 3.5q29 27 56 52q56 52 62 52q13 0 13 -18q0 -36 -54 -87t-54 -63q0 -13 9.5 -23.5t18.5 -10.5q41 0 102 36l66 44q35 19 80 112q19 39 34 39q40 0 46 -43.5
t51 -43.5q14 0 33 8q10 4 21 9z" />
    <glyph glyph-name="w" unicode="w" horiz-adv-x="644" 
d="M825 20q-8 -10 -19.5 -13t-18.5 -3q-8 0 -12 0.5t-8 2.5q-12 -11 -27.5 -21t-28.5 -13q-10 -2 -26 1.5t-26 3.5q-22 0 -49 -18q-31 -23 -61 -47q-18 -7 -26.5 -15.5l-15.5 -15.5q-3 -2 -12 -2t-13.5 -1.5t-14 -9t-19.5 -16.5q-2 -2 -61 -15.5t-67 -13.5q-15 0 -50 21
q-18 11 -32 11q-19 0 -73 -22t-76 -22q-23 0 -48 16q-31 20 -31 46q0 24 25 44q17 13 64 36q7 3 63 63q22 23 38 23q12 0 14.5 -11t2.5 -29q0 -22 -58 -68t-58 -67q0 -14 20 -14q21 0 59 25q45 30 151 113q16 14 33 29q32 25 47 25q14 0 14 -15q0 -26 -51.5 -72.5
t-51.5 -59.5q0 -12 9.5 -22.5t18.5 -10.5q42 0 102 35l66 44q35 19 80 112q19 39 34 39q40 0 46 -43t51 -43q14 0 33 8q10 4 21 9q8 0 23.5 -2t18.5 -2z" />
    <glyph glyph-name="x" unicode="x" horiz-adv-x="406" 
d="M545 102q0 -20 -44 -20q-10 0 -15 3t-8 3t-8 -4q-28 -22 -44 -32q-13 -4 -22 -8q-23 -10 -54.5 -29.5t-64.5 -48.5q-42 -37 -42 -55q0 -8 15 -25q2 -3 7 -8q4 0 8.5 2t8.5 4q11 -4 24 -4q3 0 14.5 2t34.5 20.5t48 37.5l17 -8v-8l-16 -16q-3 -2 -10 -2l1 -5q0 -9 -24 -22
q-12 -7 -12 -13q0 -7 -14 -9t-12 -8q-6 -2 -18 -4t-17 -4l8 -2q-18 2 -25 2q-13 0 -30 -4l5 2l-21 5q-11 0 -26 18t-24 18q1 6 1 10h-28q-15 -8 -19.5 -10t-13.5 -5l-4 -5q0 -2 -12 -4l-12 1l2 -4l-8 2l2 -4l-6 3q-7 -6 -15 -7l5 -2l-17 2l2 -4q-1 -1 -15.5 -2.5t-19.5 -1.5
q-4 0 -8 0.5t-3 3.5q-8 3 -17 3q-5 0 -6 3l-2 6q-10 2 -14 6q-2 10 -4 19q-12 1 -28 2.5t-16 6.5q0 14 32.5 30.5t35 24t9.5 7.5q2 0 9 -3t13 1q3 6 6.5 15.5t19.5 20.5q11 0 11 -2q0 -9 -23 -26t-23 -25q0 -15 3.5 -25.5t13.5 -20.5l-10 -8v-15h12q24 7 47 14q47 15 55 26
l16 22q12 12 34 26q52 22 80 38q53 31 53 79q0 30 -30 30q-6 0 -44.5 -23.5t-58.5 -23.5q-22 0 -47.5 -17t-51.5 -34q-3 0 -5.5 4t-4.5 9q0 5 19 23q23 23 46 34.5t39 20.5t25 9h10q20 9 39 15.5t36 6.5q16 0 32 -3.5t26 -13.5q5 -5 6 -24t20 -19q11 0 72 37q5 3 18 5
t21.5 6.5t12.5 15t9 10.5q10 0 21.5 -16.5t11.5 -27.5zM152 -118h-4h4zM146 -120h-4h4zM140 -122h-4h4zM282 -163h-10h10zM292 -163h-4h4z" />
    <glyph glyph-name="y" unicode="y" horiz-adv-x="405" 
d="M590 178q0 -13 -56.5 -67.5t-80.5 -67.5q-11 -6 -75.5 -56.5t-82.5 -68.5q11 -15 20.5 -19t36.5 -4h60q6 -6 6 -8q0 -11 -27 -11h-25h-25.5t-32.5 -3l-39 -13q-42 -16 -80 -36q-65 -56 -98 -84q-99 -86 -109 -100q-3 -4 -48 -41q-28 -23 -58 -55q-9 -9 -52.5 -44
t-46.5 -36q-74 -46 -131 -77q-64 -35 -95 -38l-114 -5q-46 0 -80 9q-57 15 -57 50q0 14 9.5 43.5t19.5 48.5q2 4 16 12l28 16q25 19 36.5 26.5t18 11.5t8.5 11t8.5 8.5t21 5.5t29.5 17q11 9 128 68q28 14 53 21.5t46 12.5q5 4 12.5 12t18 11t27.5 15q11 8 15 9q45 13 101 26
q35 8 38.5 10.5t6 10t3.5 8.5q8 5 33 5q13 0 16 2q39 17 63 24q33 10 62 18q51 15 95 49q49 43 73 63q-13 10 -18 10q-10 0 -13.5 -3.5t-5.5 -12.5q-10 -2 -27.5 -3t-58.5 -1q-17 0 -25 10t-8 25q0 11 11.5 19.5t23.5 16.5q23 19 54 54q41 46 41 65q0 6 -14.5 11t-28.5 5
q-39 0 -107 -25q-74 -29 -147 -57q-11 0 -11 10q0 14 80 43q33 13 44 17.5t37 11.5q46 15 93 31q41 11 71 11q34 0 54.5 -11.5t20.5 -37.5q0 -20 -49 -56t-49 -47q0 -5 11.5 -15.5t17.5 -10.5q23 0 78 28q40 20 78 32q17 5 75 53.5t66 48.5q10 0 10 -12zM14 -225q0 7 -7 10
t-16 3q-14 0 -91.5 -27.5t-80.5 -30.5q-30 -24 -74.5 -39t-94.5 -32q-67 -41 -102 -60q-43 -23 -58 -31q-79 -45 -87.5 -53t-35.5 -57q-1 -2 -6 -7t-5 -11q0 -15 18.5 -28.5t34.5 -13.5q22 0 104 31q72 27 81 33q18 11 30 22q19 17 28 20q19 6 145 103q54 41 79 44
q2 20 70 68t68 56z" />
    <glyph glyph-name="z" unicode="z" horiz-adv-x="505" 
d="M530 25q0 -16 -19.5 -27t-70.5 -18q-27 0 -49 -5t-53 -21q-64 -55 -97 -83q-99 -86 -109 -100q-3 -4 -48 -41q-29 -24 -59 -55q-5 -6 -50.5 -43t-48.5 -38q-49 -27 -91 -45t-73 -21l-114 -5q-49 0 -82 9q-57 15 -57 52q0 14 10 44.5t19 48.5q3 5 16.5 12.5t28.5 15.5
q35 28 46 33q3 1 9 5.5t8 11.5t8.5 8.5t21 5.5t29.5 17q1 -1 3 -2q9 -6 62 21q28 14 53 21.5t46 12.5q5 4 12.5 12t18 11t27.5 15q11 8 15 9q45 13 101 26q35 8 38.5 10.5t6 10t3.5 8.5q8 5 33 5q13 0 16 2q39 17 63 24q33 10 62 18q51 15 95 49q47 42 70 61q-10 8 -14 8
q-11 0 -16 -8q-1 -2 -2 -8q-6 -1 -25.5 -2.5t-61.5 -1.5q-18 0 -26.5 10.5t-8.5 26.5q0 12 12 20.5t24 16.5q36 32 50 46q38 39 38 57q0 3 -19 5t-42 2q-21 0 -41.5 -1t-32.5 -1q-17 0 -51 -16q-19 -9 -29 -9q-5 0 -17.5 12.5t-12.5 17.5t10 12q14 10 50 23q11 4 25.5 6
t28.5 2q11 0 22.5 -0.5t22.5 -0.5q22 0 34.5 3.5t23.5 3.5q3 0 23 -2t45 -2h28q15 0 24.5 -3.5t9.5 -27.5q0 -21 -46 -52t-46 -42q0 -8 7 -18.5t20 -10.5q49 0 49 -44q0 -29 -15 -48q-19 -17 -26 -24q5 -9 10.5 -16.5t12.5 -7.5t22 9l50 30q3 -3 -2 -16.5t-8 -23.5zM160 -93
q0 11 -21 11q-13 0 -90.5 -27.5t-80.5 -30.5q-30 -24 -74.5 -39t-94.5 -32q-44 -27 -62 -33q-17 -4 -35 -9q-79 -45 -87 -52.5t-35 -56.5q-1 -2 -6 -6t-5 -11q0 -14 18 -27t33 -13q6 0 41 -7q20 -4 33 -4q17 0 34.5 4.5t39 14.5t56.5 25q23 10 36 16q36 18 113 83
q56 48 102 82q53 49 72 76q13 19 13 36z" />
    <glyph glyph-name="braceleft" unicode="{" horiz-adv-x="224" 
d="M284 751q0 -19 -18 -19q-7 0 -35 5t-35 5q-8 -2 -26.5 -4t-36.5 -2q-36 0 -43 -51q-3 -23 -3 -55q0 -30 5 -67t5 -47q0 -4 -2 -8t-3 -7q0 -6 5 -15q2 -3 6 -10.5t4 -16.5q-1 -15 -1 -29q3 -15 16 -52q8 -23 8 -66q0 -26 -8 -45q-2 -6 -8 -14q6 -9 8 -14q8 -17 8 -31
q0 -9 -3 -20t-3 -19q0 -3 5 -8t5 -8q-15 -54 -22 -82q-23 -89 -23 -108v-69q0 -8 12 -21q16 -17 37 -17q17 0 55.5 13t56.5 28l2 -8q0 -11 -32 -28q-10 -5 -33 -15q-30 -19 -39.5 -24.5t-25.5 -5.5q-31 0 -48.5 27t-17.5 58q0 6 4 18t4 25v46q0 50 12.5 102t25.5 106v21
q-3 7 -12 7q-5 0 -21 -8q-5 -2 -15 -8q-16 0 -16 17q0 5 28 33t28 80q-4 2 -6 4q-14 17 -14 62q-9 20 -15.5 51.5t-6.5 83.5v44q-8 11 -8 31q0 8 5 31q1 7 7 29l4 42q11 56 85 56q14 0 40.5 -5t49.5 -5h17t15 1q17 0 17 -14z" />
    <glyph glyph-name="braceright" unicode="}" horiz-adv-x="182" 
d="M152 726q-12 -48 -17 -73q-18 -80 -18 -100q0 -5 -21 -88q-7 -28 -22 -84q0 -15 32 -23t32 -16q0 -10 -38 -19t-38 -19q0 -40 45 -169q21 -60 21 -105q0 -19 -5.5 -54t-13.5 -49q-3 -5 -14 -21q-14 -21 -22 -29q-25 -27 -32 -33t-12 -6q-11 0 -20 10.5t-17 20.5
q-10 10 -30 17.5t-22 9.5q4 1 5 2t1 2q12 0 28 -8q36 -18 42 -18q42 0 58 53q10 32 10 83v15q0 47 -24 137t-24 118q0 45 25 66q-11 13 -17 24.5t-6 18.5q0 9 14 45q2 6 7 17l47 257q0 16 -17.5 29t-29.5 13q-16 -7 -25 -10q-27 -10 -36 -8q-3 1 -4.5 2t-2.5 2q-5 0 -24 -8
t-22 -8q-6 3 -9 4q-10 5 -10 9q0 5 18 18q23 16 51.5 24.5t56.5 13.5q8 1 18 3q18 0 50 -22.5t32 -43.5z" />
  </font>
</defs>
</svg>
