<?xml version="1.0" standalone="no"?>
<!DOCTYPE svg PUBLIC "-//W3C//DTD SVG 1.1//EN" "http://www.w3.org/Graphics/SVG/1.1/DTD/svg11.dtd" >
<svg xmlns="http://www.w3.org/2000/svg" xmlns:xlink="http://www.w3.org/1999/xlink" version="1.1">
<metadata>
Created by FontForge 20170924 at Wed Jul 30 13:38:31 2014
 By www-data
Copyright (c) 2014 Monotype GmbH. All rights reserved.
</metadata>
<defs>
<font id="UniversLTPro-Ex" horiz-adv-x="740" >
  <font-face 
    font-family="Univers LT Pro 53 Extended"
    font-weight="400"
    font-stretch="expanded"
    units-per-em="1000"
    panose-1="2 11 6 5 3 5 2 2 2 4"
    ascent="724"
    descent="-276"
    x-height="502"
    cap-height="722"
    bbox="-240 -206 1252 945"
    underline-thickness="50"
    underline-position="-125"
    unicode-range="U+000D-FB04"
  />
<missing-glyph horiz-adv-x="512" 
d="M512 718v-718h-512v718h512zM462 50v617h-412v-617h412zM272 265v-32h-49v39q0 61 54.5 111.5t54.5 90.5q0 36 -22.5 60.5t-53.5 24.5t-53.5 -22t-28.5 -73l-50 8q7 72 44 104.5t91 32.5t89 -35.5t35 -95.5q0 -51 -28.5 -83.5t-55.5 -55t-27 -74.5zM217 184h61v-67h-61
v67z" />
    <glyph glyph-name="napostrophe" unicode="&#x22;n" 
d="M648 286v-286h-98v281q0 79 -43 125.5t-118 46.5q-88 0 -143.5 -57.5t-55.5 -156.5v-239h-98v396q0 20 -1 48.5t-3 57.5h92q2 -20 3 -41t1 -48h2q43 58 97 83t122 25q114 0 178.5 -63t64.5 -172zM60 567h-77l49 155h104z" />
    <glyph glyph-name="IJ" unicode="IJ" horiz-adv-x="1026" 
d="M200 722v-722h-104v722h104zM918 722v-458q0 -140 -76 -211.5t-234 -71.5q-124 0 -200 60t-78 164h110q2 -72 48.5 -107t128.5 -35q197 0 197 209v450h104z" />
    <glyph glyph-name="ij" unicode="ij" horiz-adv-x="592" 
d="M197 722v-100h-98v100h98zM197 502v-502h-98v502h98zM493 722v-100h-98v100h98zM493 502v-552q0 -76 -37 -112t-125 -36q-50 0 -69 4v72q8 0 18.5 -1t30.5 -1q52 0 68 25t16 84v517h98z" />
    <glyph glyph-name="fi" unicode="fi" 
d="M432 654q-30 4 -38.5 5t-26.5 1q-62 0 -85.5 -29t-23.5 -87v-42h161v-68h-161v-434h-98v434h-131v68h131v32q0 100 43 147t138 47q21 0 45 -1.5t46 -4.5v-68zM641 722v-100h-98v100h98zM641 502v-502h-98v502h98z" />
    <glyph glyph-name="fl" unicode="fl" 
d="M432 654q-30 4 -38.5 5t-26.5 1q-62 0 -85.5 -29t-23.5 -87v-42h161v-68h-161v-434h-98v434h-131v68h131v32q0 100 43 147t138 47q21 0 45 -1.5t46 -4.5v-68zM641 722v-722h-98v722h98z" />
    <glyph glyph-name="f_f" unicode="ff" horiz-adv-x="827" 
d="M815 654q-30 4 -38.5 5t-26.5 1q-62 0 -85.5 -29t-23.5 -87v-42h161v-68h-161v-434h-98v434h-285v-434h-98v434h-131v68h131v32q0 100 43 147t138 47q21 0 45 -1.5t46 -4.5v-68q-30 4 -38.5 5t-26.5 1q-62 0 -85.5 -29t-23.5 -87v-42h285v32q0 100 43 147t138 47
q21 0 45 -1.5t46 -4.5v-68z" />
    <glyph glyph-name="f_f_i" unicode="ffi" horiz-adv-x="1123" 
d="M815 654q-30 4 -38.5 5t-26.5 1q-62 0 -85.5 -29t-23.5 -87v-42h161v-68h-161v-434h-98v434h-285v-434h-98v434h-131v68h131v32q0 100 43 147t138 47q21 0 45 -1.5t46 -4.5v-68q-30 4 -38.5 5t-26.5 1q-62 0 -85.5 -29t-23.5 -87v-42h285v32q0 100 43 147t138 47
q21 0 45 -1.5t46 -4.5v-68zM1024 722v-100h-98v100h98zM1024 502v-502h-98v502h98z" />
    <glyph glyph-name="f_f_l" unicode="ffl" horiz-adv-x="1123" 
d="M815 654q-30 4 -38.5 5t-26.5 1q-62 0 -85.5 -29t-23.5 -87v-42h161v-68h-161v-434h-98v434h-285v-434h-98v434h-131v68h131v32q0 100 43 147t138 47q21 0 45 -1.5t46 -4.5v-68q-30 4 -38.5 5t-26.5 1q-62 0 -85.5 -29t-23.5 -87v-42h285v32q0 100 43 147t138 47
q21 0 45 -1.5t46 -4.5v-68zM1024 722v-722h-98v722h98z" />
    <glyph glyph-name=".notdef" horiz-adv-x="512" 
d="M512 718v-718h-512v718h512zM462 50v617h-412v-617h412zM272 265v-32h-49v39q0 61 54.5 111.5t54.5 90.5q0 36 -22.5 60.5t-53.5 24.5t-53.5 -22t-28.5 -73l-50 8q7 72 44 104.5t91 32.5t89 -35.5t35 -95.5q0 -51 -28.5 -83.5t-55.5 -55t-27 -74.5zM217 184h61v-67h-61
v67z" />
    <glyph glyph-name="null" horiz-adv-x="0" 
 />
    <glyph glyph-name="null" horiz-adv-x="0" 
 />
    <glyph glyph-name="nonmarkingreturn" unicode="&#xd;" horiz-adv-x="370" 
 />
    <glyph glyph-name="space" unicode=" " horiz-adv-x="370" 
 />
    <glyph glyph-name="exclam" unicode="!" horiz-adv-x="518" 
d="M317 722l-17 -546h-82l-17 546h116zM314 110v-110h-110v110h110z" />
    <glyph glyph-name="quotedbl" unicode="&#x22;" horiz-adv-x="593" 
d="M243 722v-214h-88v214h88zM438 722v-214h-88v214h88z" />
    <glyph glyph-name="numbersign" unicode="#" 
d="M364 692l-29 -206h110l29 206h82l-29 -206h91v-74h-102l-18 -132h91v-74h-102l-29 -206h-82l29 206h-110l-29 -206h-82l29 206h-91v74h102l18 132h-91v74h102l29 206h82zM306 280h110l18 132h-110z" />
    <glyph glyph-name="dollar" unicode="$" 
d="M353 812h58v-71q131 -8 201 -62.5t75 -148.5h-110q-5 51 -45 84.5t-121 41.5v-246l128 -22q85 -15 128 -61t43 -115q0 -100 -79 -161.5t-220 -69.5v-71h-58v71q-149 2 -231 60.5t-92 174.5h110q2 -67 59 -108t154 -45v257q-174 17 -237 66t-63 136q0 101 79 158.5
t221 60.5v71zM353 659h-7q-81 0 -135 -37.5t-54 -93.5q0 -75 113 -94l83 -14v239zM411 63q94 7 144.5 45t50.5 93q0 45 -39 71.5t-156 41.5v-251z" />
    <glyph glyph-name="percent" unicode="%" horiz-adv-x="1110" 
d="M871 721l-544 -750h-82l544 750h82zM153.5 384.5q-47.5 49.5 -47.5 138.5t46.5 138.5t130.5 49.5t130.5 -50.5t46.5 -137.5q0 -89 -48 -138.5t-129 -49.5q-82 0 -129.5 49.5zM358.5 619.5q-27.5 33.5 -75.5 33.5t-75.5 -33.5t-27.5 -96.5t27.5 -96.5t75.5 -33.5
t75.5 33.5t27.5 96.5t-27.5 96.5zM697 30.5q-47 49.5 -47 138.5t46.5 138.5t130.5 49.5t130.5 -50.5t46.5 -137.5q0 -89 -46.5 -138.5t-130.5 -49.5q-83 0 -130 49.5zM902.5 265.5q-27.5 33.5 -75.5 33.5t-75.5 -33.5t-27.5 -96.5t28 -96.5t75 -33.5q48 0 75.5 33.5
t27.5 96.5t-27.5 96.5z" />
    <glyph glyph-name="ampersand" unicode="&#x26;" horiz-adv-x="962" 
d="M446 401l223 -180q42 57 62.5 116t25.5 121h98q-9 -91 -35.5 -160.5t-79.5 -134.5l202 -163h-155l-112 94q-123 -113 -297 -113q-136 0 -219.5 60t-83.5 156q0 85 55.5 136.5t158.5 87.5q-99 69 -99 157q0 71 55 117t145 46t142 -47t52 -111q0 -116 -138 -182zM382 453
q55 23 84.5 56t29.5 69q0 41 -31 68t-74 27q-41 0 -72 -27t-31 -68q0 -29 22.5 -60.5t71.5 -64.5zM358 363q-87 -29 -133 -70t-46 -92q0 -63 55 -104.5t144 -41.5q63 0 121.5 23.5t110.5 71.5z" />
    <glyph glyph-name="quotesingle" unicode="'" horiz-adv-x="370" 
d="M229 722v-214h-88v214h88z" />
    <glyph glyph-name="parenleft" unicode="(" horiz-adv-x="370" 
d="M313 741q-67 -111 -102.5 -225.5t-35.5 -213.5t36 -216.5t102 -222.5h-82q-75 122 -114.5 234.5t-39.5 204.5q0 94 39.5 207.5t114.5 231.5h82z" />
    <glyph glyph-name="parenright" unicode=")" horiz-adv-x="370" 
d="M139 741q75 -118 114.5 -231.5t39.5 -207.5q0 -99 -39.5 -210t-114.5 -229h-82q67 110 102.5 223.5t35.5 215.5q0 101 -36 217.5t-102 221.5h82z" />
    <glyph glyph-name="asterisk" unicode="*" horiz-adv-x="592" 
d="M241 722l55 -140l55 140l69 -38l-94 -122l151 20v-74l-151 20l93 -122l-63 -38l-60 140l-60 -140l-63 38l93 122l-151 -20v74l151 -20l-94 122z" />
    <glyph glyph-name="plus" unicode="+" horiz-adv-x="600" 
d="M344 506v-209h209v-88h-209v-209h-88v209h-209v88h209v209h88z" />
    <glyph glyph-name="comma" unicode="," horiz-adv-x="370" 
d="M276 110l-100 -214h-82l64 214h118z" />
    <glyph glyph-name="hyphen" unicode="-" horiz-adv-x="444" 
d="M390 311v-88h-336v88h336z" />
    <glyph glyph-name="period" unicode="." horiz-adv-x="370" 
d="M240 110v-110h-110v110h110z" />
    <glyph glyph-name="slash" unicode="/" horiz-adv-x="444" 
d="M433 741l-324 -760h-98l324 760h98z" />
    <glyph glyph-name="zero" unicode="0" 
d="M608 74.5q-80 -93.5 -238 -93.5q-159 0 -238.5 95t-79.5 270q0 180 81.5 272.5t236.5 92.5q158 0 238 -94.5t80 -270.5q0 -178 -80 -271.5zM530 136q54 73 54 210t-55 210t-160 73q-103 0 -158 -72.5t-55 -210.5t55.5 -210.5t158.5 -72.5q106 0 160 73z" />
    <glyph glyph-name="one" unicode="1" 
d="M465 692v-692h-104v586q-40 -38 -90.5 -66.5t-113.5 -49.5v93q60 23 117 57t96 72h95z" />
    <glyph glyph-name="two" unicode="2" 
d="M539.5 307q-105.5 -103 -323.5 -223v-2h452v-82h-596v92q263 150 366 239t103 161q0 61 -46.5 99t-120.5 38q-82 0 -129.5 -37.5t-47.5 -101.5h-110q4 101 82.5 161t199.5 60q132 0 204 -58t72 -148q0 -95 -105.5 -198z" />
    <glyph glyph-name="three" unicode="3" 
d="M604 414q-37 -43 -104 -56v-2q79 -14 121.5 -57t42.5 -112q0 -100 -83 -153t-239 -53q-136 0 -208.5 53t-75.5 149h104q2 -57 54 -88.5t133 -31.5q96 0 153.5 34.5t57.5 93.5q0 62 -57 93.5t-177 31.5h-46v82h44q108 0 163.5 28t55.5 85q0 52 -49 85t-129 33
q-86 0 -135 -29t-49 -79h-104q0 82 78 136t189 54q145 0 221 -51t76 -143q0 -60 -37 -103z" />
    <glyph glyph-name="four" unicode="4" 
d="M554 692v-446h154v-82h-154v-164h-98v164h-424v112l398 416h124zM456 604l-336 -355v-3h336v358z" />
    <glyph glyph-name="five" unicode="5" 
d="M635 692v-82h-427l-12 -218q41 38 88.5 57.5t117.5 19.5q119 0 196.5 -65.5t77.5 -171.5q0 -118 -83.5 -184.5t-220.5 -66.5q-133 0 -212.5 54t-79.5 151h110q2 -58 49 -90.5t123 -32.5q91 0 150.5 45t59.5 120q0 74 -58.5 116.5t-144.5 42.5q-63 0 -109.5 -26.5
t-63.5 -75.5h-101l18 407h522z" />
    <glyph glyph-name="six" unicode="6" 
d="M664 512h-104q-10 63 -54.5 90t-122.5 27q-100 0 -157.5 -69t-59.5 -192q45 48 101 71t126 23q127 0 206 -65t79 -171q0 -114 -80 -179.5t-219 -65.5q-159 0 -238 90.5t-79 261.5q0 192 83.5 285t247.5 93q123 0 194 -52.5t77 -146.5zM518.5 106.5q55.5 43.5 55.5 114.5
q0 73 -56.5 116t-141.5 43t-140.5 -44t-55.5 -115q0 -69 56.5 -113.5t140.5 -44.5q86 0 141.5 43.5z" />
    <glyph glyph-name="seven" unicode="7" 
d="M644 692v-88l-325 -604h-122l337 604h-467v88h577z" />
    <glyph glyph-name="eight" unicode="8" 
d="M611.5 419q-45.5 -46 -116.5 -58v-2q87 -10 137 -59t50 -115q0 -95 -86 -149.5t-226 -54.5q-142 0 -227 55t-85 149q0 65 48.5 114.5t131.5 59.5v2q-69 12 -114 58t-45 104q0 91 76.5 139.5t214.5 48.5q140 0 213.5 -49.5t73.5 -138.5q0 -58 -45.5 -104zM500.5 432
q52.5 34 52.5 82q0 54 -46.5 84.5t-137.5 30.5q-89 0 -137.5 -29.5t-48.5 -84.5q0 -49 53.5 -83t133.5 -34q78 0 130.5 34zM515.5 98.5q56.5 35.5 56.5 90.5t-57 91t-146 36t-148 -35t-59 -92q0 -56 58 -91t150 -35q89 0 145.5 35.5z" />
    <glyph glyph-name="nine" unicode="9" 
d="M600.5 75q-76.5 -94 -250.5 -94q-124 0 -195.5 51.5t-82.5 152.5h110q5 -58 51.5 -90t125.5 -32q103 0 157 72t63 215h-2q-35 -53 -94 -80t-152 -27q-109 0 -188.5 64t-79.5 167q0 107 81.5 172t212.5 65q167 0 243.5 -84t76.5 -254q0 -204 -76.5 -298zM503.5 370
q53.5 45 53.5 107t-53.5 107t-143.5 45q-87 0 -140 -45t-53 -107t53 -107t141 -45q89 0 142.5 45z" />
    <glyph glyph-name="colon" unicode=":" horiz-adv-x="370" 
d="M240 502v-110h-110v110h110zM240 110v-110h-110v110h110z" />
    <glyph glyph-name="semicolon" unicode=";" horiz-adv-x="370" 
d="M268 502v-110h-110v110h110zM276 110l-100 -214h-82l64 214h118z" />
    <glyph glyph-name="less" unicode="&#x3c;" horiz-adv-x="600" 
d="M553 426l-393 -173l393 -173v-88l-506 224v74l506 224v-88z" />
    <glyph glyph-name="equal" unicode="=" horiz-adv-x="600" 
d="M553 402v-88h-506v88h506zM553 192v-88h-506v88h506z" />
    <glyph glyph-name="greater" unicode="&#x3e;" horiz-adv-x="600" 
d="M47 514l506 -224v-74l-506 -224v88l393 173l-393 173v88z" />
    <glyph glyph-name="question" unicode="?" horiz-adv-x="593" 
d="M505.5 464.5q-26.5 -40.5 -97.5 -98.5l-84 -67q-11 -8 -18.5 -20.5t-7.5 -33.5v-76h-82v90q0 26 12.5 47.5t34.5 40.5l112 95q29 24 41 53t12 58q0 55 -42.5 84.5t-126.5 29.5q-43 0 -86 -8t-80 -19v82q45 7 93.5 13t93.5 6q125 0 188.5 -48.5t63.5 -136.5
q0 -51 -26.5 -91.5zM312 110v-110h-110v110h110z" />
    <glyph glyph-name="at" unicode="@" horiz-adv-x="800" 
d="M457 209h-2q-26 -31 -57.5 -43t-64.5 -12q-54 0 -94.5 45t-40.5 116q0 95 63 168.5t151 73.5q35 0 65 -16.5t49 -51.5l16 54h74l-65 -239q-5 -16 -7 -30t-2 -20q0 -24 29 -24q52 0 93.5 53.5t41.5 128.5q0 113 -80 184t-209 71t-219 -89t-90 -219q0 -135 87 -219.5
t231 -84.5q68 0 130.5 24.5t107.5 70.5h82q-55 -81 -138.5 -125t-188.5 -44q-177 0 -288 103.5t-111 267.5q0 170 114 279.5t289 109.5q145 0 251 -89t106 -223q0 -129 -86.5 -202t-175.5 -73q-56 0 -61 55zM474 451q-23 24 -56 24q-58 0 -95 -45t-37 -101q0 -42 22.5 -67.5
t57.5 -25.5q52 0 91.5 51t39.5 107q0 33 -23 57z" />
    <glyph glyph-name="A" unicode="A" horiz-adv-x="888" 
d="M505 722l371 -722h-119l-93 188h-443l-93 -188h-116l371 722h122zM263 270h361l-180 364z" />
    <glyph glyph-name="B" unicode="B" horiz-adv-x="814" 
d="M435 722q141 0 208 -41.5t67 -140.5q0 -69 -37 -107.5t-107 -52.5v-3q83 -10 127 -58.5t44 -117.5q0 -94 -71.5 -147.5t-200.5 -53.5h-369v722h339zM467 418q139 0 139 110q0 60 -40.5 86t-137.5 26h-228v-222h267zM445 82q99 0 140.5 31.5t41.5 93.5q0 129 -184 129
h-243v-254h245z" />
    <glyph glyph-name="C" unicode="C" horiz-adv-x="888" 
d="M695 532q-11 60 -61.5 93.5t-141.5 33.5q-135 0 -211.5 -79.5t-76.5 -218.5q0 -141 76 -219.5t212 -78.5q87 0 144.5 38.5t68.5 99.5h116q-15 -106 -105.5 -163t-243.5 -57q-177 0 -277.5 108t-100.5 272t108 272t298 108q128 0 216.5 -59t94.5 -150h-116z" />
    <glyph glyph-name="D" unicode="D" horiz-adv-x="888" 
d="M382 722q223 0 327 -88t104 -281q0 -175 -107 -264t-308 -89h-296v722h280zM404 82q147 0 223 71.5t76 207.5q0 148 -76.5 213.5t-250.5 65.5h-170v-558h198z" />
    <glyph glyph-name="E" unicode="E" 
d="M648 722v-82h-436v-228h408v-82h-408v-248h448v-82h-552v722h540z" />
    <glyph glyph-name="F" unicode="F" horiz-adv-x="667" 
d="M609 722v-82h-409v-236h389v-82h-389v-322h-104v722h513z" />
    <glyph glyph-name="G" unicode="G" horiz-adv-x="962" 
d="M741 535q-34 124 -235 124q-143 0 -227.5 -83t-84.5 -214q0 -130 87 -214.5t233 -84.5q57 0 119.5 11.5t120.5 34.5v186h-231v82h335v-326q-91 -38 -177 -54t-171 -16q-199 0 -312.5 104.5t-113.5 275.5q0 164 110 272t303 108q165 0 251 -51.5t103 -154.5h-110z" />
    <glyph glyph-name="H" unicode="H" horiz-adv-x="888" 
d="M212 722v-304h464v304h104v-722h-104v336h-464v-336h-104v722h104z" />
    <glyph glyph-name="I" unicode="I" horiz-adv-x="296" 
d="M200 722v-722h-104v722h104z" />
    <glyph glyph-name="J" unicode="J" 
d="M632 722v-458q0 -140 -76 -211.5t-234 -71.5q-124 0 -200 60t-78 164h110q2 -72 48.5 -107t128.5 -35q197 0 197 209v450h104z" />
    <glyph glyph-name="K" unicode="K" horiz-adv-x="814" 
d="M225 722v-323l388 323h152l-410 -326l444 -396h-152l-422 387v-387h-104v722h104z" />
    <glyph glyph-name="L" unicode="L" horiz-adv-x="667" 
d="M225 722v-640h416v-82h-520v722h104z" />
    <glyph glyph-name="M" unicode="M" horiz-adv-x="1184" 
d="M274 722l318 -634l318 634h166v-722h-104v648h-2l-323 -648h-110l-323 648h-2v-648h-104v722h166z" />
    <glyph glyph-name="N" unicode="N" horiz-adv-x="888" 
d="M241 722l442 -616h2v616h104v-722h-142l-442 616h-2v-616h-104v722h142z" />
    <glyph glyph-name="O" unicode="O" horiz-adv-x="962" 
d="M181.5 89.5q-106.5 108.5 -106.5 271.5q0 166 108.5 273t297.5 107q195 0 300.5 -109t105.5 -271q0 -166 -107 -273t-299 -107q-193 0 -299.5 108.5zM694 576.5q-83 82.5 -214 82.5q-130 0 -212.5 -83.5t-82.5 -214.5q0 -132 82 -215t214 -83q133 0 214.5 83t81.5 215
q0 133 -83 215.5z" />
    <glyph glyph-name="P" unicode="P" horiz-adv-x="814" 
d="M453 722q156 0 223 -45.5t67 -149.5q0 -102 -67.5 -156t-188.5 -54h-262v-317h-104v722h332zM459 399q88 0 131 30.5t43 97.5q0 63 -43.5 88t-136.5 25h-228v-241h234z" />
    <glyph glyph-name="Q" unicode="Q" horiz-adv-x="962" 
d="M754 84v-2h200v-82h-329q-35 -11 -73 -15t-71 -4q-192 0 -299 108t-107 272q0 163 106.5 271.5t299.5 108.5q192 0 299 -108t107 -272q0 -79 -35 -152.5t-98 -124.5zM693.5 577.5q-83.5 81.5 -214.5 81.5q-130 0 -212 -83t-82 -215q0 -133 83 -215.5t213 -82.5
q131 0 213.5 82.5t82.5 215.5q0 135 -83.5 216.5z" />
    <glyph glyph-name="R" unicode="R" horiz-adv-x="814" 
d="M448 722q144 0 210 -42.5t66 -146.5q0 -70 -45 -114.5t-120 -55.5v-2q69 -9 97.5 -40.5t46.5 -145.5l5 -32q15 -99 34 -143h-110q-8 21 -26 114l-11 61q-15 76 -25 93t-44 35.5t-133 18.5h-193v-322h-104v722h352zM440 404q89 0 131.5 27.5t42.5 90.5q0 67 -40.5 92.5
t-132.5 25.5h-241v-236h240z" />
    <glyph glyph-name="S" unicode="S" horiz-adv-x="814" 
d="M614 530q-13 129 -229 129q-82 0 -136.5 -37t-54.5 -94q0 -38 28.5 -61.5t96.5 -34.5l252 -43q88 -14 132 -60.5t44 -116.5q0 -109 -92.5 -170t-250.5 -61q-157 0 -242 58.5t-95 176.5h110q2 -70 65.5 -111.5t167.5 -41.5q111 0 172 38.5t61 99.5q0 54 -54.5 80t-205 40
t-222 60.5t-71.5 142.5q0 100 81.5 158.5t233.5 58.5q148 0 230.5 -54.5t88.5 -156.5h-110z" />
    <glyph glyph-name="T" unicode="T" 
d="M728 722v-88h-306v-634h-104v634h-306v88h716z" />
    <glyph glyph-name="U" unicode="U" horiz-adv-x="888" 
d="M212 722v-437q0 -103 60 -162.5t172 -59.5t172 59.5t60 162.5v437h104v-433q0 -142 -89.5 -225t-246.5 -83t-246.5 83t-89.5 225v433h104z" />
    <glyph glyph-name="V" unicode="V" horiz-adv-x="814" 
d="M127 722l283 -634l282 634h110l-332 -722h-127l-331 722h115z" />
    <glyph glyph-name="W" unicode="W" horiz-adv-x="1258" 
d="M122 722l213 -634h2l222 634h140l222 -634h2l213 634h110l-251 -722h-144l-221 634h-2l-221 -634h-144l-251 722h110z" />
    <glyph glyph-name="X" unicode="X" horiz-adv-x="814" 
d="M184 722l230 -286l241 286h128l-305 -347l324 -375h-140l-254 311l-256 -311h-140l329 375l-297 347h140z" />
    <glyph glyph-name="Y" unicode="Y" horiz-adv-x="814" 
d="M146 722l261 -335l261 335h134l-343 -421v-301h-104v301l-343 421h134z" />
    <glyph glyph-name="Z" unicode="Z" 
d="M688 722v-110l-524 -530h540v-82h-668v94l542 546h-520v82h630z" />
    <glyph glyph-name="bracketleft" unicode="[" horiz-adv-x="370" 
d="M324 741v-58h-120v-762h120v-58h-208v878h208z" />
    <glyph glyph-name="backslash" unicode="\" horiz-adv-x="444" 
d="M109 741l324 -760h-98l-324 760h98z" />
    <glyph glyph-name="bracketright" unicode="]" horiz-adv-x="370" 
d="M254 741v-878h-208v58h120v762h-120v58h208z" />
    <glyph glyph-name="asciicircum" unicode="^" horiz-adv-x="600" 
d="M341 692l199 -404h-88l-152 316l-152 -316h-88l199 404h82z" />
    <glyph glyph-name="underscore" unicode="_" horiz-adv-x="500" 
d="M500 -75v-50h-500v50h500z" />
    <glyph glyph-name="grave" unicode="`" horiz-adv-x="296" 
d="M124 722l114 -140h-82l-154 140h122z" />
    <glyph glyph-name="a" unicode="a" horiz-adv-x="666" 
d="M583 69q2 -47 4 -69h-92q-2 16 -3 35.5t-1 34.5h-2q-42 -52 -88.5 -70.5t-128.5 -18.5q-97 0 -156.5 47t-59.5 117q0 86 70.5 125.5t211.5 40.5q108 1 147 1v15q0 64 -37 95t-119 31q-52 0 -90.5 -20.5t-42.5 -61.5h-104q7 73 73 111.5t177 38.5q117 0 179 -47t62 -130
v-275zM485 221v24h-58t-132 -5q-69 -5 -102 -26.5t-33 -65.5q0 -41 35 -70t101 -29q97 0 143 43.5t46 128.5z" />
    <glyph glyph-name="b" unicode="b" 
d="M184 722v-286q40 42 93 63.5t126 21.5q119 0 200 -77t81 -193t-81 -193t-199 -77q-67 0 -124.5 23t-95.5 67q0 -21 -1 -37t-3 -34h-98q3 56 4 117v605h98zM526 398q-54 55 -145 55q-88 0 -142.5 -55t-54.5 -147t54 -147t144 -55t144 55t54 147t-54 147z" />
    <glyph glyph-name="c" unicode="c" horiz-adv-x="666" 
d="M502 342q-7 54 -47 82.5t-103 28.5q-86 0 -139 -55t-53 -148q0 -89 51.5 -145t135.5 -56q69 0 112 29.5t47 83.5h104q-5 -83 -80 -132t-188 -49q-135 0 -210.5 71.5t-75.5 197.5t79.5 198.5t215.5 72.5q109 0 176.5 -47t78.5 -132h-104z" />
    <glyph glyph-name="d" unicode="d" 
d="M654 722v-611q0 -13 1 -43.5t3 -67.5h-98q-4 42 -4 71q-39 -44 -96 -67t-124 -23q-118 0 -199 77t-81 193q0 118 82.5 194t197.5 76q75 0 127.5 -21.5t92.5 -63.5v286h98zM502 398q-54 55 -145 55q-88 0 -142.5 -54.5t-54.5 -147.5t54 -147.5t144 -54.5q88 0 143 54.5
t55 147.5q0 92 -54 147z" />
    <glyph glyph-name="e" unicode="e" horiz-adv-x="666" 
d="M147 225q8 -83 58 -129.5t128 -46.5q61 0 107.5 26.5t60.5 75.5h104q-12 -82 -83.5 -126t-183.5 -44q-134 0 -211.5 69t-77.5 191q0 135 77.5 207.5t214.5 72.5q132 0 204 -69t72 -199v-28h-470zM513 293q0 76 -48.5 118t-127.5 42q-78 0 -126.5 -40.5t-59.5 -119.5h362z
" />
    <glyph glyph-name="f" unicode="f" horiz-adv-x="444" 
d="M432 654q-30 4 -38.5 5t-26.5 1q-62 0 -85.5 -29t-23.5 -87v-42h161v-68h-161v-434h-98v434h-131v68h131v32q0 100 43 147t138 47q21 0 45 -1.5t46 -4.5v-68z" />
    <glyph glyph-name="g" unicode="g" 
d="M559 434q0 24 1 40t3 28h92q-3 -46 -4 -89v-343q0 -149 -73.5 -212.5t-233.5 -63.5q-136 0 -201 40.5t-69 130.5h104q3 -48 43.5 -75.5t115.5 -27.5q109 0 162.5 45t53.5 156v34h-2q-34 -42 -87.5 -65t-119.5 -23q-129 0 -208.5 72t-79.5 184q0 113 80 184.5t208 71.5
q66 0 118 -20.5t97 -66.5zM502.5 128q50.5 51 50.5 139t-51.5 137t-147.5 49q-91 0 -142.5 -49.5t-51.5 -136.5q0 -91 52.5 -140.5t142.5 -49.5q97 0 147.5 51z" />
    <glyph glyph-name="h" unicode="h" 
d="M190 722v-308h2q35 57 90.5 82t121.5 25q115 0 179.5 -64t64.5 -170v-287h-98v281q0 79 -43.5 125.5t-117.5 46.5q-86 0 -142.5 -57t-56.5 -159v-237h-98v722h98z" />
    <glyph glyph-name="i" unicode="i" horiz-adv-x="296" 
d="M197 722v-100h-98v100h98zM197 502v-502h-98v502h98z" />
    <glyph glyph-name="j" unicode="j" horiz-adv-x="296" 
d="M197 722v-100h-98v100h98zM197 502v-552q0 -76 -37 -112t-125 -36q-50 0 -69 4v72q8 0 18.5 -1t30.5 -1q52 0 68 25t16 84v517h98z" />
    <glyph glyph-name="k" unicode="k" horiz-adv-x="666" 
d="M197 722v-426l268 206h140l-279 -217l327 -285h-146l-310 278v-278h-98v722h98z" />
    <glyph glyph-name="l" unicode="l" horiz-adv-x="296" 
d="M197 722v-722h-98v722h98z" />
    <glyph glyph-name="m" unicode="m" horiz-adv-x="1110" 
d="M580 395q32 59 87.5 92.5t120.5 33.5q115 0 172.5 -59.5t57.5 -171.5v-290h-98v254q0 99 -34.5 149t-107.5 50q-78 0 -126 -58.5t-48 -164.5v-230h-98v259q0 94 -32.5 144t-103.5 50q-76 0 -128 -56t-52 -152v-245h-98v396q0 20 -1 48.5t-3 57.5h92q4 -46 4 -89h2
q43 58 96 83t115 25q66 0 114.5 -32.5t68.5 -93.5z" />
    <glyph glyph-name="n" unicode="n" 
d="M648 286v-286h-98v281q0 79 -43 125.5t-118 46.5q-88 0 -143.5 -57.5t-55.5 -156.5v-239h-98v396q0 20 -1 48.5t-3 57.5h92q2 -20 3 -41t1 -48h2q43 58 97 83t122 25q114 0 178.5 -63t64.5 -172z" />
    <glyph glyph-name="o" unicode="o" 
d="M602.5 50q-81.5 -69 -232.5 -69t-232.5 70t-81.5 200q0 127 81 198.5t233 71.5q151 0 232.5 -70t81.5 -200q0 -132 -81.5 -201zM524 105q56 56 56 146q0 92 -57 147t-154 55q-96 0 -152.5 -55.5t-56.5 -146.5q0 -93 58 -147.5t152 -54.5q98 0 154 56z" />
    <glyph glyph-name="p" unicode="p" 
d="M602.5 57.5q-81.5 -76.5 -199.5 -76.5q-73 0 -126 21.5t-93 63.5v-258h-98v588q0 20 -1 48.5t-3 57.5h98q3 -51 4 -71q38 44 95.5 67t124.5 23q118 0 199 -77.5t81 -192.5q0 -117 -81.5 -193.5zM526 103q54 54 54 148q0 92 -54 147t-145 55q-87 0 -142 -54.5t-55 -147.5
t55 -147.5t143 -54.5q90 0 144 54z" />
    <glyph glyph-name="q" unicode="q" 
d="M556 431q0 19 1 35.5t3 35.5h98q-3 -48 -3 -68t-1 -32v-594h-98v258q-39 -42 -92 -63.5t-128 -21.5q-119 0 -199.5 77t-80.5 193q0 118 82 194t198 76q67 0 124.5 -23t95.5 -67zM501 103.5q55 54.5 55 147.5t-55 147.5t-144 54.5q-88 0 -142.5 -54.5t-54.5 -147.5
t54 -147.5t144 -54.5q88 0 143 54.5z" />
    <glyph glyph-name="r" unicode="r" horiz-adv-x="444" 
d="M420 421q-11 4 -22.5 5t-23.5 1q-85 0 -134.5 -52t-49.5 -131v-244h-98v396q0 20 -1 48.5t-3 57.5h92q2 -25 3 -49.5t1 -50.5h2q35 64 77.5 85.5t124.5 21.5h32v-88z" />
    <glyph glyph-name="s" unicode="s" horiz-adv-x="666" 
d="M578 372h-95q-9 42 -44 61.5t-101 19.5q-68 0 -109 -21t-41 -55q0 -27 25.5 -43.5t81.5 -27.5l166 -31q69 -13 104 -44t35 -88q0 -162 -278 -162q-118 0 -184.5 42t-71.5 120h104q6 -46 45 -70t118 -24q82 0 122.5 23.5t40.5 63.5q0 34 -46.5 50.5t-150 31.5t-156.5 49
t-53 97q0 77 65 117t179 40t177.5 -38t66.5 -111z" />
    <glyph glyph-name="t" unicode="t" horiz-adv-x="444" 
d="M258 502h148v-68h-148v-289q0 -43 16.5 -63t59.5 -20q14 0 34 1.5t41 4.5v-68q-50 -6 -94 -6q-85 0 -120 34.5t-35 110.5v295h-131v68h131v92l98 41v-133z" />
    <glyph glyph-name="u" unicode="u" 
d="M190 502v-280q0 -79 43 -126t118 -47q88 0 143.5 58t55.5 154v241h98v-393q0 -23 1 -51t3 -58h-92q-2 20 -3 43t-1 46h-2q-43 -58 -96.5 -83t-122.5 -25q-112 0 -177.5 63t-65.5 171v287h98z" />
    <glyph glyph-name="v" unicode="v" horiz-adv-x="666" 
d="M122 502l211 -414l211 414h110l-259 -502h-126l-257 502h110z" />
    <glyph glyph-name="w" unicode="w" horiz-adv-x="1110" 
d="M124 502l180 -414l191 414h124l196 -420l183 420h101l-224 -502h-127l-197 420l-193 -420h-120l-227 502h113z" />
    <glyph glyph-name="x" unicode="x" horiz-adv-x="666" 
d="M160 502l175 -185l176 185h125l-239 -240l259 -262h-140l-190 205l-188 -205h-128l250 262l-234 240h134z" />
    <glyph glyph-name="y" unicode="y" horiz-adv-x="666" 
d="M126 502l214 -408l212 408h104l-363 -694h-110l104 192l-277 502h116z" />
    <glyph glyph-name="z" unicode="z" horiz-adv-x="593" 
d="M535 502v-82l-359 -346h369v-74h-497v82l358 346h-343v74h472z" />
    <glyph glyph-name="braceleft" unicode="{" horiz-adv-x="370" 
d="M314 683h-53q-27 0 -38.5 -20.5t-11.5 -52.5v-192q0 -45 -26 -76t-65 -39v-2q40 -8 65.5 -39t25.5 -78v-189q0 -35 12 -54.5t37 -19.5h54v-58h-75q-46 0 -81 35t-35 89v185q0 38 -25 66t-60 30v68q38 3 61.5 31.5t23.5 66.5v183q0 55 35.5 89.5t78.5 34.5h77v-58z" />
    <glyph glyph-name="bar" unicode="|" horiz-adv-x="222" 
d="M155 741v-760h-88v760h88z" />
    <glyph glyph-name="braceright" unicode="}" horiz-adv-x="370" 
d="M132 741q47 0 81 -35t34 -89v-185q0 -38 25 -66t60 -30v-68q-38 -3 -61.5 -31.5t-23.5 -66.5v-183q0 -55 -35 -89.5t-79 -34.5h-77v58h53q27 0 38.5 20t11.5 53v192q0 45 26 76t65 39v2q-40 8 -65.5 40t-25.5 77v189q0 35 -12 54.5t-37 19.5h-54v58h76z" />
    <glyph glyph-name="asciitilde" unicode="~" horiz-adv-x="600" 
d="M449 278.5q20 16.5 46 53.5l36 -69q-29 -45 -58.5 -67t-66.5 -22q-47 0 -106 35t-111 35q-26 0 -47 -18t-37 -52l-36 69q22 46 53.5 67.5t71.5 21.5q41 0 117 -35t96 -35q22 0 42 16.5z" />
    <glyph glyph-name="uni00A0" unicode="&#xa0;" horiz-adv-x="370" 
 />
    <glyph glyph-name="Agrave" unicode="&#xc0;" horiz-adv-x="888" 
d="M505 722l371 -722h-119l-93 188h-443l-93 -188h-116l371 722h122zM263 270h361l-180 364zM420 909l114 -140h-82l-154 140h122z" />
    <glyph glyph-name="Aacute" unicode="&#xc1;" horiz-adv-x="888" 
d="M505 722l371 -722h-119l-93 188h-443l-93 -188h-116l371 722h122zM263 270h361l-180 364zM590 909l-154 -140h-82l114 140h122z" />
    <glyph glyph-name="Acircumflex" unicode="&#xc2;" horiz-adv-x="888" 
d="M505 722l371 -722h-119l-93 188h-443l-93 -188h-116l371 722h122zM263 270h361l-180 364zM502 909l119 -140h-82l-95 102l-95 -102h-82l119 140h116z" />
    <glyph glyph-name="Atilde" unicode="&#xc3;" horiz-adv-x="888" 
d="M505 722l371 -722h-119l-93 188h-443l-93 -188h-116l371 722h122zM263 270h361l-180 364zM444 888l44 -14q20 -7 29 -7q17 0 30.5 10.5t15.5 31.5h58q-3 -110 -93 -110q-20 0 -44 5.5t-47 12.5l-46 13q-18 5 -29 5q-16 0 -26 -12.5t-11 -29.5h-58q0 58 23.5 87t63.5 29
q18 0 42 -6.5t48 -14.5z" />
    <glyph glyph-name="Adieresis" unicode="&#xc4;" horiz-adv-x="888" 
d="M505 722l371 -722h-119l-93 188h-443l-93 -188h-116l371 722h122zM263 270h361l-180 364zM390 909v-100h-98v100h98zM596 909v-100h-98v100h98z" />
    <glyph glyph-name="Amacron" unicode="&#x100;" horiz-adv-x="888" 
d="M505 722l371 -722h-119l-93 188h-443l-93 -188h-116l371 722h122zM263 270h361l-180 364zM617 892v-68h-346v68h346z" />
    <glyph glyph-name="Abreve" unicode="&#x102;" horiz-adv-x="888" 
d="M505 722l371 -722h-119l-93 188h-443l-93 -188h-116l371 722h122zM263 270h361l-180 364zM319 909q18 -35 52 -53.5t73 -18.5q43 0 75.5 19.5t49.5 52.5h52q-12 -69 -57 -104.5t-120 -35.5t-120 35.5t-57 104.5h52z" />
    <glyph glyph-name="Aring" unicode="&#xc5;" horiz-adv-x="888" 
d="M505 722l371 -722h-119l-93 188h-443l-93 -188h-116l371 722h122zM263 270h361l-180 364zM516 771q-30 -30 -72 -30t-72 30t-30 72q0 43 30.5 72.5t71.5 29.5q42 0 72 -30t30 -72t-30 -72zM483.5 803.5q16.5 16.5 16.5 39.5q0 22 -15.5 39t-41.5 17q-21 0 -38 -15.5
t-17 -40.5q0 -23 16.5 -39.5t39.5 -16.5t39.5 16.5z" />
    <glyph glyph-name="Aringacute" unicode="&#x1fa;" horiz-adv-x="888" 
d="M655 188h-425l-102 -188h-116l353 638q-23 26 -23 64q0 43 30.5 72.5t71.5 29.5q42 0 72 -30t30 -72q0 -19 -6 -35t-17 -29l353 -638h-119zM275 270h336l-167 310zM630 944l-146 -102h-82l106 102h122zM483.5 662.5q16.5 16.5 16.5 39.5q0 22 -15.5 39t-41.5 17
q-21 0 -38 -15.5t-17 -40.5q0 -23 16.5 -39.5t39.5 -16.5t39.5 16.5z" />
    <glyph glyph-name="Aogonek" unicode="&#x104;" horiz-adv-x="888" 
d="M757 0l-93 188h-443l-93 -188h-116l371 722h122l371 -722h-32q-59 -40 -84.5 -67t-25.5 -53q0 -20 21.5 -30t52.5 -10q15 0 31.5 2.5t31.5 7.5l17 -42q-21 -6 -53 -10t-62 -4q-63 0 -95 18.5t-32 49.5q0 34 40 75t100 63h-29zM263 270h361l-180 364z" />
    <glyph glyph-name="AE" unicode="&#xc6;" horiz-adv-x="1333" 
d="M1231 722v-88h-486l37 -222h422v-82h-403l42 -248h400v-82h-491l-33 198h-432l-150 -198h-125l551 722h668zM625 640l-275 -360h351l-61 360h-15z" />
    <glyph glyph-name="AEacute" unicode="&#x1fc;" horiz-adv-x="1333" 
d="M1231 722v-88h-486l37 -222h422v-82h-403l42 -248h400v-82h-491l-33 198h-432l-150 -198h-125l551 722h668zM625 640l-275 -360h351l-61 360h-15zM875 909l-154 -140h-82l114 140h122z" />
    <glyph glyph-name="Cacute" unicode="&#x106;" horiz-adv-x="888" 
d="M695 532q-11 60 -61.5 93.5t-141.5 33.5q-135 0 -211.5 -79.5t-76.5 -218.5q0 -141 76 -219.5t212 -78.5q87 0 144.5 38.5t68.5 99.5h116q-15 -106 -105.5 -163t-243.5 -57q-177 0 -277.5 108t-100.5 272t108 272t298 108q128 0 216.5 -59t94.5 -150h-116zM630 909
l-154 -140h-82l114 140h122z" />
    <glyph glyph-name="Ccircumflex" unicode="&#x108;" horiz-adv-x="888" 
d="M695 532q-11 60 -61.5 93.5t-141.5 33.5q-135 0 -211.5 -79.5t-76.5 -218.5q0 -141 76 -219.5t212 -78.5q87 0 144.5 38.5t68.5 99.5h116q-15 -106 -105.5 -163t-243.5 -57q-177 0 -277.5 108t-100.5 272t108 272t298 108q128 0 216.5 -59t94.5 -150h-116zM542 909
l119 -140h-82l-95 102l-95 -102h-82l119 140h116z" />
    <glyph glyph-name="Ccaron" unicode="&#x10c;" horiz-adv-x="888" 
d="M695 532q-11 60 -61.5 93.5t-141.5 33.5q-135 0 -211.5 -79.5t-76.5 -218.5q0 -141 76 -219.5t212 -78.5q87 0 144.5 38.5t68.5 99.5h116q-15 -106 -105.5 -163t-243.5 -57q-177 0 -277.5 108t-100.5 272t108 272t298 108q128 0 216.5 -59t94.5 -150h-116zM389 909
l95 -102l95 102h82l-119 -140h-116l-119 140h82z" />
    <glyph glyph-name="Cdotaccent" unicode="&#x10a;" horiz-adv-x="888" 
d="M695 532q-11 60 -61.5 93.5t-141.5 33.5q-135 0 -211.5 -79.5t-76.5 -218.5q0 -141 76 -219.5t212 -78.5q87 0 144.5 38.5t68.5 99.5h116q-15 -106 -105.5 -163t-243.5 -57q-177 0 -277.5 108t-100.5 272t108 272t298 108q128 0 216.5 -59t94.5 -150h-116zM533 909v-100
h-98v100h98z" />
    <glyph glyph-name="Ccedilla" unicode="&#xc7;" horiz-adv-x="888" 
d="M821 201q-14 -101 -98.5 -159t-237.5 -61l-35 -44l2 -2q11 4 22 5.5t20 1.5q43 0 69.5 -19.5t26.5 -49.5q0 -36 -34.5 -57.5t-95.5 -21.5q-30 0 -62 6t-56 15l15 41q17 -6 39 -11t42 -5q28 0 46 8.5t18 24.5q0 14 -13.5 22.5t-36.5 8.5q-9 0 -19 -2t-24 -6l-19 23l45 63
q-155 10 -248 115t-93 264q0 164 107.5 272t298.5 108q130 0 216.5 -58.5t94.5 -150.5h-116q-11 60 -61.5 93.5t-141.5 33.5q-135 0 -211.5 -78.5t-76.5 -219.5t77 -219.5t211 -78.5q87 0 144.5 38.5t68.5 99.5h116z" />
    <glyph glyph-name="Dcaron" unicode="&#x10e;" horiz-adv-x="888" 
d="M382 722q223 0 327 -88t104 -281q0 -175 -107 -264t-308 -89h-296v722h280zM404 82q147 0 223 71.5t76 207.5q0 148 -76.5 213.5t-250.5 65.5h-170v-558h198zM311 909l95 -102l95 102h82l-119 -140h-116l-119 140h82z" />
    <glyph glyph-name="Dcroat" unicode="&#x110;" horiz-adv-x="888" 
d="M382 722q227 0 329 -89t102 -280q0 -175 -107 -264t-308 -89h-296v344h-87v74h87v304h280zM404 82q147 0 223 71.5t76 207.5q0 150 -76.5 214.5t-250.5 64.5h-170v-222h226v-74h-226v-262h198z" />
    <glyph glyph-name="Eth" unicode="&#xd0;" horiz-adv-x="888" 
d="M382 722q227 0 329 -89t102 -280q0 -175 -107 -264t-308 -89h-296v344h-87v74h87v304h280zM404 82q147 0 223 71.5t76 207.5q0 150 -76.5 214.5t-250.5 64.5h-170v-222h226v-74h-226v-262h198z" />
    <glyph glyph-name="Egrave" unicode="&#xc8;" 
d="M648 722v-82h-436v-228h408v-82h-408v-248h448v-82h-552v722h540zM358 909l114 -140h-82l-154 140h122z" />
    <glyph glyph-name="Eacute" unicode="&#xc9;" 
d="M648 722v-82h-436v-228h408v-82h-408v-248h448v-82h-552v722h540zM528 909l-154 -140h-82l114 140h122z" />
    <glyph glyph-name="Ecircumflex" unicode="&#xca;" 
d="M648 722v-82h-436v-228h408v-82h-408v-248h448v-82h-552v722h540zM440 909l119 -140h-82l-95 102l-95 -102h-82l119 140h116z" />
    <glyph glyph-name="Ecaron" unicode="&#x11a;" 
d="M648 722v-82h-436v-228h408v-82h-408v-248h448v-82h-552v722h540zM287 909l95 -102l95 102h82l-119 -140h-116l-119 140h82z" />
    <glyph glyph-name="Edieresis" unicode="&#xcb;" 
d="M648 722v-82h-436v-228h408v-82h-408v-248h448v-82h-552v722h540zM328 909v-100h-98v100h98zM534 909v-100h-98v100h98z" />
    <glyph glyph-name="Emacron" unicode="&#x112;" 
d="M648 722v-82h-436v-228h408v-82h-408v-248h448v-82h-552v722h540zM553 892v-68h-346v68h346z" />
    <glyph glyph-name="Ebreve" unicode="&#x114;" 
d="M648 722v-82h-436v-228h408v-82h-408v-248h448v-82h-552v722h540zM255 909q18 -35 52 -53.5t73 -18.5q43 0 75.5 19.5t49.5 52.5h52q-12 -69 -57 -104.5t-120 -35.5t-120 35.5t-57 104.5h52z" />
    <glyph glyph-name="Edotaccent" unicode="&#x116;" 
d="M648 722v-82h-436v-228h408v-82h-408v-248h448v-82h-552v722h540zM429 909v-100h-98v100h98z" />
    <glyph glyph-name="Eogonek" unicode="&#x118;" 
d="M108 0v722h540v-82h-436v-228h408v-82h-408v-248h448v-82h-74q-59 -40 -84.5 -67t-25.5 -53q0 -20 21.5 -30t52.5 -10q15 0 31.5 2.5t31.5 7.5l17 -42q-21 -6 -53 -10t-62 -4q-63 0 -95 18.5t-32 49.5q0 34 40 75t100 63h-420z" />
    <glyph glyph-name="Gcircumflex" unicode="&#x11c;" horiz-adv-x="962" 
d="M741 535q-34 124 -235 124q-143 0 -227.5 -83t-84.5 -214q0 -130 87 -214.5t233 -84.5q57 0 119.5 11.5t120.5 34.5v186h-231v82h335v-326q-91 -38 -177 -54t-171 -16q-199 0 -312.5 104.5t-113.5 275.5q0 164 110 272t303 108q165 0 251 -51.5t103 -154.5h-110zM556 909
l119 -140h-82l-95 102l-95 -102h-82l119 140h116z" />
    <glyph glyph-name="Gbreve" unicode="&#x11e;" horiz-adv-x="962" 
d="M741 535q-34 124 -235 124q-143 0 -227.5 -83t-84.5 -214q0 -130 87 -214.5t233 -84.5q57 0 119.5 11.5t120.5 34.5v186h-231v82h335v-326q-91 -38 -177 -54t-171 -16q-199 0 -312.5 104.5t-113.5 275.5q0 164 110 272t303 108q165 0 251 -51.5t103 -154.5h-110zM373 909
q18 -35 52 -53.5t73 -18.5q43 0 75.5 19.5t49.5 52.5h52q-12 -69 -57 -104.5t-120 -35.5t-120 35.5t-57 104.5h52z" />
    <glyph glyph-name="Gdotaccent" unicode="&#x120;" horiz-adv-x="962" 
d="M741 535q-34 124 -235 124q-143 0 -227.5 -83t-84.5 -214q0 -130 87 -214.5t233 -84.5q57 0 119.5 11.5t120.5 34.5v186h-231v82h335v-326q-91 -38 -177 -54t-171 -16q-199 0 -312.5 104.5t-113.5 275.5q0 164 110 272t303 108q165 0 251 -51.5t103 -154.5h-110zM548 909
v-100h-98v100h98z" />
    <glyph glyph-name="Gcommaaccent" unicode="&#x122;" horiz-adv-x="962" 
d="M741 535q-34 124 -235 124q-143 0 -227.5 -83t-84.5 -214q0 -130 87 -214.5t233 -84.5q57 0 119.5 11.5t120.5 34.5v186h-231v82h335v-326q-91 -38 -177 -54t-171 -16q-199 0 -312.5 104.5t-113.5 275.5q0 164 110 272t303 108q165 0 251 -51.5t103 -154.5h-110z
M485 -200h-74l54 153h105z" />
    <glyph glyph-name="Hcircumflex" unicode="&#x124;" horiz-adv-x="888" 
d="M212 722v-304h464v304h104v-722h-104v336h-464v-336h-104v722h104zM496 909l119 -140h-82l-95 102l-95 -102h-82l119 140h116z" />
    <glyph glyph-name="Hbar" unicode="&#x126;" horiz-adv-x="888" 
d="M212 722v-115h464v115h104v-722h-104v336h-464v-336h-104v722h104zM676 418v112h-464v-112h464z" />
    <glyph glyph-name="Igrave" unicode="&#xcc;" horiz-adv-x="296" 
d="M200 722v-722h-104v722h104zM124 909l114 -140h-82l-154 140h122z" />
    <glyph glyph-name="Iacute" unicode="&#xcd;" horiz-adv-x="296" 
d="M200 722v-722h-104v722h104zM294 909l-154 -140h-82l114 140h122z" />
    <glyph glyph-name="Ibreve" unicode="&#x12c;" horiz-adv-x="296" 
d="M200 722v-722h-104v722h104zM23 909q18 -35 52 -53.5t73 -18.5q43 0 75.5 19.5t49.5 52.5h52q-12 -69 -57 -104.5t-120 -35.5t-120 35.5t-57 104.5h52z" />
    <glyph glyph-name="Icircumflex" unicode="&#xce;" horiz-adv-x="296" 
d="M200 722v-722h-104v722h104zM206 909l119 -140h-82l-95 102l-95 -102h-82l119 140h116z" />
    <glyph glyph-name="Itilde" unicode="&#x128;" horiz-adv-x="296" 
d="M200 722v-722h-104v722h104zM148 888l44 -14q20 -7 29 -7q17 0 30.5 10.5t15.5 31.5h58q-3 -110 -93 -110q-20 0 -44 5.5t-47 12.5l-44 13q-20 5 -31 5q-16 0 -26 -12.5t-11 -29.5h-58q0 58 23.5 87t63.5 29q18 0 42 -6.5t48 -14.5z" />
    <glyph glyph-name="Idieresis" unicode="&#xcf;" horiz-adv-x="296" 
d="M200 722v-722h-104v722h104zM94 909v-100h-98v100h98zM300 909v-100h-98v100h98z" />
    <glyph glyph-name="Imacron" unicode="&#x12a;" horiz-adv-x="296" 
d="M200 722v-722h-104v722h104zM321 892v-68h-346v68h346z" />
    <glyph glyph-name="Idotaccent" unicode="&#x130;" horiz-adv-x="296" 
d="M200 722v-722h-104v722h104zM197 909v-100h-98v100h98z" />
    <glyph glyph-name="Iogonek" unicode="&#x12e;" horiz-adv-x="296" 
d="M96 0v722h104v-722h-12q-59 -40 -84.5 -67t-25.5 -53q0 -20 21.5 -30t52.5 -10q15 0 31.5 2.5t31.5 7.5l17 -42q-21 -6 -53 -10t-62 -4q-63 0 -95 18.5t-32 49.5q0 34 40 75t100 63h-34z" />
    <glyph glyph-name="Jcircumflex" unicode="&#x134;" 
d="M632 722v-458q0 -140 -76 -211.5t-234 -71.5q-124 0 -200 60t-78 164h110q2 -72 48.5 -107t128.5 -35q197 0 197 209v450h104zM638 909l119 -140h-82l-95 102l-95 -102h-82l119 140h116z" />
    <glyph glyph-name="Kcommaaccent" unicode="&#x136;" horiz-adv-x="814" 
d="M225 722v-323l388 323h152l-410 -326l444 -396h-152l-422 387v-387h-104v722h104zM399 -200h-74l54 153h105z" />
    <glyph glyph-name="Lacute" unicode="&#x139;" horiz-adv-x="667" 
d="M225 722v-640h416v-82h-520v722h104zM357 909l-154 -140h-82l114 140h122z" />
    <glyph glyph-name="Lcaron" unicode="&#x13d;" horiz-adv-x="667" 
d="M225 722v-640h416v-82h-520v722h104zM383 567h-77l49 155h104z" />
    <glyph glyph-name="Lcommaaccent" unicode="&#x13b;" horiz-adv-x="667" 
d="M225 722v-640h416v-82h-520v722h104zM367 -200h-74l54 153h105z" />
    <glyph glyph-name="Lslash" unicode="&#x141;" horiz-adv-x="667" 
d="M225 722v-323l237 127v-82l-237 -127v-235h416v-82h-520v261l-95 -51v82l95 51v379h104z" />
    <glyph glyph-name="Ldot" unicode="&#x13f;" horiz-adv-x="667" 
d="M225 722v-640h416v-82h-520v722h104zM555 408v-100h-98v100h98z" />
    <glyph glyph-name="Nacute" unicode="&#x143;" horiz-adv-x="888" 
d="M241 722l442 -616h2v616h104v-722h-142l-442 616h-2v-616h-104v722h142zM618 909l-154 -140h-82l114 140h122z" />
    <glyph glyph-name="Ncaron" unicode="&#x147;" horiz-adv-x="888" 
d="M241 722l442 -616h2v616h104v-722h-142l-442 616h-2v-616h-104v722h142zM347 909l95 -102l95 102h82l-119 -140h-116l-119 140h82z" />
    <glyph glyph-name="Ntilde" unicode="&#xd1;" horiz-adv-x="888" 
d="M241 722l442 -616h2v616h104v-722h-142l-442 616h-2v-616h-104v722h142zM444 888l44 -14q20 -7 29 -7q17 0 30.5 10.5t15.5 31.5h58q-3 -110 -93 -110q-20 0 -44 5.5t-47 12.5l-46 13q-18 5 -29 5q-16 0 -26 -12.5t-11 -29.5h-58q0 58 23.5 87t63.5 29q18 0 42 -6.5
t48 -14.5z" />
    <glyph glyph-name="Ncommaaccent" unicode="&#x145;" horiz-adv-x="888" 
d="M241 722l442 -616h2v616h104v-722h-142l-442 616h-2v-616h-104v722h142zM415 -200h-74l54 153h105z" />
    <glyph glyph-name="Ograve" unicode="&#xd2;" horiz-adv-x="962" 
d="M181.5 89.5q-106.5 108.5 -106.5 271.5q0 166 108.5 273t297.5 107q195 0 300.5 -109t105.5 -271q0 -166 -107 -273t-299 -107q-193 0 -299.5 108.5zM694 576.5q-83 82.5 -214 82.5q-130 0 -212.5 -83.5t-82.5 -214.5q0 -132 82 -215t214 -83q133 0 214.5 83t81.5 215
q0 133 -83 215.5zM457 909l114 -140h-82l-154 140h122z" />
    <glyph glyph-name="Oacute" unicode="&#xd3;" horiz-adv-x="962" 
d="M181.5 89.5q-106.5 108.5 -106.5 271.5q0 166 108.5 273t297.5 107q195 0 300.5 -109t105.5 -271q0 -166 -107 -273t-299 -107q-193 0 -299.5 108.5zM694 576.5q-83 82.5 -214 82.5q-130 0 -212.5 -83.5t-82.5 -214.5q0 -132 82 -215t214 -83q133 0 214.5 83t81.5 215
q0 133 -83 215.5zM627 909l-154 -140h-82l114 140h122z" />
    <glyph glyph-name="Ocircumflex" unicode="&#xd4;" horiz-adv-x="962" 
d="M181.5 89.5q-106.5 108.5 -106.5 271.5q0 166 108.5 273t297.5 107q195 0 300.5 -109t105.5 -271q0 -166 -107 -273t-299 -107q-193 0 -299.5 108.5zM694 576.5q-83 82.5 -214 82.5q-130 0 -212.5 -83.5t-82.5 -214.5q0 -132 82 -215t214 -83q133 0 214.5 83t81.5 215
q0 133 -83 215.5zM539 909l119 -140h-82l-95 102l-95 -102h-82l119 140h116z" />
    <glyph glyph-name="Otilde" unicode="&#xd5;" horiz-adv-x="962" 
d="M181.5 89.5q-106.5 108.5 -106.5 271.5q0 166 108.5 273t297.5 107q195 0 300.5 -109t105.5 -271q0 -166 -107 -273t-299 -107q-193 0 -299.5 108.5zM694 576.5q-83 82.5 -214 82.5q-130 0 -212.5 -83.5t-82.5 -214.5q0 -132 82 -215t214 -83q133 0 214.5 83t81.5 215
q0 133 -83 215.5zM481 888l44 -14q20 -7 29 -7q17 0 30.5 10.5t15.5 31.5h58q-3 -110 -93 -110q-20 0 -44 5.5t-47 12.5l-46 13q-18 5 -29 5q-16 0 -26 -12.5t-11 -29.5h-58q0 58 23.5 87t63.5 29q18 0 42 -6.5t48 -14.5z" />
    <glyph glyph-name="Odieresis" unicode="&#xd6;" horiz-adv-x="962" 
d="M181.5 89.5q-106.5 108.5 -106.5 271.5q0 166 108.5 273t297.5 107q195 0 300.5 -109t105.5 -271q0 -166 -107 -273t-299 -107q-193 0 -299.5 108.5zM694 576.5q-83 82.5 -214 82.5q-130 0 -212.5 -83.5t-82.5 -214.5q0 -132 82 -215t214 -83q133 0 214.5 83t81.5 215
q0 133 -83 215.5zM427 909v-100h-98v100h98zM633 909v-100h-98v100h98z" />
    <glyph glyph-name="Omacron" unicode="&#x14c;" horiz-adv-x="962" 
d="M181.5 89.5q-106.5 108.5 -106.5 271.5q0 166 108.5 273t297.5 107q195 0 300.5 -109t105.5 -271q0 -166 -107 -273t-299 -107q-193 0 -299.5 108.5zM694 576.5q-83 82.5 -214 82.5q-130 0 -212.5 -83.5t-82.5 -214.5q0 -132 82 -215t214 -83q133 0 214.5 83t81.5 215
q0 133 -83 215.5zM654 892v-68h-346v68h346z" />
    <glyph glyph-name="Obreve" unicode="&#x14e;" horiz-adv-x="962" 
d="M181.5 89.5q-106.5 108.5 -106.5 271.5q0 166 108.5 273t297.5 107q195 0 300.5 -109t105.5 -271q0 -166 -107 -273t-299 -107q-193 0 -299.5 108.5zM694 576.5q-83 82.5 -214 82.5q-130 0 -212.5 -83.5t-82.5 -214.5q0 -132 82 -215t214 -83q133 0 214.5 83t81.5 215
q0 133 -83 215.5zM356 909q18 -35 52 -53.5t73 -18.5q43 0 75.5 19.5t49.5 52.5h52q-12 -69 -57 -104.5t-120 -35.5t-120 35.5t-57 104.5h52z" />
    <glyph glyph-name="Ohungarumlaut" unicode="&#x150;" horiz-adv-x="962" 
d="M181.5 89.5q-106.5 108.5 -106.5 271.5q0 166 108.5 273t297.5 107q195 0 300.5 -109t105.5 -271q0 -166 -107 -273t-299 -107q-193 0 -299.5 108.5zM694 576.5q-83 82.5 -214 82.5q-130 0 -212.5 -83.5t-82.5 -214.5q0 -132 82 -215t214 -83q133 0 214.5 83t81.5 215
q0 133 -83 215.5zM575 909l-154 -140h-82l114 140h122zM775 909l-154 -140h-82l114 140h122z" />
    <glyph glyph-name="Oslash" unicode="&#xd8;" horiz-adv-x="962" 
d="M811 768l38 -32l-81 -91q60 -54 89.5 -129t29.5 -154q0 -168 -107.5 -274.5t-297.5 -106.5q-84 0 -144 18t-105 48l-84 -93l-36 33l81 90q-61 54 -90 129t-29 155q0 170 110 275t296 105q81 0 142 -18t105 -48zM261 152l403 451q-35 26 -81 41t-103 15
q-128 0 -211.5 -82.5t-83.5 -215.5q0 -65 20 -118t56 -91zM298 120q77 -57 183 -57q133 0 214.5 83.5t81.5 214.5q0 64 -19.5 116.5t-56.5 92.5z" />
    <glyph glyph-name="Oslashacute" unicode="&#x1fe;" horiz-adv-x="962" 
d="M811 768l38 -32l-81 -91q60 -54 89.5 -129t29.5 -154q0 -168 -107.5 -274.5t-297.5 -106.5q-84 0 -144 18t-105 48l-84 -93l-36 33l81 90q-61 54 -90 129t-29 155q0 170 110 275t296 105q81 0 142 -18t105 -48zM261 152l403 451q-35 26 -81 41t-103 15
q-128 0 -211.5 -82.5t-83.5 -215.5q0 -65 20 -118t56 -91zM298 120q77 -57 183 -57q133 0 214.5 83.5t81.5 214.5q0 64 -19.5 116.5t-56.5 92.5zM627 909l-154 -140h-82l114 140h122z" />
    <glyph glyph-name="OE" unicode="&#x152;" horiz-adv-x="1333" 
d="M828 722h399v-82h-446v-228h415v-82h-415v-248h462v-82h-451q-23 0 -48 -1l-115 -4q-33 0 -73 -1q-235 0 -358 96.5t-123 266.5q0 119 49 194.5t145.5 126t299.5 50.5q63 0 130 -3t129 -3zM606.5 77.5q36.5 1.5 70.5 4.5v558q-54 5 -83 5t-46 1q-180 0 -274.5 -73.5
t-94.5 -209.5q0 -137 91.5 -212t265.5 -75q34 0 70.5 1.5z" />
    <glyph glyph-name="Racute" unicode="&#x154;" horiz-adv-x="814" 
d="M448 722q144 0 210 -42.5t66 -146.5q0 -70 -45 -114.5t-120 -55.5v-2q69 -9 97.5 -40.5t46.5 -145.5l5 -32q15 -99 34 -143h-110q-8 21 -26 114l-11 61q-15 76 -25 93t-44 35.5t-133 18.5h-193v-322h-104v722h352zM440 404q89 0 131.5 27.5t42.5 90.5q0 67 -40.5 92.5
t-132.5 25.5h-241v-236h240zM543 909l-154 -140h-82l114 140h122z" />
    <glyph glyph-name="Rcaron" unicode="&#x158;" horiz-adv-x="814" 
d="M448 722q144 0 210 -42.5t66 -146.5q0 -70 -45 -114.5t-120 -55.5v-2q69 -9 97.5 -40.5t46.5 -145.5l5 -32q15 -99 34 -143h-110q-8 21 -26 114l-11 61q-15 76 -25 93t-44 35.5t-133 18.5h-193v-322h-104v722h352zM440 404q89 0 131.5 27.5t42.5 90.5q0 67 -40.5 92.5
t-132.5 25.5h-241v-236h240zM303 909l95 -102l95 102h82l-119 -140h-116l-119 140h82z" />
    <glyph glyph-name="Rcommaaccent" unicode="&#x156;" horiz-adv-x="814" 
d="M448 722q144 0 210 -42.5t66 -146.5q0 -70 -45 -114.5t-120 -55.5v-2q69 -9 97.5 -40.5t46.5 -145.5l5 -32q15 -99 34 -143h-110q-8 21 -26 114l-11 61q-15 76 -25 93t-44 35.5t-133 18.5h-193v-322h-104v722h352zM440 404q89 0 131.5 27.5t42.5 90.5q0 67 -40.5 92.5
t-132.5 25.5h-241v-236h240zM391 -200h-74l54 153h105z" />
    <glyph glyph-name="Sacute" unicode="&#x15a;" horiz-adv-x="814" 
d="M614 530q-13 129 -229 129q-82 0 -136.5 -37t-54.5 -94q0 -38 28.5 -61.5t96.5 -34.5l252 -43q88 -14 132 -60.5t44 -116.5q0 -109 -92.5 -170t-250.5 -61q-157 0 -242 58.5t-95 176.5h110q2 -70 65.5 -111.5t167.5 -41.5q111 0 172 38.5t61 99.5q0 54 -54.5 80t-205 40
t-222 60.5t-71.5 142.5q0 100 81.5 158.5t233.5 58.5q148 0 230.5 -54.5t88.5 -156.5h-110zM566 909l-154 -140h-82l114 140h122z" />
    <glyph glyph-name="Scircumflex" unicode="&#x15c;" horiz-adv-x="814" 
d="M614 530q-13 129 -229 129q-82 0 -136.5 -37t-54.5 -94q0 -38 28.5 -61.5t96.5 -34.5l252 -43q88 -14 132 -60.5t44 -116.5q0 -109 -92.5 -170t-250.5 -61q-157 0 -242 58.5t-95 176.5h110q2 -70 65.5 -111.5t167.5 -41.5q111 0 172 38.5t61 99.5q0 54 -54.5 80t-205 40
t-222 60.5t-71.5 142.5q0 100 81.5 158.5t233.5 58.5q148 0 230.5 -54.5t88.5 -156.5h-110zM465 909l119 -140h-82l-95 102l-95 -102h-82l119 140h116z" />
    <glyph glyph-name="Scaron" unicode="&#x160;" horiz-adv-x="814" 
d="M614 530q-13 129 -229 129q-82 0 -136.5 -37t-54.5 -94q0 -38 28.5 -61.5t96.5 -34.5l252 -43q88 -14 132 -60.5t44 -116.5q0 -109 -92.5 -170t-250.5 -61q-157 0 -242 58.5t-95 176.5h110q2 -70 65.5 -111.5t167.5 -41.5q111 0 172 38.5t61 99.5q0 54 -54.5 80t-205 40
t-222 60.5t-71.5 142.5q0 100 81.5 158.5t233.5 58.5q148 0 230.5 -54.5t88.5 -156.5h-110zM312 909l95 -102l95 102h82l-119 -140h-116l-119 140h82z" />
    <glyph glyph-name="Scedilla" unicode="&#x15e;" horiz-adv-x="814" 
d="M375 -18q-143 5 -221 63t-87 171h110q2 -70 65.5 -111.5t167.5 -41.5q111 0 172 38.5t61 99.5q0 54 -54 79.5t-205 40t-222.5 61t-71.5 142.5q0 102 83 159.5t232 57.5q150 0 231.5 -54.5t87.5 -156.5h-110q-13 129 -229 129q-82 0 -136.5 -37t-54.5 -94
q0 -38 28.5 -61.5t96.5 -34.5l252 -43q88 -14 132 -60.5t44 -116.5q0 -105 -86.5 -166t-235.5 -65l-34 -44l2 -2q11 4 21.5 5.5t19.5 1.5q43 0 70 -19t27 -50q0 -36 -34.5 -57.5t-95.5 -21.5q-30 0 -62 6t-56 15l15 41q17 -6 39 -11t42 -5q29 0 46.5 9t17.5 24q0 31 -51 31
q-8 0 -19.5 -2.5t-22.5 -5.5l-19 23z" />
    <glyph glyph-name="Scommaaccent" unicode="&#x218;" horiz-adv-x="814" 
d="M614 530q-13 129 -229 129q-82 0 -136.5 -37t-54.5 -94q0 -38 28.5 -61.5t96.5 -34.5l252 -43q88 -14 132 -60.5t44 -116.5q0 -109 -92.5 -170t-250.5 -61q-157 0 -242 58.5t-95 176.5h110q2 -70 65.5 -111.5t167.5 -41.5q111 0 172 38.5t61 99.5q0 54 -54.5 80t-205 40
t-222 60.5t-71.5 142.5q0 100 81.5 158.5t233.5 58.5q148 0 230.5 -54.5t88.5 -156.5h-110zM379 -200h-74l54 153h105z" />
    <glyph glyph-name="Tcaron" unicode="&#x164;" 
d="M728 722v-88h-306v-634h-104v634h-306v88h716zM275 909l95 -102l95 102h82l-119 -140h-116l-119 140h82z" />
    <glyph glyph-name="Tcommaaccent" unicode="&#x162;" 
d="M728 722v-88h-306v-634h-104v634h-306v88h716zM338 -200h-74l54 153h105z" />
    <glyph glyph-name="uni021A" unicode="&#x21a;" 
d="M728 722v-88h-306v-634h-104v634h-306v88h716zM338 -200h-74l54 153h105z" />
    <glyph glyph-name="Tbar" unicode="&#x166;" 
d="M728 722v-88h-306v-197h170v-78h-170v-359h-104v359h-170v78h170v197h-306v88h716z" />
    <glyph glyph-name="Thorn" unicode="&#xde;" horiz-adv-x="814" 
d="M225 722v-142h235q143 0 213 -51t70 -150q0 -98 -68 -151t-189 -53h-261v-175h-104v722h104zM459 257q86 0 130 29.5t44 92.5q0 65 -44 92t-131 27h-233v-241h234z" />
    <glyph glyph-name="Ugrave" unicode="&#xd9;" horiz-adv-x="888" 
d="M212 722v-437q0 -103 60 -162.5t172 -59.5t172 59.5t60 162.5v437h104v-433q0 -142 -89.5 -225t-246.5 -83t-246.5 83t-89.5 225v433h104zM420 909l114 -140h-82l-154 140h122z" />
    <glyph glyph-name="Uacute" unicode="&#xda;" horiz-adv-x="888" 
d="M212 722v-437q0 -103 60 -162.5t172 -59.5t172 59.5t60 162.5v437h104v-433q0 -142 -89.5 -225t-246.5 -83t-246.5 83t-89.5 225v433h104zM590 909l-154 -140h-82l114 140h122z" />
    <glyph glyph-name="Ucircumflex" unicode="&#xdb;" horiz-adv-x="888" 
d="M212 722v-437q0 -103 60 -162.5t172 -59.5t172 59.5t60 162.5v437h104v-433q0 -142 -89.5 -225t-246.5 -83t-246.5 83t-89.5 225v433h104zM502 909l119 -140h-82l-95 102l-95 -102h-82l119 140h116z" />
    <glyph glyph-name="Utilde" unicode="&#x168;" horiz-adv-x="888" 
d="M212 722v-437q0 -103 60 -162.5t172 -59.5t172 59.5t60 162.5v437h104v-433q0 -142 -89.5 -225t-246.5 -83t-246.5 83t-89.5 225v433h104zM444 888l44 -14q20 -7 29 -7q17 0 30.5 10.5t15.5 31.5h58q-3 -110 -93 -110q-20 0 -44 5.5t-47 12.5l-44 13q-20 5 -31 5
q-16 0 -26 -12.5t-11 -29.5h-58q0 58 23.5 87t63.5 29q18 0 42 -6.5t48 -14.5z" />
    <glyph glyph-name="Udieresis" unicode="&#xdc;" horiz-adv-x="888" 
d="M212 722v-437q0 -103 60 -162.5t172 -59.5t172 59.5t60 162.5v437h104v-433q0 -142 -89.5 -225t-246.5 -83t-246.5 83t-89.5 225v433h104zM390 909v-100h-98v100h98zM596 909v-100h-98v100h98z" />
    <glyph glyph-name="Umacron" unicode="&#x16a;" horiz-adv-x="888" 
d="M212 722v-437q0 -103 60 -162.5t172 -59.5t172 59.5t60 162.5v437h104v-433q0 -142 -89.5 -225t-246.5 -83t-246.5 83t-89.5 225v433h104zM617 892v-68h-346v68h346z" />
    <glyph glyph-name="Ubreve" unicode="&#x16c;" horiz-adv-x="888" 
d="M212 722v-437q0 -103 60 -162.5t172 -59.5t172 59.5t60 162.5v437h104v-433q0 -142 -89.5 -225t-246.5 -83t-246.5 83t-89.5 225v433h104zM319 909q18 -35 52 -53.5t73 -18.5q43 0 75.5 19.5t49.5 52.5h52q-12 -69 -57 -104.5t-120 -35.5t-120 35.5t-57 104.5h52z" />
    <glyph glyph-name="Uring" unicode="&#x16e;" horiz-adv-x="888" 
d="M212 722v-437q0 -103 60 -162.5t172 -59.5t172 59.5t60 162.5v437h104v-433q0 -142 -89.5 -225t-246.5 -83t-246.5 83t-89.5 225v433h104zM515 771q-31 -30 -71 -30q-42 0 -72 30t-30 72q0 43 30.5 72.5t71.5 29.5q42 0 72 -30t30 -72t-31 -72zM483.5 803.5
q16.5 16.5 16.5 39.5q0 22 -15.5 39t-41.5 17q-21 0 -38 -15.5t-17 -40.5q0 -23 16.5 -39.5t39.5 -16.5t39.5 16.5z" />
    <glyph glyph-name="Uhungarumlaut" unicode="&#x170;" horiz-adv-x="888" 
d="M212 722v-437q0 -103 60 -162.5t172 -59.5t172 59.5t60 162.5v437h104v-433q0 -142 -89.5 -225t-246.5 -83t-246.5 83t-89.5 225v433h104zM519 909l-154 -140h-82l114 140h122zM719 909l-154 -140h-82l114 140h122z" />
    <glyph glyph-name="Uogonek" unicode="&#x172;" horiz-adv-x="888" 
d="M212 722v-437q0 -103 61 -162.5t171 -59.5q112 0 172 60t60 162v437h104v-433q0 -132 -76.5 -212.5t-208.5 -92.5q-47 -33 -66 -57t-19 -47q0 -20 21.5 -30t52.5 -10q15 0 31.5 2.5t31.5 7.5l17 -42q-21 -6 -53 -10t-62 -4q-63 0 -95 18.5t-32 49.5q0 29 27 62t72 58
q-146 6 -229.5 88t-83.5 219v433h104z" />
    <glyph glyph-name="Wacute" unicode="&#x1e82;" horiz-adv-x="1258" 
d="M122 722l213 -634h2l222 634h140l222 -634h2l213 634h110l-251 -722h-144l-221 634h-2l-221 -634h-144l-251 722h110zM801 909l-154 -140h-82l114 140h122z" />
    <glyph glyph-name="Wcircumflex" unicode="&#x174;" horiz-adv-x="1258" 
d="M122 722l213 -634h2l222 634h140l222 -634h2l213 634h110l-251 -722h-144l-221 634h-2l-221 -634h-144l-251 722h110zM687 909l119 -140h-82l-95 102l-95 -102h-82l119 140h116z" />
    <glyph glyph-name="Wdieresis" unicode="&#x1e84;" horiz-adv-x="1258" 
d="M122 722l213 -634h2l222 634h140l222 -634h2l213 634h110l-251 -722h-144l-221 634h-2l-221 -634h-144l-251 722h110zM575 909v-100h-98v100h98zM781 909v-100h-98v100h98z" />
    <glyph glyph-name="Wgrave" unicode="&#x1e80;" horiz-adv-x="1258" 
d="M122 722l213 -634h2l222 634h140l222 -634h2l213 634h110l-251 -722h-144l-221 634h-2l-221 -634h-144l-251 722h110zM578 909l114 -140h-82l-154 140h122z" />
    <glyph glyph-name="Yacute" unicode="&#xdd;" horiz-adv-x="814" 
d="M146 722l261 -335l261 335h134l-343 -421v-301h-104v301l-343 421h134zM586 909l-154 -140h-82l114 140h122z" />
    <glyph glyph-name="Ycircumflex" unicode="&#x176;" horiz-adv-x="814" 
d="M146 722l261 -335l261 335h134l-343 -421v-301h-104v301l-343 421h134zM465 909l119 -140h-82l-95 102l-95 -102h-82l119 140h116z" />
    <glyph glyph-name="Ydieresis" unicode="&#x178;" horiz-adv-x="814" 
d="M146 722l261 -335l261 335h134l-343 -421v-301h-104v301l-343 421h134zM353 909v-100h-98v100h98zM559 909v-100h-98v100h98z" />
    <glyph glyph-name="Ygrave" unicode="&#x1ef2;" horiz-adv-x="814" 
d="M146 722l261 -335l261 335h134l-343 -421v-301h-104v301l-343 421h134zM359 909l114 -140h-82l-154 140h122z" />
    <glyph glyph-name="Zacute" unicode="&#x179;" 
d="M688 722v-110l-524 -530h540v-82h-668v94l542 546h-520v82h630zM528 909l-154 -140h-82l114 140h122z" />
    <glyph glyph-name="Zcaron" unicode="&#x17d;" 
d="M688 722v-110l-524 -530h540v-82h-668v94l542 546h-520v82h630zM275 909l95 -102l95 102h82l-119 -140h-116l-119 140h82z" />
    <glyph glyph-name="Zdotaccent" unicode="&#x17b;" 
d="M688 722v-110l-524 -530h540v-82h-668v94l542 546h-520v82h630zM417 909v-100h-98v100h98z" />
    <glyph glyph-name="agrave" unicode="&#xe0;" horiz-adv-x="666" 
d="M583 69q2 -47 4 -69h-92q-2 16 -3 35.5t-1 34.5h-2q-42 -52 -88.5 -70.5t-128.5 -18.5q-97 0 -156.5 47t-59.5 117q0 86 70.5 125.5t211.5 40.5q108 1 147 1v15q0 64 -37 95t-119 31q-52 0 -90.5 -20.5t-42.5 -61.5h-104q7 73 73 111.5t177 38.5q117 0 179 -47t62 -130
v-275zM485 221v24h-58t-132 -5q-69 -5 -102 -26.5t-33 -65.5q0 -41 35 -70t101 -29q97 0 143 43.5t46 128.5zM315 722l114 -140h-82l-154 140h122z" />
    <glyph glyph-name="aacute" unicode="&#xe1;" horiz-adv-x="666" 
d="M583 69q2 -47 4 -69h-92q-2 16 -3 35.5t-1 34.5h-2q-42 -52 -88.5 -70.5t-128.5 -18.5q-97 0 -156.5 47t-59.5 117q0 86 70.5 125.5t211.5 40.5q108 1 147 1v15q0 64 -37 95t-119 31q-52 0 -90.5 -20.5t-42.5 -61.5h-104q7 73 73 111.5t177 38.5q117 0 179 -47t62 -130
v-275zM485 221v24h-58t-132 -5q-69 -5 -102 -26.5t-33 -65.5q0 -41 35 -70t101 -29q97 0 143 43.5t46 128.5zM485 722l-154 -140h-82l114 140h122z" />
    <glyph glyph-name="acircumflex" unicode="&#xe2;" horiz-adv-x="666" 
d="M583 69q2 -47 4 -69h-92q-2 16 -3 35.5t-1 34.5h-2q-42 -52 -88.5 -70.5t-128.5 -18.5q-97 0 -156.5 47t-59.5 117q0 86 70.5 125.5t211.5 40.5q108 1 147 1v15q0 64 -37 95t-119 31q-52 0 -90.5 -20.5t-42.5 -61.5h-104q7 73 73 111.5t177 38.5q117 0 179 -47t62 -130
v-275zM485 221v24h-58t-132 -5q-69 -5 -102 -26.5t-33 -65.5q0 -41 35 -70t101 -29q97 0 143 43.5t46 128.5zM397 722l119 -140h-82l-95 102l-95 -102h-82l119 140h116z" />
    <glyph glyph-name="atilde" unicode="&#xe3;" horiz-adv-x="666" 
d="M583 69q2 -47 4 -69h-92q-2 16 -3 35.5t-1 34.5h-2q-42 -52 -88.5 -70.5t-128.5 -18.5q-97 0 -156.5 47t-59.5 117q0 86 70.5 125.5t211.5 40.5q108 1 147 1v15q0 64 -37 95t-119 31q-52 0 -90.5 -20.5t-42.5 -61.5h-104q7 73 73 111.5t177 38.5q117 0 179 -47t62 -130
v-275zM485 221v24h-58t-132 -5q-69 -5 -102 -26.5t-33 -65.5q0 -41 35 -70t101 -29q97 0 143 43.5t46 128.5zM339 701l44 -14q20 -7 29 -7q17 0 30.5 10.5t15.5 31.5h58q-3 -110 -93 -110q-20 0 -44 5.5t-47 12.5l-46 13q-18 5 -29 5q-16 0 -26 -12.5t-11 -29.5h-58
q0 58 23.5 87t63.5 29q18 0 42 -6.5t48 -14.5z" />
    <glyph glyph-name="adieresis" unicode="&#xe4;" horiz-adv-x="666" 
d="M583 69q2 -47 4 -69h-92q-2 16 -3 35.5t-1 34.5h-2q-42 -52 -88.5 -70.5t-128.5 -18.5q-97 0 -156.5 47t-59.5 117q0 86 70.5 125.5t211.5 40.5q108 1 147 1v15q0 64 -37 95t-119 31q-52 0 -90.5 -20.5t-42.5 -61.5h-104q7 73 73 111.5t177 38.5q117 0 179 -47t62 -130
v-275zM485 221v24h-58t-132 -5q-69 -5 -102 -26.5t-33 -65.5q0 -41 35 -70t101 -29q97 0 143 43.5t46 128.5zM285 722v-100h-98v100h98zM491 722v-100h-98v100h98z" />
    <glyph glyph-name="amacron" unicode="&#x101;" horiz-adv-x="666" 
d="M583 69q2 -47 4 -69h-92q-2 16 -3 35.5t-1 34.5h-2q-42 -52 -88.5 -70.5t-128.5 -18.5q-97 0 -156.5 47t-59.5 117q0 86 70.5 125.5t211.5 40.5q108 1 147 1v15q0 64 -37 95t-119 31q-52 0 -90.5 -20.5t-42.5 -61.5h-104q7 73 73 111.5t177 38.5q117 0 179 -47t62 -130
v-275zM485 221v24h-58t-132 -5q-69 -5 -102 -26.5t-33 -65.5q0 -41 35 -70t101 -29q97 0 143 43.5t46 128.5zM513 705v-68h-346v68h346z" />
    <glyph glyph-name="abreve" unicode="&#x103;" horiz-adv-x="666" 
d="M583 69q2 -47 4 -69h-92q-2 16 -3 35.5t-1 34.5h-2q-42 -52 -88.5 -70.5t-128.5 -18.5q-97 0 -156.5 47t-59.5 117q0 86 70.5 125.5t211.5 40.5q108 1 147 1v15q0 64 -37 95t-119 31q-52 0 -90.5 -20.5t-42.5 -61.5h-104q7 73 73 111.5t177 38.5q117 0 179 -47t62 -130
v-275zM485 221v24h-58t-132 -5q-69 -5 -102 -26.5t-33 -65.5q0 -41 35 -70t101 -29q97 0 143 43.5t46 128.5zM215 722q18 -35 52 -53.5t73 -18.5q43 0 75.5 19.5t49.5 52.5h52q-12 -69 -58 -104.5t-119 -35.5t-119 35.5t-58 104.5h52z" />
    <glyph glyph-name="aring" unicode="&#xe5;" horiz-adv-x="666" 
d="M583 69q2 -47 4 -69h-92q-2 16 -3 35.5t-1 34.5h-2q-42 -52 -88.5 -70.5t-128.5 -18.5q-97 0 -156.5 47t-59.5 117q0 86 70.5 125.5t211.5 40.5q108 1 147 1v15q0 64 -37 95t-119 31q-52 0 -90.5 -20.5t-42.5 -61.5h-104q7 73 73 111.5t177 38.5q117 0 179 -47t62 -130
v-275zM485 221v24h-58t-132 -5q-69 -5 -102 -26.5t-33 -65.5q0 -41 35 -70t101 -29q97 0 143 43.5t46 128.5zM411 595q-30 -30 -72 -30t-72 30t-30 72q0 43 30.5 72.5t71.5 29.5q42 0 72 -30t30 -72t-30 -72zM378.5 627.5q16.5 16.5 16.5 39.5q0 22 -15.5 39t-41.5 17
q-21 0 -38 -15.5t-17 -40.5q0 -23 16.5 -39.5t39.5 -16.5t39.5 16.5z" />
    <glyph glyph-name="aringacute" unicode="&#x1fb;" horiz-adv-x="666" 
d="M526 909l-146 -102h-82l106 102h122zM583 69q2 -47 4 -69h-92q-2 16 -3 35.5t-1 34.5h-2q-42 -52 -88.5 -70.5t-128.5 -18.5q-97 0 -156.5 47t-59.5 117q0 90 74 127.5t200 38.5q88 2 155 2v14q0 64 -37 95t-119 31q-52 0 -90.5 -20t-42.5 -62h-104q7 73 73 111.5
t177 38.5q117 0 179 -46t62 -131v-275zM485 221v24q-32 0 -64.5 -0.5t-125.5 -4.5q-69 -5 -102 -26.5t-33 -65.5q0 -41 34 -70t102 -29q97 0 143 43.5t46 128.5zM411 595q-31 -30 -71 -30q-42 0 -72 30t-30 72q0 43 30.5 72.5t71.5 29.5q42 0 72 -30t30 -72t-31 -72z
M379.5 627.5q16.5 16.5 16.5 39.5q0 22 -15.5 39t-41.5 17q-21 0 -38 -15.5t-17 -40.5q0 -23 16.5 -39.5t39.5 -16.5t39.5 16.5z" />
    <glyph glyph-name="aogonek" unicode="&#x105;" horiz-adv-x="666" 
d="M495 0q-2 16 -3 35.5t-1 34.5h-2q-42 -52 -88.5 -70.5t-128.5 -18.5q-97 0 -156.5 47t-59.5 117q0 89 72.5 127t201.5 39q89 1 155 2v14q0 64 -37 95t-119 31q-52 0 -90.5 -20t-42.5 -62h-104q7 73 73 111.5t177 38.5q117 0 179 -46t62 -131v-275q2 -47 4 -69h-17
q-59 -40 -84.5 -67t-25.5 -53q0 -20 21.5 -30t52.5 -10q15 0 31.5 2.5t31.5 7.5l17 -42q-21 -6 -53 -10t-62 -4q-63 0 -95 18.5t-32 49.5q0 34 40 75t100 63h-17zM485 221v24h-46.5t-143.5 -5q-69 -5 -102 -26.5t-33 -65.5q0 -41 34 -70t102 -29q97 0 143 43.5t46 128.5z
" />
    <glyph glyph-name="ae" unicode="&#xe6;" horiz-adv-x="1110" 
d="M563 417q39 57 95 80.5t125 23.5q127 0 197.5 -76.5t73.5 -219.5h-455q4 -78 55 -127t126 -49q61 0 103.5 25.5t53.5 76.5h104q-15 -82 -85 -126t-170 -44q-78 0 -141.5 32t-93.5 89q-32 -60 -92.5 -90.5t-162.5 -30.5q-104 0 -172 44t-68 113q0 155 264 155h191v23
q0 60 -40.5 98.5t-127.5 38.5q-65 0 -101.5 -22t-46.5 -73h-104q8 74 72.5 118.5t171.5 44.5q94 0 146 -25t82 -79zM944 293q0 77 -48.5 118.5t-124.5 41.5q-66 0 -113 -42.5t-59 -117.5h345zM455.5 94.5q51.5 45.5 55.5 130.5h-188q-80 0 -124.5 -24t-44.5 -65
q0 -37 43 -62t99 -25q108 0 159.5 45.5z" />
    <glyph glyph-name="aeacute" unicode="&#x1fd;" horiz-adv-x="1110" 
d="M563 417q39 57 95 80.5t125 23.5q127 0 197.5 -76.5t73.5 -219.5h-455q4 -78 55 -127t126 -49q61 0 103.5 25.5t53.5 76.5h104q-15 -82 -85 -126t-170 -44q-78 0 -141.5 32t-93.5 89q-32 -60 -92.5 -90.5t-162.5 -30.5q-104 0 -172 44t-68 113q0 155 264 155h191v23
q0 60 -40.5 98.5t-127.5 38.5q-65 0 -101.5 -22t-46.5 -73h-104q8 74 72.5 118.5t171.5 44.5q94 0 146 -25t82 -79zM944 293q0 77 -48.5 118.5t-124.5 41.5q-66 0 -113 -42.5t-59 -117.5h345zM455.5 94.5q51.5 45.5 55.5 130.5h-188q-80 0 -124.5 -24t-44.5 -65
q0 -37 43 -62t99 -25q108 0 159.5 45.5zM735 722l-154 -140h-82l114 140h122z" />
    <glyph glyph-name="cacute" unicode="&#x107;" horiz-adv-x="666" 
d="M502 342q-7 54 -47 82.5t-103 28.5q-86 0 -139 -55t-53 -148q0 -89 51.5 -145t135.5 -56q69 0 112 29.5t47 83.5h104q-5 -83 -80 -132t-188 -49q-135 0 -210.5 71.5t-75.5 197.5t79.5 198.5t215.5 72.5q109 0 176.5 -47t78.5 -132h-104zM491 722l-154 -140h-82l114 140
h122z" />
    <glyph glyph-name="ccircumflex" unicode="&#x109;" horiz-adv-x="666" 
d="M502 342q-7 54 -47 82.5t-103 28.5q-86 0 -139 -55t-53 -148q0 -89 51.5 -145t135.5 -56q69 0 112 29.5t47 83.5h104q-5 -83 -80 -132t-188 -49q-135 0 -210.5 71.5t-75.5 197.5t79.5 198.5t215.5 72.5q109 0 176.5 -47t78.5 -132h-104zM402 722l119 -140h-82l-95 102
l-95 -102h-82l119 140h116z" />
    <glyph glyph-name="ccaron" unicode="&#x10d;" horiz-adv-x="666" 
d="M502 342q-7 54 -47 82.5t-103 28.5q-86 0 -139 -55t-53 -148q0 -89 51.5 -145t135.5 -56q69 0 112 29.5t47 83.5h104q-5 -83 -80 -132t-188 -49q-135 0 -210.5 71.5t-75.5 197.5t79.5 198.5t215.5 72.5q109 0 176.5 -47t78.5 -132h-104zM249 722l95 -102l95 102h82
l-119 -140h-116l-119 140h82z" />
    <glyph glyph-name="cdotaccent" unicode="&#x10b;" horiz-adv-x="666" 
d="M502 342q-7 54 -47 82.5t-103 28.5q-86 0 -139 -55t-53 -148q0 -89 51.5 -145t135.5 -56q69 0 112 29.5t47 83.5h104q-5 -83 -80 -132t-188 -49q-135 0 -210.5 71.5t-75.5 197.5t79.5 198.5t215.5 72.5q109 0 176.5 -47t78.5 -132h-104zM394 722v-100h-98v100h98z" />
    <glyph glyph-name="ccedilla" unicode="&#xe7;" horiz-adv-x="666" 
d="M610 162q-6 -78 -72 -126.5t-175 -54.5l-35 -44l2 -2q21 7 41 7q45 0 71 -20t26 -49q0 -36 -34.5 -57.5t-95.5 -21.5q-30 0 -62 6t-56 15l15 41q17 -6 39 -11t42 -5q28 0 46 8.5t18 24.5q0 14 -13.5 22.5t-36.5 8.5q-9 0 -19 -2t-24 -6l-19 23l46 63q-124 8 -191 80
t-67 188q0 126 80 198.5t215 72.5q109 0 176.5 -47t78.5 -132h-104q-7 54 -47 82.5t-103 28.5q-86 0 -139 -55t-53 -148q0 -89 51.5 -145t135.5 -56q69 0 112 29.5t47 83.5h104z" />
    <glyph glyph-name="dcaron" unicode="&#x10f;" 
d="M654 722v-611q0 -13 1 -43.5t3 -67.5h-98q-4 42 -4 71q-39 -44 -96 -67t-124 -23q-118 0 -199 77t-81 193q0 118 82.5 194t197.5 76q75 0 127.5 -21.5t92.5 -63.5v286h98zM502 398q-54 55 -145 55q-88 0 -142.5 -54.5t-54.5 -147.5t54 -147.5t144 -54.5q88 0 143 54.5
t55 147.5q0 92 -54 147zM761 567h-77l49 155h104z" />
    <glyph glyph-name="dcroat" unicode="&#x111;" 
d="M556 643v79h98v-79h72v-62h-72v-470q0 -13 1 -43.5t3 -67.5h-98q-3 51 -4 71q-39 -44 -96 -67t-124 -23q-118 0 -199 77t-81 193q0 118 83 194t197 76q75 0 127.5 -21.5t92.5 -63.5v145h-184v62h184zM502 398q-54 55 -145 55q-88 0 -142.5 -54.5t-54.5 -147.5t54 -147.5
t144 -54.5q88 0 143 54.5t55 147.5q0 92 -54 147z" />
    <glyph glyph-name="eth" unicode="&#xf0;" 
d="M468 750l42 -39l-98 -56q136 -76 204 -178.5t68 -225.5q0 -132 -81.5 -201t-232.5 -69q-152 0 -233 71t-81 198q0 111 75.5 181.5t198.5 70.5q59 0 108 -13t93 -49l3 1q-33 45 -84 89.5t-114 78.5l-103 -63l-42 39l87 52q-25 12 -49 21.5t-48 16.5l71 56q26 -10 55 -22
t54 -24zM522 102q58 53 58 137q0 93 -58.5 144t-160.5 51q-88 0 -144.5 -53.5t-56.5 -141.5q0 -83 58 -136.5t152 -53.5t152 53z" />
    <glyph glyph-name="egrave" unicode="&#xe8;" horiz-adv-x="666" 
d="M147 225q8 -83 58 -129.5t128 -46.5q61 0 107.5 26.5t60.5 75.5h104q-12 -82 -83.5 -126t-183.5 -44q-134 0 -211.5 69t-77.5 191q0 135 77.5 207.5t214.5 72.5q132 0 204 -69t72 -199v-28h-470zM513 293q0 76 -48.5 118t-127.5 42q-78 0 -126.5 -40.5t-59.5 -119.5h362z
M321 722l114 -140h-82l-154 140h122z" />
    <glyph glyph-name="eacute" unicode="&#xe9;" horiz-adv-x="666" 
d="M147 225q8 -83 58 -129.5t128 -46.5q61 0 107.5 26.5t60.5 75.5h104q-12 -82 -83.5 -126t-183.5 -44q-134 0 -211.5 69t-77.5 191q0 135 77.5 207.5t214.5 72.5q132 0 204 -69t72 -199v-28h-470zM513 293q0 76 -48.5 118t-127.5 42q-78 0 -126.5 -40.5t-59.5 -119.5h362z
M491 722l-154 -140h-82l114 140h122z" />
    <glyph glyph-name="ecircumflex" unicode="&#xea;" horiz-adv-x="666" 
d="M147 225q8 -83 58 -129.5t128 -46.5q61 0 107.5 26.5t60.5 75.5h104q-12 -82 -83.5 -126t-183.5 -44q-134 0 -211.5 69t-77.5 191q0 135 77.5 207.5t214.5 72.5q132 0 204 -69t72 -199v-28h-470zM513 293q0 76 -48.5 118t-127.5 42q-78 0 -126.5 -40.5t-59.5 -119.5h362z
M403 722l119 -140h-82l-95 102l-95 -102h-82l119 140h116z" />
    <glyph glyph-name="ecaron" unicode="&#x11b;" horiz-adv-x="666" 
d="M147 225q8 -83 58 -129.5t128 -46.5q61 0 107.5 26.5t60.5 75.5h104q-12 -82 -83.5 -126t-183.5 -44q-134 0 -211.5 69t-77.5 191q0 135 77.5 207.5t214.5 72.5q132 0 204 -69t72 -199v-28h-470zM513 293q0 76 -48.5 118t-127.5 42q-78 0 -126.5 -40.5t-59.5 -119.5h362z
M250 722l95 -102l95 102h82l-119 -140h-116l-119 140h82z" />
    <glyph glyph-name="edieresis" unicode="&#xeb;" horiz-adv-x="666" 
d="M147 225q8 -83 58 -129.5t128 -46.5q61 0 107.5 26.5t60.5 75.5h104q-12 -82 -83.5 -126t-183.5 -44q-134 0 -211.5 69t-77.5 191q0 135 77.5 207.5t214.5 72.5q132 0 204 -69t72 -199v-28h-470zM513 293q0 76 -48.5 118t-127.5 42q-78 0 -126.5 -40.5t-59.5 -119.5h362z
M291 722v-100h-98v100h98zM497 722v-100h-98v100h98z" />
    <glyph glyph-name="emacron" unicode="&#x113;" horiz-adv-x="666" 
d="M147 225q8 -83 58 -129.5t128 -46.5q61 0 107.5 26.5t60.5 75.5h104q-12 -82 -83.5 -126t-183.5 -44q-134 0 -211.5 69t-77.5 191q0 135 77.5 207.5t214.5 72.5q132 0 204 -69t72 -199v-28h-470zM513 293q0 76 -48.5 118t-127.5 42q-78 0 -126.5 -40.5t-59.5 -119.5h362z
M511 705v-68h-346v68h346z" />
    <glyph glyph-name="ebreve" unicode="&#x115;" horiz-adv-x="666" 
d="M147 225q8 -83 58 -129.5t128 -46.5q61 0 107.5 26.5t60.5 75.5h104q-12 -82 -83.5 -126t-183.5 -44q-134 0 -211.5 69t-77.5 191q0 135 77.5 207.5t214.5 72.5q132 0 204 -69t72 -199v-28h-470zM513 293q0 76 -48.5 118t-127.5 42q-78 0 -126.5 -40.5t-59.5 -119.5h362z
M213 722q18 -35 52 -53.5t73 -18.5q43 0 75.5 19.5t49.5 52.5h52q-12 -69 -58 -104.5t-119 -35.5t-119 35.5t-58 104.5h52z" />
    <glyph glyph-name="edotaccent" unicode="&#x117;" horiz-adv-x="666" 
d="M147 225q8 -83 58 -129.5t128 -46.5q61 0 107.5 26.5t60.5 75.5h104q-12 -82 -83.5 -126t-183.5 -44q-134 0 -211.5 69t-77.5 191q0 135 77.5 207.5t214.5 72.5q132 0 204 -69t72 -199v-28h-470zM513 293q0 76 -48.5 118t-127.5 42q-78 0 -126.5 -40.5t-59.5 -119.5h362z
M387 722v-100h-98v100h98z" />
    <glyph glyph-name="eogonek" unicode="&#x119;" horiz-adv-x="666" 
d="M147 225q8 -83 58 -129.5t128 -46.5q61 0 107.5 26.5t60.5 75.5h104q-11 -75 -68.5 -116.5t-147.5 -50.5q-47 -33 -66 -57t-19 -47q0 -20 21.5 -30t52.5 -10q15 0 31.5 2.5t31.5 7.5l17 -42q-21 -6 -53 -10t-62 -4q-63 0 -95 18.5t-32 49.5q0 29 27 62t72 58
q-126 6 -196 75t-70 184q0 135 76 207.5t216 72.5q132 0 204 -69t72 -199v-28h-470zM513 293q0 75 -48.5 117.5t-127.5 42.5q-78 0 -126.5 -40.5t-59.5 -119.5h362z" />
    <glyph glyph-name="gcircumflex" unicode="&#x11d;" 
d="M559 434q0 24 1 40t3 28h92q-3 -46 -4 -89v-343q0 -149 -73.5 -212.5t-233.5 -63.5q-136 0 -201 40.5t-69 130.5h104q3 -48 43.5 -75.5t115.5 -27.5q109 0 162.5 45t53.5 156v34h-2q-34 -42 -87.5 -65t-119.5 -23q-129 0 -208.5 72t-79.5 184q0 113 80 184.5t208 71.5
q66 0 118 -20.5t97 -66.5zM502.5 128q50.5 51 50.5 139t-51.5 137t-147.5 49q-91 0 -142.5 -49.5t-51.5 -136.5q0 -91 52.5 -140.5t142.5 -49.5q97 0 147.5 51zM438 722l119 -140h-82l-95 102l-95 -102h-82l119 140h116z" />
    <glyph glyph-name="gbreve" unicode="&#x11f;" 
d="M559 434q0 24 1 40t3 28h92q-3 -46 -4 -89v-343q0 -149 -73.5 -212.5t-233.5 -63.5q-136 0 -201 40.5t-69 130.5h104q3 -48 43.5 -75.5t115.5 -27.5q109 0 162.5 45t53.5 156v34h-2q-34 -42 -87.5 -65t-119.5 -23q-129 0 -208.5 72t-79.5 184q0 113 80 184.5t208 71.5
q66 0 118 -20.5t97 -66.5zM502.5 128q50.5 51 50.5 139t-51.5 137t-147.5 49q-91 0 -142.5 -49.5t-51.5 -136.5q0 -91 52.5 -140.5t142.5 -49.5q97 0 147.5 51zM255 722q18 -35 52 -53.5t73 -18.5q43 0 75.5 19.5t49.5 52.5h52q-12 -69 -58 -104.5t-119 -35.5t-119 35.5
t-58 104.5h52z" />
    <glyph glyph-name="gdotaccent" unicode="&#x121;" 
d="M559 434q0 24 1 40t3 28h92q-3 -46 -4 -89v-343q0 -149 -73.5 -212.5t-233.5 -63.5q-136 0 -201 40.5t-69 130.5h104q3 -48 43.5 -75.5t115.5 -27.5q109 0 162.5 45t53.5 156v34h-2q-34 -42 -87.5 -65t-119.5 -23q-129 0 -208.5 72t-79.5 184q0 113 80 184.5t208 71.5
q66 0 118 -20.5t97 -66.5zM502.5 128q50.5 51 50.5 139t-51.5 137t-147.5 49q-91 0 -142.5 -49.5t-51.5 -136.5q0 -91 52.5 -140.5t142.5 -49.5q97 0 147.5 51zM429 722v-100h-98v100h98z" />
    <glyph glyph-name="gcommaaccent" unicode="&#x123;" 
d="M559 434q0 24 1 40t3 28h92q-3 -46 -4 -89v-343q0 -149 -73.5 -212.5t-233.5 -63.5q-136 0 -201 40.5t-69 130.5h104q3 -48 43.5 -75.5t115.5 -27.5q109 0 162.5 45t53.5 156v34h-2q-34 -42 -87.5 -65t-119.5 -23q-129 0 -208.5 72t-79.5 184q0 113 80 184.5t208 71.5
q66 0 118 -20.5t97 -66.5zM502.5 128q50.5 51 50.5 139t-51.5 137t-147.5 49q-91 0 -142.5 -49.5t-51.5 -136.5q0 -91 52.5 -140.5t142.5 -49.5q97 0 147.5 51zM402 735h74l-52 -148h-105z" />
    <glyph glyph-name="hcircumflex" unicode="&#x125;" 
d="M190 722v-308h2q35 57 90.5 82t121.5 25q115 0 179.5 -64t64.5 -170v-287h-98v281q0 79 -43.5 125.5t-117.5 46.5q-86 0 -142.5 -57t-56.5 -159v-237h-98v722h98zM331 909l119 -140h-82l-95 102l-95 -102h-82l119 140h116z" />
    <glyph glyph-name="hbar" unicode="&#x127;" 
d="M190 722v-79h184v-62h-184v-167h2q35 57 90.5 82t121.5 25q115 0 179.5 -63t64.5 -171v-287h-98v281q0 79 -43.5 125.5t-117.5 46.5q-86 0 -142.5 -57t-56.5 -159v-237h-98v581h-72v62h72v79h98z" />
    <glyph glyph-name="dotlessi" unicode="&#x131;" horiz-adv-x="296" 
d="M197 502v-502h-98v502h98z" />
    <glyph glyph-name="igrave" unicode="&#xec;" horiz-adv-x="296" 
d="M197 502v-502h-98v502h98zM124 722l114 -140h-82l-154 140h122z" />
    <glyph glyph-name="iacute" unicode="&#xed;" horiz-adv-x="296" 
d="M197 502v-502h-98v502h98zM294 722l-154 -140h-82l114 140h122z" />
    <glyph glyph-name="ibreve" unicode="&#x12d;" horiz-adv-x="296" 
d="M197 502v-502h-98v502h98zM23 722q18 -35 52 -53.5t73 -18.5q43 0 75.5 19.5t49.5 52.5h52q-12 -69 -58 -104.5t-119 -35.5t-119 35.5t-58 104.5h52z" />
    <glyph glyph-name="icircumflex" unicode="&#xee;" horiz-adv-x="296" 
d="M197 502v-502h-98v502h98zM206 722l119 -140h-82l-95 102l-95 -102h-82l119 140h116z" />
    <glyph glyph-name="itilde" unicode="&#x129;" horiz-adv-x="296" 
d="M197 502v-502h-98v502h98zM148 701l44 -14q20 -7 29 -7q17 0 30.5 10.5t15.5 31.5h58q-3 -110 -93 -110q-20 0 -44 5.5t-47 12.5l-46 13q-18 5 -29 5q-16 0 -26 -12.5t-11 -29.5h-58q0 58 23.5 87t63.5 29q18 0 42 -6.5t48 -14.5z" />
    <glyph glyph-name="idieresis" unicode="&#xef;" horiz-adv-x="296" 
d="M197 502v-502h-98v502h98zM94 722v-100h-98v100h98zM300 722v-100h-98v100h98z" />
    <glyph glyph-name="imacron" unicode="&#x12b;" horiz-adv-x="296" 
d="M197 502v-502h-98v502h98zM321 705v-68h-346v68h346z" />
    <glyph glyph-name="iogonek" unicode="&#x12f;" horiz-adv-x="296" 
d="M99 0v502h98v-502h-10q-59 -40 -84.5 -67t-25.5 -53q0 -20 21.5 -30t52.5 -10q15 0 31.5 2.5t31.5 7.5l17 -42q-21 -6 -53 -10t-62 -4q-63 0 -95 18.5t-32 49.5q0 34 40 75t100 63h-30zM197 722v-100h-98v100h98z" />
    <glyph glyph-name="dotlessj" unicode="&#x237;" horiz-adv-x="296" 
d="M197 502v-552q0 -76 -37 -112t-125 -36q-50 0 -69 4v72q8 0 18.5 -1t30.5 -1q53 0 68.5 25t15.5 84v517h98z" />
    <glyph glyph-name="jcircumflex" unicode="&#x135;" horiz-adv-x="296" 
d="M197 502v-552q0 -76 -37 -112t-125 -36q-50 0 -69 4v72q8 0 18.5 -1t30.5 -1q53 0 68.5 25t15.5 84v517h98zM206 722l119 -140h-82l-95 102l-95 -102h-82l119 140h116z" />
    <glyph glyph-name="kcommaaccent" unicode="&#x137;" horiz-adv-x="666" 
d="M197 722v-426l268 206h140l-279 -217l327 -285h-146l-310 278v-278h-98v722h98zM308 -200h-74l54 153h105z" />
    <glyph glyph-name="kgreenlandic" unicode="&#x138;" horiz-adv-x="666" 
d="M197 502v-206l268 206h140l-279 -217l327 -285h-146l-310 278v-278h-98v502h98z" />
    <glyph glyph-name="lacute" unicode="&#x13a;" horiz-adv-x="296" 
d="M197 722v-722h-98v722h98zM337 909l-154 -140h-82l114 140h122z" />
    <glyph glyph-name="lcaron" unicode="&#x13e;" horiz-adv-x="296" 
d="M197 722v-722h-98v722h98zM304 567h-77l49 155h104z" />
    <glyph glyph-name="lcommaaccent" unicode="&#x13c;" horiz-adv-x="296" 
d="M197 722v-722h-98v722h98zM118 -200h-74l54 153h105z" />
    <glyph glyph-name="lslash" unicode="&#x142;" horiz-adv-x="296" 
d="M197 722v-277l71 41v-74l-71 -41v-371h-98v315l-71 -41v74l71 41v333h98z" />
    <glyph glyph-name="ldot" unicode="&#x140;" horiz-adv-x="360" 
d="M197 722v-722h-98v722h98zM377 408v-100h-98v100h98z" />
    <glyph glyph-name="nacute" unicode="&#x144;" 
d="M648 286v-286h-98v281q0 79 -43 125.5t-118 46.5q-88 0 -143.5 -57.5t-55.5 -156.5v-239h-98v396q0 20 -1 48.5t-3 57.5h92q2 -20 3 -41t1 -48h2q43 58 97 83t122 25q114 0 178.5 -63t64.5 -172zM518 722l-154 -140h-82l114 140h122z" />
    <glyph glyph-name="ncaron" unicode="&#x148;" 
d="M648 286v-286h-98v281q0 79 -43 125.5t-118 46.5q-88 0 -143.5 -57.5t-55.5 -156.5v-239h-98v396q0 20 -1 48.5t-3 57.5h92q2 -20 3 -41t1 -48h2q43 58 97 83t122 25q114 0 178.5 -63t64.5 -172zM277 722l95 -102l95 102h82l-119 -140h-116l-119 140h82z" />
    <glyph glyph-name="ntilde" unicode="&#xf1;" 
d="M648 286v-286h-98v281q0 79 -43 125.5t-118 46.5q-88 0 -143.5 -57.5t-55.5 -156.5v-239h-98v396q0 20 -1 48.5t-3 57.5h92q2 -20 3 -41t1 -48h2q43 58 97 83t122 25q114 0 178.5 -63t64.5 -172zM370 701l44 -14q20 -7 29 -7q17 0 30.5 10.5t15.5 31.5h58
q-3 -110 -93 -110q-20 0 -44 5.5t-47 12.5l-46 13q-18 5 -29 5q-16 0 -26 -12.5t-11 -29.5h-58q0 58 23.5 87t63.5 29q18 0 42 -6.5t48 -14.5z" />
    <glyph glyph-name="ncommaaccent" unicode="&#x146;" 
d="M648 286v-286h-98v281q0 79 -43 125.5t-118 46.5q-88 0 -143.5 -57.5t-55.5 -156.5v-239h-98v396q0 20 -1 48.5t-3 57.5h92q2 -20 3 -41t1 -48h2q43 58 97 83t122 25q114 0 178.5 -63t64.5 -172zM354 -200h-74l54 153h105z" />
    <glyph glyph-name="ograve" unicode="&#xf2;" 
d="M602.5 50q-81.5 -69 -232.5 -69t-232.5 70t-81.5 200q0 127 81 198.5t233 71.5q151 0 232.5 -70t81.5 -200q0 -132 -81.5 -201zM524 105q56 56 56 146q0 92 -57 147t-154 55q-96 0 -152.5 -55.5t-56.5 -146.5q0 -93 58 -147.5t152 -54.5q98 0 154 56zM346 722l114 -140
h-82l-154 140h122z" />
    <glyph glyph-name="oacute" unicode="&#xf3;" 
d="M602.5 50q-81.5 -69 -232.5 -69t-232.5 70t-81.5 200q0 127 81 198.5t233 71.5q151 0 232.5 -70t81.5 -200q0 -132 -81.5 -201zM524 105q56 56 56 146q0 92 -57 147t-154 55q-96 0 -152.5 -55.5t-56.5 -146.5q0 -93 58 -147.5t152 -54.5q98 0 154 56zM516 722l-154 -140
h-82l114 140h122z" />
    <glyph glyph-name="ocircumflex" unicode="&#xf4;" 
d="M602.5 50q-81.5 -69 -232.5 -69t-232.5 70t-81.5 200q0 127 81 198.5t233 71.5q151 0 232.5 -70t81.5 -200q0 -132 -81.5 -201zM524 105q56 56 56 146q0 92 -57 147t-154 55q-96 0 -152.5 -55.5t-56.5 -146.5q0 -93 58 -147.5t152 -54.5q98 0 154 56zM428 722l119 -140
h-82l-95 102l-95 -102h-82l119 140h116z" />
    <glyph glyph-name="otilde" unicode="&#xf5;" 
d="M602.5 50q-81.5 -69 -232.5 -69t-232.5 70t-81.5 200q0 127 81 198.5t233 71.5q151 0 232.5 -70t81.5 -200q0 -132 -81.5 -201zM524 105q56 56 56 146q0 92 -57 147t-154 55q-96 0 -152.5 -55.5t-56.5 -146.5q0 -93 58 -147.5t152 -54.5q98 0 154 56zM370 701l44 -14
q20 -7 29 -7q17 0 30.5 10.5t15.5 31.5h58q-3 -110 -93 -110q-20 0 -44 5.5t-47 12.5l-46 13q-18 5 -29 5q-16 0 -26 -12.5t-11 -29.5h-58q0 58 23.5 87t63.5 29q18 0 42 -6.5t48 -14.5z" />
    <glyph glyph-name="odieresis" unicode="&#xf6;" 
d="M602.5 50q-81.5 -69 -232.5 -69t-232.5 70t-81.5 200q0 127 81 198.5t233 71.5q151 0 232.5 -70t81.5 -200q0 -132 -81.5 -201zM524 105q56 56 56 146q0 92 -57 147t-154 55q-96 0 -152.5 -55.5t-56.5 -146.5q0 -93 58 -147.5t152 -54.5q98 0 154 56zM316 722v-100h-98
v100h98zM522 722v-100h-98v100h98z" />
    <glyph glyph-name="omacron" unicode="&#x14d;" 
d="M602.5 50q-81.5 -69 -232.5 -69t-232.5 70t-81.5 200q0 127 81 198.5t233 71.5q151 0 232.5 -70t81.5 -200q0 -132 -81.5 -201zM524 105q56 56 56 146q0 92 -57 147t-154 55q-96 0 -152.5 -55.5t-56.5 -146.5q0 -93 58 -147.5t152 -54.5q98 0 154 56zM543 705v-68h-346
v68h346z" />
    <glyph glyph-name="obreve" unicode="&#x14f;" 
d="M602.5 50q-81.5 -69 -232.5 -69t-232.5 70t-81.5 200q0 127 81 198.5t233 71.5q151 0 232.5 -70t81.5 -200q0 -132 -81.5 -201zM524 105q56 56 56 146q0 92 -57 147t-154 55q-96 0 -152.5 -55.5t-56.5 -146.5q0 -93 58 -147.5t152 -54.5q98 0 154 56zM245 722
q18 -35 52 -53.5t73 -18.5q43 0 75.5 19.5t49.5 52.5h52q-12 -69 -58 -104.5t-119 -35.5t-119 35.5t-58 104.5h52z" />
    <glyph glyph-name="ohungarumlaut" unicode="&#x151;" 
d="M602.5 50q-81.5 -69 -232.5 -69t-232.5 70t-81.5 200q0 127 81 198.5t233 71.5q151 0 232.5 -70t81.5 -200q0 -132 -81.5 -201zM524 105q56 56 56 146q0 92 -57 147t-154 55q-96 0 -152.5 -55.5t-56.5 -146.5q0 -93 58 -147.5t152 -54.5q98 0 154 56zM470 722l-154 -140
h-82l114 140h122zM670 722l-154 -140h-82l114 140h122z" />
    <glyph glyph-name="oslash" unicode="&#xf8;" 
d="M627 565l30 -29l-67 -75q46 -33 70 -86t24 -124q0 -132 -81.5 -201t-232.5 -69q-110 0 -182 37l-76 -83l-29 30l68 75q-95 71 -95 211q0 129 81.5 199.5t232.5 70.5q58 0 102.5 -9.5t80.5 -27.5zM213 108l282 312q-25 16 -56 24.5t-70 8.5q-95 0 -152 -55.5t-57 -146.5
q0 -88 53 -143zM246 82q25 -16 56 -24.5t68 -8.5q96 0 153 55.5t57 146.5q0 42 -13 78.5t-39 63.5z" />
    <glyph glyph-name="oslashacute" unicode="&#x1ff;" 
d="M627 565l30 -29l-67 -75q46 -33 70 -86t24 -124q0 -132 -81.5 -201t-232.5 -69q-110 0 -182 37l-76 -83l-29 30l68 75q-95 71 -95 211q0 129 81.5 199.5t232.5 70.5q58 0 102.5 -9.5t80.5 -27.5zM213 108l282 312q-25 16 -56 24.5t-70 8.5q-95 0 -152 -55.5t-57 -146.5
q0 -88 53 -143zM246 82q25 -16 56 -24.5t68 -8.5q96 0 153 55.5t57 146.5q0 42 -13 78.5t-39 63.5zM516 722l-154 -140h-82l114 140h122z" />
    <glyph glyph-name="oe" unicode="&#x153;" horiz-adv-x="1184" 
d="M626 407q29 54 89.5 84t144.5 30q128 0 198.5 -78.5t72.5 -217.5h-466q11 -85 59.5 -130.5t122.5 -45.5q61 0 107.5 26t61.5 76h104q-11 -82 -83.5 -126t-182.5 -44q-81 0 -141 27.5t-92 82.5q-36 -54 -98.5 -82t-155.5 -28q-151 0 -232.5 70t-81.5 200q0 128 82.5 199
t231.5 71q84 0 158.5 -32t100.5 -82zM520 104.5q57 55.5 57 146.5q0 88 -56 145t-155 57q-95 0 -152 -55.5t-57 -146.5q0 -93 57.5 -147.5t152.5 -54.5q96 0 153 55.5zM1021 293q0 77 -48.5 118.5t-122.5 41.5t-123 -39.5t-62 -120.5h356z" />
    <glyph glyph-name="racute" unicode="&#x155;" horiz-adv-x="444" 
d="M420 421q-11 4 -22.5 5t-23.5 1q-85 0 -134.5 -52t-49.5 -131v-244h-98v396q0 20 -1 48.5t-3 57.5h92q2 -25 3 -49.5t1 -50.5h2q35 64 77.5 85.5t124.5 21.5h32v-88zM375 722l-154 -140h-82l114 140h122z" />
    <glyph glyph-name="rcaron" unicode="&#x159;" horiz-adv-x="444" 
d="M420 421q-11 4 -22.5 5t-23.5 1q-85 0 -134.5 -52t-49.5 -131v-244h-98v396q0 20 -1 48.5t-3 57.5h92q2 -25 3 -49.5t1 -50.5h2q35 64 77.5 85.5t124.5 21.5h32v-88zM149 722l95 -102l95 102h82l-119 -140h-116l-119 140h82z" />
    <glyph glyph-name="rcommaaccent" unicode="&#x157;" horiz-adv-x="444" 
d="M420 421q-11 4 -22.5 5t-23.5 1q-85 0 -134.5 -52t-49.5 -131v-244h-98v396q0 20 -1 48.5t-3 57.5h92q2 -25 3 -49.5t1 -50.5h2q35 64 77.5 85.5t124.5 21.5h32v-88zM111 -200h-74l54 153h105z" />
    <glyph glyph-name="sacute" unicode="&#x15b;" horiz-adv-x="666" 
d="M578 372h-95q-9 42 -44 61.5t-101 19.5q-68 0 -109 -21t-41 -55q0 -27 25.5 -43.5t81.5 -27.5l166 -31q69 -13 104 -44t35 -88q0 -162 -278 -162q-118 0 -184.5 42t-71.5 120h104q6 -46 45 -70t118 -24q82 0 122.5 23.5t40.5 63.5q0 34 -46.5 50.5t-150 31.5t-156.5 49
t-53 97q0 77 65 117t179 40t177.5 -38t66.5 -111zM480 722l-154 -140h-82l114 140h122z" />
    <glyph glyph-name="scircumflex" unicode="&#x15d;" horiz-adv-x="666" 
d="M578 372h-95q-9 42 -44 61.5t-101 19.5q-68 0 -109 -21t-41 -55q0 -27 25.5 -43.5t81.5 -27.5l166 -31q69 -13 104 -44t35 -88q0 -162 -278 -162q-118 0 -184.5 42t-71.5 120h104q6 -46 45 -70t118 -24q82 0 122.5 23.5t40.5 63.5q0 34 -46.5 50.5t-150 31.5t-156.5 49
t-53 97q0 77 65 117t179 40t177.5 -38t66.5 -111zM391 722l119 -140h-82l-95 102l-95 -102h-82l119 140h116z" />
    <glyph glyph-name="scaron" unicode="&#x161;" horiz-adv-x="666" 
d="M578 372h-95q-9 42 -44 61.5t-101 19.5q-68 0 -109 -21t-41 -55q0 -27 25.5 -43.5t81.5 -27.5l166 -31q69 -13 104 -44t35 -88q0 -162 -278 -162q-118 0 -184.5 42t-71.5 120h104q6 -46 45 -70t118 -24q82 0 122.5 23.5t40.5 63.5q0 34 -46.5 50.5t-150 31.5t-156.5 49
t-53 97q0 77 65 117t179 40t177.5 -38t66.5 -111zM238 722l95 -102l95 102h82l-119 -140h-116l-119 140h82z" />
    <glyph glyph-name="scedilla" unicode="&#x15f;" horiz-adv-x="666" 
d="M296 -18q-106 5 -166 46t-64 115h104q6 -46 45 -70t118 -24q82 0 122.5 23.5t40.5 63.5q0 34 -45.5 50.5t-149.5 31t-157.5 49t-53.5 97.5q0 79 66 118t178 39q114 0 177.5 -38t66.5 -111h-95q-9 42 -44 61.5t-101 19.5q-68 0 -109 -21t-41 -55q0 -27 25.5 -43.5
t81.5 -27.5l166 -31q69 -13 104 -44t35 -88q0 -155 -254 -161l-34 -45l2 -2q11 4 21.5 5.5t19.5 1.5q43 0 70 -19t27 -50q0 -36 -34.5 -57.5t-95.5 -21.5q-30 0 -62 6t-56 15l15 41q17 -6 39 -11t42 -5q29 0 46.5 9t17.5 24q0 31 -51 31q-8 0 -19.5 -2.5t-22.5 -5.5l-19 23z
" />
    <glyph glyph-name="scommaaccent" unicode="&#x219;" horiz-adv-x="666" 
d="M578 372h-95q-9 42 -44 61.5t-101 19.5q-68 0 -109 -21t-41 -55q0 -27 25.5 -43.5t81.5 -27.5l166 -31q69 -13 104 -44t35 -88q0 -162 -278 -162q-118 0 -184.5 42t-71.5 120h104q6 -46 45 -70t118 -24q82 0 122.5 23.5t40.5 63.5q0 34 -46.5 50.5t-150 31.5t-156.5 49
t-53 97q0 77 65 117t179 40t177.5 -38t66.5 -111zM307 -200h-74l54 153h105z" />
    <glyph glyph-name="germandbls" unicode="&#xdf;" horiz-adv-x="814" 
d="M569 467q-82 -50 -82 -84q0 -20 18 -33t59 -28l102 -38q48 -18 77 -51.5t29 -86.5q0 -77 -61.5 -121t-173.5 -44q-100 0 -154 42t-57 123h104q4 -97 117 -97q59 0 93 25.5t34 67.5q0 66 -145.5 107.5t-145.5 130.5q0 34 25 64.5t90 72t65 75.5q0 39 -41 65t-108 26
q-109 0 -163 -64.5t-54 -189.5v-429h-98v406q0 172 74.5 253.5t238.5 81.5q107 0 173 -41t66 -101q0 -82 -82 -132z" />
    <glyph glyph-name="tcaron" unicode="&#x165;" horiz-adv-x="444" 
d="M258 502h148v-68h-148v-289q0 -43 16.5 -63t59.5 -20q14 0 34 1.5t41 4.5v-68q-50 -6 -94 -6q-85 0 -120 34.5t-35 110.5v295h-131v68h131v92l98 41v-133zM392 567h-77l49 155h104z" />
    <glyph glyph-name="tcommaaccent" unicode="&#x163;" horiz-adv-x="444" 
d="M258 502h148v-68h-148v-289q0 -43 16.5 -63t59.5 -20q14 0 34 1.5t41 4.5v-68q-50 -6 -94 -6q-85 0 -120 34.5t-35 110.5v295h-131v68h131v92l98 41v-133zM220 -200h-74l54 153h105z" />
    <glyph glyph-name="uni021B" unicode="&#x21b;" horiz-adv-x="444" 
d="M258 502h148v-68h-148v-289q0 -43 16.5 -63t59.5 -20q14 0 34 1.5t41 4.5v-68q-50 -6 -94 -6q-85 0 -120 34.5t-35 110.5v295h-131v68h131v92l98 41v-133zM220 -200h-74l54 153h105z" />
    <glyph glyph-name="tbar" unicode="&#x167;" horiz-adv-x="444" 
d="M258 502h148v-68h-148v-80h126v-67h-126v-142q0 -45 16.5 -64t59.5 -19q14 0 34 1.5t41 4.5v-68q-50 -6 -94 -6q-86 0 -120.5 35.5t-34.5 109.5v148h-112v67h112v80h-131v68h131v92l98 41v-133z" />
    <glyph glyph-name="thorn" unicode="&#xfe;" 
d="M184 722v-291q39 45 96.5 67.5t123.5 22.5q118 0 199 -77.5t81 -192.5t-81 -192.5t-200 -77.5q-73 0 -126 21.5t-93 63.5v-258h-98v914h98zM526.5 104q53.5 55 53.5 147t-54 147t-145 55q-89 0 -143 -55t-54 -147q0 -93 55 -147.5t143 -54.5q91 0 144.5 55z" />
    <glyph glyph-name="ugrave" unicode="&#xf9;" 
d="M190 502v-280q0 -79 43 -126t118 -47q88 0 143.5 58t55.5 154v241h98v-393q0 -23 1 -51t3 -58h-92q-2 20 -3 43t-1 46h-2q-43 -58 -96.5 -83t-122.5 -25q-112 0 -177.5 63t-65.5 171v287h98zM346 722l114 -140h-82l-154 140h122z" />
    <glyph glyph-name="uacute" unicode="&#xfa;" 
d="M190 502v-280q0 -79 43 -126t118 -47q88 0 143.5 58t55.5 154v241h98v-393q0 -23 1 -51t3 -58h-92q-2 20 -3 43t-1 46h-2q-43 -58 -96.5 -83t-122.5 -25q-112 0 -177.5 63t-65.5 171v287h98zM516 722l-154 -140h-82l114 140h122z" />
    <glyph glyph-name="ucircumflex" unicode="&#xfb;" 
d="M190 502v-280q0 -79 43 -126t118 -47q88 0 143.5 58t55.5 154v241h98v-393q0 -23 1 -51t3 -58h-92q-2 20 -3 43t-1 46h-2q-43 -58 -96.5 -83t-122.5 -25q-112 0 -177.5 63t-65.5 171v287h98zM428 722l119 -140h-82l-95 102l-95 -102h-82l119 140h116z" />
    <glyph glyph-name="utilde" unicode="&#x169;" 
d="M190 502v-280q0 -79 43 -126t118 -47q88 0 143.5 58t55.5 154v241h98v-393q0 -23 1 -51t3 -58h-92q-2 20 -3 43t-1 46h-2q-43 -58 -96.5 -83t-122.5 -25q-112 0 -177.5 63t-65.5 171v287h98zM367 701l44 -14q20 -7 29 -7q17 0 30.5 10.5t15.5 31.5h58q-3 -110 -93 -110
q-20 0 -44 5.5t-47 12.5l-46 13q-18 5 -29 5q-16 0 -26 -12.5t-11 -29.5h-58q0 58 23.5 87t63.5 29q18 0 42 -6.5t48 -14.5z" />
    <glyph glyph-name="udieresis" unicode="&#xfc;" 
d="M190 502v-280q0 -79 43 -126t118 -47q88 0 143.5 58t55.5 154v241h98v-393q0 -23 1 -51t3 -58h-92q-2 20 -3 43t-1 46h-2q-43 -58 -96.5 -83t-122.5 -25q-112 0 -177.5 63t-65.5 171v287h98zM316 722v-100h-98v100h98zM522 722v-100h-98v100h98z" />
    <glyph glyph-name="umacron" unicode="&#x16b;" 
d="M190 502v-280q0 -79 43 -126t118 -47q88 0 143.5 58t55.5 154v241h98v-393q0 -23 1 -51t3 -58h-92q-2 20 -3 43t-1 46h-2q-43 -58 -96.5 -83t-122.5 -25q-112 0 -177.5 63t-65.5 171v287h98zM538 705v-68h-346v68h346z" />
    <glyph glyph-name="ubreve" unicode="&#x16d;" 
d="M190 502v-280q0 -79 43 -126t118 -47q88 0 143.5 58t55.5 154v241h98v-393q0 -23 1 -51t3 -58h-92q-2 20 -3 43t-1 46h-2q-43 -58 -96.5 -83t-122.5 -25q-112 0 -177.5 63t-65.5 171v287h98zM240 722q18 -35 52 -53.5t73 -18.5q43 0 75.5 19.5t49.5 52.5h52
q-12 -69 -58 -104.5t-119 -35.5t-119 35.5t-58 104.5h52z" />
    <glyph glyph-name="uring" unicode="&#x16f;" 
d="M190 502v-280q0 -79 43 -126t118 -47q88 0 143.5 58t55.5 154v241h98v-393q0 -23 1 -51t3 -58h-92q-2 20 -3 43t-1 46h-2q-43 -58 -96.5 -83t-122.5 -25q-112 0 -177.5 63t-65.5 171v287h98zM447 595q-30 -30 -72 -30t-72 30t-30 72q0 43 30.5 72.5t71.5 29.5
q42 0 72 -30t30 -72t-30 -72zM414.5 627.5q16.5 16.5 16.5 39.5q0 22 -15.5 39t-41.5 17q-21 0 -38 -15.5t-17 -40.5q0 -23 16.5 -39.5t39.5 -16.5t39.5 16.5z" />
    <glyph glyph-name="uhungarumlaut" unicode="&#x171;" 
d="M190 502v-280q0 -79 43 -126t118 -47q88 0 143.5 58t55.5 154v241h98v-393q0 -23 1 -51t3 -58h-92q-2 20 -3 43t-1 46h-2q-43 -58 -96.5 -83t-122.5 -25q-112 0 -177.5 63t-65.5 171v287h98zM439 722l-154 -140h-82l114 140h122zM639 722l-154 -140h-82l114 140h122z" />
    <glyph glyph-name="uogonek" unicode="&#x173;" 
d="M560 0q-2 20 -3 43t-1 46h-2q-43 -58 -96.5 -83t-122.5 -25q-112 0 -177.5 62.5t-65.5 171.5v287h98v-280q0 -79 43 -126t118 -47q88 0 143.5 58.5t55.5 153.5v241h98v-393q0 -23 1 -51.5t3 -57.5h-17q-59 -40 -84.5 -67t-25.5 -53q0 -20 21.5 -30t52.5 -10
q15 0 31.5 2.5t31.5 7.5l17 -42q-21 -6 -53 -10t-62 -4q-63 0 -95 18.5t-32 49.5q0 34 40 75t100 63h-17z" />
    <glyph glyph-name="wacute" unicode="&#x1e83;" horiz-adv-x="1110" 
d="M124 502l180 -414l191 414h124l196 -420l183 420h101l-224 -502h-127l-197 420l-193 -420h-120l-227 502h113zM734 722l-154 -140h-82l114 140h122z" />
    <glyph glyph-name="wcircumflex" unicode="&#x175;" horiz-adv-x="1110" 
d="M124 502l180 -414l191 414h124l196 -420l183 420h101l-224 -502h-127l-197 420l-193 -420h-120l-227 502h113zM610 722l119 -140h-82l-95 102l-95 -102h-82l119 140h116z" />
    <glyph glyph-name="wdieresis" unicode="&#x1e85;" horiz-adv-x="1110" 
d="M124 502l180 -414l191 414h124l196 -420l183 420h101l-224 -502h-127l-197 420l-193 -420h-120l-227 502h113zM498 722v-100h-98v100h98zM704 722v-100h-98v100h98z" />
    <glyph glyph-name="wgrave" unicode="&#x1e81;" horiz-adv-x="1110" 
d="M124 502l180 -414l191 414h124l196 -420l183 420h101l-224 -502h-127l-197 420l-193 -420h-120l-227 502h113zM501 722l114 -140h-82l-154 140h122z" />
    <glyph glyph-name="yacute" unicode="&#xfd;" horiz-adv-x="666" 
d="M126 502l214 -408l212 408h104l-363 -694h-110l104 192l-277 502h116zM519 722l-154 -140h-82l114 140h122z" />
    <glyph glyph-name="ycircumflex" unicode="&#x177;" horiz-adv-x="666" 
d="M126 502l214 -408l212 408h104l-363 -694h-110l104 192l-277 502h116zM391 722l119 -140h-82l-95 102l-95 -102h-82l119 140h116z" />
    <glyph glyph-name="ydieresis" unicode="&#xff;" horiz-adv-x="666" 
d="M126 502l214 -408l212 408h104l-363 -694h-110l104 192l-277 502h116zM279 722v-100h-98v100h98zM485 722v-100h-98v100h98z" />
    <glyph glyph-name="ygrave" unicode="&#x1ef3;" horiz-adv-x="666" 
d="M126 502l214 -408l212 408h104l-363 -694h-110l104 192l-277 502h116zM298 722l114 -140h-82l-154 140h122z" />
    <glyph glyph-name="zacute" unicode="&#x17a;" horiz-adv-x="593" 
d="M535 502v-82l-359 -346h369v-74h-497v82l358 346h-343v74h472zM457 722l-154 -140h-82l114 140h122z" />
    <glyph glyph-name="zcaron" unicode="&#x17e;" horiz-adv-x="593" 
d="M535 502v-82l-359 -346h369v-74h-497v82l358 346h-343v74h472zM202 722l95 -102l95 102h82l-119 -140h-116l-119 140h82z" />
    <glyph glyph-name="zdotaccent" unicode="&#x17c;" horiz-adv-x="593" 
d="M535 502v-82l-359 -346h369v-74h-497v82l358 346h-343v74h472zM346 722v-100h-98v100h98z" />
    <glyph glyph-name="grave.cap" horiz-adv-x="296" 
d="M124 909l114 -140h-82l-154 140h122z" />
    <glyph glyph-name="acute" unicode="&#xb4;" horiz-adv-x="296" 
d="M294 722l-154 -140h-82l114 140h122z" />
    <glyph glyph-name="acute.cap" horiz-adv-x="296" 
d="M294 909l-154 -140h-82l114 140h122z" />
    <glyph glyph-name="circumflex" unicode="&#x2c6;" horiz-adv-x="296" 
d="M206 722l119 -140h-82l-95 102l-95 -102h-82l119 140h116z" />
    <glyph glyph-name="circumflex.cap" horiz-adv-x="296" 
d="M206 909l119 -140h-82l-95 102l-95 -102h-82l119 140h116z" />
    <glyph glyph-name="caron" unicode="&#x2c7;" horiz-adv-x="296" 
d="M53 722l95 -102l95 102h82l-119 -140h-116l-119 140h82z" />
    <glyph glyph-name="caron.cap" horiz-adv-x="296" 
d="M53 909l95 -102l95 102h82l-119 -140h-116l-119 140h82z" />
    <glyph glyph-name="caron.alt" horiz-adv-x="296" 
d="M149 567h-77l49 155h104z" />
    <glyph glyph-name="tilde" unicode="&#x2dc;" horiz-adv-x="296" 
d="M148 701l44 -14q20 -7 29 -7q17 0 30.5 10.5t15.5 31.5h58q-3 -110 -93 -110q-20 0 -44 5.5t-47 12.5l-46 13q-18 5 -29 5q-16 0 -26 -12.5t-11 -29.5h-58q0 58 23.5 87t63.5 29q18 0 42 -6.5t48 -14.5z" />
    <glyph glyph-name="tilde.cap" horiz-adv-x="296" 
d="M148 888l44 -14q20 -7 29 -7q17 0 30.5 10.5t15.5 31.5h58q-3 -110 -93 -110q-20 0 -44 5.5t-47 12.5l-44 13q-20 5 -31 5q-16 0 -26 -12.5t-11 -29.5h-58q0 58 23.5 87t63.5 29q18 0 42 -6.5t48 -14.5z" />
    <glyph glyph-name="dieresis" unicode="&#xa8;" horiz-adv-x="296" 
d="M94 722v-100h-98v100h98zM300 722v-100h-98v100h98z" />
    <glyph glyph-name="dieresis.cap" horiz-adv-x="296" 
d="M94 909v-100h-98v100h98zM300 909v-100h-98v100h98z" />
    <glyph glyph-name="macron" unicode="&#xaf;" horiz-adv-x="296" 
d="M321 705v-68h-346v68h346z" />
    <glyph glyph-name="macron.cap" horiz-adv-x="296" 
d="M321 892v-68h-346v68h346z" />
    <glyph glyph-name="uni02C9" unicode="&#x2c9;" horiz-adv-x="296" 
d="M321 705v-68h-346v68h346z" />
    <glyph glyph-name="breve" unicode="&#x2d8;" horiz-adv-x="296" 
d="M23 722q18 -35 52 -53.5t73 -18.5q43 0 75.5 19.5t49.5 52.5h52q-12 -69 -58 -104.5t-119 -35.5t-119 35.5t-58 104.5h52z" />
    <glyph glyph-name="breve.cap" horiz-adv-x="296" 
d="M23 909q18 -35 52 -53.5t73 -18.5q43 0 75.5 19.5t49.5 52.5h52q-12 -69 -57 -104.5t-120 -35.5t-120 35.5t-57 104.5h52z" />
    <glyph glyph-name="ring" unicode="&#x2da;" horiz-adv-x="296" 
d="M220 595q-30 -30 -72 -30t-72 30t-30 72q0 43 30.5 72.5t71.5 29.5q42 0 72 -30t30 -72t-30 -72zM187.5 627.5q16.5 16.5 16.5 39.5q0 22 -15.5 39t-41.5 17q-21 0 -38 -15.5t-17 -40.5q0 -23 16.5 -39.5t39.5 -16.5t39.5 16.5z" />
    <glyph glyph-name="ring.cap" horiz-adv-x="296" 
d="M219 771q-31 -30 -71 -30q-42 0 -72 30t-30 72q0 43 30.5 72.5t71.5 29.5q42 0 72 -30t30 -72t-31 -72zM187.5 803.5q16.5 16.5 16.5 39.5q0 22 -15.5 39t-41.5 17q-21 0 -38 -15.5t-17 -40.5q0 -23 16.5 -39.5t39.5 -16.5t39.5 16.5z" />
    <glyph glyph-name="hungarumlaut" unicode="&#x2dd;" horiz-adv-x="296" 
d="M194 722l-154 -140h-82l114 140h122zM394 722l-154 -140h-82l114 140h122z" />
    <glyph glyph-name="hungarumlaut.cap" horiz-adv-x="296" 
d="M194 909l-154 -140h-82l114 140h122zM394 909l-154 -140h-82l114 140h122z" />
    <glyph glyph-name="dotaccent" unicode="&#x2d9;" horiz-adv-x="296" 
d="M197 722v-100h-98v100h98z" />
    <glyph glyph-name="dotaccent.cap" horiz-adv-x="296" 
d="M197 909v-100h-98v100h98z" />
    <glyph glyph-name="cedilla" unicode="&#xb8;" horiz-adv-x="296" 
d="M129 9h52l-56 -72l2 -2q11 4 21.5 5.5t19.5 1.5q43 0 70 -19t27 -50q0 -36 -34.5 -57.5t-95.5 -21.5q-30 0 -62 6t-56 15l15 41q17 -6 39 -11t42 -5q29 0 46.5 9t17.5 24q0 31 -51 31q-8 0 -19.5 -2.5t-22.5 -5.5l-19 23z" />
    <glyph glyph-name="ogonek" unicode="&#x2db;" horiz-adv-x="296" 
d="M200 0q-59 -40 -84.5 -67t-25.5 -53q0 -20 21.5 -30t52.5 -10q15 0 31.5 2.5t31.5 7.5l17 -42q-21 -6 -53 -10t-62 -4q-63 0 -95 18.5t-32 49.5q0 34 40 75t100 63h58z" />
    <glyph glyph-name="commaaccent" horiz-adv-x="296" 
d="M142 -200h-74l54 153h105z" />
    <glyph glyph-name="commaaccent.alt" horiz-adv-x="296" 
d="M152 735h74l-52 -148h-105z" />
    <glyph glyph-name="ellipsis" unicode="&#x2026;" horiz-adv-x="1000" 
d="M222 110v-110h-110v110h110zM555 110v-110h-110v110h110zM888 110v-110h-110v110h110z" />
    <glyph glyph-name="uni00AD" unicode="&#xad;" horiz-adv-x="444" 
d="M390 311v-88h-336v88h336z" />
    <glyph glyph-name="exclamdown" unicode="&#xa1;" horiz-adv-x="518" 
d="M314 535v-110h-110v110h110zM300 359l17 -546h-116l17 546h82z" />
    <glyph glyph-name="questiondown" unicode="&#xbf;" horiz-adv-x="593" 
d="M89.5 73q28.5 43 95.5 96l84 67q11 8 18.5 20.5t7.5 33.5v76h82v-90q0 -26 -12.5 -47.5t-34.5 -40.5l-112 -95q-29 -24 -41 -53t-12 -58q0 -55 42.5 -84.5t126.5 -29.5q43 0 86 8t80 19v-82q-45 -7 -93.5 -13t-93.5 -6q-121 0 -186.5 48t-65.5 137q0 51 28.5 94zM281 425
v110h110v-110h-110z" />
    <glyph glyph-name="quoteleft" unicode="&#x2018;" horiz-adv-x="370" 
d="M276 722l-66 -214h-116l100 214h82z" />
    <glyph glyph-name="quoteright" unicode="&#x2019;" horiz-adv-x="370" 
d="M276 722l-100 -214h-82l66 214h116z" />
    <glyph glyph-name="quotedblleft" unicode="&#x201c;" horiz-adv-x="593" 
d="M276 722l-66 -214h-116l100 214h82zM499 722l-66 -214h-116l100 214h82z" />
    <glyph glyph-name="quotedblright" unicode="&#x201d;" horiz-adv-x="593" 
d="M276 722l-100 -214h-82l66 214h116zM499 722l-100 -214h-82l66 214h116z" />
    <glyph glyph-name="quotesinglbase" unicode="&#x201a;" horiz-adv-x="370" 
d="M276 52l-100 -214h-82l66 214h116z" />
    <glyph glyph-name="quotedblbase" unicode="&#x201e;" horiz-adv-x="593" 
d="M276 52l-100 -214h-82l66 214h116zM499 52l-100 -214h-82l66 214h116z" />
    <glyph glyph-name="guilsinglleft" unicode="&#x2039;" horiz-adv-x="370" 
d="M267 461l-118 -194l118 -194h-88l-128 194l134 194h82z" />
    <glyph glyph-name="guilsinglright" unicode="&#x203a;" horiz-adv-x="370" 
d="M191 461l128 -194l-134 -194h-82l118 194l-118 194h88z" />
    <glyph glyph-name="guillemotleft" unicode="&#xab;" horiz-adv-x="593" 
d="M292 461l-118 -194l118 -194h-88l-128 194l134 194h82zM496 461l-118 -194l118 -194h-88l-128 194l134 194h82z" />
    <glyph glyph-name="guillemotright" unicode="&#xbb;" horiz-adv-x="593" 
d="M185 461l128 -194l-134 -194h-82l118 194l-118 194h88zM389 461l128 -194l-134 -194h-82l118 194l-118 194h88z" />
    <glyph glyph-name="endash" unicode="&#x2013;" horiz-adv-x="500" 
d="M500 308v-82h-500v82h500z" />
    <glyph glyph-name="emdash" unicode="&#x2014;" horiz-adv-x="1000" 
d="M1000 308v-82h-1000v82h1000z" />
    <glyph glyph-name="bullet" unicode="&#x2022;" horiz-adv-x="500" 
d="M378 233.5q-53 -53.5 -128 -53.5q-74 0 -127.5 53t-53.5 128q0 74 53 127.5t128 53.5q74 0 127.5 -53t53.5 -128q0 -74 -53 -127.5z" />
    <glyph glyph-name="periodcentered" unicode="&#xb7;" horiz-adv-x="370" 
d="M232.5 262.5q-19.5 -19.5 -47.5 -19.5t-47.5 19.5t-19.5 47.5q0 27 19 47t48 20q28 0 47.5 -19.5t19.5 -47.5t-19.5 -47.5z" />
    <glyph glyph-name="uni2219" unicode="&#x2219;" horiz-adv-x="370" 
d="M232.5 262.5q-19.5 -19.5 -47.5 -19.5t-47.5 19.5t-19.5 47.5q0 27 19 47t48 20q28 0 47.5 -19.5t19.5 -47.5t-19.5 -47.5z" />
    <glyph glyph-name="dagger" unicode="&#x2020;" horiz-adv-x="592" 
d="M345 722v-184h202v-82h-202v-456h-98v456h-202v82h202v184h98z" />
    <glyph glyph-name="daggerdbl" unicode="&#x2021;" horiz-adv-x="592" 
d="M345 722v-158h202v-82h-202v-242h202v-82h-202v-158h-98v158h-202v82h202v242h-202v82h202v158h98z" />
    <glyph glyph-name="section" unicode="&#xa7;" horiz-adv-x="592" 
d="M485 711v-88q-47 22 -96 33t-87 11q-48 0 -74.5 -17.5t-26.5 -48.5q0 -29 31 -48.5t86 -38.5l78 -27q55 -21 87.5 -48t32.5 -69q0 -39 -32.5 -72t-95.5 -54v-2q64 -20 94.5 -54.5t30.5 -76.5q0 -69 -62 -109t-159 -40q-27 0 -81.5 8.5t-119.5 28.5v88q45 -22 98 -36.5
t98 -14.5q54 0 88 18t34 51q0 40 -36.5 56t-126 47t-130 60.5t-40.5 77.5q0 44 35.5 75t94.5 57q-57 24 -83 50.5t-26 70.5q0 63 54.5 102.5t147.5 39.5q42 0 88.5 -8.5t97.5 -21.5zM241 294l75 -25q102 40 102 87q0 24 -18.5 40t-64.5 33l-60 22q-45 -17 -73 -41t-28 -52
q0 -18 16 -35.5t51 -28.5z" />
    <glyph glyph-name="paragraph" unicode="&#xb6;" horiz-adv-x="600" 
d="M527 -19h-88v667h-115v-667h-88v444q-103 0 -159.5 40t-56.5 106q0 80 56 115.5t176 35.5h275v-741z" />
    <glyph glyph-name="brokenbar" unicode="&#xa6;" horiz-adv-x="222" 
d="M155 741v-284h-88v284h88zM155 265v-284h-88v284h88z" />
    <glyph glyph-name="copyright" unicode="&#xa9;" horiz-adv-x="800" 
d="M668.5 92.5q-111.5 -111.5 -268.5 -111.5q-158 0 -269 112t-111 268q0 157 111.5 268.5t268.5 111.5t268.5 -112t111.5 -268q0 -157 -111.5 -268.5zM608 148q84 85 84 213q0 125 -82 211.5t-211 86.5q-125 0 -208 -85.5t-83 -212.5q0 -128 84 -213t208 -85t208 85z
M596 431h-74q-8 37 -37.5 60t-72.5 23q-59 0 -94 -42t-35 -111q0 -65 37.5 -109t94.5 -44q43 0 72 22t35 62h74q-10 -70 -59 -114t-122 -44q-99 0 -159.5 65t-60.5 162q0 103 60.5 165t155.5 62q75 0 125.5 -41.5t59.5 -115.5z" />
    <glyph glyph-name="registered" unicode="&#xae;" horiz-adv-x="800" 
d="M668.5 93q-111.5 -112 -268.5 -112q-158 0 -269 113t-111 267q0 157 112 268.5t268 111.5t268 -111.5t112 -268.5q0 -156 -111.5 -268zM609 148q83 85 83 213q0 126 -82 212t-211 86q-125 0 -208 -85.5t-83 -212.5q0 -128 84 -213t208 -85q126 0 209 85zM415 573
q78 0 120.5 -27.5t42.5 -96.5q0 -51 -28.5 -80t-82.5 -35l114 -187h-94l-108 187h-46v-187h-82v426h164zM410 392q43 0 61.5 16t18.5 49q0 32 -23 45t-61 13h-73v-123h77z" />
    <glyph glyph-name="trademark" unicode="&#x2122;" horiz-adv-x="990" 
d="M358 722v-68h-122v-344h-88v344h-122v68h332zM574 722l108 -281l108 281h124v-412h-82v312h-2l-117 -312h-62l-117 312h-2v-312h-82v412h124z" />
    <glyph glyph-name="currency" unicode="&#xa4;" 
d="M167 601l56 -56q31 23 68 36t79 13t79.5 -13t68.5 -37l56 57l50 -52l-55 -56q23 -31 36 -68t13 -79t-13.5 -79.5t-36.5 -68.5l56 -56l-50 -51l-57 57q-31 -24 -68 -37t-79 -13t-79 13t-68 36l-56 -56l-51 51l56 56q-24 31 -37 68.5t-13 79.5t13 79t36 69l-55 55zM484 229
q46 49 46 117t-46.5 117t-114.5 49q-66 0 -112.5 -49t-46.5 -117q0 -69 47 -117.5t113 -48.5q68 0 114 49z" />
    <glyph glyph-name="Euro" unicode="&#x20ac;" 
d="M693 510h-112q-8 58 -46 88.5t-101 30.5q-76 0 -128.5 -47.5t-70.5 -138.5h326l-23 -73h-312v-39q0 -14 1 -19h292l-23 -73h-259q20 -87 70.5 -131.5t125.5 -44.5q58 0 101.5 33t52.5 96h111q-12 -103 -84.5 -157t-193.5 -54q-112 0 -187 67.5t-101 190.5h-83l23 73h51
q0 13 -1 26v32h-71l24 73h56q27 129 108.5 198.5t204.5 69.5q104 0 173.5 -56.5t75.5 -144.5z" />
    <glyph glyph-name="cent" unicode="&#xa2;" 
d="M467 617l52 -20l-31 -89q69 -18 108 -61.5t47 -104.5h-104q-5 37 -25 61t-50 36l-133 -383q22 -7 53 -7q69 0 112 30t47 83h104q-6 -81 -79 -131t-189 -50q-39 0 -72 6l-35 -102l-52 20l33 96q-79 29 -119.5 93.5t-40.5 155.5q0 128 81 199.5t214 71.5q25 0 45 -3z
M280 79l130 373q-5 0 -14 1q-95 0 -147 -56t-52 -147q0 -53 20.5 -98.5t62.5 -72.5z" />
    <glyph glyph-name="sterling" unicode="&#xa3;" 
d="M692 528h-104q-4 65 -44.5 98t-107.5 33q-71 0 -118 -44t-47 -118v-79h212v-74h-212v-262h396v-82h-603v82h103v262h-103v74h103v83q0 113 77.5 176.5t191.5 63.5q123 0 189.5 -56t66.5 -157z" />
    <glyph glyph-name="florin" unicode="&#x192;" 
d="M645 730l-10 -75q-17 5 -36 8.5t-37 3.5q-66 0 -94 -36t-40 -118h187l-12 -68h-185l-54 -381q-22 -159 -73.5 -207.5t-166.5 -48.5q-19 0 -36.5 2t-35.5 6l9 70q10 -2 19.5 -3t29.5 -1q69 0 103.5 37.5t49.5 148.5l54 377h-172l12 68h167q17 128 63.5 178t147.5 50
q29 0 59 -2.5t51 -8.5z" />
    <glyph glyph-name="yen" unicode="&#xa5;" 
d="M173 722l197 -325l197 325h122l-220 -325h142v-68h-189v-102h189v-68h-189v-159h-104v159h-189v68h189v102h-189v68h142l-220 325h122z" />
    <glyph glyph-name="ordfeminine" unicode="&#xaa;" horiz-adv-x="434" 
d="M392 604v-149q0 -16 1.5 -33.5t2.5 -24.5h-74v43h-2q-22 -29 -51.5 -41t-83.5 -12q-70 0 -108.5 29t-38.5 71q0 53 44.5 78t148.5 25h87v4q0 35 -26 50t-68 15q-32 0 -55.5 -11.5t-26.5 -31.5h-82q5 45 47 70t123 25q80 0 121 -28t41 -79zM287 461q31 22 31 67v10h-55
q-76 0 -109.5 -11t-33.5 -37q0 -20 23.5 -35.5t58.5 -15.5q54 0 85 22z" />
    <glyph glyph-name="ordmasculine" unicode="&#xba;" horiz-adv-x="481" 
d="M399.5 429q-52.5 -42 -158.5 -42t-159 42t-53 120t54.5 120t157.5 42q106 0 158.5 -42.5t52.5 -119.5q0 -78 -52.5 -120zM333 469.5q37 30.5 37 72.5q0 54 -35.5 85.5t-94.5 31.5q-57 0 -93 -32t-36 -85q0 -42 37 -72.5t93 -30.5q55 0 92 30.5z" />
    <glyph glyph-name="onesuperior" unicode="&#xb9;" horiz-adv-x="481" 
d="M308 700v-415h-82v341q-26 -23 -58.5 -39t-74.5 -29v74q40 13 75.5 31t63.5 37h76z" />
    <glyph glyph-name="twosuperior" unicode="&#xb2;" horiz-adv-x="481" 
d="M364.5 474.5q-63.5 -58.5 -198.5 -119.5v-2h275v-68h-401v68q155 75 230.5 129.5t75.5 92.5q0 28 -30.5 48t-73.5 20q-50 0 -79.5 -23t-29.5 -61h-88q2 73 52.5 112.5t141.5 39.5q93 0 141 -35t48 -93q0 -50 -63.5 -108.5z" />
    <glyph glyph-name="threesuperior" unicode="&#xb3;" horiz-adv-x="481" 
d="M407 533q-25 -25 -72 -29v-2q58 -12 84 -39.5t26 -65.5q0 -63 -57.5 -93t-158.5 -30q-99 0 -145.5 34t-47.5 106h82q0 -34 32 -53t82 -19q59 0 95 16t36 42q0 31 -38.5 48t-111.5 17h-32v68h30q70 0 104.5 16t34.5 42q0 18 -32 35t-75 17q-50 0 -81 -16.5t-31 -47.5h-82
q0 61 49 96.5t132 35.5q99 0 150.5 -30t51.5 -87q0 -36 -25 -61z" />
    <glyph glyph-name="fraction" unicode="&#x2044;" horiz-adv-x="222" 
d="M462 753l-628 -814h-74l628 814h74z" />
    <glyph glyph-name="uni2215" unicode="&#x2215;" horiz-adv-x="222" 
d="M462 753l-628 -814h-74l628 814h74z" />
    <glyph glyph-name="onehalf" unicode="&#xbd;" horiz-adv-x="1110" 
d="M348 700v-415h-82v341q-26 -23 -58.5 -39t-74.5 -29v74q40 13 75.5 31t63.5 37h76zM852 753l-628 -814h-74l628 814h74zM943.5 190.5q-63.5 -58.5 -198.5 -119.5v-2h275v-68h-401v68q155 75 230.5 129.5t75.5 92.5q0 28 -30.5 48t-73.5 20q-50 0 -79.5 -23t-29.5 -61h-88
q2 73 52.5 112.5t141.5 39.5q93 0 141 -35t48 -93q0 -50 -63.5 -108.5z" />
    <glyph glyph-name="onethird" unicode="&#x2153;" horiz-adv-x="1110" 
d="M348 700v-415h-82v341q-26 -23 -58.5 -39t-74.5 -29v74q40 13 75.5 31t63.5 37h76zM852 753l-628 -814h-74l628 814h74zM983 249q-25 -25 -72 -29v-2q58 -12 84 -39.5t26 -65.5q0 -63 -57.5 -93t-158.5 -30q-99 0 -145.5 34t-47.5 106h82q0 -34 32 -53t82 -19q59 0 95 16
t36 42q0 31 -38.5 48t-111.5 17h-32v68h30q70 0 104.5 16t34.5 42q0 18 -32 35t-75 17q-50 0 -81 -16.5t-31 -47.5h-82q0 61 49 96.5t132 35.5q99 0 150.5 -30t51.5 -87q0 -36 -25 -61z" />
    <glyph glyph-name="onequarter" unicode="&#xbc;" horiz-adv-x="1110" 
d="M852 753l-628 -814h-74l628 814h74zM904 415v-258h100v-68h-100v-89h-82v89h-280v79l259 247h103zM616 157h206v190zM348 700v-415h-82v341q-26 -23 -58.5 -39t-74.5 -29v74q40 13 75.5 31t63.5 37h76z" />
    <glyph glyph-name="oneeighth" unicode="&#x215b;" horiz-adv-x="1110" 
d="M348 700v-415h-82v341q-26 -23 -58.5 -39t-74.5 -29v74q40 13 75.5 31t63.5 37h76zM852 753l-628 -814h-74l628 814h74zM991.5 255.5q-18.5 -23.5 -60.5 -39.5v-2q42 -13 67.5 -37t25.5 -62q0 -60 -57.5 -93t-150.5 -33q-95 0 -153 34t-58 92q0 34 22.5 59.5t70.5 39.5v2
q-36 14 -57.5 35.5t-21.5 56.5q0 57 51 87.5t146 30.5q94 0 144 -31.5t50 -86.5q0 -29 -18.5 -52.5zM908 73.5q34 17.5 34 44.5q0 25 -32.5 43.5t-94.5 18.5q-58 0 -93.5 -17.5t-35.5 -44.5q0 -28 35 -45t95 -17q58 0 92 17.5zM897 263q31 16 31 40q0 26 -28 41t-85 15
q-53 0 -83.5 -14.5t-30.5 -41.5q0 -24 31.5 -40t82.5 -16t82 16z" />
    <glyph glyph-name="twothirds" unicode="&#x2154;" horiz-adv-x="1110" 
d="M940 753l-628 -814h-74l628 814h74zM1037 249q-25 -25 -72 -29v-2q58 -12 84 -39.5t26 -65.5q0 -63 -57.5 -93t-158.5 -30q-99 0 -145.5 34t-47.5 106h82q0 -34 32 -53t82 -19q59 0 95 16t36 42q0 31 -38.5 48t-111.5 17h-32v68h30q70 0 104.5 16t34.5 42q0 18 -32 35
t-75 17q-50 0 -81 -16.5t-31 -47.5h-82q0 61 49 96.5t132 35.5q99 0 150.5 -30t51.5 -87q0 -36 -25 -61zM371.5 474.5q-63.5 -58.5 -198.5 -119.5v-2h275v-68h-401v68q155 75 230.5 129.5t75.5 92.5q0 28 -30.5 48t-73.5 20q-50 0 -79.5 -23t-29.5 -61h-88q2 73 52.5 112.5
t141.5 39.5q93 0 141 -35t48 -93q0 -50 -63.5 -108.5z" />
    <glyph glyph-name="threequarters" unicode="&#xbe;" horiz-adv-x="1110" 
d="M977 415v-258h100v-68h-100v-89h-82v89h-280v79l259 247h103zM689 157h206v190zM458 533q-25 -25 -72 -29v-2q58 -12 84 -39.5t26 -65.5q0 -63 -57.5 -93t-158.5 -30q-99 0 -145.5 34t-47.5 106h82q0 -34 32 -53t82 -19q59 0 95 16t36 42q0 31 -38.5 48t-111.5 17h-32v68
h30q70 0 104.5 16t34.5 42q0 18 -32.5 35t-74.5 17q-50 0 -81 -16.5t-31 -47.5h-82q0 61 49 96.5t132 35.5q99 0 150.5 -30t51.5 -87q0 -36 -25 -61zM951 752l-628 -814h-74l628 814h74z" />
    <glyph glyph-name="threeeighths" unicode="&#x215c;" horiz-adv-x="1110" 
d="M909 753l-628 -814h-74l628 814h74zM1031.5 255.5q-18.5 -23.5 -60.5 -39.5v-2q42 -13 67.5 -37t25.5 -62q0 -60 -57.5 -93t-150.5 -33q-95 0 -153 34t-58 92q0 34 22.5 59.5t70.5 39.5v2q-36 14 -57.5 35.5t-21.5 56.5q0 57 51 87.5t146 30.5q97 0 145.5 -31.5
t48.5 -86.5q0 -29 -18.5 -52.5zM948 73.5q34 17.5 34 44.5q0 25 -32.5 43.5t-94.5 18.5q-58 0 -93.5 -17.5t-35.5 -44.5q0 -28 35 -45t95 -17q58 0 92 17.5zM937 263q31 16 31 40q0 26 -28 41t-85 15q-53 0 -83.5 -14.5t-30.5 -41.5q0 -24 31.5 -40t82.5 -16t82 16z
M428.5 533q-23.5 -25 -70.5 -29v-2q61 -11 84 -39.5t23 -65.5q0 -63 -57.5 -93t-158.5 -30q-99 0 -145.5 34t-47.5 106h82q0 -34 31 -53t87 -19q63 0 95 17t32 45q0 29 -34 45t-110 16h-38v68h36q75 0 104 15.5t29 42.5q0 21 -26.5 36.5t-80.5 15.5q-50 0 -81 -16.5
t-31 -47.5h-82q0 61 49 96.5t132 35.5q99 0 150.5 -30t51.5 -87q0 -36 -23.5 -61z" />
    <glyph glyph-name="fiveeighths" unicode="&#x215d;" horiz-adv-x="1110" 
d="M908 753l-628 -814h-74l628 814h74zM1031.5 255.5q-18.5 -23.5 -60.5 -39.5v-2q42 -13 67.5 -37t25.5 -62q0 -60 -57.5 -93t-150.5 -33q-95 0 -153 34t-58 92q0 34 22.5 59.5t70.5 39.5v2q-36 14 -57.5 35.5t-21.5 56.5q0 57 51 87.5t146 30.5q94 0 144 -31.5t50 -86.5
q0 -29 -18.5 -52.5zM948 73.5q34 17.5 34 44.5q0 25 -32.5 43.5t-94.5 18.5q-58 0 -93.5 -17.5t-35.5 -44.5q0 -28 35 -45t95 -17q58 0 92 17.5zM937 263q31 16 31 40q0 26 -28 41t-85 15q-53 0 -83.5 -14.5t-30.5 -41.5q0 -24 31.5 -40t82.5 -16t82 16zM438 700v-68h-278
l-7 -106q46 46 129 46q82 0 132.5 -39t50.5 -106q0 -73 -56 -113t-145 -40t-145 35t-56 96h85q5 -31 34 -47t79 -16q54 0 88 21t34 62t-32.5 60.5t-86.5 19.5q-39 0 -69 -12t-46 -38h-77l13 245h353z" />
    <glyph glyph-name="seveneighths" unicode="&#x215e;" horiz-adv-x="1110" 
d="M489 700v-65l-216 -350h-97l219 343h-291v72h385zM849 753l-628 -814h-74l628 814h74zM991.5 255.5q-18.5 -23.5 -60.5 -39.5v-2q42 -13 67.5 -37t25.5 -62q0 -60 -57.5 -93t-150.5 -33q-95 0 -153 34t-58 92q0 34 22.5 59.5t70.5 39.5v2q-36 14 -57.5 35.5t-21.5 56.5
q0 57 51 87.5t146 30.5q94 0 144 -31.5t50 -86.5q0 -29 -18.5 -52.5zM908 73.5q34 17.5 34 44.5q0 25 -32.5 43.5t-94.5 18.5q-58 0 -93.5 -17.5t-35.5 -44.5q0 -28 35 -45t95 -17q58 0 92 17.5zM897 263q31 16 31 40q0 26 -28 41t-85 15q-53 0 -83.5 -14.5t-30.5 -41.5
q0 -24 31.5 -40t82.5 -16t82 16z" />
    <glyph glyph-name="perthousand" unicode="&#x2030;" horiz-adv-x="1333" 
d="M752 721l-507 -750h-82l507 750h82zM376.5 384.5q-46.5 -49.5 -130.5 -49.5t-130.5 49.5t-46.5 138.5t46.5 138.5t130.5 49.5t130.5 -49.5t46.5 -138.5t-46.5 -138.5zM321.5 426.5q27.5 33.5 27.5 96.5q0 64 -27.5 97t-75.5 33q-47 0 -75 -33t-28 -97q0 -63 27.5 -96.5
t75.5 -33.5t75.5 33.5zM798.5 30.5q-46.5 -49.5 -130.5 -49.5t-130.5 49.5t-46.5 138.5t46.5 138.5t130.5 49.5t130.5 -49.5t46.5 -138.5t-46.5 -138.5zM743.5 72.5q27.5 33.5 27.5 96.5q0 64 -27.5 97t-75.5 33q-47 0 -75 -33t-28 -97q0 -63 27.5 -96.5t75.5 -33.5
t75.5 33.5zM1205.5 30.5q-46.5 -49.5 -130.5 -49.5t-130.5 49.5t-46.5 138.5t46.5 138.5t130.5 49.5t130.5 -49.5t46.5 -138.5t-46.5 -138.5zM1150.5 72.5q27.5 33.5 27.5 96.5q0 64 -27.5 97t-75.5 33q-47 0 -75 -33t-28 -97q0 -63 27.5 -96.5t75.5 -33.5t75.5 33.5z" />
    <glyph glyph-name="minus" unicode="&#x2212;" horiz-adv-x="600" 
d="M553 297v-88h-506v88h506z" />
    <glyph glyph-name="plusminus" unicode="&#xb1;" horiz-adv-x="600" 
d="M344 506v-147h209v-88h-209v-147h-88v147h-209v88h209v147h88zM553 88v-88h-506v88h506z" />
    <glyph glyph-name="multiply" unicode="&#xd7;" horiz-adv-x="600" 
d="M532 423l-170 -170l170 -170l-62 -62l-170 171l-170 -171l-62 62l170 170l-170 170l62 62l170 -171l170 171z" />
    <glyph glyph-name="divide" unicode="&#xf7;" horiz-adv-x="600" 
d="M354 409.5q-22 -22.5 -54 -22.5q-31 0 -53.5 22t-22.5 54t22.5 54t53.5 22q32 0 54 -22.5t22 -53.5t-22 -53.5zM553 297v-88h-506v88h506zM354 -10.5q-22 -22.5 -54 -22.5q-31 0 -53.5 22t-22.5 54t22.5 54t53.5 22q33 0 54.5 -23t21.5 -53q0 -31 -22 -53.5z" />
    <glyph glyph-name="notequal" unicode="&#x2260;" horiz-adv-x="713" 
d="M458 569l45 -23l-57 -119h203v-54h-228l-85 -174h313v-54h-339l-70 -145l-45 22l60 123h-192v54h218l84 174h-302v54h327z" />
    <glyph glyph-name="approxequal" unicode="&#x2248;" horiz-adv-x="713" 
d="M559 190.5q28 20.5 58 64.5l34 -35q-34 -54 -73 -79t-87 -25q-60 0 -139 44.5t-128 44.5q-34 0 -64.5 -19t-65.5 -68l-36 35q31 51 76.5 78.5t96.5 27.5q59 0 134.5 -44.5t126.5 -44.5q39 0 67 20.5zM559 391.5q29 20.5 58 64.5l34 -35q-34 -54 -73 -79.5t-87 -25.5
q-59 0 -137.5 44.5t-129.5 44.5q-34 0 -64.5 -19t-65.5 -67l-36 35q31 51 76.5 78t96.5 27q58 0 132 -44t129 -44q38 0 67 20.5z" />
    <glyph glyph-name="lessequal" unicode="&#x2264;" horiz-adv-x="713" 
d="M645 654v-62l-512 -221v-2l513 -223v-62l-576 257v57zM648 39v-54h-586v54h586z" />
    <glyph glyph-name="greaterequal" unicode="&#x2265;" horiz-adv-x="713" 
d="M70 654l576 -256v-58l-576 -256v62l512 222v2l-512 222v62zM646 39v-54h-576l-7 54h583z" />
    <glyph glyph-name="logicalnot" unicode="&#xac;" horiz-adv-x="600" 
d="M553 402v-295h-88v207h-418v88h506z" />
    <glyph glyph-name="Delta" unicode="&#x2206;" horiz-adv-x="843" 
d="M477 724l330 -667v-57h-771v57l332 667h109zM415 656q-19 -44 -27 -60.5t-30 -67.5l-225 -460h569l-228 470q-20 41 -35.5 75.5t-18.5 42.5h-5z" />
    <glyph glyph-name="uni0394" unicode="&#x394;" horiz-adv-x="843" 
d="M477 724l330 -667v-57h-771v57l332 667h109zM415 656q-4 -8 -19 -42.5t-36 -81.5l-227 -464h569l-228 470q-19 41 -35 75.5t-19 42.5h-5z" />
    <glyph glyph-name="Omega" unicode="&#x2126;" horiz-adv-x="963" 
d="M696 69v-3h202v-66h-321v50q106 49 158.5 129.5t52.5 183.5q0 115 -86 200.5t-217 85.5q-134 0 -221.5 -84.5t-87.5 -204.5q0 -100 57 -184t154 -126v-50h-321v66h198v3q-87 52 -134 131t-47 173q0 147 118 244t283 97q173 0 284.5 -102t111.5 -238q0 -97 -48.5 -176.5
t-135.5 -128.5z" />
    <glyph glyph-name="uni03A9" unicode="&#x3a9;" horiz-adv-x="963" 
d="M696 69v-3h202v-66h-321v50q106 49 158.5 129.5t52.5 183.5q0 115 -86 200.5t-217 85.5q-134 0 -221.5 -84.5t-87.5 -204.5q0 -100 57 -184t154 -126v-50h-321v66h198v3q-87 52 -134 131t-47 173q0 147 118 244t283 97q173 0 284.5 -102t111.5 -238q0 -97 -48.5 -176.5
t-135.5 -128.5z" />
    <glyph glyph-name="mu" unicode="&#xb5;" 
d="M190 502v-283q0 -77 44 -123.5t117 -46.5q88 0 143.5 57t55.5 158v238h98v-396q0 -20 1 -49.5t3 -56.5h-92q-3 46 -4 89h-2q-43 -58 -97 -83t-122 -25q-39 0 -79 13t-66 37v-223h-98v694h98z" />
    <glyph glyph-name="uni03BC" unicode="&#x3bc;" 
d="M190 502v-283q0 -77 44 -123.5t117 -46.5q88 0 143.5 57t55.5 158v238h98v-396q0 -20 1 -49.5t3 -56.5h-92q-3 46 -4 89h-2q-43 -58 -97 -83t-122 -25q-39 0 -79 13t-66 37v-223h-98v694h98z" />
    <glyph glyph-name="pi" unicode="&#x3c0;" horiz-adv-x="736" 
d="M704 454h-106v-297q0 -35 3.5 -78.5t14.5 -78.5h-91q-9 11 -14.5 49t-5.5 96v309h-241q-8 -127 -36 -265t-57 -189h-92q33 71 60 206t33 248q-57 0 -91 -3.5t-59 -12.5l-14 54q26 16 71 23t105 7h530z" />
    <glyph glyph-name="degree" unicode="&#xb0;" horiz-adv-x="400" 
d="M300.5 466.5q-42.5 -41.5 -100.5 -41.5q-57 0 -100 41.5t-43 101.5q0 59 42 101t101 42q60 0 101.5 -42t41.5 -101q0 -60 -42.5 -101.5zM264 504.5q27 27.5 27 63.5q0 37 -27.5 64t-63.5 27q-37 0 -64 -27t-27 -64t27.5 -64t63.5 -27q37 0 64 27.5z" />
    <glyph glyph-name="afii61289" unicode="&#x2113;" horiz-adv-x="626" 
d="M432 420.5q-63 -89.5 -209 -205.5v-12q0 -67 41.5 -107.5t101.5 -40.5q54 0 103 32t80 83l45 -39q-42 -72 -105.5 -108.5t-142.5 -36.5q-96 0 -151.5 58.5t-55.5 130.5q-18 -12 -36 -25.5t-37 -26.5l-29 50q75 51 100 69v276q0 118 51 184.5t142 66.5q77 0 121 -48.5
t44 -123.5q0 -87 -63 -176.5zM223 292q108 96 154.5 167.5t46.5 131.5q0 57 -23.5 88t-69.5 31q-47 0 -77.5 -46t-30.5 -125v-247z" />
    <glyph glyph-name="estimated" unicode="&#x212e;" horiz-adv-x="990" 
d="M236 350q-6 0 -6 -6v-192q0 -19 6 -28.5t38.5 -39t89 -51t128.5 -21.5q76 0 142 28t131 91h73q-71 -85 -150 -115.5t-193 -30.5q-185 0 -301.5 105t-116.5 262q0 158 117 271.5t299 113.5q203 0 311 -106.5t108 -280.5h-676zM758 575q0 35 -79 85.5t-189 50.5
q-93 0 -176.5 -49t-83.5 -86v-199q0 -5 6 -5h517q5 0 5 5v198z" />
    <glyph glyph-name="eng" unicode="&#x14b;" 
d="M550 281q0 79 -43 125.5t-118 46.5q-88 0 -143.5 -57.5t-55.5 -156.5v-239h-98v396q0 20 -1 48.5t-3 57.5h92q2 -20 3 -41t1 -48h2q43 58 97 83t122 25q114 0 178.5 -62.5t64.5 -172.5v-332q0 -76 -37.5 -114t-124.5 -38q-50 0 -69 4v72q8 0 18.5 -1t30.5 -1
q51 0 67.5 26.5t16.5 86.5v292z" />
    <glyph glyph-name="Eng" unicode="&#x14a;" horiz-adv-x="888" 
d="M647 0l-442 616h-2v-616h-104v722h142l442 -616h2v616h104v-768q0 -76 -37.5 -114t-124.5 -38q-50 0 -69 4v72q8 0 18.5 -1t30.5 -1q53 0 68.5 27.5t15.5 83.5v13h-44z" />
    <glyph glyph-name="infinity" unicode="&#x221e;" horiz-adv-x="920" 
d="M466 329q81 92 127 116.5t94 24.5q75 0 123 -49t48 -130q0 -82 -53.5 -133.5t-126.5 -51.5q-53 0 -103 34t-115 107q-65 -77 -116.5 -109t-106.5 -32q-72 0 -124 52.5t-52 127.5q0 78 53 131t132 53q51 0 102.5 -32t117.5 -109zM319.5 182.5q34.5 23.5 49 38t62.5 64.5
q-60 75 -102 105t-92 30q-52 0 -85.5 -39t-33.5 -96q0 -53 35.5 -89.5t92.5 -36.5q39 0 73.5 23.5zM532.5 247.5q29.5 -32.5 70 -60.5t80.5 -28q52 0 85 38t33 91q0 60 -33.5 96t-87.5 36q-61 0 -120.5 -62t-65.5 -68q9 -10 38.5 -42.5z" />
    <glyph glyph-name="partialdiff" unicode="&#x2202;" horiz-adv-x="699" 
d="M118 56.5q-69 72.5 -69 167.5q0 107 78 178t190 71q71 0 131 -34.5t96 -89.5h1q2 11 2 37q0 155 -70.5 240.5t-176.5 85.5q-96 0 -174 -49l-34 54q46 32 100.5 47t117.5 15q140 0 233 -110t93 -278q0 -169 -94 -288t-242 -119q-113 0 -182 72.5zM532 277q-28 60 -83 96
t-116 36q-78 0 -135.5 -53t-57.5 -130q0 -76 49 -126.5t119 -50.5q83 0 144.5 63t79.5 165z" />
    <glyph glyph-name="integral" unicode="&#x222b;" horiz-adv-x="418" 
d="M409 841l-14 -55q-8 5 -22.5 9t-26.5 4q-55 0 -80.5 -47t-25.5 -158q0 -53 3 -116l12 -262q3 -65 3 -120q0 -122 -43 -190.5t-126 -68.5q-23 0 -47.5 6.5t-36.5 13.5l15 57q13 -7 28.5 -11.5t29.5 -4.5q53 0 79.5 47t26.5 154q0 126 -9 250.5t-9 253.5q0 147 50 201
t124 54q20 0 39 -5.5t30 -11.5z" />
    <glyph glyph-name="radical" unicode="&#x221a;" horiz-adv-x="714" 
d="M726 830l-287 -984h-80l-206 467l-94 -36l-20 48l167 66l170 -408q9 -21 22 -60h2q3 14 30.5 110.5t45.5 157.5l180 639h70z" />
    <glyph glyph-name="summation" unicode="&#x2211;" horiz-adv-x="713" 
d="M667 701v-73h-493v-3l302 -318l-323 -326v-3h532v-75h-660v50l345 346l-328 347v55h625z" />
    <glyph glyph-name="product" unicode="&#x220f;" horiz-adv-x="896" 
d="M867 701v-72h-148v-726h-88v726h-367v-726h-88v726h-148v72h839z" />
    <glyph glyph-name="lozenge" unicode="&#x25ca;" horiz-adv-x="716" 
d="M391 757l258 -407l-258 -407h-69l-256 407l256 407h69zM354 695q-5 -12 -27 -48l-182 -295l185 -297q3 -4 13 -22t14 -28h3q5 12 21 41l187 302l-186 299q-13 23 -16.5 29t-9.5 19h-2z" />
    <glyph glyph-name="uniF8FF" unicode="&#xf8ff;" horiz-adv-x="512" 
d="M512 718v-718h-512v718h512zM462 50v617h-412v-617h412zM272 265v-32h-49v39q0 61 54.5 111.5t54.5 90.5q0 36 -22.5 60.5t-53.5 24.5t-53.5 -22t-28.5 -73l-50 8q7 72 44 104.5t91 32.5t89 -35.5t35 -95.5q0 -51 -28.5 -83.5t-55.5 -55t-27 -74.5zM217 184h61v-67h-61
v67z" />
    <glyph glyph-name="uni20B9" unicode="&#x20b9;" 
d="M548 619q15 -12 22.5 -27t11.5 -31h114v-73h-109q-2 -86 -58.5 -127t-188.5 -41h-111l374 -320h-144l-364 316v82h243q82 0 112.5 23t32.5 67h-388v73h383q-8 28 -32 43t-106 15h-245v73h601v-73h-148z" />
    <glyph glyph-name="uni20BA" unicode="&#x20ba;" 
d="M160 341v73l-98 -42v79l98 42v199h104v-155l289 125v-79l-289 -125v-73l289 125v-79l-289 -125v-224h97q101 0 156 76t55 202v4h104q0 -172 -86 -268t-235 -96h-195v262l-98 -42v79z" />
    <glyph glyph-name="uni1E9E" unicode="&#x1e9e;" horiz-adv-x="875" 
d="M108 474q0 135 84 201t260 66q62 0 138 -6.5t129 -15.5v-80q-97 -6 -165 -37.5t-68 -80.5q0 -54 106 -101t169.5 -95.5t63.5 -139.5q0 -98 -72 -151t-201 -53t-201.5 44.5t-74.5 132.5h110q3 -48 49 -71.5t117 -23.5q83 0 126 30t43 92q0 70 -94.5 109.5t-170 91.5
t-75.5 129q0 52 49.5 89.5t130.5 51.5q-26 2 -106 3q-127 0 -185 -47.5t-58 -136.5v-475h-104v474z" />
    <glyph glyph-name="uni20BC" unicode="&#x20bc;" horiz-adv-x="848" 
d="M476 70h-104v428q-122 -15 -191.5 -144.5t-69.5 -300.5v-53h-104v61q0 213 97 359.5t268 160.5v111h104v-111q171 -14 268 -160.5t97 -359.5v-61h-104v53q0 171 -69.5 300.5t-191.5 144.5v-428z" />
    <glyph glyph-name="uni20BD" unicode="&#x20bd;" 
d="M145 165h-107v77h107v65h-107v77h107l1 308h335q120 0 183.5 -47.5t63.5 -141.5t-62.5 -145t-186.5 -51h-230v-65h301v-77h-301v-165h-104v165zM249 384h221q81 0 117.5 26.5t36.5 87.5q0 56 -33 84t-121 28h-221v-226z" />
    </font>
</defs>
</svg>
