<?xml version="1.0" encoding="utf-8"?>

<!DOCTYPE svg PUBLIC "-//W3C//DTD SVG 1.1//EN" "http://www.w3.org/Graphics/SVG/1.1/DTD/svg11.dtd">
<svg version="1.1" id="Layer_1" xmlns="http://www.w3.org/2000/svg" xmlns:xlink="http://www.w3.org/1999/xlink" x="0px" y="0px"
	 width="244.8px" height="244.8px" viewBox="183.6 273.6 244.8 244.8" enable-background="new 183.6 273.6 244.8 244.8"
	 xml:space="preserve">
<g id="button">
	<g opacity="0.6">
		<circle fill="#010101" cx="307.067" cy="396.631" r="116.666"/>
		<circle fill="#191918" cx="307.067" cy="396.631" r="115.278"/>
		<circle fill="#2B2A29" cx="307.067" cy="396.631" r="113.888"/>
		<circle fill="#3B3939" cx="307.067" cy="396.631" r="112.5"/>
		<circle fill="#4C4949" cx="307.067" cy="396.631" r="111.111"/>
		<circle fill="#5E5B5B" cx="307.067" cy="396.632" r="109.722"/>
		<circle fill="#726F6F" cx="307.067" cy="396.631" r="108.333"/>
		<circle fill="#888585" cx="307.067" cy="396.631" r="106.945"/>
		<circle fill="#A19E9E" cx="307.067" cy="396.631" r="105.555"/>
		<circle fill="#BBB9B8" cx="307.067" cy="396.631" r="104.167"/>
		<circle fill="#D8D6D6" cx="307.067" cy="396.631" r="102.778"/>
		<circle fill="#FFFFFF" cx="307.068" cy="396.631" r="101.389"/>
	</g>
	<circle fill="#010101" cx="307.068" cy="396.631" r="101.389"/>
	
		<linearGradient id="SVGID_1_" gradientUnits="userSpaceOnUse" x1="360.084" y1="394.3843" x2="415.4564" y2="543.8882" gradientTransform="matrix(0.9193 0.3132 0.1166 -0.7951 -80.4413 615.6154)">
		<stop  offset="0" style="stop-color:#000000"/>
		<stop  offset="0.097" style="stop-color:#101010"/>
		<stop  offset="0.2867" style="stop-color:#3A3A3A"/>
		<stop  offset="0.5505" style="stop-color:#7E7E7E"/>
		<stop  offset="0.8751" style="stop-color:#DADADA"/>
		<stop  offset="1" style="stop-color:#FFFFFF"/>
	</linearGradient>
	<path opacity="0.5" fill="url(#SVGID_1_)" enable-background="new    " d="M395.313,410.793
		c-19.812,27.369-64.781,28.632-100.444,2.818s-48.516-68.928-28.704-96.296c19.811-27.37,64.781-28.632,100.443-2.818
		C402.271,340.31,415.122,383.425,395.313,410.793z"/>
	<g opacity="0.5">
		<path fill="#010101" d="M254.567,451.908c-53.194-44.063-34.167-109.375-19.433-126.763c-8.942,8.556-16.963,20.743-22.19,33.794
			c-20.816,51.982,4.448,110.999,56.431,131.814c41.731,16.711,88.401,3.696,115.383-28.947
			C351.153,489.631,301.817,491.047,254.567,451.908z"/>
		<path fill="#191918" d="M252.96,453.272c-54.127-45.995-31.933-111.518-18.538-127.325c-8.427,8.173-16.25,19.939-21.478,32.992
			c-20.816,51.982,4.448,110.999,56.431,131.814c41.731,16.711,88.048,3.632,114.852-28.367
			C351.406,489.967,300.477,493.549,252.96,453.272z"/>
		<path fill="#2B2A29" d="M251.353,454.637c-55.061-47.928-29.698-113.659-17.643-127.886c-7.911,7.791-15.538,19.137-20.765,32.189
			c-20.816,51.982,4.448,110.998,56.431,131.814c41.731,16.711,87.697,3.567,114.322-27.787
			C351.66,490.303,299.136,496.052,251.353,454.637z"/>
		<path fill="#3B3939" d="M249.745,456.002c-55.994-49.862-27.463-115.803-16.748-128.449c-7.396,7.409-14.825,18.335-20.053,31.387
			c-20.816,51.982,4.449,110.998,56.431,131.814c41.73,16.711,87.344,3.503,113.791-27.206
			C351.914,490.638,297.794,498.555,249.745,456.002z"/>
		<path fill="#4C4949" d="M248.139,457.366c-56.928-51.795-25.229-117.944-15.854-129.01c-6.88,7.027-14.113,17.532-19.341,30.583
			c-20.816,51.982,4.449,110.999,56.431,131.814c41.731,16.711,86.992,3.438,113.26-26.625
			C352.168,490.975,296.454,501.058,248.139,457.366z"/>
		<path fill="#5E5B5B" d="M246.531,458.73c-57.86-53.729-22.995-120.087-14.958-129.571c-6.365,6.644-13.401,16.729-18.627,29.78
			c-20.816,51.982,4.448,110.999,56.431,131.814c41.73,16.711,86.64,3.375,112.729-26.045
			C352.421,491.311,295.113,503.561,246.531,458.73z"/>
		<path fill="#726F6F" d="M244.924,460.096c-58.793-55.662-20.761-122.229-14.064-130.134c-5.849,6.261-12.688,15.926-17.915,28.978
			c-20.816,51.982,4.448,110.998,56.431,131.814c41.731,16.711,86.287,3.312,112.199-25.465
			C352.675,491.646,293.771,506.063,244.924,460.096z"/>
		<path fill="#888585" d="M243.317,461.46c-59.727-57.595-18.527-124.372-13.169-130.695c-5.334,5.879-11.976,15.123-17.203,28.175
			c-20.816,51.982,4.449,110.998,56.431,131.814c41.731,16.711,85.935,3.246,111.667-24.884
			C352.928,491.981,292.431,508.565,243.317,461.46z"/>
		<path fill="#A19E9E" d="M241.709,462.824c-60.661-59.528-16.292-126.515-12.274-131.257c-4.818,5.497-11.263,14.32-16.49,27.372
			c-20.816,51.982,4.449,110.999,56.431,131.814c41.731,16.711,85.583,3.182,111.136-24.304
			C353.182,492.317,291.09,511.068,241.709,462.824z"/>
		<path fill="#BBB9B8" d="M240.102,464.188c-61.594-61.462-14.058-128.656-11.379-131.817c-4.303,5.115-10.551,13.518-15.778,26.569
			c-20.816,51.982,4.448,110.999,56.431,131.814c41.731,16.711,85.231,3.117,110.606-23.724
			C353.436,492.653,289.749,513.57,240.102,464.188z"/>
		<path fill="#D8D6D6" d="M238.495,465.554c-62.527-63.396-11.824-130.8-10.485-132.381c-3.788,4.732-9.838,12.715-15.065,25.767
			c-20.816,51.982,4.448,110.998,56.431,131.814c41.731,16.711,84.878,3.053,110.076-23.144
			C353.688,492.989,288.408,516.073,238.495,465.554z"/>
		<path fill="#FFFFFF" d="M236.888,466.918c-63.46-65.329-9.59-132.942-9.59-132.942c-3.272,4.35-9.126,11.912-14.353,24.964
			c-20.816,51.982,4.448,110.998,56.431,131.814c41.731,16.711,84.526,2.988,109.544-22.563
			C353.942,493.325,287.067,518.576,236.888,466.918z"/>
	</g>
	
		<radialGradient id="SVGID_2_" cx="358.7012" cy="393.8232" r="54.2074" gradientTransform="matrix(0.8908 0.2052 0.2052 -0.8908 -138.3525 730.9013)" gradientUnits="userSpaceOnUse">
		<stop  offset="0" style="stop-color:#FFFFFF"/>
		<stop  offset="0.2321" style="stop-color:#FCFCFC"/>
		<stop  offset="0.4051" style="stop-color:#F2F2F2"/>
		<stop  offset="0.559" style="stop-color:#E2E2E2"/>
		<stop  offset="0.7018" style="stop-color:#CCCCCC"/>
		<stop  offset="0.8368" style="stop-color:#AEAEAE"/>
		<stop  offset="0.9645" style="stop-color:#8B8B8B"/>
		<stop  offset="1" style="stop-color:#808080"/>
	</radialGradient>
	<path fill="url(#SVGID_2_)" d="M209.151,407.658c0,0,6.197,87.949,106.5,88.5C221.981,482.415,209.151,407.658,209.151,407.658z"/>
	
		<radialGradient id="SVGID_3_" cx="-524.0332" cy="838.1729" r="54.2465" gradientTransform="matrix(-0.8908 -0.2052 -0.2052 0.8908 56.3525 -513.9023)" gradientUnits="userSpaceOnUse">
		<stop  offset="0" style="stop-color:#FFFFFF"/>
		<stop  offset="0.2321" style="stop-color:#FCFCFC"/>
		<stop  offset="0.4051" style="stop-color:#F2F2F2"/>
		<stop  offset="0.559" style="stop-color:#E2E2E2"/>
		<stop  offset="0.7018" style="stop-color:#CCCCCC"/>
		<stop  offset="0.8368" style="stop-color:#AEAEAE"/>
		<stop  offset="0.9645" style="stop-color:#8B8B8B"/>
		<stop  offset="1" style="stop-color:#808080"/>
	</radialGradient>
	<path fill="url(#SVGID_3_)" d="M403.984,386.409c0,0-5.083-88.5-106.5-88.5C391.154,311.652,403.984,386.409,403.984,386.409z"/>
</g>
<g id="pause">
	<g>
		
			<linearGradient id="SVGID_4_" gradientUnits="userSpaceOnUse" x1="269.4854" y1="358.3516" x2="313.3843" y2="434.3867" gradientTransform="matrix(1 0 0 -1 0 793)">
			<stop  offset="0" style="stop-color:#808080"/>
			<stop  offset="1" style="stop-color:#E6E6E6"/>
		</linearGradient>
		<path fill="url(#SVGID_4_)" d="M304.523,432.206c0,7.229-5.86,13.088-13.088,13.088l0,0c-7.229,0-13.088-5.858-13.088-13.088
			v-71.15c0-7.228,5.859-13.088,13.088-13.088l0,0c7.228,0,13.088,5.86,13.088,13.088V432.206z"/>
		
			<linearGradient id="SVGID_5_" gradientUnits="userSpaceOnUse" x1="308.75" y1="358.3516" x2="352.6489" y2="434.3867" gradientTransform="matrix(1 0 0 -1 0 793)">
			<stop  offset="0" style="stop-color:#808080"/>
			<stop  offset="1" style="stop-color:#E6E6E6"/>
		</linearGradient>
		<path fill="url(#SVGID_5_)" d="M343.788,432.206c0,7.229-5.86,13.088-13.088,13.088l0,0c-7.229,0-13.089-5.858-13.089-13.088
			v-71.15c0-7.228,5.859-13.088,13.089-13.088l0,0c7.228,0,13.088,5.86,13.088,13.088V432.206z"/>
	</g>
	<g>
		<path fill="#FFFFFF" d="M292.435,444.294c-7.229,0-13.088-5.858-13.088-13.088v-71.15c0-3.359,1.276-6.413,3.357-8.73
			c-2.668,2.396-4.357,5.862-4.357,9.73v71.15c0,7.229,5.859,13.088,13.088,13.088c3.869,0,7.335-1.688,9.731-4.356
			C298.849,443.018,295.794,444.294,292.435,444.294z"/>
		<path fill="#FFFFFF" d="M331.7,444.294c-7.229,0-13.089-5.858-13.089-13.088v-71.15c0-3.359,1.275-6.412,3.355-8.729
			c-2.668,2.396-4.355,5.861-4.355,9.729v71.15c0,7.229,5.859,13.088,13.089,13.088c3.868,0,7.335-1.688,9.729-4.355
			C338.113,443.018,335.06,444.294,331.7,444.294z"/>
	</g>
	<g>
		<path fill="#FFFFFF" d="M330.7,347.968c-3.869,0-7.336,1.689-9.732,4.358c2.318-2.081,16.563-0.86,18.467,11.961
			c2.007,13.506,2.857,49.714,3.625,68.396c0.146,3.563-1.595,7.564-3.629,9.254c2.858-2.754,4.357-5.861,4.357-9.73v-71.15
			C343.788,353.828,337.928,347.968,330.7,347.968z"/>
		<path fill="#EDECEC" d="M320.968,352.326c1.205-1.081,4.881-1.395,8.699-0.186c4.468,1.415,8.988,4.976,10.034,11.646
			c0.147,0.928,0.28,1.955,0.395,3.069c1.571,13.898,2.346,49.92,2.995,65.751c0.015,0.35,0.01,0.814-0.015,1.17
			c-0.195,3.246-1.789,6.559-3.627,8.14c2.841-2.722,4.339-5.841,4.339-9.71v-71.15c0-7.228-5.86-13.088-13.088-13.088
			C326.831,347.968,323.364,349.656,320.968,352.326z"/>
		<path fill="#E0DEDF" d="M320.968,352.326c1.316-1.182,4.925-1.568,8.703-0.503c4.623,1.304,9.211,4.896,10.299,11.463
			c0.159,0.939,0.293,1.974,0.396,3.089c1.415,12.508,2.171,51.906,2.757,66.155c0.013,0.313,0.01,0.856-0.012,1.177
			c-0.178,3.257-1.78,6.533-3.644,8.188c2.823-2.688,4.32-5.819,4.32-9.688v-71.15c0-7.228-5.86-13.088-13.088-13.088
			C326.831,347.968,323.364,349.657,320.968,352.326z"/>
		<path fill="#D3D2D2" d="M320.967,352.326c1.428-1.281,4.973-1.747,8.707-0.82c4.781,1.187,9.415,4.818,10.563,11.279
			c0.169,0.952,0.307,1.993,0.397,3.11c1.257,11.118,1.998,53.893,2.52,66.558c0.011,0.279,0.01,0.899-0.011,1.184
			c-0.155,3.271-1.771,6.509-3.657,8.237c2.807-2.656,4.303-5.799,4.303-9.668v-71.15c0-7.228-5.86-13.088-13.089-13.088
			C326.83,347.968,323.364,349.656,320.967,352.326z"/>
		<path fill="#C8C6C7" d="M320.968,352.326c1.539-1.381,5.02-1.932,8.709-1.138c4.944,1.064,9.633,4.739,10.827,11.097
			c0.181,0.963,0.32,2.011,0.4,3.13c1.1,9.729,1.824,55.879,2.279,66.961c0.011,0.244,0.011,0.941-0.007,1.19
			c-0.137,3.279-1.762,6.482-3.674,8.285c2.789-2.624,4.284-5.777,4.284-9.646v-71.15c0-7.228-5.86-13.088-13.088-13.088
			C326.831,347.968,323.364,349.657,320.968,352.326z"/>
		<path fill="#BCBBBC" d="M320.968,352.326c1.65-1.481,5.068-2.122,8.713-1.455c5.107,0.935,9.857,4.658,11.092,10.913
			c0.191,0.977,0.333,2.031,0.401,3.151c0.942,8.339,1.651,57.866,2.042,67.365c0.009,0.209,0.011,0.984-0.004,1.197
			c-0.118,3.291-1.753,6.458-3.688,8.334c2.771-2.592,4.267-5.756,4.267-9.626v-71.15c0-7.228-5.861-13.087-13.089-13.087
			C326.831,347.968,323.364,349.657,320.968,352.326z"/>
		<path fill="#B1B0B2" d="M320.968,352.326c1.763-1.581,5.119-2.317,8.716-1.772c5.271,0.799,10.079,4.578,11.354,10.729
			c0.205,0.989,0.347,2.05,0.404,3.172c0.785,6.949,1.479,59.852,1.805,67.768c0.007,0.176,0.011,1.027-0.002,1.204
			c-0.099,3.304-1.744,6.435-3.704,8.383c2.755-2.559,4.247-5.734,4.247-9.604v-71.15c0-7.228-5.86-13.088-13.088-13.088
			C326.831,347.968,323.364,349.656,320.968,352.326z"/>
		<path fill="#A7A6A8" d="M320.968,352.326c1.873-1.681,5.17-2.518,8.72-2.089c5.438,0.656,10.303,4.498,11.618,10.546
			c0.219,1,0.36,2.069,0.406,3.193c0.628,5.56,1.325,61.838,1.566,68.172c0.005,0.14,0.011,1.068,0.001,1.211
			c-0.079,3.313-1.735,6.407-3.722,8.431c2.738-2.525,4.229-5.714,4.229-9.583v-71.15c0-7.228-5.86-13.088-13.088-13.088
			C326.831,347.968,323.364,349.657,320.968,352.326z"/>
		<path fill="#9D9C9F" d="M320.968,352.326c1.984-1.781,5.223-2.722,8.724-2.407c5.604,0.504,10.526,4.417,11.882,10.363
			c0.229,1.012,0.374,2.088,0.407,3.213c0.473,4.169,1.145,63.826,1.329,68.575c0.005,0.104,0.012,1.11,0.003,1.218
			c-0.059,3.326-1.727,6.384-3.733,8.479c2.72-2.493,4.21-5.692,4.21-9.563v-71.15c0-7.228-5.86-13.088-13.088-13.088
			C326.831,347.968,323.364,349.656,320.968,352.326z"/>
		<path fill="#939396" d="M320.968,352.326c2.097-1.881,5.273-2.931,8.727-2.724c5.77,0.345,10.761,4.334,12.146,10.18
			c0.243,1.023,0.386,2.106,0.409,3.234c0.314,2.78,0.961,65.813,1.091,68.979c0.003,0.07,0.011,1.153,0.006,1.225
			c-0.039,3.337-1.718,6.358-3.751,8.528c2.704-2.461,4.192-5.672,4.192-9.541v-71.15c0-7.228-5.86-13.088-13.088-13.088
			C326.831,347.968,323.364,349.657,320.968,352.326z"/>
		<path fill="#8A8B8D" d="M320.968,352.326c2.207-1.981,5.322-3.143,8.729-3.041c5.934,0.177,10.996,4.25,12.41,9.996
			c0.258,1.035,0.399,2.125,0.41,3.254c0.157,1.39,0.8,67.798,0.854,69.381c0.001,0.035,0.011,1.196,0.008,1.232
			c-0.02,3.349-1.709,6.333-3.766,8.576c2.687-2.43,4.174-5.65,4.174-9.521v-71.15c0-7.228-5.86-13.088-13.088-13.088
			C326.831,347.968,323.364,349.656,320.968,352.326z"/>
		<path fill="#818285" d="M330.7,347.968c-3.869,0-7.336,1.689-9.732,4.358c2.318-2.081,5.372-3.358,8.732-3.358
			c7.228,0,13.088,5.86,13.088,13.088l0.626,71.023c0,3.36-1.7,6.309-3.781,8.626c2.669-2.396,4.155-5.63,4.155-9.499v-71.15
			C343.788,353.828,337.928,347.968,330.7,347.968z"/>
	</g>
	<g>
		<path fill="#FFFFFF" d="M291.435,347.968c-3.869,0-7.336,1.689-9.732,4.358c2.318-2.081,16.563-0.86,18.467,11.961
			c2.006,13.506,2.857,49.714,3.625,68.396c0.146,3.563-1.595,7.564-3.629,9.254c2.858-2.754,4.357-5.861,4.357-9.73v-71.15
			C304.523,353.828,298.663,347.968,291.435,347.968z"/>
		<path fill="#EDECEC" d="M281.703,352.326c1.205-1.081,4.881-1.396,8.698-0.187c4.469,1.415,8.989,4.977,10.036,11.648
			c0.148,0.928,0.28,1.955,0.394,3.068c1.572,13.899,2.345,49.92,2.995,65.751c0.014,0.35,0.01,0.814-0.014,1.17
			c-0.196,3.246-1.789,6.559-3.628,8.14c2.841-2.722,4.339-5.841,4.339-9.71v-71.15c0-7.228-5.86-13.088-13.087-13.088
			C287.565,347.968,284.099,349.656,281.703,352.326z"/>
		<path fill="#E0DEDF" d="M281.703,352.326c1.317-1.182,4.923-1.568,8.702-0.504c4.624,1.303,9.196,4.898,10.3,11.464
			c0.158,0.939,0.293,1.973,0.396,3.088c1.415,12.509,2.172,51.906,2.757,66.155c0.013,0.313,0.01,0.856-0.011,1.177
			c-0.177,3.257-1.78,6.533-3.644,8.188c2.824-2.688,4.321-5.819,4.321-9.688v-71.15c0-7.228-5.86-13.088-13.088-13.088
			C287.566,347.968,284.099,349.657,281.703,352.326z"/>
		<path fill="#D3D2D2" d="M281.703,352.326c1.427-1.281,4.97-1.747,8.705-0.821c4.783,1.186,9.415,4.819,10.564,11.281
			c0.169,0.952,0.306,1.992,0.398,3.109c1.258,11.119,1.999,53.894,2.519,66.559c0.012,0.279,0.01,0.899-0.009,1.184
			c-0.157,3.271-1.771,6.509-3.659,8.237c2.807-2.656,4.303-5.799,4.303-9.668v-71.15c0-7.228-5.861-13.088-13.088-13.088
			C287.565,347.968,284.099,349.656,281.703,352.326z"/>
		<path fill="#C8C6C7" d="M281.703,352.326c1.539-1.381,5.018-1.932,8.708-1.139c4.944,1.063,9.636,4.74,10.828,11.098
			c0.181,0.963,0.319,2.011,0.399,3.129c1.101,9.729,1.825,55.88,2.28,66.962c0.011,0.245,0.011,0.941-0.006,1.19
			c-0.138,3.279-1.763,6.482-3.674,8.285c2.789-2.624,4.284-5.777,4.284-9.646v-71.15c0-7.228-5.861-13.088-13.088-13.088
			C287.566,347.968,284.099,349.657,281.703,352.326z"/>
		<path fill="#BCBBBC" d="M281.703,352.326c1.65-1.481,5.068-2.122,8.711-1.456c5.108,0.935,9.858,4.66,11.092,10.915
			c0.192,0.976,0.332,2.03,0.401,3.15c0.943,8.339,1.652,57.867,2.043,67.365c0.009,0.21,0.01,0.984-0.004,1.197
			c-0.118,3.291-1.754,6.458-3.689,8.334c2.772-2.592,4.266-5.756,4.266-9.626v-71.15c0-7.228-5.861-13.087-13.088-13.087
			C287.566,347.968,284.1,349.657,281.703,352.326z"/>
		<path fill="#B1B0B2" d="M281.703,352.326c1.761-1.581,5.119-2.317,8.715-1.772c5.273,0.799,10.08,4.579,11.355,10.73
			c0.205,0.988,0.347,2.049,0.403,3.171c0.786,6.95,1.48,59.854,1.805,67.77c0.007,0.175,0.01,1.026-0.001,1.203
			c-0.098,3.304-1.744,6.435-3.705,8.383c2.756-2.559,4.248-5.734,4.248-9.604v-71.15c0-7.228-5.861-13.088-13.087-13.088
			C287.565,347.968,284.1,349.656,281.703,352.326z"/>
		<path fill="#A7A6A8" d="M281.703,352.326c1.873-1.681,5.17-2.518,8.718-2.09c5.439,0.655,10.307,4.498,11.62,10.547
			c0.217,1,0.359,2.068,0.405,3.192c0.629,5.56,1.307,61.839,1.567,68.171c0.006,0.141,0.011,1.069,0.001,1.212
			c-0.078,3.313-1.735,6.407-3.72,8.431c2.738-2.525,4.229-5.714,4.229-9.583v-71.15c0-7.228-5.861-13.088-13.088-13.088
			C287.566,347.968,284.099,349.657,281.703,352.326z"/>
		<path fill="#9D9C9F" d="M281.703,352.326c1.984-1.781,5.221-2.722,8.722-2.407c5.604,0.504,10.535,4.417,11.884,10.364
			c0.229,1.011,0.372,2.087,0.407,3.212c0.472,4.17,1.12,63.828,1.329,68.576c0.004,0.104,0.011,1.109,0.004,1.217
			c-0.059,3.326-1.727,6.384-3.735,8.479c2.721-2.493,4.211-5.692,4.211-9.563v-71.15c0-7.228-5.861-13.088-13.088-13.088
			C287.566,347.968,284.099,349.656,281.703,352.326z"/>
		<path fill="#939396" d="M281.703,352.326c2.096-1.881,5.273-2.931,8.726-2.725c5.77,0.344,10.759,4.336,12.147,10.181
			c0.243,1.023,0.387,2.106,0.409,3.233c0.314,2.78,0.961,65.813,1.091,68.979c0.003,0.068,0.011,1.152,0.006,1.224
			c-0.039,3.337-1.718,6.358-3.75,8.528c2.703-2.461,4.192-5.672,4.192-9.541v-71.15c0-7.228-5.86-13.088-13.088-13.088
			C287.566,347.968,284.099,349.657,281.703,352.326z"/>
		<path fill="#8A8B8D" d="M281.703,352.326c2.207-1.981,5.323-3.143,8.729-3.041c5.935,0.177,10.998,4.251,12.411,9.997
			c0.258,1.035,0.399,2.125,0.411,3.253c0.157,1.39,0.789,67.799,0.854,69.382c0.001,0.035,0.011,1.195,0.008,1.231
			c-0.02,3.349-1.709,6.333-3.766,8.576c2.686-2.43,4.173-5.65,4.173-9.521v-71.15c0-7.228-5.86-13.088-13.088-13.088
			C287.566,347.968,284.099,349.656,281.703,352.326z"/>
		<path fill="#818285" d="M291.435,347.968c-3.869,0-7.336,1.689-9.732,4.358c2.318-2.081,5.372-3.358,8.732-3.358
			c7.228,0,13.088,5.86,13.088,13.088l0.626,71.023c0,3.36-1.7,6.309-3.781,8.626c2.669-2.396,4.155-5.63,4.155-9.499v-71.15
			C304.523,353.828,298.663,347.968,291.435,347.968z"/>
	</g>
</g>
</svg>
